<?xml version="1.0" standalone="no"?>
<!DOCTYPE svg PUBLIC "-//W3C//DTD SVG 1.1//EN" "http://www.w3.org/Graphics/SVG/1.1/DTD/svg11.dtd" >
<svg xmlns="http://www.w3.org/2000/svg" xmlns:xlink="http://www.w3.org/1999/xlink" version="1.1">
<metadata>
Created by FontForge 20170731 at Mon Dec 21 21:54:55 2020
 By Aleksey,,,
Copyright (c) 2017 by 29Letters. All rights reserved.
</metadata>
<defs>
<font id="29LTBukra-Rg" horiz-adv-x="0" >
  <font-face 
    font-family="29LT Bukra Rg"
    font-weight="400"
    font-stretch="normal"
    units-per-em="2048"
    panose-1="0 0 5 0 0 0 0 0 0 0"
    ascent="1638"
    descent="-410"
    x-height="1139"
    cap-height="1661"
    bbox="-1700 -920 3967 2234"
    underline-thickness="102"
    underline-position="-307"
    unicode-range="U+000D-FEFC"
  />
<missing-glyph horiz-adv-x="1024" 
 />
    <glyph glyph-name="fi" unicode="fi" horiz-adv-x="1306" 
d="M1122 1139v-1139h-204v950h-439v-950h-203v950h-221v189h221v149q0 109 26 181.5t83.5 115t138 59.5t199.5 17h389v-188h-383q-137 0 -193.5 -49t-56.5 -179v-106h643z" />
    <glyph glyph-name="fl" unicode="fl" horiz-adv-x="1390" 
d="M1208 1661v-1661h-204v1473h-295q-121 0 -175.5 -48.5t-54.5 -167.5v-118h426v-189h-426v-950h-205v950h-219v189h219v149q0 209 104.5 291t342.5 82h487z" />
    <glyph glyph-name="uniFEF5" unicode="&#xfedf;&#xfe82;" horiz-adv-x="1396" arabic-form="isolated" 
d="M96 0l-39 201h584q181 0 279 83.5t98 239.5v1288h201v-1271q0 -268 -152 -404.5t-449 -136.5h-522zM301 1546v135h369v-135h-369zM385 352v1102h201v-1102h-201z" />
    <glyph glyph-name="uniFEF6" unicode="&#xfee0;&#xfe82;" horiz-adv-x="1513" arabic-form="final" 
d="M1219 547q0 -346 335 -346v-201q-155 0 -263 60t-148 169q-137 -229 -525 -229h-522l-39 201h584q181 0 279 83.5t98 239.5v1288h201v-1265zM670 1681v-135h-369v135h369zM586 352h-201v1102h201v-1102z" />
    <glyph glyph-name="uniFEF7" unicode="&#xfedf;&#xfe84;" horiz-adv-x="1396" arabic-form="isolated" 
d="M332 1612v147q0 95 55 152t152 57h43v-113h-56q-37 0 -56 -23t-19 -63v-36h186v-121h-305zM96 0l-39 201h584q181 0 279 83.5t98 239.5v1288h201v-1271q0 -268 -152 -404.5t-449 -136.5h-522zM385 352v1102h201v-1102h-201z" />
    <glyph glyph-name="uniFEF8" unicode="&#xfee0;&#xfe84;" horiz-adv-x="1513" arabic-form="final" 
d="M637 1733v-121h-305v147q0 95 55 152t152 57h43v-113h-56q-37 0 -56 -23t-19 -63v-36h186zM1219 547q0 -346 335 -346v-201q-155 0 -263 60t-148 169q-137 -229 -525 -229h-522l-39 201h584q181 0 279 83.5t98 239.5v1288h201v-1265zM586 352h-201v1102h201v-1102z" />
    <glyph glyph-name="uniFEF9" unicode="&#xfedf;&#xfe88;" horiz-adv-x="1396" arabic-form="isolated" 
d="M96 0l-39 201h584q181 0 279 83.5t98 239.5v1288h201v-1271q0 -268 -152 -404.5t-449 -136.5h-522zM385 352v1102h201v-1102h-201zM342 -489v147q0 95 56 152t153 57h59v-113h-71q-37 0 -56.5 -23t-19.5 -63v-37h205v-120h-326z" />
    <glyph glyph-name="uniFEFA" unicode="&#xfee0;&#xfe88;" horiz-adv-x="1513" arabic-form="final" 
d="M1219 547q0 -346 335 -346v-201q-155 0 -263 60t-148 169q-137 -229 -525 -229h-522l-39 201h584q181 0 279 83.5t98 239.5v1288h201v-1265zM586 1454v-1102h-201v1102h201zM463 -332v-37h205v-120h-326v147q0 95 56 152t153 57h59v-113h-71q-37 0 -56.5 -23t-19.5 -63z
" />
    <glyph glyph-name="uniFEFB" unicode="&#xfedf;&#xfe8e;" horiz-adv-x="1396" arabic-form="isolated" 
d="M96 0l-39 201h584q181 0 279 83.5t98 239.5v1288h201v-1271q0 -268 -152 -404.5t-449 -136.5h-522zM385 352v1102h201v-1102h-201z" />
    <glyph glyph-name="uniFEFC" unicode="&#xfee0;&#xfe8e;" horiz-adv-x="1513" arabic-form="final" 
d="M1219 547q0 -346 335 -346v-201q-155 0 -263 60t-148 169q-137 -229 -525 -229h-522l-39 201h584q181 0 279 83.5t98 239.5v1288h201v-1265zM586 1454v-1102h-201v1102h201z" />
    <glyph glyph-name="T_T.liga" unicode="TT" horiz-adv-x="2576" 
d="M2519 1661v-191h-549v-1470h-203v1470h-956v-1470h-203v1470h-551v191h2462z" />
    <glyph glyph-name="f_b.liga" unicode="fb" horiz-adv-x="2187" 
d="M1444 1165q292 0 464.5 -157.5t172.5 -438.5v-2q0 -279 -169.5 -440.5t-469.5 -161.5q-208 0 -438 72v1436h-295q-121 0 -175.5 -48.5t-54.5 -167.5v-118h426v-189h-426v-950h-205v950h-219v189h219v149q0 209 104.5 291t342.5 82h487v-516q137 20 236 20zM1884 565v4
q0 187 -114 299.5t-320 112.5q-113 0 -242 -33v-772q116 -26 240 -26q200 0 318 111t118 304z" />
    <glyph glyph-name="f_h.liga" unicode="fh" horiz-adv-x="2187" 
d="M2005 0h-205v705q0 144 -76.5 206t-224.5 62q-127 0 -291 -31v-942h-204v1473h-295q-121 0 -175.5 -48.5t-54.5 -167.5v-118h426v-189h-426v-950h-205v950h-219v189h219v149q0 209 104.5 291t342.5 82h487v-516q201 24 301 24q494 0 494 -426q0 -124 1 -371.5t1 -371.5z
" />
    <glyph glyph-name="f_k.liga" unicode="fk" horiz-adv-x="2007" 
d="M1978 0h-262l-508 557v-557h-204v1473h-295q-121 0 -175.5 -48.5t-54.5 -167.5v-118h426v-189h-426v-950h-205v950h-219v189h219v149q0 209 104.5 291t342.5 82h487v-1081l492 559h239l-491 -559z" />
    <glyph glyph-name="f_t.liga" unicode="ft" horiz-adv-x="1775" 
d="M1501 186h193v-186h-260q-218 0 -306 86t-88 272v596h-69v-4h-492v-950h-205v950h-219v189h219v125q0 208 104 290t343 82h137v-188h-149q-122 0 -176 -48t-54 -167v-94h561v415h201v-415h449v-185h-449v-534q0 -131 62.5 -182.5t197.5 -51.5z" />
    <glyph glyph-name="uni067E067E.init" unicode="&#xfb58;&#xfb59;" horiz-adv-x="1820" 
d="M0 0v201h328v938h200v-938h953v938h200v-1139h-1681zM389 -373q0 -59 -40.5 -94t-98.5 -35t-98.5 35t-40.5 94q0 56 40 92.5t99 36.5q60 0 99.5 -36t39.5 -93zM621 -244q60 0 99.5 -36t39.5 -93q0 -60 -40 -94.5t-99 -34.5q-58 0 -99 35t-41 94q0 56 40.5 92.5t99.5 36.5
zM1354 -373q0 -59 -41 -94t-99 -35t-98.5 35t-40.5 94q0 56 40 92.5t99 36.5q60 0 100 -36t40 -93zM1585 -244q60 0 99.5 -36t39.5 -93q0 -60 -40 -94.5t-99 -34.5q-58 0 -98.5 35t-40.5 94q0 56 40 92.5t99 36.5zM436 -528q54 0 89.5 -32t35.5 -83q0 -54 -35.5 -85.5
t-89.5 -31.5q-50 0 -87.5 32t-37.5 85q0 50 36 82.5t89 32.5zM1401 -528q54 0 89.5 -32t35.5 -83q0 -54 -35.5 -85.5t-89.5 -31.5q-50 0 -87.5 32t-37.5 85q0 50 36 82.5t89 32.5z" />
    <glyph glyph-name="uni06440671" unicode="&#xfedf;&#xfb51;" horiz-adv-x="1396" 
d="M254 1542v139q0 101 57.5 153t167.5 52h10q111 0 168.5 -52t57.5 -153v-139h-461zM96 0l-39 201h584q181 0 279 83.5t98 239.5v1288h201v-1271q0 -268 -152 -404.5t-449 -136.5h-522zM397 1663h174v29q0 80 -82 80h-10q-82 0 -82 -80v-29zM385 352v1102h201v-1102h-201z
" />
    <glyph glyph-name="uni06440671.fina" unicode="&#xfee0;&#xfb51;" horiz-adv-x="1513" 
d="M715 1681v-139h-461v139q0 101 57.5 153t167.5 52h10q111 0 168.5 -52t57.5 -153zM1219 547q0 -346 335 -346v-201q-155 0 -263 60t-148 169q-137 -229 -525 -229h-522l-39 201h584q181 0 279 83.5t98 239.5v1288h201v-1265zM571 1663v29q0 80 -82 80h-10q-82 0 -82 -80
v-29h174zM586 352h-201v1102h201v-1102z" />
    <glyph glyph-name="uniFC5A.init" unicode="&#xfbfe;&#xfbff;" horiz-adv-x="1820" 
d="M0 0v201h328v938h200v-938h953v938h200v-1139h-1681zM242 -227q62 0 102.5 -36.5t40.5 -94.5q0 -61 -41 -97.5t-102 -36.5q-60 0 -102 36.5t-42 97.5q0 58 41.5 94.5t102.5 36.5zM621 -227q62 0 102.5 -36.5t40.5 -94.5q0 -61 -41 -97.5t-102 -36.5q-60 0 -102 36.5
t-42 97.5q0 58 41.5 94.5t102.5 36.5zM1206 -227q62 0 103 -36.5t41 -94.5q0 -61 -41.5 -97.5t-102.5 -36.5q-59 0 -101 36.5t-42 97.5q0 58 41 94.5t102 36.5zM1585 -227q62 0 103 -36.5t41 -94.5q0 -61 -41.5 -97.5t-102.5 -36.5q-59 0 -101 36.5t-42 97.5q0 58 41 94.5
t102 36.5z" />
    <glyph glyph-name="uni066E.init" unicode="&#x66e;" horiz-adv-x="548" 
d="M0 0v201h209v938h201v-1139h-410z" />
    <glyph glyph-name="uni066E.medi" unicode="&#x66e;" horiz-adv-x="618" 
d="M410 201h249v-201h-659v201h209v938h201v-938z" />
    <glyph glyph-name="uni066E.fina" unicode="&#x66e;" horiz-adv-x="1718" 
d="M1509 201h250v-201h-1042q-606 0 -606 575v386h200v-365q0 -395 447 -395h551v938h200v-938z" />
    <glyph glyph-name="uni066F.fina" unicode="&#x66f;" horiz-adv-x="1796" 
d="M1837 201v-201h-250v-451h-870q-606 0 -606 576v450h200v-430q0 -395 447 -395h628v281h-122q-285 0 -457 142.5t-172 391.5v2q0 258 179.5 415t475.5 157h297v-938h250zM1249 201h137v739h-137q-189 0 -306.5 -101.5t-117.5 -271.5v-2q0 -164 118 -264t306 -100z" />
    <glyph glyph-name="uni06A1.init" unicode="&#x6a1;" horiz-adv-x="1265" 
d="M1128 1139v-1022l-2 -23v-94h-8h-313h-805v201h305q-129 144 -129 364v2q0 258 179.5 415t475.5 157h297zM791 201h137v739h-137q-189 0 -306.5 -101.5t-117.5 -271.5v-2q0 -164 118 -264t306 -100z" />
    <glyph glyph-name="uni06A1.medi" unicode="&#x6a1;" horiz-adv-x="1337" 
d="M1128 201h250v-201h-260h-10h-303h-805v201h305q-129 144 -129 364v2q0 258 179.5 415t475.5 157h297v-938zM791 201h137v739h-137q-189 0 -306.5 -101.5t-117.5 -271.5v-2q0 -164 118 -264t306 -100z" />
    <glyph glyph-name="uni06A1.fina" unicode="&#x6a1;" horiz-adv-x="2109" 
d="M1901 201h249v-201h-260h-10h-303h-860q-606 0 -606 575v386h200v-365q0 -395 447 -395h319q-129 144 -129 364v2q0 258 180 415t476 157h297v-938zM1563 201h137v739h-137q-189 0 -306.5 -101.5t-117.5 -271.5v-2q0 -164 118 -264t306 -100z" />
    <glyph glyph-name="uni06C2.fina" unicode="&#x6c2;" horiz-adv-x="1193" 
d="M852 1442v-156h-430v238q0 104 60.5 164.5t164.5 60.5h129v-119h-117q-104 0 -104 -102v-86h297zM985 201h250v-201h-451v950h-184q-134 0 -205 -79t-71 -212l2 -344h-201l-2 312q-1 254 131.5 383t380.5 129h350v-938z" />
    <glyph glyph-name="uni06C3.fina" unicode="&#x6c3;" horiz-adv-x="1193" 
d="M446 1368q-60 0 -101.5 36t-41.5 97q0 58 41 95.5t102 37.5q62 0 103 -37.5t41 -95.5q0 -61 -41.5 -97t-102.5 -36zM825 1368q-60 0 -101.5 36t-41.5 97q0 58 41 95.5t102 37.5q62 0 103 -37.5t41 -95.5q0 -61 -41.5 -97t-102.5 -36zM985 201h250v-201h-451v950h-184
q-134 0 -205 -79t-71 -212l2 -344h-201l-2 312q-1 254 131.5 383t380.5 129h350v-938z" />
    <glyph glyph-name="uni06D5.fina" unicode="&#x6d5;" horiz-adv-x="1269" 
d="M1061 201h250v-201h-451h-123q-283 0 -455.5 155t-172.5 410v2q0 258 179.5 415t475.5 157h96v102h201v-1040zM860 201v739h-137q-189 0 -306.5 -101.5t-117.5 -271.5v-2q0 -164 118 -264t306 -100h137z" />
    <glyph glyph-name="uniFB51" unicode="&#x671;" horiz-adv-x="696" arabic-form="final" 
d="M508 1642v-139h-461v139q0 101 57.5 153t167.5 52h11q110 0 167.5 -52t57.5 -153zM365 1624v29q0 80 -82 80h-11q-82 0 -82 -80v-29h175zM379 201h358v-201h-559v1415h201v-1214z" />
    <glyph glyph-name="uniFB57" unicode="&#x67e;" horiz-adv-x="1718" arabic-form="final" 
d="M1509 201h250v-201h-1042q-606 0 -606 575v386h200v-365q0 -395 447 -395h551v938h200v-938zM856 -373q0 -59 -40.5 -94t-98.5 -35t-98.5 35t-40.5 94q0 56 40 92.5t99 36.5q60 0 99.5 -36t39.5 -93zM1087 -244q60 0 100 -36t40 -93q0 -59 -40.5 -94t-99.5 -35
q-58 0 -98.5 35t-40.5 94q0 56 40 92.5t99 36.5zM903 -528q54 0 89.5 -32t35.5 -83q0 -54 -35.5 -85.5t-89.5 -31.5q-50 0 -87.5 32t-37.5 85q0 50 36 82.5t89 32.5z" />
    <glyph glyph-name="uniFB58" unicode="&#x67e;" horiz-adv-x="737" arabic-form="initial" 
d="M0 0v201h397v938h201v-1139h-598zM131 -502q-58 0 -98.5 35t-40.5 94q0 56 40 92.5t99 36.5q60 0 99.5 -36t39.5 -93q0 -59 -40.5 -94t-98.5 -35zM502 -502q-58 0 -99 35t-41 94q0 56 40.5 92.5t99.5 36.5q60 0 99.5 -36t39.5 -93q0 -60 -40 -94.5t-99 -34.5zM317 -760
q-50 0 -87 32t-37 85q0 50 35.5 82.5t88.5 32.5q54 0 89.5 -32t35.5 -83q0 -54 -35.5 -85.5t-89.5 -31.5z" />
    <glyph glyph-name="uniFB59" unicode="&#x67e;" horiz-adv-x="854" arabic-form="medial" 
d="M895 201v-201h-895v201h328v938h200v-938h367zM389 -373q0 -59 -40.5 -94t-98.5 -35t-98.5 35t-40.5 94q0 56 40 92.5t99 36.5q60 0 99.5 -36t39.5 -93zM621 -244q60 0 99.5 -36t39.5 -93q0 -60 -40 -94.5t-99 -34.5q-58 0 -99 35t-41 94q0 56 40.5 92.5t99.5 36.5z
M436 -528q54 0 89.5 -32t35.5 -83q0 -54 -35.5 -85.5t-89.5 -31.5q-50 0 -87.5 32t-37.5 85q0 50 36 82.5t89 32.5z" />
    <glyph glyph-name="uniFB67" unicode="&#x679;" horiz-adv-x="1718" arabic-form="final" 
d="M1067 1354v-142h-463v416h152v-82h108q92 0 147.5 -52t55.5 -140zM915 1333v37q0 64 -65 64h-94v-101h159zM1509 201h250v-201h-1042q-606 0 -606 575v386h200v-365q0 -395 447 -395h551v938h200v-938z" />
    <glyph glyph-name="uniFB68" unicode="&#x679;" horiz-adv-x="774" arabic-form="initial" 
d="M303 1290v416h152v-82h108q92 0 147.5 -52t55.5 -140v-142h-463zM455 1411h159v37q0 63 -65 63h-94v-100zM0 0v201h397v938h201v-1139h-598z" />
    <glyph glyph-name="uniFB69" unicode="&#x679;" horiz-adv-x="854" arabic-form="medial" 
d="M666 1440v-142h-463v416h151v-82h109q92 0 147.5 -52t55.5 -140zM514 1419v37q0 64 -65 64h-95v-101h160zM895 201v-201h-895v201h328v938h200v-938h367z" />
    <glyph glyph-name="uniFB6B" unicode="&#x6a4;" horiz-adv-x="2107" arabic-form="final" 
d="M1513 1645q-50 0 -87 31.5t-37 84.5q0 50 35.5 82.5t88.5 32.5q54 0 89.5 -32t35.5 -83q0 -54 -36 -85t-89 -31zM1327 1364q-58 0 -98.5 35t-40.5 94q0 56 40 92.5t99 36.5q60 0 99.5 -36t39.5 -93q0 -59 -40.5 -94t-98.5 -35zM1559 1493q0 56 40 92.5t99 36.5
q60 0 99.5 -36t39.5 -93q0 -60 -40 -94.5t-99 -34.5q-58 0 -98.5 35t-40.5 94zM1901 201h247v-201h-258h-12h-301h-860q-606 0 -606 575v386h200v-365q0 -395 447 -395h319q-129 144 -129 364v2q0 258 180 415t476 157h297v-938zM1563 201h137v739h-137
q-189 0 -306.5 -101.5t-117.5 -271.5v-2q0 -164 118 -264t306 -100z" />
    <glyph glyph-name="uniFB6C" unicode="&#x6a4;" horiz-adv-x="1265" arabic-form="initial" 
d="M838 1645q-50 0 -87.5 31.5t-37.5 84.5q0 50 36 82.5t89 32.5q54 0 89.5 -32t35.5 -83q0 -54 -36 -85t-89 -31zM651 1364q-58 0 -98.5 35t-40.5 94q0 56 40 92.5t99 36.5q60 0 100 -36t40 -93q0 -59 -41 -94t-99 -35zM883 1493q0 56 40 92.5t99 36.5q60 0 99.5 -36
t39.5 -93q0 -60 -40 -94.5t-99 -34.5q-58 0 -98.5 35t-40.5 94zM176 567q0 258 179.5 415t475.5 157h297v-1022l-2 -23v-94h-8h-313h-805v201h305q-129 144 -129 364v2zM928 201v739h-137q-189 0 -306.5 -101.5t-117.5 -271.5v-2q0 -164 118 -264t306 -100h137z" />
    <glyph glyph-name="uniFB6D" unicode="&#x6a4;" horiz-adv-x="1337" arabic-form="medial" 
d="M838 1645q-50 0 -87.5 31.5t-37.5 84.5q0 50 36 82.5t89 32.5q54 0 89.5 -32t35.5 -83q0 -54 -36 -85t-89 -31zM651 1364q-58 0 -98.5 35t-40.5 94q0 56 40 92.5t99 36.5q60 0 100 -36t40 -93q0 -59 -41 -94t-99 -35zM883 1493q0 56 40 92.5t99 36.5q60 0 99.5 -36
t39.5 -93q0 -60 -40 -94.5t-99 -34.5q-58 0 -98.5 35t-40.5 94zM1128 201h250v-201h-260h-10h-303h-805v201h305q-129 144 -129 364v2q0 258 179.5 415t475.5 157h297v-938zM791 201h137v739h-137q-189 0 -306.5 -101.5t-117.5 -271.5v-2q0 -164 118 -264t306 -100z" />
    <glyph glyph-name="uniFB7B" unicode="&#x686;" horiz-adv-x="1431" arabic-form="final" 
d="M1227 201h246v-201h-826q-123 0 -205 -46.5t-147 -150.5l-86 -131l-158 115l105 154q92 138 202 199t271 61h399q47 190 47 368q0 186 -99 293t-271 107q-88 0 -160.5 -22t-167.5 -79l-72 185q219 116 414 116q263 0 405 -161t142 -449q0 -156 -39 -358zM788 -383
q0 -59 -40.5 -94t-98.5 -35t-98.5 35t-40.5 94q0 56 40 92.5t99 36.5q60 0 99.5 -36t39.5 -93zM1020 -254q60 0 99.5 -36t39.5 -93q0 -60 -40 -94.5t-99 -34.5q-58 0 -98.5 35t-40.5 94q0 56 40 92.5t99 36.5zM836 -539q54 0 89.5 -31.5t35.5 -82.5q0 -54 -35.5 -85.5
t-89.5 -31.5q-50 0 -87.5 32t-37.5 85q0 50 36 82t89 32z" />
    <glyph glyph-name="uniFB7C" unicode="&#x686;" horiz-adv-x="1181" arabic-form="initial" 
d="M524 1169q263 0 405 -161t142 -449q0 -128 -25 -281.5t-61 -277.5h-985v201h834q47 190 47 368q0 186 -99.5 293t-271.5 107q-88 0 -160.5 -22t-167.5 -79l-71 185q219 116 413 116zM504 -373q0 -59 -40.5 -94t-98.5 -35t-99 35t-41 94q0 56 40.5 92.5t99.5 36.5
q60 0 99.5 -36t39.5 -93zM735 -244q60 0 99.5 -36t39.5 -93q0 -60 -40 -94.5t-99 -34.5q-58 0 -98.5 35t-40.5 94q0 56 40 92.5t99 36.5zM551 -528q54 0 89.5 -32t35.5 -83q0 -54 -35.5 -85.5t-89.5 -31.5q-50 0 -87.5 32t-37.5 85q0 50 36 82.5t89 32.5z" />
    <glyph glyph-name="uniFB7D" unicode="&#x686;" horiz-adv-x="1236" arabic-form="medial" 
d="M1032 201h246v-201h-1278v201h834q47 190 47 368q0 186 -99.5 293t-271.5 107q-88 0 -160.5 -22t-167.5 -79l-71 185q219 116 413 116q263 0 405 -161t142 -449q0 -156 -39 -358zM504 -373q0 -59 -40.5 -94t-98.5 -35t-99 35t-41 94q0 56 40.5 92.5t99.5 36.5
q60 0 99.5 -36t39.5 -93zM735 -244q60 0 99.5 -36t39.5 -93q0 -60 -40 -94.5t-99 -34.5q-58 0 -98.5 35t-40.5 94q0 56 40 92.5t99 36.5zM551 -528q54 0 89.5 -32t35.5 -83q0 -54 -35.5 -85.5t-89.5 -31.5q-50 0 -87.5 32t-37.5 85q0 50 36 82.5t89 32.5z" />
    <glyph glyph-name="uniFB89" unicode="&#x688;" horiz-adv-x="1193" arabic-form="final" 
d="M727 1440v-142h-463v416h152v-82h108q92 0 147.5 -52t55.5 -140zM575 1419v37q0 64 -65 64h-94v-101h159zM985 201h250v-201h-1178v201h738v432q0 305 -297 305h-78v201h49q262 0 389 -131.5t127 -391.5v-415z" />
    <glyph glyph-name="uniFB8B" unicode="&#x698;" horiz-adv-x="718" arabic-form="final" 
d="M418 1645q-50 0 -87.5 31.5t-37.5 84.5q0 50 36 82.5t89 32.5q54 0 89.5 -32t35.5 -83q0 -54 -36 -85t-89 -31zM231 1364q-58 0 -98.5 35t-40.5 94q0 56 40 92.5t99 36.5q60 0 100 -36t40 -93q0 -59 -41 -94t-99 -35zM463 1493q0 56 40 92.5t99 36.5q60 0 99.5 -36
t39.5 -93q0 -60 -40 -94.5t-99 -34.5q-58 0 -98.5 35t-40.5 94zM760 201v-201h-242v-10q0 -126 -23 -211.5t-72.5 -136t-117.5 -72t-166 -21.5q-70 0 -159 21l-17 174q92 -12 158 -12q96 0 146 53t50 174v1180h201v-938h242z" />
    <glyph glyph-name="uniFB8D" unicode="&#x691;" horiz-adv-x="718" arabic-form="final" 
d="M649 1440v-142h-463v416h152v-82h108q92 0 147.5 -52t55.5 -140zM498 1419v37q0 64 -66 64h-94v-101h160zM760 201v-201h-242v-10q0 -126 -23 -211.5t-72.5 -136t-117.5 -72t-166 -21.5q-70 0 -159 21l-17 174q92 -12 158 -12q96 0 146 53t50 174v1180h201v-938h242z" />
    <glyph glyph-name="uniFB8F" unicode="&#x6a9;" horiz-adv-x="1951" arabic-form="final" 
d="M1743 201h250v-201h-1276q-606 0 -606 575v386h200v-365q0 -395 447 -395h782v346q0 146 -75.5 218.5t-213.5 72.5h-483q-65 93 -68 200l320 625h246l-340 -623h303q514 0 514 -522v-317z" />
    <glyph glyph-name="uniFB90" unicode="&#x6a9;" horiz-adv-x="1359" arabic-form="initial" 
d="M0 0v201h1038v346q0 146 -75 218.5t-213 72.5h-566q-62 88 -67 200l319 623h246l-340 -621h387q514 0 514 -522v-518h-1243z" />
    <glyph glyph-name="uniFB91" unicode="&#x6a9;" horiz-adv-x="1452" arabic-form="medial" 
d="M1243 201h250v-201h-1493v201h1038v346q0 146 -75 218.5t-213 72.5h-566q-62 88 -67 200l319 623h246l-340 -621h387q514 0 514 -522v-317z" />
    <glyph glyph-name="uniFB93" unicode="&#x6af;" horiz-adv-x="1951" arabic-form="final" 
d="M1743 201h250v-201h-1276q-606 0 -606 575v386h200v-365q0 -395 447 -395h782v346q0 146 -75.5 218.5t-213.5 72.5h-483q-65 93 -68 200l320 625h246l-340 -623h303q514 0 514 -522v-317zM864 1663l-340 -639l-202 -2l342 641h200z" />
    <glyph glyph-name="uniFB94" unicode="&#x6af;" horiz-adv-x="1597" arabic-form="initial" 
d="M518 1663l-340 -639l-203 -2l342 641h201zM967 1040q514 0 514 -522v-518h-1481v201h1276v346q0 146 -75.5 218.5t-213.5 72.5h-565q-63 89 -68 200l320 623h246l-340 -621h387z" />
    <glyph glyph-name="uniFB95" unicode="&#x6af;" horiz-adv-x="1689" arabic-form="medial" 
d="M518 1663l-340 -639l-203 -2l342 641h201zM1481 201h250v-201h-1731v201h1276v346q0 146 -75.5 218.5t-213.5 72.5h-565q-63 89 -68 200l320 623h246l-340 -621h387q514 0 514 -522v-317z" />
    <glyph glyph-name="uniFB9F" unicode="&#x6ba;" horiz-adv-x="1386" arabic-form="final" 
d="M1427 201v-201h-249v-256h-461q-296 0 -451 145.5t-155 421.5v688h202v-663q0 -391 435 -391h229v1054h201v-798h249z" />
    <glyph glyph-name="uniFBA5" unicode="&#x6c0;" horiz-adv-x="1269" arabic-form="final" 
d="M1077 1513v-155h-430v237q0 104 60.5 165t164.5 61h129v-119h-116q-105 0 -105 -103v-86h297zM1061 201h250v-201h-451h-123q-283 0 -455.5 155t-172.5 410v2q0 258 179.5 415t475.5 157h96v102h201v-1040zM860 201v739h-137q-189 0 -306.5 -101.5t-117.5 -271.5v-2
q0 -164 118 -264t306 -100h137z" />
    <glyph glyph-name="uniFBA7" unicode="&#x6c1;" horiz-adv-x="1193" arabic-form="final" 
d="M985 201h250v-201h-451v950h-184q-134 0 -205 -79t-71 -212l2 -344h-201l-2 312q-1 254 131.5 383t380.5 129h350v-938z" />
    <glyph glyph-name="uniFBA8" unicode="&#x6c1;" horiz-adv-x="737" arabic-form="initial" 
d="M0 0v201h397v938h201v-1139h-598zM362 -455l-151 4l106 359l211 -2z" />
    <glyph glyph-name="uniFBA9" unicode="&#x6c1;" horiz-adv-x="1579" arabic-form="medial" 
d="M647 -451q-200 0 -322 103t-132 299v49h-193v201h182v592h203v-834q0 -139 69 -210t195 -71h172v523h799v-201h-598v-451h-375zM1305 -455l-152 4l107 359l210 -2z" />
    <glyph glyph-name="uniFBAB" unicode="&#x6be;" horiz-adv-x="1871" arabic-form="final" 
d="M1620 201h293v-201h-1858l41 201h252q-22 113 -22 223q0 214 122.5 345.5t315.5 131.5t315.5 -130t122.5 -341q0 -102 -24 -229h239q27 185 27 311q0 210 -80 358t-221 220.5t-330 72.5q-238 0 -471 -127l-72 181q290 147 574 147q174 0 320.5 -55.5t254 -159.5t168 -264
t60.5 -359q0 -104 -27 -325zM526 401q0 -97 21 -200h434q20 95 20 200q0 134 -66.5 216.5t-174.5 82.5q-105 0 -169.5 -82.5t-64.5 -216.5z" />
    <glyph glyph-name="uniFBAC" unicode="&#x6be;" horiz-adv-x="1660" arabic-form="initial" 
d="M748 1364q174 0 320 -55.5t253.5 -159.5t168 -264t60.5 -359q0 -201 -59 -526h-1491v201h252q-23 118 -23 223q0 214 123 345.5t316 131.5t315.5 -130t122.5 -341q0 -97 -25 -229h240q27 185 27 311q0 210 -80 358t-221 220.5t-330 72.5q-238 0 -471 -127l-72 181
q290 147 574 147zM430 401q0 -97 21 -200h434q20 95 20 200q0 134 -66.5 216.5t-174.5 82.5q-105 0 -169.5 -82.5t-64.5 -216.5z" />
    <glyph glyph-name="uniFBAD" unicode="&#x6be;" horiz-adv-x="1775" arabic-form="medial" 
d="M1524 201h293v-201h-1817v201h252q-23 118 -23 223q0 214 123 345.5t316 131.5t315.5 -130t122.5 -341q0 -97 -25 -229h240q27 185 27 311q0 210 -80 358t-221 220.5t-330 72.5q-238 0 -471 -127l-72 181q290 147 574 147q174 0 320 -55.5t253.5 -159.5t168 -264
t60.5 -359q0 -112 -26 -325zM430 401q0 -97 21 -200h434q20 95 20 200q0 134 -66.5 216.5t-174.5 82.5q-105 0 -169.5 -82.5t-64.5 -216.5z" />
    <glyph glyph-name="uniFBAF" unicode="&#x6d2;" horiz-adv-x="1501" arabic-form="final" 
d="M528 -451q-243 0 -357 90t-114 291v271h1485v-201h-1282v-82q0 -91 53 -129.5t166 -38.5h623v-201h-574z" />
    <glyph glyph-name="uniFBB1" unicode="&#x6d3;" horiz-adv-x="1501" arabic-form="final" 
d="M514 426v238q0 104 60.5 164.5t164.5 60.5h129v-119h-116q-105 0 -105 -102v-86h297v-156h-430zM528 -451q-243 0 -357 90t-114 291v271h1485v-201h-1282v-82q0 -91 53 -129.5t166 -38.5h623v-201h-574z" />
    <glyph glyph-name="uniFBFD" unicode="&#x6cc;" horiz-adv-x="2172" arabic-form="final" 
d="M1964 201h250v-201h-451v948h-200q-136 0 -206.5 -78t-70.5 -211v-915h-569q-606 0 -606 575v451h200v-430q0 -395 447 -395h327v682q-1 254 131 383t379 129h369v-938z" />
    <glyph glyph-name="uniFBFE" unicode="&#x6cc;" horiz-adv-x="737" arabic-form="initial" 
d="M0 0v201h397v938h201v-1139h-598zM123 -492q-59 0 -101 36.5t-42 97.5q0 58 41 94.5t102 36.5q62 0 102.5 -36.5t40.5 -94.5q0 -61 -41 -97.5t-102 -36.5zM502 -492q-60 0 -102 36.5t-42 97.5q0 58 41.5 94.5t102.5 36.5q62 0 102.5 -36.5t40.5 -94.5q0 -61 -41 -97.5
t-102 -36.5z" />
    <glyph glyph-name="uniFBFF" unicode="&#x6cc;" horiz-adv-x="854" arabic-form="medial" 
d="M895 201v-201h-895v201h328v938h200v-938h367zM242 -227q62 0 102.5 -36.5t40.5 -94.5q0 -61 -41 -97.5t-102 -36.5q-60 0 -102 36.5t-42 97.5q0 58 41.5 94.5t102.5 36.5zM621 -227q62 0 102.5 -36.5t40.5 -94.5q0 -61 -41 -97.5t-102 -36.5q-60 0 -102 36.5t-42 97.5
q0 58 41.5 94.5t102.5 36.5z" />
    <glyph glyph-name="uniFC64" unicode="&#xfc64;" horiz-adv-x="1486" arabic-form="final" 
d="M1217 1663v-121h-306v148q0 95 55 151.5t152 56.5h43v-112h-55q-37 0 -56.5 -23t-19.5 -63v-37h187zM1483 203h45v-203h-45q-256 0 -388 137.5t-132 403.5v397h-445v-948q0 -126 -23 -211.5t-72.5 -136t-117.5 -72t-166 -21.5q-70 0 -159 21l-17 174q92 -12 158 -12
q96 0 146 53t50 174v1180h646v245h200v-856q0 -160 81 -242.5t239 -82.5z" />
    <glyph glyph-name="uniFC65" unicode="&#xfc65;" horiz-adv-x="1486" arabic-form="final" 
d="M1217 1663v-121h-306v148q0 95 55 151.5t152 56.5h43v-112h-55q-37 0 -56.5 -23t-19.5 -63v-37h187zM408 1378q-62 0 -104 35.5t-42 97.5q0 59 42 96.5t104 37.5q60 0 101.5 -37.5t41.5 -96.5q0 -62 -42 -97.5t-101 -35.5zM1483 203h45v-203h-45q-256 0 -388 137.5
t-132 403.5v397h-445v-948q0 -126 -23 -211.5t-72.5 -136t-117.5 -72t-166 -21.5q-70 0 -159 21l-17 174q92 -12 158 -12q96 0 146 53t50 174v1180h646v245h200v-856q0 -160 81 -242.5t239 -82.5z" />
    <glyph glyph-name="uniFC67" unicode="&#xfc67;" horiz-adv-x="2177" arabic-form="final" 
d="M1907 1524v-121h-305v147q0 95 54.5 152t151.5 57h43v-112h-55q-37 0 -56.5 -23t-19.5 -63v-37h187zM653 1239q-61 0 -103 35.5t-42 97.5q0 59 41.5 96t103.5 37q60 0 102 -37t42 -96q0 -62 -42.5 -97.5t-101.5 -35.5zM2173 203h45v-203h-45q-256 0 -388 137.5
t-132 403.5v258h-475v-1055h-461q-296 0 -451 145.5t-155 421.5v688h202v-663q0 -391 435 -391h229v1054h676v246h200v-717q0 -160 81 -242.5t239 -82.5z" />
    <glyph glyph-name="uniFC68" unicode="&#xfc68;" horiz-adv-x="2379" arabic-form="final" 
d="M2111 1663v-121h-305v148q0 95 55 151.5t152 56.5h43v-112h-55q-37 0 -56.5 -23t-19.5 -63v-37h186zM2376 203h45v-203h-45q-255 0 -388 138t-133 403v407h-258q-151 0 -231 -87t-80 -236v-881h-569q-606 0 -606 575v451h200v-430q0 -395 447 -395h327v682
q0 255 132 383.5t380 128.5h258v245h203v-856q0 -160 80.5 -242.5t237.5 -82.5z" />
    <glyph glyph-name="uniFC69" unicode="&#xfc69;" horiz-adv-x="2379" arabic-form="final" 
d="M2111 1663v-121h-305v148q0 95 55 151.5t152 56.5h43v-112h-55q-37 0 -56.5 -23t-19.5 -63v-37h186zM2376 203h45v-203h-45q-255 0 -388 138t-133 403v407h-258q-151 0 -231 -87t-80 -236v-881h-569q-606 0 -606 575v451h200v-430q0 -395 447 -395h327v682
q0 255 132 383.5t380 128.5h258v245h203v-856q0 -160 80.5 -242.5t237.5 -82.5zM672 -483q62 0 102.5 -36.5t40.5 -94.5q0 -61 -41 -97.5t-102 -36.5q-60 0 -102 36.5t-42 97.5q0 58 41.5 94.5t102.5 36.5zM1051 -483q62 0 102.5 -36.5t40.5 -94.5q0 -61 -41 -97.5
t-102 -36.5q-60 0 -102 36.5t-42 97.5q0 58 41.5 94.5t102.5 36.5z" />
    <glyph glyph-name="uniFC6A" unicode="&#xfc6a;" horiz-adv-x="1486" arabic-form="final" 
d="M1483 203h45v-203h-45q-256 0 -388 137.5t-132 403.5v397h-445v-948q0 -126 -23 -211.5t-72.5 -136t-117.5 -72t-166 -21.5q-70 0 -159 21l-17 174q92 -12 158 -12q96 0 146 53t50 174v1180h646v245h200v-856q0 -160 81 -242.5t239 -82.5zM844 -227q60 0 101.5 -37
t41.5 -94q0 -63 -42 -99.5t-101 -36.5q-62 0 -104 36.5t-42 99.5q0 58 42 94.5t104 36.5z" />
    <glyph glyph-name="uniFC6B" unicode="&#xfc6b;" horiz-adv-x="1486" arabic-form="final" 
d="M420 1378q-62 0 -104 35.5t-42 97.5q0 59 42 96.5t104 37.5q60 0 101.5 -37.5t41.5 -96.5q0 -62 -42 -97.5t-101 -35.5zM1483 203h45v-203h-45q-256 0 -388 137.5t-132 403.5v397h-445v-948q0 -126 -23 -211.5t-72.5 -136t-117.5 -72t-166 -21.5q-70 0 -159 21l-17 174
q92 -12 158 -12q96 0 146 53t50 174v1180h646v245h200v-856q0 -160 81 -242.5t239 -82.5zM844 -227q60 0 101.5 -37t41.5 -94q0 -63 -42 -99.5t-101 -36.5q-62 0 -104 36.5t-42 99.5q0 58 42 94.5t104 36.5z" />
    <glyph glyph-name="uniFC6D" unicode="&#xfc6d;" horiz-adv-x="2177" arabic-form="final" 
d="M653 1239q-61 0 -103 35.5t-42 97.5q0 59 41.5 96t103.5 37q60 0 102 -37t42 -96q0 -62 -42.5 -97.5t-101.5 -35.5zM2173 203h45v-203h-45q-256 0 -388 137.5t-132 403.5v258h-475v-1055h-461q-296 0 -451 145.5t-155 421.5v688h202v-663q0 -391 435 -391h229v1054h676
v246h200v-717q0 -160 81 -242.5t239 -82.5zM1563 -227q60 0 101.5 -37t41.5 -94q0 -63 -42 -99.5t-101 -36.5q-62 0 -104 36.5t-42 99.5q0 58 42 94.5t104 36.5z" />
    <glyph glyph-name="uniFC6E" unicode="&#xfc6e;" horiz-adv-x="2379" arabic-form="final" 
d="M2376 203h45v-203h-45q-255 0 -388 138t-133 403v407h-258q-151 0 -231 -87t-80 -236v-881h-569q-606 0 -606 575v451h200v-430q0 -395 447 -395h327v682q0 255 132 383.5t380 128.5h258v245h203v-856q0 -160 80.5 -242.5t237.5 -82.5zM1702 -227q60 0 101.5 -37
t41.5 -94q0 -63 -42 -99.5t-101 -36.5q-62 0 -104 36.5t-42 99.5q0 58 42 94.5t104 36.5z" />
    <glyph glyph-name="uniFC6F" unicode="&#xfc6f;" horiz-adv-x="2379" arabic-form="final" 
d="M2376 203h45v-203h-45q-255 0 -388 138t-133 403v407h-258q-151 0 -231 -87t-80 -236v-881h-569q-606 0 -606 575v451h200v-430q0 -395 447 -395h327v682q0 255 132 383.5t380 128.5h258v245h203v-856q0 -160 80.5 -242.5t237.5 -82.5zM1702 -227q60 0 101.5 -37
t41.5 -94q0 -63 -42 -99.5t-101 -36.5q-62 0 -104 36.5t-42 99.5q0 58 42 94.5t104 36.5zM672 -483q62 0 102.5 -36.5t40.5 -94.5q0 -61 -41 -97.5t-102 -36.5q-60 0 -102 36.5t-42 97.5q0 58 41.5 94.5t102.5 36.5zM1051 -483q62 0 102.5 -36.5t40.5 -94.5q0 -61 -41 -97.5
t-102 -36.5q-60 0 -102 36.5t-42 97.5q0 58 41.5 94.5t102.5 36.5z" />
    <glyph glyph-name="uniFC70" unicode="&#xfc70;" horiz-adv-x="1486" arabic-form="final" 
d="M874 1610q-60 0 -101.5 36t-41.5 97q0 58 41 95.5t102 37.5q62 0 103 -37.5t41 -95.5q0 -61 -41.5 -97t-102.5 -36zM1253 1610q-60 0 -101.5 36t-41.5 97q0 58 41 95.5t102 37.5q62 0 103 -37.5t41 -95.5q0 -61 -41.5 -97t-102.5 -36zM1483 203h45v-203h-45
q-256 0 -388 137.5t-132 403.5v397h-445v-948q0 -126 -23 -211.5t-72.5 -136t-117.5 -72t-166 -21.5q-70 0 -159 21l-17 174q92 -12 158 -12q96 0 146 53t50 174v1180h646v245h200v-856q0 -160 81 -242.5t239 -82.5z" />
    <glyph glyph-name="uniFC71" unicode="&#xfc71;" horiz-adv-x="1486" arabic-form="final" 
d="M874 1610q-60 0 -101.5 36t-41.5 97q0 58 41 95.5t102 37.5q62 0 103 -37.5t41 -95.5q0 -61 -41.5 -97t-102.5 -36zM1253 1610q-60 0 -101.5 36t-41.5 97q0 58 41 95.5t102 37.5q62 0 103 -37.5t41 -95.5q0 -61 -41.5 -97t-102.5 -36zM408 1378q-62 0 -104 35.5t-42 97.5
q0 59 42 96.5t104 37.5q60 0 101.5 -37.5t41.5 -96.5q0 -62 -42 -97.5t-101 -35.5zM1483 203h45v-203h-45q-256 0 -388 137.5t-132 403.5v397h-445v-948q0 -126 -23 -211.5t-72.5 -136t-117.5 -72t-166 -21.5q-70 0 -159 21l-17 174q92 -12 158 -12q96 0 146 53t50 174v1180
h646v245h200v-856q0 -160 81 -242.5t239 -82.5z" />
    <glyph glyph-name="uniFC73" unicode="&#xfc73;" horiz-adv-x="2177" arabic-form="final" 
d="M1565 1470q-60 0 -102 36.5t-42 97.5q0 58 41.5 95.5t102.5 37.5q62 0 102.5 -37.5t40.5 -95.5q0 -61 -41 -97.5t-102 -36.5zM1944 1470q-60 0 -102 36.5t-42 97.5q0 58 41.5 95.5t102.5 37.5q62 0 102.5 -37.5t40.5 -95.5q0 -61 -41 -97.5t-102 -36.5zM653 1239
q-61 0 -103 35.5t-42 97.5q0 59 41.5 96t103.5 37q60 0 102 -37t42 -96q0 -62 -42.5 -97.5t-101.5 -35.5zM2173 203h45v-203h-45q-256 0 -388 137.5t-132 403.5v258h-475v-1055h-461q-296 0 -451 145.5t-155 421.5v688h202v-663q0 -391 435 -391h229v1054h676v246h200v-717
q0 -160 81 -242.5t239 -82.5z" />
    <glyph glyph-name="uniFC74" unicode="&#xfc74;" horiz-adv-x="2379" arabic-form="final" 
d="M1769 1610q-60 0 -101.5 36t-41.5 97q0 58 41 95.5t102 37.5q62 0 103 -37.5t41 -95.5q0 -61 -41.5 -97t-102.5 -36zM2148 1610q-60 0 -101.5 36t-41.5 97q0 58 41 95.5t102 37.5q62 0 103 -37.5t41 -95.5q0 -61 -41.5 -97t-102.5 -36zM2376 203h45v-203h-45
q-255 0 -388 138t-133 403v407h-258q-151 0 -231 -87t-80 -236v-881h-569q-606 0 -606 575v451h200v-430q0 -395 447 -395h327v682q0 255 132 383.5t380 128.5h258v245h203v-856q0 -160 80.5 -242.5t237.5 -82.5z" />
    <glyph glyph-name="uniFC75" unicode="&#xfc75;" horiz-adv-x="2379" arabic-form="final" 
d="M1769 1610q-60 0 -101.5 36t-41.5 97q0 58 41 95.5t102 37.5q62 0 103 -37.5t41 -95.5q0 -61 -41.5 -97t-102.5 -36zM2148 1610q-60 0 -101.5 36t-41.5 97q0 58 41 95.5t102 37.5q62 0 103 -37.5t41 -95.5q0 -61 -41.5 -97t-102.5 -36zM2376 203h45v-203h-45
q-255 0 -388 138t-133 403v407h-258q-151 0 -231 -87t-80 -236v-881h-569q-606 0 -606 575v451h200v-430q0 -395 447 -395h327v682q0 255 132 383.5t380 128.5h258v245h203v-856q0 -160 80.5 -242.5t237.5 -82.5zM672 -483q62 0 102.5 -36.5t40.5 -94.5q0 -61 -41 -97.5
t-102 -36.5q-60 0 -102 36.5t-42 97.5q0 58 41.5 94.5t102.5 36.5zM1051 -483q62 0 102.5 -36.5t40.5 -94.5q0 -61 -41 -97.5t-102 -36.5q-60 0 -102 36.5t-42 97.5q0 58 41.5 94.5t102.5 36.5z" />
    <glyph glyph-name="uniFC76" unicode="&#xfc76;" horiz-adv-x="1486" arabic-form="final" 
d="M1065 1890q-50 0 -87.5 32t-37.5 85q0 50 36 82.5t89 32.5q54 0 89.5 -32t35.5 -83q0 -54 -36 -85.5t-89 -31.5zM879 1610q-58 0 -99 35t-41 94q0 56 40.5 92.5t99.5 36.5q60 0 99.5 -36t39.5 -93q0 -59 -40.5 -94t-98.5 -35zM1110 1739q0 56 40 92.5t99 36.5
q60 0 100 -36t40 -93q0 -59 -40.5 -94t-99.5 -35q-58 0 -98.5 35t-40.5 94zM1483 203h45v-203h-45q-256 0 -388 137.5t-132 403.5v397h-445v-948q0 -126 -23 -211.5t-72.5 -136t-117.5 -72t-166 -21.5q-70 0 -159 21l-17 174q92 -12 158 -12q96 0 146 53t50 174v1180h646
v245h200v-856q0 -160 81 -242.5t239 -82.5z" />
    <glyph glyph-name="uniFC77" unicode="&#xfc77;" horiz-adv-x="1486" arabic-form="final" 
d="M1065 1890q-50 0 -87.5 32t-37.5 85q0 50 36 82.5t89 32.5q54 0 89.5 -32t35.5 -83q0 -54 -36 -85.5t-89 -31.5zM879 1610q-58 0 -99 35t-41 94q0 56 40.5 92.5t99.5 36.5q60 0 99.5 -36t39.5 -93q0 -59 -40.5 -94t-98.5 -35zM1110 1739q0 56 40 92.5t99 36.5
q60 0 100 -36t40 -93q0 -59 -40.5 -94t-99.5 -35q-58 0 -98.5 35t-40.5 94zM408 1378q-62 0 -104 35.5t-42 97.5q0 59 42 96.5t104 37.5q60 0 101.5 -37.5t41.5 -96.5q0 -62 -42 -97.5t-101 -35.5zM1483 203h45v-203h-45q-256 0 -388 137.5t-132 403.5v397h-445v-948
q0 -126 -23 -211.5t-72.5 -136t-117.5 -72t-166 -21.5q-70 0 -159 21l-17 174q92 -12 158 -12q96 0 146 53t50 174v1180h646v245h200v-856q0 -160 81 -242.5t239 -82.5z" />
    <glyph glyph-name="uniFC79" unicode="&#xfc79;" horiz-adv-x="2177" arabic-form="final" 
d="M1755 1751q-50 0 -87.5 32t-37.5 85q0 50 36 82t89 32q54 0 89.5 -31.5t35.5 -82.5q0 -54 -36 -85.5t-89 -31.5zM1569 1470q-58 0 -98.5 35t-40.5 94q0 56 40 93t99 37q60 0 99.5 -36.5t39.5 -93.5q0 -59 -40.5 -94t-98.5 -35zM1800 1599q0 56 40 93t99 37
q60 0 100 -36.5t40 -93.5q0 -59 -40.5 -94t-99.5 -35q-58 0 -98.5 35t-40.5 94zM653 1239q-61 0 -103 35.5t-42 97.5q0 59 41.5 96t103.5 37q60 0 102 -37t42 -96q0 -62 -42.5 -97.5t-101.5 -35.5zM2173 203h45v-203h-45q-256 0 -388 137.5t-132 403.5v258h-475v-1055h-461
q-296 0 -451 145.5t-155 421.5v688h202v-663q0 -391 435 -391h229v1054h676v246h200v-717q0 -160 81 -242.5t239 -82.5z" />
    <glyph glyph-name="uniFC7A" unicode="&#xfc7a;" horiz-adv-x="2379" arabic-form="final" 
d="M1960 1890q-50 0 -87.5 32t-37.5 85q0 50 36 82.5t89 32.5q54 0 89.5 -32t35.5 -83q0 -54 -36 -85.5t-89 -31.5zM1774 1610q-58 0 -99 35t-41 94q0 56 40.5 92.5t99.5 36.5q60 0 99.5 -36t39.5 -93q0 -59 -40.5 -94t-98.5 -35zM2005 1739q0 56 40 92.5t99 36.5
q60 0 100 -36t40 -93q0 -59 -40.5 -94t-99.5 -35q-58 0 -98.5 35t-40.5 94zM2376 203h45v-203h-45q-255 0 -388 138t-133 403v407h-258q-151 0 -231 -87t-80 -236v-881h-569q-606 0 -606 575v451h200v-430q0 -395 447 -395h327v682q0 255 132 383.5t380 128.5h258v245h203
v-856q0 -160 80.5 -242.5t237.5 -82.5z" />
    <glyph glyph-name="uniFC7B" unicode="&#xfc7b;" horiz-adv-x="2379" arabic-form="final" 
d="M1960 1890q-50 0 -87.5 32t-37.5 85q0 50 36 82.5t89 32.5q54 0 89.5 -32t35.5 -83q0 -54 -36 -85.5t-89 -31.5zM1774 1610q-58 0 -99 35t-41 94q0 56 40.5 92.5t99.5 36.5q60 0 99.5 -36t39.5 -93q0 -59 -40.5 -94t-98.5 -35zM2005 1739q0 56 40 92.5t99 36.5
q60 0 100 -36t40 -93q0 -59 -40.5 -94t-99.5 -35q-58 0 -98.5 35t-40.5 94zM2376 203h45v-203h-45q-255 0 -388 138t-133 403v407h-258q-151 0 -231 -87t-80 -236v-881h-569q-606 0 -606 575v451h200v-430q0 -395 447 -395h327v682q0 255 132 383.5t380 128.5h258v245h203
v-856q0 -160 80.5 -242.5t237.5 -82.5zM672 -483q62 0 102.5 -36.5t40.5 -94.5q0 -61 -41 -97.5t-102 -36.5q-60 0 -102 36.5t-42 97.5q0 58 41.5 94.5t102.5 36.5zM1051 -483q62 0 102.5 -36.5t40.5 -94.5q0 -61 -41 -97.5t-102 -36.5q-60 0 -102 36.5t-42 97.5
q0 58 41.5 94.5t102.5 36.5z" />
    <glyph glyph-name="uniFC8A" unicode="&#xfc8a;" horiz-adv-x="1486" arabic-form="final" 
d="M1067 1624q-61 0 -103 35.5t-42 97.5q0 59 41.5 96t103.5 37q60 0 101.5 -37t41.5 -96q0 -62 -42 -97.5t-101 -35.5zM1483 203h45v-203h-45q-256 0 -388 137.5t-132 403.5v397h-445v-948q0 -126 -23 -211.5t-72.5 -136t-117.5 -72t-166 -21.5q-70 0 -159 21l-17 174
q92 -12 158 -12q96 0 146 53t50 174v1180h646v245h200v-856q0 -160 81 -242.5t239 -82.5z" />
    <glyph glyph-name="uniFC8B" unicode="&#xfc8b;" horiz-adv-x="1486" arabic-form="final" 
d="M1067 1624q-61 0 -103 35.5t-42 97.5q0 59 41.5 96t103.5 37q60 0 101.5 -37t41.5 -96q0 -62 -42 -97.5t-101 -35.5zM408 1378q-62 0 -104 35.5t-42 97.5q0 59 42 96.5t104 37.5q60 0 101.5 -37.5t41.5 -96.5q0 -62 -42 -97.5t-101 -35.5zM1483 203h45v-203h-45
q-256 0 -388 137.5t-132 403.5v397h-445v-948q0 -126 -23 -211.5t-72.5 -136t-117.5 -72t-166 -21.5q-70 0 -159 21l-17 174q92 -12 158 -12q96 0 146 53t50 174v1180h646v245h200v-856q0 -160 81 -242.5t239 -82.5z" />
    <glyph glyph-name="uniFC8D" unicode="&#xfc8d;" horiz-adv-x="2177" arabic-form="final" 
d="M1757 1485q-61 0 -103 35.5t-42 97.5q0 59 41.5 96t103.5 37q60 0 102 -37t42 -96q0 -62 -42.5 -97.5t-101.5 -35.5zM653 1239q-61 0 -103 35.5t-42 97.5q0 59 41.5 96t103.5 37q60 0 102 -37t42 -96q0 -62 -42.5 -97.5t-101.5 -35.5zM2173 203h45v-203h-45
q-256 0 -388 137.5t-132 403.5v258h-475v-1055h-461q-296 0 -451 145.5t-155 421.5v688h202v-663q0 -391 435 -391h229v1054h676v246h200v-717q0 -160 81 -242.5t239 -82.5z" />
    <glyph glyph-name="uniFC8E" unicode="&#xfc8e;" horiz-adv-x="2379" arabic-form="final" 
d="M1962 1624q-61 0 -103 35.5t-42 97.5q0 59 41.5 96t103.5 37q60 0 101.5 -37t41.5 -96q0 -62 -42 -97.5t-101 -35.5zM2376 203h45v-203h-45q-255 0 -388 138t-133 403v407h-258q-151 0 -231 -87t-80 -236v-881h-569q-606 0 -606 575v451h200v-430q0 -395 447 -395h327
v682q0 255 132 383.5t380 128.5h258v245h203v-856q0 -160 80.5 -242.5t237.5 -82.5z" />
    <glyph glyph-name="uniFC8F" unicode="&#xfc8f;" horiz-adv-x="2379" arabic-form="final" 
d="M1962 1624q-61 0 -103 35.5t-42 97.5q0 59 41.5 96t103.5 37q60 0 101.5 -37t41.5 -96q0 -62 -42 -97.5t-101 -35.5zM2376 203h45v-203h-45q-255 0 -388 138t-133 403v407h-258q-151 0 -231 -87t-80 -236v-881h-569q-606 0 -606 575v451h200v-430q0 -395 447 -395h327
v682q0 255 132 383.5t380 128.5h258v245h203v-856q0 -160 80.5 -242.5t237.5 -82.5zM672 -483q62 0 102.5 -36.5t40.5 -94.5q0 -61 -41 -97.5t-102 -36.5q-60 0 -102 36.5t-42 97.5q0 58 41.5 94.5t102.5 36.5zM1051 -483q62 0 102.5 -36.5t40.5 -94.5q0 -61 -41 -97.5
t-102 -36.5q-60 0 -102 36.5t-42 97.5q0 58 41.5 94.5t102.5 36.5z" />
    <glyph glyph-name="uniFC91" unicode="&#xfc91;" horiz-adv-x="1486" arabic-form="final" 
d="M1483 203h45v-203h-45q-256 0 -388 137.5t-132 403.5v397h-445v-948q0 -126 -23 -211.5t-72.5 -136t-117.5 -72t-166 -21.5q-70 0 -159 21l-17 174q92 -12 158 -12q96 0 146 53t50 174v1180h646v245h200v-856q0 -160 81 -242.5t239 -82.5zM762 -227q62 0 102.5 -36.5
t40.5 -94.5q0 -61 -41 -97.5t-102 -36.5q-60 0 -102 36.5t-42 97.5q0 58 41.5 94.5t102.5 36.5zM1141 -227q62 0 102.5 -36.5t40.5 -94.5q0 -61 -41 -97.5t-102 -36.5q-60 0 -102 36.5t-42 97.5q0 58 41.5 94.5t102.5 36.5z" />
    <glyph glyph-name="uniFC92" unicode="&#xfc92;" horiz-adv-x="1486" arabic-form="final" 
d="M408 1378q-62 0 -104 35.5t-42 97.5q0 59 42 96.5t104 37.5q60 0 101.5 -37.5t41.5 -96.5q0 -62 -42 -97.5t-101 -35.5zM1483 203h45v-203h-45q-256 0 -388 137.5t-132 403.5v397h-445v-948q0 -126 -23 -211.5t-72.5 -136t-117.5 -72t-166 -21.5q-70 0 -159 21l-17 174
q92 -12 158 -12q96 0 146 53t50 174v1180h646v245h200v-856q0 -160 81 -242.5t239 -82.5zM762 -227q62 0 102.5 -36.5t40.5 -94.5q0 -61 -41 -97.5t-102 -36.5q-60 0 -102 36.5t-42 97.5q0 58 41.5 94.5t102.5 36.5zM1141 -227q62 0 102.5 -36.5t40.5 -94.5q0 -61 -41 -97.5
t-102 -36.5q-60 0 -102 36.5t-42 97.5q0 58 41.5 94.5t102.5 36.5z" />
    <glyph glyph-name="uniFC94" unicode="&#xfc94;" horiz-adv-x="2177" arabic-form="final" 
d="M653 1239q-61 0 -103 35.5t-42 97.5q0 59 41.5 96t103.5 37q60 0 102 -37t42 -96q0 -62 -42.5 -97.5t-101.5 -35.5zM2173 203h45v-203h-45q-256 0 -388 137.5t-132 403.5v258h-475v-1055h-461q-296 0 -451 145.5t-155 421.5v688h202v-663q0 -391 435 -391h229v1054h676
v246h200v-717q0 -160 81 -242.5t239 -82.5zM1434 -227q62 0 102.5 -36.5t40.5 -94.5q0 -61 -41 -97.5t-102 -36.5q-60 0 -102 36.5t-42 97.5q0 58 41.5 94.5t102.5 36.5zM1812 -227q62 0 103 -36.5t41 -94.5q0 -61 -41.5 -97.5t-102.5 -36.5q-59 0 -101 36.5t-42 97.5
q0 58 41 94.5t102 36.5z" />
    <glyph glyph-name="uniFCFB" unicode="&#xfcfb;" horiz-adv-x="3749" arabic-form="isolated" 
d="M3430 1153h201v-633q0 -540 -491 -540q-296 0 -412 227q-54 -116 -163.5 -171.5t-283.5 -55.5q-252 0 -391 138.5t-139 401.5v674h-188q-136 0 -206.5 -78t-70.5 -211v-1161h-569q-606 0 -606 575v451h200v-430q0 -395 447 -395h327v927q0 255 132 383.5t380 128.5h355
v-868q0 -161 84.5 -247.5t244.5 -86.5q158 0 245 85.5t87 248.5v483h203v-497q0 -158 77.5 -239t229.5 -81q149 0 228 80t79 240v651z" />
    <glyph glyph-name="uniFCFC" unicode="&#xfcfc;" horiz-adv-x="3749" arabic-form="isolated" 
d="M3430 1153h201v-633q0 -540 -491 -540q-296 0 -412 227q-54 -116 -163.5 -171.5t-283.5 -55.5q-252 0 -391 138.5t-139 401.5v674h-188q-136 0 -206.5 -78t-70.5 -211v-1161h-569q-606 0 -606 575v451h200v-430q0 -395 447 -395h327v927q0 255 132 383.5t380 128.5h355
v-868q0 -161 84.5 -247.5t244.5 -86.5q158 0 245 85.5t87 248.5v483h203v-497q0 -158 77.5 -239t229.5 -81q149 0 228 80t79 240v651zM672 -483q62 0 102.5 -36.5t40.5 -94.5q0 -61 -41 -97.5t-102 -36.5q-60 0 -102 36.5t-42 97.5q0 58 41.5 94.5t102.5 36.5zM1051 -483
q62 0 102.5 -36.5t40.5 -94.5q0 -61 -41 -97.5t-102 -36.5q-60 0 -102 36.5t-42 97.5q0 58 41.5 94.5t102.5 36.5z" />
    <glyph glyph-name="uniFCFD" unicode="&#xfcfd;" horiz-adv-x="3749" arabic-form="isolated" 
d="M2716 1505q-50 0 -87.5 32t-37.5 85q0 50 36 82.5t89 32.5q54 0 89.5 -32t35.5 -83q0 -54 -36 -85.5t-89 -31.5zM2529 1225q-58 0 -98.5 35t-40.5 94q0 56 40 92.5t99 36.5q60 0 100 -36t40 -93q0 -59 -41 -94t-99 -35zM2761 1354q0 56 40 92.5t99 36.5q60 0 99.5 -36
t39.5 -93q0 -60 -40 -94.5t-99 -34.5q-58 0 -98.5 35t-40.5 94zM3430 1153h201v-633q0 -540 -491 -540q-296 0 -412 227q-54 -116 -163.5 -171.5t-283.5 -55.5q-252 0 -391 138.5t-139 401.5v674h-188q-136 0 -206.5 -78t-70.5 -211v-1161h-569q-606 0 -606 575v451h200
v-430q0 -395 447 -395h327v927q0 255 132 383.5t380 128.5h355v-868q0 -161 84.5 -247.5t244.5 -86.5q158 0 245 85.5t87 248.5v483h203v-497q0 -158 77.5 -239t229.5 -81q149 0 228 80t79 240v651z" />
    <glyph glyph-name="uniFCFE" unicode="&#xfcfe;" horiz-adv-x="3749" arabic-form="isolated" 
d="M2716 1505q-50 0 -87.5 32t-37.5 85q0 50 36 82.5t89 32.5q54 0 89.5 -32t35.5 -83q0 -54 -36 -85.5t-89 -31.5zM2529 1225q-58 0 -98.5 35t-40.5 94q0 56 40 92.5t99 36.5q60 0 100 -36t40 -93q0 -59 -41 -94t-99 -35zM2761 1354q0 56 40 92.5t99 36.5q60 0 99.5 -36
t39.5 -93q0 -60 -40 -94.5t-99 -34.5q-58 0 -98.5 35t-40.5 94zM3430 1153h201v-633q0 -540 -491 -540q-296 0 -412 227q-54 -116 -163.5 -171.5t-283.5 -55.5q-252 0 -391 138.5t-139 401.5v674h-188q-136 0 -206.5 -78t-70.5 -211v-1161h-569q-606 0 -606 575v451h200
v-430q0 -395 447 -395h327v927q0 255 132 383.5t380 128.5h355v-868q0 -161 84.5 -247.5t244.5 -86.5q158 0 245 85.5t87 248.5v483h203v-497q0 -158 77.5 -239t229.5 -81q149 0 228 80t79 240v651zM672 -483q62 0 102.5 -36.5t40.5 -94.5q0 -61 -41 -97.5t-102 -36.5
q-60 0 -102 36.5t-42 97.5q0 58 41.5 94.5t102.5 36.5zM1051 -483q62 0 102.5 -36.5t40.5 -94.5q0 -61 -41 -97.5t-102 -36.5q-60 0 -102 36.5t-42 97.5q0 58 41.5 94.5t102.5 36.5z" />
    <glyph glyph-name="uniFD05" unicode="&#xfd05;" horiz-adv-x="3362" arabic-form="isolated" 
d="M2644 1139q307 0 455.5 -143t146.5 -431l-2 -565h-985q-250 0 -379 137.5t-129 403.5v653h-188q-136 0 -206.5 -78t-70.5 -211v-1161h-569q-606 0 -606 575v451h200v-430q0 -395 447 -395h327v927q0 255 132 383.5t380 128.5h355v-245h692zM3056 598q1 172 -100.5 256
t-282.5 84h-721v-416q0 -158 78.5 -239.5t228.5 -81.5h797v397z" />
    <glyph glyph-name="uniFD06" unicode="&#xfd06;" horiz-adv-x="3362" arabic-form="isolated" 
d="M2644 1139q307 0 455.5 -143t146.5 -431l-2 -565h-985q-250 0 -379 137.5t-129 403.5v653h-188q-136 0 -206.5 -78t-70.5 -211v-1161h-569q-606 0 -606 575v451h200v-430q0 -395 447 -395h327v927q0 255 132 383.5t380 128.5h355v-245h692zM3056 598q1 172 -100.5 256
t-282.5 84h-721v-416q0 -158 78.5 -239.5t228.5 -81.5h797v397zM672 -483q62 0 102.5 -36.5t40.5 -94.5q0 -61 -41 -97.5t-102 -36.5q-60 0 -102 36.5t-42 97.5q0 58 41.5 94.5t102.5 36.5zM1051 -483q62 0 102.5 -36.5t40.5 -94.5q0 -61 -41 -97.5t-102 -36.5
q-60 0 -102 36.5t-42 97.5q0 58 41.5 94.5t102.5 36.5z" />
    <glyph glyph-name="uniFD07" unicode="&#xfd07;" horiz-adv-x="3362" arabic-form="isolated" 
d="M2576 1378q-61 0 -103 35.5t-42 97.5q0 59 41.5 96.5t103.5 37.5q60 0 102 -37.5t42 -96.5q0 -62 -42.5 -97.5t-101.5 -35.5zM2644 1139q307 0 455.5 -143t146.5 -431l-2 -565h-985q-250 0 -379 137.5t-129 403.5v653h-188q-136 0 -206.5 -78t-70.5 -211v-1161h-569
q-606 0 -606 575v451h200v-430q0 -395 447 -395h327v927q0 255 132 383.5t380 128.5h355v-245h692zM3056 598q1 172 -100.5 256t-282.5 84h-721v-416q0 -158 78.5 -239.5t228.5 -81.5h797v397z" />
    <glyph glyph-name="uniFD08" unicode="&#xfd08;" horiz-adv-x="3362" arabic-form="isolated" 
d="M2576 1378q-61 0 -103 35.5t-42 97.5q0 59 41.5 96.5t103.5 37.5q60 0 102 -37.5t42 -96.5q0 -62 -42.5 -97.5t-101.5 -35.5zM2644 1139q307 0 455.5 -143t146.5 -431l-2 -565h-985q-250 0 -379 137.5t-129 403.5v653h-188q-136 0 -206.5 -78t-70.5 -211v-1161h-569
q-606 0 -606 575v451h200v-430q0 -395 447 -395h327v927q0 255 132 383.5t380 128.5h355v-245h692zM3056 598q1 172 -100.5 256t-282.5 84h-721v-416q0 -158 78.5 -239.5t228.5 -81.5h797v397zM672 -483q62 0 102.5 -36.5t40.5 -94.5q0 -61 -41 -97.5t-102 -36.5
q-60 0 -102 36.5t-42 97.5q0 58 41.5 94.5t102.5 36.5zM1051 -483q62 0 102.5 -36.5t40.5 -94.5q0 -61 -41 -97.5t-102 -36.5q-60 0 -102 36.5t-42 97.5q0 58 41.5 94.5t102.5 36.5z" />
    <glyph glyph-name="uniFD0D" unicode="&#xfd0d;" horiz-adv-x="2912" arabic-form="isolated" 
d="M1880 1505q-50 0 -87.5 32t-37.5 85q0 50 36 82.5t89 32.5q54 0 89.5 -32t35.5 -83q0 -54 -36 -85.5t-89 -31.5zM1694 1225q-58 0 -99 35t-41 94q0 56 40.5 92.5t99.5 36.5q60 0 99.5 -36t39.5 -93q0 -59 -40.5 -94t-98.5 -35zM1925 1354q0 56 40 92.5t99 36.5
q60 0 100 -36t40 -93q0 -59 -40.5 -94t-99.5 -35q-58 0 -98.5 35t-40.5 94zM2595 1153h201v-633q0 -275 -128 -407.5t-382 -132.5q-285 0 -402 208q-105 -208 -416 -208q-250 0 -378.5 137t-128.5 403v279h-443v-809q0 -126 -23 -211.5t-72.5 -136t-117.5 -72t-166 -21.5
q-70 0 -159 21l-17 174q92 -12 158 -12q96 0 146 53t50 174v1284h201v-244h643v-497q0 -158 78.5 -239t228.5 -81q147 0 228.5 81.5t81.5 238.5v497h200v-497q0 -158 78.5 -239t229.5 -81q147 0 228 81.5t81 238.5v651z" />
    <glyph glyph-name="uniFD0E" unicode="&#xfd0e;" horiz-adv-x="2912" arabic-form="isolated" 
d="M2595 1153h201v-633q0 -275 -128 -407.5t-382 -132.5q-285 0 -402 208q-105 -208 -416 -208q-250 0 -378.5 137t-128.5 403v279h-443v-809q0 -126 -23 -211.5t-72.5 -136t-117.5 -72t-166 -21.5q-70 0 -159 21l-17 174q92 -12 158 -12q96 0 146 53t50 174v1284h201v-244
h643v-497q0 -158 78.5 -239t228.5 -81q147 0 228.5 81.5t81.5 238.5v497h200v-497q0 -158 78.5 -239t229.5 -81q147 0 228 81.5t81 238.5v651z" />
    <glyph glyph-name="uniFD17" unicode="&#xfd17;" horiz-adv-x="3926" arabic-form="final" 
d="M3631 547q0 -346 336 -346v-201q-146 0 -249.5 53t-149.5 150q-114 -223 -428 -223q-296 0 -412 227q-54 -116 -163.5 -171.5t-283.5 -55.5q-252 0 -391 138.5t-139 401.5v674h-188q-136 0 -206.5 -78t-70.5 -211v-1161h-569q-606 0 -606 575v451h200v-430
q0 -395 447 -395h327v927q0 255 132 383.5t380 128.5h355v-868q0 -161 84.5 -247.5t244.5 -86.5q158 0 245 85.5t87 248.5v483h203v-497q0 -158 77.5 -239t229.5 -81q149 0 228 80t79 240v651h201v-606z" />
    <glyph glyph-name="uniFD18" unicode="&#xfd18;" horiz-adv-x="3926" arabic-form="final" 
d="M3631 547q0 -346 336 -346v-201q-146 0 -249.5 53t-149.5 150q-114 -223 -428 -223q-296 0 -412 227q-54 -116 -163.5 -171.5t-283.5 -55.5q-252 0 -391 138.5t-139 401.5v674h-188q-136 0 -206.5 -78t-70.5 -211v-1161h-569q-606 0 -606 575v451h200v-430
q0 -395 447 -395h327v927q0 255 132 383.5t380 128.5h355v-868q0 -161 84.5 -247.5t244.5 -86.5q158 0 245 85.5t87 248.5v483h203v-497q0 -158 77.5 -239t229.5 -81q149 0 228 80t79 240v651h201v-606zM672 -483q62 0 102.5 -36.5t40.5 -94.5q0 -61 -41 -97.5t-102 -36.5
q-60 0 -102 36.5t-42 97.5q0 58 41.5 94.5t102.5 36.5zM1051 -483q62 0 102.5 -36.5t40.5 -94.5q0 -61 -41 -97.5t-102 -36.5q-60 0 -102 36.5t-42 97.5q0 58 41.5 94.5t102.5 36.5z" />
    <glyph glyph-name="uniFD19" unicode="&#xfd19;" horiz-adv-x="3926" arabic-form="final" 
d="M2716 1505q-50 0 -87.5 32t-37.5 85q0 50 36 82.5t89 32.5q54 0 89.5 -32t35.5 -83q0 -54 -36 -85.5t-89 -31.5zM2529 1225q-58 0 -98.5 35t-40.5 94q0 56 40 92.5t99 36.5q60 0 100 -36t40 -93q0 -59 -41 -94t-99 -35zM2761 1354q0 56 40 92.5t99 36.5q60 0 99.5 -36
t39.5 -93q0 -60 -40 -94.5t-99 -34.5q-58 0 -98.5 35t-40.5 94zM3631 547q0 -346 336 -346v-201q-146 0 -249.5 53t-149.5 150q-114 -223 -428 -223q-296 0 -412 227q-54 -116 -163.5 -171.5t-283.5 -55.5q-252 0 -391 138.5t-139 401.5v674h-188q-136 0 -206.5 -78
t-70.5 -211v-1161h-569q-606 0 -606 575v451h200v-430q0 -395 447 -395h327v927q0 255 132 383.5t380 128.5h355v-868q0 -161 84.5 -247.5t244.5 -86.5q158 0 245 85.5t87 248.5v483h203v-497q0 -158 77.5 -239t229.5 -81q149 0 228 80t79 240v651h201v-606z" />
    <glyph glyph-name="uniFD1A" unicode="&#xfd1a;" horiz-adv-x="3926" arabic-form="final" 
d="M2716 1505q-50 0 -87.5 32t-37.5 85q0 50 36 82.5t89 32.5q54 0 89.5 -32t35.5 -83q0 -54 -36 -85.5t-89 -31.5zM2529 1225q-58 0 -98.5 35t-40.5 94q0 56 40 92.5t99 36.5q60 0 100 -36t40 -93q0 -59 -41 -94t-99 -35zM2761 1354q0 56 40 92.5t99 36.5q60 0 99.5 -36
t39.5 -93q0 -60 -40 -94.5t-99 -34.5q-58 0 -98.5 35t-40.5 94zM3631 547q0 -346 336 -346v-201q-146 0 -249.5 53t-149.5 150q-114 -223 -428 -223q-296 0 -412 227q-54 -116 -163.5 -171.5t-283.5 -55.5q-252 0 -391 138.5t-139 401.5v674h-188q-136 0 -206.5 -78
t-70.5 -211v-1161h-569q-606 0 -606 575v451h200v-430q0 -395 447 -395h327v927q0 255 132 383.5t380 128.5h355v-868q0 -161 84.5 -247.5t244.5 -86.5q158 0 245 85.5t87 248.5v483h203v-497q0 -158 77.5 -239t229.5 -81q149 0 228 80t79 240v651h201v-606zM672 -483
q62 0 102.5 -36.5t40.5 -94.5q0 -61 -41 -97.5t-102 -36.5q-60 0 -102 36.5t-42 97.5q0 58 41.5 94.5t102.5 36.5zM1051 -483q62 0 102.5 -36.5t40.5 -94.5q0 -61 -41 -97.5t-102 -36.5q-60 0 -102 36.5t-42 97.5q0 58 41.5 94.5t102.5 36.5z" />
    <glyph glyph-name="uniFD21" unicode="&#xfd21;" horiz-adv-x="3452" arabic-form="final" 
d="M3244 201h250v-201h-1235q-250 0 -379 137.5t-129 403.5v653h-188q-136 0 -206.5 -78t-70.5 -211v-1161h-569q-606 0 -606 575v451h200v-430q0 -395 447 -395h327v927q0 255 132 383.5t380 128.5h355v-245h692q307 0 455.5 -143t146.5 -431zM3056 598q1 172 -100.5 256
t-282.5 84h-721v-416q0 -158 78.5 -239.5t228.5 -81.5h797v397z" />
    <glyph glyph-name="uniFD22" unicode="&#xfd22;" horiz-adv-x="3452" arabic-form="final" 
d="M3244 201h250v-201h-1235q-250 0 -379 137.5t-129 403.5v653h-188q-136 0 -206.5 -78t-70.5 -211v-1161h-569q-606 0 -606 575v451h200v-430q0 -395 447 -395h327v927q0 255 132 383.5t380 128.5h355v-245h692q307 0 455.5 -143t146.5 -431zM3056 598q1 172 -100.5 256
t-282.5 84h-721v-416q0 -158 78.5 -239.5t228.5 -81.5h797v397zM672 -483q62 0 102.5 -36.5t40.5 -94.5q0 -61 -41 -97.5t-102 -36.5q-60 0 -102 36.5t-42 97.5q0 58 41.5 94.5t102.5 36.5zM1051 -483q62 0 102.5 -36.5t40.5 -94.5q0 -61 -41 -97.5t-102 -36.5
q-60 0 -102 36.5t-42 97.5q0 58 41.5 94.5t102.5 36.5z" />
    <glyph glyph-name="uniFD23" unicode="&#xfd23;" horiz-adv-x="3452" arabic-form="final" 
d="M2576 1378q-61 0 -103 35.5t-42 97.5q0 59 41.5 96.5t103.5 37.5q60 0 102 -37.5t42 -96.5q0 -62 -42.5 -97.5t-101.5 -35.5zM3244 201h250v-201h-1235q-250 0 -379 137.5t-129 403.5v653h-188q-136 0 -206.5 -78t-70.5 -211v-1161h-569q-606 0 -606 575v451h200v-430
q0 -395 447 -395h327v927q0 255 132 383.5t380 128.5h355v-245h692q307 0 455.5 -143t146.5 -431zM3056 598q1 172 -100.5 256t-282.5 84h-721v-416q0 -158 78.5 -239.5t228.5 -81.5h797v397z" />
    <glyph glyph-name="uniFD24" unicode="&#xfd24;" horiz-adv-x="3452" arabic-form="final" 
d="M2576 1378q-61 0 -103 35.5t-42 97.5q0 59 41.5 96.5t103.5 37.5q60 0 102 -37.5t42 -96.5q0 -62 -42.5 -97.5t-101.5 -35.5zM3244 201h250v-201h-1235q-250 0 -379 137.5t-129 403.5v653h-188q-136 0 -206.5 -78t-70.5 -211v-1161h-569q-606 0 -606 575v451h200v-430
q0 -395 447 -395h327v927q0 255 132 383.5t380 128.5h355v-245h692q307 0 455.5 -143t146.5 -431zM3056 598q1 172 -100.5 256t-282.5 84h-721v-416q0 -158 78.5 -239.5t228.5 -81.5h797v397zM672 -483q62 0 102.5 -36.5t40.5 -94.5q0 -61 -41 -97.5t-102 -36.5
q-60 0 -102 36.5t-42 97.5q0 58 41.5 94.5t102.5 36.5zM1051 -483q62 0 102.5 -36.5t40.5 -94.5q0 -61 -41 -97.5t-102 -36.5q-60 0 -102 36.5t-42 97.5q0 58 41.5 94.5t102.5 36.5z" />
    <glyph glyph-name="uniFD29" unicode="&#xfd29;" horiz-adv-x="3090" arabic-form="final" 
d="M1880 1505q-50 0 -87.5 32t-37.5 85q0 50 36 82.5t89 32.5q54 0 89.5 -32t35.5 -83q0 -54 -36 -85.5t-89 -31.5zM1694 1225q-58 0 -99 35t-41 94q0 56 40.5 92.5t99.5 36.5q60 0 99.5 -36t39.5 -93q0 -59 -40.5 -94t-98.5 -35zM1925 1354q0 56 40 92.5t99 36.5
q60 0 100 -36t40 -93q0 -59 -40.5 -94t-99.5 -35q-58 0 -98.5 35t-40.5 94zM2796 547q0 -346 335 -346v-201q-146 0 -250.5 53t-148.5 150q-117 -223 -446 -223q-285 0 -402 208q-105 -208 -416 -208q-250 0 -378.5 137t-128.5 403v279h-443v-809q0 -126 -23 -211.5
t-72.5 -136t-117.5 -72t-166 -21.5q-70 0 -159 21l-17 174q92 -12 158 -12q96 0 146 53t50 174v1284h201v-244h643v-497q0 -158 78.5 -239t228.5 -81q147 0 228.5 81.5t81.5 238.5v497h200v-497q0 -158 78.5 -239t229.5 -81q147 0 228 81.5t81 238.5v651h201v-606z" />
    <glyph glyph-name="uniFD2A" unicode="&#xfd2a;" horiz-adv-x="3090" arabic-form="final" 
d="M2796 547q0 -346 335 -346v-201q-146 0 -250.5 53t-148.5 150q-117 -223 -446 -223q-285 0 -402 208q-105 -208 -416 -208q-250 0 -378.5 137t-128.5 403v279h-443v-809q0 -126 -23 -211.5t-72.5 -136t-117.5 -72t-166 -21.5q-70 0 -159 21l-17 174q92 -12 158 -12
q96 0 146 53t50 174v1284h201v-244h643v-497q0 -158 78.5 -239t228.5 -81q147 0 228.5 81.5t81.5 238.5v497h200v-497q0 -158 78.5 -239t229.5 -81q147 0 228 81.5t81 238.5v651h201v-606z" />
    <glyph glyph-name="uniFE82" unicode="&#x622;" horiz-adv-x="696" arabic-form="final" 
d="M463 1888v-135h-369v135h369zM379 201h358v-201h-559v1661h201v-1460z" />
    <glyph glyph-name="uniFE84" unicode="&#x623;" horiz-adv-x="696" arabic-form="final" 
d="M430 1694v-121h-305v147q0 95 55 152t152 57h43v-112h-56q-37 0 -56 -23t-19 -63v-37h186zM379 201h358v-201h-559v1415h201v-1214z" />
    <glyph glyph-name="uniFE86" unicode="&#x624;" horiz-adv-x="1269" arabic-form="final" 
d="M958 1438v-156h-430v238q0 104 61 164.5t165 60.5h129v-119h-117q-104 0 -104 -102v-86h296zM1311 201v-201h-250q-4 -244 -117.5 -347.5t-343.5 -103.5q-166 0 -326 56l-36 213q189 -66 354 -66q128 0 198 53.5t70 176.5v18h-123q-283 0 -455.5 155t-172.5 410v2
q0 258 179.5 415t475.5 157h297v-938h250zM723 201h137v739h-137q-189 0 -306.5 -101.5t-117.5 -271.5v-2q0 -164 118 -264t306 -100z" />
    <glyph glyph-name="uniFE88" unicode="&#x625;" horiz-adv-x="696" arabic-form="final" 
d="M379 201h358v-201h-559v1661h201v-1460zM358 -332v-37h205v-120h-325v147q0 95 55.5 152t152.5 57h60v-113h-72q-37 0 -56.5 -23t-19.5 -63z" />
    <glyph glyph-name="uniFE8A" unicode="&#x626;" horiz-adv-x="2172" arabic-form="final" 
d="M1831 1444v-156h-430v238q0 104 60.5 164.5t164.5 60.5h129v-119h-117q-104 0 -104 -102v-86h297zM1964 201h250v-201h-451v948h-200q-136 0 -206.5 -78t-70.5 -211v-915h-569q-606 0 -606 575v451h200v-430q0 -395 447 -395h327v682q-1 254 131 383t379 129h369v-938z
" />
    <glyph glyph-name="uniFE8B" unicode="&#x626;" horiz-adv-x="548" arabic-form="initial" 
d="M131 1296v148q0 95 55 152t152 57h43v-113h-55q-37 0 -56.5 -23t-19.5 -63v-37h186v-121h-305zM0 0v201h209v938h201v-1139h-410z" />
    <glyph glyph-name="uniFE8C" unicode="&#x626;" horiz-adv-x="618" arabic-form="medial" 
d="M461 1417v-121h-305v148q0 95 54.5 152t151.5 57h44v-113h-56q-37 0 -56.5 -23t-19.5 -63v-37h187zM410 201h249v-201h-659v201h209v938h201v-938z" />
    <glyph glyph-name="uniFE8E" unicode="&#x627;" horiz-adv-x="696" arabic-form="final" 
d="M379 201h358v-201h-559v1661h201v-1460z" />
    <glyph glyph-name="uniFE90" unicode="&#x628;" horiz-adv-x="1718" arabic-form="final" 
d="M1509 201h250v-201h-1042q-606 0 -606 575v386h200v-365q0 -395 447 -395h551v938h200v-938zM903 -227q60 0 102 -37t42 -94q0 -63 -42.5 -99.5t-101.5 -36.5q-61 0 -103 36.5t-42 99.5q0 58 41.5 94.5t103.5 36.5z" />
    <glyph glyph-name="uniFE91" unicode="&#x628;" horiz-adv-x="548" arabic-form="initial" 
d="M0 0v201h209v938h201v-1139h-410zM205 -494q-62 0 -104 36.5t-42 99.5q0 58 42 94.5t104 36.5q60 0 101.5 -37t41.5 -94q0 -63 -42 -99.5t-101 -36.5z" />
    <glyph glyph-name="uniFE92" unicode="&#x628;" horiz-adv-x="618" arabic-form="medial" 
d="M410 201h249v-201h-659v201h209v938h201v-938zM313 -229q60 0 102 -37t42 -94q0 -63 -42.5 -99.5t-101.5 -36.5q-61 0 -103 36.5t-42 99.5q0 58 41.5 94.5t103.5 36.5z" />
    <glyph glyph-name="uniFE94" unicode="&#x629;" horiz-adv-x="1269" arabic-form="final" 
d="M551 1405q-60 0 -101.5 36t-41.5 97q0 58 41 95.5t102 37.5q62 0 102.5 -37.5t40.5 -95.5q0 -61 -41 -97t-102 -36zM930 1405q-60 0 -102 36t-42 97q0 58 41.5 95.5t102.5 37.5q62 0 102.5 -37.5t40.5 -95.5q0 -61 -41 -97t-102 -36zM1061 201h250v-201h-451h-123
q-283 0 -455.5 155t-172.5 410v2q0 258 179.5 415t475.5 157h96v102h201v-1040zM860 201v739h-137q-189 0 -306.5 -101.5t-117.5 -271.5v-2q0 -164 118 -264t306 -100h137z" />
    <glyph glyph-name="uniFE96" unicode="&#x62a;" horiz-adv-x="1718" arabic-form="final" 
d="M645 1278q-60 0 -101.5 36t-41.5 97q0 58 41 95.5t102 37.5q62 0 102.5 -37.5t40.5 -95.5q0 -61 -41 -97t-102 -36zM1024 1278q-60 0 -101.5 36t-41.5 97q0 58 41 95.5t102 37.5q62 0 102.5 -37.5t40.5 -95.5q0 -61 -41 -97t-102 -36zM1509 201h250v-201h-1042
q-606 0 -606 575v386h200v-365q0 -395 447 -395h551v938h200v-938z" />
    <glyph glyph-name="uniFE97" unicode="&#x62a;" horiz-adv-x="894" arabic-form="initial" 
d="M322 1364q-60 0 -102 36t-42 97q0 58 41.5 95.5t102.5 37.5q62 0 102.5 -37.5t40.5 -95.5q0 -61 -41 -97t-102 -36zM700 1364q-60 0 -101.5 36t-41.5 97q0 58 41 95.5t102 37.5q62 0 103 -37.5t41 -95.5q0 -61 -41.5 -97t-102.5 -36zM0 0v201h397v938h201v-1139h-598z
" />
    <glyph glyph-name="uniFE98" unicode="&#x62a;" horiz-adv-x="854" arabic-form="medial" 
d="M244 1364q-60 0 -102 36t-42 97q0 58 41.5 95.5t102.5 37.5q62 0 102.5 -37.5t40.5 -95.5q0 -61 -41 -97t-102 -36zM623 1364q-60 0 -102 36t-42 97q0 58 41.5 95.5t102.5 37.5q62 0 102.5 -37.5t40.5 -95.5q0 -61 -41 -97t-102 -36zM895 201v-201h-895v201h328v938h200
v-938h367z" />
    <glyph glyph-name="uniFE9A" unicode="&#x62b;" horiz-adv-x="1718" arabic-form="final" 
d="M836 1559q-50 0 -87.5 31.5t-37.5 84.5q0 50 36 82.5t89 32.5q54 0 89.5 -32t35.5 -83q0 -54 -36 -85t-89 -31zM649 1278q-58 0 -98.5 35t-40.5 94q0 56 40 92.5t99 36.5q60 0 99.5 -36t39.5 -93q0 -59 -40.5 -94t-98.5 -35zM881 1407q0 56 40 92.5t99 36.5
q60 0 99.5 -36t39.5 -93q0 -60 -40 -94.5t-99 -34.5q-58 0 -98.5 35t-40.5 94zM1509 201h250v-201h-1042q-606 0 -606 575v386h200v-365q0 -395 447 -395h551v938h200v-938z" />
    <glyph glyph-name="uniFE9B" unicode="&#x62b;" horiz-adv-x="884" arabic-form="initial" 
d="M512 1673q-50 0 -87.5 32t-37.5 85q0 50 36 82.5t89 32.5q54 0 89.5 -32t35.5 -83q0 -54 -36 -85.5t-89 -31.5zM326 1393q-58 0 -99 35t-41 94q0 56 40.5 92.5t99.5 36.5q60 0 99.5 -36t39.5 -93q0 -59 -40.5 -94t-98.5 -35zM696 1393q-58 0 -98.5 35t-40.5 94
q0 56 40 92.5t99 36.5q60 0 100 -36t40 -93q0 -59 -40.5 -94t-99.5 -35zM0 0v201h397v938h201v-1139h-598z" />
    <glyph glyph-name="uniFE9C" unicode="&#x62b;" horiz-adv-x="854" arabic-form="medial" 
d="M434 1645q-50 0 -87.5 31.5t-37.5 84.5q0 50 36 82.5t89 32.5q54 0 89.5 -32t35.5 -83q0 -54 -36 -85t-89 -31zM248 1364q-58 0 -98.5 35t-40.5 94q0 56 40 92.5t99 36.5q60 0 99.5 -36t39.5 -93q0 -59 -40.5 -94t-98.5 -35zM479 1493q0 56 40 92.5t99 36.5q60 0 100 -36
t40 -93q0 -59 -40.5 -94t-99.5 -35q-58 0 -98.5 35t-40.5 94zM895 201v-201h-895v201h328v938h200v-938h367z" />
    <glyph glyph-name="uniFE9E" unicode="&#x62c;" horiz-adv-x="1320" arabic-form="final" 
d="M1116 201h246v-201h-764q-97 0 -153 -41.5t-97 -142.5l-115 -285l-182 70l127 313q61 156 153 221.5t249 65.5h338q47 190 47 368q0 186 -99.5 293t-271.5 107q-88 0 -160.5 -22t-167.5 -79l-71 185q219 116 413 116q263 0 405 -161t142 -449q0 -156 -39 -358zM711 -272
q60 0 101.5 -37.5t41.5 -96.5q0 -63 -42 -99t-101 -36q-62 0 -104 36t-42 99q0 59 42 96.5t104 37.5z" />
    <glyph glyph-name="uniFE9F" unicode="&#x62c;" horiz-adv-x="1181" arabic-form="initial" 
d="M524 1169q263 0 405 -161t142 -449q0 -128 -25 -281.5t-61 -277.5h-985v201h834q47 190 47 368q0 186 -99.5 293t-271.5 107q-88 0 -160.5 -22t-167.5 -79l-71 185q219 116 413 116zM551 -227q60 0 101.5 -37t41.5 -94q0 -63 -42 -99.5t-101 -36.5q-61 0 -103 36.5
t-42 99.5q0 58 41.5 94.5t103.5 36.5z" />
    <glyph glyph-name="uniFEA0" unicode="&#x62c;" horiz-adv-x="1236" arabic-form="medial" 
d="M1032 201h246v-201h-1278v201h834q47 190 47 368q0 186 -99.5 293t-271.5 107q-88 0 -160.5 -22t-167.5 -79l-71 185q219 116 413 116q263 0 405 -161t142 -449q0 -156 -39 -358zM551 -227q60 0 101.5 -37t41.5 -94q0 -63 -42 -99.5t-101 -36.5q-61 0 -103 36.5t-42 99.5
q0 58 41.5 94.5t103.5 36.5z" />
    <glyph glyph-name="uniFEA2" unicode="&#x62d;" horiz-adv-x="1320" arabic-form="final" 
d="M1116 201h246v-201h-764q-97 0 -153 -41.5t-97 -142.5l-115 -285l-182 70l127 313q61 156 153 221.5t249 65.5h338q47 190 47 368q0 186 -99.5 293t-271.5 107q-88 0 -160.5 -22t-167.5 -79l-71 185q219 116 413 116q263 0 405 -161t142 -449q0 -156 -39 -358z" />
    <glyph glyph-name="uniFEA3" unicode="&#x62d;" horiz-adv-x="1181" arabic-form="initial" 
d="M524 1169q263 0 405 -161t142 -449q0 -128 -25 -281.5t-61 -277.5h-985v201h834q47 190 47 368q0 186 -99.5 293t-271.5 107q-88 0 -160.5 -22t-167.5 -79l-71 185q219 116 413 116z" />
    <glyph glyph-name="uniFEA4" unicode="&#x62d;" horiz-adv-x="1236" arabic-form="medial" 
d="M1032 201h246v-201h-1278v201h834q47 190 47 368q0 186 -99.5 293t-271.5 107q-88 0 -160.5 -22t-167.5 -79l-71 185q219 116 413 116q263 0 405 -161t142 -449q0 -156 -39 -358z" />
    <glyph glyph-name="uniFEA6" unicode="&#x62e;" horiz-adv-x="1320" arabic-form="final" 
d="M649 1409q-61 0 -103 35.5t-42 97.5q0 59 41.5 96t103.5 37q60 0 102 -37t42 -96q0 -62 -42.5 -97.5t-101.5 -35.5zM1116 201h246v-201h-764q-97 0 -153 -41.5t-97 -142.5l-115 -285l-182 70l127 313q61 156 153 221.5t249 65.5h338q47 190 47 368q0 186 -99.5 293
t-271.5 107q-88 0 -160.5 -22t-167.5 -79l-71 185q219 116 413 116q263 0 405 -161t142 -449q0 -156 -39 -358z" />
    <glyph glyph-name="uniFEA7" unicode="&#x62e;" horiz-adv-x="1181" arabic-form="initial" 
d="M541 1409q-62 0 -104 35.5t-42 97.5q0 59 41.5 96t104.5 37q60 0 101.5 -37t41.5 -96q0 -62 -42 -97.5t-101 -35.5zM524 1169q263 0 405 -161t142 -449q0 -128 -25 -281.5t-61 -277.5h-985v201h834q47 190 47 368q0 186 -99.5 293t-271.5 107q-88 0 -160.5 -22
t-167.5 -79l-71 185q219 116 413 116z" />
    <glyph glyph-name="uniFEA8" unicode="&#x62e;" horiz-adv-x="1236" arabic-form="medial" 
d="M541 1409q-62 0 -104 35.5t-42 97.5q0 59 41.5 96t104.5 37q60 0 101.5 -37t41.5 -96q0 -62 -42 -97.5t-101 -35.5zM1032 201h246v-201h-1278v201h834q47 190 47 368q0 186 -99.5 293t-271.5 107q-88 0 -160.5 -22t-167.5 -79l-71 185q219 116 413 116q263 0 405 -161
t142 -449q0 -156 -39 -358z" />
    <glyph glyph-name="uniFEAA" unicode="&#x62f;" horiz-adv-x="1193" arabic-form="final" 
d="M985 201h250v-201h-1178v201h738v432q0 305 -297 305h-78v201h49q262 0 389 -131.5t127 -391.5v-415z" />
    <glyph glyph-name="uniFEAC" unicode="&#x630;" horiz-adv-x="1193" arabic-form="final" 
d="M498 1378q-62 0 -104 35.5t-42 97.5q0 59 42 96.5t104 37.5q60 0 101.5 -37.5t41.5 -96.5q0 -62 -42 -97.5t-101 -35.5zM985 201h250v-201h-1178v201h738v432q0 305 -297 305h-78v201h49q262 0 389 -131.5t127 -391.5v-415z" />
    <glyph glyph-name="uniFEAE" unicode="&#x631;" horiz-adv-x="718" arabic-form="final" 
d="M760 201v-201h-242v-10q0 -126 -23 -211.5t-72.5 -136t-117.5 -72t-166 -21.5q-70 0 -159 21l-17 174q92 -12 158 -12q96 0 146 53t50 174v1180h201v-938h242z" />
    <glyph glyph-name="uniFEB0" unicode="&#x632;" horiz-adv-x="718" arabic-form="final" 
d="M420 1378q-62 0 -104 35.5t-42 97.5q0 59 42 96.5t104 37.5q60 0 101.5 -37.5t41.5 -96.5q0 -62 -42 -97.5t-101 -35.5zM760 201v-201h-242v-10q0 -126 -23 -211.5t-72.5 -136t-117.5 -72t-166 -21.5q-70 0 -159 21l-17 174q92 -12 158 -12q96 0 146 53t50 174v1180h201
v-938h242z" />
    <glyph glyph-name="uniFEB2" unicode="&#x633;" horiz-adv-x="3016" arabic-form="final" 
d="M2722 547q0 -346 336 -346v-201q-146 0 -251 53t-151 150q-113 -223 -444 -223q-152 0 -265.5 67t-154.5 184q-52 -111 -155 -171t-251 -60h-208v-256h-461q-296 0 -451 145.5t-155 421.5v688h202v-663q0 -391 435 -391h229v1054h201v-798h206q65 0 121.5 18.5t102 55
t72 97t26.5 138.5v489h201v-516q0 -139 83 -220t222 -81q148 0 228.5 81t80.5 239v651h201v-606z" />
    <glyph glyph-name="uniFEB3" unicode="&#x633;" horiz-adv-x="2127" arabic-form="initial" 
d="M1810 1153h201v-633q0 -540 -510 -540q-152 0 -265.5 67t-154.5 184q-52 -112 -154.5 -171.5t-250.5 -59.5h-676v201h268v798h201v-798h205q88 0 158.5 31.5t116.5 103t46 174.5v489h201v-516q0 -139 83 -220t222 -81q148 0 228.5 81t80.5 239v651z" />
    <glyph glyph-name="uniFEB4" unicode="&#x633;" horiz-adv-x="2306" arabic-form="medial" 
d="M2011 547q0 -346 336 -346v-201q-146 0 -250.5 53t-150.5 150q-113 -223 -445 -223q-152 0 -265.5 67t-154.5 184q-52 -112 -154.5 -171.5t-250.5 -59.5h-676v201h268v798h201v-798h205q88 0 158.5 31.5t116.5 103t46 174.5v489h201v-516q0 -139 83 -220t222 -81
q148 0 228.5 81t80.5 239v651h201v-606z" />
    <glyph glyph-name="uniFEB6" unicode="&#x634;" horiz-adv-x="3016" arabic-form="final" 
d="M1808 1505q-50 0 -87.5 32t-37.5 85q0 50 36 82.5t89 32.5q54 0 89.5 -32t35.5 -83q0 -54 -36 -85.5t-89 -31.5zM1622 1225q-58 0 -98.5 35t-40.5 94q0 56 40 92.5t99 36.5q60 0 99.5 -36t39.5 -93q0 -59 -40.5 -94t-98.5 -35zM1853 1354q0 56 40.5 92.5t99.5 36.5
q60 0 99.5 -36t39.5 -93q0 -60 -40 -94.5t-99 -34.5q-58 0 -99 35t-41 94zM2722 547q0 -346 336 -346v-201q-146 0 -251 53t-151 150q-113 -223 -444 -223q-152 0 -265.5 67t-154.5 184q-52 -111 -155 -171t-251 -60h-208v-256h-461q-296 0 -451 145.5t-155 421.5v688h202
v-663q0 -391 435 -391h229v1054h201v-798h206q65 0 121.5 18.5t102 55t72 97t26.5 138.5v489h201v-516q0 -139 83 -220t222 -81q148 0 228.5 81t80.5 239v651h201v-606z" />
    <glyph glyph-name="uniFEB7" unicode="&#x634;" horiz-adv-x="2127" arabic-form="initial" 
d="M1092 1505q-50 0 -87.5 32t-37.5 85q0 50 36 82.5t89 32.5q54 0 89.5 -32t35.5 -83q0 -54 -36 -85.5t-89 -31.5zM905 1225q-58 0 -98.5 35t-40.5 94q0 56 40 92.5t99 36.5q60 0 99.5 -36t39.5 -93q0 -59 -40.5 -94t-98.5 -35zM1137 1354q0 56 40 92.5t99 36.5
q60 0 99.5 -36t39.5 -93q0 -60 -40 -94.5t-99 -34.5q-58 0 -98.5 35t-40.5 94zM1810 1153h201v-633q0 -540 -510 -540q-152 0 -265.5 67t-154.5 184q-52 -112 -154.5 -171.5t-250.5 -59.5h-676v201h268v798h201v-798h205q88 0 158.5 31.5t116.5 103t46 174.5v489h201v-516
q0 -139 83 -220t222 -81q148 0 228.5 81t80.5 239v651z" />
    <glyph glyph-name="uniFEB8" unicode="&#x634;" horiz-adv-x="2306" arabic-form="medial" 
d="M1092 1505q-50 0 -87.5 32t-37.5 85q0 50 36 82.5t89 32.5q54 0 89.5 -32t35.5 -83q0 -54 -36 -85.5t-89 -31.5zM905 1225q-58 0 -98.5 35t-40.5 94q0 56 40 92.5t99 36.5q60 0 99.5 -36t39.5 -93q0 -59 -40.5 -94t-98.5 -35zM1137 1354q0 56 40 92.5t99 36.5
q60 0 99.5 -36t39.5 -93q0 -60 -40 -94.5t-99 -34.5q-58 0 -98.5 35t-40.5 94zM2011 547q0 -346 336 -346v-201q-146 0 -250.5 53t-150.5 150q-113 -223 -445 -223q-152 0 -265.5 67t-154.5 184q-52 -112 -154.5 -171.5t-250.5 -59.5h-676v201h268v798h201v-798h205
q88 0 158.5 31.5t116.5 103t46 174.5v489h201v-516q0 -139 83 -220t222 -81q148 0 228.5 81t80.5 239v651h201v-606z" />
    <glyph glyph-name="uniFEBA" unicode="&#x635;" horiz-adv-x="2492" arabic-form="final" 
d="M2281 201h252v-201h-1355v-256h-461q-296 0 -451 145.5t-155 421.5v688h202v-663q0 -391 435 -391h229v1304h201v-110h503q295 0 450 -148t153 -426zM2081 598q1 172 -100.5 256t-282.5 84h-520v-737h903v397z" />
    <glyph glyph-name="uniFEBB" unicode="&#x635;" horiz-adv-x="1632" arabic-form="initial" 
d="M913 1139q295 0 450 -148t153 -426l-3 -565h-1513v201h209v1048h201v-110h503zM1313 598q1 172 -100.5 256t-282.5 84h-520v-737h903v397z" />
    <glyph glyph-name="uniFEBC" unicode="&#x635;" horiz-adv-x="1722" arabic-form="medial" 
d="M1513 201h250v-201h-1763v201h209v1048h201v-110h503q295 0 450 -148t153 -426zM1313 598q1 172 -100.5 256t-282.5 84h-520v-737h903v397z" />
    <glyph glyph-name="uniFEBE" unicode="&#x636;" horiz-adv-x="2492" arabic-form="final" 
d="M1671 1378q-61 0 -103 35.5t-42 97.5q0 59 41.5 96.5t103.5 37.5q60 0 102 -37.5t42 -96.5q0 -62 -42.5 -97.5t-101.5 -35.5zM2281 201h252v-201h-1355v-256h-461q-296 0 -451 145.5t-155 421.5v688h202v-663q0 -391 435 -391h229v1304h201v-110h503q295 0 450 -148
t153 -426zM2081 598q1 172 -100.5 256t-282.5 84h-520v-737h903v397z" />
    <glyph glyph-name="uniFEBF" unicode="&#x636;" horiz-adv-x="1632" arabic-form="initial" 
d="M860 1378q-61 0 -103 35.5t-42 97.5q0 59 41.5 96.5t103.5 37.5q60 0 102 -37.5t42 -96.5q0 -62 -42.5 -97.5t-101.5 -35.5zM913 1139q295 0 450 -148t153 -426l-3 -565h-1513v201h209v1048h201v-110h503zM1313 598q1 172 -100.5 256t-282.5 84h-520v-737h903v397z" />
    <glyph glyph-name="uniFEC0" unicode="&#x636;" horiz-adv-x="1722" arabic-form="medial" 
d="M860 1378q-61 0 -103 35.5t-42 97.5q0 59 41.5 96.5t103.5 37.5q60 0 102 -37.5t42 -96.5q0 -62 -42.5 -97.5t-101.5 -35.5zM1513 201h250v-201h-1763v201h209v1048h201v-110h503q295 0 450 -148t153 -426zM1313 598q1 172 -100.5 256t-282.5 84h-520v-737h903v397z" />
    <glyph glyph-name="uniFEC2" unicode="&#x637;" horiz-adv-x="1830" arabic-form="final" 
d="M1622 201h250v-201h-1817l41 201h221v1460h201v-522h504q294 0 449 -147.5t153 -426.5zM1421 598q1 172 -100.5 256t-282.5 84h-520v-737h903v397z" />
    <glyph glyph-name="uniFEC3" unicode="&#x637;" horiz-adv-x="1640" arabic-form="initial" 
d="M922 1139q294 0 449 -147.5t153 -426.5l-2 -565h-1522v201h217v1476h201v-538h504zM1321 598q1 172 -100.5 256t-282.5 84h-520v-737h903v397z" />
    <glyph glyph-name="uniFEC4" unicode="&#x637;" horiz-adv-x="1730" arabic-form="medial" 
d="M1522 201h250v-201h-1772v201h217v1476h201v-538h504q294 0 449 -147.5t153 -426.5zM1321 598q1 172 -100.5 256t-282.5 84h-520v-737h903v397z" />
    <glyph glyph-name="uniFEC6" unicode="&#x638;" horiz-adv-x="1830" arabic-form="final" 
d="M1622 201h250v-201h-1817l41 201h221v1460h201v-522h504q294 0 449 -147.5t153 -426.5zM1034 1378q-61 0 -103 35.5t-42 97.5q0 59 41.5 96.5t103.5 37.5q60 0 102 -37.5t42 -96.5q0 -62 -42.5 -97.5t-101.5 -35.5zM1421 598q1 172 -100.5 256t-282.5 84h-520v-737h903
v397z" />
    <glyph glyph-name="uniFEC7" unicode="&#x638;" horiz-adv-x="1640" arabic-form="initial" 
d="M922 1139q294 0 449 -147.5t153 -426.5l-2 -565h-1522v201h217v1476h201v-538h504zM932 1378q-62 0 -104 35.5t-42 97.5q0 59 42 96.5t104 37.5q60 0 101.5 -37.5t41.5 -96.5q0 -62 -42 -97.5t-101 -35.5zM1321 598q1 172 -100.5 256t-282.5 84h-520v-737h903v397z" />
    <glyph glyph-name="uniFEC8" unicode="&#x638;" horiz-adv-x="1730" arabic-form="medial" 
d="M1522 201h250v-201h-1772v201h217v1476h201v-538h504q294 0 449 -147.5t153 -426.5zM932 1378q-62 0 -104 35.5t-42 97.5q0 59 42 96.5t104 37.5q60 0 101.5 -37.5t41.5 -96.5q0 -62 -42 -97.5t-101 -35.5zM1321 598q1 172 -100.5 256t-282.5 84h-520v-737h903v397z" />
    <glyph glyph-name="uniFECA" unicode="&#x639;" horiz-adv-x="1511" arabic-form="final" 
d="M1552 201v-201h-948q-97 0 -153 -41.5t-97 -142.5l-114 -285l-183 70l127 313q51 130 121 196t178 83l-276 727q289 249 610 249q311 0 610 -251l-272 -717h397zM956 201l248 616q-191 152 -387 152q-193 0 -387 -150l240 -618h286z" />
    <glyph glyph-name="uniFECB" unicode="&#x639;" horiz-adv-x="1257" arabic-form="initial" 
d="M1149 201v-201h-1149v201h262q-102 249 -102 430q0 254 144 396t384 142q178 0 416 -104l-68 -186q-196 90 -334 90q-159 0 -255.5 -99.5t-96.5 -271.5q0 -89 36.5 -193t102.5 -204h660z" />
    <glyph glyph-name="uniFECC" unicode="&#x639;" horiz-adv-x="1390" arabic-form="medial" 
d="M1432 201v-201h-1432v201h356l-274 719q289 249 610 249q312 0 611 -251l-273 -717h402zM831 201l248 616q-191 152 -387 152q-193 0 -387 -150l240 -618h286z" />
    <glyph glyph-name="uniFECE" unicode="&#x63a;" horiz-adv-x="1511" arabic-form="final" 
d="M819 1409q-61 0 -103 35.5t-42 97.5q0 59 41.5 96t103.5 37q60 0 102 -37t42 -96q0 -62 -42.5 -97.5t-101.5 -35.5zM1552 201v-201h-948q-97 0 -153 -41.5t-97 -142.5l-114 -285l-183 70l127 313q51 130 121 196t178 83l-276 727q289 249 610 249q311 0 610 -251
l-272 -717h397zM956 201l248 616q-191 152 -387 152q-193 0 -387 -150l240 -618h286z" />
    <glyph glyph-name="uniFECF" unicode="&#x63a;" horiz-adv-x="1257" arabic-form="initial" 
d="M690 1409q-61 0 -103 35.5t-42 97.5q0 59 41.5 96t103.5 37q60 0 102 -37t42 -96q0 -62 -42.5 -97.5t-101.5 -35.5zM1149 201v-201h-1149v201h262q-102 249 -102 430q0 254 144 396t384 142q178 0 416 -104l-68 -186q-196 90 -334 90q-159 0 -255.5 -99.5t-96.5 -271.5
q0 -89 36.5 -193t102.5 -204h660z" />
    <glyph glyph-name="uniFED0" unicode="&#x63a;" horiz-adv-x="1390" arabic-form="medial" 
d="M698 1409q-61 0 -103 35.5t-42 97.5q0 59 41.5 96t103.5 37q60 0 102 -37t42 -96q0 -62 -42.5 -97.5t-101.5 -35.5zM1432 201v-201h-1432v201h356l-274 719q289 249 610 249q312 0 611 -251l-273 -717h402zM831 201l248 616q-191 152 -387 152q-193 0 -387 -150l240 -618
h286z" />
    <glyph glyph-name="uniFED2" unicode="&#x641;" horiz-adv-x="2107" arabic-form="final" 
d="M1516 1378q-62 0 -104 35.5t-42 97.5q0 59 42 96.5t104 37.5q60 0 101.5 -37.5t41.5 -96.5q0 -62 -42 -97.5t-101 -35.5zM1901 201h247v-201h-258h-12h-301h-860q-606 0 -606 575v386h200v-365q0 -395 447 -395h319q-129 144 -129 364v2q0 258 180 415t476 157h297v-938z
M1563 201h137v739h-137q-189 0 -306.5 -101.5t-117.5 -271.5v-2q0 -164 118 -264t306 -100z" />
    <glyph glyph-name="uniFED3" unicode="&#x641;" horiz-adv-x="1265" arabic-form="initial" 
d="M840 1378q-62 0 -104 35.5t-42 97.5q0 59 42 96.5t104 37.5q60 0 101.5 -37.5t41.5 -96.5q0 -62 -42 -97.5t-101 -35.5zM1128 1139v-1022l-2 -23v-94h-8h-313h-805v201h305q-129 144 -129 364v2q0 258 179.5 415t475.5 157h297zM791 201h137v739h-137
q-189 0 -306.5 -101.5t-117.5 -271.5v-2q0 -164 118 -264t306 -100z" />
    <glyph glyph-name="uniFED4" unicode="&#x641;" horiz-adv-x="1337" arabic-form="medial" 
d="M840 1378q-62 0 -104 35.5t-42 97.5q0 59 42 96.5t104 37.5q60 0 101.5 -37.5t41.5 -96.5q0 -62 -42 -97.5t-101 -35.5zM1128 201h250v-201h-260h-10h-303h-805v201h305q-129 144 -129 364v2q0 258 179.5 415t475.5 157h297v-938zM791 201h137v739h-137
q-189 0 -306.5 -101.5t-117.5 -271.5v-2q0 -164 118 -264t306 -100z" />
    <glyph glyph-name="uniFED6" unicode="&#x642;" horiz-adv-x="1796" arabic-form="final" 
d="M1051 1364q-60 0 -102 36t-42 97q0 58 41.5 95.5t102.5 37.5q62 0 102.5 -37.5t40.5 -95.5q0 -61 -41 -97t-102 -36zM1430 1364q-60 0 -102 36t-42 97q0 58 41.5 95.5t102.5 37.5q62 0 102.5 -37.5t40.5 -95.5q0 -61 -41 -97t-102 -36zM1837 201v-201h-250v-451h-870
q-606 0 -606 576v450h200v-430q0 -395 447 -395h628v281h-122q-285 0 -457 142.5t-172 391.5v2q0 258 179.5 415t475.5 157h297v-938h250zM1249 201h137v739h-137q-189 0 -306.5 -101.5t-117.5 -271.5v-2q0 -164 118 -264t306 -100z" />
    <glyph glyph-name="uniFED7" unicode="&#x642;" horiz-adv-x="1265" arabic-form="initial" 
d="M647 1364q-60 0 -101.5 36t-41.5 97q0 58 41 95.5t102 37.5q62 0 103 -37.5t41 -95.5q0 -61 -41.5 -97t-102.5 -36zM1026 1630q62 0 102.5 -37.5t40.5 -95.5q0 -61 -41 -97t-102 -36q-60 0 -101.5 36t-41.5 97q0 58 41 95.5t102 37.5zM176 567q0 258 179.5 415t475.5 157
h297v-1022l-2 -23v-94h-8h-313h-805v201h305q-129 144 -129 364v2zM928 201v739h-137q-189 0 -306.5 -101.5t-117.5 -271.5v-2q0 -164 118 -264t306 -100h137z" />
    <glyph glyph-name="uniFED8" unicode="&#x642;" horiz-adv-x="1337" arabic-form="medial" 
d="M647 1364q-60 0 -101.5 36t-41.5 97q0 58 41 95.5t102 37.5q62 0 103 -37.5t41 -95.5q0 -61 -41.5 -97t-102.5 -36zM1026 1364q-60 0 -101.5 36t-41.5 97q0 58 41 95.5t102 37.5q62 0 102.5 -37.5t40.5 -95.5q0 -61 -41 -97t-102 -36zM1128 201h250v-201h-260h-10h-303
h-805v201h305q-129 144 -129 364v2q0 258 179.5 415t475.5 157h297v-938zM791 201h137v739h-137q-189 0 -306.5 -101.5t-117.5 -271.5v-2q0 -164 118 -264t306 -100z" />
    <glyph glyph-name="uniFEDA" unicode="&#x643;" horiz-adv-x="1710" arabic-form="final" 
d="M1509 201h242v-201h-1034q-606 0 -606 575v386h200v-365q0 -395 447 -395h551v1460h200v-1460zM1053 1102v-156h-430v238q0 104 60.5 164.5t164.5 60.5h129v-119h-117q-104 0 -104 -102v-86h297z" />
    <glyph glyph-name="uniFEDB" unicode="&#x643;" horiz-adv-x="1359" arabic-form="initial" 
d="M0 0v201h1038v346q0 146 -75 218.5t-213 72.5h-566q-62 88 -67 200l319 623h246l-340 -621h387q514 0 514 -522v-518h-1243z" />
    <glyph glyph-name="uniFEDC" unicode="&#x643;" horiz-adv-x="1452" arabic-form="medial" 
d="M1243 201h250v-201h-1493v201h1038v346q0 146 -75 218.5t-213 72.5h-566q-62 88 -67 200l319 623h246l-340 -621h387q514 0 514 -522v-317z" />
    <glyph glyph-name="uniFEDE" unicode="&#x644;" horiz-adv-x="1386" arabic-form="final" 
d="M1427 201v-201h-249v-256h-461q-296 0 -451 145.5t-155 421.5v688h202v-663q0 -391 435 -391h229v1716h201v-1460h249z" />
    <glyph glyph-name="uniFEDF" unicode="&#x644;" horiz-adv-x="696" arabic-form="initial" 
d="M317 1661h201v-1661h-545v201h344v1460z" />
    <glyph glyph-name="uniFEE0" unicode="&#x644;" horiz-adv-x="643" arabic-form="medial" 
d="M436 201h250v-201h-686v201h236v1460h200v-1460z" />
    <glyph glyph-name="uniFEE2" unicode="&#x645;" horiz-adv-x="1865" arabic-form="final" 
d="M1907 201v-201h-293q-74 -107 -190.5 -165t-262.5 -58h-2q-229 0 -380.5 136t-180.5 366q-142 -10 -214.5 -110t-72.5 -273v-347h-200v377q0 258 127 401t360 152q26 237 178 378.5t383 141.5h2q252 0 406.5 -169t154.5 -447v-2q0 -101 -20 -180h205zM1522 385v2
q0 185 -99.5 298.5t-261.5 113.5h-2q-164 0 -264 -113.5t-100 -298.5v-2q0 -183 100 -294t264 -111h2q163 0 262 111.5t99 293.5z" />
    <glyph glyph-name="uniFEE3" unicode="&#x645;" horiz-adv-x="1392" arabic-form="initial" 
d="M741 999q252 0 407 -169t155 -447v-2q0 -270 -155 -437t-407 -167h-2q-148 0 -265 58t-191 165h-283v201h193q-21 83 -21 180v2q0 278 156 447t411 169h2zM1102 385v2q0 185 -99.5 298.5t-261.5 113.5h-2q-164 0 -264 -113.5t-100 -298.5v-2q0 -183 100 -294t264 -111h2
q163 0 262 111.5t99 293.5z" />
    <glyph glyph-name="uniFEE4" unicode="&#x645;" horiz-adv-x="1464" arabic-form="medial" 
d="M1505 201v-201h-311q-74 -107 -190.5 -165t-262.5 -58h-2q-148 0 -265 58t-191 165h-283v201h193q-21 83 -21 180v2q0 278 156 447t411 169h2q252 0 407 -169t155 -447v-2q0 -97 -21 -180h223zM1102 385v2q0 185 -99.5 298.5t-261.5 113.5h-2q-164 0 -264 -113.5
t-100 -298.5v-2q0 -183 100 -294t264 -111h2q163 0 262 111.5t99 293.5z" />
    <glyph glyph-name="uniFEE6" unicode="&#x646;" horiz-adv-x="1386" arabic-form="final" 
d="M653 1239q-61 0 -103 35.5t-42 97.5q0 59 41.5 96t103.5 37q60 0 102 -37t42 -96q0 -62 -42.5 -97.5t-101.5 -35.5zM1427 201v-201h-249v-256h-461q-296 0 -451 145.5t-155 421.5v688h202v-663q0 -391 435 -391h229v1054h201v-798h249z" />
    <glyph glyph-name="uniFEE7" unicode="&#x646;" horiz-adv-x="548" arabic-form="initial" 
d="M315 1378q-61 0 -103 35.5t-42 97.5q0 59 41.5 96.5t103.5 37.5q60 0 102 -37.5t42 -96.5q0 -62 -42.5 -97.5t-101.5 -35.5zM0 0v201h209v938h201v-1139h-410z" />
    <glyph glyph-name="uniFEE8" unicode="&#x646;" horiz-adv-x="618" arabic-form="medial" 
d="M311 1378q-61 0 -103 35.5t-42 97.5q0 59 41.5 96.5t103.5 37.5q60 0 102 -37.5t42 -96.5q0 -62 -42.5 -97.5t-101.5 -35.5zM410 201h249v-201h-659v201h209v938h201v-938z" />
    <glyph glyph-name="uniFEE9" unicode="&#x647;" horiz-adv-x="1720" arabic-form="isolated" 
d="M844 1364q174 0 320.5 -55.5t254 -159.5t168 -264t60.5 -359q0 -195 -60 -526h-1532l41 201h252q-22 113 -22 223q0 214 122.5 345.5t315.5 131.5t315.5 -130t122.5 -341q0 -102 -24 -229h239q27 185 27 311q0 210 -80 358t-221 220.5t-330 72.5q-238 0 -471 -127
l-72 181q290 147 574 147zM526 401q0 -97 21 -200h434q20 95 20 200q0 134 -66.5 216.5t-174.5 82.5q-105 0 -169.5 -82.5t-64.5 -216.5z" />
    <glyph glyph-name="uniFEEA" unicode="&#x647;" horiz-adv-x="1269" arabic-form="final" 
d="M1061 201h250v-201h-451h-123q-283 0 -455.5 155t-172.5 410v2q0 258 179.5 415t475.5 157h96v102h201v-1040zM860 201v739h-137q-189 0 -306.5 -101.5t-117.5 -271.5v-2q0 -164 118 -264t306 -100h137z" />
    <glyph glyph-name="uniFEEB" unicode="&#x647;" horiz-adv-x="1660" arabic-form="initial" 
d="M748 1364q174 0 320 -55.5t253.5 -159.5t168 -264t60.5 -359q0 -201 -59 -526h-1491v201h252q-23 118 -23 223q0 214 123 345.5t316 131.5t315.5 -130t122.5 -341q0 -97 -25 -229h240q27 185 27 311q0 210 -80 358t-221 220.5t-330 72.5q-238 0 -471 -127l-72 181
q290 147 574 147zM430 401q0 -97 21 -200h434q20 95 20 200q0 134 -66.5 216.5t-174.5 82.5q-105 0 -169.5 -82.5t-64.5 -216.5z" />
    <glyph glyph-name="uniFEEC" unicode="&#x647;" horiz-adv-x="1775" arabic-form="medial" 
d="M1524 201h293v-201h-1817v201h252q-23 118 -23 223q0 214 123 345.5t316 131.5t315.5 -130t122.5 -341q0 -97 -25 -229h240q27 185 27 311q0 210 -80 358t-221 220.5t-330 72.5q-238 0 -471 -127l-72 181q290 147 574 147q174 0 320 -55.5t253.5 -159.5t168 -264
t60.5 -359q0 -112 -26 -325zM430 401q0 -97 21 -200h434q20 95 20 200q0 134 -66.5 216.5t-174.5 82.5q-105 0 -169.5 -82.5t-64.5 -216.5z" />
    <glyph glyph-name="uniFEEE" unicode="&#x648;" horiz-adv-x="1269" arabic-form="final" 
d="M1311 201v-201h-250q-4 -244 -117.5 -347.5t-343.5 -103.5q-166 0 -326 56l-36 213q189 -66 354 -66q128 0 198 53.5t70 176.5v18h-123q-283 0 -455.5 155t-172.5 410v2q0 258 179.5 415t475.5 157h297v-938h250zM723 201h137v739h-137q-189 0 -306.5 -101.5
t-117.5 -271.5v-2q0 -164 118 -264t306 -100z" />
    <glyph glyph-name="uniFEF0" unicode="&#x649;" horiz-adv-x="2172" arabic-form="final" 
d="M1964 201h250v-201h-451v948h-200q-136 0 -206.5 -78t-70.5 -211v-915h-569q-606 0 -606 575v451h200v-430q0 -395 447 -395h327v682q-1 254 131 383t379 129h369v-938z" />
    <glyph glyph-name="uniFEF2" unicode="&#x64a;" horiz-adv-x="2172" arabic-form="final" 
d="M1964 201h250v-201h-451v948h-200q-136 0 -206.5 -78t-70.5 -211v-915h-569q-606 0 -606 575v451h200v-430q0 -395 447 -395h327v682q-1 254 131 383t379 129h369v-938zM672 -483q62 0 102.5 -36.5t40.5 -94.5q0 -61 -41 -97.5t-102 -36.5q-60 0 -102 36.5t-42 97.5
q0 58 41.5 94.5t102.5 36.5zM1051 -483q62 0 102.5 -36.5t40.5 -94.5q0 -61 -41 -97.5t-102 -36.5q-60 0 -102 36.5t-42 97.5q0 58 41.5 94.5t102.5 36.5z" />
    <glyph glyph-name="uniFEF3" unicode="&#x64a;" horiz-adv-x="737" arabic-form="initial" 
d="M0 0v201h397v938h201v-1139h-598zM123 -492q-59 0 -101 36.5t-42 97.5q0 58 41 94.5t102 36.5q62 0 102.5 -36.5t40.5 -94.5q0 -61 -41 -97.5t-102 -36.5zM502 -492q-60 0 -102 36.5t-42 97.5q0 58 41.5 94.5t102.5 36.5q62 0 102.5 -36.5t40.5 -94.5q0 -61 -41 -97.5
t-102 -36.5z" />
    <glyph glyph-name="uniFEF4" unicode="&#x64a;" horiz-adv-x="854" arabic-form="medial" 
d="M895 201v-201h-895v201h328v938h200v-938h367zM242 -227q62 0 102.5 -36.5t40.5 -94.5q0 -61 -41 -97.5t-102 -36.5q-60 0 -102 36.5t-42 97.5q0 58 41.5 94.5t102.5 36.5zM621 -227q62 0 102.5 -36.5t40.5 -94.5q0 -61 -41 -97.5t-102 -36.5q-60 0 -102 36.5t-42 97.5
q0 58 41.5 94.5t102.5 36.5z" />
    <glyph glyph-name=".notdef" horiz-adv-x="1024" 
 />
    <glyph glyph-name=".null" horiz-adv-x="1024" 
 />
    <glyph glyph-name="nonmarkingreturn" horiz-adv-x="682" 
 />
    <glyph glyph-name="CR" unicode="&#xd;" horiz-adv-x="1024" 
 />
    <glyph glyph-name="space" unicode=" " horiz-adv-x="370" 
 />
    <glyph glyph-name="exclam" unicode="!" horiz-adv-x="612" 
d="M205 483v1178h203v-1178h-203zM307 -16q-60 0 -102.5 35.5t-42.5 97.5q0 59 42 96t103 37t103.5 -37t42.5 -96q0 -62 -43 -97.5t-103 -35.5z" />
    <glyph glyph-name="quotedbl" unicode="&#x22;" horiz-adv-x="952" 
d="M217 1026l-33 637h195l-35 -637h-127zM608 1026l-33 637h195l-35 -637h-127z" />
    <glyph glyph-name="numbersign" unicode="#" horiz-adv-x="2060" 
d="M502 0l61 465h-342l17 160h346l61 436h-342l19 160h344l59 442h195l-62 -442h440l62 442h192l-59 -442h348l-18 -160h-350l-60 -436h344l-18 -160h-346l-62 -465h-194l61 465h-442l-62 -465h-192zM778 625h443l57 436h-440z" />
    <glyph glyph-name="dollar" unicode="$" horiz-adv-x="1462" 
d="M831 930q256 -74 369 -187t113 -288v-4q-1 -193 -129 -316t-353 -151v-228h-200v221q-282 19 -477 154l79 170q174 -122 398 -141v624q-11 6 -25 9q-218 66 -315.5 175t-97.5 289v5q0 170 116 282t322 137v224h200v-222q265 -23 437 -139l-78 -170q-155 105 -359 127
v-571zM395 1262q0 -107 56 -166.5t180 -104.5v506q-116 -21 -176 -82t-60 -149v-4zM1106 446v5q0 96 -62 157t-213 115v-553q131 25 203 97.5t72 178.5z" />
    <glyph glyph-name="percent" unicode="%" horiz-adv-x="2867" 
d="M909 0l891 1661h211l-891 -1661h-211zM561 586q-233 0 -364 130.5t-131 362.5v2q0 233 131 364.5t364 131.5t364.5 -131.5t131.5 -364.5v-2q0 -232 -131.5 -362.5t-364.5 -130.5zM561 748q137 0 214 87.5t77 243.5v2q0 157 -77 244.5t-214 87.5t-214 -87.5t-77 -244.5v-2
q0 -156 77 -243.5t214 -87.5zM2306 -29q-233 0 -364.5 131t-131.5 363v2q0 233 131.5 364.5t364.5 131.5t364.5 -131.5t131.5 -364.5v-2q0 -232 -131.5 -363t-364.5 -131zM2306 133q137 0 214 87.5t77 244.5v2q0 157 -77 244.5t-214 87.5t-214 -87.5t-77 -244.5v-2
q0 -157 77 -244.5t214 -87.5z" />
    <glyph glyph-name="ampersand" unicode="&#x26;" horiz-adv-x="1683" 
d="M1583 0h-258l-166 186q-221 -211 -508 -211q-256 0 -402.5 123t-146.5 332v4q0 159 102.5 274t311.5 205q-100 116 -143 206t-43 212v2q0 152 127.5 253.5t326.5 101.5q198 0 312 -102.5t114 -264.5v-2q0 -65 -17.5 -120.5t-60 -114t-123 -113t-198.5 -103.5l356 -401
q19 35 33.5 69t24 59t20.5 66.5t16.5 63t18 78t18.5 84.5h185q-53 -228 -79 -305q-42 -123 -118 -246zM526 1323v-2q0 -55 22.5 -108.5t50 -90.5t84.5 -105q15 -17 22 -26q84 35 145.5 70.5t96 65.5t54 64t25.5 60.5t6 59.5v2q0 95 -67 149t-185 54q-114 0 -184 -53.5
t-70 -139.5zM307 434q0 -129 97.5 -208t265.5 -79q101 0 199.5 43.5t179.5 120.5l-426 480q-161 -64 -238.5 -148t-77.5 -203v-6z" />
    <glyph glyph-name="quotesingle" unicode="'" horiz-adv-x="561" 
d="M217 1026l-33 637h195l-35 -637h-127z" />
    <glyph glyph-name="parenleft" unicode="(" horiz-adv-x="696" 
d="M436 -451q-120 188 -208.5 475t-88.5 584q0 298 88 581t209 472h211q-130 -222 -210.5 -495.5t-80.5 -557.5t81 -561t210 -498h-211z" />
    <glyph glyph-name="parenright" unicode=")" horiz-adv-x="696" 
d="M25 -451q129 221 209.5 498t80.5 561q0 285 -80 558t-210 495h211q120 -191 208 -473.5t88 -579.5q0 -296 -88.5 -582.5t-207.5 -476.5h-211z" />
    <glyph glyph-name="asterisk" unicode="*" horiz-adv-x="907" 
d="M250 928l-100 67l182 254l-299 103l43 112l295 -106v305h121v-303l299 100l43 -110l-302 -101l183 -252l-94 -69l-189 256z" />
    <glyph glyph-name="plus" unicode="+" horiz-adv-x="1413" 
d="M604 -2v494h-475v182h475v467h205v-467h475v-182h-475v-494h-205z" />
    <glyph glyph-name="comma" unicode="," horiz-adv-x="477" 
d="M-8 -340l205 594h215l-250 -594h-170z" />
    <glyph glyph-name="hyphen" unicode="-" horiz-adv-x="1058" 
d="M129 500v151h803v-151h-803z" />
    <glyph glyph-name="period" unicode="." horiz-adv-x="393" 
d="M197 -20q-60 0 -103 35.5t-43 97.5q0 59 42.5 96t103.5 37t103 -37t42 -96q0 -62 -42.5 -97.5t-102.5 -35.5z" />
    <glyph glyph-name="slash" unicode="/" horiz-adv-x="1245" 
d="M-53 -307l1108 1968h221l-1108 -1968h-221z" />
    <glyph glyph-name="zero" unicode="0" horiz-adv-x="1593" 
d="M797 -25q-310 0 -489 224t-179 628v2q0 407 179.5 633t488.5 226t488 -225.5t179 -633.5v-2q0 -404 -179 -628t-488 -224zM797 168q214 0 336 172.5t122 486.5v2q0 317 -122 492.5t-336 175.5q-215 0 -337 -175.5t-122 -492.5v-2q0 -314 122 -486.5t337 -172.5z" />
    <glyph glyph-name="one" unicode="1" horiz-adv-x="839" 
d="M416 0v1458l-367 -96v184l569 127v-1673h-202z" />
    <glyph glyph-name="two" unicode="2" horiz-adv-x="1415" 
d="M98 0v180q159 115 274.5 203t228 182t187.5 171.5t134 156t86.5 151.5t27.5 144v2q0 143 -104 222t-283 79q-228 0 -424 -145l-88 178q111 78 251 121t288 43q260 0 413.5 -118t153.5 -339v-4q0 -168 -84 -323.5t-260 -323t-483 -390.5h864v-190h-1182z" />
    <glyph glyph-name="three" unicode="3" horiz-adv-x="1351" 
d="M938 868q148 -39 224.5 -147t76.5 -262v-8q0 -221 -169 -346t-466 -125q-146 0 -293 42.5t-256 118.5l95 176q189 -145 425 -145q212 0 333.5 77t121.5 216v8q0 293 -477 293h-51v184h51q206 0 325 67t119 202v6q0 129 -104.5 197.5t-294.5 68.5q-113 0 -224.5 -36
t-203.5 -105l-94 174q108 76 255.5 119t291.5 43q271 0 424 -111t153 -313v-9q0 -129 -68.5 -232t-193.5 -153z" />
    <glyph glyph-name="four" unicode="4" horiz-adv-x="1536" 
d="M983 0v422h-909v190l852 1049h260v-1049h291v-190h-291v-422h-203zM297 612h686v840z" />
    <glyph glyph-name="five" unicode="5" horiz-adv-x="1454" 
d="M721 1085q124 0 231.5 -35.5t191.5 -103t132.5 -176t48.5 -244.5v-4q-1 -172 -82.5 -296.5t-226.5 -187.5t-338 -63q-312 0 -576 162l91 182q92 -70 214.5 -108.5t245.5 -38.5q214 0 339 93.5t126 260.5v2q0 187 -131 277t-371 90q-182 0 -413 -72l94 838h944v-191h-760
l-47 -415q135 30 287 30z" />
    <glyph glyph-name="six" unicode="6" horiz-adv-x="1497" 
d="M788 1149q262 0 427 -158t165 -409v-4q0 -274 -170 -438t-456 -165q-291 0 -464 161.5t-173 436.5v7q0 120 52 238t124 212q88 122 471 631h229q-335 -439 -418 -547q91 35 213 35zM1174 559v4q0 182 -115.5 292.5t-308.5 111.5q-193 0 -309.5 -110.5t-116.5 -293.5v-4
q0 -181 116 -290t310 -109q193 1 308.5 110t115.5 289z" />
    <glyph glyph-name="seven" unicode="7" horiz-adv-x="1304" 
d="M158 0l864 1473h-969v188h1196v-188l-848 -1473h-243z" />
    <glyph glyph-name="eight" unicode="8" horiz-adv-x="1482" 
d="M741 -23q-104 0 -196.5 17.5t-171 55t-135.5 91.5t-89 130.5t-32 168.5v9q0 165 91 277.5t238 150.5q-121 34 -200.5 132t-79.5 238v6q0 107 44.5 191t123 137t182 80t225.5 27q165 0 292 -47t204.5 -147t77.5 -241v-6q0 -140 -79 -238t-200 -132q147 -38 238.5 -150.5
t91.5 -277.5v-9q0 -92 -32 -168t-89.5 -130t-136 -91.5t-171 -55.5t-196.5 -18zM741 961q166 0 266.5 71t100.5 203q0 130 -98 200t-269 70q-173 0 -270.5 -69.5t-97.5 -200.5q0 -132 100 -203t268 -71zM741 154q192 0 301 79.5t109 229.5q0 155 -111.5 239t-298.5 84
q-188 0 -299.5 -83.5t-111.5 -239.5q0 -150 110 -229.5t301 -79.5z" />
    <glyph glyph-name="nine" unicode="9" horiz-adv-x="1519" 
d="M766 1686q291 0 464 -162t173 -437v-6q0 -120 -52 -238t-124 -212q-88 -122 -471 -631h-230q335 439 418 547q-91 -35 -213 -35q-262 0 -427 158t-165 409v4q0 274 170.5 437.5t456.5 165.5zM1196 1098v4q0 181 -116 290t-310 109q-193 -1 -308.5 -110t-115.5 -289v-4
q0 -182 115.5 -292.5t308.5 -111.5q193 0 309.5 110.5t116.5 293.5z" />
    <glyph glyph-name="colon" unicode=":" horiz-adv-x="432" 
d="M197 793q-60 0 -103 35.5t-43 97.5q0 59 42.5 96t103.5 37t103 -37t42 -96q0 -62 -42.5 -97.5t-102.5 -35.5zM197 -20q-60 0 -103 35.5t-43 97.5q0 59 42.5 96t103.5 37t103 -37t42 -96q0 -62 -42.5 -97.5t-102.5 -35.5z" />
    <glyph glyph-name="semicolon" unicode=";" horiz-adv-x="526" 
d="M285 795q-60 0 -103 35.5t-43 97.5q0 59 42.5 96t103.5 37t103 -37t42 -96q0 -62 -42.5 -97.5t-102.5 -35.5zM-8 -340l205 594h215l-250 -594h-170z" />
    <glyph glyph-name="less" unicode="&#x3c;" horiz-adv-x="1402" 
d="M1311 0l-1221 477v180l1221 482v-197l-983 -375l983 -370v-197z" />
    <glyph glyph-name="equal" unicode="=" horiz-adv-x="1388" 
d="M129 690v189h1102v-189h-1102zM129 240v188h1102v-188h-1102z" />
    <glyph glyph-name="greater" unicode="&#x3e;" horiz-adv-x="1402" 
d="M92 0v197l983 370l-983 375v197l1221 -482v-180z" />
    <glyph glyph-name="question" unicode="?" horiz-adv-x="1120" 
d="M373 508l-2 344q85 19 148 40t119 51t91.5 66.5t55.5 86.5t20 112v13q0 268 -330 268q-195 0 -373 -74l41 203q169 68 371 68q243 0 372.5 -110.5t129.5 -322.5v-14q0 -190 -116.5 -311.5t-326.5 -192.5v-227h-200zM471 -16q-60 0 -102.5 35.5t-42.5 97.5q0 59 42 96
t103 37t103 -37t42 -96q0 -62 -42.5 -97.5t-102.5 -35.5z" />
    <glyph glyph-name="at" unicode="@" horiz-adv-x="2101" 
d="M2001 928q1 -99 -11 -184.5t-43 -164t-79 -134.5t-123.5 -89t-171.5 -34q-267 -3 -311 194q-105 -192 -334 -192q-224 0 -340 136.5t-84 354.5q40 243 205.5 365.5t427.5 122.5q80 0 200.5 -15.5t192.5 -38.5l-78 -524q-21 -145 6.5 -196.5t112.5 -49.5q87 0 144 63.5
t80 163.5t20 230q-8 279 -187 430.5t-508 151.5q-244 0 -429 -83t-292 -248.5t-110 -395.5q-2 -162 51 -294.5t148 -219.5t224 -134t279 -47q148 0 264.5 23.5t243.5 70.5l74 -161q-148 -54 -283 -75.5t-293 -21.5q-210 0 -381.5 64.5t-286 178.5t-174 272.5t-53.5 343.5
q14 406 286 648t724 242q251 0 452 -93t318 -265.5t119 -394.5zM940 479q277 0 330 314l57 335q-132 21 -203 21q-175 0 -292.5 -89t-141.5 -253q-27 -168 41 -248t209 -80z" />
    <glyph glyph-name="A" unicode="A" horiz-adv-x="1595" 
d="M1337 0l-180 489h-719l-180 -489h-211l625 1661h243l633 -1661h-211zM788 1444l-286 -772h590l-291 772l-6 16z" />
    <glyph glyph-name="B" unicode="B" horiz-adv-x="1507" 
d="M1034 881q170 -29 259 -134t89 -274v-2q0 -102 -30 -182.5t-83 -134t-129 -88.5t-164 -50.5t-192 -15.5h-563v1661h533q272 0 415.5 -100t143.5 -306v-2q0 -142 -74.5 -241.5t-204.5 -130.5zM748 1468h-326v-528h326q364 0 364 270v2q0 139 -94 197.5t-270 58.5z
M1178 489v3q0 147 -98 216.5t-273 69.5h-385v-585h379q189 0 283 79t94 217z" />
    <glyph glyph-name="C" unicode="C" horiz-adv-x="1599" 
d="M963 -25q-185 0 -344.5 63t-273 174.5t-178 271t-65.5 345.5v2q0 248 110.5 444t307 304.5t443.5 108.5h2q291 0 532 -164l-80 -172q-206 137 -442 137h-2q-131 0 -247.5 -43t-207 -124t-143.5 -208t-53 -283v-2q1 -156 54 -282.5t142.5 -207t206 -124t246.5 -43.5h2
q239 0 444 137l80 -174q-238 -160 -532 -160h-2z" />
    <glyph glyph-name="D" unicode="D" horiz-adv-x="1697" 
d="M690 1661q413 0 655 -222.5t242 -600.5v-2q-2 -383 -244 -609.5t-653 -226.5h-469v1661h469zM1368 836v2q0 296 -172.5 464t-478.5 168h-295v-1280h295q304 0 476.5 171.5t174.5 474.5z" />
    <glyph glyph-name="E" unicode="E" horiz-adv-x="1396" 
d="M221 0v1661h1008v-191h-807v-518h729v-190h-729v-572h815v-190h-1016z" />
    <glyph glyph-name="F" unicode="F" horiz-adv-x="1363" 
d="M221 0v1661h996v-191h-795v-520h715v-190h-715v-760h-201z" />
    <glyph glyph-name="G" unicode="G" horiz-adv-x="1656" 
d="M858 856h686v-715q-115 -78 -270.5 -122t-310.5 -44q-247 0 -443 108.5t-306.5 304t-111.5 443.5v3q0 186 64.5 345t178 270.5t274 175t346.5 63.5q299 0 565 -164l-82 -183q-209 150 -475 150q-130 0 -247 -43.5t-207.5 -124t-143.5 -207t-53 -282.5v-3
q1 -156 54 -282.5t142.5 -207.5t206 -124.5t246.5 -44.5q212 0 383 109v389h-496v186z" />
    <glyph glyph-name="H" unicode="H" horiz-adv-x="1726" 
d="M221 0v1661h201v-711h883v711h202v-1661h-202v760h-883v-760h-201z" />
    <glyph glyph-name="I" unicode="I" horiz-adv-x="641" 
d="M221 0v1661h201v-1661h-201z" />
    <glyph glyph-name="J" unicode="J" horiz-adv-x="978" 
d="M365 -25q-187 0 -347 78l74 172q122 -51 230 -51q237 0 237 281v1206h201v-1235q0 -222 -101 -336.5t-294 -114.5z" />
    <glyph glyph-name="K" unicode="K" horiz-adv-x="1523" 
d="M645 836l813 -836h-260l-776 797v-797h-201v1661h201v-807l739 807h242z" />
    <glyph glyph-name="L" unicode="L" horiz-adv-x="1353" 
d="M221 0v1661h201v-1471h770v-190h-971z" />
    <glyph glyph-name="M" unicode="M" horiz-adv-x="2023" 
d="M1548 1661h254v-1661h-200v1321l-19 -64l-475 -1257h-190l-480 1260l-16 57v-1317h-201v1661h254l477 -1251l62 -213l59 211z" />
    <glyph glyph-name="N" unicode="N" horiz-adv-x="1738" 
d="M1317 1661h203v-1661h-236l-862 1364v-1364h-201v1661h234l862 -1364v1364z" />
    <glyph glyph-name="O" unicode="O" horiz-adv-x="1841" 
d="M920 -25q-184 0 -339 68t-259 185t-162 273.5t-58 332.5v2q0 141 36.5 270t107 234.5t168.5 183.5t228 121t278 43h2q185 0 340 -66.5t259 -182t162 -271t58 -332.5v-2q-1 -176 -59 -332.5t-162 -273.5t-259 -185t-339 -68h-2zM920 174h4q133 0 248 51t194.5 139
t124.5 210.5t45 261.5v2q0 187 -76 335t-215.5 232t-320.5 84h-4q-274 0 -444.5 -183t-170.5 -468v-2q1 -187 77.5 -337.5t217 -237.5t320.5 -87z" />
    <glyph glyph-name="P" unicode="P" horiz-adv-x="1464" 
d="M780 1661q124 0 223 -25.5t165.5 -70.5t110.5 -108.5t63.5 -136.5t19.5 -157v-2q-2 -247 -152.5 -383.5t-427.5 -136.5h-360v-641h-201v1661h559zM1159 1155v2q0 166 -99.5 241t-287.5 75h-350v-644h350q387 0 387 326z" />
    <glyph glyph-name="Q" unicode="Q" horiz-adv-x="1904" 
d="M1804 -68l-135 -133l-303 301q-192 -125 -444 -125h-2q-184 0 -339 68t-259 185t-162 273.5t-58 332.5v2q0 141 36.5 270t107 234.5t168.5 183.5t228 121t278 43h2q185 0 340 -66.5t259 -182t162 -271t58 -332.5v-2q-1 -178 -60 -336t-168 -275zM924 174q160 0 295 74
l-226 223l135 135l240 -239q168 189 168 469v2q0 187 -76 335t-215.5 232t-320.5 84h-4q-274 0 -444.5 -183t-170.5 -468v-2q1 -187 77.5 -337.5t217 -237.5t320.5 -87h4z" />
    <glyph glyph-name="R" unicode="R" horiz-adv-x="1570" 
d="M1243 0l-442 688h-379v-688h-201v1661h627q290 0 437 -126t147 -347v-2q0 -189 -109.5 -317.5t-308.5 -166.5l454 -702h-225zM422 1473v-607h446q166 0 262.5 82.5t96.5 229.5v2q0 143 -96 218t-263 75h-446z" />
    <glyph glyph-name="S" unicode="S" horiz-adv-x="1462" 
d="M707 -25q-155 0 -300 40.5t-253 115.5l79 170q96 -68 218 -105.5t249 -37.5q191 0 298.5 78.5t107.5 209.5v5q0 107 -80 173t-281 128q-26 8 -75.5 22.5t-63.5 18.5q-218 66 -315.5 175t-97.5 289v5q0 193 146 309.5t398 116.5q148 0 288.5 -38t242.5 -106l-78 -170
q-92 63 -210.5 97t-240.5 34q-167 0 -255.5 -66t-88.5 -173v-4q0 -61 17.5 -105.5t56.5 -78t87.5 -56.5t125.5 -49l143 -41q259 -74 373.5 -187.5t114.5 -289.5v-4q-2 -220 -164.5 -348t-441.5 -128z" />
    <glyph glyph-name="T" unicode="T" horiz-adv-x="1417" 
d="M608 0v1470h-551v191h1303v-191h-549v-1470h-203z" />
    <glyph glyph-name="U" unicode="U" horiz-adv-x="1806" 
d="M903 -25q-355 0 -518.5 169t-163.5 501v1016h201v-963q0 -277 113 -400.5t368 -123.5t368 123.5t113 400.5v963h201v-1016q0 -332 -163.5 -501t-518.5 -169z" />
    <glyph glyph-name="V" unicode="V" horiz-adv-x="1548" 
d="M1270 1661h217l-572 -1661h-288l-566 1661h218l493 -1460z" />
    <glyph glyph-name="W" unicode="W" horiz-adv-x="2181" 
d="M1888 1661h209l-409 -1661h-277l-319 1434l-322 -1434h-276l-410 1661h211l344 -1446l319 1446h265l319 -1446z" />
    <glyph glyph-name="X" unicode="X" horiz-adv-x="1550" 
d="M59 0l596 836l-585 825h237l471 -664l473 664h230l-588 -817l598 -844h-240l-481 682l-487 -682h-224z" />
    <glyph glyph-name="Y" unicode="Y" horiz-adv-x="1525" 
d="M1247 1661h228l-611 -1016v-645h-202v645l-611 1016h228l485 -830z" />
    <glyph glyph-name="Z" unicode="Z" horiz-adv-x="1415" 
d="M1323 1661v-186l-987 -1285h983v-190h-1235v188l989 1285h-923v190z" />
    <glyph glyph-name="bracketleft" unicode="[" horiz-adv-x="686" 
d="M201 -453v2116h424v-143h-232v-1829h232v-144h-424z" />
    <glyph glyph-name="backslash" unicode="\" horiz-adv-x="1245" 
d="M1276 -307h-221l-1108 1968h221z" />
    <glyph glyph-name="bracketright" unicode="]" horiz-adv-x="686" 
d="M41 -453v144h229v1829h-229v143h424v-2116h-424z" />
    <glyph glyph-name="asciicircum" unicode="^" horiz-adv-x="1116" 
d="M18 819l443 844h194l445 -844h-176l-367 719l-364 -719h-175z" />
    <glyph glyph-name="underscore" unicode="_" horiz-adv-x="1249" 
d="M100 -184v184h1049v-184h-1049z" />
    <glyph glyph-name="grave" unicode="`" horiz-adv-x="571" 
d="M502 1325h-197l-258 289h234z" />
    <glyph glyph-name="a" unicode="a" horiz-adv-x="1267" 
d="M596 1178q239 0 369.5 -109t130.5 -326v-686q-98 -31 -227.5 -54t-250.5 -23q-259 0 -398.5 97.5t-139.5 280.5v2q0 182 135 281.5t383 99.5q110 0 297 -24v22q0 258 -346 258q-210 0 -387 -79l43 186q74 34 179 54t212 20zM285 365q0 -101 82 -150t251 -49q130 0 277 35
v331q-145 27 -277 27q-169 0 -251 -48t-82 -146z" />
    <glyph glyph-name="b" unicode="b" horiz-adv-x="1345" 
d="M625 1165q292 0 464.5 -157.5t172.5 -438.5v-2q0 -279 -169.5 -440.5t-469.5 -161.5q-209 0 -439 72v1624h205v-516q137 20 236 20zM1065 565v4q0 187 -114 299.5t-320 112.5q-113 0 -242 -33v-772q116 -26 240 -26q200 0 318 111t118 304z" />
    <glyph glyph-name="c" unicode="c" horiz-adv-x="1128" 
d="M688 -23q-179 0 -314.5 73t-209 208.5t-74.5 316.5v3q3 269 168 433.5t432 164.5q211 0 383 -82l-80 -172q-133 65 -301 65q-180 0 -287 -110.5t-110 -298.5v-3q2 -188 110 -298.5t289 -110.5q176 0 301 67l80 -174q-175 -82 -387 -82z" />
    <glyph glyph-name="d" unicode="d" horiz-adv-x="1345" 
d="M956 1661h205v-1624q-230 -72 -438 -72q-300 0 -469.5 161.5t-169.5 440.5v2q0 281 172.5 438.5t464.5 157.5q98 0 235 -20v516zM717 150q123 0 239 26v772q-129 33 -241 33q-206 0 -320 -112.5t-114 -299.5v-4q0 -193 118 -304t318 -111z" />
    <glyph glyph-name="e" unicode="e" horiz-adv-x="1310" 
d="M1223 608q0 -77 -2 -100h-930q22 -165 128.5 -258.5t276.5 -93.5q216 0 369 88l86 -158q-206 -109 -467 -109q-270 0 -434 164.5t-164 433.5q0 270 162 436.5t424 166.5q248 0 399.5 -157t151.5 -413zM668 997q-157 0 -253.5 -82.5t-119.5 -232.5h729q-9 146 -104 230.5
t-252 84.5z" />
    <glyph glyph-name="f" unicode="f" horiz-adv-x="1015" 
d="M276 0v950h-221v189h221v149q0 109 26 181.5t83.5 115t138 59.5t199.5 17h211v-172h-193q-138 0 -200 -53t-62 -185v-112h451v-189h-451v-950h-203z" />
    <glyph glyph-name="g" unicode="g" horiz-adv-x="1355" 
d="M729 1169q82 0 208 -16.5t241 -42.5v-1126q0 -114 -37.5 -202t-105 -142.5t-159 -82.5t-202.5 -28q-226 0 -371 61l-39 187q158 -70 367 -70q174 0 261 66.5t87 218.5v43q-143 -17 -236 -17h-6q-318 0 -485.5 154.5t-167.5 429.5v2q0 260 174.5 412.5t468.5 152.5h2z
M973 242v696q-131 35 -234 35h-2q-209 0 -326.5 -95.5t-117.5 -281.5v-2q0 -183 118.5 -281t329.5 -98h7q106 0 225 27z" />
    <glyph glyph-name="h" unicode="h" horiz-adv-x="1368" 
d="M1186 0h-205v705q0 144 -76.5 206t-224.5 62q-127 0 -291 -31v-942h-205v1661h205v-516q201 24 301 24q494 0 494 -426q0 -124 1 -371.5t1 -371.5z" />
    <glyph glyph-name="i" unicode="i" horiz-adv-x="571" 
d="M289 1300q-60 0 -102 35t-42 97q0 58 41.5 94.5t102.5 36.5q60 0 100.5 -36.5t40.5 -94.5q0 -62 -41 -97t-100 -35zM184 0v1139h205v-1139h-205z" />
    <glyph glyph-name="j" unicode="j" horiz-adv-x="626" 
d="M342 1300q-60 0 -101.5 35t-41.5 97q0 58 41 94.5t102 36.5q60 0 100.5 -36.5t40.5 -94.5q0 -62 -41 -97t-100 -35zM90 -469q-48 0 -110 12l-31 183q67 -13 102 -13q107 0 147 57.5t40 211.5v1157h204v-1137q0 -183 -33 -283.5t-107.5 -144t-211.5 -43.5z" />
    <glyph glyph-name="k" unicode="k" horiz-adv-x="1198" 
d="M1159 0h-262l-508 557v-557h-205v1661h205v-1081l492 559h239l-491 -559z" />
    <glyph glyph-name="l" unicode="l" horiz-adv-x="571" 
d="M184 0v1661h205v-1661h-205z" />
    <glyph glyph-name="m" unicode="m" horiz-adv-x="2017" 
d="M1833 739q0 -123 1 -369.5t1 -369.5h-205q0 118 -1 351t-1 351q0 66 -12.5 113t-43 83.5t-85.5 54.5t-135 18q-61 0 -132.5 -21t-125.5 -57q22 -77 22 -166q0 -124 1 -364t1 -363h-203q0 118 -1 351t-1 351q0 143 -73.5 206t-210.5 63q-98 0 -240 -29v-942h-205v1114
q293 55 457 55q225 0 348 -106q175 106 373 106q471 0 471 -430z" />
    <glyph glyph-name="n" unicode="n" horiz-adv-x="1368" 
d="M186 0v1114q310 55 504 55q492 0 492 -426q0 -124 1 -371.5t1 -371.5h-203v705q0 143 -77 205.5t-224 62.5q-129 0 -293 -31v-942h-201z" />
    <glyph glyph-name="o" unicode="o" horiz-adv-x="1384" 
d="M690 -25q-171 0 -310 77t-219 213.5t-81 305.5v2q0 169 80 308t219.5 218t310.5 79h2q172 -1 312.5 -80t220.5 -217.5t80 -307.5v-2q0 -168 -80 -304.5t-220.5 -213.5t-312.5 -78h-2zM692 164h2q177 0 291.5 117.5t114.5 289.5v2q0 114 -51 208t-144.5 149.5t-210.5 56.5
h-2q-177 0 -291 -119.5t-114 -294.5v-2q0 -172 114 -289.5t291 -117.5z" />
    <glyph glyph-name="p" unicode="p" horiz-adv-x="1345" 
d="M625 1165q292 0 464.5 -157.5t172.5 -438.5v-2q0 -279 -169.5 -440.5t-469.5 -161.5q-103 0 -234 23v-441h-205v1561h37q208 57 404 57zM1065 565v4q0 187 -114 299.5t-320 112.5q-113 0 -242 -33v-772q116 -26 240 -26q200 0 318 111t118 304z" />
    <glyph glyph-name="q" unicode="q" horiz-adv-x="1345" 
d="M1124 1108h37v-1561h-205v441q-131 -23 -233 -23q-300 0 -469.5 161.5t-169.5 440.5v2q0 281 172.5 438.5t464.5 157.5q195 0 403 -57zM717 150q123 0 239 26v772q-129 33 -241 33q-206 0 -320 -112.5t-114 -299.5v-4q0 -193 118 -304t318 -111z" />
    <glyph glyph-name="r" unicode="r" horiz-adv-x="866" 
d="M164 0v1081q203 60 422 60h198v-193q-36 0 -85.5 1t-90.5 1q-182 0 -243 -30v-920h-201z" />
    <glyph glyph-name="s" unicode="s" horiz-adv-x="1052" 
d="M502 -25q-252 0 -461 95l55 163q190 -81 387 -81q147 0 226 34.5t79 118.5q0 76 -47 110t-211 77q-17 4 -50.5 13t-51.5 13q-190 50 -276 132t-86 216q0 145 118 227.5t322 82.5q259 0 440 -93l-57 -163q-172 79 -359 79q-124 0 -187.5 -31.5t-63.5 -101.5q0 -25 5 -44
t20 -34.5t31.5 -26.5t49.5 -22.5t62.5 -20t82.5 -22.5q15 -4 43 -11t43 -11q201 -54 288 -138.5t87 -220.5q0 -167 -123.5 -253.5t-365.5 -86.5z" />
    <glyph glyph-name="t" unicode="t" horiz-adv-x="999" 
d="M666 0q-218 0 -306 86t-88 272v596h-217v185h217v415h201v-415h449v-185h-449v-534q0 -131 62.5 -182.5t197.5 -51.5h193v-186h-260z" />
    <glyph glyph-name="u" unicode="u" horiz-adv-x="1368" 
d="M1184 1139v-1108q-319 -56 -506 -56q-247 0 -369.5 105t-122.5 323v736h201q0 -118 1 -348.5t1 -348.5q0 -150 75 -209t226 -59q123 0 291 29v936h203z" />
    <glyph glyph-name="v" unicode="v" horiz-adv-x="1196" 
d="M930 1139h213l-410 -1139h-266l-414 1139h213l334 -955z" />
    <glyph glyph-name="w" unicode="w" horiz-adv-x="1728" 
d="M1462 1141h213l-286 -1141h-267l-258 940l-260 -940h-260l-291 1141h213l223 -920l252 920h248l252 -918z" />
    <glyph glyph-name="x" unicode="x" horiz-adv-x="1228" 
d="M1178 0h-238l-330 432l-334 -432h-225l445 584l-418 555h235l303 -398l306 398h231l-420 -549z" />
    <glyph glyph-name="y" unicode="y" horiz-adv-x="1341" 
d="M1169 109q-1 0 -3 -1.5t-3 -1.5v-122q0 -114 -37.5 -202t-105 -142.5t-159 -82.5t-202.5 -28q-225 0 -370 61l-39 187q158 -70 366 -70q174 0 261.5 66.5t87.5 218.5v59q-152 -33 -301 -33q-245 0 -361.5 104.5t-116.5 326.5q0 118 -1 346t-1 344h203q0 -111 1 -328
t1 -328q0 -148 71 -208t214 -60q171 0 291 37v887h198v-1026z" />
    <glyph glyph-name="z" unicode="z" horiz-adv-x="1200" 
d="M371 186h710v-186h-962v176l696 778h-659v185h911v-170z" />
    <glyph glyph-name="braceleft" unicode="{" horiz-adv-x="768" 
d="M477 946q0 -290 -192 -338v-2q192 -53 192 -340v-389q0 -62 5 -95t24 -56t51 -30t90 -7h47v-142h-82q-80 0 -132.5 8.5t-92.5 28.5t-61 57.5t-31 91t-10 134.5v375q0 141 -38.5 212t-131.5 81v143q93 10 131.5 81t38.5 212v375q0 99 14.5 158.5t53.5 96t99 49.5t160 13
h82v-143h-47q-58 0 -90 -7t-51 -30t-24 -56t-5 -96v-385z" />
    <glyph glyph-name="bar" unicode="|" horiz-adv-x="579" 
d="M207 -451v2112h168v-2112h-168z" />
    <glyph glyph-name="braceright" unicode="}" horiz-adv-x="768" 
d="M483 971q0 -141 38.5 -212t131.5 -81v-143q-93 -10 -131.5 -81t-38.5 -212v-375q0 -81 -10 -134.5t-31 -91t-61 -57.5t-92.5 -28.5t-132.5 -8.5h-82v142h47q58 0 90 7t51 30t24 56t5 95v389q0 287 192 340v2q-192 48 -192 338v385q0 63 -5 96t-24 56t-51 30t-90 7h-47
v143h82q100 0 160 -13t99 -49.5t53.5 -96t14.5 -158.5v-375z" />
    <glyph glyph-name="asciitilde" unicode="~" horiz-adv-x="1423" 
d="M129 387q7 168 97 253t249 85q68 0 134.5 -24t110.5 -53t100.5 -53t107.5 -24q147 0 176 152h190q-8 -148 -100 -243t-246 -95q-51 0 -101 16.5t-91 39.5t-81.5 46t-86.5 39.5t-90 16.5q-79 0 -121.5 -38t-54.5 -118h-193z" />
    <glyph glyph-name="exclamdown" unicode="&#xa1;" horiz-adv-x="612" 
d="M287 1235q60 0 102.5 -35.5t42.5 -97.5q0 -59 -42 -96t-103 -37t-103.5 37t-42.5 96q0 62 43 97.5t103 35.5zM205 727h203v-1178h-203v1178z" />
    <glyph glyph-name="cent" unicode="&#xa2;" horiz-adv-x="1128" 
d="M1075 59q-133 -65 -299 -77v-195h-194v197q-227 32 -359 189t-133 402v3q3 240 136.5 398.5t355.5 190.5v191h196v-187q162 -12 295 -77l-80 -172q-102 49 -215 61l-2 -813q128 12 219 63zM295 575q1 -156 77.5 -260.5t209.5 -136.5v797q-132 -32 -208 -136.5t-79 -260.5
v-3z" />
    <glyph glyph-name="sterling" unicode="&#xa3;" horiz-adv-x="1447" 
d="M1282 221l66 -182q-161 -64 -306 -64q-85 0 -238.5 45.5t-246.5 45.5q-175 0 -340 -82l-88 186q323 197 336 467q3 56 -14 115h-318v172h229q-74 111 -95 157q-44 93 -44 187q0 132 76 228t209 144t309 48q129 0 260 -30t232 -85l-82 -174q-81 44 -185 69t-202 25
q-182 0 -289 -66.5t-107 -185.5q0 -31 7 -62t15 -53.5t26.5 -55t28 -48t34.5 -51t33 -47.5h448v-172h-370q4 -36 4 -58q-5 -288 -264 -477h22q98 37 205 37q79 0 216.5 -39t215.5 -39q114 0 217 45z" />
    <glyph glyph-name="currency" unicode="&#xa4;" horiz-adv-x="1271" 
d="M1040 356l140 -139l-60 -63l-141 137q-66 -60 -155 -93.5t-185 -33.5q-204 0 -346 129l-139 -139l-62 61l139 139q-125 141 -125 330v2q-1 98 31 186.5t90 149.5l-135 137l62 62l137 -136q67 59 158 91t190 32q98 0 188 -31.5t154 -89.5l137 134l60 -62l-131 -131
q59 -66 91.5 -155t32.5 -187v-2q-3 -190 -131 -328zM1022 682q3 161 -108.5 272t-274.5 109q-165 -1 -276.5 -111.5t-108.5 -269.5v-2q5 -157 116 -264t269 -107q157 0 268.5 107.5t114.5 263.5v2z" />
    <glyph glyph-name="yen" unicode="&#xa5;" horiz-adv-x="1679" 
d="M1552 1661l-540 -899h366v-172h-436v-123h436v-174h-436v-293h-203v293h-436v174h436v123h-436v172h367l-541 899h227l486 -830l483 830h227z" />
    <glyph glyph-name="brokenbar" unicode="&#xa6;" horiz-adv-x="579" 
d="M207 842v819h168v-819h-168zM207 -451v820h168v-820h-168z" />
    <glyph glyph-name="section" unicode="&#xa7;" horiz-adv-x="1748" 
d="M1112 932q259 -74 373 -187.5t114 -289.5v-4q-1 -140 -74.5 -239.5t-209.5 -150.5q-2 -16 -2 -53v-4q0 -219 -163 -346t-443 -127q-155 0 -300 40t-253 114l79 170q96 -68 218 -106t249 -38q191 0 298.5 79t107.5 210v4q0 107 -79.5 172t-281.5 129q-26 8 -75.5 22.5
t-63.5 18.5q-218 68 -315.5 176.5t-97.5 288.5v4q0 132 74.5 228.5t209.5 140.5q2 23 2 73v5q0 193 146.5 309.5t398.5 116.5q147 0 287.5 -38t242.5 -106l-77 -170q-92 63 -210.5 97t-240.5 34q-167 0 -255.5 -66t-88.5 -173v-4q0 -61 17.5 -105.5t56.5 -78t87.5 -56.5
t125.5 -49zM1393 446v5q0 106 -83 172.5t-278 128.5q-25 8 -170 49.5t-162 46.5q-100 30 -148.5 61.5t-66.5 73.5q-90 -58 -90 -164v-4q0 -62 16.5 -106.5t54.5 -78t87 -57.5t125 -49l375 -110q121 -35 179 -67.5t77 -74.5q84 66 84 174z" />
    <glyph glyph-name="dieresis" unicode="&#xa8;" horiz-adv-x="763" 
d="M199 1341q-60 0 -103 36t-43 98q0 57 42.5 94t103.5 37q60 0 100.5 -36.5t40.5 -94.5q0 -62 -41 -98t-100 -36zM565 1341q-60 0 -101.5 36t-41.5 98q0 58 41 94.5t102 36.5t102.5 -36.5t41.5 -94.5q0 -62 -42.5 -98t-101.5 -36z" />
    <glyph glyph-name="copyright" unicode="&#xa9;" horiz-adv-x="1916" 
d="M958 -47q-181 0 -341 65t-275.5 178.5t-182.5 276t-67 350.5q0 186 67 349t182.5 278t276 181.5t340.5 66.5t340 -66.5t276 -181.5t183.5 -278t67.5 -349q0 -188 -67.5 -350.5t-183 -276t-275.5 -178.5t-341 -65zM958 47q219 0 393.5 98t273.5 275.5t99 402.5
q0 226 -99 404.5t-273.5 277.5t-393.5 99q-162 0 -304 -58t-243 -160.5t-159.5 -248t-58.5 -314.5q0 -167 58.5 -312t159.5 -246.5t243 -159.5t304 -58zM999 295q-234 0 -377 145.5t-143 384.5v2q2 238 144.5 383.5t375.5 145.5q181 0 334 -78l-45 -100q-122 65 -282 65
q-178 0 -289.5 -111.5t-112.5 -304.5v-2q1 -194 112.5 -305.5t289.5 -111.5q155 0 282 65l45 -100q-153 -78 -334 -78z" />
    <glyph glyph-name="ordfeminine" unicode="&#xaa;" horiz-adv-x="884" 
d="M449 1577q180 0 267 -74.5t87 -226.5v-477q-58 -21 -154 -36t-184 -15q-188 0 -285.5 60.5t-97.5 190.5v2q0 119 93 179.5t265 60.5q119 -4 217 -18v55q0 88 -57.5 132t-185.5 44q-147 0 -264 -53l28 125q112 51 271 51zM655 899v205q-17 4 -82.5 10t-105.5 6
q-126 0 -182 -23.5t-56 -95.5v-2q1 -74 58 -101.5t180 -27.5q43 0 99.5 8t88.5 21z" />
    <glyph glyph-name="guillemotleft" unicode="&#xab;" horiz-adv-x="1210" 
d="M416 57l-330 529l330 524h200l-319 -524l319 -529h-200zM924 57l-330 529l330 524h200l-319 -524l319 -529h-200z" />
    <glyph glyph-name="logicalnot" unicode="&#xac;" horiz-adv-x="1183" 
d="M1055 866v-577h-160v426h-766v151h926z" />
    <glyph glyph-name="registered" unicode="&#xae;" horiz-adv-x="1916" 
d="M958 1698q180 0 340 -66.5t276 -181.5t183.5 -278t67.5 -349q0 -188 -67.5 -350.5t-183 -276t-275.5 -178.5t-341 -65t-341 65t-275.5 178.5t-182.5 276t-67 350.5q0 186 67 349t182.5 278t276 181.5t340.5 66.5zM958 45q219 0 393.5 98.5t273.5 276.5t99 403
q0 169 -58 314.5t-159 248t-243 160.5t-306 58q-162 0 -304 -58.5t-243 -161t-159.5 -248t-58.5 -313.5q0 -224 99.5 -402t274 -277t391.5 -99zM1356 1065q0 -117 -70.5 -197.5t-193.5 -103.5l297 -438h-125l-291 430h-256v-430h-117v1032h397q172 0 265.5 -79t93.5 -214z
M717 1249v-395h287q106 0 170.5 54.5t64.5 148.5q0 93 -64.5 142.5t-170.5 49.5h-287z" />
    <glyph glyph-name="macron" unicode="&#xaf;" horiz-adv-x="727" 
d="M61 1393v116h605v-116h-605z" />
    <glyph glyph-name="degree" unicode="&#xb0;" horiz-adv-x="880" 
d="M440 932q-157 0 -267 110t-110 267q0 158 110 268.5t267 110.5q158 0 268.5 -110.5t110.5 -268.5t-110.5 -267.5t-268.5 -109.5zM440 1040q115 0 190 78.5t75 190.5t-75 191t-190 79t-187.5 -78.5t-72.5 -191.5q0 -112 73 -190.5t187 -78.5z" />
    <glyph glyph-name="plusminus" unicode="&#xb1;" horiz-adv-x="1415" 
d="M606 213v494h-475v182h475v467h205v-467h475v-182h-475v-494h-205zM141 -37v189h1102v-189h-1102z" />
    <glyph glyph-name="uni00B2" unicode="&#xb2;" horiz-adv-x="856" 
d="M74 829v115q285 162 404.5 258t119.5 187v4q0 54 -47 84t-131 30q-60 0 -134.5 -18.5t-131.5 -50.5l-62 118q169 86 350 86q153 0 238.5 -63t85.5 -176v-4q0 -114 -119 -225t-317 -207h461v-136z" />
    <glyph glyph-name="uni00B3" unicode="&#xb3;" horiz-adv-x="833" 
d="M586 1249q188 -47 188 -205v-2q0 -106 -105.5 -163.5t-287.5 -57.5q-89 0 -180 24t-150 62l70 125q115 -76 258 -76q113 0 171 25.5t58 85.5v4q0 63 -55 84t-182 21h-33v135h29q117 0 165 18.5t48 75.5v4q0 44 -49.5 69t-137.5 25q-136 0 -262 -69l-65 116
q67 39 158 63.5t182 24.5q161 0 251.5 -53.5t90.5 -148.5v-2q0 -69 -42 -116t-120 -69z" />
    <glyph glyph-name="acute" unicode="&#xb4;" horiz-adv-x="559" 
d="M61 1325l222 289h233l-258 -289h-197z" />
    <glyph glyph-name="uni00B5" unicode="&#xb5;" horiz-adv-x="1445" 
d="M1184 430q0 -256 213 -256v-199q-233 0 -332 111q-120 -111 -381 -111q-184 0 -295 60v-486h-205v1590h205v-699q0 -149 74 -207.5t221 -58.5q146 0 219.5 58.5t73.5 207.5q0 116 1 349t1 350h205v-709z" />
    <glyph glyph-name="paragraph" unicode="&#xb6;" horiz-adv-x="1513" 
d="M524 -170v991q-90 2 -171.5 30t-145.5 79t-101.5 130.5t-37.5 176.5q0 197 144 310.5t392 113.5h803v-1831h-203v1634h-477v-1634h-203z" />
    <glyph glyph-name="periodcentered" unicode="&#xb7;" horiz-adv-x="393" 
d="M197 651q-61 0 -103.5 36t-42.5 99q0 59 42.5 96.5t103.5 37.5t103 -37.5t42 -96.5q0 -63 -42.5 -99t-102.5 -36z" />
    <glyph glyph-name="cedilla" unicode="&#xb8;" horiz-adv-x="514" 
d="M213 -451q-88 0 -164 25l-8 94q100 -28 164 -28q151 0 151 84q0 75 -133 75q-67 0 -137 -24l-14 20l129 205h98l-78 -119q12 4 41 4q82 0 142.5 -39.5t60.5 -115.5q-1 -89 -70.5 -135t-181.5 -46z" />
    <glyph glyph-name="uni00B9" unicode="&#xb9;" horiz-adv-x="524" 
d="M260 838v630l-227 -38v135l389 59v-786h-162z" />
    <glyph glyph-name="ordmasculine" unicode="&#xba;" horiz-adv-x="993" 
d="M496 748q-186 0 -300 114t-114 301q0 188 114 303t300 115q187 0 301 -115t114 -303q0 -186 -113.5 -299.5t-301.5 -115.5zM496 920h2q103 0 166 67t63 176q0 110 -63 178t-166 68h-2q-103 0 -166.5 -68t-63.5 -178q0 -109 63.5 -176t166.5 -67z" />
    <glyph glyph-name="guillemotright" unicode="&#xbb;" horiz-adv-x="1208" 
d="M86 57l320 529l-318 524h201l329 -524l-331 -529h-201zM590 57l319 529l-317 524h201l329 -524l-331 -529h-201z" />
    <glyph glyph-name="onequarter" unicode="&#xbc;" horiz-adv-x="2310" 
d="M422 0l891 1661h211l-891 -1661h-211zM315 612v762l-276 -47v164l471 74v-953h-195zM1876 0v233h-582l-2 142l584 573h201l2 -551h196l2 -164h-200l2 -233h-203zM1548 397h328v328z" />
    <glyph glyph-name="onehalf" unicode="&#xbd;" horiz-adv-x="2293" 
d="M422 0l891 1661h211l-891 -1661h-211zM315 612v762l-276 -47v164l471 74v-953h-195zM1346 -16v137q139 79 229 134t174 113.5t130.5 104t73.5 93t27 93.5v5q0 66 -57 102.5t-158 36.5q-72 0 -161.5 -22.5t-159.5 -61.5l-74 143q94 49 206 77t216 28q186 0 289.5 -77
t103.5 -214v-4q0 -138 -144 -273t-384 -252l557 3v-164z" />
    <glyph glyph-name="threequarters" unicode="&#xbe;" horiz-adv-x="2682" 
d="M1686 1661h210l-890 -1661h-211zM938 854q0 -127 -128.5 -196.5t-348.5 -69.5q-108 0 -219 28.5t-181 75.5l84 150q139 -90 314 -90q138 0 207 30t69 103v4q0 75 -66.5 101t-219.5 26h-39v164h32q142 0 200 22t58 92v4q0 54 -59.5 84.5t-165.5 30.5q-161 0 -317 -86
l-78 143q81 48 191.5 77.5t220.5 29.5q195 0 304 -65t109 -181v-2q0 -171 -196 -225q113 -26 171 -88.5t58 -157.5v-4zM2650 233h-201l2 -233h-202v233h-582l-2 142l584 573h200l2 -551h197zM2249 397v328l-328 -328h328z" />
    <glyph glyph-name="questiondown" unicode="&#xbf;" horiz-adv-x="1146" 
d="M672 1235q60 0 102.5 -35.5t42.5 -97.5q0 -59 -42 -96t-103 -37t-103.5 37t-42.5 96q0 62 43 97.5t103 35.5zM750 711l2 -344q-107 -24 -181.5 -52t-134.5 -69.5t-89.5 -100t-29.5 -135.5v-12q0 -268 330 -268q197 0 373 73l-41 -202q-169 -68 -371 -68
q-243 0 -372.5 110t-129.5 322v15q0 189 116 310.5t327 192.5v228h201z" />
    <glyph glyph-name="Agrave" unicode="&#xc0;" horiz-adv-x="1595" 
d="M934 1792h-135l-293 303h244zM1337 0l-180 489h-719l-180 -489h-211l625 1661h243l633 -1661h-211zM788 1444l-286 -772h590l-291 772l-6 16z" />
    <glyph glyph-name="Aacute" unicode="&#xc1;" horiz-adv-x="1595" 
d="M1161 2089l-299 -289h-200l262 289h237zM1337 0l-180 489h-719l-180 -489h-211l625 1661h243l633 -1661h-211zM788 1444l-286 -772h590l-291 772l-6 16z" />
    <glyph glyph-name="Acircumflex" unicode="&#xc2;" horiz-adv-x="1595" 
d="M803 2003l-207 -215h-188l299 303h188l303 -303h-186zM1337 0l-180 489h-719l-180 -489h-211l625 1661h243l633 -1661h-211zM788 1444l-286 -772h590l-291 772l-6 16z" />
    <glyph glyph-name="Atilde" unicode="&#xc3;" horiz-adv-x="1595" 
d="M670 1870q-35 0 -53 -19.5t-29 -66.5h-154q10 118 58 181t149 63q47 0 90.5 -14t72 -30.5t64.5 -30.5t70 -14q33 0 51 20.5t29 65.5h153q-10 -118 -56 -179.5t-148 -61.5q-57 0 -110 21.5t-99 43t-88 21.5zM1337 0l-180 489h-719l-180 -489h-211l625 1661h243l633 -1661
h-211zM788 1444l-286 -772h590l-291 772l-6 16z" />
    <glyph glyph-name="Adieresis" unicode="&#xc4;" horiz-adv-x="1595" 
d="M614 1792q-59 0 -99.5 33t-39.5 92q1 56 41 91.5t98 35.5q57 0 95.5 -35.5t38.5 -91.5q0 -59 -39 -92t-95 -33zM981 1792q-59 0 -99.5 33t-39.5 92q0 56 40.5 91.5t98.5 35.5q56 0 94.5 -35.5t38.5 -91.5q0 -59 -38.5 -92t-94.5 -33zM1337 0l-180 489h-719l-180 -489
h-211l625 1661h243l633 -1661h-211zM788 1444l-286 -772h590l-291 772l-6 16z" />
    <glyph glyph-name="Aring" unicode="&#xc5;" horiz-adv-x="1595" 
d="M803 1788q-96 0 -164 65t-68 160t66.5 158t165.5 63q94 0 160.5 -65.5t66.5 -159.5q0 -96 -65 -158.5t-162 -62.5zM803 2120q-51 0 -84 -31.5t-31 -77.5q-3 -46 31 -77t82 -31q52 0 83 30t31 78q-2 47 -32.5 78t-79.5 31zM1337 0l-180 489h-719l-180 -489h-211l625 1661
h243l633 -1661h-211zM788 1444l-286 -772h590l-291 772l-6 16z" />
    <glyph glyph-name="AE" unicode="&#xc6;" horiz-adv-x="2283" 
d="M1311 190h813v-190h-1016v459h-573l-293 -459h-226l1084 1661h1016v-191h-805v-518h727v-190h-727v-572zM1108 1382l-481 -741h481v741z" />
    <glyph glyph-name="Ccedilla" unicode="&#xc7;" horiz-adv-x="1599" 
d="M1497 135q-226 -152 -502 -160l-61 -94q12 4 41 4q82 0 142.5 -39.5t60.5 -115.5q-1 -89 -70.5 -135t-181.5 -46q-88 0 -164 25l-8 94q100 -28 164 -28q151 0 151 84q0 75 -133 75q-67 0 -137 -24l-15 20l115 182q-173 11 -321 78t-252.5 178t-163.5 264.5t-60 331.5v2
q0 248 110.5 444t307 304.5t443.5 108.5h2q291 0 532 -164l-80 -172q-206 137 -442 137h-2q-131 0 -247.5 -43t-207 -124t-143.5 -208t-53 -283v-2q1 -156 54 -282.5t142.5 -207t206 -124t246.5 -43.5h2q239 0 444 137z" />
    <glyph glyph-name="Egrave" unicode="&#xc8;" horiz-adv-x="1396" 
d="M745 1792l-292 303h243l185 -303h-136zM221 0v1661h1008v-191h-807v-518h729v-190h-729v-572h815v-190h-1016z" />
    <glyph glyph-name="Eacute" unicode="&#xc9;" horiz-adv-x="1396" 
d="M608 1800l262 289h238l-299 -289h-201zM221 0v1661h1008v-191h-807v-518h729v-190h-729v-572h815v-190h-1016z" />
    <glyph glyph-name="Ecircumflex" unicode="&#xca;" horiz-adv-x="1396" 
d="M354 1788l299 303h189l303 -303h-187l-208 215l-207 -215h-189zM221 0v1661h1008v-191h-807v-518h729v-190h-729v-572h815v-190h-1016z" />
    <glyph glyph-name="Edieresis" unicode="&#xcb;" horiz-adv-x="1396" 
d="M561 1792q-59 0 -99.5 33t-39.5 92q1 56 41 91.5t98 35.5q56 0 94.5 -35.5t38.5 -91.5q0 -59 -38.5 -92t-94.5 -33zM928 1792q-59 0 -100 33t-40 92q0 56 41 91.5t99 35.5q56 0 94.5 -35.5t38.5 -91.5q0 -59 -38.5 -92t-94.5 -33zM221 0v1661h1008v-191h-807v-518h729
v-190h-729v-572h815v-190h-1016z" />
    <glyph glyph-name="Igrave" unicode="&#xcc;" horiz-adv-x="641" 
d="M322 1792l-293 303h243l185 -303h-135zM221 0v1661h201v-1661h-201z" />
    <glyph glyph-name="Iacute" unicode="&#xcd;" horiz-adv-x="641" 
d="M184 1800l262 289h238l-299 -289h-201zM221 0v1661h201v-1661h-201z" />
    <glyph glyph-name="Icircumflex" unicode="&#xce;" horiz-adv-x="641" 
d="M-70 1788l299 303h189l303 -303h-186l-209 215l-207 -215h-189zM221 0v1661h201v-1661h-201z" />
    <glyph glyph-name="Idieresis" unicode="&#xcf;" horiz-adv-x="641" 
d="M137 1792q-59 0 -99.5 33t-39.5 92q1 56 41 91.5t98 35.5q56 0 94.5 -35.5t38.5 -91.5q0 -59 -38.5 -92t-94.5 -33zM504 1792q-59 0 -99.5 33t-39.5 92q0 56 40.5 91.5t98.5 35.5q56 0 94.5 -35.5t38.5 -91.5q0 -59 -38.5 -92t-94.5 -33zM221 0v1661h201v-1661h-201z" />
    <glyph glyph-name="Eth" unicode="&#xd0;" horiz-adv-x="1697" 
d="M690 1661q413 0 655 -222.5t242 -600.5v-2q-2 -383 -244 -609.5t-653 -226.5h-469v774h-188v160h188v727h469zM1368 836v2q0 296 -172.5 464t-478.5 168h-295v-536h227v-160h-227v-584h295q304 0 476.5 171.5t174.5 474.5z" />
    <glyph glyph-name="Ntilde" unicode="&#xd1;" horiz-adv-x="1738" 
d="M705 1870q-35 0 -53 -19.5t-29 -66.5h-154q10 118 58 181t149 63q47 0 90.5 -14t72 -30.5t64.5 -30.5t70 -14q33 0 51 20.5t29 65.5h153q-10 -118 -56.5 -179.5t-148.5 -61.5q-57 0 -109.5 21.5t-98.5 43t-88 21.5zM1317 1661h203v-1661h-236l-862 1364v-1364h-201v1661
h234l862 -1364v1364z" />
    <glyph glyph-name="Ograve" unicode="&#xd2;" horiz-adv-x="1841" 
d="M903 1792l-293 303h244l184 -303h-135zM920 -25q-184 0 -339 68t-259 185t-162 273.5t-58 332.5v2q0 141 36.5 270t107 234.5t168.5 183.5t228 121t278 43h2q185 0 340 -66.5t259 -182t162 -271t58 -332.5v-2q-1 -176 -59 -332.5t-162 -273.5t-259 -185t-339 -68h-2z
M920 174h4q133 0 248 51t194.5 139t124.5 210.5t45 261.5v2q0 187 -76 335t-215.5 232t-320.5 84h-4q-274 0 -444.5 -183t-170.5 -468v-2q1 -187 77.5 -337.5t217 -237.5t320.5 -87z" />
    <glyph glyph-name="Oacute" unicode="&#xd3;" horiz-adv-x="1841" 
d="M766 1800l262 289h238l-299 -289h-201zM920 -25q-184 0 -339 68t-259 185t-162 273.5t-58 332.5v2q0 141 36.5 270t107 234.5t168.5 183.5t228 121t278 43h2q185 0 340 -66.5t259 -182t162 -271t58 -332.5v-2q-1 -176 -59 -332.5t-162 -273.5t-259 -185t-339 -68h-2z
M920 174h4q133 0 248 51t194.5 139t124.5 210.5t45 261.5v2q0 187 -76 335t-215.5 232t-320.5 84h-4q-274 0 -444.5 -183t-170.5 -468v-2q1 -187 77.5 -337.5t217 -237.5t320.5 -87z" />
    <glyph glyph-name="Ocircumflex" unicode="&#xd4;" horiz-adv-x="1841" 
d="M512 1788l299 303h188l304 -303h-187l-209 215l-207 -215h-188zM920 -25q-184 0 -339 68t-259 185t-162 273.5t-58 332.5v2q0 141 36.5 270t107 234.5t168.5 183.5t228 121t278 43h2q185 0 340 -66.5t259 -182t162 -271t58 -332.5v-2q-1 -176 -59 -332.5t-162 -273.5
t-259 -185t-339 -68h-2zM920 174h4q133 0 248 51t194.5 139t124.5 210.5t45 261.5v2q0 187 -76 335t-215.5 232t-320.5 84h-4q-274 0 -444.5 -183t-170.5 -468v-2q1 -187 77.5 -337.5t217 -237.5t320.5 -87z" />
    <glyph glyph-name="Otilde" unicode="&#xd5;" horiz-adv-x="1841" 
d="M539 1784q10 118 57.5 181t148.5 63q47 0 90.5 -14t72 -30.5t64.5 -30.5t70 -14q33 0 51 20.5t29 65.5h154q-10 -118 -56.5 -179.5t-148.5 -61.5q-57 0 -110 21.5t-99 43t-88 21.5q-35 0 -53 -19.5t-29 -66.5h-153zM920 -25q-184 0 -339 68t-259 185t-162 273.5
t-58 332.5v2q0 141 36.5 270t107 234.5t168.5 183.5t228 121t278 43h2q185 0 340 -66.5t259 -182t162 -271t58 -332.5v-2q-1 -176 -59 -332.5t-162 -273.5t-259 -185t-339 -68h-2zM920 174h4q133 0 248 51t194.5 139t124.5 210.5t45 261.5v2q0 187 -76 335t-215.5 232
t-320.5 84h-4q-274 0 -444.5 -183t-170.5 -468v-2q1 -187 77.5 -337.5t217 -237.5t320.5 -87z" />
    <glyph glyph-name="Odieresis" unicode="&#xd6;" horiz-adv-x="1841" 
d="M719 1792q-59 0 -99.5 33t-39.5 92q1 56 41 91.5t98 35.5q56 0 94.5 -35.5t38.5 -91.5q0 -59 -38.5 -92t-94.5 -33zM1085 1792q-59 0 -99.5 33t-39.5 92q0 56 40.5 91.5t98.5 35.5q57 0 95.5 -35.5t38.5 -91.5q0 -59 -39 -92t-95 -33zM920 -25q-184 0 -339 68t-259 185
t-162 273.5t-58 332.5v2q0 141 36.5 270t107 234.5t168.5 183.5t228 121t278 43h2q185 0 340 -66.5t259 -182t162 -271t58 -332.5v-2q-1 -176 -59 -332.5t-162 -273.5t-259 -185t-339 -68h-2zM920 174h4q133 0 248 51t194.5 139t124.5 210.5t45 261.5v2q0 187 -76 335
t-215.5 232t-320.5 84h-4q-274 0 -444.5 -183t-170.5 -468v-2q1 -187 77.5 -337.5t217 -237.5t320.5 -87z" />
    <glyph glyph-name="multiply" unicode="&#xd7;" horiz-adv-x="1333" 
d="M248 23l-119 118l420 420l-420 420l119 119l420 -420l417 420l119 -119l-418 -420l418 -420l-119 -118l-417 421z" />
    <glyph glyph-name="Oslash" unicode="&#xd8;" horiz-adv-x="1841" 
d="M1755 1694l-225 -264q102 -116 156.5 -269t54.5 -325v-2q-1 -176 -59 -332.5t-162 -273.5t-259 -185t-339 -68h-2q-286 0 -496 160l-188 -219l-181 72l238 276q-92 114 -141.5 261t-49.5 309v2q0 141 36.5 270t107 234.5t168.5 183.5t228 121t278 43h2q269 0 471 -140
l182 213zM305 836q0 -237 123 -412l832 971q-147 94 -336 94h-4q-274 0 -444.5 -183t-170.5 -468v-2zM1536 838q0 257 -141 434l-840 -981q158 -117 365 -117h4q133 0 248 51t194.5 139t124.5 210.5t45 261.5v2z" />
    <glyph glyph-name="Ugrave" unicode="&#xd9;" horiz-adv-x="1806" 
d="M903 1792l-293 303h244l184 -303h-135zM903 -25q-355 0 -518.5 169t-163.5 501v1016h201v-963q0 -277 113 -400.5t368 -123.5t368 123.5t113 400.5v963h201v-1016q0 -332 -163.5 -501t-518.5 -169z" />
    <glyph glyph-name="Uacute" unicode="&#xda;" horiz-adv-x="1806" 
d="M766 1800l262 289h238l-299 -289h-201zM903 -25q-355 0 -518.5 169t-163.5 501v1016h201v-963q0 -277 113 -400.5t368 -123.5t368 123.5t113 400.5v963h201v-1016q0 -332 -163.5 -501t-518.5 -169z" />
    <glyph glyph-name="Ucircumflex" unicode="&#xdb;" horiz-adv-x="1806" 
d="M512 1788l299 303h188l304 -303h-187l-209 215l-207 -215h-188zM903 -25q-355 0 -518.5 169t-163.5 501v1016h201v-963q0 -277 113 -400.5t368 -123.5t368 123.5t113 400.5v963h201v-1016q0 -332 -163.5 -501t-518.5 -169z" />
    <glyph glyph-name="Udieresis" unicode="&#xdc;" horiz-adv-x="1806" 
d="M719 1792q-59 0 -99.5 33t-39.5 92q1 56 41 91.5t98 35.5q56 0 94.5 -35.5t38.5 -91.5q0 -59 -38.5 -92t-94.5 -33zM1085 1792q-59 0 -99.5 33t-39.5 92q0 56 40.5 91.5t98.5 35.5q57 0 95.5 -35.5t38.5 -91.5q0 -59 -39 -92t-95 -33zM903 -25q-355 0 -518.5 169
t-163.5 501v1016h201v-963q0 -277 113 -400.5t368 -123.5t368 123.5t113 400.5v963h201v-1016q0 -332 -163.5 -501t-518.5 -169z" />
    <glyph glyph-name="Yacute" unicode="&#xdd;" horiz-adv-x="1525" 
d="M1126 2089l-299 -289h-200l262 289h237zM1247 1661h228l-611 -1016v-645h-202v645l-611 1016h228l485 -830z" />
    <glyph glyph-name="Thorn" unicode="&#xde;" horiz-adv-x="1419" 
d="M735 1335q154 0 269 -38.5t182 -108t99 -157t32 -193.5q-2 -249 -152.5 -386t-427.5 -137h-348v-315h-205v1661h205v-326h346zM727 504q202 0 294.5 84t92.5 243q0 166 -99.5 241t-287.5 75h-338v-643h338z" />
    <glyph glyph-name="germandbls" unicode="&#xdf;" horiz-adv-x="1544" 
d="M1094 918q176 -35 276 -146t100 -289v-8q-3 -236 -161 -367t-437 -131q-117 0 -243 21l37 192q94 -16 176 -16q194 0 307 81t113 232v11q0 295 -463 295h-56l-4 196h58q170 0 255 65t85 183v8q0 119 -93.5 182.5t-261.5 63.5q-209 0 -301 -97t-92 -317v-1077h-205v1081
q0 320 155 463.5t456 143.5q251 0 403 -109.5t152 -296.5v-10q-1 -131 -73.5 -229t-182.5 -125z" />
    <glyph glyph-name="agrave" unicode="&#xe0;" horiz-adv-x="1267" 
d="M745 1305h-135l-293 303h244zM596 1178q239 0 369.5 -109t130.5 -326v-686q-98 -31 -227.5 -54t-250.5 -23q-259 0 -398.5 97.5t-139.5 280.5v2q0 182 135 281.5t383 99.5q110 0 297 -24v22q0 258 -346 258q-210 0 -387 -79l43 186q74 34 179 54t212 20zM285 365
q0 -101 82 -150t251 -49q130 0 277 35v331q-145 27 -277 27q-169 0 -251 -48t-82 -146z" />
    <glyph glyph-name="aacute" unicode="&#xe1;" horiz-adv-x="1267" 
d="M973 1602l-299 -289h-201l262 289h238zM596 1178q239 0 369.5 -109t130.5 -326v-686q-98 -31 -227.5 -54t-250.5 -23q-259 0 -398.5 97.5t-139.5 280.5v2q0 182 135 281.5t383 99.5q110 0 297 -24v22q0 258 -346 258q-210 0 -387 -79l43 186q74 34 179 54t212 20z
M285 365q0 -101 82 -150t251 -49q130 0 277 35v331q-145 27 -277 27q-169 0 -251 -48t-82 -146z" />
    <glyph glyph-name="acircumflex" unicode="&#xe2;" horiz-adv-x="1267" 
d="M614 1516l-206 -216h-189l299 304h189l303 -304h-187zM596 1178q239 0 369.5 -109t130.5 -326v-686q-98 -31 -227.5 -54t-250.5 -23q-259 0 -398.5 97.5t-139.5 280.5v2q0 182 135 281.5t383 99.5q110 0 297 -24v22q0 258 -346 258q-210 0 -387 -79l43 186q74 34 179 54
t212 20zM285 365q0 -101 82 -150t251 -49q130 0 277 35v331q-145 27 -277 27q-169 0 -251 -48t-82 -146z" />
    <glyph glyph-name="atilde" unicode="&#xe3;" horiz-adv-x="1267" 
d="M481 1382q-35 0 -53 -19.5t-29 -66.5h-153q10 118 58 181t149 63q59 0 111.5 -22t98.5 -44t87 -22q33 0 50.5 20.5t28.5 65.5h154q-10 -118 -56.5 -180t-148.5 -62q-57 0 -110 21.5t-99 43t-88 21.5zM596 1178q239 0 369.5 -109t130.5 -326v-686q-98 -31 -227.5 -54
t-250.5 -23q-259 0 -398.5 97.5t-139.5 280.5v2q0 182 135 281.5t383 99.5q110 0 297 -24v22q0 258 -346 258q-210 0 -387 -79l43 186q74 34 179 54t212 20zM285 365q0 -101 82 -150t251 -49q130 0 277 35v331q-145 27 -277 27q-169 0 -251 -48t-82 -146z" />
    <glyph glyph-name="adieresis" unicode="&#xe4;" horiz-adv-x="1267" 
d="M426 1305q-59 0 -99.5 33t-39.5 92q1 56 41 91t98 35q57 0 95 -35t38 -91q0 -59 -38.5 -92t-94.5 -33zM793 1305q-59 0 -100 33t-40 92q0 56 40.5 91t99.5 35q57 0 95 -35t38 -91q0 -59 -38.5 -92t-94.5 -33zM596 1178q239 0 369.5 -109t130.5 -326v-686
q-98 -31 -227.5 -54t-250.5 -23q-259 0 -398.5 97.5t-139.5 280.5v2q0 182 135 281.5t383 99.5q110 0 297 -24v22q0 258 -346 258q-210 0 -387 -79l43 186q74 34 179 54t212 20zM285 365q0 -101 82 -150t251 -49q130 0 277 35v331q-145 27 -277 27q-169 0 -251 -48t-82 -146
z" />
    <glyph glyph-name="aring" unicode="&#xe5;" horiz-adv-x="1267" 
d="M614 1300q-96 0 -163.5 65.5t-67.5 160.5t66 158t165 63q94 0 161 -66t67 -159q0 -96 -65.5 -159t-162.5 -63zM614 1632q-51 0 -83.5 -31t-30.5 -77q-3 -46 30.5 -77.5t81.5 -31.5q52 0 83.5 30.5t31.5 78.5q-2 46 -33 77t-80 31zM596 1178q239 0 369.5 -109t130.5 -326
v-686q-98 -31 -227.5 -54t-250.5 -23q-259 0 -398.5 97.5t-139.5 280.5v2q0 182 135 281.5t383 99.5q110 0 297 -24v22q0 258 -346 258q-210 0 -387 -79l43 186q74 34 179 54t212 20zM285 365q0 -101 82 -150t251 -49q130 0 277 35v331q-145 27 -277 27q-169 0 -251 -48
t-82 -146z" />
    <glyph glyph-name="ae" unicode="&#xe6;" horiz-adv-x="2121" 
d="M2034 608q0 -77 -2 -100h-930q22 -165 128.5 -258.5t276.5 -93.5q216 0 369 88l86 -158q-206 -109 -467 -109q-240 0 -399 134v-54q-98 -31 -227.5 -54t-250.5 -23q-259 0 -398.5 97.5t-139.5 280.5v2q0 182 135 281.5t383 99.5q110 0 297 -24v22q0 258 -346 258
q-210 0 -387 -79l43 186q74 34 179 54t212 20q322 0 440 -191q77 92 192 141.5t255 49.5q248 0 399.5 -157t151.5 -413zM1479 997q-157 0 -253.5 -82.5t-119.5 -232.5h729q-9 146 -104 230.5t-252 84.5zM285 365q0 -101 82 -150t251 -49q130 0 277 35v331q-145 27 -277 27
q-169 0 -251 -48t-82 -146z" />
    <glyph glyph-name="ccedilla" unicode="&#xe7;" horiz-adv-x="1128" 
d="M725 -115q82 0 142.5 -39.5t60.5 -115.5q-1 -89 -70.5 -135t-181.5 -46q-88 0 -164 25l-8 94q100 -28 164 -28q151 0 151 84q0 75 -133 75q-67 0 -137 -24l-14 20l114 182q-255 12 -406.5 173t-152.5 425v3q3 269 168 433.5t432 164.5q211 0 383 -82l-80 -172
q-133 65 -301 65q-180 0 -287 -110.5t-110 -298.5v-3q2 -188 110 -298.5t289 -110.5q176 0 301 67l80 -174q-150 -70 -327 -79l-64 -99q12 4 41 4z" />
    <glyph glyph-name="egrave" unicode="&#xe8;" horiz-adv-x="1310" 
d="M807 1315h-135l-293 303h244zM1223 608q0 -77 -2 -100h-930q22 -165 128.5 -258.5t276.5 -93.5q216 0 369 88l86 -158q-206 -109 -467 -109q-270 0 -434 164.5t-164 433.5q0 270 162 436.5t424 166.5q248 0 399.5 -157t151.5 -413zM668 997q-157 0 -253.5 -82.5
t-119.5 -232.5h729q-9 146 -104 230.5t-252 84.5z" />
    <glyph glyph-name="eacute" unicode="&#xe9;" horiz-adv-x="1310" 
d="M1034 1612l-299 -289h-200l262 289h237zM1223 608q0 -77 -2 -100h-930q22 -165 128.5 -258.5t276.5 -93.5q216 0 369 88l86 -158q-206 -109 -467 -109q-270 0 -434 164.5t-164 433.5q0 270 162 436.5t424 166.5q248 0 399.5 -157t151.5 -413zM668 997
q-157 0 -253.5 -82.5t-119.5 -232.5h729q-9 146 -104 230.5t-252 84.5z" />
    <glyph glyph-name="ecircumflex" unicode="&#xea;" horiz-adv-x="1310" 
d="M676 1526l-207 -215h-188l299 303h188l303 -303h-186zM1223 608q0 -77 -2 -100h-930q22 -165 128.5 -258.5t276.5 -93.5q216 0 369 88l86 -158q-206 -109 -467 -109q-270 0 -434 164.5t-164 433.5q0 270 162 436.5t424 166.5q248 0 399.5 -157t151.5 -413zM668 997
q-157 0 -253.5 -82.5t-119.5 -232.5h729q-9 146 -104 230.5t-252 84.5z" />
    <glyph glyph-name="edieresis" unicode="&#xeb;" horiz-adv-x="1310" 
d="M487 1315q-59 0 -99.5 33t-39.5 92q1 56 41 91.5t98 35.5q57 0 95.5 -35.5t38.5 -91.5q0 -59 -39 -92t-95 -33zM854 1315q-59 0 -99.5 33t-39.5 92q0 56 40.5 91.5t98.5 35.5q56 0 94.5 -35.5t38.5 -91.5q0 -59 -38.5 -92t-94.5 -33zM1223 608q0 -77 -2 -100h-930
q22 -165 128.5 -258.5t276.5 -93.5q216 0 369 88l86 -158q-206 -109 -467 -109q-270 0 -434 164.5t-164 433.5q0 270 162 436.5t424 166.5q248 0 399.5 -157t151.5 -413zM668 997q-157 0 -253.5 -82.5t-119.5 -232.5h729q-9 146 -104 230.5t-252 84.5z" />
    <glyph glyph-name="igrave" unicode="&#xec;" horiz-adv-x="571" 
d="M287 1303l-293 303h244l184 -303h-135zM184 0v1139h205v-1139h-205z" />
    <glyph glyph-name="iacute" unicode="&#xed;" horiz-adv-x="571" 
d="M150 1311l262 288h237l-299 -288h-200zM184 0v1139h205v-1139h-205z" />
    <glyph glyph-name="icircumflex" unicode="&#xee;" horiz-adv-x="571" 
d="M-104 1298l299 304h188l303 -304h-186l-209 215l-207 -215h-188zM184 0v1139h205v-1139h-205z" />
    <glyph glyph-name="idieresis" unicode="&#xef;" horiz-adv-x="571" 
d="M102 1303q-59 0 -99.5 32.5t-39.5 91.5q1 56 41 91.5t98 35.5q57 0 95.5 -35.5t38.5 -91.5q0 -59 -39 -91.5t-95 -32.5zM469 1303q-59 0 -99.5 32.5t-39.5 91.5q0 56 40.5 91.5t98.5 35.5q56 0 94.5 -35.5t38.5 -91.5q0 -59 -38.5 -91.5t-94.5 -32.5zM184 0v1139h205
v-1139h-205z" />
    <glyph glyph-name="eth" unicode="&#xf0;" horiz-adv-x="1388" 
d="M1178 950q127 -162 127 -377v-2q0 -168 -80 -304.5t-220.5 -213.5t-312.5 -78h-2q-171 0 -310 77t-219 213.5t-81 305.5v2q0 169 80 308t219.5 218t310.5 79h2q54 0 103 -9l-129 177l-222 -78l-75 129l206 71l-137 189h219l95 -127l186 65l76 -129l-172 -59zM1100 571v2
q0 114 -51 208t-144.5 149.5t-210.5 56.5h-2q-177 0 -291 -119.5t-114 -294.5v-2q0 -172 114 -289.5t291 -117.5h2q177 0 291.5 117.5t114.5 289.5z" />
    <glyph glyph-name="ntilde" unicode="&#xf1;" horiz-adv-x="1368" 
d="M322 1307q10 118 57.5 180.5t148.5 62.5q59 0 111.5 -22t98.5 -44t87 -22q33 0 51 20.5t29 65.5h154q-10 -118 -56.5 -179.5t-148.5 -61.5q-57 0 -110 21.5t-99 43t-88 21.5q-35 0 -53 -19.5t-29 -66.5h-153zM186 0v1114q310 55 504 55q492 0 492 -426q0 -124 1 -371.5
t1 -371.5h-203v705q0 143 -77 205.5t-224 62.5q-129 0 -293 -31v-942h-201z" />
    <glyph glyph-name="ograve" unicode="&#xf2;" horiz-adv-x="1384" 
d="M692 1315l-293 303h244l184 -303h-135zM690 -25q-171 0 -310 77t-219 213.5t-81 305.5v2q0 169 80 308t219.5 218t310.5 79h2q172 -1 312.5 -80t220.5 -217.5t80 -307.5v-2q0 -168 -80 -304.5t-220.5 -213.5t-312.5 -78h-2zM692 164h2q177 0 291.5 117.5t114.5 289.5v2
q0 114 -51 208t-144.5 149.5t-210.5 56.5h-2q-177 0 -291 -119.5t-114 -294.5v-2q0 -172 114 -289.5t291 -117.5z" />
    <glyph glyph-name="oacute" unicode="&#xf3;" horiz-adv-x="1384" 
d="M555 1323l262 289h238l-299 -289h-201zM690 -25q-171 0 -310 77t-219 213.5t-81 305.5v2q0 169 80 308t219.5 218t310.5 79h2q172 -1 312.5 -80t220.5 -217.5t80 -307.5v-2q0 -168 -80 -304.5t-220.5 -213.5t-312.5 -78h-2zM692 164h2q177 0 291.5 117.5t114.5 289.5v2
q0 114 -51 208t-144.5 149.5t-210.5 56.5h-2q-177 0 -291 -119.5t-114 -294.5v-2q0 -172 114 -289.5t291 -117.5z" />
    <glyph glyph-name="ocircumflex" unicode="&#xf4;" horiz-adv-x="1384" 
d="M301 1311l299 303h188l304 -303h-187l-209 215l-207 -215h-188zM690 -25q-171 0 -310 77t-219 213.5t-81 305.5v2q0 169 80 308t219.5 218t310.5 79h2q172 -1 312.5 -80t220.5 -217.5t80 -307.5v-2q0 -168 -80 -304.5t-220.5 -213.5t-312.5 -78h-2zM692 164h2
q177 0 291.5 117.5t114.5 289.5v2q0 114 -51 208t-144.5 149.5t-210.5 56.5h-2q-177 0 -291 -119.5t-114 -294.5v-2q0 -172 114 -289.5t291 -117.5z" />
    <glyph glyph-name="otilde" unicode="&#xf5;" horiz-adv-x="1384" 
d="M328 1307q10 117 58 180t149 63q47 0 90.5 -14t71.5 -30t64 -30t70 -14q33 0 51 20.5t29 65.5h154q-10 -118 -56.5 -179.5t-148.5 -61.5q-57 0 -110 21.5t-99 43t-88 21.5q-35 0 -53 -19.5t-29 -66.5h-153zM690 -25q-171 0 -310 77t-219 213.5t-81 305.5v2q0 169 80 308
t219.5 218t310.5 79h2q172 -1 312.5 -80t220.5 -217.5t80 -307.5v-2q0 -168 -80 -304.5t-220.5 -213.5t-312.5 -78h-2zM692 164h2q177 0 291.5 117.5t114.5 289.5v2q0 114 -51 208t-144.5 149.5t-210.5 56.5h-2q-177 0 -291 -119.5t-114 -294.5v-2q0 -172 114 -289.5
t291 -117.5z" />
    <glyph glyph-name="odieresis" unicode="&#xf6;" horiz-adv-x="1384" 
d="M508 1315q-59 0 -99.5 33t-39.5 92q1 56 41 91.5t98 35.5q56 0 94.5 -35.5t38.5 -91.5q0 -59 -38.5 -92t-94.5 -33zM874 1315q-59 0 -99.5 33t-39.5 92q0 56 40.5 91.5t98.5 35.5q57 0 95.5 -35.5t38.5 -91.5q0 -59 -39 -92t-95 -33zM690 -25q-171 0 -310 77t-219 213.5
t-81 305.5v2q0 169 80 308t219.5 218t310.5 79h2q172 -1 312.5 -80t220.5 -217.5t80 -307.5v-2q0 -168 -80 -304.5t-220.5 -213.5t-312.5 -78h-2zM692 164h2q177 0 291.5 117.5t114.5 289.5v2q0 114 -51 208t-144.5 149.5t-210.5 56.5h-2q-177 0 -291 -119.5t-114 -294.5v-2
q0 -172 114 -289.5t291 -117.5z" />
    <glyph glyph-name="divide" unicode="&#xf7;" horiz-adv-x="1388" 
d="M682 791q-60 0 -101.5 34.5t-41.5 96.5q0 58 41 94.5t102 36.5q60 0 100.5 -36.5t40.5 -94.5q0 -62 -41 -96.5t-100 -34.5zM129 469v188h1102v-188h-1102zM680 72q-60 0 -101.5 34.5t-41.5 96.5q0 58 41 94.5t102 36.5q60 0 100.5 -36.5t40.5 -94.5q0 -62 -41 -96.5
t-100 -34.5z" />
    <glyph glyph-name="oslash" unicode="&#xf8;" horiz-adv-x="1384" 
d="M1389 1090l-187 -175q103 -150 103 -342v-2q0 -168 -80 -304.5t-220.5 -213.5t-312.5 -78h-2q-207 0 -364 113l-168 -158l-164 113l194 182q-108 152 -108 346v2q0 169 80 308t219.5 218t310.5 79h2q216 0 377 -123l156 147zM287 571q0 -110 51 -204l586 553
q-103 67 -230 67h-2q-177 0 -291 -119.5t-114 -294.5v-2zM1100 573q0 112 -47 201l-582 -549q95 -61 221 -61h2q177 0 291.5 117.5t114.5 289.5v2z" />
    <glyph glyph-name="ugrave" unicode="&#xf9;" horiz-adv-x="1368" 
d="M686 1315l-293 303h244l184 -303h-135zM1184 1139v-1108q-319 -56 -506 -56q-247 0 -369.5 105t-122.5 323v736h201q0 -118 1 -348.5t1 -348.5q0 -150 75 -209t226 -59q123 0 291 29v936h203z" />
    <glyph glyph-name="uacute" unicode="&#xfa;" horiz-adv-x="1368" 
d="M549 1323l262 289h238l-299 -289h-201zM1184 1139v-1108q-319 -56 -506 -56q-247 0 -369.5 105t-122.5 323v736h201q0 -118 1 -348.5t1 -348.5q0 -150 75 -209t226 -59q123 0 291 29v936h203z" />
    <glyph glyph-name="ucircumflex" unicode="&#xfb;" horiz-adv-x="1368" 
d="M295 1311l299 303h188l303 -303h-186l-209 215l-207 -215h-188zM1184 1139v-1108q-319 -56 -506 -56q-247 0 -369.5 105t-122.5 323v736h201q0 -118 1 -348.5t1 -348.5q0 -150 75 -209t226 -59q123 0 291 29v936h203z" />
    <glyph glyph-name="udieresis" unicode="&#xfc;" horiz-adv-x="1368" 
d="M502 1315q-59 0 -100 33t-40 92q1 56 41.5 91.5t98.5 35.5q56 0 94.5 -35.5t38.5 -91.5q0 -59 -38.5 -92t-94.5 -33zM868 1315q-59 0 -99.5 33t-39.5 92q0 56 40.5 91.5t98.5 35.5q56 0 94.5 -35.5t38.5 -91.5q0 -59 -38.5 -92t-94.5 -33zM1184 1139v-1108
q-319 -56 -506 -56q-247 0 -369.5 105t-122.5 323v736h201q0 -118 1 -348.5t1 -348.5q0 -150 75 -209t226 -59q123 0 291 29v936h203z" />
    <glyph glyph-name="yacute" unicode="&#xfd;" horiz-adv-x="1341" 
d="M1038 1599l-299 -288h-200l262 288h237zM1169 109q-1 0 -3 -1.5t-3 -1.5v-122q0 -114 -37.5 -202t-105 -142.5t-159 -82.5t-202.5 -28q-225 0 -370 61l-39 187q158 -70 366 -70q174 0 261.5 66.5t87.5 218.5v59q-152 -33 -301 -33q-245 0 -361.5 104.5t-116.5 326.5
q0 118 -1 346t-1 344h203q0 -111 1 -328t1 -328q0 -148 71 -208t214 -60q171 0 291 37v887h198v-1026z" />
    <glyph glyph-name="thorn" unicode="&#xfe;" horiz-adv-x="1345" 
d="M625 1165q292 0 464.5 -157.5t172.5 -438.5v-2q0 -279 -169.5 -440.5t-469.5 -161.5q-103 0 -234 23v-439h-205v2112h205v-516q137 20 236 20zM1065 565v4q0 187 -114 299.5t-320 112.5q-110 0 -242 -35v-770q118 -26 240 -26q200 0 318 111t118 304z" />
    <glyph glyph-name="ydieresis" unicode="&#xff;" horiz-adv-x="1341" 
d="M492 1303q-59 0 -100 33t-40 91q1 56 41.5 91.5t98.5 35.5q56 0 94.5 -35.5t38.5 -91.5q0 -59 -38.5 -91.5t-94.5 -32.5zM858 1303q-59 0 -99.5 32.5t-39.5 91.5q0 56 40.5 91.5t98.5 35.5q56 0 94.5 -35.5t38.5 -91.5q0 -59 -38.5 -91.5t-94.5 -32.5zM1169 109
q-1 0 -3 -1.5t-3 -1.5v-122q0 -114 -37.5 -202t-105 -142.5t-159 -82.5t-202.5 -28q-225 0 -370 61l-39 187q158 -70 366 -70q174 0 261.5 66.5t87.5 218.5v59q-152 -33 -301 -33q-245 0 -361.5 104.5t-116.5 326.5q0 118 -1 346t-1 344h203q0 -111 1 -328t1 -328
q0 -148 71 -208t214 -60q171 0 291 37v887h198v-1026z" />
    <glyph glyph-name="Amacron" unicode="&#x100;" horiz-adv-x="1595" 
d="M1102 1937v-145h-606v145h606zM1337 0l-180 489h-719l-180 -489h-211l625 1661h243l633 -1661h-211zM788 1444l-286 -772h590l-291 772l-6 16z" />
    <glyph glyph-name="amacron" unicode="&#x101;" horiz-adv-x="1267" 
d="M913 1450v-145h-606v145h606zM596 1178q239 0 369.5 -109t130.5 -326v-686q-98 -31 -227.5 -54t-250.5 -23q-259 0 -398.5 97.5t-139.5 280.5v2q0 182 135 281.5t383 99.5q110 0 297 -24v22q0 258 -346 258q-210 0 -387 -79l43 186q74 34 179 54t212 20zM285 365
q0 -101 82 -150t251 -49q130 0 277 35v331q-145 27 -277 27q-169 0 -251 -48t-82 -146z" />
    <glyph glyph-name="Abreve" unicode="&#x102;" horiz-adv-x="1595" 
d="M799 1786q-156 0 -240.5 70.5t-101.5 220.5h135q14 -98 61 -140.5t146 -42.5t146 42.5t61 140.5h135q-17 -150 -101.5 -220.5t-240.5 -70.5zM1337 0l-180 489h-719l-180 -489h-211l625 1661h243l633 -1661h-211zM788 1444l-286 -772h590l-291 772l-6 16z" />
    <glyph glyph-name="abreve" unicode="&#x103;" horiz-adv-x="1267" 
d="M610 1298q-156 0 -240.5 70.5t-101.5 220.5h135q14 -98 61 -140t146 -42t146 42t61 140h135q-17 -150 -101.5 -220.5t-240.5 -70.5zM596 1178q239 0 369.5 -109t130.5 -326v-686q-98 -31 -227.5 -54t-250.5 -23q-259 0 -398.5 97.5t-139.5 280.5v2q0 182 135 281.5
t383 99.5q110 0 297 -24v22q0 258 -346 258q-210 0 -387 -79l43 186q74 34 179 54t212 20zM285 365q0 -101 82 -150t251 -49q130 0 277 35v331q-145 27 -277 27q-169 0 -251 -48t-82 -146z" />
    <glyph glyph-name="Aogonek" unicode="&#x104;" horiz-adv-x="1595" 
d="M1483 -360q36 0 82 8v-94q-54 -13 -121 -13q-81 0 -148 21.5t-112.5 72.5t-46.5 123q-2 76 44 133.5t154 114.5l-178 483h-719l-180 -489h-211l625 1661h243l633 -1661q-129 -55 -182 -105t-53 -114q1 -67 48.5 -104t121.5 -37zM788 1444l-286 -772h590l-291 772l-6 16z
" />
    <glyph glyph-name="aogonek" unicode="&#x105;" horiz-adv-x="1267" 
d="M1022 -260q13 0 27 1.5t28.5 3.5t20.5 3v-96q-57 -10 -119 -10q-63 0 -116 10t-97.5 32t-68.5 60t-23 90q3 85 90 154q-94 -8 -146 -8q-259 0 -398.5 97.5t-139.5 280.5v2q0 182 135 281.5t383 99.5q110 0 297 -24v22q0 258 -346 258q-210 0 -387 -79l43 186
q74 34 179 54t212 20q239 0 369.5 -109t130.5 -326v-686q-129 -56 -186 -100.5t-58 -101.5q-3 -58 45 -86.5t125 -28.5zM285 365q0 -101 82 -150t251 -49q130 0 277 35v331q-145 27 -277 27q-169 0 -251 -48t-82 -146z" />
    <glyph glyph-name="Cacute" unicode="&#x106;" horiz-adv-x="1599" 
d="M823 1800l262 289h238l-299 -289h-201zM963 -25q-185 0 -344.5 63t-273 174.5t-178 271t-65.5 345.5v2q0 248 110.5 444t307 304.5t443.5 108.5h2q291 0 532 -164l-80 -172q-206 137 -442 137h-2q-131 0 -247.5 -43t-207 -124t-143.5 -208t-53 -283v-2q1 -156 54 -282.5
t142.5 -207t206 -124t246.5 -43.5h2q239 0 444 137l80 -174q-238 -160 -532 -160h-2z" />
    <glyph glyph-name="cacute" unicode="&#x107;" horiz-adv-x="1128" 
d="M547 1311l262 288h238l-299 -288h-201zM688 -23q-179 0 -314.5 73t-209 208.5t-74.5 316.5v3q3 269 168 433.5t432 164.5q211 0 383 -82l-80 -172q-133 65 -301 65q-180 0 -287 -110.5t-110 -298.5v-3q2 -188 110 -298.5t289 -110.5q176 0 301 67l80 -174
q-175 -82 -387 -82z" />
    <glyph glyph-name="Ccircumflex" unicode="&#x108;" horiz-adv-x="1599" 
d="M569 1788l299 303h189l303 -303h-186l-209 215l-207 -215h-189zM963 -25q-185 0 -344.5 63t-273 174.5t-178 271t-65.5 345.5v2q0 248 110.5 444t307 304.5t443.5 108.5h2q291 0 532 -164l-80 -172q-206 137 -442 137h-2q-131 0 -247.5 -43t-207 -124t-143.5 -208
t-53 -283v-2q1 -156 54 -282.5t142.5 -207t206 -124t246.5 -43.5h2q239 0 444 137l80 -174q-238 -160 -532 -160h-2z" />
    <glyph glyph-name="ccircumflex" unicode="&#x109;" horiz-adv-x="1128" 
d="M293 1298l299 304h188l303 -304h-186l-209 215l-207 -215h-188zM688 -23q-179 0 -314.5 73t-209 208.5t-74.5 316.5v3q3 269 168 433.5t432 164.5q211 0 383 -82l-80 -172q-133 65 -301 65q-180 0 -287 -110.5t-110 -298.5v-3q2 -188 110 -298.5t289 -110.5q176 0 301 67
l80 -174q-175 -82 -387 -82z" />
    <glyph glyph-name="Cdotaccent" unicode="&#x10a;" horiz-adv-x="1599" 
d="M963 1790q-60 0 -102 34.5t-42 96.5q0 58 41.5 94.5t102.5 36.5q60 0 100.5 -36.5t40.5 -94.5q0 -62 -41 -96.5t-100 -34.5zM963 -25q-185 0 -344.5 63t-273 174.5t-178 271t-65.5 345.5v2q0 248 110.5 444t307 304.5t443.5 108.5h2q291 0 532 -164l-80 -172
q-206 137 -442 137h-2q-131 0 -247.5 -43t-207 -124t-143.5 -208t-53 -283v-2q1 -156 54 -282.5t142.5 -207t206 -124t246.5 -43.5h2q239 0 444 137l80 -174q-238 -160 -532 -160h-2z" />
    <glyph glyph-name="cdotaccent" unicode="&#x10b;" horiz-adv-x="1128" 
d="M686 1300q-60 0 -101.5 35t-41.5 97q0 58 41 94.5t102 36.5q60 0 100.5 -36.5t40.5 -94.5q0 -62 -41 -97t-100 -35zM688 -23q-179 0 -314.5 73t-209 208.5t-74.5 316.5v3q3 269 168 433.5t432 164.5q211 0 383 -82l-80 -172q-133 65 -301 65q-180 0 -287 -110.5
t-110 -298.5v-3q2 -188 110 -298.5t289 -110.5q176 0 301 67l80 -174q-175 -82 -387 -82z" />
    <glyph glyph-name="Ccaron" unicode="&#x10c;" horiz-adv-x="1599" 
d="M860 1792l-309 303h199l213 -217l208 217h199l-305 -303h-205zM963 -25q-185 0 -344.5 63t-273 174.5t-178 271t-65.5 345.5v2q0 248 110.5 444t307 304.5t443.5 108.5h2q291 0 532 -164l-80 -172q-206 137 -442 137h-2q-131 0 -247.5 -43t-207 -124t-143.5 -208
t-53 -283v-2q1 -156 54 -282.5t142.5 -207t206 -124t246.5 -43.5h2q239 0 444 137l80 -174q-238 -160 -532 -160h-2z" />
    <glyph glyph-name="ccaron" unicode="&#x10d;" horiz-adv-x="1128" 
d="M584 1303l-310 303h199l213 -217l209 217h199l-306 -303h-204zM688 -23q-179 0 -314.5 73t-209 208.5t-74.5 316.5v3q3 269 168 433.5t432 164.5q211 0 383 -82l-80 -172q-133 65 -301 65q-180 0 -287 -110.5t-110 -298.5v-3q2 -188 110 -298.5t289 -110.5q176 0 301 67
l80 -174q-175 -82 -387 -82z" />
    <glyph glyph-name="Dcaron" unicode="&#x10e;" horiz-adv-x="1697" 
d="M952 1792h-204l-310 303h199l213 -217l209 217h198zM690 1661q413 0 655 -222.5t242 -600.5v-2q-2 -383 -244 -609.5t-653 -226.5h-469v1661h469zM1368 836v2q0 296 -172.5 464t-478.5 168h-295v-1280h295q304 0 476.5 171.5t174.5 474.5z" />
    <glyph glyph-name="dcaron" unicode="&#x10f;" horiz-adv-x="1497" 
d="M956 1145v516h205v-1624q-230 -72 -438 -72q-300 0 -469.5 161.5t-169.5 440.5v2q0 281 172.5 438.5t464.5 157.5q98 0 235 -20zM1350 1661h168l-132 -369h-120zM717 150q123 0 239 26v772q-129 33 -241 33q-206 0 -320 -112.5t-114 -299.5v-4q0 -193 118 -304t318 -111z
" />
    <glyph glyph-name="Dcroat" unicode="&#x110;" horiz-adv-x="1697" 
d="M690 1661q413 0 655 -222.5t242 -600.5v-2q-2 -383 -244 -609.5t-653 -226.5h-469v774h-188v160h188v727h469zM1368 836v2q0 296 -172.5 464t-478.5 168h-295v-536h227v-160h-227v-584h295q304 0 476.5 171.5t174.5 474.5z" />
    <glyph glyph-name="dcroat" unicode="&#x111;" horiz-adv-x="1345" 
d="M1348 1505v-159h-187v-1309q-230 -72 -438 -72q-300 0 -469.5 161.5t-169.5 440.5v2q0 281 172.5 438.5t464.5 157.5q98 0 235 -20v201h-225v159h225v156h205v-156h187zM717 150q123 0 239 26v772q-129 33 -241 33q-206 0 -320 -112.5t-114 -299.5v-4q0 -193 118 -304
t318 -111z" />
    <glyph glyph-name="Emacron" unicode="&#x112;" horiz-adv-x="1396" 
d="M442 1792v145h607v-145h-607zM221 0v1661h1008v-191h-807v-518h729v-190h-729v-572h815v-190h-1016z" />
    <glyph glyph-name="emacron" unicode="&#x113;" horiz-adv-x="1310" 
d="M975 1460v-145h-606v145h606zM1223 608q0 -77 -2 -100h-930q22 -165 128.5 -258.5t276.5 -93.5q216 0 369 88l86 -158q-206 -109 -467 -109q-270 0 -434 164.5t-164 433.5q0 270 162 436.5t424 166.5q248 0 399.5 -157t151.5 -413zM668 997q-157 0 -253.5 -82.5
t-119.5 -232.5h729q-9 146 -104 230.5t-252 84.5z" />
    <glyph glyph-name="Ebreve" unicode="&#x114;" horiz-adv-x="1396" 
d="M745 1786q-156 0 -240.5 70.5t-101.5 220.5h136q14 -98 60.5 -140.5t145.5 -42.5t146 42.5t61 140.5h135q-17 -150 -101.5 -220.5t-240.5 -70.5zM221 0v1661h1008v-191h-807v-518h729v-190h-729v-572h815v-190h-1016z" />
    <glyph glyph-name="ebreve" unicode="&#x115;" horiz-adv-x="1310" 
d="M672 1309q-156 0 -240.5 70t-101.5 220h135q14 -98 61 -140t146 -42t146 42t61 140h135q-17 -150 -101.5 -220t-240.5 -70zM1223 608q0 -77 -2 -100h-930q22 -165 128.5 -258.5t276.5 -93.5q216 0 369 88l86 -158q-206 -109 -467 -109q-270 0 -434 164.5t-164 433.5
q0 270 162 436.5t424 166.5q248 0 399.5 -157t151.5 -413zM668 997q-157 0 -253.5 -82.5t-119.5 -232.5h729q-9 146 -104 230.5t-252 84.5z" />
    <glyph glyph-name="Edotaccent" unicode="&#x116;" horiz-adv-x="1396" 
d="M748 1790q-60 0 -102 34.5t-42 96.5q0 58 41.5 94.5t102.5 36.5q60 0 100.5 -36.5t40.5 -94.5q0 -62 -41 -96.5t-100 -34.5zM221 0v1661h1008v-191h-807v-518h729v-190h-729v-572h815v-190h-1016z" />
    <glyph glyph-name="edotaccent" unicode="&#x117;" horiz-adv-x="1310" 
d="M674 1313q-60 0 -102 34.5t-42 96.5q0 58 41.5 94.5t102.5 36.5q60 0 100.5 -36.5t40.5 -94.5q0 -62 -41 -96.5t-100 -34.5zM1223 608q0 -77 -2 -100h-930q22 -165 128.5 -258.5t276.5 -93.5q216 0 369 88l86 -158q-206 -109 -467 -109q-270 0 -434 164.5t-164 433.5
q0 270 162 436.5t424 166.5q248 0 399.5 -157t151.5 -413zM668 997q-157 0 -253.5 -82.5t-119.5 -232.5h729q-9 146 -104 230.5t-252 84.5z" />
    <glyph glyph-name="Eogonek" unicode="&#x118;" horiz-adv-x="1396" 
d="M1163 -317q13 0 27 1.5t28.5 3.5t20.5 3v-97q-57 -10 -119 -10q-85 0 -151.5 17.5t-111 62.5t-42.5 113q6 124 203 223h-797v1661h1008v-191h-807v-518h729v-190h-729v-572h815v-190q-128 -56 -185.5 -101t-58.5 -102q-3 -58 45 -86t125 -28z" />
    <glyph glyph-name="eogonek" unicode="&#x119;" horiz-adv-x="1310" 
d="M1223 608q0 -77 -2 -100h-930q22 -165 128.5 -258.5t276.5 -93.5q216 0 369 88l86 -158q-59 -30 -86 -41q-79 -40 -118 -78t-40 -84q-3 -58 45 -86t125 -28q13 0 27 1.5t28.5 3.5t20.5 3v-96q-63 -11 -119 -11q-85 0 -151.5 17.5t-111 62.5t-42.5 113q3 63 53 119
q-82 -5 -98 -5q-270 0 -434 164.5t-164 433.5q0 270 162 436.5t424 166.5q248 0 399.5 -157t151.5 -413zM668 997q-157 0 -253.5 -82.5t-119.5 -232.5h729q-9 146 -104 230.5t-252 84.5z" />
    <glyph glyph-name="Ecaron" unicode="&#x11a;" horiz-adv-x="1396" 
d="M645 1792l-309 303h199l213 -217l208 217h199l-305 -303h-205zM221 0v1661h1008v-191h-807v-518h729v-190h-729v-572h815v-190h-1016z" />
    <glyph glyph-name="ecaron" unicode="&#x11b;" horiz-adv-x="1310" 
d="M776 1315h-205l-309 303h199l213 -217l209 217h198zM1223 608q0 -77 -2 -100h-930q22 -165 128.5 -258.5t276.5 -93.5q216 0 369 88l86 -158q-206 -109 -467 -109q-270 0 -434 164.5t-164 433.5q0 270 162 436.5t424 166.5q248 0 399.5 -157t151.5 -413zM668 997
q-157 0 -253.5 -82.5t-119.5 -232.5h729q-9 146 -104 230.5t-252 84.5z" />
    <glyph glyph-name="Gcircumflex" unicode="&#x11c;" horiz-adv-x="1656" 
d="M942 2003l-207 -215h-188l299 303h188l303 -303h-186zM858 856h686v-715q-115 -78 -270.5 -122t-310.5 -44q-247 0 -443 108.5t-306.5 304t-111.5 443.5v3q0 186 64.5 345t178 270.5t274 175t346.5 63.5q299 0 565 -164l-82 -183q-209 150 -475 150q-130 0 -247 -43.5
t-207.5 -124t-143.5 -207t-53 -282.5v-3q1 -156 54 -282.5t142.5 -207.5t206 -124.5t246.5 -44.5q212 0 383 109v389h-496v186z" />
    <glyph glyph-name="gcircumflex" unicode="&#x11d;" horiz-adv-x="1355" 
d="M760 1513l-207 -215h-188l299 304h188l303 -304h-186zM729 1169q82 0 208 -16.5t241 -42.5v-1126q0 -114 -37.5 -202t-105 -142.5t-159 -82.5t-202.5 -28q-226 0 -371 61l-39 187q158 -70 367 -70q174 0 261 66.5t87 218.5v43q-143 -17 -236 -17h-6q-318 0 -485.5 154.5
t-167.5 429.5v2q0 260 174.5 412.5t468.5 152.5h2zM973 242v696q-131 35 -234 35h-2q-209 0 -326.5 -95.5t-117.5 -281.5v-2q0 -183 118.5 -281t329.5 -98h7q106 0 225 27z" />
    <glyph glyph-name="Gbreve" unicode="&#x11e;" horiz-adv-x="1656" 
d="M938 1786q-156 0 -240.5 70.5t-101.5 220.5h135q14 -98 61 -140.5t146 -42.5t146 42.5t61 140.5h135q-17 -150 -101.5 -220.5t-240.5 -70.5zM858 856h686v-715q-115 -78 -270.5 -122t-310.5 -44q-247 0 -443 108.5t-306.5 304t-111.5 443.5v3q0 186 64.5 345t178 270.5
t274 175t346.5 63.5q299 0 565 -164l-82 -183q-209 150 -475 150q-130 0 -247 -43.5t-207.5 -124t-143.5 -207t-53 -282.5v-3q1 -156 54 -282.5t142.5 -207.5t206 -124.5t246.5 -44.5q212 0 383 109v389h-496v186z" />
    <glyph glyph-name="gbreve" unicode="&#x11f;" horiz-adv-x="1355" 
d="M756 1296q-156 0 -240.5 70.5t-101.5 220.5h135q14 -98 61 -140t146 -42t146 42t61 140h135q-17 -150 -101.5 -220.5t-240.5 -70.5zM729 1169q82 0 208 -16.5t241 -42.5v-1126q0 -114 -37.5 -202t-105 -142.5t-159 -82.5t-202.5 -28q-226 0 -371 61l-39 187
q158 -70 367 -70q174 0 261 66.5t87 218.5v43q-143 -17 -236 -17h-6q-318 0 -485.5 154.5t-167.5 429.5v2q0 260 174.5 412.5t468.5 152.5h2zM973 242v696q-131 35 -234 35h-2q-209 0 -326.5 -95.5t-117.5 -281.5v-2q0 -183 118.5 -281t329.5 -98h7q106 0 225 27z" />
    <glyph glyph-name="Gdotaccent" unicode="&#x120;" horiz-adv-x="1656" 
d="M940 1790q-60 0 -101.5 34.5t-41.5 96.5q0 58 41 94.5t102 36.5q60 0 100.5 -36.5t40.5 -94.5q0 -62 -41 -96.5t-100 -34.5zM858 856h686v-715q-115 -78 -270.5 -122t-310.5 -44q-247 0 -443 108.5t-306.5 304t-111.5 443.5v3q0 186 64.5 345t178 270.5t274 175
t346.5 63.5q299 0 565 -164l-82 -183q-209 150 -475 150q-130 0 -247 -43.5t-207.5 -124t-143.5 -207t-53 -282.5v-3q1 -156 54 -282.5t142.5 -207.5t206 -124.5t246.5 -44.5q212 0 383 109v389h-496v186z" />
    <glyph glyph-name="gdotaccent" unicode="&#x121;" horiz-adv-x="1355" 
d="M758 1300q-60 0 -102 35t-42 97q0 58 41.5 94.5t102.5 36.5q60 0 100.5 -36.5t40.5 -94.5q0 -62 -41 -97t-100 -35zM729 1169q82 0 208 -16.5t241 -42.5v-1126q0 -114 -37.5 -202t-105 -142.5t-159 -82.5t-202.5 -28q-226 0 -371 61l-39 187q158 -70 367 -70
q174 0 261 66.5t87 218.5v43q-143 -17 -236 -17h-6q-318 0 -485.5 154.5t-167.5 429.5v2q0 260 174.5 412.5t468.5 152.5h2zM973 242v696q-131 35 -234 35h-2q-209 0 -326.5 -95.5t-117.5 -281.5v-2q0 -183 118.5 -281t329.5 -98h7q106 0 225 27z" />
    <glyph glyph-name="Gcommaaccent" unicode="&#x122;" horiz-adv-x="1656" 
d="M858 856h686v-715q-115 -78 -270.5 -122t-310.5 -44q-247 0 -443 108.5t-306.5 304t-111.5 443.5v3q0 186 64.5 345t178 270.5t274 175t346.5 63.5q299 0 565 -164l-82 -183q-209 150 -475 150q-130 0 -247 -43.5t-207.5 -124t-143.5 -207t-53 -282.5v-3
q1 -156 54 -282.5t142.5 -207.5t206 -124.5t246.5 -44.5q212 0 383 109v389h-496v186zM743 -451l125 365h189l-174 -365h-140z" />
    <glyph glyph-name="gcommaaccent" unicode="&#x123;" horiz-adv-x="1355" 
d="M729 1169q82 0 208 -16.5t241 -42.5v-1126q0 -114 -37.5 -202t-105 -142.5t-159 -82.5t-202.5 -28q-226 0 -371 61l-39 187q158 -70 367 -70q174 0 261 66.5t87 218.5v43q-143 -17 -236 -17h-6q-318 0 -485.5 154.5t-167.5 429.5v2q0 260 174.5 412.5t468.5 152.5h2z
M973 242v696q-131 35 -234 35h-2q-209 0 -326.5 -95.5t-117.5 -281.5v-2q0 -183 118.5 -281t329.5 -98h7q106 0 225 27zM481 -920l125 365h189l-174 -365h-140z" />
    <glyph glyph-name="Hcircumflex" unicode="&#x124;" horiz-adv-x="1726" 
d="M473 1788l299 303h189l303 -303h-187l-209 215l-206 -215h-189zM221 0v1661h201v-711h883v711h202v-1661h-202v760h-883v-760h-201z" />
    <glyph glyph-name="hcircumflex" unicode="&#x125;" horiz-adv-x="1368" 
d="M500 1821l-209 215l-207 -215h-188l299 303h188l303 -303h-186zM1186 0h-205v705q0 144 -76.5 206t-224.5 62q-127 0 -291 -31v-942h-205v1661h205v-516q201 24 301 24q494 0 494 -426q0 -124 1 -371.5t1 -371.5z" />
    <glyph glyph-name="Hbar" unicode="&#x126;" horiz-adv-x="1726" 
d="M1642 1407v-174h-135v-1233h-202v760h-883v-760h-201v1233h-135v174h135v254h201v-254h883v254h202v-254h135zM1305 950v283h-883v-283h883z" />
    <glyph glyph-name="hbar" unicode="&#x127;" horiz-adv-x="1368" 
d="M1186 0h-205v705q0 144 -76.5 206t-224.5 62q-127 0 -291 -31v-942h-205v1346h-194v159h194v156h205v-156h217v-159h-217v-201q201 24 301 24q494 0 494 -426q0 -124 1 -371.5t1 -371.5z" />
    <glyph glyph-name="Itilde" unicode="&#x128;" horiz-adv-x="641" 
d="M-43 1784q10 118 58 181t149 63q47 0 90.5 -14t72 -30.5t64.5 -30.5t70 -14q33 0 51 20.5t29 65.5h153q-10 -118 -56.5 -179.5t-148.5 -61.5q-57 0 -109.5 21.5t-98.5 43t-88 21.5q-35 0 -53 -19.5t-29 -66.5h-154zM221 0v1661h201v-1661h-201z" />
    <glyph glyph-name="itilde" unicode="&#x129;" horiz-adv-x="571" 
d="M-78 1294q10 118 58 181t149 63q59 0 111.5 -22t98.5 -44t87 -22q33 0 51 20.5t29 65.5h153q-10 -119 -56 -180.5t-148 -61.5q-57 0 -110 21.5t-99 43t-88 21.5q-35 0 -53 -19.5t-29 -66.5h-154zM184 0v1139h205v-1139h-205z" />
    <glyph glyph-name="Imacron" unicode="&#x12a;" horiz-adv-x="641" 
d="M18 1792v145h607v-145h-607zM221 0v1661h201v-1661h-201z" />
    <glyph glyph-name="imacron" unicode="&#x12b;" horiz-adv-x="571" 
d="M-16 1303v145h606v-145h-606zM184 0v1139h205v-1139h-205z" />
    <glyph glyph-name="Ibreve" unicode="&#x12c;" horiz-adv-x="641" 
d="M322 1786q-156 0 -240.5 70.5t-101.5 220.5h135q14 -98 61 -140.5t146 -42.5t145.5 42.5t60.5 140.5h136q-17 -150 -101.5 -220.5t-240.5 -70.5zM221 0v1661h201v-1661h-201z" />
    <glyph glyph-name="ibreve" unicode="&#x12d;" horiz-adv-x="571" 
d="M287 1296q-156 0 -240.5 70.5t-101.5 220.5h135q14 -98 61 -140t146 -42t146 42t61 140h135q-17 -150 -101.5 -220.5t-240.5 -70.5zM184 0v1139h205v-1139h-205z" />
    <glyph glyph-name="Iogonek" unicode="&#x12e;" horiz-adv-x="641" 
d="M360 -360q34 0 74 8v-94q-50 -13 -121 -13q-138 0 -223 50.5t-84 158.5q3 86 53.5 145.5t161.5 114.5v1651h201v-1661q-125 -54 -182 -106t-58 -121q-1 -67 46 -100t132 -33z" />
    <glyph glyph-name="iogonek" unicode="&#x12f;" horiz-adv-x="571" 
d="M289 1563q60 0 100.5 -36.5t40.5 -94.5q0 -62 -41 -97t-100 -35q-60 0 -102 35t-42 97q0 58 41.5 94.5t102.5 36.5zM145 -203q-3 -58 45 -86t125 -28q13 0 27 1.5t28.5 3.5t20.5 3v-97q-57 -10 -119 -10q-85 0 -151.5 17.5t-111 62.5t-42.5 113q3 66 56 122t161 109v1131
h205v-1139q-128 -56 -185.5 -101t-58.5 -102z" />
    <glyph glyph-name="Idotaccent" unicode="&#x130;" horiz-adv-x="641" 
d="M324 1790q-60 0 -102 34.5t-42 96.5q0 58 41.5 94.5t102.5 36.5q60 0 100.5 -36.5t40.5 -94.5q0 -62 -41 -96.5t-100 -34.5zM221 0v1661h201v-1661h-201z" />
    <glyph glyph-name="dotlessi" unicode="&#x131;" horiz-adv-x="571" 
d="M184 0v1139h205v-1139h-205z" />
    <glyph glyph-name="IJ" unicode="&#x132;" horiz-adv-x="1619" 
d="M221 0v1661h201v-1661h-201zM1006 -25q-187 0 -347 78l74 172q122 -51 230 -51q237 0 237 281v1206h201v-1235q0 -222 -101 -336.5t-294 -114.5z" />
    <glyph glyph-name="ij" unicode="&#x133;" horiz-adv-x="1198" 
d="M289 1300q-60 0 -102 35t-42 97q0 58 41.5 94.5t102.5 36.5q60 0 100.5 -36.5t40.5 -94.5q0 -62 -41 -97t-100 -35zM913 1300q-60 0 -101.5 35t-41.5 97q0 58 41 94.5t102 36.5q60 0 101 -37t41 -94q0 -62 -41.5 -97t-100.5 -35zM184 0v1139h205v-1139h-205zM662 -469
q-49 0 -111 12l-31 183q67 -13 103 -13q107 0 146.5 57.5t39.5 211.5v1157h205v-1137q0 -183 -33 -283.5t-107.5 -144t-211.5 -43.5z" />
    <glyph glyph-name="Jcircumflex" unicode="&#x134;" horiz-adv-x="978" 
d="M272 1788l299 303h189l303 -303h-186l-209 215l-207 -215h-189zM365 -25q-187 0 -347 78l74 172q122 -51 230 -51q237 0 237 281v1206h201v-1235q0 -222 -101 -336.5t-294 -114.5z" />
    <glyph glyph-name="jcircumflex" unicode="&#x135;" horiz-adv-x="626" 
d="M-51 1298l299 304h188l303 -304h-186l-209 215l-207 -215h-188zM90 -469q-48 0 -110 12l-31 183q67 -13 102 -13q107 0 147 57.5t40 211.5v1157h204v-1137q0 -183 -33 -283.5t-107.5 -144t-211.5 -43.5z" />
    <glyph glyph-name="Kcommaaccent" unicode="&#x136;" horiz-adv-x="1523" 
d="M645 836l813 -836h-260l-776 797v-797h-201v1661h201v-807l739 807h242zM535 -451l124 365h189l-174 -365h-139z" />
    <glyph glyph-name="kcommaaccent" unicode="&#x137;" horiz-adv-x="1198" 
d="M629 580l530 -580h-262l-508 557v-557h-205v1661h205v-1081l492 559h239zM391 -451l125 365h189l-175 -365h-139z" />
    <glyph glyph-name="Lacute" unicode="&#x139;" horiz-adv-x="1353" 
d="M188 1800l263 289h237l-299 -289h-201zM221 0v1661h201v-1471h770v-190h-971z" />
    <glyph glyph-name="lacute" unicode="&#x13a;" horiz-adv-x="571" 
d="M150 1833l262 289h237l-299 -289h-200zM184 0v1661h205v-1661h-205z" />
    <glyph glyph-name="Lcommaaccent" unicode="&#x13b;" horiz-adv-x="1353" 
d="M221 0v1661h201v-1471h770v-190h-971zM489 -451l125 365h189l-174 -365h-140z" />
    <glyph glyph-name="lcommaaccent" unicode="&#x13c;" horiz-adv-x="571" 
d="M184 0v1661h205v-1661h-205zM57 -451l125 365h189l-174 -365h-140z" />
    <glyph glyph-name="Lcaron" unicode="&#x13d;" horiz-adv-x="1353" 
d="M221 0v1661h201v-1471h770v-190h-971zM563 1208l84 453h168l-131 -453h-121z" />
    <glyph glyph-name="lcaron" unicode="&#x13e;" horiz-adv-x="702" 
d="M184 0v1661h205v-1661h-205zM473 1292l84 369h168l-131 -369h-121z" />
    <glyph glyph-name="Ldot" unicode="&#x13f;" horiz-adv-x="1353" 
d="M221 0v1661h201v-1471h770v-190h-971zM852 786q-60 0 -102.5 36.5t-42.5 99.5q0 59 42 96t103 37t103 -37t42 -96q0 -63 -42.5 -99.5t-102.5 -36.5z" />
    <glyph glyph-name="ldot" unicode="&#x140;" horiz-adv-x="813" 
d="M184 0v1661h205v-1661h-205zM651 743q-60 0 -102.5 36.5t-42.5 99.5q0 59 42 96t103 37t103.5 -37t42.5 -96q0 -63 -43 -99.5t-103 -36.5z" />
    <glyph glyph-name="Lslash" unicode="&#x141;" horiz-adv-x="1353" 
d="M422 190h770v-190h-971v784l-190 -100l-56 119l246 131v727h201v-621l196 105l56 -119l-252 -133v-703z" />
    <glyph glyph-name="lslash" unicode="&#x142;" horiz-adv-x="806" 
d="M752 995l-246 -131v-864h-205v756l-192 -103l-56 119l248 131v758h205v-647l190 100z" />
    <glyph glyph-name="Nacute" unicode="&#x143;" horiz-adv-x="1738" 
d="M1196 2089l-299 -289h-201l262 289h238zM1317 1661h203v-1661h-236l-862 1364v-1364h-201v1661h234l862 -1364v1364z" />
    <glyph glyph-name="nacute" unicode="&#x144;" horiz-adv-x="1368" 
d="M549 1323l262 289h238l-299 -289h-201zM186 0v1114q310 55 504 55q492 0 492 -426q0 -124 1 -371.5t1 -371.5h-203v705q0 143 -77 205.5t-224 62.5q-129 0 -293 -31v-942h-201z" />
    <glyph glyph-name="Ncommaaccent" unicode="&#x145;" horiz-adv-x="1738" 
d="M1317 1661h203v-1661h-236l-862 1364v-1364h-201v1661h234l862 -1364v1364zM641 -451l125 365h188l-174 -365h-139z" />
    <glyph glyph-name="ncommaaccent" unicode="&#x146;" horiz-adv-x="1368" 
d="M186 0v1114q310 55 504 55q492 0 492 -426q0 -124 1 -371.5t1 -371.5h-203v705q0 143 -77 205.5t-224 62.5q-129 0 -293 -31v-942h-201zM457 -451l125 365h188l-174 -365h-139z" />
    <glyph glyph-name="Ncaron" unicode="&#x147;" horiz-adv-x="1738" 
d="M938 1792h-205l-309 303h199l213 -217l208 217h199zM1317 1661h203v-1661h-236l-862 1364v-1364h-201v1661h234l862 -1364v1364z" />
    <glyph glyph-name="ncaron" unicode="&#x148;" horiz-adv-x="1368" 
d="M586 1315l-310 303h199l213 -217l209 217h199l-305 -303h-205zM186 0v1114q310 55 504 55q492 0 492 -426q0 -124 1 -371.5t1 -371.5h-203v705q0 143 -77 205.5t-224 62.5q-129 0 -293 -31v-942h-201z" />
    <glyph glyph-name="Eng" unicode="&#x14a;" horiz-adv-x="1667" 
d="M1247 1661h199v-1624q0 -149 -18 -243t-63 -154.5t-116.5 -84.5t-183.5 -24q-41 0 -78 6l-33 189q62 -15 105 -15q104 0 146 65t42 228v41l-825 1417v-1462h-201v1661h271l755 -1296v1296z" />
    <glyph glyph-name="eng" unicode="&#x14b;" horiz-adv-x="1366" 
d="M1182 -59q1 -226 -89.5 -318t-291.5 -92q-43 0 -78 6l-33 152q51 -15 103 -15q107 0 146.5 60t39.5 223l-2 748q0 142 -76.5 205t-222.5 63q-110 0 -289 -31v-942h-205v1114q310 55 504 55q492 0 492 -426z" />
    <glyph glyph-name="Omacron" unicode="&#x14c;" horiz-adv-x="1841" 
d="M600 1792v145h606v-145h-606zM920 -25q-184 0 -339 68t-259 185t-162 273.5t-58 332.5v2q0 141 36.5 270t107 234.5t168.5 183.5t228 121t278 43h2q185 0 340 -66.5t259 -182t162 -271t58 -332.5v-2q-1 -176 -59 -332.5t-162 -273.5t-259 -185t-339 -68h-2zM920 174h4
q133 0 248 51t194.5 139t124.5 210.5t45 261.5v2q0 187 -76 335t-215.5 232t-320.5 84h-4q-274 0 -444.5 -183t-170.5 -468v-2q1 -187 77.5 -337.5t217 -237.5t320.5 -87z" />
    <glyph glyph-name="omacron" unicode="&#x14d;" horiz-adv-x="1384" 
d="M389 1315v145h606v-145h-606zM690 -25q-171 0 -310 77t-219 213.5t-81 305.5v2q0 169 80 308t219.5 218t310.5 79h2q172 -1 312.5 -80t220.5 -217.5t80 -307.5v-2q0 -168 -80 -304.5t-220.5 -213.5t-312.5 -78h-2zM692 164h2q177 0 291.5 117.5t114.5 289.5v2
q0 114 -51 208t-144.5 149.5t-210.5 56.5h-2q-177 0 -291 -119.5t-114 -294.5v-2q0 -172 114 -289.5t291 -117.5z" />
    <glyph glyph-name="Obreve" unicode="&#x14e;" horiz-adv-x="1841" 
d="M903 1786q-156 0 -240.5 70.5t-101.5 220.5h135q14 -98 61 -140.5t146 -42.5t146 42.5t61 140.5h135q-17 -150 -101.5 -220.5t-240.5 -70.5zM920 -25q-184 0 -339 68t-259 185t-162 273.5t-58 332.5v2q0 141 36.5 270t107 234.5t168.5 183.5t228 121t278 43h2
q185 0 340 -66.5t259 -182t162 -271t58 -332.5v-2q-1 -176 -59 -332.5t-162 -273.5t-259 -185t-339 -68h-2zM920 174h4q133 0 248 51t194.5 139t124.5 210.5t45 261.5v2q0 187 -76 335t-215.5 232t-320.5 84h-4q-274 0 -444.5 -183t-170.5 -468v-2q1 -187 77.5 -337.5
t217 -237.5t320.5 -87z" />
    <glyph glyph-name="obreve" unicode="&#x14f;" horiz-adv-x="1384" 
d="M692 1309q-156 0 -240.5 70t-101.5 220h135q14 -98 61 -140t146 -42t146 42t61 140h135q-17 -150 -101.5 -220t-240.5 -70zM690 -25q-171 0 -310 77t-219 213.5t-81 305.5v2q0 169 80 308t219.5 218t310.5 79h2q172 -1 312.5 -80t220.5 -217.5t80 -307.5v-2
q0 -168 -80 -304.5t-220.5 -213.5t-312.5 -78h-2zM692 164h2q177 0 291.5 117.5t114.5 289.5v2q0 114 -51 208t-144.5 149.5t-210.5 56.5h-2q-177 0 -291 -119.5t-114 -294.5v-2q0 -172 114 -289.5t291 -117.5z" />
    <glyph glyph-name="Ohungarumlaut" unicode="&#x150;" horiz-adv-x="1841" 
d="M635 1804l201 289h237l-237 -289h-201zM1010 1804l200 289h238l-238 -289h-200zM920 -25q-184 0 -339 68t-259 185t-162 273.5t-58 332.5v2q0 141 36.5 270t107 234.5t168.5 183.5t228 121t278 43h2q185 0 340 -66.5t259 -182t162 -271t58 -332.5v-2q-1 -176 -59 -332.5
t-162 -273.5t-259 -185t-339 -68h-2zM920 174h4q133 0 248 51t194.5 139t124.5 210.5t45 261.5v2q0 187 -76 335t-215.5 232t-320.5 84h-4q-274 0 -444.5 -183t-170.5 -468v-2q1 -187 77.5 -337.5t217 -237.5t320.5 -87z" />
    <glyph glyph-name="ohungarumlaut" unicode="&#x151;" horiz-adv-x="1384" 
d="M377 1292l221 289h233l-258 -289h-196zM829 1292l222 289h233l-258 -289h-197zM690 -25q-171 0 -310 77t-219 213.5t-81 305.5v2q0 169 80 308t219.5 218t310.5 79h2q172 -1 312.5 -80t220.5 -217.5t80 -307.5v-2q0 -168 -80 -304.5t-220.5 -213.5t-312.5 -78h-2z
M692 164h2q177 0 291.5 117.5t114.5 289.5v2q0 114 -51 208t-144.5 149.5t-210.5 56.5h-2q-177 0 -291 -119.5t-114 -294.5v-2q0 -172 114 -289.5t291 -117.5z" />
    <glyph glyph-name="OE" unicode="&#x152;" horiz-adv-x="2711" 
d="M1737 190h815v-190h-1016v248q-109 -129 -265.5 -201t-348.5 -72h-2q-184 0 -339 68t-259 185t-162 273.5t-58 332.5v2q0 141 36.5 270t107 234.5t168.5 183.5t228 121t278 43h2q192 0 348.5 -70.5t265.5 -196.5v240h1008v-191h-807v-518h729v-190h-727q-2 -6 -2 -17
v-555zM924 174q133 0 248 51t194.5 139t124.5 210.5t45 261.5v2q0 187 -76 335t-215.5 232t-320.5 84h-4q-274 0 -444.5 -183t-170.5 -468v-2q1 -187 77.5 -337.5t217 -237.5t320.5 -87h4z" />
    <glyph glyph-name="oe" unicode="&#x153;" horiz-adv-x="2328" 
d="M2241 610q0 -66 -3 -100h-929q22 -165 128.5 -258.5t276.5 -93.5q216 0 369 88l86 -158q-204 -108 -467 -108q-166 0 -296.5 65t-205.5 184q-83 -118 -215.5 -185.5t-292.5 -68.5h-2q-171 0 -310 77t-219 213.5t-81 305.5v2q0 169 80 308t219.5 218t310.5 79h2
q158 -1 289.5 -68t214.5 -184q76 121 203.5 187.5t290.5 66.5q248 0 399.5 -157t151.5 -413zM1686 999q-157 0 -253.5 -82.5t-119.5 -232.5h729q-9 146 -104 230.5t-252 84.5zM1100 571v2q0 114 -51 208t-144.5 149.5t-210.5 56.5h-2q-177 0 -291 -119.5t-114 -294.5v-2
q0 -172 114 -289.5t291 -117.5h2q177 0 291.5 117.5t114.5 289.5z" />
    <glyph glyph-name="Racute" unicode="&#x154;" horiz-adv-x="1570" 
d="M1122 2089l-299 -289h-200l262 289h237zM1243 0l-442 688h-379v-688h-201v1661h627q290 0 437 -126t147 -347v-2q0 -189 -109.5 -317.5t-308.5 -166.5l454 -702h-225zM422 1473v-607h446q166 0 262.5 82.5t96.5 229.5v2q0 143 -96 218t-263 75h-446z" />
    <glyph glyph-name="racute" unicode="&#x155;" horiz-adv-x="866" 
d="M307 1280l262 289h238l-299 -289h-201zM164 0v1081q203 60 422 60h198v-193q-36 0 -85.5 1t-90.5 1q-182 0 -243 -30v-920h-201z" />
    <glyph glyph-name="Rcommaaccent" unicode="&#x156;" horiz-adv-x="1570" 
d="M1014 702l454 -702h-225l-442 688h-379v-688h-201v1661h627q290 0 437 -126t147 -347v-2q0 -189 -109.5 -317.5t-308.5 -166.5zM422 1473v-607h446q166 0 262.5 82.5t96.5 229.5v2q0 143 -96 218t-263 75h-446zM575 -451l125 365h189l-174 -365h-140z" />
    <glyph glyph-name="rcommaaccent" unicode="&#x157;" horiz-adv-x="866" 
d="M164 0v1081q203 60 422 60h198v-193q-36 0 -85.5 1t-90.5 1q-182 0 -243 -30v-920h-201zM35 -451l125 365h188l-174 -365h-139z" />
    <glyph glyph-name="Rcaron" unicode="&#x158;" horiz-adv-x="1570" 
d="M864 1792h-205l-309 303h199l213 -217l209 217h198zM1243 0l-442 688h-379v-688h-201v1661h627q290 0 437 -126t147 -347v-2q0 -189 -109.5 -317.5t-308.5 -166.5l454 -702h-225zM422 1473v-607h446q166 0 262.5 82.5t96.5 229.5v2q0 143 -96 218t-263 75h-446z" />
    <glyph glyph-name="rcaron" unicode="&#x159;" horiz-adv-x="866" 
d="M344 1272l-309 303h198l213 -217l209 217h199l-305 -303h-205zM164 0v1081q203 60 422 60h198v-193q-36 0 -85.5 1t-90.5 1q-182 0 -243 -30v-920h-201z" />
    <glyph glyph-name="Sacute" unicode="&#x15a;" horiz-adv-x="1462" 
d="M594 1800l262 289h238l-299 -289h-201zM707 -25q-155 0 -300 40.5t-253 115.5l79 170q96 -68 218 -105.5t249 -37.5q191 0 298.5 78.5t107.5 209.5v5q0 107 -80 173t-281 128q-26 8 -75.5 22.5t-63.5 18.5q-218 66 -315.5 175t-97.5 289v5q0 193 146 309.5t398 116.5
q148 0 288.5 -38t242.5 -106l-78 -170q-92 63 -210.5 97t-240.5 34q-167 0 -255.5 -66t-88.5 -173v-4q0 -61 17.5 -105.5t56.5 -78t87.5 -56.5t125.5 -49l143 -41q259 -74 373.5 -187.5t114.5 -289.5v-4q-2 -220 -164.5 -348t-441.5 -128z" />
    <glyph glyph-name="sacute" unicode="&#x15b;" horiz-adv-x="1052" 
d="M391 1323l262 289h238l-299 -289h-201zM502 -25q-252 0 -461 95l55 163q190 -81 387 -81q147 0 226 34.5t79 118.5q0 76 -47 110t-211 77q-17 4 -50.5 13t-51.5 13q-190 50 -276 132t-86 216q0 145 118 227.5t322 82.5q259 0 440 -93l-57 -163q-172 79 -359 79
q-124 0 -187.5 -31.5t-63.5 -101.5q0 -25 5 -44t20 -34.5t31.5 -26.5t49.5 -22.5t62.5 -20t82.5 -22.5q15 -4 43 -11t43 -11q201 -54 288 -138.5t87 -220.5q0 -167 -123.5 -253.5t-365.5 -86.5z" />
    <glyph glyph-name="Scircumflex" unicode="&#x15c;" horiz-adv-x="1462" 
d="M340 1788l299 303h188l303 -303h-186l-209 215l-207 -215h-188zM707 -25q-155 0 -300 40.5t-253 115.5l79 170q96 -68 218 -105.5t249 -37.5q191 0 298.5 78.5t107.5 209.5v5q0 107 -80 173t-281 128q-26 8 -75.5 22.5t-63.5 18.5q-218 66 -315.5 175t-97.5 289v5
q0 193 146 309.5t398 116.5q148 0 288.5 -38t242.5 -106l-78 -170q-92 63 -210.5 97t-240.5 34q-167 0 -255.5 -66t-88.5 -173v-4q0 -61 17.5 -105.5t56.5 -78t87.5 -56.5t125.5 -49l143 -41q259 -74 373.5 -187.5t114.5 -289.5v-4q-2 -220 -164.5 -348t-441.5 -128z" />
    <glyph glyph-name="scircumflex" unicode="&#x15d;" horiz-adv-x="1052" 
d="M137 1311l299 303h189l303 -303h-187l-209 215l-206 -215h-189zM502 -25q-252 0 -461 95l55 163q190 -81 387 -81q147 0 226 34.5t79 118.5q0 76 -47 110t-211 77q-17 4 -50.5 13t-51.5 13q-190 50 -276 132t-86 216q0 145 118 227.5t322 82.5q259 0 440 -93l-57 -163
q-172 79 -359 79q-124 0 -187.5 -31.5t-63.5 -101.5q0 -25 5 -44t20 -34.5t31.5 -26.5t49.5 -22.5t62.5 -20t82.5 -22.5q15 -4 43 -11t43 -11q201 -54 288 -138.5t87 -220.5q0 -167 -123.5 -253.5t-365.5 -86.5z" />
    <glyph glyph-name="Scedilla" unicode="&#x15e;" horiz-adv-x="1462" 
d="M825 932q259 -74 373.5 -187.5t114.5 -289.5v-4q-2 -207 -146.5 -334t-396.5 -140l-63 -96q12 4 41 4q82 0 142 -39.5t60 -115.5q-1 -89 -70.5 -135t-181.5 -46q-87 0 -163 25l-9 94q100 -28 164 -28q152 0 152 84q0 75 -133 75q-68 0 -138 -24l-14 20l115 180
q-145 5 -280.5 45.5t-237.5 110.5l79 170q96 -68 218 -105.5t249 -37.5q191 0 298.5 78.5t107.5 209.5v5q0 107 -80 173t-281 128q-26 8 -75.5 22.5t-63.5 18.5q-218 66 -315.5 175t-97.5 289v5q0 193 146 309.5t398 116.5q148 0 288.5 -38t242.5 -106l-78 -170
q-92 63 -210.5 97t-240.5 34q-167 0 -255.5 -66t-88.5 -173v-4q0 -61 17.5 -105.5t56.5 -78t87.5 -56.5t125.5 -49z" />
    <glyph glyph-name="scedilla" unicode="&#x15f;" horiz-adv-x="1052" 
d="M991 315q0 -157 -109.5 -243t-322.5 -95l-63 -96q12 4 41 4q82 0 142 -39.5t60 -115.5q-1 -89 -70.5 -135t-181.5 -46q-87 0 -163 25l-9 94q100 -28 164 -28q152 0 152 84q0 75 -133 75q-68 0 -138 -24l-14 20l115 180q-219 6 -420 95l55 163q190 -81 387 -81
q147 0 226 34.5t79 118.5q0 76 -47 110t-211 77q-17 4 -50.5 13t-51.5 13q-190 50 -276 132t-86 216q0 145 118 227.5t322 82.5q259 0 440 -93l-57 -163q-172 79 -359 79q-124 0 -187.5 -31.5t-63.5 -101.5q0 -25 5 -44t20 -34.5t31.5 -26.5t49.5 -22.5t62.5 -20t82.5 -22.5
q15 -4 43 -11t43 -11q201 -54 288 -138.5t87 -220.5z" />
    <glyph glyph-name="Scaron" unicode="&#x160;" horiz-adv-x="1462" 
d="M631 1792l-309 303h198l213 -217l209 217h199l-305 -303h-205zM707 -25q-155 0 -300 40.5t-253 115.5l79 170q96 -68 218 -105.5t249 -37.5q191 0 298.5 78.5t107.5 209.5v5q0 107 -80 173t-281 128q-26 8 -75.5 22.5t-63.5 18.5q-218 66 -315.5 175t-97.5 289v5
q0 193 146 309.5t398 116.5q148 0 288.5 -38t242.5 -106l-78 -170q-92 63 -210.5 97t-240.5 34q-167 0 -255.5 -66t-88.5 -173v-4q0 -61 17.5 -105.5t56.5 -78t87.5 -56.5t125.5 -49l143 -41q259 -74 373.5 -187.5t114.5 -289.5v-4q-2 -220 -164.5 -348t-441.5 -128z" />
    <glyph glyph-name="scaron" unicode="&#x161;" horiz-adv-x="1052" 
d="M428 1315l-309 303h198l213 -217l209 217h199l-305 -303h-205zM502 -25q-252 0 -461 95l55 163q190 -81 387 -81q147 0 226 34.5t79 118.5q0 76 -47 110t-211 77q-17 4 -50.5 13t-51.5 13q-190 50 -276 132t-86 216q0 145 118 227.5t322 82.5q259 0 440 -93l-57 -163
q-172 79 -359 79q-124 0 -187.5 -31.5t-63.5 -101.5q0 -25 5 -44t20 -34.5t31.5 -26.5t49.5 -22.5t62.5 -20t82.5 -22.5q15 -4 43 -11t43 -11q201 -54 288 -138.5t87 -220.5q0 -167 -123.5 -253.5t-365.5 -86.5z" />
    <glyph glyph-name="uni0162" unicode="&#x162;" horiz-adv-x="1417" 
d="M811 0h-49l-78 -119q12 4 41 4q82 0 142.5 -39.5t60.5 -115.5q-1 -89 -70.5 -135t-181.5 -46q-88 0 -164 25l-8 94q100 -28 164 -28q151 0 151 84q0 75 -133 75q-67 0 -137 -24l-14 20l129 205h-56v1470h-551v191h1303v-191h-549v-1470z" />
    <glyph glyph-name="uni0163" unicode="&#x163;" horiz-adv-x="999" 
d="M926 0h-219l-68 -113q27 9 51 9q84 0 144.5 -39.5t60.5 -116.5q0 -87 -69.5 -132.5t-180.5 -45.5q-93 0 -166 24l-8 84q82 -28 164 -28q74 0 119 24t45 72q1 44 -38 67t-106 23q-72 0 -141 -25l-8 13l115 184q-192 9 -270.5 95t-78.5 263v596h-217v185h217v415h201v-415
h449v-185h-449v-534q0 -131 62.5 -182.5t197.5 -51.5h193v-186z" />
    <glyph glyph-name="Tcaron" unicode="&#x164;" horiz-adv-x="1417" 
d="M608 1792l-309 303h199l213 -217l209 217h198l-305 -303h-205zM608 0v1470h-551v191h1303v-191h-549v-1470h-203z" />
    <glyph glyph-name="tcaron" unicode="&#x165;" horiz-adv-x="999" 
d="M629 1292l84 369h168l-131 -369h-121zM666 0q-218 0 -306 86t-88 272v596h-217v185h217v415h201v-415h449v-185h-449v-534q0 -131 62.5 -182.5t197.5 -51.5h193v-186h-260z" />
    <glyph glyph-name="Tbar" unicode="&#x166;" horiz-adv-x="1417" 
d="M1360 1470h-549v-372h205v-160h-205v-938h-203v938h-209v160h209v372h-551v191h1303v-191z" />
    <glyph glyph-name="tbar" unicode="&#x167;" horiz-adv-x="999" 
d="M733 186h193v-186h-260q-218 0 -306 86t-88 272v260h-221v183h221v153h-217v185h217v415h201v-415h449v-185h-449v-153h445v-183h-445v-198q0 -131 62.5 -182.5t197.5 -51.5z" />
    <glyph glyph-name="Utilde" unicode="&#x168;" horiz-adv-x="1806" 
d="M539 1784q10 118 57.5 181t148.5 63q47 0 90.5 -14t72 -30.5t64.5 -30.5t70 -14q33 0 51 20.5t29 65.5h154q-10 -118 -56.5 -179.5t-148.5 -61.5q-57 0 -110 21.5t-99 43t-88 21.5q-35 0 -53 -19.5t-29 -66.5h-153zM903 -25q-355 0 -518.5 169t-163.5 501v1016h201v-963
q0 -277 113 -400.5t368 -123.5t368 123.5t113 400.5v963h201v-1016q0 -332 -163.5 -501t-518.5 -169z" />
    <glyph glyph-name="utilde" unicode="&#x169;" horiz-adv-x="1368" 
d="M322 1307q10 118 57.5 180.5t148.5 62.5q59 0 111.5 -22t98.5 -44t87 -22q33 0 51 20.5t29 65.5h154q-10 -118 -56.5 -179.5t-148.5 -61.5q-57 0 -110 21.5t-99 43t-88 21.5q-35 0 -53 -19.5t-29 -66.5h-153zM1184 1139v-1108q-319 -56 -506 -56q-247 0 -369.5 105
t-122.5 323v736h201q0 -118 1 -348.5t1 -348.5q0 -150 75 -209t226 -59q123 0 291 29v936h203z" />
    <glyph glyph-name="Umacron" unicode="&#x16a;" horiz-adv-x="1806" 
d="M600 1792v145h606v-145h-606zM903 -25q-355 0 -518.5 169t-163.5 501v1016h201v-963q0 -277 113 -400.5t368 -123.5t368 123.5t113 400.5v963h201v-1016q0 -332 -163.5 -501t-518.5 -169z" />
    <glyph glyph-name="umacron" unicode="&#x16b;" horiz-adv-x="1368" 
d="M383 1315v145h606v-145h-606zM1184 1139v-1108q-319 -56 -506 -56q-247 0 -369.5 105t-122.5 323v736h201q0 -118 1 -348.5t1 -348.5q0 -150 75 -209t226 -59q123 0 291 29v936h203z" />
    <glyph glyph-name="Ubreve" unicode="&#x16c;" horiz-adv-x="1806" 
d="M903 1786q-156 0 -240.5 70.5t-101.5 220.5h135q14 -98 61 -140.5t146 -42.5t146 42.5t61 140.5h135q-17 -150 -101.5 -220.5t-240.5 -70.5zM903 -25q-355 0 -518.5 169t-163.5 501v1016h201v-963q0 -277 113 -400.5t368 -123.5t368 123.5t113 400.5v963h201v-1016
q0 -332 -163.5 -501t-518.5 -169z" />
    <glyph glyph-name="ubreve" unicode="&#x16d;" horiz-adv-x="1368" 
d="M686 1309q-156 0 -240.5 70t-101.5 220h135q14 -98 61 -140t146 -42t146 42t61 140h135q-17 -150 -101.5 -220t-240.5 -70zM1184 1139v-1108q-319 -56 -506 -56q-247 0 -369.5 105t-122.5 323v736h201q0 -118 1 -348.5t1 -348.5q0 -150 75 -209t226 -59q123 0 291 29v936
h203z" />
    <glyph glyph-name="Uring" unicode="&#x16e;" horiz-adv-x="1806" 
d="M907 1788q-96 0 -163.5 65t-67.5 160t66 158t165 63q94 0 161 -66t67 -159q0 -96 -65.5 -158.5t-162.5 -62.5zM905 1903q52 0 83.5 30t31.5 78q-2 47 -33 78t-80 31q-51 0 -83.5 -31.5t-30.5 -77.5q-3 -46 30.5 -77t81.5 -31zM903 -25q-355 0 -518.5 169t-163.5 501v1016
h201v-963q0 -277 113 -400.5t368 -123.5t368 123.5t113 400.5v963h201v-1016q0 -332 -163.5 -501t-518.5 -169z" />
    <glyph glyph-name="uring" unicode="&#x16f;" horiz-adv-x="1368" 
d="M690 1311q-96 0 -163.5 65t-67.5 160t66 158t165 63q94 0 161 -66t67 -159q0 -96 -65.5 -158.5t-162.5 -62.5zM688 1425q52 0 83.5 30.5t31.5 78.5q-2 46 -33 77t-80 31q-51 0 -84 -31t-31 -77q-3 -46 31 -77.5t82 -31.5zM1184 1139v-1108q-319 -56 -506 -56
q-247 0 -369.5 105t-122.5 323v736h201q0 -118 1 -348.5t1 -348.5q0 -150 75 -209t226 -59q123 0 291 29v936h203z" />
    <glyph glyph-name="Uhungarumlaut" unicode="&#x170;" horiz-adv-x="1806" 
d="M635 1804l201 289h237l-237 -289h-201zM1010 1804l200 289h238l-238 -289h-200zM903 -25q-355 0 -518.5 169t-163.5 501v1016h201v-963q0 -277 113 -400.5t368 -123.5t368 123.5t113 400.5v963h201v-1016q0 -332 -163.5 -501t-518.5 -169z" />
    <glyph glyph-name="uhungarumlaut" unicode="&#x171;" horiz-adv-x="1368" 
d="M371 1292l221 289h233l-258 -289h-196zM823 1292l221 289h234l-258 -289h-197zM1184 1139v-1108q-319 -56 -506 -56q-247 0 -369.5 105t-122.5 323v736h201q0 -118 1 -348.5t1 -348.5q0 -150 75 -209t226 -59q123 0 291 29v936h203z" />
    <glyph glyph-name="Uogonek" unicode="&#x172;" horiz-adv-x="1806" 
d="M1384 1661h201v-1016q0 -292 -125 -457.5t-395 -201.5q-117 -52 -170.5 -96t-54.5 -99q-3 -58 45 -86.5t125 -28.5q17 0 44.5 4.5t30.5 4.5v-97q-58 -10 -118 -10q-85 0 -151.5 17.5t-111 62.5t-42.5 113q6 115 169 206q-317 17 -463.5 185.5t-146.5 482.5v1016h201v-963
q0 -277 113 -400.5t368 -123.5t368 123.5t113 400.5v963z" />
    <glyph glyph-name="uogonek" unicode="&#x173;" horiz-adv-x="1368" 
d="M711 -25q-110 -50 -161 -92.5t-52 -95.5q-3 -58 45 -86.5t125 -28.5q17 0 44.5 4.5t30.5 4.5v-97q-58 -10 -118 -10q-86 0 -152.5 17.5t-111 62.5t-42.5 113q3 64 52 117.5t147 103.5q-332 62 -332 415v736h201q0 -118 1 -348.5t1 -348.5q0 -150 75 -209t226 -59
q123 0 291 29v936h203v-1108q-274 -49 -473 -56z" />
    <glyph glyph-name="Wcircumflex" unicode="&#x174;" horiz-adv-x="2181" 
d="M1096 2003l-207 -215h-189l299 303h189l303 -303h-186zM1888 1661h209l-409 -1661h-277l-319 1434l-322 -1434h-276l-410 1661h211l344 -1446l319 1446h265l319 -1446z" />
    <glyph glyph-name="wcircumflex" unicode="&#x175;" horiz-adv-x="1728" 
d="M868 1524l-206 -215h-189l299 303h189l303 -303h-187zM1462 1141h213l-286 -1141h-267l-258 940l-260 -940h-260l-291 1141h213l223 -920l252 920h248l252 -918z" />
    <glyph glyph-name="Ycircumflex" unicode="&#x176;" horiz-adv-x="1525" 
d="M768 2003l-207 -215h-188l299 303h188l303 -303h-186zM1247 1661h228l-611 -1016v-645h-202v645l-611 1016h228l485 -830z" />
    <glyph glyph-name="ycircumflex" unicode="&#x177;" horiz-adv-x="1341" 
d="M680 1513l-207 -215h-188l299 304h188l303 -304h-186zM1169 109q-1 0 -3 -1.5t-3 -1.5v-122q0 -114 -37.5 -202t-105 -142.5t-159 -82.5t-202.5 -28q-225 0 -370 61l-39 187q158 -70 366 -70q174 0 261.5 66.5t87.5 218.5v59q-152 -33 -301 -33q-245 0 -361.5 104.5
t-116.5 326.5q0 118 -1 346t-1 344h203q0 -111 1 -328t1 -328q0 -148 71 -208t214 -60q171 0 291 37v887h198v-1026z" />
    <glyph glyph-name="Ydieresis" unicode="&#x178;" horiz-adv-x="1525" 
d="M580 1792q-59 0 -100 33t-40 92q1 56 41.5 91.5t98.5 35.5q56 0 94.5 -35.5t38.5 -91.5q0 -59 -38.5 -92t-94.5 -33zM946 1792q-59 0 -99.5 33t-39.5 92q0 56 40.5 91.5t98.5 35.5q56 0 94.5 -35.5t38.5 -91.5q0 -59 -38.5 -92t-94.5 -33zM1247 1661h228l-611 -1016v-645
h-202v645l-611 1016h228l485 -830z" />
    <glyph glyph-name="Zacute" unicode="&#x179;" horiz-adv-x="1415" 
d="M1100 2089l-299 -289h-201l262 289h238zM1323 1661v-186l-987 -1285h983v-190h-1235v188l989 1285h-923v190z" />
    <glyph glyph-name="zacute" unicode="&#x17a;" horiz-adv-x="1200" 
d="M977 1612l-299 -289h-201l262 289h238zM371 186h710v-186h-962v176l696 778h-659v185h911v-170z" />
    <glyph glyph-name="Zdotaccent" unicode="&#x17b;" horiz-adv-x="1415" 
d="M739 1790q-60 0 -101.5 34.5t-41.5 96.5q0 58 41 94.5t102 36.5q60 0 101 -37t41 -94q0 -62 -41.5 -96.5t-100.5 -34.5zM1323 1661v-186l-987 -1285h983v-190h-1235v188l989 1285h-923v190z" />
    <glyph glyph-name="zdotaccent" unicode="&#x17c;" horiz-adv-x="1200" 
d="M616 1313q-60 0 -101.5 34.5t-41.5 96.5q0 58 41 94.5t102 36.5q60 0 101 -37t41 -94q0 -62 -41.5 -96.5t-100.5 -34.5zM371 186h710v-186h-962v176l696 778h-659v185h911v-170z" />
    <glyph glyph-name="Zcaron" unicode="&#x17d;" horiz-adv-x="1415" 
d="M842 1792h-205l-309 303h198l213 -217l209 217h199zM1323 1661v-186l-987 -1285h983v-190h-1235v188l989 1285h-923v190z" />
    <glyph glyph-name="zcaron" unicode="&#x17e;" horiz-adv-x="1200" 
d="M719 1315h-205l-309 303h198l213 -217l209 217h199zM371 186h710v-186h-962v176l696 778h-659v185h911v-170z" />
    <glyph glyph-name="uni018F" unicode="&#x18f;" horiz-adv-x="1734" 
d="M840 1692q364 0 568 -225.5t204 -628.5v-2q-2 -406 -193 -633.5t-532 -227.5h-2q-358 0 -560 215t-202 598v119h1282q-17 279 -168 433.5t-408 154.5h-2q-135 0 -269.5 -36t-246.5 -103l-80 172q128 79 286.5 121.5t320.5 42.5h2zM885 172q223 0 355.5 139.5t160.5 397.5
h-1071q23 -256 167.5 -396.5t385.5 -140.5h2z" />
    <glyph glyph-name="florin" unicode="&#x192;" horiz-adv-x="796" 
d="M731 1176h94v-189h-69q-133 0 -192.5 -60.5t-59.5 -195.5v-94h221v-160h-221v-571q0 -191 -102 -278t-332 -87h-95v191h70q134 0 194 60.5t60 195.5v489h-190v160h190v168q0 195 100.5 283t331.5 88z" />
    <glyph glyph-name="uni01CD" unicode="&#x1cd;" horiz-adv-x="1595" 
d="M903 1792h-205l-309 303h199l213 -217l209 217h198zM1337 0l-180 489h-719l-180 -489h-211l625 1661h243l633 -1661h-211zM788 1444l-286 -772h590l-291 772l-6 16z" />
    <glyph glyph-name="uni01CE" unicode="&#x1ce;" horiz-adv-x="1267" 
d="M715 1305h-205l-309 303h198l213 -217l209 217h199zM596 1178q239 0 369.5 -109t130.5 -326v-686q-98 -31 -227.5 -54t-250.5 -23q-259 0 -398.5 97.5t-139.5 280.5v2q0 182 135 281.5t383 99.5q110 0 297 -24v22q0 258 -346 258q-210 0 -387 -79l43 186q74 34 179 54
t212 20zM285 365q0 -101 82 -150t251 -49q130 0 277 35v331q-145 27 -277 27q-169 0 -251 -48t-82 -146z" />
    <glyph glyph-name="uni01CF" unicode="&#x1cf;" horiz-adv-x="641" 
d="M221 1792l-309 303h199l213 -217l208 217h199l-305 -303h-205zM221 0v1661h201v-1661h-201z" />
    <glyph glyph-name="uni01D0" unicode="&#x1d0;" horiz-adv-x="571" 
d="M186 1303l-309 303h199l213 -217l209 217h198l-305 -303h-205zM184 0v1139h205v-1139h-205z" />
    <glyph glyph-name="uni01D1" unicode="&#x1d1;" horiz-adv-x="1841" 
d="M803 1792l-309 303h198l213 -217l209 217h199l-305 -303h-205zM920 -25q-184 0 -339 68t-259 185t-162 273.5t-58 332.5v2q0 141 36.5 270t107 234.5t168.5 183.5t228 121t278 43h2q185 0 340 -66.5t259 -182t162 -271t58 -332.5v-2q-1 -176 -59 -332.5t-162 -273.5
t-259 -185t-339 -68h-2zM920 174h4q133 0 248 51t194.5 139t124.5 210.5t45 261.5v2q0 187 -76 335t-215.5 232t-320.5 84h-4q-274 0 -444.5 -183t-170.5 -468v-2q1 -187 77.5 -337.5t217 -237.5t320.5 -87z" />
    <glyph glyph-name="uni01D2" unicode="&#x1d2;" horiz-adv-x="1384" 
d="M592 1315l-309 303h198l213 -217l209 217h199l-305 -303h-205zM690 -25q-171 0 -310 77t-219 213.5t-81 305.5v2q0 169 80 308t219.5 218t310.5 79h2q172 -1 312.5 -80t220.5 -217.5t80 -307.5v-2q0 -168 -80 -304.5t-220.5 -213.5t-312.5 -78h-2zM692 164h2
q177 0 291.5 117.5t114.5 289.5v2q0 114 -51 208t-144.5 149.5t-210.5 56.5h-2q-177 0 -291 -119.5t-114 -294.5v-2q0 -172 114 -289.5t291 -117.5z" />
    <glyph glyph-name="uni01D3" unicode="&#x1d3;" horiz-adv-x="1806" 
d="M803 1792l-309 303h198l213 -217l209 217h199l-305 -303h-205zM903 -25q-355 0 -518.5 169t-163.5 501v1016h201v-963q0 -277 113 -400.5t368 -123.5t368 123.5t113 400.5v963h201v-1016q0 -332 -163.5 -501t-518.5 -169z" />
    <glyph glyph-name="uni01D4" unicode="&#x1d4;" horiz-adv-x="1368" 
d="M586 1315l-310 303h199l213 -217l209 217h199l-305 -303h-205zM1184 1139v-1108q-319 -56 -506 -56q-247 0 -369.5 105t-122.5 323v736h201q0 -118 1 -348.5t1 -348.5q0 -150 75 -209t226 -59q123 0 291 29v936h203z" />
    <glyph glyph-name="Scommaaccent" unicode="&#x218;" horiz-adv-x="1462" 
d="M707 -25q-155 0 -300 40.5t-253 115.5l79 170q96 -68 218 -105.5t249 -37.5q191 0 298.5 78.5t107.5 209.5v5q0 107 -80 173t-281 128q-26 8 -75.5 22.5t-63.5 18.5q-218 66 -315.5 175t-97.5 289v5q0 193 146 309.5t398 116.5q148 0 288.5 -38t242.5 -106l-78 -170
q-92 63 -210.5 97t-240.5 34q-167 0 -255.5 -66t-88.5 -173v-4q0 -61 17.5 -105.5t56.5 -78t87.5 -56.5t125.5 -49l143 -41q259 -74 373.5 -187.5t114.5 -289.5v-4q-2 -220 -164.5 -348t-441.5 -128zM506 -451l125 365h188l-174 -365h-139z" />
    <glyph glyph-name="scommaaccent" unicode="&#x219;" horiz-adv-x="1052" 
d="M502 -25q-252 0 -461 95l55 163q190 -81 387 -81q147 0 226 34.5t79 118.5q0 76 -47 110t-211 77q-17 4 -50.5 13t-51.5 13q-190 50 -276 132t-86 216q0 145 118 227.5t322 82.5q259 0 440 -93l-57 -163q-172 79 -359 79q-124 0 -187.5 -31.5t-63.5 -101.5q0 -25 5 -44
t20 -34.5t31.5 -26.5t49.5 -22.5t62.5 -20t82.5 -22.5q15 -4 43 -11t43 -11q201 -54 288 -138.5t87 -220.5q0 -167 -123.5 -253.5t-365.5 -86.5zM295 -451l125 365h188l-174 -365h-139z" />
    <glyph glyph-name="uni021A" unicode="&#x21a;" horiz-adv-x="1417" 
d="M608 0v1470h-551v191h1303v-191h-549v-1470h-203zM483 -451l125 365h189l-174 -365h-140z" />
    <glyph glyph-name="uni021B" unicode="&#x21b;" horiz-adv-x="999" 
d="M666 0q-218 0 -306 86t-88 272v596h-217v185h217v415h201v-415h449v-185h-449v-534q0 -131 62.5 -182.5t197.5 -51.5h193v-186h-260zM453 -449l125 365h188l-174 -365h-139z" />
    <glyph glyph-name="uni0232" unicode="&#x232;" horiz-adv-x="1525" 
d="M1067 1937v-145h-606v145h606zM1247 1661h228l-611 -1016v-645h-202v645l-611 1016h228l485 -830z" />
    <glyph glyph-name="uni0233" unicode="&#x233;" horiz-adv-x="1341" 
d="M979 1448v-145h-606v145h606zM1169 109q-1 0 -3 -1.5t-3 -1.5v-122q0 -114 -37.5 -202t-105 -142.5t-159 -82.5t-202.5 -28q-225 0 -370 61l-39 187q158 -70 366 -70q174 0 261.5 66.5t87.5 218.5v59q-152 -33 -301 -33q-245 0 -361.5 104.5t-116.5 326.5q0 118 -1 346
t-1 344h203q0 -111 1 -328t1 -328q0 -148 71 -208t214 -60q171 0 291 37v887h198v-1026z" />
    <glyph glyph-name="uni0237" unicode="&#x237;" horiz-adv-x="626" 
d="M90 -469q-48 0 -110 12l-31 183q67 -13 102 -13q107 0 147 57.5t40 211.5v1157h204v-1137q0 -183 -33 -283.5t-107.5 -144t-211.5 -43.5z" />
    <glyph glyph-name="uni0259" unicode="&#x259;" horiz-adv-x="1300" 
d="M614 1174q270 0 434 -165t164 -434q0 -270 -161.5 -436t-423.5 -166q-248 0 -399.5 157t-151.5 413q0 77 2 100h930q-22 165 -129 258.5t-277 93.5q-216 0 -369 -88l-86 158q206 109 467 109zM631 154q157 0 253.5 82.5t119.5 232.5h-730q9 -146 104.5 -230.5
t252.5 -84.5z" />
    <glyph glyph-name="circumflex" unicode="&#x2c6;" horiz-adv-x="913" 
d="M61 1370l299 291h195l297 -291h-217l-176 172l-180 -172h-218z" />
    <glyph glyph-name="caron" unicode="&#x2c7;" horiz-adv-x="913" 
d="M61 1671h218l180 -172l176 172h217l-297 -291h-195z" />
    <glyph glyph-name="breve" unicode="&#x2d8;" horiz-adv-x="823" 
d="M410 1358q-314 0 -349 278h99q25 -180 250 -180q227 0 254 180h98q-35 -278 -352 -278z" />
    <glyph glyph-name="dotaccent" unicode="&#x2d9;" horiz-adv-x="325" 
d="M164 1333q-60 0 -102 34.5t-42 96.5q0 58 41.5 94.5t102.5 36.5q60 0 100.5 -36.5t40.5 -94.5q0 -62 -41 -96.5t-100 -34.5z" />
    <glyph glyph-name="ring" unicode="&#x2da;" horiz-adv-x="550" 
d="M276 1329q-90 0 -152.5 57.5t-62.5 145.5t62.5 145.5t152.5 57.5t151.5 -57.5t61.5 -145.5t-61.5 -145.5t-151.5 -57.5zM276 1389q62 0 106 39.5t44 103.5q0 65 -44 105t-106 40t-106.5 -40t-44.5 -105q0 -64 44.5 -103.5t106.5 -39.5z" />
    <glyph glyph-name="ogonek" unicode="&#x2db;" horiz-adv-x="557" 
d="M346 -414q-85 0 -151.5 17.5t-111 62.5t-42.5 113q3 68 59 125t168 110l195 -12q-128 -56 -185.5 -101t-58.5 -102q-3 -58 45 -86t125 -28q13 0 27 1.5t28.5 3.5t20.5 3v-96q-63 -11 -119 -11z" />
    <glyph glyph-name="tilde" unicode="&#x2dc;" horiz-adv-x="825" 
d="M61 1391q11 110 67 176.5t144 66.5q56 0 105 -22t91 -44t83 -22q44 0 62 21t28 67h143q-12 -118 -66.5 -180.5t-139.5 -62.5q-56 0 -106 22.5t-93 45t-84 22.5q-44 0 -62 -21.5t-28 -68.5h-144z" />
    <glyph glyph-name="hungarumlaut" unicode="&#x2dd;" horiz-adv-x="1011" 
d="M100 1325l222 289h233l-258 -289h-197zM553 1325l221 289h234l-258 -289h-197z" />
    <glyph glyph-name="gravecomb" unicode="&#x300;" 
d="M-215 1372l-295 289h191l258 -289h-154z" />
    <glyph glyph-name="acutecomb" unicode="&#x301;" 
d="M-498 1325l222 289h233l-258 -289h-197z" />
    <glyph glyph-name="uni0302" unicode="&#x302;" 
d="M-852 1370l299 291h195l297 -291h-218l-176 172l-180 -172h-217z" />
    <glyph glyph-name="tildecomb" unicode="&#x303;" 
d="M-764 1391q11 110 67 176.5t144 66.5q56 0 105 -22t91 -44t83 -22q44 0 62 21t28 67h143q-12 -118 -67 -180.5t-140 -62.5q-56 0 -105.5 22.5t-92.5 45t-84 22.5q-44 0 -62.5 -21.5t-28.5 -68.5h-143z" />
    <glyph glyph-name="uni0304" unicode="&#x304;" 
d="M-666 1393v116h605v-116h-605z" />
    <glyph glyph-name="uni0306" unicode="&#x306;" 
d="M-414 1358q-313 0 -348 278h98q25 -180 250 -180q227 0 254 180h99q-35 -278 -353 -278z" />
    <glyph glyph-name="uni0307" unicode="&#x307;" 
d="M-162 1337q-58 0 -97.5 34t-39.5 93q0 56 39.5 90.5t97.5 34.5q57 0 96 -34.5t39 -90.5q0 -59 -39.5 -93t-95.5 -34z" />
    <glyph glyph-name="uni0308" unicode="&#x308;" 
d="M-565 1341q-60 0 -103 36t-43 98q0 57 42.5 94t103.5 37q60 0 100.5 -36.5t40.5 -94.5q0 -62 -41 -98t-100 -36zM-199 1341q-60 0 -101.5 36t-41.5 98q0 58 41 94.5t102 36.5t102.5 -36.5t41.5 -94.5q0 -62 -42.5 -98t-101.5 -36z" />
    <glyph glyph-name="uni030A" unicode="&#x30a;" 
d="M-274 1329q-90 0 -152.5 57.5t-62.5 145.5t62.5 145.5t152.5 57.5t151.5 -57.5t61.5 -145.5t-61.5 -145.5t-151.5 -57.5zM-274 1389q62 0 105.5 39.5t43.5 103.5q0 65 -43.5 105t-105.5 40q-63 0 -107.5 -40t-44.5 -105q0 -64 45 -103.5t107 -39.5z" />
    <glyph glyph-name="uni030B" unicode="&#x30b;" 
d="M-911 1325l221 289h233l-258 -289h-196zM-459 1325l221 289h234l-258 -289h-197z" />
    <glyph glyph-name="uni030C" unicode="&#x30c;" 
d="M-852 1671h217l180 -172l176 172h218l-297 -291h-195z" />
    <glyph glyph-name="uni0312" unicode="&#x312;" 
d="M-281 1532h127l35 -637h-194z" />
    <glyph glyph-name="uni0326" unicode="&#x326;" 
d="M-391 -451l125 365h188l-174 -365h-139z" />
    <glyph glyph-name="uni0327" unicode="&#x327;" 
d="M-291 -451q-87 0 -166 25l-8 94q96 -28 164 -28q151 0 151 84q0 75 -133 75q-63 0 -137 -24l-14 20l131 213h98l-80 -127q12 4 41 4q82 0 142.5 -39.5t60.5 -115.5q0 -89 -69.5 -135t-180.5 -46z" />
    <glyph glyph-name="uni0328" unicode="&#x328;" 
d="M-170 -414q-85 0 -151.5 17.5t-111 62.5t-42.5 113q3 68 59 125t168 110l195 -12q-128 -56 -185.5 -101t-58.5 -102q-3 -58 45 -86t125 -28q13 0 27 1.5t28.5 3.5t20.5 3v-96q-63 -11 -119 -11z" />
    <glyph glyph-name="uni0335" unicode="&#x335;" 
d="M-653 928h616v-160h-616v160z" />
    <glyph glyph-name="uni0336" unicode="&#x336;" 
d="M-1556 834v174h1556v-174h-1556z" />
    <glyph glyph-name="uni0337" unicode="&#x337;" 
d="M-760 616l-55 119l643 342l55 -119z" />
    <glyph glyph-name="uni0338" unicode="&#x338;" 
d="M-1700 -12l1520 1773l180 -67l-1520 -1778z" />
    <glyph glyph-name="uni0394" unicode="&#x394;" horiz-adv-x="1714" 
d="M23 0l731 1628h207l731 -1628h-1669zM317 190h1078l-539 1194z" />
    <glyph glyph-name="uni03A9" unicode="&#x3a9;" horiz-adv-x="1828" 
d="M1284 412v-219h346v-193h-549v506q197 41 304.5 173t107.5 331v2q0 215 -159 347t-419 132t-420.5 -132t-160.5 -347v-2q0 -197 111 -329.5t303 -174.5v-506h-549v193h344v219q-192 82 -305 246.5t-113 363.5q0 202 97.5 353t276 232t414.5 81t415 -80.5t277.5 -232
t98.5 -353.5q0 -198 -113.5 -363t-306.5 -247z" />
    <glyph glyph-name="uni03BC" unicode="&#x3bc;" horiz-adv-x="1445" 
d="M1184 430q0 -256 213 -256v-199q-233 0 -332 111q-120 -111 -381 -111q-184 0 -295 60v-486h-205v1590h205v-699q0 -149 74 -207.5t221 -58.5q146 0 219.5 58.5t73.5 207.5q0 116 1 349t1 350h205v-709z" />
    <glyph glyph-name="pi" unicode="&#x3c0;" horiz-adv-x="1650" 
d="M268 0v950h-153v189h1415v-189h-170v-577q0 -110 30.5 -146.5t122.5 -36.5h31v-190h-57q-195 0 -263.5 64t-68.5 245v641h-682v-950h-205z" />
    <glyph glyph-name="uni060C" unicode="&#x60c;" horiz-adv-x="608" 
d="M498 596l-205 -594h-215l250 594h170z" />
    <glyph glyph-name="uni0615" unicode="&#x615;" 
d="M88 1274v416h152v-82h108q92 0 147.5 -52.5t55.5 -140.5v-141h-463zM240 1395h159v37q0 63 -65 63h-94v-100z" />
    <glyph glyph-name="uni061B" unicode="&#x61b;" horiz-adv-x="677" 
d="M567 1229l-205 -594h-215l250 594h170zM229 -20q-60 0 -102.5 35.5t-42.5 97.5q0 59 42 96t103 37t103.5 -37t42.5 -96q0 -62 -43 -97.5t-103 -35.5z" />
    <glyph glyph-name="uni061F" unicode="&#x61f;" horiz-adv-x="1130" 
d="M762 508h-201v227q-442 148 -442 504v14q0 212 129.5 322.5t372.5 110.5q201 0 370 -68l41 -203q-178 74 -373 74q-329 0 -329 -268v-13q0 -62 20 -112t55.5 -86.5t91.5 -66.5t119 -51t148 -40zM664 -16q-60 0 -103 35.5t-43 97.5q0 59 42.5 96t103.5 37t103 -37t42 -96
q0 -62 -42.5 -97.5t-102.5 -35.5z" />
    <glyph glyph-name="uni0621" unicode="&#x621;" horiz-adv-x="997" 
d="M123 0v377q0 522 514 522h74v-199h-107q-291 0 -291 -294v-205h576v-201h-766z" />
    <glyph glyph-name="uni0622" unicode="&#x622;" horiz-adv-x="557" 
d="M94 1753v135h369v-135h-369zM178 0v1661h201v-1661h-201z" />
    <glyph glyph-name="uni0623" unicode="&#x623;" horiz-adv-x="557" 
d="M244 1696h186v-121h-305v147q0 95 55 152t152 57h43v-112h-56q-37 0 -56 -23t-19 -63v-37zM178 1382h201v-1349h-201v1349z" />
    <glyph glyph-name="uni0624" unicode="&#x624;" horiz-adv-x="1198" 
d="M958 1438v-156h-430v238q0 104 61 164.5t165 60.5h129v-119h-117q-104 0 -104 -102v-86h296zM764 1139h297v-1119q0 -131 -29 -222t-89 -145.5t-143.5 -79t-199.5 -24.5q-166 0 -326 56l-36 213q189 -66 354 -66q128 0 198 53.5t70 176.5v18h-123q-283 0 -455.5 155
t-172.5 410v2q0 258 179.5 415t475.5 157zM860 201v739h-137q-189 0 -306.5 -101.5t-117.5 -271.5v-2q0 -164 118 -264t306 -100h137z" />
    <glyph glyph-name="uni0625" unicode="&#x625;" horiz-adv-x="557" 
d="M178 0v1661h201v-1661h-201zM115 -489v147q0 95 56 152t153 57h59v-113h-72q-37 0 -56 -23t-19 -63v-37h204v-120h-325z" />
    <glyph glyph-name="uni0626" unicode="&#x626;" horiz-adv-x="2103" 
d="M1821 1438v-156h-430v238q0 104 60.5 164.5t164.5 60.5h129v-119h-117q-104 0 -104 -102v-86h297zM1595 1139h369v-1139h-201v948h-200q-136 0 -206.5 -78t-70.5 -211v-915h-569q-606 0 -606 575v451h200v-430q0 -395 447 -395h327v682q-1 254 131 383t379 129z" />
    <glyph glyph-name="uni0627" unicode="&#x627;" horiz-adv-x="557" 
d="M178 0v1661h201v-1661h-201z" />
    <glyph glyph-name="uni0628" unicode="&#x628;" horiz-adv-x="1646" 
d="M1309 1139h200v-1139h-792q-606 0 -606 575v386h200v-365q0 -395 447 -395h551v938zM903 -227q60 0 102 -37t42 -94q0 -63 -42.5 -99.5t-101.5 -36.5q-61 0 -103 36.5t-42 99.5q0 58 41.5 94.5t103.5 36.5z" />
    <glyph glyph-name="uni0629" unicode="&#x629;" horiz-adv-x="1198" 
d="M551 1405q-60 0 -101.5 36t-41.5 97q0 58 41 95.5t102 37.5q62 0 102.5 -37.5t40.5 -95.5q0 -61 -41 -97t-102 -36zM930 1405q-60 0 -102 36t-42 97q0 58 41.5 95.5t102.5 37.5q62 0 102.5 -37.5t40.5 -95.5q0 -61 -41 -97t-102 -36zM860 1139v102h201v-1241h-201h-123
q-283 0 -455.5 155t-172.5 410v2q0 258 179.5 415t475.5 157h96zM860 201v739h-137q-189 0 -306.5 -101.5t-117.5 -271.5v-2q0 -164 118 -264t306 -100h137z" />
    <glyph glyph-name="uni062A" unicode="&#x62a;" horiz-adv-x="1646" 
d="M645 1278q-60 0 -101.5 36t-41.5 97q0 58 41 95.5t102 37.5q62 0 102.5 -37.5t40.5 -95.5q0 -61 -41 -97t-102 -36zM1024 1278q-60 0 -101.5 36t-41.5 97q0 58 41 95.5t102 37.5q62 0 102.5 -37.5t40.5 -95.5q0 -61 -41 -97t-102 -36zM1309 1139h200v-1139h-792
q-606 0 -606 575v386h200v-365q0 -395 447 -395h551v938z" />
    <glyph glyph-name="uni062B" unicode="&#x62b;" horiz-adv-x="1646" 
d="M836 1559q-50 0 -87.5 31.5t-37.5 84.5q0 50 36 82.5t89 32.5q54 0 89.5 -32t35.5 -83q0 -54 -36 -85t-89 -31zM649 1278q-58 0 -98.5 35t-40.5 94q0 56 40 92.5t99 36.5q60 0 99.5 -36t39.5 -93q0 -59 -40.5 -94t-98.5 -35zM881 1407q0 56 40 92.5t99 36.5
q60 0 99.5 -36t39.5 -93q0 -60 -40 -94.5t-99 -34.5q-58 0 -98.5 35t-40.5 94zM1309 1139h200v-1139h-792q-606 0 -606 575v386h200v-365q0 -395 447 -395h551v938z" />
    <glyph glyph-name="uni062C" unicode="&#x62c;" horiz-adv-x="1265" 
d="M608 1169q263 0 405 -161t142 -449q0 -128 -25 -281.5t-61 -277.5h-471q-97 0 -153 -41.5t-97 -142.5l-115 -285l-182 70l127 313q61 156 153 221.5t249 65.5h338q47 190 47 368q0 186 -99.5 293t-271.5 107q-88 0 -160.5 -22t-167.5 -79l-71 185q219 116 413 116z
M711 -272q60 0 101.5 -37.5t41.5 -96.5q0 -63 -42 -99t-101 -36q-62 0 -104 36t-42 99q0 59 42 96.5t104 37.5z" />
    <glyph glyph-name="uni062D" unicode="&#x62d;" horiz-adv-x="1265" 
d="M608 1169q263 0 405 -161t142 -449q0 -128 -25 -281.5t-61 -277.5h-471q-97 0 -153 -41.5t-97 -142.5l-115 -285l-182 70l127 313q61 156 153 221.5t249 65.5h338q47 190 47 368q0 186 -99.5 293t-271.5 107q-88 0 -160.5 -22t-167.5 -79l-71 185q219 116 413 116z" />
    <glyph glyph-name="uni062E" unicode="&#x62e;" horiz-adv-x="1265" 
d="M649 1409q-61 0 -103 35.5t-42 97.5q0 59 41.5 96t103.5 37q60 0 102 -37t42 -96q0 -62 -42.5 -97.5t-101.5 -35.5zM608 1169q263 0 405 -161t142 -449q0 -128 -25 -281.5t-61 -277.5h-471q-97 0 -153 -41.5t-97 -142.5l-115 -285l-182 70l127 313q61 156 153 221.5
t249 65.5h338q47 190 47 368q0 186 -99.5 293t-271.5 107q-88 0 -160.5 -22t-167.5 -79l-71 185q219 116 413 116z" />
    <glyph glyph-name="uni062F" unicode="&#x62f;" horiz-adv-x="1101" 
d="M57 0v201h738v432q0 305 -297 305h-78v201h49q262 0 389 -131.5t127 -391.5v-616h-928z" />
    <glyph glyph-name="uni0630" unicode="&#x630;" horiz-adv-x="1101" 
d="M498 1378q-62 0 -104 35.5t-42 97.5q0 59 42 96.5t104 37.5q60 0 101.5 -37.5t41.5 -96.5q0 -62 -42 -97.5t-101 -35.5zM57 0v201h738v432q0 305 -297 305h-78v201h49q262 0 389 -131.5t127 -391.5v-616h-928z" />
    <glyph glyph-name="uni0631" unicode="&#x631;" horiz-adv-x="655" 
d="M139 -451q-70 0 -159 21l-17 174q92 -12 158 -12q96 0 146 53t50 174v1180h201v-1149q0 -126 -23 -211.5t-72.5 -136t-117.5 -72t-166 -21.5z" />
    <glyph glyph-name="uni0632" unicode="&#x632;" horiz-adv-x="655" 
d="M420 1378q-62 0 -104 35.5t-42 97.5q0 59 42 96.5t104 37.5q60 0 101.5 -37.5t41.5 -96.5q0 -62 -42 -97.5t-101 -35.5zM139 -451q-70 0 -159 21l-17 174q92 -12 158 -12q96 0 146 53t50 174v1180h201v-1149q0 -126 -23 -211.5t-72.5 -136t-117.5 -72t-166 -21.5z" />
    <glyph glyph-name="uni0633" unicode="&#x633;" horiz-adv-x="2840" 
d="M2521 1153h201v-633q0 -540 -510 -540q-152 0 -265.5 67t-154.5 184q-52 -111 -155 -171t-251 -60h-208v-256h-461q-296 0 -451 145.5t-155 421.5v688h202v-663q0 -391 435 -391h229v1054h201v-798h206q65 0 121.5 18.5t102 55t72 97t26.5 138.5v489h201v-516
q0 -139 83 -220t222 -81q148 0 228.5 81t80.5 239v651z" />
    <glyph glyph-name="uni0634" unicode="&#x634;" horiz-adv-x="2840" 
d="M1808 1505q-50 0 -87.5 32t-37.5 85q0 50 36 82.5t89 32.5q54 0 89.5 -32t35.5 -83q0 -54 -36 -85.5t-89 -31.5zM1622 1225q-58 0 -98.5 35t-40.5 94q0 56 40 92.5t99 36.5q60 0 99.5 -36t39.5 -93q0 -59 -40.5 -94t-98.5 -35zM1853 1354q0 56 40.5 92.5t99.5 36.5
q60 0 99.5 -36t39.5 -93q0 -60 -40 -94.5t-99 -34.5q-58 0 -99 35t-41 94zM2521 1153h201v-633q0 -540 -510 -540q-152 0 -265.5 67t-154.5 184q-52 -111 -155 -171t-251 -60h-208v-256h-461q-296 0 -451 145.5t-155 421.5v688h202v-663q0 -391 435 -391h229v1054h201v-798
h206q65 0 121.5 18.5t102 55t72 97t26.5 138.5v489h201v-516q0 -139 83 -220t222 -81q148 0 228.5 81t80.5 239v651z" />
    <glyph glyph-name="uni0635" unicode="&#x635;" horiz-adv-x="2402" 
d="M1681 1139q295 0 450 -148t153 -426l-3 -565h-1103v-256h-461q-296 0 -451 145.5t-155 421.5v688h202v-663q0 -391 435 -391h229v1304h201v-110h503zM2081 598q1 172 -100.5 256t-282.5 84h-520v-737h903v397z" />
    <glyph glyph-name="uni0636" unicode="&#x636;" horiz-adv-x="2402" 
d="M1671 1378q-61 0 -103 35.5t-42 97.5q0 59 41.5 96.5t103.5 37.5q60 0 102 -37.5t42 -96.5q0 -62 -42.5 -97.5t-101.5 -35.5zM1681 1139q295 0 450 -148t153 -426l-3 -565h-1103v-256h-461q-296 0 -451 145.5t-155 421.5v688h202v-663q0 -391 435 -391h229v1304h201v-110
h503zM2081 598q1 172 -100.5 256t-282.5 84h-520v-737h903v397z" />
    <glyph glyph-name="uni0637" unicode="&#x637;" horiz-adv-x="1742" 
d="M1022 1139q294 0 449 -147.5t153 -426.5l-2 -565h-1567l41 201h221v1460h201v-522h504zM1421 598q1 172 -100.5 256t-282.5 84h-520v-737h903v397z" />
    <glyph glyph-name="uni0638" unicode="&#x638;" horiz-adv-x="1742" 
d="M1022 1139q294 0 449 -147.5t153 -426.5l-2 -565h-1567l41 201h221v1460h201v-522h504zM1034 1378q-61 0 -103 35.5t-42 97.5q0 59 41.5 96.5t103.5 37.5q60 0 102 -37.5t42 -96.5q0 -62 -42.5 -97.5t-101.5 -35.5zM1421 598q1 172 -100.5 256t-282.5 84h-520v-737h903
v397z" />
    <glyph glyph-name="uni0639" unicode="&#x639;" horiz-adv-x="1406" 
d="M1296 201v-201h-692q-97 0 -153 -41.5t-97 -142.5l-114 -285l-183 70l127 313q43 109 99 171.5t135 90.5q-111 275 -111 455q0 254 144 396t385 142q177 0 415 -104l-67 -186q-196 90 -334 90q-159 0 -255.5 -99.5t-96.5 -271.5q0 -89 36.5 -193t102.5 -204h659z" />
    <glyph glyph-name="uni063A" unicode="&#x63a;" horiz-adv-x="1406" 
d="M842 1409q-62 0 -104 35.5t-42 97.5q0 59 41.5 96t104.5 37q60 0 101.5 -37t41.5 -96q0 -62 -42 -97.5t-101 -35.5zM1296 201v-201h-692q-97 0 -153 -41.5t-97 -142.5l-114 -285l-183 70l127 313q43 109 99 171.5t135 90.5q-111 275 -111 455q0 254 144 396t385 142
q177 0 415 -104l-67 -186q-196 90 -334 90q-159 0 -255.5 -99.5t-96.5 -271.5q0 -89 36.5 -193t102.5 -204h659z" />
    <glyph glyph-name="uni0640" unicode="&#x640;" horiz-adv-x="337" 
d="M0 0v201h379v-201h-379z" />
    <glyph glyph-name="uni0641" unicode="&#x641;" horiz-adv-x="2037" 
d="M1516 1378q-62 0 -104 35.5t-42 97.5q0 59 42 96.5t104 37.5q60 0 101.5 -37.5t41.5 -96.5q0 -62 -42 -97.5t-101 -35.5zM1901 1139v-1022l-3 -23v-94h-8h-313h-860q-606 0 -606 575v386h200v-365q0 -395 447 -395h319q-129 144 -129 364v2q0 258 180 415t476 157h297z
M1563 201h137v739h-137q-189 0 -306.5 -101.5t-117.5 -271.5v-2q0 -164 118 -264t306 -100z" />
    <glyph glyph-name="uni0642" unicode="&#x642;" horiz-adv-x="1726" 
d="M1051 1364q-60 0 -102 36t-42 97q0 58 41.5 95.5t102.5 37.5q62 0 102.5 -37.5t40.5 -95.5q0 -61 -41 -97t-102 -36zM1430 1364q-60 0 -102 36t-42 97q0 58 41.5 95.5t102.5 37.5q62 0 102.5 -37.5t40.5 -95.5q0 -61 -41 -97t-102 -36zM1290 1139h297v-1590h-870
q-606 0 -606 576v450h200v-430q0 -395 447 -395h628v281h-122q-285 0 -457 142.5t-172 391.5v2q0 258 179.5 415t475.5 157zM1386 201v739h-137q-189 0 -306.5 -101.5t-117.5 -271.5v-2q0 -164 118 -264t306 -100h137z" />
    <glyph glyph-name="uni0643" unicode="&#x643;" horiz-adv-x="1687" 
d="M1309 1661h200v-1661h-792q-606 0 -606 575v386h200v-365q0 -395 447 -395h551v1460zM1053 1102v-156h-430v238q0 104 60.5 164.5t164.5 60.5h129v-119h-117q-104 0 -104 -102v-86h297z" />
    </font>
</defs>
</svg>
