<?xml version="1.0" standalone="no"?>
<!DOCTYPE svg PUBLIC "-//W3C//DTD SVG 1.1//EN" "http://www.w3.org/Graphics/SVG/1.1/DTD/svg11.dtd" >
<svg xmlns="http://www.w3.org/2000/svg" xmlns:xlink="http://www.w3.org/1999/xlink" version="1.1">
<metadata>
Created by FontForge 20170731 at Thu Dec 13 16:35:32 2018
 By Aleksey,,,
Copyright (c) 2018 Abu Dhabi Media.
</metadata>
<defs>
<font id="AbuDhabiMedia-Regular" horiz-adv-x="0" >
  <font-face 
    font-family="Abu Dhabi Media"
    font-weight="400"
    font-stretch="normal"
    units-per-em="1000"
    panose-1="2 11 5 4 2 2 3 2 2 4"
    ascent="732"
    descent="-268"
    x-height="500"
    cap-height="686"
    bbox="-287 -431 1405 1024"
    underline-thickness="50"
    underline-position="-150"
    unicode-range="U+000D-FEFF"
  />
<missing-glyph horiz-adv-x="767" 
d="M95 -104v902q0 20 20 20h537q20 0 20 -20v-902q0 -20 -20 -20h-537q-20 0 -20 20zM628 776h-489v-858h489v858z" />
    <glyph glyph-name="fi" unicode="fi" horiz-adv-x="647" 
d="M258 604.5q-23 -11.5 -33 -36.5t-10 -66v-2h133q20 0 20 -20v-46q0 -20 -20 -20h-133v-394q0 -20 -20 -20h-55q-20 0 -20 20v394h-70q-20 0 -20 20v46q0 20 20 20h70v5q0 58 22 101t63 66t98 23q21 0 45 -3q20 -3 20 -23v-35q0 -19 -18 -19l-31 1q-38 0 -61 -11.5z
M471 20v460q0 20 20 20h55q20 0 20 -20v-460q0 -20 -20 -20h-55q-20 0 -20 20zM472 587.5q-18 18.5 -18 46.5q0 26 18 45t47 19t47 -19t18 -45q0 -28 -18 -46.5t-47 -18.5t-47 18.5z" />
    <glyph glyph-name="fl" unicode="fl" horiz-adv-x="647" 
d="M258 604.5q-23 -11.5 -33 -36.5t-10 -66v-2h133q20 0 20 -20v-46q0 -20 -20 -20h-133v-394q0 -20 -20 -20h-55q-20 0 -20 20v394h-70q-20 0 -20 20v46q0 20 20 20h70v5q0 58 22 101t63 66t98 23q21 0 45 -3q20 -3 20 -23v-35q0 -19 -18 -19l-31 1q-38 0 -61 -11.5z
M471 20v646q0 20 20 20h55q20 0 20 -20v-646q0 -20 -20 -20h-55q-20 0 -20 20z" />
    <glyph glyph-name="uniFDF2" unicode="&#x627;&#xfedf;&#xfee0;&#xfeea;" horiz-adv-x="1475" arabic-form="isolated" 
d="M722.5 849.5q-3.5 3.5 -3.5 9.5v138q0 6 3.5 9.5t9.5 3.5h18q6 0 9.5 -3.5t3.5 -9.5v-138q0 -6 -3.5 -9.5t-9.5 -3.5h-18q-6 0 -9.5 3.5zM624.5 649.5q-20.5 20.5 -20.5 68.5v38q0 6 3.5 9.5t9.5 3.5h22q6 0 9.5 -3.5t3.5 -9.5v-42q0 -24 8 -34.5t24 -10.5
q18 0 25.5 10.5t7.5 34.5v42q0 6 3.5 9.5t9.5 3.5h22q6 0 9.5 -3.5t3.5 -9.5v-42q0 -45 33 -45q18 0 25 10.5t7 34.5v42q0 6 3.5 9.5t9.5 3.5h22q6 0 9.5 -3.5t3.5 -9.5v-38q0 -48 -18.5 -68.5t-54.5 -20.5q-23 0 -38 5.5t-26 16.5q-22 -22 -60 -22q-36 0 -56.5 20.5z
M1147 636v-616q0 -20 -20 -20h-228q-50 0 -84 18t-57 53q-23 -37 -64.5 -54t-102.5 -17h-36q-60 0 -108.5 20.5t-73.5 61.5q-54 -20 -109 -20q-68 0 -121 23.5t-83 68.5t-30 107t31 109t86 72.5t126 25.5h76v10q0 20 20 20h55q20 0 20 -20v-273q0 -58 30.5 -83.5t80.5 -25.5
h29q38 0 62 10t35.5 34t11.5 65v351q0 20 20 20h55q20 0 20 -20v-331v-20q0 -58 30.5 -83.5t80.5 -25.5h153v540q0 20 20 20h55q20 0 20 -20zM1405 636v-616q0 -20 -20 -20h-55q-20 0 -20 20v616q0 20 20 20h55q20 0 20 -20zM349 171v201l-90 1q-60 1 -96.5 -28t-36.5 -81
t36.5 -79t105.5 -27q46 0 81 13z" />
    <glyph glyph-name="uniFEF5" unicode="&#xfedf;&#xfe82;" horiz-adv-x="678" arabic-form="isolated" 
d="M40 20v56q0 20 20 20h177v352q0 20 20 20h55q20 0 20 -20v-352h181v540q0 20 20 20h55q20 0 20 -20v-616q0 -20 -20 -20h-528q-20 0 -20 20zM328 525.5q-21 5.5 -47 15.5q-15 5 -29.5 9.5t-25.5 4.5q-14 0 -26 -5.5t-26 -15.5q-4 -3 -8 -3q-5 0 -10 5l-18 25q-4 6 -4 9
q0 5 5 10q17 17 39.5 28t44.5 11q15 0 28.5 -4t36.5 -12q28 -10 44.5 -14.5t36.5 -4.5q15 0 27 4l4 1q9 0 12 -11l8 -29l1 -5q0 -5 -2.5 -9t-6.5 -6q-17 -9 -39 -9q-24 0 -45 5.5z" />
    <glyph glyph-name="uniFEF6" unicode="&#xfee0;&#xfe82;" horiz-adv-x="719" arabic-form="final" 
d="M719 96v-96h-13q-87 0 -130 75q-49 -75 -165 -75h-351q-20 0 -20 20v56q0 20 20 20h177v352q0 20 20 20h55q20 0 20 -20v-352h72q38 0 62 10t35.5 34t11.5 65v431q0 20 20 20h55q20 0 20 -20v-431q0 -56 28 -82.5t74 -26.5h9zM328 525.5q-21 5.5 -47 15.5
q-15 5 -29.5 9.5t-25.5 4.5q-14 0 -26 -5.5t-26 -15.5q-4 -3 -8 -3q-5 0 -10 5l-18 25q-4 6 -4 9q0 5 5 10q17 17 39.5 28t44.5 11q15 0 28.5 -4t36.5 -12q28 -10 44.5 -14.5t36.5 -4.5q15 0 27 4l4 1q9 0 12 -11l8 -29l1 -5q0 -5 -2.5 -9t-6.5 -6q-17 -9 -39 -9
q-24 0 -45 5.5z" />
    <glyph glyph-name="uniFEF7" unicode="&#xfedf;&#xfe84;" horiz-adv-x="678" arabic-form="isolated" 
d="M40 20v56q0 20 20 20h177v352q0 20 20 20h55q20 0 20 -20v-352h181v540q0 20 20 20h55q20 0 20 -20v-616q0 -20 -20 -20h-528q-20 0 -20 20zM377.5 564.5q3.5 -3.5 3.5 -9.5v-24q0 -6 -3.5 -9.5t-9.5 -3.5h-166q-6 0 -9.5 3.5t-3.5 9.5v24q0 6 3.5 9.5t9.5 3.5h43
q-14 18 -14 43q0 36 25 58.5t71 22.5h31q6 0 9.5 -3.5t3.5 -9.5v-24q0 -6 -3.5 -9.5t-9.5 -3.5h-30q-23 0 -35 -10.5t-12 -27.5q0 -36 52 -36h35q6 0 9.5 -3.5z" />
    <glyph glyph-name="uniFEF8" unicode="&#xfee0;&#xfe84;" horiz-adv-x="719" arabic-form="final" 
d="M719 96v-96h-13q-87 0 -130 75q-49 -75 -165 -75h-351q-20 0 -20 20v56q0 20 20 20h177v352q0 20 20 20h55q20 0 20 -20v-352h72q38 0 62 10t35.5 34t11.5 65v431q0 20 20 20h55q20 0 20 -20v-431q0 -56 28 -82.5t74 -26.5h9zM377.5 564.5q3.5 -3.5 3.5 -9.5v-24
q0 -6 -3.5 -9.5t-9.5 -3.5h-166q-6 0 -9.5 3.5t-3.5 9.5v24q0 6 3.5 9.5t9.5 3.5h43q-14 18 -14 43q0 36 25 58.5t71 22.5h31q6 0 9.5 -3.5t3.5 -9.5v-24q0 -6 -3.5 -9.5t-9.5 -3.5h-30q-23 0 -35 -10.5t-12 -27.5q0 -36 52 -36h35q6 0 9.5 -3.5z" />
    <glyph glyph-name="uniFEF9" unicode="&#xfedf;&#xfe88;" horiz-adv-x="678" arabic-form="isolated" 
d="M40 20v56q0 20 20 20h177v352q0 20 20 20h55q20 0 20 -20v-352h181v540q0 20 20 20h55q20 0 20 -20v-616q0 -20 -20 -20h-528q-20 0 -20 20zM380.5 -183.5q3.5 -3.5 3.5 -9.5v-26q0 -6 -3.5 -9.5t-9.5 -3.5h-166q-6 0 -9.5 3.5t-3.5 9.5v26q0 6 3.5 9.5t9.5 3.5h43
q-15 18 -15 43q0 22 11 40.5t33 29.5t53 11h31q6 0 9.5 -3.5t3.5 -9.5v-25q0 -6 -3.5 -9.5t-9.5 -3.5h-30q-23 0 -35 -10t-12 -27q0 -36 52 -36h35q6 0 9.5 -3.5z" />
    <glyph glyph-name="uniFEFA" unicode="&#xfee0;&#xfe88;" horiz-adv-x="719" arabic-form="final" 
d="M719 96v-96h-13q-87 0 -130 75q-49 -75 -165 -75h-351q-20 0 -20 20v56q0 20 20 20h177v352q0 20 20 20h55q20 0 20 -20v-352h72q38 0 62 10t35.5 34t11.5 65v431q0 20 20 20h55q20 0 20 -20v-431q0 -56 28 -82.5t74 -26.5h9zM380.5 -183.5q3.5 -3.5 3.5 -9.5v-26
q0 -6 -3.5 -9.5t-9.5 -3.5h-166q-6 0 -9.5 3.5t-3.5 9.5v26q0 6 3.5 9.5t9.5 3.5h43q-15 18 -15 43q0 22 11 40.5t33 29.5t53 11h31q6 0 9.5 -3.5t3.5 -9.5v-25q0 -6 -3.5 -9.5t-9.5 -3.5h-30q-23 0 -35 -10t-12 -27q0 -36 52 -36h35q6 0 9.5 -3.5z" />
    <glyph glyph-name="uniFEFB" unicode="&#xfedf;&#xfe8e;" horiz-adv-x="678" arabic-form="isolated" 
d="M40 20v56q0 20 20 20h177v352q0 20 20 20h55q20 0 20 -20v-352h181v540q0 20 20 20h55q20 0 20 -20v-616q0 -20 -20 -20h-528q-20 0 -20 20z" />
    <glyph glyph-name="uniFEFC" unicode="&#xfee0;&#xfe8e;" horiz-adv-x="719" arabic-form="final" 
d="M719 96v-96h-13q-87 0 -130 75q-49 -75 -165 -75h-351q-20 0 -20 20v56q0 20 20 20h177v352q0 20 20 20h55q20 0 20 -20v-352h72q38 0 62 10t35.5 34t11.5 65v431q0 20 20 20h55q20 0 20 -20v-431q0 -56 28 -82.5t74 -26.5h9z" />
    <glyph glyph-name="uni06440671" unicode="&#xfedf;&#xfb51;" horiz-adv-x="678" 
d="M40 20v56q0 20 20 20h177v352q0 20 20 20h55q20 0 20 -20v-352h181v540q0 20 20 20h55q20 0 20 -20v-616q0 -20 -20 -20h-528q-20 0 -20 20zM380 654.5q26 -25.5 26 -71.5v-52q0 -6 -3.5 -9.5t-9.5 -3.5h-234q-6 0 -9.5 3.5t-3.5 9.5v25q0 6 3.5 9.5t9.5 3.5h33v122
q0 6 3.5 9.5t9.5 3.5h24q6 0 9.5 -3.5t3.5 -9.5v-11h59q53 0 79 -25.5zM357 569v18q0 43 -56 43h-59v-61h115z" />
    <glyph glyph-name="uni06440671.fina" unicode="&#xfee0;&#xfb51;" horiz-adv-x="719" 
d="M719 96v-96h-13q-87 0 -130 75q-49 -75 -165 -75h-351q-20 0 -20 20v56q0 20 20 20h177v352q0 20 20 20h55q20 0 20 -20v-352h72q38 0 62 10t35.5 34t11.5 65v431q0 20 20 20h55q20 0 20 -20v-431q0 -56 28 -82.5t74 -26.5h9zM380 654.5q26 -25.5 26 -71.5v-52
q0 -6 -3.5 -9.5t-9.5 -3.5h-234q-6 0 -9.5 3.5t-3.5 9.5v25q0 6 3.5 9.5t9.5 3.5h33v122q0 6 3.5 9.5t9.5 3.5h24q6 0 9.5 -3.5t3.5 -9.5v-11h59q53 0 79 -25.5zM357 569v18q0 43 -56 43h-59v-61h115z" />
    <glyph glyph-name="uni066E.init" unicode="&#x66e;" horiz-adv-x="313" 
d="M243 408v-388q0 -20 -20 -20h-223q-13 0 -20.5 3.5t-11 13.5t-3.5 29q0 21 3.5 31.5t11 14.5t20.5 4h148v312q0 20 20 20h55q20 0 20 -20z" />
    <glyph glyph-name="uni066E.medi" unicode="&#x66e;" horiz-adv-x="364" 
d="M364 96v-96h-13q-87 0 -130 75q-49 -75 -165 -75h-56q-13 0 -20.5 3.5t-11 13.5t-3.5 29q0 21 3.5 31.5t11 14.5t20.5 4h49q40 0 63 8t34.5 29t11.5 62v213q0 20 20 20h55q20 0 20 -20v-203q0 -56 28 -82.5t74 -26.5h9z" />
    <glyph glyph-name="uni066E.fina" unicode="&#x66e;" horiz-adv-x="1015" 
d="M1015 96v-96h-13q-87 0 -130 75q-49 -75 -165 -75h-410q-125 0 -196 52.5t-71 159.5q0 55 23 141q2 9 8.5 13t16.5 2l47 -11q20 -5 16 -24q-18 -81 -18 -121q0 -60 46 -88t135 -28h396q40 0 63 8t34.5 29t11.5 62v213q0 20 20 20h55q20 0 20 -20v-203q0 -56 28 -82.5
t74 -26.5h9z" />
    <glyph glyph-name="uni066F.fina" unicode="&#x66f;" horiz-adv-x="908" 
d="M908 0h-124q-1 -81 -41 -130t-118 -70.5t-198 -21.5q-121 0 -210.5 30t-138 86.5t-48.5 134.5q0 39 8 81t21 79q8 19 26 14l49 -11q9 -2 12.5 -8.5t0.5 -15.5q-11 -38 -16.5 -68t-5.5 -59q0 -86 79 -126.5t223 -40.5q93 0 150.5 12t84.5 38t27 67v9h-63
q-79 0 -139.5 27.5t-94.5 80t-34 123.5q0 70 31.5 123.5t90.5 83.5t140 30h144q20 0 20 -20v-352h124v-96zM689 96l1 276h-97q-40 0 -71.5 -16.5t-49.5 -47t-18 -72.5q0 -66 45.5 -103t126.5 -37h63z" />
    <glyph glyph-name="uni06A1.init" unicode="&#x6a1;" horiz-adv-x="602" 
d="M450 438q47 -30 69.5 -79.5t22.5 -110.5v-228q0 -20 -20 -20h-522q-13 0 -20.5 3.5t-11 13.5t-3.5 29q0 21 3.5 31.5t11 14.5t20.5 4h144q-42 56 -42 135q0 69 29.5 123t82 84t119.5 30q70 0 117 -30zM243.5 133q45.5 -37 126.5 -37h77v147q0 58 -29 93.5t-90 35.5
q-38 0 -67.5 -17t-46 -48t-16.5 -71q0 -66 45.5 -103z" />
    <glyph glyph-name="uni06A1.medi" unicode="&#x6a1;" horiz-adv-x="621" 
d="M621 96v-96h-621q-13 0 -20.5 3.5t-11 13.5t-3.5 29q0 21 3.5 31.5t11 14.5t20.5 4h140q-20 31 -29.5 67t-9.5 71q0 60 27.5 113.5t78.5 87t119 33.5q69 0 120 -33t78 -87t27 -114q0 -35 -9.5 -71t-29.5 -67h109zM206.5 174q9.5 -31 38.5 -54.5t81 -23.5t81 23.5
t38.5 54.5t9.5 59q0 34 -14 66t-43 52.5t-72 20.5t-72 -20.5t-43 -52.5t-14 -66q0 -28 9.5 -59z" />
    <glyph glyph-name="uni06A1.fina" unicode="&#x6a1;" horiz-adv-x="1136" 
d="M1136 96v-96h-839q-125 0 -196 52.5t-71 159.5q0 55 23 141q2 9 8.5 13t16.5 2l47 -11q20 -5 16 -24q-18 -81 -18 -121q0 -60 46 -88t135 -28h351q-20 31 -29.5 67t-9.5 71q0 60 27.5 113.5t78.5 87t119 33.5q69 0 120 -33t78 -87t27 -114q0 -35 -9.5 -71t-29.5 -67h109z
M721.5 174q9.5 -31 38.5 -54.5t81 -23.5t81 23.5t38.5 54.5t9.5 59q0 34 -14 66t-43 52.5t-72 20.5t-72 -20.5t-43 -52.5t-14 -66q0 -28 9.5 -59z" />
    <glyph glyph-name="uniFB51" unicode="&#x671;" horiz-adv-x="281" arabic-form="final" 
d="M177.5 18q-46.5 18 -74.5 56.5t-28 96.5v445q0 20 20 20h55q20 0 20 -20v-411q0 -58 30.5 -83.5t80.5 -25.5v-96q-57 0 -103.5 18zM218 822.5q26 -25.5 26 -71.5v-52q0 -6 -3.5 -9.5t-9.5 -3.5h-234q-6 0 -9.5 3.5t-3.5 9.5v25q0 6 3.5 9.5t9.5 3.5h33v122q0 6 3.5 9.5
t9.5 3.5h24q6 0 9.5 -3.5t3.5 -9.5v-11h59q53 0 79 -25.5zM195 737v18q0 43 -56 43h-59v-61h115z" />
    <glyph glyph-name="uniFB9F" unicode="&#x6ba;" horiz-adv-x="706" arabic-form="final" 
d="M706 96v-96h-13q-61 0 -99 35q-5 -83 -41 -141t-98 -87.5t-143 -29.5q-82 0 -146 30t-100 87t-36 134q0 39 8 81t21 79q8 19 26 14l49 -11q9 -2 12.5 -8.5t0.5 -15.5q-11 -38 -16.5 -68t-5.5 -59q0 -85 51.5 -126t135.5 -41q94 0 141 48.5t47 141.5v264q0 20 20 20h55
q20 0 20 -20v-122q0 -56 28 -82.5t74 -26.5h9z" />
    <glyph glyph-name="uniFC03" unicode="&#xfc03;" horiz-adv-x="1177" arabic-form="isolated" 
d="M1177 96v-96h-186q-20 0 -20 20v354h-77q-72 0 -109.5 -37t-37.5 -120v-419q0 -20 -20 -20h-677q-20 0 -20 20v56q0 20 20 20h602v347q0 75 28.5 130.5t85 86t137.5 30.5h143q20 0 20 -20v-352h111zM942.5 623.5q-36.5 31.5 -36.5 82.5q0 33 15 60t42.5 42.5t63.5 15.5
h53q10 0 10 -10v-41q0 -10 -10 -10h-50q-30 0 -47.5 -15.5t-17.5 -41.5q0 -27 21 -40t57 -13h37q10 0 10 -10v-41q0 -10 -10 -10h-27q-74 0 -110.5 31.5z" />
    <glyph glyph-name="uniFC04" unicode="&#xfc04;" horiz-adv-x="1177" arabic-form="isolated" 
d="M1177 96v-96h-186q-20 0 -20 20v354h-77q-72 0 -109.5 -37t-37.5 -120v-419q0 -20 -20 -20h-677q-20 0 -20 20v56q0 20 20 20h602v347q0 75 28.5 130.5t85 86t137.5 30.5h143q20 0 20 -20v-352h111zM942.5 623.5q-36.5 31.5 -36.5 82.5q0 33 15 60t42.5 42.5t63.5 15.5
h53q10 0 10 -10v-41q0 -10 -10 -10h-50q-30 0 -47.5 -15.5t-17.5 -41.5q0 -27 21 -40t57 -13h37q10 0 10 -10v-41q0 -10 -10 -10h-27q-74 0 -110.5 31.5zM239 -405q-16 16 -16 39t16 38.5t39 15.5q22 0 38 -16t16 -38q0 -23 -15.5 -39t-38.5 -16t-39 16zM382 -405
q-16 16 -16 39t16 38.5t39 15.5t38.5 -16t15.5 -38q0 -23 -15.5 -39t-38.5 -16t-39 16z" />
    <glyph glyph-name="uniFC6E" unicode="&#xfc6e;" horiz-adv-x="1177" arabic-form="final" 
d="M1177 96v-96h-186q-20 0 -20 20v354h-77q-72 0 -109.5 -37t-37.5 -120v-419q0 -20 -20 -20h-677q-20 0 -20 20v56q0 20 20 20h602v347q0 75 28.5 130.5t85 86t137.5 30.5h143q20 0 20 -20v-352h111zM1017 -183q-16 16 -16 39t16 38.5t40 15.5q23 0 38.5 -16t15.5 -38
q0 -23 -15.5 -39t-38.5 -16q-24 0 -40 16z" />
    <glyph glyph-name="uniFC6F" unicode="&#xfc6f;" horiz-adv-x="1177" arabic-form="final" 
d="M1177 96v-96h-186q-20 0 -20 20v354h-77q-72 0 -109.5 -37t-37.5 -120v-419q0 -20 -20 -20h-677q-20 0 -20 20v56q0 20 20 20h602v347q0 75 28.5 130.5t85 86t137.5 30.5h143q20 0 20 -20v-352h111zM1017 -183q-16 16 -16 39t16 38.5t40 15.5q23 0 38.5 -16t15.5 -38
q0 -23 -15.5 -39t-38.5 -16q-24 0 -40 16zM239 -405q-16 16 -16 39t16 38.5t39 15.5q22 0 38 -16t16 -38q0 -23 -15.5 -39t-38.5 -16t-39 16zM382 -405q-16 16 -16 39t16 38.5t39 15.5t38.5 -16t15.5 -38q0 -23 -15.5 -39t-38.5 -16t-39 16z" />
    <glyph glyph-name="uniFC74" unicode="&#xfc74;" horiz-adv-x="1177" arabic-form="final" 
d="M1177 96v-96h-186q-20 0 -20 20v354h-77q-72 0 -109.5 -37t-37.5 -120v-419q0 -20 -20 -20h-677q-20 0 -20 20v56q0 20 20 20h602v347q0 75 28.5 130.5t85 86t137.5 30.5h143q20 0 20 -20v-352h111zM919 604q-16 16 -16 39t16 38.5t39 15.5q22 0 38 -15.5t16 -38.5
t-15.5 -39t-38.5 -16t-39 16zM1062 604q-16 16 -16 39t16 38.5t39 15.5t38.5 -15.5t15.5 -38.5t-15.5 -39t-38.5 -16t-39 16z" />
    <glyph glyph-name="uniFC75" unicode="&#xfc75;" horiz-adv-x="1177" arabic-form="final" 
d="M1177 96v-96h-186q-20 0 -20 20v354h-77q-72 0 -109.5 -37t-37.5 -120v-419q0 -20 -20 -20h-677q-20 0 -20 20v56q0 20 20 20h602v347q0 75 28.5 130.5t85 86t137.5 30.5h143q20 0 20 -20v-352h111zM919 604q-16 16 -16 39t16 38.5t39 15.5q22 0 38 -15.5t16 -38.5
t-15.5 -39t-38.5 -16t-39 16zM1062 604q-16 16 -16 39t16 38.5t39 15.5t38.5 -15.5t15.5 -38.5t-15.5 -39t-38.5 -16t-39 16zM239 -405q-16 16 -16 39t16 38.5t39 15.5q22 0 38 -16t16 -38q0 -23 -15.5 -39t-38.5 -16t-39 16zM382 -405q-16 16 -16 39t16 38.5t39 15.5
t38.5 -16t15.5 -38q0 -23 -15.5 -39t-38.5 -16t-39 16z" />
    <glyph glyph-name="uniFC7A" unicode="&#xfc7a;" horiz-adv-x="1177" arabic-form="final" 
d="M1177 96v-96h-186q-20 0 -20 20v354h-77q-72 0 -109.5 -37t-37.5 -120v-419q0 -20 -20 -20h-677q-20 0 -20 20v56q0 20 20 20h602v347q0 75 28.5 130.5t85 86t137.5 30.5h143q20 0 20 -20v-352h111zM976 724q-16 16 -16 39t16 38.5t40 15.5q23 0 38.5 -15.5t15.5 -38.5
t-15.5 -39t-38.5 -16q-24 0 -40 16zM905 605q-16 16 -16 39t16 38.5t39 15.5q22 0 38 -15.5t16 -38.5t-15.5 -39t-38.5 -16t-39 16zM1048 605q-16 16 -16 39t16 38.5t39 15.5t38.5 -15.5t15.5 -38.5t-15.5 -39t-38.5 -16t-39 16z" />
    <glyph glyph-name="uniFC7B" unicode="&#xfc7b;" horiz-adv-x="1177" arabic-form="final" 
d="M1177 96v-96h-186q-20 0 -20 20v354h-77q-72 0 -109.5 -37t-37.5 -120v-419q0 -20 -20 -20h-677q-20 0 -20 20v56q0 20 20 20h602v347q0 75 28.5 130.5t85 86t137.5 30.5h143q20 0 20 -20v-352h111zM976 724q-16 16 -16 39t16 38.5t40 15.5q23 0 38.5 -15.5t15.5 -38.5
t-15.5 -39t-38.5 -16q-24 0 -40 16zM905 605q-16 16 -16 39t16 38.5t39 15.5q22 0 38 -15.5t16 -38.5t-15.5 -39t-38.5 -16t-39 16zM1048 605q-16 16 -16 39t16 38.5t39 15.5t38.5 -15.5t15.5 -38.5t-15.5 -39t-38.5 -16t-39 16zM239 -405q-16 16 -16 39t16 38.5t39 15.5
q22 0 38 -16t16 -38q0 -23 -15.5 -39t-38.5 -16t-39 16zM382 -405q-16 16 -16 39t16 38.5t39 15.5t38.5 -16t15.5 -38q0 -23 -15.5 -39t-38.5 -16t-39 16z" />
    <glyph glyph-name="uniFC8E" unicode="&#xfc8e;" horiz-adv-x="1177" arabic-form="final" 
d="M1177 96v-96h-186q-20 0 -20 20v354h-77q-72 0 -109.5 -37t-37.5 -120v-419q0 -20 -20 -20h-677q-20 0 -20 20v56q0 20 20 20h602v347q0 75 28.5 130.5t85 86t137.5 30.5h143q20 0 20 -20v-352h111zM979 605q-16 16 -16 39t16 38.5t40 15.5q23 0 38.5 -15.5t15.5 -38.5
t-15.5 -39t-38.5 -16q-24 0 -40 16z" />
    <glyph glyph-name="uniFC8F" unicode="&#xfc8f;" horiz-adv-x="1177" arabic-form="final" 
d="M1177 96v-96h-186q-20 0 -20 20v354h-77q-72 0 -109.5 -37t-37.5 -120v-419q0 -20 -20 -20h-677q-20 0 -20 20v56q0 20 20 20h602v347q0 75 28.5 130.5t85 86t137.5 30.5h143q20 0 20 -20v-352h111zM979 605q-16 16 -16 39t16 38.5t40 15.5q23 0 38.5 -15.5t15.5 -38.5
t-15.5 -39t-38.5 -16q-24 0 -40 16zM239 -405q-16 16 -16 39t16 38.5t39 15.5q22 0 38 -16t16 -38q0 -23 -15.5 -39t-38.5 -16t-39 16zM382 -405q-16 16 -16 39t16 38.5t39 15.5t38.5 -16t15.5 -38q0 -23 -15.5 -39t-38.5 -16t-39 16z" />
    <glyph glyph-name="uniFC95" unicode="&#xfc95;" horiz-adv-x="1177" arabic-form="final" 
d="M1177 96v-96h-186q-20 0 -20 20v354h-77q-72 0 -109.5 -37t-37.5 -120v-419q0 -20 -20 -20h-677q-20 0 -20 20v56q0 20 20 20h602v347q0 75 28.5 130.5t85 86t137.5 30.5h143q20 0 20 -20v-352h111zM913 -183q-16 16 -16 39t16 38.5t39 15.5q22 0 38 -16t16 -38
q0 -23 -15.5 -39t-38.5 -16t-39 16zM1056 -183q-16 16 -16 39t16 38.5t39 15.5t38.5 -16t15.5 -38q0 -23 -15.5 -39t-38.5 -16t-39 16z" />
    <glyph glyph-name="uniFC96" unicode="&#xfc96;" horiz-adv-x="1177" arabic-form="final" 
d="M1177 96v-96h-186q-20 0 -20 20v354h-77q-72 0 -109.5 -37t-37.5 -120v-419q0 -20 -20 -20h-677q-20 0 -20 20v56q0 20 20 20h602v347q0 75 28.5 130.5t85 86t137.5 30.5h143q20 0 20 -20v-352h111zM913 -183q-16 16 -16 39t16 38.5t39 15.5q22 0 38 -16t16 -38
q0 -23 -15.5 -39t-38.5 -16t-39 16zM1056 -183q-16 16 -16 39t16 38.5t39 15.5t38.5 -16t15.5 -38q0 -23 -15.5 -39t-38.5 -16t-39 16zM239 -405q-16 16 -16 39t16 38.5t39 15.5q22 0 38 -16t16 -38q0 -23 -15.5 -39t-38.5 -16t-39 16zM382 -405q-16 16 -16 39t16 38.5
t39 15.5t38.5 -16t15.5 -38q0 -23 -15.5 -39t-38.5 -16t-39 16z" />
    <glyph glyph-name="uniFDFA" unicode="&#xfdfa;" horiz-adv-x="1057" arabic-form="isolated" 
d="M35 -116q0 4 24 15q16 6 26.5 11.5t20.5 13.5l26 20q-10 16 -10 40q0 13 8.5 28t21 24.5t22.5 9.5l6 -2q16 -10 29 -10q18 0 36 23l23 42q-29 9 -46.5 20t-29.5 32.5t-20 59.5q-29 -50 -79 -50q-16 0 -35.5 6.5t-19.5 13.5q0 22 28 46.5t57 38.5q16 8 43 17l-2 17l20 33
q8 -108 21 -141q14 -32 56 -45l-13 132l19 43l17 -180q53 -6 95 -6q104 0 177 40q7 18 12 28t7 10q4 0 4 -9q0 -12 -4 -25q38 -35 59 -35q26 0 42 43l-13 161q-73 0 -90 74q-8 -32 -17 -50.5t-24 -21.5l3 -3q36 0 52.5 -8.5t16.5 -29.5q0 -15 -6 -26t-19 -20
q-41 -30 -82 -44.5t-78 -14.5q-46 0 -74 23.5t-28 65.5q0 34 16 67q-28 8 -38 43q-18 -51 -57 -51q-47 0 -47 77l-27 -24q-7 -7 -39 -7q-49 0 -49 18q0 7 6 20t15 24t17 14l76 37v10l17 36l4 -120q1 -21 8.5 -31.5t23.5 -10.5q15 0 29.5 10.5t16.5 22.5l-16 114l18 39
l28 -161q9 -21 33 -21q23 0 23 13q0 23 -16 74l-14 46l-6 19l13 33q40 -123 40 -157q0 -14 -4.5 -31.5t-13 -29t-17.5 -11.5q-4 0 -9 3q-7 -18 -7 -39q0 -75 91 -75q72 0 142 48q2 2 2 3q0 6 -38 12l-21 3q-39 6 -40 7q-4 3 -4 8q0 9 17 32q36 15 50.5 29t14.5 38
q0 94 -20 231l17 56q24 -208 38 -256q18 -57 72 -66l-5 96l21 45l8 -140q29 11 60 36l30 -21q20 -12 39 -15q16 17 44 39t54 38t37 16q12 0 28 -7t27.5 -18t11.5 -22q0 -9 -7.5 -24.5t-18.5 -28.5t-21 -17q-23 -11 -52.5 -16t-72.5 -5q-27 0 -39 2q-24 -47 -38 -47
q-4 0 -4 6q0 16 22 47q-43 16 -48 26q-35 -23 -50 -26q7 -139 25 -176q19 -37 87 -39q-22 16 -22 44q0 22 13.5 47.5t35 43t44.5 17.5q18 0 36 -8t29.5 -19.5t11.5 -20.5q-25 9 -52 9q-34 0 -65 -14q-26 -14 -26 -27q0 -9 11.5 -24.5t28 -28.5t29.5 -15q27 3 110 32
q17 6 25 11l-17 -37q-101 -53 -191 -53q-49 0 -78.5 18t-40.5 55q-30 -65 -57 -65q-26 0 -67 44q-65 -56 -197 -56q-37 0 -70 5q4 -37 11.5 -63t20.5 -39q44 -44 176 -44q112 0 165 32q15 37 28 37q4 0 4 -8q0 -14 -12 -44q6 -13 27 -13q27 0 49 12q21 66 33 66q4 0 4 -11
q0 -20 -10 -43q29 -13 44 -13q8 0 8 4t-8 38l17 36q12 -36 12 -52q0 -67 -44 -67q-23 0 -48 19q-15 -26 -59 -26q-48 0 -48 26q-29 -19 -80 -27t-105 -8q-68 0 -112 13.5t-67.5 47t-23.5 93.5l-22 -32q-9 -13 -15 -19t-11 -7q12 -21 12 -41q0 -26 -16 -42q-8 -8 -21 -8
q-20 0 -61 23q-14 -31 -42 -47q-7 -4 -23 -4q-10 0 -22 -3l-11 -4q-6 0 -6 5zM618 612l197 93l-6 -22l-195 -96zM231 653q0 20 3 27l6 6q0 -37 17 -37q12 0 19 16l-2 23l9 14l4 -30q1 -16 15 -16q11 0 11 12q0 4 -3 25l7 10q7 -17 7 -38q0 -32 -21 -32q-13 0 -21 8
q-18 -15 -30 -15q-21 0 -21 27zM438 616l22 57l16 -226q-3 -66 -13 -73zM742 518q0 30 26 44q126 73 211 102l-9 -25q-26 -9 -78.5 -33.5t-93 -47t-40.5 -31.5q0 -11 26 -25l-9 -24q-33 11 -33 40zM190 448l-1 39q-16 -9 -41 -17q-17 -8 -25.5 -14.5t-8.5 -10.5
q0 -10 25 -10q29 0 51 13zM916 390.5q31 4.5 52 12t21 17.5q0 6 -17 15.5t-27 9.5q-19 0 -52 -19.5t-55 -38.5l20 -1q27 0 58 4.5zM171 225l-2 38q-88 -34 -88 -52q0 -10 31 -10q34 0 59 24zM842.5 -162.5q-22.5 7.5 -40.5 17.5t-18 14t5 4q6 0 27 -7q22 -8 37 -8
q68 0 138 106l-7 22q-18 -26 -37 -26q-15 0 -25.5 13.5t-10.5 31.5q0 14 7.5 33t17.5 33.5t18 14.5t21.5 -12t23 -31.5t9.5 -40.5q0 -34 -19 -74.5t-49 -69t-60 -28.5q-15 0 -37.5 7.5zM450 41l29 35l47 -35l27 33l49 -37l-26 -31l-48 35l-28 -36zM979 10q-6 32 -26 32
q-8 0 -13 -6t-7 -19q5 -18 31 -18q13 0 15 11zM214 -39q0 8 -7.5 18.5t-16.5 16.5q-20 14 -34 14t-14 -12q0 -8 12 -18t27.5 -17t25.5 -7q7 0 7 5zM381 -186q0 7 32 7q35 0 50 3t31 15q28 19 40 19q8 0 19 -8t13 -8q15 0 18 17q1 7 3.5 10t7.5 3q4 0 4 -6q0 -7 -1 -9
q2 -5 11 -6q12 0 12 12q0 16 11 16q0 -16 -2 -30q-6 -13 -25 -13q-10 0 -14 4q-15 -16 -30 -16q-7 0 -16 9q-8 8 -13 8q-8 0 -37 -17q-29 -18 -70 -18q-44 0 -44 8z" />
    <glyph glyph-name="uniFE82" unicode="&#x622;" horiz-adv-x="281" arabic-form="final" 
d="M177.5 18q-46.5 18 -74.5 56.5t-28 96.5v445q0 20 20 20h55q20 0 20 -20v-411q0 -58 30.5 -83.5t80.5 -25.5v-96q-57 0 -103.5 18zM166 693.5q-21 5.5 -47 15.5q-15 5 -29.5 9.5t-25.5 4.5q-14 0 -26 -5.5t-26 -15.5q-4 -3 -8 -3q-5 0 -10 5l-18 25q-4 6 -4 9q0 5 5 10
q17 17 39.5 28t44.5 11q15 0 28.5 -4t36.5 -12q28 -10 44.5 -14.5t36.5 -4.5q15 0 27 4l4 1q9 0 12 -11l8 -29l1 -5q0 -5 -2.5 -9t-6.5 -6q-17 -9 -39 -9q-24 0 -45 5.5z" />
    <glyph glyph-name="uniFE84" unicode="&#x623;" horiz-adv-x="281" arabic-form="final" 
d="M177.5 18q-46.5 18 -74.5 56.5t-28 96.5v445q0 20 20 20h55q20 0 20 -20v-411q0 -58 30.5 -83.5t80.5 -25.5v-96q-57 0 -103.5 18zM215.5 732.5q3.5 -3.5 3.5 -9.5v-24q0 -6 -3.5 -9.5t-9.5 -3.5h-166q-6 0 -9.5 3.5t-3.5 9.5v24q0 6 3.5 9.5t9.5 3.5h43q-14 18 -14 43
q0 36 25 58.5t71 22.5h31q6 0 9.5 -3.5t3.5 -9.5v-24q0 -6 -3.5 -9.5t-9.5 -3.5h-30q-23 0 -35 -10.5t-12 -27.5q0 -36 52 -36h35q6 0 9.5 -3.5z" />
    <glyph glyph-name="uniFE86" unicode="&#x624;" horiz-adv-x="595" arabic-form="final" 
d="M595 0h-124q-2 -83 -30 -131.5t-80.5 -69.5t-132.5 -21q-60 0 -112 16q-19 8 -15 27l8 47q5 20 24 16q29 -6 54.5 -9.5t56.5 -3.5q51 0 80 13.5t40.5 39t11.5 63.5v13h-63q-79 0 -139.5 27.5t-94.5 80t-34 123.5q0 74 31 127.5t90 81.5t141 28h144q20 0 20 -20v-352h124
v-96zM376 96l1 276h-97q-40 0 -71.5 -16.5t-49.5 -47t-18 -72.5q0 -66 45.5 -103t126.5 -37h63zM398 602v-40q0 -10 -10 -10h-220q-10 0 -10 10v40q0 10 10 10h56q-23 27 -23 62q0 30 15 55t43 40t65 15h51q10 0 10 -10v-41q0 -10 -10 -10h-48q-31 0 -48.5 -15t-17.5 -41
t21.5 -40.5t56.5 -14.5h49q10 0 10 -10z" />
    <glyph glyph-name="uniFE88" unicode="&#x625;" horiz-adv-x="276" arabic-form="final" 
d="M172.5 18q-46.5 18 -74.5 56.5t-28 96.5v465q0 20 20 20h55q20 0 20 -20v-431q0 -58 30.5 -83.5t80.5 -25.5v-96q-57 0 -103.5 18zM210.5 -183.5q3.5 -3.5 3.5 -9.5v-26q0 -6 -3.5 -9.5t-9.5 -3.5h-166q-6 0 -9.5 3.5t-3.5 9.5v26q0 6 3.5 9.5t9.5 3.5h43q-15 18 -15 43
q0 22 11 40.5t33 29.5t53 11h31q6 0 9.5 -3.5t3.5 -9.5v-25q0 -6 -3.5 -9.5t-9.5 -3.5h-30q-23 0 -35 -10t-12 -27q0 -36 52 -36h35q6 0 9.5 -3.5z" />
    <glyph glyph-name="uniFE8A" unicode="&#x626;" horiz-adv-x="888" arabic-form="final" 
d="M888 96v-96h-45q-30 0 -59 3q0 -107 -88.5 -166t-268.5 -59q-121 0 -210.5 30t-138 86.5t-48.5 134.5q0 39 8 81t21 79q8 19 26 14l49 -11q9 -2 12.5 -8.5t0.5 -15.5q-11 -38 -16.5 -68t-5.5 -59q0 -86 79 -126.5t223 -40.5q139 0 200.5 33.5t61.5 93.5q0 10 -2 22
q-93 29 -163 84q-9 8 -9 16q0 6 5 14l32 45q6 10 15 10q5 0 12 -5q54 -37 96 -56.5t86.5 -27t107.5 -7.5h19zM318 351v-40q0 -10 -10 -10h-220q-10 0 -10 10v40q0 10 10 10h56q-23 27 -23 62q0 30 15 55t43 40t65 15h51q10 0 10 -10v-41q0 -10 -10 -10h-48q-31 0 -48.5 -15
t-17.5 -41t21.5 -40.5t56.5 -14.5h49q10 0 10 -10z" />
    <glyph glyph-name="uniFE8B" unicode="&#x626;" horiz-adv-x="313" arabic-form="initial" 
d="M243 408v-388q0 -20 -20 -20h-223q-13 0 -20.5 3.5t-11 13.5t-3.5 29q0 21 3.5 31.5t11 14.5t20.5 4h148v312q0 20 20 20h55q20 0 20 -20zM311 562v-40q0 -10 -10 -10h-220q-10 0 -10 10v40q0 10 10 10h56q-23 27 -23 62q0 30 15 55t43 40t65 15h51q10 0 10 -10v-41
q0 -10 -10 -10h-48q-31 0 -48.5 -15t-17.5 -41t21.5 -40.5t56.5 -14.5h49q10 0 10 -10z" />
    <glyph glyph-name="uniFE8C" unicode="&#x626;" horiz-adv-x="364" arabic-form="medial" 
d="M364 96v-96h-13q-87 0 -130 75q-49 -75 -165 -75h-56q-13 0 -20.5 3.5t-11 13.5t-3.5 29q0 21 3.5 31.5t11 14.5t20.5 4h49q40 0 63 8t34.5 29t11.5 62v213q0 20 20 20h55q20 0 20 -20v-203q0 -56 28 -82.5t74 -26.5h9zM321 562v-40q0 -10 -10 -10h-220q-10 0 -10 10v40
q0 10 10 10h56q-23 27 -23 62q0 30 15 55t43 40t65 15h51q10 0 10 -10v-41q0 -10 -10 -10h-48q-31 0 -48.5 -15t-17.5 -41t21.5 -40.5t56.5 -14.5h49q10 0 10 -10z" />
    <glyph glyph-name="uniFE8E" unicode="&#x627;" horiz-adv-x="276" arabic-form="final" 
d="M172.5 18q-46.5 18 -74.5 56.5t-28 96.5v465q0 20 20 20h55q20 0 20 -20v-431q0 -58 30.5 -83.5t80.5 -25.5v-96q-57 0 -103.5 18z" />
    <glyph glyph-name="uniFE90" unicode="&#x628;" horiz-adv-x="1015" arabic-form="final" 
d="M1015 96v-96h-13q-87 0 -130 75q-49 -75 -165 -75h-410q-125 0 -196 52.5t-71 159.5q0 55 23 141q2 9 8.5 13t16.5 2l47 -11q20 -5 16 -24q-18 -81 -18 -121q0 -60 46 -88t135 -28h396q40 0 63 8t34.5 29t11.5 62v213q0 20 20 20h55q20 0 20 -20v-203q0 -56 28 -82.5
t74 -26.5h9zM427 -183q-16 16 -16 39t16 38.5t40 15.5q23 0 38.5 -16t15.5 -38q0 -23 -15.5 -39t-38.5 -16q-24 0 -40 16z" />
    <glyph glyph-name="uniFE91" unicode="&#x628;" horiz-adv-x="313" arabic-form="initial" 
d="M243 408v-388q0 -20 -20 -20h-223q-13 0 -20.5 3.5t-11 13.5t-3.5 29q0 21 3.5 31.5t11 14.5t20.5 4h148v312q0 20 20 20h55q20 0 20 -20zM124 -183q-16 16 -16 39t16 38.5t40 15.5q23 0 38.5 -16t15.5 -38q0 -23 -15.5 -39t-38.5 -16q-24 0 -40 16z" />
    <glyph glyph-name="uniFE92" unicode="&#x628;" horiz-adv-x="364" arabic-form="medial" 
d="M364 96v-96h-13q-87 0 -130 75q-49 -75 -165 -75h-56q-13 0 -20.5 3.5t-11 13.5t-3.5 29q0 21 3.5 31.5t11 14.5t20.5 4h49q40 0 63 8t34.5 29t11.5 62v213q0 20 20 20h55q20 0 20 -20v-203q0 -56 28 -82.5t74 -26.5h9zM166 -183q-16 16 -16 39t16 38.5t40 15.5
q23 0 38.5 -16t15.5 -38q0 -23 -15.5 -39t-38.5 -16q-24 0 -40 16z" />
    <glyph glyph-name="uniFE94" unicode="&#x629;" horiz-adv-x="555" arabic-form="final" 
d="M474.5 121.5q30.5 -25.5 80.5 -25.5v-96q-60 0 -108.5 20.5t-73.5 61.5q-54 -20 -109 -20q-68 0 -121 23.5t-83 68.5t-30 107t31 109t86 72.5t126 25.5h76v10q0 20 20 20h55q20 0 20 -20v-273q0 -58 30.5 -83.5zM349 171v201l-90 1q-60 1 -96.5 -28t-36.5 -81t36.5 -79
t105.5 -27q46 0 81 13zM162 605q-16 16 -16 39t16 38.5t39 15.5q22 0 38 -15.5t16 -38.5t-15.5 -39t-38.5 -16t-39 16zM305 605q-16 16 -16 39t16 38.5t39 15.5t38.5 -15.5t15.5 -38.5t-15.5 -39t-38.5 -16t-39 16z" />
    <glyph glyph-name="uniFE96" unicode="&#x62a;" horiz-adv-x="1015" arabic-form="final" 
d="M1015 96v-96h-13q-87 0 -130 75q-49 -75 -165 -75h-410q-125 0 -196 52.5t-71 159.5q0 55 23 141q2 9 8.5 13t16.5 2l47 -11q20 -5 16 -24q-18 -81 -18 -121q0 -60 46 -88t135 -28h396q40 0 63 8t34.5 29t11.5 62v213q0 20 20 20h55q20 0 20 -20v-203q0 -56 28 -82.5
t74 -26.5h9zM356 474q-16 16 -16 39t16 38.5t39 15.5q22 0 38 -15.5t16 -38.5t-15.5 -39t-38.5 -16t-39 16zM499 474q-16 16 -16 39t16 38.5t39 15.5t38.5 -15.5t15.5 -38.5t-15.5 -39t-38.5 -16t-39 16z" />
    <glyph glyph-name="uniFE97" unicode="&#x62a;" horiz-adv-x="313" arabic-form="initial" 
d="M243 408v-388q0 -20 -20 -20h-223q-13 0 -20.5 3.5t-11 13.5t-3.5 29q0 21 3.5 31.5t11 14.5t20.5 4h148v312q0 20 20 20h55q20 0 20 -20zM85 565q-16 16 -16 39t16 38.5t39 15.5q22 0 38 -15.5t16 -38.5t-15.5 -39t-38.5 -16t-39 16zM228 565q-16 16 -16 39t16 38.5
t39 15.5t38.5 -15.5t15.5 -38.5t-15.5 -39t-38.5 -16t-39 16z" />
    <glyph glyph-name="uniFE98" unicode="&#x62a;" horiz-adv-x="364" arabic-form="medial" 
d="M364 96v-96h-13q-87 0 -130 75q-49 -75 -165 -75h-56q-13 0 -20.5 3.5t-11 13.5t-3.5 29q0 21 3.5 31.5t11 14.5t20.5 4h49q40 0 63 8t34.5 29t11.5 62v213q0 20 20 20h55q20 0 20 -20v-203q0 -56 28 -82.5t74 -26.5h9zM95 565q-16 16 -16 39t16 38.5t39 15.5
q22 0 38 -15.5t16 -38.5t-15.5 -39t-38.5 -16t-39 16zM238 565q-16 16 -16 39t16 38.5t39 15.5t38.5 -15.5t15.5 -38.5t-15.5 -39t-38.5 -16t-39 16z" />
    <glyph glyph-name="uniFE9A" unicode="&#x62b;" horiz-adv-x="1015" arabic-form="final" 
d="M1015 96v-96h-13q-87 0 -130 75q-49 -75 -165 -75h-410q-125 0 -196 52.5t-71 159.5q0 55 23 141q2 9 8.5 13t16.5 2l47 -11q20 -5 16 -24q-18 -81 -18 -121q0 -60 46 -88t135 -28h396q40 0 63 8t34.5 29t11.5 62v213q0 20 20 20h55q20 0 20 -20v-203q0 -56 28 -82.5
t74 -26.5h9zM427 593q-16 16 -16 39t16 38.5t40 15.5q23 0 38.5 -15.5t15.5 -38.5t-15.5 -39t-38.5 -16q-24 0 -40 16zM356 474q-16 16 -16 39t16 38.5t39 15.5q22 0 38 -15.5t16 -38.5t-15.5 -39t-38.5 -16t-39 16zM499 474q-16 16 -16 39t16 38.5t39 15.5t38.5 -15.5
t15.5 -38.5t-15.5 -39t-38.5 -16t-39 16z" />
    <glyph glyph-name="uniFE9B" unicode="&#x62b;" horiz-adv-x="313" arabic-form="initial" 
d="M243 408v-388q0 -20 -20 -20h-223q-13 0 -20.5 3.5t-11 13.5t-3.5 29q0 21 3.5 31.5t11 14.5t20.5 4h148v312q0 20 20 20h55q20 0 20 -20zM156 684q-16 16 -16 39t16 38.5t40 15.5q23 0 38.5 -15.5t15.5 -38.5t-15.5 -39t-38.5 -16q-24 0 -40 16zM85 565q-16 16 -16 39
t16 38.5t39 15.5q22 0 38 -15.5t16 -38.5t-15.5 -39t-38.5 -16t-39 16zM228 565q-16 16 -16 39t16 38.5t39 15.5t38.5 -15.5t15.5 -38.5t-15.5 -39t-38.5 -16t-39 16z" />
    <glyph glyph-name="uniFE9C" unicode="&#x62b;" horiz-adv-x="364" arabic-form="medial" 
d="M364 96v-96h-13q-87 0 -130 75q-49 -75 -165 -75h-56q-13 0 -20.5 3.5t-11 13.5t-3.5 29q0 21 3.5 31.5t11 14.5t20.5 4h49q40 0 63 8t34.5 29t11.5 62v213q0 20 20 20h55q20 0 20 -20v-203q0 -56 28 -82.5t74 -26.5h9zM166 684q-16 16 -16 39t16 38.5t40 15.5
q23 0 38.5 -15.5t15.5 -38.5t-15.5 -39t-38.5 -16q-24 0 -40 16zM95 565q-16 16 -16 39t16 38.5t39 15.5q22 0 38 -15.5t16 -38.5t-15.5 -39t-38.5 -16t-39 16zM238 565q-16 16 -16 39t16 38.5t39 15.5t38.5 -15.5t15.5 -38.5t-15.5 -39t-38.5 -16t-39 16z" />
    <glyph glyph-name="uniFE9E" unicode="&#x62c;" horiz-adv-x="675" arabic-form="final" 
d="M675 96v-96h-408q-45 0 -79.5 -15.5t-53.5 -44.5t-19 -68t23 -68t67 -44t105 -15h73q20 0 20 -20v-54q0 -20 -20 -20h-61q-95 0 -162.5 25.5t-103.5 74.5t-36 118q0 67 30.5 118.5t88 80t134.5 28.5h203v106q0 93 -40 134t-105 41q-75 0 -140 -77q-7 -9 -15 -9
q-6 0 -13 6l-35 30q-8 5 -8 15q0 9 5 14q44 58 99.5 85t112.5 27q74 0 126.5 -29.5t80 -84t27.5 -126.5v-132h104zM260 -166q-16 16 -16 39t16 38.5t40 15.5q23 0 38.5 -16t15.5 -38q0 -23 -15.5 -39t-38.5 -16q-24 0 -40 16z" />
    <glyph glyph-name="uniFE9F" unicode="&#x62c;" horiz-adv-x="555" arabic-form="initial" 
d="M387.5 438.5q52.5 -29.5 80 -84t27.5 -126.5v-208q0 -20 -20 -20h-475q-13 0 -20.5 3.5t-11 13.5t-3.5 29q0 21 3.5 31.5t11 14.5t20.5 4h400v106q0 93 -40 134t-105 41q-75 0 -140 -77q-7 -9 -15 -9q-5 0 -13 6l-35 30q-8 5 -8 15q0 9 5 14q44 58 99.5 85t112.5 27
q74 0 126.5 -29.5zM221 -183q-16 16 -16 39t16 38.5t40 15.5q23 0 38.5 -16t15.5 -38q0 -23 -15.5 -39t-38.5 -16q-24 0 -40 16z" />
    <glyph glyph-name="uniFEA0" unicode="&#x62c;" horiz-adv-x="599" arabic-form="medial" 
d="M599 96v-96h-599q-13 0 -20.5 3.5t-11 13.5t-3.5 29q0 21 3.5 31.5t11 14.5t20.5 4h400v106q0 93 -40 134t-105 41q-75 0 -140 -77q-7 -9 -15 -9q-5 0 -13 6l-35 30q-8 5 -8 15q0 9 5 14q44 58 99.5 85t112.5 27q74 0 126.5 -29.5t80 -84t27.5 -126.5v-132h104zM221 -183
q-16 16 -16 39t16 38.5t40 15.5q23 0 38.5 -16t15.5 -38q0 -23 -15.5 -39t-38.5 -16q-24 0 -40 16z" />
    <glyph glyph-name="uniFEA2" unicode="&#x62d;" horiz-adv-x="675" arabic-form="final" 
d="M675 96v-96h-408q-45 0 -79.5 -15.5t-53.5 -44.5t-19 -68t23 -68t67 -44t105 -15h73q20 0 20 -20v-54q0 -20 -20 -20h-61q-95 0 -162.5 25.5t-103.5 74.5t-36 118q0 67 30.5 118.5t88 80t134.5 28.5h203v106q0 93 -40 134t-105 41q-75 0 -140 -77q-7 -9 -15 -9
q-6 0 -13 6l-35 30q-8 5 -8 15q0 9 5 14q44 58 99.5 85t112.5 27q74 0 126.5 -29.5t80 -84t27.5 -126.5v-132h104z" />
    <glyph glyph-name="uniFEA3" unicode="&#x62d;" horiz-adv-x="555" arabic-form="initial" 
d="M387.5 438.5q52.5 -29.5 80 -84t27.5 -126.5v-208q0 -20 -20 -20h-475q-13 0 -20.5 3.5t-11 13.5t-3.5 29q0 21 3.5 31.5t11 14.5t20.5 4h400v106q0 93 -40 134t-105 41q-75 0 -140 -77q-7 -9 -15 -9q-5 0 -13 6l-35 30q-8 5 -8 15q0 9 5 14q44 58 99.5 85t112.5 27
q74 0 126.5 -29.5z" />
    <glyph glyph-name="uniFEA4" unicode="&#x62d;" horiz-adv-x="599" arabic-form="medial" 
d="M599 96v-96h-599q-13 0 -20.5 3.5t-11 13.5t-3.5 29q0 21 3.5 31.5t11 14.5t20.5 4h400v106q0 93 -40 134t-105 41q-75 0 -140 -77q-7 -9 -15 -9q-5 0 -13 6l-35 30q-8 5 -8 15q0 9 5 14q44 58 99.5 85t112.5 27q74 0 126.5 -29.5t80 -84t27.5 -126.5v-132h104z" />
    <glyph glyph-name="uniFEA6" unicode="&#x62e;" horiz-adv-x="675" arabic-form="final" 
d="M675 96v-96h-408q-45 0 -79.5 -15.5t-53.5 -44.5t-19 -68t23 -68t67 -44t105 -15h73q20 0 20 -20v-54q0 -20 -20 -20h-61q-95 0 -162.5 25.5t-103.5 74.5t-36 118q0 67 30.5 118.5t88 80t134.5 28.5h203v106q0 93 -40 134t-105 41q-75 0 -140 -77q-7 -9 -15 -9
q-6 0 -13 6l-35 30q-8 5 -8 15q0 9 5 14q44 58 99.5 85t112.5 27q74 0 126.5 -29.5t80 -84t27.5 -126.5v-132h104zM297 605q-16 16 -16 39t16 38.5t40 15.5q23 0 38.5 -15.5t15.5 -38.5t-15.5 -39t-38.5 -16q-24 0 -40 16z" />
    <glyph glyph-name="uniFEA7" unicode="&#x62e;" horiz-adv-x="555" arabic-form="initial" 
d="M387.5 438.5q52.5 -29.5 80 -84t27.5 -126.5v-208q0 -20 -20 -20h-475q-13 0 -20.5 3.5t-11 13.5t-3.5 29q0 21 3.5 31.5t11 14.5t20.5 4h400v106q0 93 -40 134t-105 41q-75 0 -140 -77q-7 -9 -15 -9q-5 0 -13 6l-35 30q-8 5 -8 15q0 9 5 14q44 58 99.5 85t112.5 27
q74 0 126.5 -29.5zM221 605q-16 16 -16 39t16 38.5t40 15.5q23 0 38.5 -15.5t15.5 -38.5t-15.5 -39t-38.5 -16q-24 0 -40 16z" />
    <glyph glyph-name="uniFEA8" unicode="&#x62e;" horiz-adv-x="599" arabic-form="medial" 
d="M599 96v-96h-599q-13 0 -20.5 3.5t-11 13.5t-3.5 29q0 21 3.5 31.5t11 14.5t20.5 4h400v106q0 93 -40 134t-105 41q-75 0 -140 -77q-7 -9 -15 -9q-5 0 -13 6l-35 30q-8 5 -8 15q0 9 5 14q44 58 99.5 85t112.5 27q74 0 126.5 -29.5t80 -84t27.5 -126.5v-132h104zM221 605
q-16 16 -16 39t16 38.5t40 15.5q23 0 38.5 -15.5t15.5 -38.5t-15.5 -39t-38.5 -16q-24 0 -40 16z" />
    <glyph glyph-name="uniFEAA" unicode="&#x62f;" horiz-adv-x="568" arabic-form="final" 
d="M568 96v-96h-508q-20 0 -20 20v56q0 20 20 20h309v141q0 64 -39 100.5t-108 36.5h-91q-20 0 -20 20v54q0 20 20 20h82q79 0 135 -27t86 -78t30 -122v-145h104z" />
    <glyph glyph-name="uniFEAC" unicode="&#x630;" horiz-adv-x="568" arabic-form="final" 
d="M568 96v-96h-508q-20 0 -20 20v56q0 20 20 20h309v141q0 64 -39 100.5t-108 36.5h-91q-20 0 -20 20v54q0 20 20 20h82q79 0 135 -27t86 -78t30 -122v-145h104zM195 605q-16 16 -16 39t16 38.5t40 15.5q23 0 38.5 -15.5t15.5 -38.5t-15.5 -39t-38.5 -16q-24 0 -40 16z" />
    <glyph glyph-name="uniFEAE" unicode="&#x631;" horiz-adv-x="374" arabic-form="final" 
d="M374 96v-96h-13q-60 0 -98 35v-28q0 -85 -19.5 -134.5t-63.5 -72t-120 -22.5q-20 0 -20 20v56q0 20 20 20h4q43 0 65.5 11.5t30.5 34.5t8 62v426q0 20 20 20h55q20 0 20 -20v-203q0 -56 28 -82.5t74 -26.5h9z" />
    <glyph glyph-name="uniFEB0" unicode="&#x632;" horiz-adv-x="374" arabic-form="final" 
d="M374 96v-96h-13q-60 0 -98 35v-28q0 -85 -19.5 -134.5t-63.5 -72t-120 -22.5q-20 0 -20 20v56q0 20 20 20h4q43 0 65.5 11.5t30.5 34.5t8 62v426q0 20 20 20h55q20 0 20 -20v-203q0 -56 28 -82.5t74 -26.5h9zM176 565q-16 16 -16 39t16 38.5t40 15.5q23 0 38.5 -15.5
t15.5 -38.5t-15.5 -39t-38.5 -16q-24 0 -40 16z" />
    <glyph glyph-name="uniFEB2" unicode="&#x633;" horiz-adv-x="1300" arabic-form="final" 
d="M1300 96v-96h-13q-86 0 -129 73q-22 -36 -57 -54.5t-79 -18.5h-32q-86 0 -129 73q-22 -36 -57 -54.5t-79 -18.5h-32q-61 0 -99 36q-6 -83 -42 -141t-97.5 -87.5t-142.5 -29.5q-82 0 -146 30t-100 87t-36 134q0 39 8 81t21 79q8 19 26 14l49 -11q9 -2 12.5 -8.5t0.5 -15.5
q-11 -38 -16.5 -68t-5.5 -59q0 -85 51.5 -126t135.5 -41q94 0 141 48.5t47 141.5v264q0 20 20 20h55q20 0 20 -20v-123q0 -56 28 -82.5t74 -26.5h21q38 0 58.5 21t20.5 78v183q0 20 20 20h55q20 0 20 -20v-173q0 -56 28 -82.5t74 -26.5h21q38 0 58.5 21t20.5 78v213
q0 20 20 20h55q20 0 20 -20v-203q0 -56 28 -82.5t74 -26.5h9z" />
    <glyph glyph-name="uniFEB3" unicode="&#x633;" horiz-adv-x="937" arabic-form="initial" 
d="M867 408v-388q0 -20 -20 -20h-176q-86 0 -129 73q-22 -36 -57 -54.5t-79 -18.5h-32q-45 0 -77 19t-53 55q-22 -37 -59 -55.5t-86 -18.5h-99q-13 0 -20.5 3.5t-11 13.5t-3.5 29q0 21 3.5 31.5t11 14.5t20.5 4h92q30 0 49 8t29.5 29.5t10.5 61.5v183q0 20 20 20h55
q20 0 20 -20v-173q0 -56 28 -82.5t74 -26.5h21q38 0 58.5 21t20.5 78v183q0 20 20 20h55q20 0 20 -20v-173q0 -56 28 -82.5t74 -26.5h97v312q0 20 20 20h55q20 0 20 -20z" />
    <glyph glyph-name="uniFEB4" unicode="&#x633;" horiz-adv-x="981" arabic-form="medial" 
d="M981 96v-96h-13q-86 0 -129 73q-22 -36 -57 -54.5t-79 -18.5h-32q-86 0 -129 73q-22 -36 -57 -54.5t-79 -18.5h-32q-45 0 -77 19t-53 55q-22 -37 -59 -55.5t-86 -18.5h-99q-13 0 -20.5 3.5t-11 13.5t-3.5 29q0 21 3.5 31.5t11 14.5t20.5 4h92q30 0 49 8t29.5 29.5
t10.5 61.5v183q0 20 20 20h55q20 0 20 -20v-173q0 -56 28 -82.5t74 -26.5h21q38 0 58.5 21t20.5 78v183q0 20 20 20h55q20 0 20 -20v-173q0 -56 28 -82.5t74 -26.5h21q38 0 58.5 21t20.5 78v213q0 20 20 20h55q20 0 20 -20v-203q0 -56 28 -82.5t74 -26.5h9z" />
    <glyph glyph-name="uniFEB6" unicode="&#x634;" horiz-adv-x="1300" arabic-form="final" 
d="M1300 96v-96h-13q-86 0 -129 73q-22 -36 -57 -54.5t-79 -18.5h-32q-86 0 -129 73q-22 -36 -57 -54.5t-79 -18.5h-32q-61 0 -99 36q-6 -83 -42 -141t-97.5 -87.5t-142.5 -29.5q-82 0 -146 30t-100 87t-36 134q0 39 8 81t21 79q8 19 26 14l49 -11q9 -2 12.5 -8.5t0.5 -15.5
q-11 -38 -16.5 -68t-5.5 -59q0 -85 51.5 -126t135.5 -41q94 0 141 48.5t47 141.5v264q0 20 20 20h55q20 0 20 -20v-123q0 -56 28 -82.5t74 -26.5h21q38 0 58.5 21t20.5 78v183q0 20 20 20h55q20 0 20 -20v-173q0 -56 28 -82.5t74 -26.5h21q38 0 58.5 21t20.5 78v213
q0 20 20 20h55q20 0 20 -20v-203q0 -56 28 -82.5t74 -26.5h9zM805 654q-16 16 -16 39t16 38.5t40 15.5q23 0 38.5 -15.5t15.5 -38.5t-15.5 -39t-38.5 -16q-24 0 -40 16zM734 535q-16 16 -16 39t16 38.5t39 15.5q22 0 38 -15.5t16 -38.5t-15.5 -39t-38.5 -16t-39 16zM877 535
q-16 16 -16 39t16 38.5t39 15.5t38.5 -15.5t15.5 -38.5t-15.5 -39t-38.5 -16t-39 16z" />
    <glyph glyph-name="uniFEB7" unicode="&#x634;" horiz-adv-x="937" arabic-form="initial" 
d="M867 408v-388q0 -20 -20 -20h-176q-86 0 -129 73q-22 -36 -57 -54.5t-79 -18.5h-32q-45 0 -77 19t-53 55q-22 -37 -59 -55.5t-86 -18.5h-99q-13 0 -20.5 3.5t-11 13.5t-3.5 29q0 21 3.5 31.5t11 14.5t20.5 4h92q30 0 49 8t29.5 29.5t10.5 61.5v183q0 20 20 20h55
q20 0 20 -20v-173q0 -56 28 -82.5t74 -26.5h21q38 0 58.5 21t20.5 78v183q0 20 20 20h55q20 0 20 -20v-173q0 -56 28 -82.5t74 -26.5h97v312q0 20 20 20h55q20 0 20 -20zM486 654q-16 16 -16 39t16 38.5t40 15.5q23 0 38.5 -15.5t15.5 -38.5t-15.5 -39t-38.5 -16
q-24 0 -40 16zM415 535q-16 16 -16 39t16 38.5t39 15.5q22 0 38 -15.5t16 -38.5t-15.5 -39t-38.5 -16t-39 16zM558 535q-16 16 -16 39t16 38.5t39 15.5t38.5 -15.5t15.5 -38.5t-15.5 -39t-38.5 -16t-39 16z" />
    <glyph glyph-name="uniFEB8" unicode="&#x634;" horiz-adv-x="981" arabic-form="medial" 
d="M981 96v-96h-13q-86 0 -129 73q-22 -36 -57 -54.5t-79 -18.5h-32q-86 0 -129 73q-22 -36 -57 -54.5t-79 -18.5h-32q-45 0 -77 19t-53 55q-22 -37 -59 -55.5t-86 -18.5h-99q-13 0 -20.5 3.5t-11 13.5t-3.5 29q0 21 3.5 31.5t11 14.5t20.5 4h92q30 0 49 8t29.5 29.5
t10.5 61.5v183q0 20 20 20h55q20 0 20 -20v-173q0 -56 28 -82.5t74 -26.5h21q38 0 58.5 21t20.5 78v183q0 20 20 20h55q20 0 20 -20v-173q0 -56 28 -82.5t74 -26.5h21q38 0 58.5 21t20.5 78v213q0 20 20 20h55q20 0 20 -20v-203q0 -56 28 -82.5t74 -26.5h9zM486 654
q-16 16 -16 39t16 38.5t40 15.5q23 0 38.5 -15.5t15.5 -38.5t-15.5 -39t-38.5 -16q-24 0 -40 16zM415 535q-16 16 -16 39t16 38.5t39 15.5q22 0 38 -15.5t16 -38.5t-15.5 -39t-38.5 -16t-39 16zM558 535q-16 16 -16 39t16 38.5t39 15.5t38.5 -15.5t15.5 -38.5t-15.5 -39
t-38.5 -16t-39 16z" />
    <glyph glyph-name="uniFEBA" unicode="&#x635;" horiz-adv-x="1180" arabic-form="final" 
d="M1180 96v-96h-590q-18 -108 -91 -165t-187 -57q-82 0 -146 30t-100 87t-36 134q0 39 8 81t21 79q8 19 26 14l49 -11q9 -2 12.5 -8.5t0.5 -15.5q-11 -38 -16.5 -68t-5.5 -59q0 -85 51.5 -126t135.5 -41q94 0 141 48.5t47 141.5v384q0 20 20 20h299q86 0 144 -39.5
t85.5 -105t27.5 -146.5v-81h104zM981 96v50q0 109 -43.5 167.5t-130.5 58.5h-212v-276h386z" />
    <glyph glyph-name="uniFEBB" unicode="&#x635;" horiz-adv-x="757" arabic-form="initial" 
d="M584 428.5q58 -39.5 85.5 -105t27.5 -146.5v-157q0 -20 -20 -20h-677q-13 0 -20.5 3.5t-11 13.5t-3.5 29q0 21 3.5 31.5t11 14.5t20.5 4h121v352q0 20 20 20h299q86 0 144 -39.5zM602 96v50q0 109 -43.5 167.5t-130.5 58.5h-212v-276h386z" />
    <glyph glyph-name="uniFEBC" unicode="&#x635;" horiz-adv-x="801" arabic-form="medial" 
d="M801 96v-96h-801q-13 0 -20.5 3.5t-11 13.5t-3.5 29q0 21 3.5 31.5t11 14.5t20.5 4h121v352q0 20 20 20h299q86 0 144 -39.5t85.5 -105t27.5 -146.5v-81h104zM602 96v50q0 109 -43.5 167.5t-130.5 58.5h-212v-276h386z" />
    <glyph glyph-name="uniFEBE" unicode="&#x636;" horiz-adv-x="1180" arabic-form="final" 
d="M1180 96v-96h-590q-18 -108 -91 -165t-187 -57q-82 0 -146 30t-100 87t-36 134q0 39 8 81t21 79q8 19 26 14l49 -11q9 -2 12.5 -8.5t0.5 -15.5q-11 -38 -16.5 -68t-5.5 -59q0 -85 51.5 -126t135.5 -41q94 0 141 48.5t47 141.5v384q0 20 20 20h299q86 0 144 -39.5
t85.5 -105t27.5 -146.5v-81h104zM981 96v50q0 109 -43.5 167.5t-130.5 58.5h-212v-276h386zM728 605q-16 16 -16 39t16 38.5t40 15.5q23 0 38.5 -15.5t15.5 -38.5t-15.5 -39t-38.5 -16q-24 0 -40 16z" />
    <glyph glyph-name="uniFEBF" unicode="&#x636;" horiz-adv-x="757" arabic-form="initial" 
d="M584 428.5q58 -39.5 85.5 -105t27.5 -146.5v-157q0 -20 -20 -20h-677q-13 0 -20.5 3.5t-11 13.5t-3.5 29q0 21 3.5 31.5t11 14.5t20.5 4h121v352q0 20 20 20h299q86 0 144 -39.5zM602 96v50q0 109 -43.5 167.5t-130.5 58.5h-212v-276h386zM359 605q-16 16 -16 39t16 38.5
t40 15.5q23 0 38.5 -15.5t15.5 -38.5t-15.5 -39t-38.5 -16q-24 0 -40 16z" />
    <glyph glyph-name="uniFEC0" unicode="&#x636;" horiz-adv-x="801" arabic-form="medial" 
d="M801 96v-96h-801q-13 0 -20.5 3.5t-11 13.5t-3.5 29q0 21 3.5 31.5t11 14.5t20.5 4h121v352q0 20 20 20h299q86 0 144 -39.5t85.5 -105t27.5 -146.5v-81h104zM602 96v50q0 109 -43.5 167.5t-130.5 58.5h-212v-276h386zM359 605q-16 16 -16 39t16 38.5t40 15.5
q23 0 38.5 -15.5t15.5 -38.5t-15.5 -39t-38.5 -16q-24 0 -40 16z" />
    <glyph glyph-name="uniFEC2" unicode="&#x637;" horiz-adv-x="831" arabic-form="final" 
d="M831 96v-96h-771q-20 0 -20 20v56q0 20 20 20h91v540q0 20 20 20h55q20 0 20 -20v-168h224q86 0 144 -39.5t85.5 -105t27.5 -146.5v-81h104zM632 96v50q0 109 -43.5 167.5t-130.5 58.5h-212v-276h386z" />
    <glyph glyph-name="uniFEC3" unicode="&#x637;" horiz-adv-x="757" arabic-form="initial" 
d="M584 428.5q58 -39.5 85.5 -105t27.5 -146.5v-157q0 -20 -20 -20h-677q-13 0 -20.5 3.5t-11 13.5t-3.5 29q0 21 3.5 31.5t11 14.5t20.5 4h121v540q0 20 20 20h55q20 0 20 -20v-168h224q86 0 144 -39.5zM602 96v50q0 109 -43.5 167.5t-130.5 58.5h-212v-276h386z" />
    <glyph glyph-name="uniFEC4" unicode="&#x637;" horiz-adv-x="801" arabic-form="medial" 
d="M801 96v-96h-801q-13 0 -20.5 3.5t-11 13.5t-3.5 29q0 21 3.5 31.5t11 14.5t20.5 4h121v540q0 20 20 20h55q20 0 20 -20v-168h224q86 0 144 -39.5t85.5 -105t27.5 -146.5v-81h104zM602 96v50q0 109 -43.5 167.5t-130.5 58.5h-212v-276h386z" />
    <glyph glyph-name="uniFEC6" unicode="&#x638;" horiz-adv-x="831" arabic-form="final" 
d="M831 96v-96h-771q-20 0 -20 20v56q0 20 20 20h91v540q0 20 20 20h55q20 0 20 -20v-168h224q86 0 144 -39.5t85.5 -105t27.5 -146.5v-81h104zM632 96v50q0 109 -43.5 167.5t-130.5 58.5h-212v-276h386zM389 605q-16 16 -16 39t16 38.5t40 15.5q23 0 38.5 -15.5t15.5 -38.5
t-15.5 -39t-38.5 -16q-24 0 -40 16z" />
    <glyph glyph-name="uniFEC7" unicode="&#x638;" horiz-adv-x="757" arabic-form="initial" 
d="M584 428.5q58 -39.5 85.5 -105t27.5 -146.5v-157q0 -20 -20 -20h-677q-13 0 -20.5 3.5t-11 13.5t-3.5 29q0 21 3.5 31.5t11 14.5t20.5 4h121v540q0 20 20 20h55q20 0 20 -20v-168h224q86 0 144 -39.5zM602 96v50q0 109 -43.5 167.5t-130.5 58.5h-212v-276h386zM359 605
q-16 16 -16 39t16 38.5t40 15.5q23 0 38.5 -15.5t15.5 -38.5t-15.5 -39t-38.5 -16q-24 0 -40 16z" />
    <glyph glyph-name="uniFEC8" unicode="&#x638;" horiz-adv-x="801" arabic-form="medial" 
d="M801 96v-96h-801q-13 0 -20.5 3.5t-11 13.5t-3.5 29q0 21 3.5 31.5t11 14.5t20.5 4h121v540q0 20 20 20h55q20 0 20 -20v-168h224q86 0 144 -39.5t85.5 -105t27.5 -146.5v-81h104zM602 96v50q0 109 -43.5 167.5t-130.5 58.5h-212v-276h386zM359 605q-16 16 -16 39
t16 38.5t40 15.5q23 0 38.5 -15.5t15.5 -38.5t-15.5 -39t-38.5 -16q-24 0 -40 16z" />
    <glyph glyph-name="uniFECA" unicode="&#x639;" horiz-adv-x="639" arabic-form="final" 
d="M639 0h-362q-45 0 -79.5 -15.5t-53.5 -44.5t-19 -68t23 -68t67 -44t105 -15h73q20 0 20 -20v-54q0 -20 -20 -20h-61q-95 0 -162.5 25.5t-103.5 74.5t-36 118q0 61 26 110t75 79t116 36l-125 209q-4 9 -3 19l14 92q1 8 5.5 13.5t11.5 7.5q96 33 201 33q83 0 134 -27
t72.5 -69.5t21.5 -90.5q0 -54 -22.5 -101.5t-63.5 -83.5h146v-96zM447.5 344q-36.5 30 -108.5 30q-74 0 -143 -21l154 -257h2q65 32 98.5 78t33.5 92q0 48 -36.5 78z" />
    <glyph glyph-name="uniFECB" unicode="&#x639;" horiz-adv-x="534" arabic-form="initial" 
d="M494 76v-56q0 -20 -20 -20h-474q-13 0 -20.5 3.5t-11 13.5t-3.5 29q0 21 3.5 31.5t11 14.5t20.5 4h140q-56 57 -56 145q0 61 29 112.5t85.5 83t136.5 31.5h92q20 0 20 -20v-54q0 -20 -20 -20h-101q-69 0 -108 -36.5t-39 -100.5q0 -32 15.5 -64.5t52.5 -54.5t97 -22h130
q20 0 20 -20z" />
    <glyph glyph-name="uniFECC" unicode="&#x639;" horiz-adv-x="599" arabic-form="medial" 
d="M599 96v-96h-599q-13 0 -20.5 3.5t-11 13.5t-3.5 29q0 21 3.5 31.5t11 14.5t20.5 4h206l-124 207q-4 9 -3 19l14 92q1 8 5.5 13.5t11.5 7.5q96 33 201 33q83 0 134 -27t72.5 -69.5t21.5 -90.5q0 -54 -22.5 -101.5t-63.5 -83.5h146zM310 96h2q65 32 98.5 78t33.5 92
q0 48 -36.5 78t-108.5 30q-74 0 -143 -21z" />
    <glyph glyph-name="uniFECE" unicode="&#x63a;" horiz-adv-x="639" arabic-form="final" 
d="M639 0h-362q-45 0 -79.5 -15.5t-53.5 -44.5t-19 -68t23 -68t67 -44t105 -15h73q20 0 20 -20v-54q0 -20 -20 -20h-61q-95 0 -162.5 25.5t-103.5 74.5t-36 118q0 61 26 110t75 79t116 36l-125 209q-4 9 -3 19l14 92q1 8 5.5 13.5t11.5 7.5q96 33 201 33q83 0 134 -27
t72.5 -69.5t21.5 -90.5q0 -54 -22.5 -101.5t-63.5 -83.5h146v-96zM447.5 344q-36.5 30 -108.5 30q-74 0 -143 -21l154 -257h2q65 32 98.5 78t33.5 92q0 48 -36.5 78zM311 605q-16 16 -16 39t16 38.5t40 15.5q23 0 38.5 -15.5t15.5 -38.5t-15.5 -39t-38.5 -16q-24 0 -40 16z
" />
    <glyph glyph-name="uniFECF" unicode="&#x63a;" horiz-adv-x="534" arabic-form="initial" 
d="M494 76v-56q0 -20 -20 -20h-474q-13 0 -20.5 3.5t-11 13.5t-3.5 29q0 21 3.5 31.5t11 14.5t20.5 4h140q-56 57 -56 145q0 61 29 112.5t85.5 83t136.5 31.5h92q20 0 20 -20v-54q0 -20 -20 -20h-101q-69 0 -108 -36.5t-39 -100.5q0 -32 15.5 -64.5t52.5 -54.5t97 -22h130
q20 0 20 -20zM295 605q-16 16 -16 39t16 38.5t40 15.5q23 0 38.5 -15.5t15.5 -38.5t-15.5 -39t-38.5 -16q-24 0 -40 16z" />
    <glyph glyph-name="uniFED0" unicode="&#x63a;" horiz-adv-x="599" arabic-form="medial" 
d="M599 96v-96h-599q-13 0 -20.5 3.5t-11 13.5t-3.5 29q0 21 3.5 31.5t11 14.5t20.5 4h206l-124 207q-4 9 -3 19l14 92q1 8 5.5 13.5t11.5 7.5q96 33 201 33q83 0 134 -27t72.5 -69.5t21.5 -90.5q0 -54 -22.5 -101.5t-63.5 -83.5h146zM310 96h2q65 32 98.5 78t33.5 92
q0 48 -36.5 78t-108.5 30q-74 0 -143 -21zM271 605q-16 16 -16 39t16 38.5t40 15.5q23 0 38.5 -15.5t15.5 -38.5t-15.5 -39t-38.5 -16q-24 0 -40 16z" />
    <glyph glyph-name="uniFED2" unicode="&#x641;" horiz-adv-x="1136" arabic-form="final" 
d="M1136 96v-96h-839q-125 0 -196 52.5t-71 159.5q0 55 23 141q2 9 8.5 13t16.5 2l47 -11q20 -5 16 -24q-18 -81 -18 -121q0 -60 46 -88t135 -28h351q-20 31 -29.5 67t-9.5 71q0 60 27.5 113.5t78.5 87t119 33.5q69 0 120 -33t78 -87t27 -114q0 -35 -9.5 -71t-29.5 -67h109z
M721.5 174q9.5 -31 38.5 -54.5t81 -23.5t81 23.5t38.5 54.5t9.5 59q0 34 -14 66t-43 52.5t-72 20.5t-72 -20.5t-43 -52.5t-14 -66q0 -28 9.5 -59zM801 605q-16 16 -16 39t16 38.5t40 15.5q23 0 38.5 -15.5t15.5 -38.5t-15.5 -39t-38.5 -16q-24 0 -40 16z" />
    <glyph glyph-name="uniFED3" unicode="&#x641;" horiz-adv-x="602" arabic-form="initial" 
d="M450 438q47 -30 69.5 -79.5t22.5 -110.5v-228q0 -20 -20 -20h-522q-13 0 -20.5 3.5t-11 13.5t-3.5 29q0 21 3.5 31.5t11 14.5t20.5 4h144q-42 56 -42 135q0 69 29.5 123t82 84t119.5 30q70 0 117 -30zM243.5 133q45.5 -37 126.5 -37h77v147q0 58 -29 93.5t-90 35.5
q-38 0 -67.5 -17t-46 -48t-16.5 -71q0 -66 45.5 -103zM293 605q-16 16 -16 39t16 38.5t40 15.5q23 0 38.5 -15.5t15.5 -38.5t-15.5 -39t-38.5 -16q-24 0 -40 16z" />
    <glyph glyph-name="uniFED4" unicode="&#x641;" horiz-adv-x="621" arabic-form="medial" 
d="M621 96v-96h-621q-13 0 -20.5 3.5t-11 13.5t-3.5 29q0 21 3.5 31.5t11 14.5t20.5 4h140q-20 31 -29.5 67t-9.5 71q0 60 27.5 113.5t78.5 87t119 33.5q69 0 120 -33t78 -87t27 -114q0 -35 -9.5 -71t-29.5 -67h109zM206.5 174q9.5 -31 38.5 -54.5t81 -23.5t81 23.5
t38.5 54.5t9.5 59q0 34 -14 66t-43 52.5t-72 20.5t-72 -20.5t-43 -52.5t-14 -66q0 -28 9.5 -59zM286 605q-16 16 -16 39t16 38.5t40 15.5q23 0 38.5 -15.5t15.5 -38.5t-15.5 -39t-38.5 -16q-24 0 -40 16z" />
    <glyph glyph-name="uniFED6" unicode="&#x642;" horiz-adv-x="908" arabic-form="final" 
d="M908 0h-124q-1 -81 -41 -130t-118 -70.5t-198 -21.5q-121 0 -210.5 30t-138 86.5t-48.5 134.5q0 39 8 81t21 79q8 19 26 14l49 -11q9 -2 12.5 -8.5t0.5 -15.5q-11 -38 -16.5 -68t-5.5 -59q0 -86 79 -126.5t223 -40.5q93 0 150.5 12t84.5 38t27 67v9h-63
q-79 0 -139.5 27.5t-94.5 80t-34 123.5q0 70 31.5 123.5t90.5 83.5t140 30h144q20 0 20 -20v-352h124v-96zM689 96l1 276h-97q-40 0 -71.5 -16.5t-49.5 -47t-18 -72.5q0 -66 45.5 -103t126.5 -37h63zM485 605q-16 16 -16 39t16 38.5t39 15.5q22 0 38 -15.5t16 -38.5
t-15.5 -39t-38.5 -16t-39 16zM628 605q-16 16 -16 39t16 38.5t39 15.5t38.5 -15.5t15.5 -38.5t-15.5 -39t-38.5 -16t-39 16z" />
    <glyph glyph-name="uniFED7" unicode="&#x642;" horiz-adv-x="602" arabic-form="initial" 
d="M450 438q47 -30 69.5 -79.5t22.5 -110.5v-228q0 -20 -20 -20h-522q-13 0 -20.5 3.5t-11 13.5t-3.5 29q0 21 3.5 31.5t11 14.5t20.5 4h144q-42 56 -42 135q0 69 29.5 123t82 84t119.5 30q70 0 117 -30zM243.5 133q45.5 -37 126.5 -37h77v147q0 58 -29 93.5t-90 35.5
q-38 0 -67.5 -17t-46 -48t-16.5 -71q0 -66 45.5 -103zM222 605q-16 16 -16 39t16 38.5t39 15.5q22 0 38 -15.5t16 -38.5t-15.5 -39t-38.5 -16t-39 16zM365 605q-16 16 -16 39t16 38.5t39 15.5t38.5 -15.5t15.5 -38.5t-15.5 -39t-38.5 -16t-39 16z" />
    <glyph glyph-name="uniFED8" unicode="&#x642;" horiz-adv-x="621" arabic-form="medial" 
d="M621 96v-96h-621q-13 0 -20.5 3.5t-11 13.5t-3.5 29q0 21 3.5 31.5t11 14.5t20.5 4h140q-20 31 -29.5 67t-9.5 71q0 60 27.5 113.5t78.5 87t119 33.5q69 0 120 -33t78 -87t27 -114q0 -35 -9.5 -71t-29.5 -67h109zM206.5 174q9.5 -31 38.5 -54.5t81 -23.5t81 23.5
t38.5 54.5t9.5 59q0 34 -14 66t-43 52.5t-72 20.5t-72 -20.5t-43 -52.5t-14 -66q0 -28 9.5 -59zM215 605q-16 16 -16 39t16 38.5t39 15.5q22 0 38 -15.5t16 -38.5t-15.5 -39t-38.5 -16t-39 16zM358 605q-16 16 -16 39t16 38.5t39 15.5t38.5 -15.5t15.5 -38.5t-15.5 -39
t-38.5 -16t-39 16z" />
    <glyph glyph-name="uniFEDA" unicode="&#x643;" horiz-adv-x="977" arabic-form="final" 
d="M977 96v-96h-13q-44 0 -75.5 18.5t-52.5 52.5q-23 -37 -64.5 -54t-102.5 -17h-372q-125 0 -196 52.5t-71 159.5q0 55 23 141q2 9 8.5 13t16.5 2l47 -11q20 -5 16 -24q-18 -81 -18 -121q0 -60 46 -88t135 -28h358q38 0 62 10t35.5 34t11.5 65v431q0 20 20 20h55
q20 0 20 -20v-411v-20q0 -56 28 -82.5t74 -26.5h9zM369.5 298.5q-3.5 3.5 -3.5 9.5v24q0 6 3.5 9.5t9.5 3.5h43q-14 18 -14 43q0 36 25 58.5t71 22.5h31q6 0 9.5 -3.5t3.5 -9.5v-24q0 -6 -3.5 -9.5t-9.5 -3.5h-30q-23 0 -35 -10.5t-12 -27.5q0 -36 52 -36h35q6 0 9.5 -3.5
t3.5 -9.5v-24q0 -6 -3.5 -9.5t-9.5 -3.5h-166q-6 0 -9.5 3.5z" />
    <glyph glyph-name="uniFEDB" unicode="&#x643;" horiz-adv-x="531" arabic-form="initial" 
d="M360.5 437q56.5 -31 83.5 -82.5t27 -113.5v-221q0 -20 -20 -20h-451q-13 0 -20.5 3.5t-11 13.5t-3.5 29q0 21 3.5 31.5t11 14.5t20.5 4h376v141q0 64 -39 100.5t-108 36.5h-151q-20 0 -20 20v54q0 6 1 8q3 9 8 12l260 238q8 6 14 6q8 0 14 -8l38 -41q6 -7 6 -14
q0 -8 -8 -14l-197 -167h26q84 0 140.5 -31z" />
    <glyph glyph-name="uniFEDC" unicode="&#x643;" horiz-adv-x="575" arabic-form="medial" 
d="M575 96v-96h-575q-13 0 -20.5 3.5t-11 13.5t-3.5 29q0 21 3.5 31.5t11 14.5t20.5 4h376v141q0 64 -39 100.5t-108 36.5h-151q-20 0 -20 20v54q0 6 1 8q3 9 8 12l260 238q8 6 14 6q8 0 14 -8l38 -41q6 -7 6 -14q0 -8 -8 -14l-197 -167h26q84 0 140.5 -31t83.5 -82.5
t27 -113.5v-145h104z" />
    <glyph glyph-name="uniFEDE" unicode="&#x644;" horiz-adv-x="706" arabic-form="final" 
d="M706 96v-96h-13q-61 0 -99 35q-5 -83 -41 -141t-98 -87.5t-143 -29.5q-82 0 -146 30t-100 87t-36 134q0 39 8 81t21 79q8 19 26 14l49 -11q9 -2 12.5 -8.5t0.5 -15.5q-11 -38 -16.5 -68t-5.5 -59q0 -85 51.5 -126t135.5 -41q94 0 141 48.5t47 141.5v572q0 20 20 20h55
q20 0 20 -20v-430q0 -56 28 -82.5t74 -26.5h9z" />
    <glyph glyph-name="uniFEDF" unicode="&#x644;" horiz-adv-x="318" arabic-form="initial" 
d="M248 636v-616q0 -20 -20 -20h-228q-13 0 -20.5 3.5t-11 13.5t-3.5 29q0 21 3.5 31.5t11 14.5t20.5 4h153v540q0 20 20 20h55q20 0 20 -20z" />
    <glyph glyph-name="uniFEE0" unicode="&#x644;" horiz-adv-x="344" arabic-form="medial" 
d="M344 96v-96h-13q-44 0 -75.5 18.5t-52.5 52.5q-23 -37 -64.5 -54t-102.5 -17h-36q-13 0 -20.5 3.5t-11 13.5t-3.5 29q0 21 3.5 31.5t11 14.5t20.5 4h29q38 0 62 10t35.5 34t11.5 65v431q0 20 20 20h55q20 0 20 -20v-411v-20q0 -56 28 -82.5t74 -26.5h9z" />
    <glyph glyph-name="uniFEE2" unicode="&#x645;" horiz-adv-x="747" arabic-form="final" 
d="M747 96v-96h-159v3q-59 -51 -158 -51q-48 0 -86.5 12.5t-66.5 35.5q-80 -1 -116 -31.5t-36 -93.5q0 -41 8.5 -84t24.5 -98q1 -3 1 -8q0 -6 -3.5 -10.5t-10.5 -5.5l-51 -12q-2 -1 -6 -1q-7 0 -12 4t-6 11q-18 63 -29 117t-11 101q0 85 47.5 136t139.5 65q-14 42 -14 94
q0 67 28 121t79.5 84.5t119.5 30.5q69 0 120 -30t78.5 -84t27.5 -123q0 -46 -11 -87h102zM528 81q32 33 32 103q0 42 -16 73.5t-45 48.5t-69 17t-69.5 -17t-45.5 -48.5t-16 -73.5q0 -70 32 -103t99 -33q66 0 98 33z" />
    <glyph glyph-name="uniFEE3" unicode="&#x645;" horiz-adv-x="580" arabic-form="initial" 
d="M425 439q51 -29 78 -82.5t27 -125.5q0 -111 -59.5 -171t-177.5 -60h-293q-13 0 -20.5 3.5t-11 13.5t-3.5 29q0 21 3.5 31.5t11 14.5t20.5 4h116q-39 56 -39 136q0 70 27.5 123.5t79 83t120.5 29.5q70 0 121 -29zM402 129q32 33 32 103q0 42 -16 73.5t-45 48.5t-69 17
t-69.5 -17t-45.5 -48.5t-16 -73.5q0 -70 32 -103t99 -33q66 0 98 33z" />
    <glyph glyph-name="uniFEE4" unicode="&#x645;" horiz-adv-x="621" arabic-form="medial" 
d="M621 96v-96h-159v3q-59 -51 -158 -51q-95 0 -154 48h-150q-13 0 -20.5 3.5t-11 13.5t-3.5 29q0 21 3.5 31.5t11 14.5t20.5 4h89q-12 39 -12 88q0 67 28 121t79.5 84.5t119.5 30.5q69 0 120 -30t78.5 -84t27.5 -123q0 -46 -11 -87h102zM402 81q32 33 32 103q0 42 -16 73.5
t-45 48.5t-69 17t-69.5 -17t-45.5 -48.5t-16 -73.5q0 -70 32 -103t99 -33q66 0 98 33z" />
    <glyph glyph-name="uniFEE6" unicode="&#x646;" horiz-adv-x="706" arabic-form="final" 
d="M706 96v-96h-13q-61 0 -99 35q-5 -83 -41 -141t-98 -87.5t-143 -29.5q-82 0 -146 30t-100 87t-36 134q0 39 8 81t21 79q8 19 26 14l49 -11q9 -2 12.5 -8.5t0.5 -15.5q-11 -38 -16.5 -68t-5.5 -59q0 -85 51.5 -126t135.5 -41q94 0 141 48.5t47 141.5v264q0 20 20 20h55
q20 0 20 -20v-122q0 -56 28 -82.5t74 -26.5h9zM276 403q-16 16 -16 39t16 38.5t40 15.5q23 0 38.5 -15.5t15.5 -38.5t-15.5 -39t-38.5 -16q-24 0 -40 16z" />
    <glyph glyph-name="uniFEE7" unicode="&#x646;" horiz-adv-x="313" arabic-form="initial" 
d="M243 408v-388q0 -20 -20 -20h-223q-13 0 -20.5 3.5t-11 13.5t-3.5 29q0 21 3.5 31.5t11 14.5t20.5 4h148v312q0 20 20 20h55q20 0 20 -20zM156 565q-16 16 -16 39t16 38.5t40 15.5q23 0 38.5 -15.5t15.5 -38.5t-15.5 -39t-38.5 -16q-24 0 -40 16z" />
    <glyph glyph-name="uniFEE8" unicode="&#x646;" horiz-adv-x="364" arabic-form="medial" 
d="M364 96v-96h-13q-87 0 -130 75q-49 -75 -165 -75h-56q-13 0 -20.5 3.5t-11 13.5t-3.5 29q0 21 3.5 31.5t11 14.5t20.5 4h49q40 0 63 8t34.5 29t11.5 62v213q0 20 20 20h55q20 0 20 -20v-203q0 -56 28 -82.5t74 -26.5h9zM166 565q-16 16 -16 39t16 38.5t40 15.5
q23 0 38.5 -15.5t15.5 -38.5t-15.5 -39t-38.5 -16q-24 0 -40 16z" />
    <glyph glyph-name="uniFEEA" unicode="&#x647;" horiz-adv-x="555" arabic-form="final" 
d="M474.5 121.5q30.5 -25.5 80.5 -25.5v-96q-60 0 -108.5 20.5t-73.5 61.5q-54 -20 -109 -20q-68 0 -121 23.5t-83 68.5t-30 107t31 109t86 72.5t126 25.5h76v10q0 20 20 20h55q20 0 20 -20v-273q0 -58 30.5 -83.5zM349 171v201l-90 1q-60 1 -96.5 -28t-36.5 -81t36.5 -79
t105.5 -27q46 0 81 13z" />
    <glyph glyph-name="uniFEEB" unicode="&#x647;" horiz-adv-x="711" arabic-form="initial" 
d="M454 442q100 -28 148.5 -96t48.5 -188v-138q0 -20 -20 -20h-631q-13 0 -20.5 3.5t-11 13.5t-3.5 29q0 21 3.5 31.5t11 14.5t20.5 4h129q-15 30 -23 65t-8 72q0 79 39 141q-25 0 -38 -1h-2q-18 0 -18 19v56q0 19 20 21l89 1q166 0 266 -28zM211.5 141q17.5 -45 64.5 -45
t64 44.5t17 94.5q0 34 -8.5 64t-27 49t-45.5 19t-45.5 -19t-27.5 -49t-9 -64q0 -49 17.5 -94zM556 96v77q0 75 -32 118.5t-98 63.5q27 -56 27 -122q0 -37 -8 -72t-23 -65h134z" />
    <glyph glyph-name="uniFEEC" unicode="&#x647;" horiz-adv-x="587" arabic-form="medial" 
d="M587 0h-91q12 -36 12 -70q0 -50 -24.5 -86.5t-70 -56t-107.5 -19.5q-66 0 -114.5 22.5t-75 68t-26.5 112.5v29h-90q-13 0 -20.5 3.5t-11 13.5t-3.5 29q0 21 3.5 31.5t11 14.5t20.5 4h90v79q0 94 27 160t78.5 99.5t124.5 33.5q62 0 106 -31t66 -80t22 -103
q0 -51 -15.5 -89.5t-46.5 -68.5h135v-96zM185 96h92q42 0 74 17.5t50 51.5t18 81q0 35 -11.5 64t-35.5 46.5t-59 17.5q-58 0 -93 -46t-35 -142v-90zM386 -114q24 20 24 56q0 15 -3 27.5t-10 30.5h-212v-22q0 -61 33 -86.5t95 -25.5q49 0 73 20z" />
    <glyph glyph-name="uniFEEE" unicode="&#x648;" horiz-adv-x="595" arabic-form="final" 
d="M595 0h-124q-2 -83 -30 -131.5t-80.5 -69.5t-132.5 -21q-60 0 -112 16q-19 8 -15 27l8 47q5 20 24 16q29 -6 54.5 -9.5t56.5 -3.5q51 0 80 13.5t40.5 39t11.5 63.5v13h-63q-79 0 -139.5 27.5t-94.5 80t-34 123.5q0 74 31 127.5t90 81.5t141 28h144q20 0 20 -20v-352h124
v-96zM376 96l1 276h-97q-40 0 -71.5 -16.5t-49.5 -47t-18 -72.5q0 -66 45.5 -103t126.5 -37h63z" />
    <glyph glyph-name="uniFEF0" unicode="&#x649;" horiz-adv-x="888" arabic-form="final" 
d="M888 96v-96h-45q-30 0 -59 3q0 -107 -88.5 -166t-268.5 -59q-121 0 -210.5 30t-138 86.5t-48.5 134.5q0 39 8 81t21 79q8 19 26 14l49 -11q9 -2 12.5 -8.5t0.5 -15.5q-11 -38 -16.5 -68t-5.5 -59q0 -86 79 -126.5t223 -40.5q139 0 200.5 33.5t61.5 93.5q0 10 -2 22
q-93 29 -163 84q-9 8 -9 16q0 6 5 14l32 45q6 10 15 10q5 0 12 -5q54 -37 96 -56.5t86.5 -27t107.5 -7.5h19z" />
    <glyph glyph-name="uniFEF2" unicode="&#x64a;" horiz-adv-x="888" arabic-form="final" 
d="M888 96v-96h-45q-30 0 -59 3q0 -107 -88.5 -166t-268.5 -59q-121 0 -210.5 30t-138 86.5t-48.5 134.5q0 39 8 81t21 79q8 19 26 14l49 -11q9 -2 12.5 -8.5t0.5 -15.5q-11 -38 -16.5 -68t-5.5 -59q0 -86 79 -126.5t223 -40.5q139 0 200.5 33.5t61.5 93.5q0 10 -2 22
q-93 29 -163 84q-9 8 -9 16q0 6 5 14l32 45q6 10 15 10q5 0 12 -5q54 -37 96 -56.5t86.5 -27t107.5 -7.5h19zM315 -405q-16 16 -16 39t16 38.5t39 15.5q22 0 38 -16t16 -38q0 -23 -15.5 -39t-38.5 -16t-39 16zM458 -405q-16 16 -16 39t16 38.5t39 15.5t38.5 -16t15.5 -38
q0 -23 -15.5 -39t-38.5 -16t-39 16z" />
    <glyph glyph-name="uniFEF3" unicode="&#x64a;" horiz-adv-x="313" arabic-form="initial" 
d="M243 408v-388q0 -20 -20 -20h-223q-13 0 -20.5 3.5t-11 13.5t-3.5 29q0 21 3.5 31.5t11 14.5t20.5 4h148v312q0 20 20 20h55q20 0 20 -20zM53 -183q-16 16 -16 39t16 38.5t39 15.5q22 0 38 -16t16 -38q0 -23 -15.5 -39t-38.5 -16t-39 16zM196 -183q-16 16 -16 39t16 38.5
t39 15.5t38.5 -16t15.5 -38q0 -23 -15.5 -39t-38.5 -16t-39 16z" />
    <glyph glyph-name="uniFEF4" unicode="&#x64a;" horiz-adv-x="364" arabic-form="medial" 
d="M364 96v-96h-13q-87 0 -130 75q-49 -75 -165 -75h-56q-13 0 -20.5 3.5t-11 13.5t-3.5 29q0 21 3.5 31.5t11 14.5t20.5 4h49q40 0 63 8t34.5 29t11.5 62v213q0 20 20 20h55q20 0 20 -20v-203q0 -56 28 -82.5t74 -26.5h9zM95 -183q-16 16 -16 39t16 38.5t39 15.5
q22 0 38 -16t16 -38q0 -23 -15.5 -39t-38.5 -16t-39 16zM238 -183q-16 16 -16 39t16 38.5t39 15.5t38.5 -16t15.5 -38q0 -23 -15.5 -39t-38.5 -16t-39 16z" />
    <glyph glyph-name=".notdef" horiz-adv-x="767" 
d="M95 -104v902q0 20 20 20h537q20 0 20 -20v-902q0 -20 -20 -20h-537q-20 0 -20 20zM628 776h-489v-858h489v858z" />
    <glyph glyph-name=".null" 
 />
    <glyph glyph-name="nonmarkingreturn" horiz-adv-x="333" 
 />
    <glyph glyph-name="NULL" 
 />
    <glyph glyph-name="NULL" 
 />
    <glyph glyph-name="CR" unicode="&#xd;" horiz-adv-x="250" 
 />
    <glyph glyph-name="space" unicode=" " horiz-adv-x="250" 
 />
    <glyph glyph-name="exclam" unicode="!" horiz-adv-x="270" 
d="M148 185h-33q-19 0 -21 20l-15 461v2q0 18 19 18h65q10 0 15 -5t4 -15l-13 -461q-2 -20 -21 -20zM99.5 -2q-15.5 9 -24 24.5t-8.5 33.5q0 19 8.5 34.5t24 25t35.5 9.5q31 0 49.5 -20t18.5 -49q0 -28 -18.5 -47.5t-49.5 -19.5q-20 0 -35.5 9z" />
    <glyph glyph-name="quotedbl" unicode="&#x22;" horiz-adv-x="418" 
d="M93.5 443q-5.5 5 -6.5 15l-17 208v3q0 17 18 17h63q20 0 18 -20l-18 -208q-1 -10 -6.5 -15t-15.5 -5h-20q-10 0 -15.5 5zM272.5 443q-5.5 5 -6.5 15l-17 208v3q0 17 18 17h63q20 0 18 -20l-18 -208q-1 -10 -6.5 -15t-15.5 -5h-20q-10 0 -15.5 5z" />
    <glyph glyph-name="numbersign" unicode="#" horiz-adv-x="805" 
d="M768.5 519q3.5 -5 1.5 -14l-10 -45q-2 -9 -8.5 -14t-16.5 -5h-121l-49 -195h121q10 0 13.5 -5t1.5 -14l-11 -44q-2 -9 -8.5 -14t-16.5 -5h-120l-36 -145q-2 -9 -8.5 -14t-16.5 -5h-52q-10 0 -13.5 5t-1.5 14l36 145h-190l-36 -145q-2 -9 -8.5 -14t-16.5 -5h-52
q-10 0 -13.5 5t-1.5 14l36 145h-121q-10 0 -13.5 5t-1.5 14l10 44q2 9 8.5 14t16.5 5h122l49 195h-122q-10 0 -13.5 5t-1.5 14l11 45q2 9 8.5 14t16.5 5h121l36 143q2 9 8.5 14t16.5 5h50q10 0 13.5 -5t1.5 -14l-35 -143h191l36 143q2 9 8.5 14t16.5 5h51q10 0 13.5 -5
t1.5 -14l-36 -143h121q10 0 13.5 -5zM523 441h-192l-48 -195h191z" />
    <glyph glyph-name="dollar" unicode="$" horiz-adv-x="572" 
d="M497.5 97q-23.5 -43 -67.5 -71t-102 -35v-83q0 -20 -20 -20h-45q-20 0 -20 20v82q-120 15 -202 109q-6 8 -6 14q0 8 7 15l36 38q7 7 13 7t14 -8q40 -47 84 -68t98 -21q41 0 71.5 14t47 39t16.5 57q0 38 -20 60t-50.5 33t-84.5 23q-67 15 -109.5 32t-72.5 57t-30 111
q0 42 22 83t65 71t101 39v80q0 20 20 20h45q20 0 20 -20v-79q115 -14 185 -100q5 -5 5 -14t-8 -16l-34 -32q-9 -7 -14 -7q-8 0 -14 8q-36 38 -73 56t-85 18q-37 0 -68.5 -13t-49.5 -36.5t-18 -53.5q0 -37 20.5 -59.5t50.5 -33t84 -23.5q68 -16 110 -33t72 -56.5t30 -109.5
q0 -51 -23.5 -94z" />
    <glyph glyph-name="percent" unicode="%" horiz-adv-x="980" 
d="M137 364.5q-42 22.5 -67 63t-25 91.5q0 52 25 93t67 64t92 23t92 -23t66.5 -64t24.5 -93q0 -51 -24.5 -91.5t-66.5 -63t-92 -22.5t-92 22.5zM241 4.5q-5 4.5 -5 10.5t4 11l411 643q11 17 31 17h44q8 0 13 -4.5t5 -10.5t-4 -11l-411 -643q-11 -17 -31 -17h-44
q-8 0 -13 4.5zM279.5 429.5q23.5 13.5 37.5 37t14 52.5q0 30 -14 54t-37.5 37.5t-50.5 13.5q-28 0 -51 -13.5t-36.5 -37.5t-13.5 -54q0 -29 13.5 -52.5t36.5 -37t51 -13.5q27 0 50.5 13.5zM659.5 10.5q-41.5 22.5 -66.5 63.5t-25 93q0 51 25 91.5t67 63.5t91 23q50 0 92 -23
t67 -63.5t25 -91.5q0 -52 -25 -93t-67 -63.5t-92 -22.5t-91.5 22.5zM801.5 75.5q23.5 13.5 37.5 37.5t14 54q0 29 -14 52.5t-37.5 37t-50.5 13.5t-50 -13.5t-37 -37t-14 -52.5q0 -30 14 -54t37 -37.5t50 -13.5t50.5 13.5z" />
    <glyph glyph-name="ampersand" unicode="&#x26;" horiz-adv-x="706" 
d="M663 58q0 -6 -6 -14l-31 -39q-8 -8 -14 -8t-14 6l-106 91q-56 -54 -110 -78t-123 -24q-62 0 -109 21.5t-72.5 61.5t-25.5 93q0 58 31 102t104 87q-48 45 -69 84.5t-21 79.5q0 44 22.5 84.5t68 66.5t110.5 26q54 0 95 -22t63 -59t22 -82q0 -46 -17.5 -78.5t-48.5 -57
t-84 -53.5l159 -133q49 63 77 100q8 9 16 9t13 -4l37 -26q10 -6 10 -15q0 -5 -5 -12q-41 -55 -84 -106l104 -87q8 -6 8 -14zM238 604q-24 -13 -36.5 -34.5t-12.5 -48.5q0 -28 17.5 -56.5t64.5 -69.5q47 27 73 48.5t37 41.5t11 43q0 25 -11.5 45.5t-33.5 32t-53 11.5
q-32 0 -56 -13zM347.5 88.5q37.5 16.5 81.5 60.5l-185 158q-52 -34 -73 -64t-21 -71q0 -31 15 -54t40.5 -34.5t56.5 -11.5q48 0 85.5 16.5z" />
    <glyph glyph-name="quotesingle" unicode="'" horiz-adv-x="239" 
d="M93.5 443q-5.5 5 -6.5 15l-17 208v3q0 17 18 17h63q20 0 18 -20l-18 -208q-1 -10 -6.5 -15t-15.5 -5h-20q-10 0 -15.5 5z" />
    <glyph glyph-name="parenleft" unicode="(" horiz-adv-x="382" 
d="M311 -161q-7 0 -12 4q-120 81 -183.5 197t-63.5 269q0 154 63.5 269.5t183.5 194.5q5 4 12 4q10 0 16 -10l16 -23q4 -5 4 -13t-9 -16q-91 -73 -139.5 -170.5t-48.5 -235.5q0 -139 48.5 -236t139.5 -173q9 -8 9 -16q0 -6 -4 -13l-16 -22q-6 -10 -16 -10z" />
    <glyph glyph-name="parenright" unicode=")" horiz-adv-x="382" 
d="M71 777q7 0 12 -4q120 -81 183.5 -197t63.5 -269q0 -154 -63.5 -269.5t-183.5 -194.5q-5 -4 -12 -4q-10 0 -16 10l-16 23q-4 5 -4 13t9 16q91 73 139.5 170.5t48.5 235.5q0 139 -48.5 236t-139.5 173q-9 8 -9 16q0 6 4 13l16 22q6 10 16 10z" />
    <glyph glyph-name="asterisk" unicode="*" horiz-adv-x="402" 
d="M342 564q0 -12 -14 -15l-81 -19l53 -62q5 -5 5 -13q0 -9 -8 -14l-28 -20q-7 -5 -12 -5q-8 0 -14 10l-42 72l-43 -72q-6 -10 -14 -10q-5 0 -12 5l-29 20q-8 5 -8 14q0 8 5 13l55 62l-81 19q-9 1 -12.5 7.5t-0.5 15.5l12 33q4 13 15 13q3 0 9 -2l75 -33l-7 83v3q0 17 18 17
h35q20 0 18 -20l-8 -83l77 33q6 2 9 2q11 0 15 -13l12 -33q1 -3 1 -8z" />
    <glyph glyph-name="plus" unicode="+" horiz-adv-x="561" 
d="M531 309v-46q0 -20 -20 -20h-188v-188q0 -20 -20 -20h-46q-20 0 -20 20v188h-187q-20 0 -20 20v46q0 20 20 20h187v187q0 20 20 20h46q20 0 20 -20v-187h188q20 0 20 -20z" />
    <glyph glyph-name="comma" unicode="," horiz-adv-x="262" 
d="M95.5 115q6.5 5 16.5 5h65q10 0 13.5 -5t0.5 -14l-79 -256q-6 -19 -26 -19h-40q-19 0 -16 20l58 254q1 10 7.5 15z" />
    <glyph glyph-name="hyphen" unicode="-" horiz-adv-x="347" 
d="M75 317h197q20 0 20 -20v-41q0 -20 -20 -20h-197q-20 0 -20 20v41q0 20 20 20z" />
    <glyph glyph-name="period" unicode="." horiz-adv-x="253" 
d="M89 -2.5q-16 9.5 -25 26t-9 35.5q0 20 9 36.5t25 26.5t37 10t37.5 -10t25.5 -26.5t9 -36.5q0 -19 -9 -35.5t-25.5 -26t-37.5 -9.5t-37 9.5z" />
    <glyph glyph-name="slash" unicode="/" horiz-adv-x="413" 
d="M36 -191h-48q-15 0 -15 11l2 8l343 943q8 19 27 19h48q15 0 15 -11l-2 -8l-343 -943q-8 -19 -27 -19z" />
    <glyph glyph-name="zero" unicode="0" horiz-adv-x="694" 
d="M196.5 35.5q-64.5 45.5 -99.5 125.5t-35 181q0 102 35 182.5t99.5 126t151.5 45.5q86 0 150.5 -45.5t99 -126t34.5 -182.5q0 -101 -34.5 -181t-99 -125.5t-150.5 -45.5q-87 0 -151.5 45.5zM445.5 110.5q41.5 31.5 64.5 91t23 140.5t-23 141t-64.5 91.5t-97.5 31.5
t-98.5 -31.5t-65.5 -91.5t-23 -141t23 -140.5t65.5 -91t98.5 -31.5t97.5 31.5z" />
    <glyph glyph-name="one" unicode="1" horiz-adv-x="421" 
d="M316 672v-652q0 -20 -20 -20h-56q-20 0 -20 20v550l-124 -91q-7 -5 -12 -5q-8 0 -16 9l-28 39q-5 7 -5 12q0 9 9 16l178 130q15 12 36 12h38q20 0 20 -20z" />
    <glyph glyph-name="two" unicode="2" horiz-adv-x="597" 
d="M545 69v-49q0 -20 -20 -20h-426q-20 0 -20 20v35q0 21 15 34l154 146q70 66 104.5 108t46.5 73t12 67q0 34 -15 62t-44 44.5t-69 16.5q-87 0 -146 -80q-7 -10 -16 -10q-5 0 -12 5l-38 29q-10 7 -10 17q0 7 4 12q39 57 95 87t127 30q73 0 123.5 -29t75.5 -76.5t25 -101.5
q0 -51 -17 -95t-60.5 -96.5t-125.5 -127.5l-88 -81h305q20 0 20 -20z" />
    <glyph glyph-name="three" unicode="3" horiz-adv-x="592" 
d="M428 388q45 -24 71 -69.5t26 -106.5q0 -56 -28 -106t-84 -82t-136 -32q-146 0 -237 106q-5 6 -5 14t7 15l35 35q3 3 7 5t7 2q7 0 13 -9q69 -79 171 -79q48 0 83 18t53 48.5t18 66.5q0 61 -39 92t-112 31q-23 0 -47 -3h-3q-17 0 -17 18v26q0 19 13 35l168 185h-299
q-20 0 -20 20v48q0 20 20 20h411q20 0 20 -20v-29q0 -20 -14 -34l-185 -189q58 -2 103 -26z" />
    <glyph glyph-name="four" unicode="4" horiz-adv-x="630" 
d="M602 205v-46q0 -20 -20 -20h-101v-119q0 -20 -20 -20h-56q-20 0 -20 20v119h-339q-20 0 -20 20v34q0 21 12 36l335 441q13 16 32 16h56q20 0 20 -20v-441h101q20 0 20 -20zM385 225v322l-245 -322h245z" />
    <glyph glyph-name="five" unicode="5" horiz-adv-x="576" 
d="M417 407.5q53 -28.5 80 -77.5t27 -112q0 -62 -29.5 -114t-86.5 -83t-136 -31q-126 0 -215 80q-7 7 -7 16q0 8 5 14l30 38q6 8 14 8q7 0 13 -6q34 -30 71.5 -45.5t86.5 -15.5q46 0 81.5 16.5t55 47t19.5 71.5q0 63 -40 100.5t-117 37.5q-64 0 -115 -18q-7 -3 -14 -3
q-11 0 -22 6l-16 9q-8 4 -12.5 12t-4.5 18v290q0 20 20 20h360q20 0 20 -20v-48q0 -20 -20 -20h-289v-176q49 14 112 14q76 0 129 -28.5z" />
    <glyph glyph-name="six" unicode="6" horiz-adv-x="600" 
d="M443 419.5q53 -29.5 82.5 -81t29.5 -114.5q0 -66 -32 -119.5t-88.5 -84t-128.5 -30.5q-124 0 -189 84t-65 242q0 104 30 190t94 138t161 52q61 0 103 -16t80 -45q8 -5 8 -15q0 -9 -5 -14l-27 -38q-3 -4 -7 -6.5t-8 -2.5q-5 0 -12 5q-30 22 -59.5 33.5t-70.5 11.5
q-82 0 -130.5 -57t-56.5 -171q29 34 73 51t97 17q68 0 121 -29.5zM416.5 118q39.5 39 39.5 106q0 41 -17 72.5t-50 49t-81 17.5q-47 0 -82 -20.5t-54 -50.5t-19 -58q0 -45 18.5 -80t53.5 -55t81 -20q71 0 110.5 39z" />
    <glyph glyph-name="seven" unicode="7" horiz-adv-x="508" 
d="M482 666v-38q0 -19 -8 -38l-242 -572q-7 -18 -28 -18h-61q-14 0 -14 9q0 3 2 9l252 582h-335q-20 0 -20 20v46q0 20 20 20h414q20 0 20 -20z" />
    <glyph glyph-name="eight" unicode="8" horiz-adv-x="633" 
d="M513 323q27 -24 42.5 -57.5t15.5 -72.5q0 -62 -31.5 -108t-88.5 -70.5t-133 -24.5q-77 0 -135 24.5t-89.5 70.5t-31.5 108q0 39 15.5 72.5t43 57.5t61.5 37q-43 20 -68.5 59.5t-25.5 92.5t28 94.5t80.5 65.5t121.5 24t120.5 -24t79.5 -66t28 -94q0 -53 -25.5 -92.5
t-68.5 -60.5q34 -12 61 -36zM246.5 597.5q-30.5 -14.5 -46.5 -39.5t-16 -55q0 -32 15.5 -57t45.5 -38.5t73 -13.5q41 0 71 14t45.5 38.5t15.5 56.5q0 30 -16 55t-46 39.5t-70 14.5q-41 0 -71.5 -14.5zM432 106q41 33 41 90q0 34 -18.5 61.5t-53.5 43.5t-83 16
q-49 0 -84.5 -16t-54 -43.5t-18.5 -61.5q0 -57 41.5 -90t115.5 -33q73 0 114 33z" />
    <glyph glyph-name="nine" unicode="9" horiz-adv-x="600" 
d="M483 612q65 -84 65 -242q0 -104 -30 -190t-94 -138t-161 -52q-61 0 -103 16t-80 45q-8 5 -8 15q0 9 5 14l27 38q3 4 7 6.5t8 2.5q5 0 12 -5q30 -22 59.5 -33.5t70.5 -11.5q82 0 130.5 57t56.5 171q-29 -34 -73 -51t-97 -17q-68 0 -121 29.5t-82.5 81t-29.5 114.5
q0 66 32 119.5t88.5 84t128.5 30.5q124 0 189 -84zM374 343.5q35 20.5 54 50.5t19 58q0 45 -18.5 80t-53.5 55t-81 20q-71 0 -110.5 -39t-39.5 -106q0 -41 17 -72.5t50 -49t81 -17.5q47 0 82 20.5z" />
    <glyph glyph-name="colon" unicode=":" horiz-adv-x="253" 
d="M89 -2.5q-16 9.5 -25 26t-9 35.5q0 20 9 36.5t25 26.5t37 10t37.5 -10t25.5 -26.5t9 -36.5q0 -19 -9 -35.5t-25.5 -26t-37.5 -9.5t-37 9.5zM90 377.5q-16 9.5 -25 26t-9 35.5q0 20 9 36.5t25 26.5t37 10t37.5 -10t25.5 -26.5t9 -36.5q0 -19 -9 -35.5t-25.5 -26
t-37.5 -9.5t-37 9.5z" />
    <glyph glyph-name="semicolon" unicode=";" horiz-adv-x="284" 
d="M95.5 115q6.5 5 16.5 5h65q10 0 13.5 -5t0.5 -14l-79 -256q-6 -19 -26 -19h-40q-19 0 -16 20l58 254q1 10 7.5 15zM105 377.5q-16 9.5 -25 26t-9 35.5q0 20 9 36.5t25 26.5t37 10t37.5 -10t25.5 -26.5t9 -36.5q0 -19 -9 -35.5t-25.5 -26t-37.5 -9.5t-37 9.5z" />
    <glyph glyph-name="less" unicode="&#x3c;" horiz-adv-x="475" 
d="M417 404l-275 -118l275 -118q18 -7 18 -28v-45q0 -18 -12 -18q-4 0 -12 3l-363 164q-18 8 -18 28v29q0 21 18 28l363 163q7 3 12 3q12 0 12 -18v-45q0 -20 -18 -28z" />
    <glyph glyph-name="equal" unicode="=" horiz-adv-x="563" 
d="M40 380v46q0 20 20 20h443q20 0 20 -20v-46q0 -20 -20 -20h-443q-20 0 -20 20zM40 146v46q0 20 20 20h443q20 0 20 -20v-46q0 -20 -20 -20h-443q-20 0 -20 20z" />
    <glyph glyph-name="greater" unicode="&#x3e;" horiz-adv-x="475" 
d="M445 300v-29q0 -20 -18 -28l-363 -163q-7 -3 -12 -3q-12 0 -12 18v45q0 21 18 28l275 118l-275 118q-18 8 -18 28v45q0 18 12 18q5 0 12 -3l363 -164q18 -7 18 -28z" />
    <glyph glyph-name="question" unicode="?" horiz-adv-x="524" 
d="M192 205v122q0 10 5 16.5t14 8.5q62 16 99 36.5t54.5 49.5t17.5 72q0 25 -15 48t-44.5 37.5t-70.5 14.5q-91 0 -150 -67q-6 -8 -13 -8q-6 0 -13 7l-34 34q-7 7 -7 16q0 7 6 14q83 90 216 90q71 0 121 -26t75.5 -71t25.5 -101t-26 -95.5t-70 -66t-107 -47.5v-84
q0 -20 -20 -20h-44q-20 0 -20 20zM204.5 -2q-15.5 9 -24 24.5t-8.5 33.5q0 19 8.5 34.5t24 25t35.5 9.5q31 0 49.5 -20t18.5 -49q0 -28 -18.5 -47.5t-49.5 -19.5q-20 0 -35.5 9z" />
    <glyph glyph-name="at" unicode="@" horiz-adv-x="900" 
d="M662.5 666q88.5 -48 137 -134t48.5 -194q0 -67 -21 -119.5t-60 -82t-89 -29.5q-40 0 -70 16t-45 48q-21 -31 -53 -47.5t-74 -16.5q-54 0 -94 26t-62 72t-22 105q0 60 25 105.5t67.5 71t93.5 25.5q63 0 102 -39v10q0 20 20 20h44q20 0 20 -20v-249q0 -25 12.5 -40.5
t39.5 -15.5t48.5 17.5t33.5 53.5t12 89q0 91 -38.5 160t-110.5 107.5t-169 38.5q-95 0 -171.5 -43t-120.5 -121t-44 -179q0 -102 39.5 -176.5t113.5 -114t174 -39.5q101 0 179 46q5 4 12 4q9 0 15 -10l14 -23q3 -6 3 -11q0 -10 -10 -17q-46 -28 -100 -42.5t-113 -14.5
q-119 0 -209 48.5t-139 138.5t-49 211q0 118 52.5 212.5t145.5 147.5t208 53q116 0 204.5 -48zM499.5 198q22.5 16 34.5 45t12 67q0 59 -25 93t-74 34q-50 0 -77.5 -34t-27.5 -93q0 -61 26 -94.5t79 -33.5q30 0 52.5 16z" />
    <glyph glyph-name="A" unicode="A" horiz-adv-x="614" 
d="M592 21q0 -8 -6 -14.5t-16 -6.5h-56q-20 0 -26 19l-55 162h-254l-55 -162q-6 -19 -26 -19h-54q-9 0 -15.5 6t-6.5 15l2 8l230 638q8 19 27 19h52q19 0 27 -19l230 -638zM404 265l-98 289l-98 -289h196z" />
    <glyph glyph-name="B" unicode="B" horiz-adv-x="607" 
d="M524.5 294.5q30.5 -41.5 30.5 -97.5q0 -57 -27 -102t-79 -70t-124 -25h-210q-20 0 -20 20v646q0 20 20 20h197q73 0 124.5 -23t78.5 -65t27 -99q0 -49 -27 -85.5t-81 -57.5q60 -20 90.5 -61.5zM192 600v-206h103q75 0 111.5 27.5t36.5 77.5q0 51 -35.5 76t-108.5 25h-107
zM422 114.5q34 28.5 34 82.5q0 113 -148 113h-116v-224h120q76 0 110 28.5z" />
    <glyph glyph-name="C" unicode="C" horiz-adv-x="655" 
d="M198.5 35q-70.5 47 -108.5 128t-38 180q0 103 39 183.5t109.5 126t162.5 45.5q82 0 143.5 -35.5t100.5 -102.5q3 -6 3 -11q0 -11 -11 -17l-46 -28q-6 -3 -11 -3q-9 0 -15 11q-26 46 -67.5 71t-96.5 25q-66 0 -114 -34t-73 -94t-25 -137q0 -78 25.5 -138t73.5 -93.5
t114 -33.5q114 0 178 108q6 11 15 11q7 0 12 -4l39 -26q11 -8 11 -18q0 -5 -3 -11q-37 -69 -103.5 -109.5t-148.5 -40.5q-95 0 -165.5 47z" />
    <glyph glyph-name="D" unicode="D" horiz-adv-x="657" 
d="M95 20v646q0 20 20 20h150q109 0 185.5 -43t115.5 -119t39 -175q0 -104 -40 -183t-117.5 -122.5t-186.5 -43.5h-146q-20 0 -20 20zM398 119.5q55 33.5 81.5 92.5t26.5 137q0 118 -60.5 184.5t-180.5 66.5h-73v-514h69q82 0 137 33.5z" />
    <glyph glyph-name="E" unicode="E" horiz-adv-x="576" 
d="M509 66v-46q0 -20 -20 -20h-374q-20 0 -20 20v646q0 20 20 20h364q20 0 20 -20v-46q0 -20 -20 -20h-287v-204h257q20 0 20 -20v-46q0 -20 -20 -20h-257v-224h297q20 0 20 -20z" />
    <glyph glyph-name="F" unicode="F" horiz-adv-x="538" 
d="M481 666v-46q0 -20 -20 -20h-269v-204h239q20 0 20 -20v-46q0 -20 -20 -20h-239v-290q0 -20 -20 -20h-57q-20 0 -20 20v646q0 20 20 20h346q20 0 20 -20z" />
    <glyph glyph-name="G" unicode="G" horiz-adv-x="693" 
d="M617 336v-228q0 -20 -14 -34q-44 -40 -104.5 -63t-134.5 -23q-96 0 -166.5 46t-108 126.5t-37.5 182.5t39.5 183t110.5 126.5t161 45.5q80 0 135.5 -26.5t100.5 -83.5q5 -5 5 -14q0 -10 -8 -15l-41 -35q-5 -5 -13 -5q-9 0 -14 8q-32 41 -71.5 61t-93.5 20q-65 0 -113 -34
t-73.5 -94t-25.5 -137q0 -80 25 -140t73 -92.5t115 -32.5q94 0 156 46v143h-98q-20 0 -20 20v49q0 20 20 20h175q20 0 20 -20z" />
    <glyph glyph-name="H" unicode="H" horiz-adv-x="689" 
d="M594 666v-646q0 -20 -20 -20h-57q-20 0 -20 20v290h-305v-290q0 -20 -20 -20h-57q-20 0 -20 20v646q0 20 20 20h57q20 0 20 -20v-270h305v270q0 20 20 20h57q20 0 20 -20z" />
    <glyph glyph-name="I" unicode="I" horiz-adv-x="345" 
d="M315 66v-46q0 -20 -20 -20h-245q-20 0 -20 20v46q0 20 20 20h74v514h-70q-20 0 -20 20v46q0 20 20 20h237q20 0 20 -20v-46q0 -20 -20 -20h-70v-514h74q20 0 20 -20z" />
    <glyph glyph-name="J" unicode="J" horiz-adv-x="498" 
d="M417 666v-449q0 -113 -52.5 -171t-149.5 -58q-58 0 -102 22t-80 69q-5 5 -5 14q0 10 8 15l41 35q5 5 13 5q9 0 14 -8q25 -32 52 -47t59 -15q53 0 79 34t26 105v383h-206q-20 0 -20 20v46q0 20 20 20h283q20 0 20 -20z" />
    <glyph glyph-name="K" unicode="K" horiz-adv-x="584" 
d="M573 18q0 -8 -5.5 -13t-15.5 -5h-60q-20 0 -31 17l-184 288l-85 -110v-175q0 -20 -20 -20h-57q-20 0 -20 20v646q0 20 20 20h57q20 0 20 -20v-342l256 346q13 16 32 16h63q9 0 14.5 -4t5.5 -11q0 -6 -6 -14l-217 -275l229 -351q4 -5 4 -13z" />
    <glyph glyph-name="L" unicode="L" horiz-adv-x="468" 
d="M440 66v-46q0 -20 -20 -20h-305q-20 0 -20 20v646q0 20 20 20h57q20 0 20 -20v-580h228q20 0 20 -20z" />
    <glyph glyph-name="M" unicode="M" horiz-adv-x="799" 
d="M704 666v-646q0 -20 -20 -20h-57q-20 0 -20 20v474l-183 -325q-9 -16 -25 -16q-15 0 -24 16l-183 325v-474q0 -20 -20 -20h-57q-20 0 -20 20v646q0 20 20 20h57q19 0 30 -18l198 -363l197 363q11 18 30 18h57q20 0 20 -20z" />
    <glyph glyph-name="N" unicode="N" horiz-adv-x="718" 
d="M623 666v-646q0 -20 -20 -20h-57q-20 0 -31 17l-323 496v-493q0 -20 -20 -20h-57q-20 0 -20 20v646q0 20 20 20h57q20 0 31 -17l323 -496v493q0 20 20 20h57q20 0 20 -20z" />
    <glyph glyph-name="O" unicode="O" horiz-adv-x="736" 
d="M202 35.5q-72 47.5 -111 128.5t-39 179q0 102 40 183t112 126.5t164 45.5q94 0 166 -47.5t111 -129t39 -178.5q0 -103 -40 -183.5t-112 -126t-164 -45.5q-94 0 -166 47.5zM483 111.5q49 33.5 75.5 94t26.5 137.5t-26.5 137t-75.5 94t-115 34q-67 0 -116 -34t-75 -94
t-26 -137t26.5 -137.5t75.5 -94t115 -33.5t115 33.5z" />
    <glyph glyph-name="P" unicode="P" horiz-adv-x="602" 
d="M441.5 659.5q56.5 -26.5 85 -73t28.5 -107.5q0 -66 -29.5 -115.5t-87 -76.5t-137.5 -27h-109v-240q0 -20 -20 -20h-57q-20 0 -20 20v646q0 20 20 20h190q80 0 136.5 -26.5zM417.5 382q38.5 36 38.5 97q0 57 -38 89t-113 32h-113v-254h109q78 0 116.5 36z" />
    <glyph glyph-name="Q" unicode="Q" horiz-adv-x="736" 
d="M651 174.5q-33 -75.5 -93 -123t-139 -59.5v-105q0 -20 -20 -20h-55q-20 0 -20 20v104q-82 11 -144 60t-95 125.5t-33 166.5q0 102 40 183t112 126.5t164 45.5q94 0 166 -47.5t111 -129t39 -178.5q0 -93 -33 -168.5zM507.5 131.5q37.5 35.5 57.5 90t20 121.5
q0 77 -26.5 137t-75.5 94t-115 34q-67 0 -116 -34t-75 -94t-26 -137q0 -68 20.5 -123.5t59.5 -91t93 -46.5v95q0 20 20 20h55q20 0 20 -20v-93q51 12 88.5 47.5z" />
    <glyph glyph-name="R" unicode="R" horiz-adv-x="628" 
d="M567 27q3 -6 3 -11q0 -7 -5 -11.5t-13 -4.5h-64q-10 0 -18 4.5t-12 12.5l-155 267h-111v-264q0 -20 -20 -20h-57q-20 0 -20 20v646q0 20 20 20h222q78 0 132.5 -25t82.5 -69.5t28 -102.5q0 -78 -44.5 -130t-126.5 -68zM192 370h141q75 0 111.5 31.5t36.5 87.5
q0 52 -36 81.5t-108 29.5h-145v-230z" />
    <glyph glyph-name="S" unicode="S" horiz-adv-x="572" 
d="M147.5 16.5q-60.5 28.5 -106.5 82.5q-6 8 -6 14q0 8 7 15l36 38q7 7 13 7t14 -8q40 -47 84 -68t98 -21q41 0 71.5 14t47 39t16.5 57q0 38 -20 60t-50.5 33t-84.5 23q-67 15 -109.5 32t-72.5 57t-30 111q0 48 28 93t81 74t124 29q75 0 131 -27t94 -75q5 -5 5 -14t-8 -16
l-34 -32q-9 -7 -14 -7q-8 0 -14 8q-36 38 -73 56t-85 18q-37 0 -68.5 -13t-49.5 -36.5t-18 -53.5q0 -37 20.5 -59.5t50.5 -33t84 -23.5q68 -16 110 -33t72 -56.5t30 -109.5q0 -56 -29.5 -102.5t-82.5 -73.5t-122 -27q-79 0 -139.5 28.5z" />
    <glyph glyph-name="T" unicode="T" horiz-adv-x="558" 
d="M530 666v-46q0 -20 -20 -20h-182v-580q0 -20 -20 -20h-57q-20 0 -20 20v580h-183q-20 0 -20 20v46q0 20 20 20h462q20 0 20 -20z" />
    <glyph glyph-name="U" unicode="U" horiz-adv-x="690" 
d="M197 26.5q-59 38.5 -87.5 107t-28.5 159.5v373q0 20 20 20h57q20 0 20 -20v-373q0 -107 38.5 -161t128.5 -54t128.5 54t38.5 161v373q0 20 20 20h57q20 0 20 -20v-373q0 -145 -67 -225t-197 -80q-89 0 -148 38.5z" />
    <glyph glyph-name="V" unicode="V" horiz-adv-x="614" 
d="M585.5 680q6.5 -6 6.5 -15l-2 -8l-230 -638q-8 -19 -27 -19h-52q-19 0 -27 19l-230 638l-2 8q0 9 6.5 15t15.5 6h56q20 0 26 -19l182 -535l182 535q6 19 26 19h54q9 0 15.5 -6z" />
    <glyph glyph-name="W" unicode="W" horiz-adv-x="887" 
d="M855.5 676.5q7.5 -9.5 4.5 -20.5l-164 -637q-2 -9 -8.5 -14t-16.5 -5h-49q-20 0 -26 19l-151 496l-152 -496q-6 -19 -26 -19h-49q-10 0 -16.5 5t-8.5 14l-166 637q-3 11 4 20.5t19 9.5h49q10 0 16.5 -5t8.5 -14l124 -517l154 517q6 19 26 19h35q20 0 26 -19l154 -516
l122 516q2 9 8.5 14t16.5 5h47q11 0 18.5 -9.5z" />
    <glyph glyph-name="X" unicode="X" horiz-adv-x="566" 
d="M555 18q0 -8 -5.5 -13t-15.5 -5h-55q-10 0 -18 4.5t-12 12.5l-166 270l-166 -270q-4 -8 -12 -12.5t-18 -4.5h-55q-10 0 -15.5 5t-5.5 13q0 6 4 13l212 327l-192 297q-4 5 -4 13t5.5 13t15.5 5h55q10 0 18 -4.5t12 -12.5l146 -238l146 238q4 8 12 12.5t18 4.5h55
q10 0 15.5 -5t5.5 -13q0 -6 -4 -13l-192 -296l212 -328q4 -5 4 -13z" />
    <glyph glyph-name="Y" unicode="Y" horiz-adv-x="573" 
d="M554 680q6 -6 6 -14q0 -7 -3 -13l-222 -401v-232q0 -20 -20 -20h-57q-20 0 -20 20v232l-221 401q-4 8 -4 13q0 8 6.5 14t16.5 6h50q20 0 29 -18l172 -325l172 325q9 18 29 18h50q10 0 16 -6z" />
    <glyph glyph-name="Z" unicode="Z" horiz-adv-x="500" 
d="M461 593l-319 -507h310q20 0 20 -20v-46q0 -20 -20 -20h-404q-20 0 -20 20v36q0 20 11 37l319 507h-310q-20 0 -20 20v46q0 20 20 20h404q20 0 20 -20v-36q0 -20 -11 -37z" />
    <glyph glyph-name="bracketleft" unicode="[" horiz-adv-x="318" 
d="M95 -137v901q0 20 20 20h155q20 0 20 -20v-30q0 -20 -20 -20h-84v-800h84q20 0 20 -20v-31q0 -20 -20 -20h-155q-20 0 -20 20z" />
    <glyph glyph-name="backslash" unicode="\" horiz-adv-x="413" 
d="M350 -172l-343 943l-2 8q0 11 15 11h48q19 0 27 -19l343 -943l2 -8q0 -11 -15 -11h-48q-19 0 -27 19z" />
    <glyph glyph-name="bracketright" unicode="]" horiz-adv-x="318" 
d="M223 764v-901q0 -20 -20 -20h-155q-20 0 -20 20v30q0 20 20 20h84v800h-84q-20 0 -20 20v31q0 20 20 20h155q20 0 20 -20z" />
    <glyph glyph-name="asciicircum" unicode="^" horiz-adv-x="481" 
d="M461 282q0 -9 -14 -9h-59q-20 0 -29 18l-120 246l-118 -246q-9 -18 -29 -18h-58q-14 0 -14 9q0 3 3 9l160 315q9 18 29 18h56q20 0 29 -18l161 -315q3 -6 3 -9z" />
    <glyph glyph-name="underscore" unicode="_" horiz-adv-x="396" 
d="M20 -92v40q0 20 20 20h316q20 0 20 -20v-40q0 -20 -20 -20h-316q-20 0 -20 20z" />
    <glyph glyph-name="grave" unicode="`" horiz-adv-x="256" 
d="M120 560l-59 90q-4 5 -4 12q0 4 3 7.5t8 5.5l53 25q4 2 10 2q12 0 16 -13l51 -127l2 -9q0 -10 -14 -10h-35q-20 0 -31 17z" />
    <glyph glyph-name="a" unicode="a" horiz-adv-x="529" 
d="M362 487.5q48 -24.5 73 -69t25 -102.5v-296q0 -20 -20 -20h-51q-20 0 -20 20v50q-28 -42 -69.5 -62t-93.5 -20q-78 0 -124 38.5t-46 112.5q0 79 58.5 121t179.5 43l91 1v15q0 51 -30 80t-87 29q-39 0 -69 -12.5t-60 -35.5q-8 -6 -14 -6q-9 0 -15 8l-26 31q-6 8 -6 14
q0 8 7 15q33 30 78.5 50t104.5 20q66 0 114 -24.5zM290 82.5q33 15.5 54 46.5t21 75v24l-85 -1q-80 -1 -114.5 -23t-34.5 -65q0 -35 23.5 -53.5t67.5 -18.5q35 0 68 15.5z" />
    <glyph glyph-name="b" unicode="b" horiz-adv-x="607" 
d="M453.5 479q52.5 -33 80.5 -92.5t28 -136.5t-32 -136.5t-87 -92.5t-121 -33q-49 0 -87 18.5t-63 52.5v-39q0 -20 -20 -20h-51q-20 0 -20 20v646q0 20 20 20h55q20 0 20 -20v-225q27 34 67 52.5t89 18.5q69 0 121.5 -33zM395.5 94.5q32.5 22.5 51 63t18.5 92.5
q0 53 -17 93.5t-49.5 62.5t-76.5 22q-72 0 -109 -48t-37 -130q0 -84 35 -131t111 -47q41 0 73.5 22.5z" />
    <glyph glyph-name="c" unicode="c" horiz-adv-x="523" 
d="M157 22q-55 34 -83.5 93.5t-28.5 134.5q0 76 30 135.5t85 93t127 33.5q132 0 194 -96q3 -6 3 -12q0 -9 -9 -17l-38 -28q-7 -5 -12 -5q-9 0 -15 9q-23 30 -53 47.5t-71 17.5q-70 0 -107 -48.5t-37 -129.5q0 -53 17 -93.5t49.5 -62.5t79.5 -22q45 0 75.5 17t59.5 53
q5 8 14 8q8 0 13 -5l33 -27q9 -7 9 -16q0 -6 -5 -14q-35 -47 -83 -73.5t-116 -26.5q-76 0 -131 34z" />
    <glyph glyph-name="d" unicode="d" horiz-adv-x="607" 
d="M526 666v-646q0 -20 -20 -20h-51q-20 0 -20 20v44q-28 -37 -68 -56.5t-92 -19.5q-69 0 -121.5 33t-80.5 92.5t-28 136.5t32 136.5t87 92.5t121 33q94 0 146 -66v220q0 20 20 20h55q20 0 20 -20zM394 120q37 48 37 130q0 84 -35 131t-111 47q-41 0 -73.5 -22.5t-51 -63
t-18.5 -92.5q0 -53 17 -93.5t49.5 -62.5t76.5 -22q72 0 109 48z" />
    <glyph glyph-name="e" unicode="e" horiz-adv-x="554" 
d="M491 222h-348q7 -69 45.5 -109.5t101.5 -40.5q46 0 77 16.5t62 53.5q5 8 14 8q8 0 13 -5l33 -27q9 -7 9 -16q0 -6 -5 -13q-35 -48 -84 -74.5t-119 -26.5q-76 0 -131.5 34t-84.5 93.5t-29 134.5q0 74 32 134t87 94t121 34q70 0 120.5 -33t78 -93.5t27.5 -143.5
q0 -20 -20 -20zM194 395q-36 -34 -47 -93h264q-7 60 -39.5 93.5t-88.5 33.5q-53 0 -89 -34z" />
    <glyph glyph-name="f" unicode="f" horiz-adv-x="390" 
d="M258 604.5q-23 -11.5 -33 -36.5t-10 -66v-2h133q20 0 20 -20v-46q0 -20 -20 -20h-133v-394q0 -20 -20 -20h-55q-20 0 -20 20v394h-70q-20 0 -20 20v46q0 20 20 20h70v5q0 58 22 101t63 66t98 23q21 0 45 -3q20 -3 20 -23v-35q0 -19 -18 -19l-31 1q-38 0 -61 -11.5z" />
    <glyph glyph-name="g" unicode="g" horiz-adv-x="607" 
d="M526 480v-491q0 -71 -30 -121t-83.5 -76t-121.5 -26q-63 0 -109 16.5t-86 49.5q-11 9 -11 19q0 5 5 12l27 40q5 8 14 8q8 0 13 -5q35 -29 69.5 -42.5t76.5 -13.5q64 0 102 33t38 101v74q-27 -34 -66 -52t-89 -18q-69 0 -121.5 33t-80.5 92.5t-28 136.5t32 136.5t87 92.5
t121 33q49 0 87 -18.5t63 -52.5v39q0 20 20 20h51q20 0 20 -20zM390 115.5q37 43.5 41 118.5v31q-7 163 -146 163q-41 0 -73.5 -22.5t-51 -63t-18.5 -92.5q0 -53 17 -93.5t49.5 -62.5t76.5 -22q68 0 105 43.5z" />
    <glyph glyph-name="h" unicode="h" horiz-adv-x="589" 
d="M470.5 454q49.5 -58 49.5 -167v-267q0 -20 -20 -20h-55q-20 0 -20 20v260q0 75 -27.5 111t-91.5 36q-40 0 -69 -18.5t-45 -52t-16 -79.5v-257q0 -20 -20 -20h-55q-20 0 -20 20v646q0 20 20 20h55q20 0 20 -20v-222q26 33 64 50.5t87 17.5q94 0 143.5 -58z" />
    <glyph glyph-name="i" unicode="i" horiz-adv-x="257" 
d="M81 20v460q0 20 20 20h55q20 0 20 -20v-460q0 -20 -20 -20h-55q-20 0 -20 20zM82 587.5q-18 18.5 -18 46.5q0 26 18 45t47 19t47 -19t18 -45q0 -28 -18 -46.5t-47 -18.5t-47 18.5z" />
    <glyph glyph-name="j" unicode="j" horiz-adv-x="257" 
d="M-12 -149h14q28 0 45 8t25.5 28t8.5 56v537q0 20 20 20h55q20 0 20 -20v-547q0 -79 -41.5 -122.5t-125.5 -43.5q-15 0 -21 1q-10 1 -15 6.5t-5 15.5v41q0 20 20 20zM82 587.5q-18 18.5 -18 46.5q0 26 18 45t47 19t47 -19t18 -45q0 -28 -18 -46.5t-47 -18.5t-47 18.5z" />
    <glyph glyph-name="k" unicode="k" horiz-adv-x="509" 
d="M498 20q0 -9 -6 -14.5t-18 -5.5h-59q-15 0 -25 13l-154 213l-60 -62v-144q0 -20 -20 -20h-55q-20 0 -20 20v646q0 20 20 20h55q20 0 20 -20v-387l187 209q11 12 27 12h66q11 0 17 -4.5t6 -11.5q0 -6 -8 -16l-170 -175l191 -256q6 -9 6 -17z" />
    <glyph glyph-name="l" unicode="l" horiz-adv-x="257" 
d="M81 20v646q0 20 20 20h55q20 0 20 -20v-646q0 -20 -20 -20h-55q-20 0 -20 20z" />
    <glyph glyph-name="m" unicode="m" horiz-adv-x="903" 
d="M785 454q49 -58 49 -167v-267q0 -20 -20 -20h-55q-20 0 -20 20v260q0 74 -26 110.5t-85 36.5t-91 -40t-32 -110v-257q0 -20 -20 -20h-55q-20 0 -20 20v260q0 74 -26 110.5t-85 36.5t-91 -40t-32 -110v-257q0 -20 -20 -20h-55q-20 0 -20 20v460q0 20 20 20h51q20 0 20 -20
v-36q25 33 62 50.5t86 17.5q55 0 94.5 -22t62.5 -66q26 42 68 65t101 23q90 0 139 -58z" />
    <glyph glyph-name="n" unicode="n" horiz-adv-x="589" 
d="M470.5 454q49.5 -58 49.5 -167v-267q0 -20 -20 -20h-55q-20 0 -20 20v260q0 75 -27.5 111t-91.5 36q-40 0 -69 -18.5t-45 -52t-16 -79.5v-257q0 -20 -20 -20h-55q-20 0 -20 20v460q0 20 20 20h51q20 0 20 -20v-41q26 35 65.5 54t89.5 19q94 0 143.5 -58z" />
    <glyph glyph-name="o" unicode="o" horiz-adv-x="578" 
d="M160.5 23q-55.5 35 -85.5 95t-30 132q0 76 30.5 135.5t86 93t127.5 33.5q73 0 128.5 -35t85.5 -95t30 -132q0 -76 -30.5 -135.5t-86 -93t-127.5 -33.5q-73 0 -128.5 35zM369 94.5q33 22.5 50 62.5t17 93t-17 93t-50 62.5t-80 22.5t-80 -22.5t-50 -62.5t-17 -93t17 -93
t50 -62.5t80 -22.5t80 22.5z" />
    <glyph glyph-name="p" unicode="p" horiz-adv-x="607" 
d="M453.5 479q52.5 -33 80.5 -92.5t28 -136.5t-32 -136.5t-87 -92.5t-121 -33q-94 0 -146 66v-256q0 -20 -20 -20h-55q-20 0 -20 20v682q0 20 20 20h51q20 0 20 -20v-44q28 37 68 56.5t92 19.5q69 0 121.5 -33zM395.5 94.5q32.5 22.5 51 63t18.5 92.5q0 53 -17 93.5
t-49.5 62.5t-76.5 22q-72 0 -109 -48t-37 -130q0 -84 35 -131t111 -47q41 0 73.5 22.5z" />
    <glyph glyph-name="q" unicode="q" horiz-adv-x="607" 
d="M526 480v-682q0 -20 -20 -20h-55q-20 0 -20 20v261q-27 -34 -67 -52.5t-89 -18.5q-69 0 -121.5 33t-80.5 92.5t-28 136.5t32 136.5t87 92.5t121 33q49 0 87 -18.5t63 -52.5v39q0 20 20 20h51q20 0 20 -20zM394 120q37 48 37 130q0 84 -35 131t-111 47q-41 0 -73.5 -22.5
t-51 -63t-18.5 -92.5q0 -53 17 -93.5t49.5 -62.5t76.5 -22q72 0 109 48z" />
    <glyph glyph-name="r" unicode="r" horiz-adv-x="396" 
d="M361 502.5q5 -5.5 5 -15.5v-57q0 -20 -20 -18h-9q-47 0 -83.5 -19t-57 -56.5t-20.5 -89.5v-227q0 -20 -20 -20h-55q-20 0 -20 20v460q0 20 20 20h51q20 0 20 -20v-71q25 48 66 74t96 26h12q10 -1 15 -6.5z" />
    <glyph glyph-name="s" unicode="s" horiz-adv-x="468" 
d="M128.5 8.5q-47.5 20.5 -85.5 58.5q-7 7 -7 15q0 7 6 14l32 37q6 8 13 8t14 -7q31 -31 64 -46.5t73 -15.5q48 0 73 19t25 50q0 22 -14.5 35t-37 20.5t-60.5 15.5q-56 13 -90 26.5t-59 43t-25 80.5q0 35 21.5 69.5t64.5 57.5t104 23t106.5 -19t75.5 -53q6 -7 6 -15
q0 -9 -7 -16l-28 -31q-8 -8 -14 -8q-7 0 -14 7q-30 26 -59.5 38.5t-65.5 12.5q-42 0 -68 -16.5t-26 -45.5q0 -21 14.5 -34.5t37 -21t61.5 -16.5q55 -13 89.5 -26.5t59 -42.5t24.5 -79q0 -43 -23.5 -79t-67.5 -57.5t-102 -21.5q-63 0 -110.5 20.5z" />
    <glyph glyph-name="t" unicode="t" horiz-adv-x="426" 
d="M401 42q0 -8 -7 -17q-19 -17 -48 -27t-65 -10q-80 0 -120.5 45.5t-40.5 130.5v250h-70q-20 0 -20 20v46q0 20 20 20h70v136q0 20 20 20h55q20 0 20 -20v-136h153q20 0 20 -20v-46q0 -20 -20 -20h-153v-240q0 -56 18.5 -79t53.5 -23q33 0 65 19q7 5 12 5q9 0 15 -10
l17 -29q5 -8 5 -15z" />
    <glyph glyph-name="u" unicode="u" horiz-adv-x="589" 
d="M508 480v-460q0 -20 -20 -20h-51q-20 0 -20 20v41q-26 -35 -65.5 -54t-89.5 -19q-94 0 -143.5 58t-49.5 167v267q0 20 20 20h55q20 0 20 -20v-260q0 -75 27.5 -111t91.5 -36q40 0 69 18.5t45 52t16 79.5v257q0 20 20 20h55q20 0 20 -20z" />
    <glyph glyph-name="v" unicode="v" horiz-adv-x="485" 
d="M463.5 494q6.5 -6 6.5 -15l-2 -8l-176 -452q-3 -9 -10 -14t-17 -5h-46q-10 0 -17 5t-10 14l-176 452q-4 11 2 20t18 9h49q19 0 27 -19l131 -365l131 365q8 19 27 19h47q9 0 15.5 -6z" />
    <glyph glyph-name="w" unicode="w" horiz-adv-x="754" 
d="M732 492q7 -9 3 -20l-146 -452q-6 -19 -26 -19h-46q-20 0 -26 19l-114 337l-114 -338q-6 -19 -26 -19h-46q-20 0 -26 19l-146 452q-4 11 2.5 20t18.5 9h49q20 0 26 -19l101 -354l114 354q6 19 26 19h44q20 0 26 -19l113 -353l102 354q6 19 26 19h47q11 0 18 -9z" />
    <glyph glyph-name="x" unicode="x" horiz-adv-x="497" 
d="M486 19q0 -8 -6.5 -13.5t-17.5 -5.5h-62q-15 0 -25 13l-127 176l-126 -176q-10 -13 -25 -13h-61q-12 0 -18.5 5.5t-6.5 14.5q0 7 6 16l172 225l-151 202q-7 8 -7 18q0 8 6.5 13.5t17.5 5.5h62q15 0 25 -13l109 -152l106 152q10 13 25 13h61q12 0 18.5 -5.5t6.5 -14.5
q0 -7 -6 -16l-153 -201l170 -226q7 -8 7 -18z" />
    <glyph glyph-name="y" unicode="y" horiz-adv-x="487" 
d="M465.5 494q6.5 -6 6.5 -15l-2 -8l-260 -674q-3 -9 -10 -14t-17 -5h-43q-9 0 -15.5 6t-6.5 15l2 8l76 196l-180 468q-4 11 2 20t18 9h52q19 0 27 -19l131 -370l130 370q8 19 27 19h47q9 0 15.5 -6z" />
    <glyph glyph-name="z" unicode="z" horiz-adv-x="477" 
d="M419 398l-253 -312h246q20 0 20 -20v-46q0 -20 -20 -20h-347q-20 0 -20 20v46q0 21 13 35l257 313h-250q-20 0 -20 20v46q0 20 20 20h347q20 0 20 -20v-46q0 -20 -13 -36z" />
    <glyph glyph-name="braceleft" unicode="{" horiz-adv-x="332" 
d="M172.5 -131.5q-44.5 24.5 -67 64.5t-22.5 86q0 24 5.5 44.5t18.5 57.5q11 28 16 46t5 35q0 38 -19.5 57t-60.5 23q-20 2 -20 21v22q0 19 20 21q41 5 60.5 23.5t19.5 55.5q0 18 -5.5 37t-15.5 46q-12 31 -18 54.5t-6 47.5q0 45 22 84.5t66 64t106 24.5h7q10 0 15 -5.5
t5 -15.5v-24q0 -20 -20 -20q-56 -1 -83 -32t-27 -76q0 -19 5.5 -38t16.5 -50q12 -30 18 -52.5t6 -44.5q0 -38 -20 -63.5t-61 -47.5q41 -22 61 -47t20 -65q0 -22 -6 -44t-18 -52q-11 -29 -16.5 -48.5t-5.5 -38.5q0 -45 27 -76.5t83 -32.5q20 0 20 -20v-25q0 -10 -5 -15.5
t-15 -5.5h-4q-63 0 -107.5 24.5z" />
    <glyph glyph-name="bar" unicode="|" horiz-adv-x="369" 
d="M162 790h44q20 0 20 -20v-972q0 -20 -20 -20h-44q-20 0 -20 20v972q0 20 20 20z" />
    <glyph glyph-name="braceright" unicode="}" horiz-adv-x="332" 
d="M159.5 758.5q44.5 -24.5 67 -64.5t22.5 -86q0 -24 -5.5 -44.5t-18.5 -57.5q-11 -28 -16 -46t-5 -35q0 -37 19.5 -56.5t60.5 -23.5q20 -2 20 -21v-22q0 -19 -20 -21q-41 -5 -60.5 -23.5t-19.5 -55.5q0 -18 5.5 -37t15.5 -46q12 -31 18 -54.5t6 -47.5q0 -45 -22 -84.5
t-66 -64t-106 -24.5h-7q-10 0 -15 5.5t-5 15.5v24q0 20 20 20q56 1 83 32t27 76q0 19 -5.5 38t-16.5 50q-12 30 -18 52.5t-6 44.5q0 38 20 63.5t61 47.5q-41 22 -61 47t-20 65q0 22 6 44t18 52q11 29 16.5 48.5t5.5 38.5q0 45 -27 76.5t-83 32.5q-20 0 -20 20v25
q0 10 5 15.5t15 5.5h4q63 0 107.5 -24.5z" />
    <glyph glyph-name="asciitilde" unicode="~" horiz-adv-x="631" 
d="M377.5 254q-22.5 12 -40.5 29t-43 45q-16 17 -32 32.5t-31 24.5t-29 9q-29 0 -48 -33.5t-22 -92.5q0 -20 -20 -20h-42q-20 0 -20 20q3 68 23.5 118t55.5 76.5t80 26.5q25 0 47 -12t39.5 -29t43.5 -46q15 -17 31.5 -33t31 -25t28.5 -9q29 0 48 34t22 94q0 20 20 20h41
q20 0 20 -20q-3 -68 -23 -118t-54 -76.5t-79 -26.5q-25 0 -47.5 12z" />
    <glyph glyph-name="uni00A0" unicode="&#xa0;" horiz-adv-x="250" 
 />
    <glyph glyph-name="exclamdown" unicode="&#xa1;" horiz-adv-x="270" 
d="M170.5 503q15.5 -9 24 -24.5t8.5 -33.5q0 -19 -8.5 -34.5t-24 -25t-35.5 -9.5t-35.5 9.5t-24 25t-8.5 34.5q0 18 8.5 33.5t24 24.5t35.5 9t35.5 -9zM122 316h33q19 0 21 -20l15 -461v-2q0 -18 -19 -18h-65q-10 0 -15 5t-4 15l13 461q2 20 21 20z" />
    <glyph glyph-name="cent" unicode="&#xa2;" horiz-adv-x="535" 
d="M499 190q0 -6 -5 -14q-30 -42 -71 -67.5t-98 -31.5v-57q0 -20 -20 -20h-46q-20 0 -20 20v61q-59 12 -101 48t-64 90t-22 119q0 66 23 120t65 89.5t99 46.5v72q0 20 20 20h46q20 0 20 -20v-67q55 -6 96 -30t67 -65q3 -6 3 -12q0 -9 -9 -17l-38 -28q-7 -5 -12 -5
q-9 0 -15 9q-23 30 -53 47.5t-71 17.5q-70 0 -107 -48.5t-37 -129.5q0 -53 17 -93.5t49.5 -62.5t79.5 -22q45 0 75.5 17t59.5 53q5 8 14 8q8 0 13 -5l33 -27q9 -7 9 -16z" />
    <glyph glyph-name="sterling" unicode="&#xa3;" horiz-adv-x="549" 
d="M503 71v-51q0 -20 -20 -20h-407q-20 0 -20 20v44q0 21 15 34q26 26 36.5 52t10.5 60q0 26 -6 70h-64q-20 0 -20 20v35q0 20 20 20h48q-7 36 -10.5 64.5t-3.5 62.5q0 63 29 112t80.5 76.5t118.5 27.5q121 0 191 -86q5 -8 5 -14q0 -8 -8 -16l-34 -33q-7 -7 -14 -7t-13 8
q-24 27 -54 42t-70 15q-39 0 -68.5 -17t-45.5 -47.5t-16 -70.5q0 -31 4 -57.5t11 -59.5h200q20 0 20 -20v-35q0 -20 -20 -20h-186q4 -36 4 -58q0 -38 -10 -70.5t-33 -60.5h310q20 0 20 -20z" />
    <glyph glyph-name="currency" unicode="&#xa4;" horiz-adv-x="678" 
d="M599 161q7 -6 7 -14q0 -7 -7 -14l-32 -32q-7 -7 -14 -7q-3 0 -7 2t-7 5l-67 66q-27 -17 -61 -26.5t-72 -9.5q-76 0 -134 36l-66 -66q-7 -7 -14 -7q-3 0 -7 2t-7 5l-32 32q-3 3 -5 7t-2 7q0 7 7 14l66 66q-36 58 -36 134q0 39 9.5 73t26.5 61l-66 66q-3 3 -5 7t-2 7
q0 7 7 14l32 33q7 7 14 7q8 0 14 -7l66 -67q58 36 134 36q38 0 72 -9.5t61 -26.5l67 67q7 7 14 7q8 0 14 -7l32 -33q7 -6 7 -14q0 -7 -7 -14l-67 -66q37 -55 37 -134q0 -77 -37 -134zM213 285.5q18 -32.5 50.5 -50.5t75.5 -18t75.5 18t50.5 50.5t18 75.5t-18 75.5
t-50.5 50.5t-75.5 18t-75.5 -18t-50.5 -50.5t-18 -75.5t18 -75.5z" />
    <glyph glyph-name="yen" unicode="&#xa5;" horiz-adv-x="631" 
d="M595 682q5 -4 5 -11q0 -3 -4 -11l-211 -312h140q20 0 20 -20v-33q0 -20 -20 -20h-159v-86h159q20 0 20 -20v-32q0 -20 -20 -20h-159v-97q0 -20 -20 -20h-56q-20 0 -20 20v97h-163q-20 0 -20 20v32q0 20 20 20h163v86h-163q-20 0 -20 20v33q0 20 20 20h142l-213 312
q-4 5 -4 12q0 6 5 10t12 4h66q20 0 31 -17l173 -266l168 266q11 17 31 17h64q8 0 13 -4z" />
    <glyph glyph-name="brokenbar" unicode="&#xa6;" horiz-adv-x="369" 
d="M162 790h44q20 0 20 -20v-340q0 -20 -20 -20h-44q-20 0 -20 20v340q0 20 20 20zM162 157h44q20 0 20 -20v-339q0 -20 -20 -20h-44q-20 0 -20 20v339q0 20 20 20z" />
    <glyph glyph-name="section" unicode="&#xa7;" horiz-adv-x="503" 
d="M413 211.5q18 -25.5 18 -65.5q0 -43 -23.5 -79t-67.5 -57.5t-102 -21.5q-63 0 -110.5 20.5t-85.5 58.5q-7 7 -7 15q0 7 6 14l32 37q6 8 13 8t14 -7q31 -31 64 -46.5t73 -15.5q48 0 73 19t25 50q0 22 -14.5 35t-37 20.5t-60.5 15.5q-56 13 -90 26.5t-59 43t-25 80.5
q0 33 24.5 63t75.5 45q-40 16 -59 43t-19 69q0 35 21.5 69.5t64.5 57.5t104 23t106.5 -19t75.5 -53q6 -7 6 -15q0 -9 -7 -16l-28 -31q-8 -8 -14 -8q-7 0 -14 7q-30 26 -59.5 38.5t-65.5 12.5q-42 0 -68 -16.5t-26 -45.5q0 -21 14.5 -34.5t37 -21t61.5 -16.5
q55 -13 89.5 -26.5t59 -42.5t24.5 -79q0 -38 -23.5 -68t-72.5 -44q38 -17 56 -42.5zM315.5 298.5q23.5 10.5 35 28.5t11.5 39q0 23 -18.5 37.5t-47 21.5t-58.5 7q-28 0 -50.5 -9t-35 -25t-12.5 -37q0 -23 18.5 -39.5t46 -25t54.5 -8.5q33 0 56.5 10.5z" />
    <glyph glyph-name="dieresis" unicode="&#xa8;" horiz-adv-x="387" 
d="M65.5 569q-15.5 15 -15.5 39t15.5 40t39.5 16t39.5 -16t15.5 -40t-15.5 -39t-39.5 -15t-39.5 15zM245 569q-15 15 -15 39t15 40t39 16t39 -16t15 -40t-14.5 -39t-39.5 -15q-24 0 -39 15z" />
    <glyph glyph-name="copyright" unicode="&#xa9;" horiz-adv-x="800" 
d="M222.5 34.5q-79.5 46.5 -125 127.5t-45.5 181q0 101 45.5 182t125 127.5t178.5 46.5q98 0 177.5 -46.5t124.5 -127.5t45 -182q0 -100 -45 -181t-124.5 -127.5t-177.5 -46.5q-99 0 -178.5 46.5zM548.5 83.5q65.5 38.5 103 106.5t37.5 153t-37.5 153t-103 106.5
t-147.5 38.5q-83 0 -149 -38.5t-103 -106.5t-37 -153t37 -153t103 -106.5t149 -38.5q82 0 147.5 38.5zM298.5 157.5q-45.5 27.5 -71 75.5t-25.5 109q0 63 26 111.5t72.5 75.5t105.5 27q44 0 81.5 -16t63.5 -44q6 -7 6 -14q0 -9 -8 -15l-25 -21q-7 -6 -14 -6q-8 0 -14 8
q-35 35 -90 35q-37 0 -65.5 -17.5t-44.5 -49.5t-16 -74q0 -39 16 -70.5t44 -49.5t63 -18q56 0 95 42q6 8 14 8q6 0 12 -6l25 -23q7 -7 7 -15q0 -6 -6 -14q-29 -32 -67 -49t-82 -17q-57 0 -102.5 27.5z" />
    <glyph glyph-name="ordfeminine" unicode="&#xaa;" horiz-adv-x="391" 
d="M273 678.5q35 -17.5 53 -49.5t18 -74v-202q0 -20 -20 -20h-36q-20 0 -20 20v35q-36 -64 -123 -64q-32 0 -59 12.5t-43 36.5t-16 57q0 56 45.5 86t131.5 30h60v13q0 32 -20.5 50.5t-59.5 18.5q-27 0 -48.5 -7.5t-42.5 -23.5q-5 -5 -13 -5q-9 0 -14 8l-16 19q-5 6 -5 14
q0 9 7 16q25 21 59.5 34t78.5 13q48 0 83 -17.5zM214.5 398q22.5 10 36 30t13.5 48v15h-54q-49 0 -76 -14t-27 -42q0 -21 15 -34t43 -13q27 0 49.5 10z" />
    <glyph glyph-name="guillemotleft" unicode="&#xab;" horiz-adv-x="514" 
d="M255 86q5 -7 5 -12q0 -8 -9 -16l-23 -19q-5 -5 -14 -5q-10 0 -15 8l-169 197q-6 8 -6 15q0 8 6 15l169 197q5 8 15 8q9 0 14 -5l23 -19q9 -7 9 -16q0 -5 -5 -12l-123 -168zM477 86q5 -7 5 -12q0 -8 -9 -16l-23 -19q-5 -5 -14 -5q-10 0 -15 8l-169 197q-6 8 -6 15
q0 8 6 15l169 197q5 8 15 8q9 0 14 -5l23 -19q9 -7 9 -16q0 -5 -5 -12l-123 -168z" />
    <glyph glyph-name="logicalnot" unicode="&#xac;" horiz-adv-x="581" 
d="M531 417v-289q0 -20 -20 -20h-46q-20 0 -20 20v221h-395q-20 0 -20 20v48q0 20 20 20h461q20 0 20 -20z" />
    <glyph glyph-name="uni00AD" unicode="&#xad;" horiz-adv-x="347" 
d="M75 317h197q20 0 20 -20v-41q0 -20 -20 -20h-197q-20 0 -20 20v41q0 20 20 20z" />
    <glyph glyph-name="registered" unicode="&#xae;" horiz-adv-x="453" 
d="M328 661q45 -25 70 -70t25 -101t-25 -100.5t-70 -69.5t-101 -25t-100.5 25t-70 69.5t-25.5 100.5t25.5 101t70 70t100.5 25t101 -25zM301.5 365q32.5 18 50.5 50.5t18 74.5t-18 75t-50.5 51t-74.5 18t-75 -18t-51 -51t-18 -75t18.5 -74.5t51 -50.5t74.5 -18t74.5 18z
M307 415q4 -5 4 -9q0 -7 -12 -7h-17q-19 0 -32 16l-38 51h-9v-47q0 -20 -20 -20h-6q-20 0 -20 20v143q0 20 20 20h53q33 0 52.5 -15.5t19.5 -42.5q0 -19 -10 -32.5t-29 -19.5zM203 540v-32h22q17 0 23.5 3.5t6.5 12.5t-5.5 12.5t-20.5 3.5h-26z" />
    <glyph glyph-name="macron" unicode="&#xaf;" horiz-adv-x="351" 
d="M50 590v35q0 20 20 20h212q20 0 20 -20v-35q0 -20 -20 -20h-212q-20 0 -20 20z" />
    <glyph glyph-name="degree" unicode="&#xb0;" horiz-adv-x="458" 
d="M135.5 360.5q-42.5 23.5 -66.5 64.5t-24 93q0 53 23 93.5t64.5 63t95.5 22.5q53 0 95 -23.5t66 -64.5t24 -93q0 -51 -23.5 -91.5t-65 -64t-92.5 -23.5q-54 0 -96.5 23.5zM283.5 426.5q22.5 13.5 35 37t12.5 52.5q0 31 -13 55t-36 37.5t-54 13.5q-46 0 -74 -28.5
t-28 -75.5q0 -30 13.5 -54t37.5 -37.5t55 -13.5q29 0 51.5 13.5z" />
    <glyph glyph-name="plusminus" unicode="&#xb1;" horiz-adv-x="572" 
d="M522 388v-42q0 -20 -20 -20h-174v-152q0 -20 -20 -20h-45q-20 0 -20 20v152h-173q-20 0 -20 20v42q0 20 20 20h173v152q0 20 20 20h45q20 0 20 -20v-152h174q20 0 20 -20zM522 62v-42q0 -20 -20 -20h-432q-20 0 -20 20v42q0 20 20 20h432q20 0 20 -20z" />
    <glyph glyph-name="twosuperior" unicode="&#xb2;" horiz-adv-x="414" 
d="M362 53v-33q0 -20 -20 -20h-255q-20 0 -20 20v21q0 20 14 34l109 103q31 30 44 44.5t20 29.5t7 34q0 26 -16.5 43t-47.5 17q-23 0 -42 -10.5t-37 -29.5q-5 -8 -15 -8q-8 0 -13 5l-21 19q-8 8 -8 16t4 13q24 33 58 50.5t78 17.5q48 0 80 -18t47.5 -47.5t15.5 -62.5
q0 -43 -28 -84.5t-93 -99.5l-38 -34h157q20 0 20 -20z" />
    <glyph glyph-name="threesuperior" unicode="&#xb3;" horiz-adv-x="400" 
d="M301.5 213q31.5 -31 31.5 -81q0 -35 -17.5 -67t-52.5 -52t-85 -20q-45 0 -78.5 14.5t-59.5 42.5q-6 8 -6 14q0 7 8 15l22 24q7 7 14 7t13 -8q35 -37 85 -37q35 0 56 19t21 49q0 29 -19 44t-54 15q-8 0 -26 -2h-5q-15 0 -20 16l-3 17q-1 3 -1 9q0 14 10 24l86 83h-154
q-20 0 -20 20v33q0 20 20 20h238q20 0 20 -20v-26q0 -21 -15 -33l-92 -83q52 -6 83.5 -37z" />
    <glyph glyph-name="acute" unicode="&#xb4;" horiz-adv-x="243" 
d="M50 553l2 9l51 127q4 13 16 13q6 0 10 -2l53 -25q5 -2 8 -5.5t3 -7.5q0 -7 -4 -12l-59 -90q-11 -17 -31 -17h-35q-14 0 -14 10z" />
    <glyph glyph-name="mu" unicode="&#xb5;" horiz-adv-x="589" 
d="M508 480v-460q0 -20 -20 -20h-51q-20 0 -20 20v38q-24 -34 -58 -52t-76 -18q-76 0 -119 43v-233q0 -20 -20 -20h-55q-20 0 -20 20v682q0 20 20 20h55q20 0 20 -20v-260q0 -74 26.5 -110.5t86.5 -36.5q64 0 100 40t36 110v257q0 20 20 20h55q20 0 20 -20z" />
    <glyph glyph-name="paragraph" unicode="&#xb6;" horiz-adv-x="613" 
d="M158 305.5q-54 23.5 -82.5 68.5t-28.5 109q0 101 65.5 152t186.5 51h19q20 0 20 -20l1 -364q0 -20 -20 -20h-33q-74 0 -128 23.5zM423 20v646q0 20 20 20h55q20 0 20 -20v-646q0 -20 -20 -20h-55q-20 0 -20 20z" />
    <glyph glyph-name="periodcentered" unicode="&#xb7;" horiz-adv-x="253" 
d="M89 219.5q-16 9.5 -25 26t-9 35.5q0 20 9 36.5t25 26.5t37 10t37.5 -10t25.5 -26.5t9 -36.5q0 -19 -9 -35.5t-25.5 -26t-37.5 -9.5t-37 9.5z" />
    <glyph glyph-name="cedilla" unicode="&#xb8;" horiz-adv-x="223" 
d="M52.5 -186q-3.5 5 -1.5 14l28 96q2 9 8.5 14t16.5 5h55q14 0 14 -9q0 -3 -2 -9l-45 -98q-7 -18 -28 -18h-32q-10 0 -13.5 5z" />
    <glyph glyph-name="onesuperior" unicode="&#xb9;" horiz-adv-x="333" 
d="M228 398v-378q0 -20 -20 -20h-40q-20 0 -20 20v290l-60 -43q-7 -5 -12 -5q-8 0 -16 9l-20 29q-5 7 -5 12q0 9 9 16l105 78q15 12 36 12h23q20 0 20 -20z" />
    <glyph glyph-name="ordmasculine" unicode="&#xba;" horiz-adv-x="454" 
d="M130.5 349q-41.5 25 -63.5 67.5t-22 93.5q0 54 23 96t64 66t95 24q55 0 96.5 -25t63.5 -68t22 -93q0 -54 -23 -96t-64.5 -66t-94.5 -24q-55 0 -96.5 25zM300 426.5q26 31.5 26 83.5t-26 83.5t-73 31.5q-48 0 -74 -31.5t-26 -83.5t26.5 -83.5t73.5 -31.5t73 31.5z" />
    <glyph glyph-name="guillemotright" unicode="&#xbb;" horiz-adv-x="514" 
d="M32 434q0 9 9 16l23 19q5 5 14 5q10 0 15 -8l169 -197q6 -7 6 -15q0 -7 -6 -15l-169 -197q-5 -8 -15 -8q-9 0 -14 5l-23 19q-9 8 -9 16q0 5 5 12l123 168l-123 168q-5 7 -5 12zM254 434q0 9 9 16l23 19q5 5 14 5q10 0 15 -8l169 -197q6 -7 6 -15q0 -7 -6 -15l-169 -197
q-5 -8 -15 -8q-9 0 -14 5l-23 19q-9 8 -9 16q0 5 5 12l123 168l-123 168q-5 7 -5 12z" />
    <glyph glyph-name="onequarter" unicode="&#xbc;" horiz-adv-x="780" 
d="M228 666v-378q0 -20 -20 -20h-40q-20 0 -20 20v290l-60 -43q-7 -5 -12 -5q-8 0 -16 9l-20 29q-5 7 -5 12q0 9 9 16l105 78q15 12 36 12h23q20 0 20 -20zM113 2q-1 2 0 4l423 673q2 4 4.5 5.5t6.5 1.5h76q2 0 3 -2t0 -4l-426 -676q-3 -4 -7 -4h-77q-2 0 -3 2zM752 128v-30
q0 -20 -20 -20h-46v-58q0 -20 -20 -20h-40q-20 0 -20 20v58h-181q-20 0 -20 20v30q0 21 12 36l177 232q13 16 32 16h40q20 0 20 -20v-244h46q20 0 20 -20zM606 148v151l-112 -151h112z" />
    <glyph glyph-name="onehalf" unicode="&#xbd;" horiz-adv-x="865" 
d="M228 666v-378q0 -20 -20 -20h-40q-20 0 -20 20v290l-60 -43q-7 -5 -12 -5q-8 0 -16 9l-20 29q-5 7 -5 12q0 9 9 16l105 78q15 12 36 12h23q20 0 20 -20zM113 2q-1 2 0 4l423 673q2 4 4.5 5.5t6.5 1.5h76q2 0 3 -2t0 -4l-426 -676q-3 -4 -7 -4h-77q-2 0 -3 2zM813 53v-33
q0 -20 -20 -20h-255q-20 0 -20 20v21q0 20 14 34l109 103q31 30 44 44.5t20 29.5t7 34q0 26 -16.5 43t-47.5 17q-23 0 -42 -10.5t-37 -29.5q-5 -8 -15 -8q-8 0 -13 5l-21 19q-8 8 -8 16t4 13q24 33 58 50.5t78 17.5q48 0 80 -18t47.5 -47.5t15.5 -62.5q0 -43 -28 -84.5
t-93 -99.5l-38 -34h157q20 0 20 -20z" />
    <glyph glyph-name="threequarters" unicode="&#xbe;" horiz-adv-x="840" 
d="M301.5 481q31.5 -31 31.5 -81q0 -35 -17.5 -67t-52.5 -52t-85 -20q-45 0 -78.5 14.5t-59.5 42.5q-6 8 -6 14q0 7 8 15l22 24q7 7 14 7t13 -8q35 -37 85 -37q35 0 56 19t21 49q0 29 -19 44t-54 15q-8 0 -26 -2h-5q-15 0 -20 16l-3 17q-1 3 -1 9q0 14 10 24l86 83h-154
q-20 0 -20 20v33q0 20 20 20h238q20 0 20 -20v-26q0 -21 -15 -33l-92 -83q52 -6 83.5 -37zM173 2q-1 2 0 4l423 673q2 4 4.5 5.5t6.5 1.5h76q2 0 3 -2t0 -4l-426 -676q-3 -4 -7 -4h-77q-2 0 -3 2zM812 128v-30q0 -20 -20 -20h-46v-58q0 -20 -20 -20h-40q-20 0 -20 20v58
h-181q-20 0 -20 20v30q0 21 12 36l177 232q13 16 32 16h40q20 0 20 -20v-244h46q20 0 20 -20zM666 148v151l-112 -151h112z" />
    <glyph glyph-name="questiondown" unicode="&#xbf;" horiz-adv-x="524" 
d="M319.5 502q15.5 -9 24 -24.5t8.5 -33.5q0 -19 -8.5 -34.5t-24 -25t-35.5 -9.5q-31 0 -49.5 20t-18.5 49q0 28 18.5 47.5t49.5 19.5q20 0 35.5 -9zM332 295v-122q0 -10 -5 -16.5t-14 -8.5q-62 -16 -99 -36.5t-54.5 -49.5t-17.5 -72q0 -25 15 -48t44.5 -37.5t70.5 -14.5
q91 0 150 67q6 8 13 8q6 0 13 -7l34 -34q7 -7 7 -16q0 -7 -6 -14q-83 -90 -216 -90q-71 0 -121 26t-75.5 71t-25.5 101t26 95.5t70 66t107 47.5v84q0 20 20 20h44q20 0 20 -20z" />
    <glyph glyph-name="Agrave" unicode="&#xc0;" horiz-adv-x="614" 
d="M592 21q0 -8 -6 -14.5t-16 -6.5h-56q-20 0 -26 19l-55 162h-254l-55 -162q-6 -19 -26 -19h-54q-9 0 -15.5 6t-6.5 15l2 8l230 638q8 19 27 19h52q19 0 27 -19l230 -638zM404 265l-98 289l-98 -289h196zM258 763l-59 90q-4 5 -4 12q0 4 3 7.5t8 5.5l53 25q4 2 10 2
q12 0 16 -13l51 -127l2 -9q0 -10 -14 -10h-35q-20 0 -31 17z" />
    <glyph glyph-name="Aacute" unicode="&#xc1;" horiz-adv-x="614" 
d="M592 21q0 -8 -6 -14.5t-16 -6.5h-56q-20 0 -26 19l-55 162h-254l-55 -162q-6 -19 -26 -19h-54q-9 0 -15.5 6t-6.5 15l2 8l230 638q8 19 27 19h52q19 0 27 -19l230 -638zM404 265l-98 289l-98 -289h196zM275 756l2 9l51 127q4 13 16 13q6 0 10 -2l53 -25q5 -2 8 -5.5
t3 -7.5q0 -7 -4 -12l-59 -90q-11 -17 -31 -17h-35q-14 0 -14 10z" />
    <glyph glyph-name="Acircumflex" unicode="&#xc2;" horiz-adv-x="614" 
d="M592 21q0 -8 -6 -14.5t-16 -6.5h-56q-20 0 -26 19l-55 162h-254l-55 -162q-6 -19 -26 -19h-54q-9 0 -15.5 6t-6.5 15l2 8l230 638q8 19 27 19h52q19 0 27 -19l230 -638zM404 265l-98 289l-98 -289h196zM437 754q0 -8 -13 -8h-35q-19 0 -32 16l-51 69l-50 -69
q-13 -16 -32 -16h-36q-13 0 -13 8q0 3 3 9l64 109q4 8 12 12.5t18 4.5h67q10 0 18 -4.5t12 -12.5l65 -109q3 -6 3 -9z" />
    <glyph glyph-name="Atilde" unicode="&#xc3;" horiz-adv-x="614" 
d="M592 21q0 -8 -6 -14.5t-16 -6.5h-56q-20 0 -26 19l-55 162h-254l-55 -162q-6 -19 -26 -19h-54q-9 0 -15.5 6t-6.5 15l2 8l230 638q8 19 27 19h52q19 0 27 -19l230 -638zM404 265l-98 289l-98 -289h196zM162.5 779.5q-3.5 6.5 -1.5 15.5q12 40 32.5 59.5t46.5 19.5
q20 0 35 -6t36 -18q13 -9 22.5 -13t18.5 -4q10 0 17 5t13 17q3 9 10 12.5t16 1.5l22 -6q9 -2 12.5 -8.5t1.5 -15.5q-12 -40 -32 -59.5t-47 -19.5q-21 0 -36 6t-34 18q-13 9 -22.5 13t-19.5 4t-16.5 -5t-11.5 -17q-8 -19 -26 -14l-24 6q-9 2 -12.5 8.5z" />
    <glyph glyph-name="Adieresis" unicode="&#xc4;" horiz-adv-x="614" 
d="M592 21q0 -8 -6 -14.5t-16 -6.5h-56q-20 0 -26 19l-55 162h-254l-55 -162q-6 -19 -26 -19h-54q-9 0 -15.5 6t-6.5 15l2 8l230 638q8 19 27 19h52q19 0 27 -19l230 -638zM404 265l-98 289l-98 -289h196zM177.5 772q-15.5 15 -15.5 39t15.5 40t39.5 16t39.5 -16t15.5 -40
t-15.5 -39t-39.5 -15t-39.5 15zM357 772q-15 15 -15 39t15 40t39 16t39 -16t15 -40t-14.5 -39t-39.5 -15q-24 0 -39 15z" />
    <glyph glyph-name="Aring" unicode="&#xc5;" horiz-adv-x="614" 
d="M592 21q0 -8 -6 -14.5t-16 -6.5h-56q-20 0 -26 19l-55 162h-254l-55 -162q-6 -19 -26 -19h-54q-9 0 -15.5 6t-6.5 15l2 8l230 638q8 19 27 19h52q19 0 27 -19l230 -638zM404 265l-98 289l-98 -289h196zM245.5 746q-27.5 15 -43 40.5t-15.5 57.5t15.5 58t42.5 41t61 15
t61 -15t42.5 -41t15.5 -58t-15.5 -58t-42.5 -40.5t-60 -14.5q-34 0 -61.5 15zM348 801q16 16 16 43q0 26 -16 42.5t-42 16.5q-25 0 -41 -16.5t-16 -42.5q0 -27 16 -43t42 -16q25 0 41 16z" />
    <glyph glyph-name="AE" unicode="&#xc6;" horiz-adv-x="930" 
d="M863 66v-46q0 -20 -20 -20h-374q-20 0 -20 20v171h-223l-95 -173q-10 -18 -30 -18h-60q-20 0 -20 12q0 6 5 14l364 643q11 17 30 17h413q20 0 20 -20v-46q0 -20 -20 -20h-287v-204h257q20 0 20 -20v-46q0 -20 -20 -20h-257v-224h297q20 0 20 -20zM449 275v323l-177 -323
h177z" />
    <glyph glyph-name="Ccedilla" unicode="&#xc7;" horiz-adv-x="655" 
d="M198.5 35q-70.5 47 -108.5 128t-38 180q0 103 39 183.5t109.5 126t162.5 45.5q82 0 143.5 -35.5t100.5 -102.5q3 -6 3 -11q0 -11 -11 -17l-46 -28q-6 -3 -11 -3q-9 0 -15 11q-26 46 -67.5 71t-96.5 25q-66 0 -114 -34t-73 -94t-25 -137q0 -78 25.5 -138t73.5 -93.5
t114 -33.5q114 0 178 108q6 11 15 11q7 0 12 -4l39 -26q11 -8 11 -18q0 -5 -3 -11q-37 -69 -103.5 -109.5t-148.5 -40.5q-95 0 -165.5 47zM289.5 -186q-3.5 5 -1.5 14l28 96q2 9 8.5 14t16.5 5h55q14 0 14 -9q0 -3 -2 -9l-45 -98q-7 -18 -28 -18h-32q-10 0 -13.5 5z" />
    <glyph glyph-name="Egrave" unicode="&#xc8;" horiz-adv-x="576" 
d="M509 66v-46q0 -20 -20 -20h-374q-20 0 -20 20v646q0 20 20 20h364q20 0 20 -20v-46q0 -20 -20 -20h-287v-204h257q20 0 20 -20v-46q0 -20 -20 -20h-257v-224h297q20 0 20 -20zM254 763l-59 90q-4 5 -4 12q0 4 3 7.5t8 5.5l53 25q4 2 10 2q12 0 16 -13l51 -127l2 -9
q0 -10 -14 -10h-35q-20 0 -31 17z" />
    <glyph glyph-name="Eacute" unicode="&#xc9;" horiz-adv-x="576" 
d="M509 66v-46q0 -20 -20 -20h-374q-20 0 -20 20v646q0 20 20 20h364q20 0 20 -20v-46q0 -20 -20 -20h-287v-204h257q20 0 20 -20v-46q0 -20 -20 -20h-257v-224h297q20 0 20 -20zM271 756l2 9l51 127q4 13 16 13q6 0 10 -2l53 -25q5 -2 8 -5.5t3 -7.5q0 -7 -4 -12l-59 -90
q-11 -17 -31 -17h-35q-14 0 -14 10z" />
    <glyph glyph-name="Ecircumflex" unicode="&#xca;" horiz-adv-x="576" 
d="M509 66v-46q0 -20 -20 -20h-374q-20 0 -20 20v646q0 20 20 20h364q20 0 20 -20v-46q0 -20 -20 -20h-287v-204h257q20 0 20 -20v-46q0 -20 -20 -20h-257v-224h297q20 0 20 -20zM433 754q0 -8 -13 -8h-35q-19 0 -32 16l-51 69l-50 -69q-13 -16 -32 -16h-36q-13 0 -13 8
q0 3 3 9l64 109q4 8 12 12.5t18 4.5h67q10 0 18 -4.5t12 -12.5l65 -109q3 -6 3 -9z" />
    <glyph glyph-name="Edieresis" unicode="&#xcb;" horiz-adv-x="576" 
d="M509 66v-46q0 -20 -20 -20h-374q-20 0 -20 20v646q0 20 20 20h364q20 0 20 -20v-46q0 -20 -20 -20h-287v-204h257q20 0 20 -20v-46q0 -20 -20 -20h-257v-224h297q20 0 20 -20zM173.5 772q-15.5 15 -15.5 39t15.5 40t39.5 16t39.5 -16t15.5 -40t-15.5 -39t-39.5 -15
t-39.5 15zM353 772q-15 15 -15 39t15 40t39 16t39 -16t15 -40t-14.5 -39t-39.5 -15q-24 0 -39 15z" />
    <glyph glyph-name="Igrave" unicode="&#xcc;" horiz-adv-x="345" 
d="M315 66v-46q0 -20 -20 -20h-245q-20 0 -20 20v46q0 20 20 20h74v514h-70q-20 0 -20 20v46q0 20 20 20h237q20 0 20 -20v-46q0 -20 -20 -20h-70v-514h74q20 0 20 -20zM124 763l-59 90q-4 5 -4 12q0 4 3 7.5t8 5.5l53 25q4 2 10 2q12 0 16 -13l51 -127l2 -9q0 -10 -14 -10
h-35q-20 0 -31 17z" />
    <glyph glyph-name="Iacute" unicode="&#xcd;" horiz-adv-x="345" 
d="M315 66v-46q0 -20 -20 -20h-245q-20 0 -20 20v46q0 20 20 20h74v514h-70q-20 0 -20 20v46q0 20 20 20h237q20 0 20 -20v-46q0 -20 -20 -20h-70v-514h74q20 0 20 -20zM141 756l2 9l51 127q4 13 16 13q6 0 10 -2l53 -25q5 -2 8 -5.5t3 -7.5q0 -7 -4 -12l-59 -90
q-11 -17 -31 -17h-35q-14 0 -14 10z" />
    <glyph glyph-name="Icircumflex" unicode="&#xce;" horiz-adv-x="345" 
d="M315 66v-46q0 -20 -20 -20h-245q-20 0 -20 20v46q0 20 20 20h74v514h-70q-20 0 -20 20v46q0 20 20 20h237q20 0 20 -20v-46q0 -20 -20 -20h-70v-514h74q20 0 20 -20zM303 754q0 -8 -13 -8h-35q-19 0 -32 16l-51 69l-50 -69q-13 -16 -32 -16h-36q-13 0 -13 8q0 3 3 9
l64 109q4 8 12 12.5t18 4.5h67q10 0 18 -4.5t12 -12.5l65 -109q3 -6 3 -9z" />
    <glyph glyph-name="Idieresis" unicode="&#xcf;" horiz-adv-x="345" 
d="M315 66v-46q0 -20 -20 -20h-245q-20 0 -20 20v46q0 20 20 20h74v514h-70q-20 0 -20 20v46q0 20 20 20h237q20 0 20 -20v-46q0 -20 -20 -20h-70v-514h74q20 0 20 -20zM43.5 772q-15.5 15 -15.5 39t15.5 40t39.5 16t39.5 -16t15.5 -40t-15.5 -39t-39.5 -15t-39.5 15z
M223 772q-15 15 -15 39t15 40t39 16t39 -16t15 -40t-14.5 -39t-39.5 -15q-24 0 -39 15z" />
    <glyph glyph-name="Eth" unicode="&#xd0;" horiz-adv-x="657" 
d="M450.5 643q76.5 -43 115.5 -119t39 -175q0 -104 -40 -183t-117.5 -122.5t-186.5 -43.5h-146q-20 0 -20 20v284h-48q-20 0 -20 20v37q0 20 20 20h48v285q0 20 20 20h150q109 0 185.5 -43zM398 119.5q55 33.5 81.5 92.5t26.5 137q0 118 -60.5 184.5t-180.5 66.5h-73v-219
h149q20 0 20 -20v-37q0 -20 -20 -20h-149v-218h69q82 0 137 33.5z" />
    <glyph glyph-name="Ntilde" unicode="&#xd1;" horiz-adv-x="718" 
d="M623 666v-646q0 -20 -20 -20h-57q-20 0 -31 17l-323 496v-493q0 -20 -20 -20h-57q-20 0 -20 20v646q0 20 20 20h57q20 0 31 -17l323 -496v493q0 20 20 20h57q20 0 20 -20zM214.5 779.5q-3.5 6.5 -1.5 15.5q12 40 32.5 59.5t46.5 19.5q20 0 35 -6t36 -18q13 -9 22.5 -13
t18.5 -4q10 0 17 5t13 17q3 9 10 12.5t16 1.5l22 -6q9 -2 12.5 -8.5t1.5 -15.5q-12 -40 -32 -59.5t-47 -19.5q-21 0 -36 6t-34 18q-13 9 -22.5 13t-19.5 4t-16.5 -5t-11.5 -17q-8 -19 -26 -14l-24 6q-9 2 -12.5 8.5z" />
    <glyph glyph-name="Ograve" unicode="&#xd2;" horiz-adv-x="736" 
d="M202 35.5q-72 47.5 -111 128.5t-39 179q0 102 40 183t112 126.5t164 45.5q94 0 166 -47.5t111 -129t39 -178.5q0 -103 -40 -183.5t-112 -126t-164 -45.5q-94 0 -166 47.5zM483 111.5q49 33.5 75.5 94t26.5 137.5t-26.5 137t-75.5 94t-115 34q-67 0 -116 -34t-75 -94
t-26 -137t26.5 -137.5t75.5 -94t115 -33.5t115 33.5zM319 763l-59 90q-4 5 -4 12q0 4 3 7.5t8 5.5l53 25q4 2 10 2q12 0 16 -13l51 -127l2 -9q0 -10 -14 -10h-35q-20 0 -31 17z" />
    <glyph glyph-name="Oacute" unicode="&#xd3;" horiz-adv-x="736" 
d="M202 35.5q-72 47.5 -111 128.5t-39 179q0 102 40 183t112 126.5t164 45.5q94 0 166 -47.5t111 -129t39 -178.5q0 -103 -40 -183.5t-112 -126t-164 -45.5q-94 0 -166 47.5zM483 111.5q49 33.5 75.5 94t26.5 137.5t-26.5 137t-75.5 94t-115 34q-67 0 -116 -34t-75 -94
t-26 -137t26.5 -137.5t75.5 -94t115 -33.5t115 33.5zM336 756l2 9l51 127q4 13 16 13q6 0 10 -2l53 -25q5 -2 8 -5.5t3 -7.5q0 -7 -4 -12l-59 -90q-11 -17 -31 -17h-35q-14 0 -14 10z" />
    <glyph glyph-name="Ocircumflex" unicode="&#xd4;" horiz-adv-x="736" 
d="M202 35.5q-72 47.5 -111 128.5t-39 179q0 102 40 183t112 126.5t164 45.5q94 0 166 -47.5t111 -129t39 -178.5q0 -103 -40 -183.5t-112 -126t-164 -45.5q-94 0 -166 47.5zM483 111.5q49 33.5 75.5 94t26.5 137.5t-26.5 137t-75.5 94t-115 34q-67 0 -116 -34t-75 -94
t-26 -137t26.5 -137.5t75.5 -94t115 -33.5t115 33.5zM498 754q0 -8 -13 -8h-35q-19 0 -32 16l-51 69l-50 -69q-13 -16 -32 -16h-36q-13 0 -13 8q0 3 3 9l64 109q4 8 12 12.5t18 4.5h67q10 0 18 -4.5t12 -12.5l65 -109q3 -6 3 -9z" />
    <glyph glyph-name="Otilde" unicode="&#xd5;" horiz-adv-x="736" 
d="M202 35.5q-72 47.5 -111 128.5t-39 179q0 102 40 183t112 126.5t164 45.5q94 0 166 -47.5t111 -129t39 -178.5q0 -103 -40 -183.5t-112 -126t-164 -45.5q-94 0 -166 47.5zM483 111.5q49 33.5 75.5 94t26.5 137.5t-26.5 137t-75.5 94t-115 34q-67 0 -116 -34t-75 -94
t-26 -137t26.5 -137.5t75.5 -94t115 -33.5t115 33.5zM223.5 779.5q-3.5 6.5 -1.5 15.5q12 40 32.5 59.5t46.5 19.5q20 0 35 -6t36 -18q13 -9 22.5 -13t18.5 -4q10 0 17 5t13 17q3 9 10 12.5t16 1.5l22 -6q9 -2 12.5 -8.5t1.5 -15.5q-12 -40 -32 -59.5t-47 -19.5q-21 0 -36 6
t-34 18q-13 9 -22.5 13t-19.5 4t-16.5 -5t-11.5 -17q-8 -19 -26 -14l-24 6q-9 2 -12.5 8.5z" />
    <glyph glyph-name="Odieresis" unicode="&#xd6;" horiz-adv-x="736" 
d="M202 35.5q-72 47.5 -111 128.5t-39 179q0 102 40 183t112 126.5t164 45.5q94 0 166 -47.5t111 -129t39 -178.5q0 -103 -40 -183.5t-112 -126t-164 -45.5q-94 0 -166 47.5zM483 111.5q49 33.5 75.5 94t26.5 137.5t-26.5 137t-75.5 94t-115 34q-67 0 -116 -34t-75 -94
t-26 -137t26.5 -137.5t75.5 -94t115 -33.5t115 33.5zM238.5 772q-15.5 15 -15.5 39t15.5 40t39.5 16t39.5 -16t15.5 -40t-15.5 -39t-39.5 -15t-39.5 15zM418 772q-15 15 -15 39t15 40t39 16t39 -16t15 -40t-14.5 -39t-39.5 -15q-24 0 -39 15z" />
    <glyph glyph-name="multiply" unicode="&#xd7;" horiz-adv-x="506" 
d="M452 147q7 -6 7 -14q0 -7 -7 -14l-33 -32q-7 -7 -14 -7q-3 0 -7 2t-7 5l-138 138l-138 -138q-7 -7 -14 -7q-3 0 -7 2t-7 5l-33 32q-3 3 -5 7t-2 7q0 7 7 14l138 138l-138 138q-3 3 -5 7t-2 7q0 7 7 14l32 33q7 7 14 7q8 0 14 -7l139 -138l138 138q7 7 14 7q8 0 14 -7
l33 -32q7 -6 7 -14q0 -7 -7 -14l-139 -139z" />
    <glyph glyph-name="Oslash" unicode="&#xd8;" horiz-adv-x="736" 
d="M666 467.5q18 -59.5 18 -124.5q0 -103 -40 -183.5t-112 -126t-164 -45.5q-115 0 -197 71l-29 -34q-6 -8 -14 -8q-6 0 -14 6l-25 20q-8 8 -8 14q0 7 6 14l35 41q-34 47 -52 106t-18 125q0 102 40 183t112 126.5t164 45.5q57 0 107 -18t89 -52l30 35q6 8 14 8q6 0 14 -6
l25 -23q8 -6 8 -14q0 -6 -6 -14l-35 -40q34 -47 52 -106.5zM186 187l318 371q-56 50 -136 50q-67 0 -116 -34t-75 -94t-26 -137q0 -91 35 -156zM483 111.5q49 33.5 75.5 94t26.5 137.5q0 91 -35 155l-319 -369q56 -51 137 -51q66 0 115 33.5z" />
    <glyph glyph-name="Ugrave" unicode="&#xd9;" horiz-adv-x="690" 
d="M197 26.5q-59 38.5 -87.5 107t-28.5 159.5v373q0 20 20 20h57q20 0 20 -20v-373q0 -107 38.5 -161t128.5 -54t128.5 54t38.5 161v373q0 20 20 20h57q20 0 20 -20v-373q0 -145 -67 -225t-197 -80q-89 0 -148 38.5zM296 763l-59 90q-4 5 -4 12q0 4 3 7.5t8 5.5l53 25
q4 2 10 2q12 0 16 -13l51 -127l2 -9q0 -10 -14 -10h-35q-20 0 -31 17z" />
    <glyph glyph-name="Uacute" unicode="&#xda;" horiz-adv-x="690" 
d="M197 26.5q-59 38.5 -87.5 107t-28.5 159.5v373q0 20 20 20h57q20 0 20 -20v-373q0 -107 38.5 -161t128.5 -54t128.5 54t38.5 161v373q0 20 20 20h57q20 0 20 -20v-373q0 -145 -67 -225t-197 -80q-89 0 -148 38.5zM313 756l2 9l51 127q4 13 16 13q6 0 10 -2l53 -25
q5 -2 8 -5.5t3 -7.5q0 -7 -4 -12l-59 -90q-11 -17 -31 -17h-35q-14 0 -14 10z" />
    <glyph glyph-name="Ucircumflex" unicode="&#xdb;" horiz-adv-x="690" 
d="M197 26.5q-59 38.5 -87.5 107t-28.5 159.5v373q0 20 20 20h57q20 0 20 -20v-373q0 -107 38.5 -161t128.5 -54t128.5 54t38.5 161v373q0 20 20 20h57q20 0 20 -20v-373q0 -145 -67 -225t-197 -80q-89 0 -148 38.5zM475 754q0 -8 -13 -8h-35q-19 0 -32 16l-51 69l-50 -69
q-13 -16 -32 -16h-36q-13 0 -13 8q0 3 3 9l64 109q4 8 12 12.5t18 4.5h67q10 0 18 -4.5t12 -12.5l65 -109q3 -6 3 -9z" />
    <glyph glyph-name="Udieresis" unicode="&#xdc;" horiz-adv-x="690" 
d="M197 26.5q-59 38.5 -87.5 107t-28.5 159.5v373q0 20 20 20h57q20 0 20 -20v-373q0 -107 38.5 -161t128.5 -54t128.5 54t38.5 161v373q0 20 20 20h57q20 0 20 -20v-373q0 -145 -67 -225t-197 -80q-89 0 -148 38.5zM215.5 772q-15.5 15 -15.5 39t15.5 40t39.5 16t39.5 -16
t15.5 -40t-15.5 -39t-39.5 -15t-39.5 15zM395 772q-15 15 -15 39t15 40t39 16t39 -16t15 -40t-14.5 -39t-39.5 -15q-24 0 -39 15z" />
    <glyph glyph-name="Yacute" unicode="&#xdd;" horiz-adv-x="573" 
d="M554 680q6 -6 6 -14q0 -7 -3 -13l-222 -401v-232q0 -20 -20 -20h-57q-20 0 -20 20v232l-221 401q-4 8 -4 13q0 8 6.5 14t16.5 6h50q20 0 29 -18l172 -325l172 325q9 18 29 18h50q10 0 16 -6zM255 756l2 9l51 127q4 13 16 13q6 0 10 -2l53 -25q5 -2 8 -5.5t3 -7.5
q0 -7 -4 -12l-59 -90q-11 -17 -31 -17h-35q-14 0 -14 10z" />
    <glyph glyph-name="Thorn" unicode="&#xde;" horiz-adv-x="602" 
d="M441.5 526.5q56.5 -26.5 85 -73t28.5 -107.5q0 -66 -29.5 -115.5t-87 -76.5t-137.5 -27h-109v-107q0 -20 -20 -20h-57q-20 0 -20 20v646q0 20 20 20h57q20 0 20 -20v-113h113q80 0 136.5 -26.5zM417.5 249q38.5 36 38.5 97q0 57 -38 89t-113 32h-113v-254h109
q78 0 116.5 36z" />
    <glyph glyph-name="germandbls" unicode="&#xdf;" horiz-adv-x="590" 
d="M514 309q40 -47 40 -116q0 -61 -25 -107t-70 -71.5t-103 -25.5q-46 0 -88 10q-19 6 -19 26v43q0 15 11 15l8 -2q39 -14 88 -14q52 0 78.5 34t26.5 90q0 54 -33.5 90.5t-106.5 44.5q-10 0 -15 5.5t-5 15.5v29q0 20 19 26q33 13 50.5 30.5t23 37.5t5.5 45q0 28 -13.5 51.5
t-37 37.5t-53.5 14q-58 0 -88.5 -40t-30.5 -116v-442q0 -20 -20 -20h-55q-20 0 -20 20v441q0 74 26 127t74 81t115 28q60 0 105 -24t69 -65t24 -91q0 -48 -24.5 -84.5t-70.5 -58.5q75 -18 115 -65z" />
    <glyph glyph-name="agrave" unicode="&#xe0;" horiz-adv-x="529" 
d="M362 487.5q48 -24.5 73 -69t25 -102.5v-296q0 -20 -20 -20h-51q-20 0 -20 20v50q-28 -42 -69.5 -62t-93.5 -20q-78 0 -124 38.5t-46 112.5q0 79 58.5 121t179.5 43l91 1v15q0 51 -30 80t-87 29q-39 0 -69 -12.5t-60 -35.5q-8 -6 -14 -6q-9 0 -15 8l-26 31q-6 8 -6 14
q0 8 7 15q33 30 78.5 50t104.5 20q66 0 114 -24.5zM290 82.5q33 15.5 54 46.5t21 75v24l-85 -1q-80 -1 -114.5 -23t-34.5 -65q0 -35 23.5 -53.5t67.5 -18.5q35 0 68 15.5zM194 577l-59 90q-4 5 -4 12q0 4 3 7.5t8 5.5l53 25q4 2 10 2q12 0 16 -13l51 -127l2 -9
q0 -10 -14 -10h-35q-20 0 -31 17z" />
    <glyph glyph-name="aacute" unicode="&#xe1;" horiz-adv-x="529" 
d="M362 487.5q48 -24.5 73 -69t25 -102.5v-296q0 -20 -20 -20h-51q-20 0 -20 20v50q-28 -42 -69.5 -62t-93.5 -20q-78 0 -124 38.5t-46 112.5q0 79 58.5 121t179.5 43l91 1v15q0 51 -30 80t-87 29q-39 0 -69 -12.5t-60 -35.5q-8 -6 -14 -6q-9 0 -15 8l-26 31q-6 8 -6 14
q0 8 7 15q33 30 78.5 50t104.5 20q66 0 114 -24.5zM290 82.5q33 15.5 54 46.5t21 75v24l-85 -1q-80 -1 -114.5 -23t-34.5 -65q0 -35 23.5 -53.5t67.5 -18.5q35 0 68 15.5zM211 570l2 9l51 127q4 13 16 13q6 0 10 -2l53 -25q5 -2 8 -5.5t3 -7.5q0 -7 -4 -12l-59 -90
q-11 -17 -31 -17h-35q-14 0 -14 10z" />
    <glyph glyph-name="acircumflex" unicode="&#xe2;" horiz-adv-x="529" 
d="M362 487.5q48 -24.5 73 -69t25 -102.5v-296q0 -20 -20 -20h-51q-20 0 -20 20v50q-28 -42 -69.5 -62t-93.5 -20q-78 0 -124 38.5t-46 112.5q0 79 58.5 121t179.5 43l91 1v15q0 51 -30 80t-87 29q-39 0 -69 -12.5t-60 -35.5q-8 -6 -14 -6q-9 0 -15 8l-26 31q-6 8 -6 14
q0 8 7 15q33 30 78.5 50t104.5 20q66 0 114 -24.5zM290 82.5q33 15.5 54 46.5t21 75v24l-85 -1q-80 -1 -114.5 -23t-34.5 -65q0 -35 23.5 -53.5t67.5 -18.5q35 0 68 15.5zM373 568q0 -8 -13 -8h-35q-19 0 -32 16l-51 69l-50 -69q-13 -16 -32 -16h-36q-13 0 -13 8q0 3 3 9
l64 109q4 8 12 12.5t18 4.5h67q10 0 18 -4.5t12 -12.5l65 -109q3 -6 3 -9z" />
    <glyph glyph-name="atilde" unicode="&#xe3;" horiz-adv-x="529" 
d="M362 487.5q48 -24.5 73 -69t25 -102.5v-296q0 -20 -20 -20h-51q-20 0 -20 20v50q-28 -42 -69.5 -62t-93.5 -20q-78 0 -124 38.5t-46 112.5q0 79 58.5 121t179.5 43l91 1v15q0 51 -30 80t-87 29q-39 0 -69 -12.5t-60 -35.5q-8 -6 -14 -6q-9 0 -15 8l-26 31q-6 8 -6 14
q0 8 7 15q33 30 78.5 50t104.5 20q66 0 114 -24.5zM290 82.5q33 15.5 54 46.5t21 75v24l-85 -1q-80 -1 -114.5 -23t-34.5 -65q0 -35 23.5 -53.5t67.5 -18.5q35 0 68 15.5zM98.5 593.5q-3.5 6.5 -1.5 15.5q12 40 32.5 59.5t46.5 19.5q20 0 35 -6t36 -18q13 -9 22.5 -13
t18.5 -4q10 0 17 5t13 17q3 9 10 12.5t16 1.5l22 -6q9 -2 12.5 -8.5t1.5 -15.5q-12 -40 -32 -59.5t-47 -19.5q-21 0 -36 6t-34 18q-13 9 -22.5 13t-19.5 4t-16.5 -5t-11.5 -17q-8 -19 -26 -14l-24 6q-9 2 -12.5 8.5z" />
    <glyph glyph-name="adieresis" unicode="&#xe4;" horiz-adv-x="529" 
d="M362 487.5q48 -24.5 73 -69t25 -102.5v-296q0 -20 -20 -20h-51q-20 0 -20 20v50q-28 -42 -69.5 -62t-93.5 -20q-78 0 -124 38.5t-46 112.5q0 79 58.5 121t179.5 43l91 1v15q0 51 -30 80t-87 29q-39 0 -69 -12.5t-60 -35.5q-8 -6 -14 -6q-9 0 -15 8l-26 31q-6 8 -6 14
q0 8 7 15q33 30 78.5 50t104.5 20q66 0 114 -24.5zM290 82.5q33 15.5 54 46.5t21 75v24l-85 -1q-80 -1 -114.5 -23t-34.5 -65q0 -35 23.5 -53.5t67.5 -18.5q35 0 68 15.5zM113.5 586q-15.5 15 -15.5 39t15.5 40t39.5 16t39.5 -16t15.5 -40t-15.5 -39t-39.5 -15t-39.5 15z
M293 586q-15 15 -15 39t15 40t39 16t39 -16t15 -40t-14.5 -39t-39.5 -15q-24 0 -39 15z" />
    <glyph glyph-name="aring" unicode="&#xe5;" horiz-adv-x="529" 
d="M362 487.5q48 -24.5 73 -69t25 -102.5v-296q0 -20 -20 -20h-51q-20 0 -20 20v50q-28 -42 -69.5 -62t-93.5 -20q-78 0 -124 38.5t-46 112.5q0 79 58.5 121t179.5 43l91 1v15q0 51 -30 80t-87 29q-39 0 -69 -12.5t-60 -35.5q-8 -6 -14 -6q-9 0 -15 8l-26 31q-6 8 -6 14
q0 8 7 15q33 30 78.5 50t104.5 20q66 0 114 -24.5zM290 82.5q33 15.5 54 46.5t21 75v24l-85 -1q-80 -1 -114.5 -23t-34.5 -65q0 -35 23.5 -53.5t67.5 -18.5q35 0 68 15.5zM181.5 560q-27.5 15 -43 40.5t-15.5 57.5t15.5 58t42.5 41t61 15t61 -15t42.5 -41t15.5 -58
t-15.5 -58t-42.5 -40.5t-60 -14.5q-34 0 -61.5 15zM284 615q16 16 16 43q0 26 -16 42.5t-42 16.5q-25 0 -41 -16.5t-16 -42.5q0 -27 16 -43t42 -16q25 0 41 16z" />
    <glyph glyph-name="ae" unicode="&#xe6;" horiz-adv-x="852" 
d="M789 222h-338q6 -69 42.5 -109.5t99.5 -40.5q43 0 74.5 17t59.5 53q5 8 14 8q8 0 13 -5l33 -27q9 -7 9 -16q0 -6 -5 -14q-33 -46 -82 -73t-116 -27t-117 26.5t-79 74.5q-30 -52 -81 -76.5t-117 -24.5q-48 0 -84.5 17t-57.5 51t-21 83q0 79 56 121t172 43l91 1v15
q0 51 -29 80t-85 29q-37 0 -66 -12.5t-57 -35.5q-8 -6 -14 -6q-8 0 -14 8l-26 31q-6 8 -6 14q0 8 7 15q30 30 74.5 50t101.5 20q60 0 105 -21t71 -59q32 38 76.5 59t94.5 21q67 0 116.5 -33t77 -94t27.5 -143q0 -20 -20 -20zM499 395q-34 -34 -45 -93h255q-7 60 -39 93.5
t-84 33.5q-53 0 -87 -34zM280 82.5q33 15.5 54 46.5t21 75v24l-85 -1q-75 -1 -107 -23t-32 -65q0 -35 20.5 -53.5t60.5 -18.5q35 0 68 15.5z" />
    <glyph glyph-name="ccedilla" unicode="&#xe7;" horiz-adv-x="523" 
d="M157 22q-55 34 -83.5 93.5t-28.5 134.5q0 76 30 135.5t85 93t127 33.5q132 0 194 -96q3 -6 3 -12q0 -9 -9 -17l-38 -28q-7 -5 -12 -5q-9 0 -15 9q-23 30 -53 47.5t-71 17.5q-70 0 -107 -48.5t-37 -129.5q0 -53 17 -93.5t49.5 -62.5t79.5 -22q45 0 75.5 17t59.5 53
q5 8 14 8q8 0 13 -5l33 -27q9 -7 9 -16q0 -6 -5 -14q-35 -47 -83 -73.5t-116 -26.5q-76 0 -131 34zM207.5 -186q-3.5 5 -1.5 14l28 96q2 9 8.5 14t16.5 5h55q14 0 14 -9q0 -3 -2 -9l-45 -98q-7 -18 -28 -18h-32q-10 0 -13.5 5z" />
    <glyph glyph-name="egrave" unicode="&#xe8;" horiz-adv-x="554" 
d="M491 222h-348q7 -69 45.5 -109.5t101.5 -40.5q46 0 77 16.5t62 53.5q5 8 14 8q8 0 13 -5l33 -27q9 -7 9 -16q0 -6 -5 -13q-35 -48 -84 -74.5t-119 -26.5q-76 0 -131.5 34t-84.5 93.5t-29 134.5q0 74 32 134t87 94t121 34q70 0 120.5 -33t78 -93.5t27.5 -143.5
q0 -20 -20 -20zM194 395q-36 -34 -47 -93h264q-7 60 -39.5 93.5t-88.5 33.5q-53 0 -89 -34zM238 577l-59 90q-4 5 -4 12q0 4 3 7.5t8 5.5l53 25q4 2 10 2q12 0 16 -13l51 -127l2 -9q0 -10 -14 -10h-35q-20 0 -31 17z" />
    <glyph glyph-name="eacute" unicode="&#xe9;" horiz-adv-x="554" 
d="M491 222h-348q7 -69 45.5 -109.5t101.5 -40.5q46 0 77 16.5t62 53.5q5 8 14 8q8 0 13 -5l33 -27q9 -7 9 -16q0 -6 -5 -13q-35 -48 -84 -74.5t-119 -26.5q-76 0 -131.5 34t-84.5 93.5t-29 134.5q0 74 32 134t87 94t121 34q70 0 120.5 -33t78 -93.5t27.5 -143.5
q0 -20 -20 -20zM194 395q-36 -34 -47 -93h264q-7 60 -39.5 93.5t-88.5 33.5q-53 0 -89 -34zM255 570l2 9l51 127q4 13 16 13q6 0 10 -2l53 -25q5 -2 8 -5.5t3 -7.5q0 -7 -4 -12l-59 -90q-11 -17 -31 -17h-35q-14 0 -14 10z" />
    <glyph glyph-name="ecircumflex" unicode="&#xea;" horiz-adv-x="554" 
d="M491 222h-348q7 -69 45.5 -109.5t101.5 -40.5q46 0 77 16.5t62 53.5q5 8 14 8q8 0 13 -5l33 -27q9 -7 9 -16q0 -6 -5 -13q-35 -48 -84 -74.5t-119 -26.5q-76 0 -131.5 34t-84.5 93.5t-29 134.5q0 74 32 134t87 94t121 34q70 0 120.5 -33t78 -93.5t27.5 -143.5
q0 -20 -20 -20zM194 395q-36 -34 -47 -93h264q-7 60 -39.5 93.5t-88.5 33.5q-53 0 -89 -34zM417 568q0 -8 -13 -8h-35q-19 0 -32 16l-51 69l-50 -69q-13 -16 -32 -16h-36q-13 0 -13 8q0 3 3 9l64 109q4 8 12 12.5t18 4.5h67q10 0 18 -4.5t12 -12.5l65 -109q3 -6 3 -9z" />
    <glyph glyph-name="edieresis" unicode="&#xeb;" horiz-adv-x="554" 
d="M491 222h-348q7 -69 45.5 -109.5t101.5 -40.5q46 0 77 16.5t62 53.5q5 8 14 8q8 0 13 -5l33 -27q9 -7 9 -16q0 -6 -5 -13q-35 -48 -84 -74.5t-119 -26.5q-76 0 -131.5 34t-84.5 93.5t-29 134.5q0 74 32 134t87 94t121 34q70 0 120.5 -33t78 -93.5t27.5 -143.5
q0 -20 -20 -20zM194 395q-36 -34 -47 -93h264q-7 60 -39.5 93.5t-88.5 33.5q-53 0 -89 -34zM157.5 586q-15.5 15 -15.5 39t15.5 40t39.5 16t39.5 -16t15.5 -40t-15.5 -39t-39.5 -15t-39.5 15zM337 586q-15 15 -15 39t15 40t39 16t39 -16t15 -40t-14.5 -39t-39.5 -15
q-24 0 -39 15z" />
    <glyph glyph-name="igrave" unicode="&#xec;" horiz-adv-x="257" 
d="M81 20v460q0 20 20 20h55q20 0 20 -20v-460q0 -20 -20 -20h-55q-20 0 -20 20zM80 577l-59 90q-4 5 -4 12q0 4 3 7.5t8 5.5l53 25q4 2 10 2q12 0 16 -13l51 -127l2 -9q0 -10 -14 -10h-35q-20 0 -31 17z" />
    <glyph glyph-name="iacute" unicode="&#xed;" horiz-adv-x="257" 
d="M81 20v460q0 20 20 20h55q20 0 20 -20v-460q0 -20 -20 -20h-55q-20 0 -20 20zM97 570l2 9l51 127q4 13 16 13q6 0 10 -2l53 -25q5 -2 8 -5.5t3 -7.5q0 -7 -4 -12l-59 -90q-11 -17 -31 -17h-35q-14 0 -14 10z" />
    <glyph glyph-name="icircumflex" unicode="&#xee;" horiz-adv-x="257" 
d="M81 20v460q0 20 20 20h55q20 0 20 -20v-460q0 -20 -20 -20h-55q-20 0 -20 20zM259 568q0 -8 -13 -8h-35q-19 0 -32 16l-51 69l-50 -69q-13 -16 -32 -16h-36q-13 0 -13 8q0 3 3 9l64 109q4 8 12 12.5t18 4.5h67q10 0 18 -4.5t12 -12.5l65 -109q3 -6 3 -9z" />
    <glyph glyph-name="idieresis" unicode="&#xef;" horiz-adv-x="257" 
d="M81 20v460q0 20 20 20h55q20 0 20 -20v-460q0 -20 -20 -20h-55q-20 0 -20 20zM-0.5 586q-15.5 15 -15.5 39t15.5 40t39.5 16t39.5 -16t15.5 -40t-15.5 -39t-39.5 -15t-39.5 15zM179 586q-15 15 -15 39t15 40t39 16t39 -16t15 -40t-14.5 -39t-39.5 -15q-24 0 -39 15z" />
    <glyph glyph-name="eth" unicode="&#xf0;" horiz-adv-x="553" 
d="M491.5 327q16.5 -48 16.5 -103q0 -67 -28.5 -120.5t-81.5 -83.5t-123 -30q-69 0 -121.5 29t-80.5 81t-28 118q0 67 28 119.5t76 82t108 29.5q35 0 64 -8l-87 111l-119 -49q-4 -2 -10 -2q-12 0 -16 12l-8 18q-2 4 -2 10q0 12 12 16l106 44l-54 69q-4 5 -4 9q0 7 12 7h72
q19 0 32 -16l25 -34l111 46q4 2 10 2q12 0 16 -12l9 -19q2 -4 2 -10q0 -11 -12 -16l-99 -41l118 -157q40 -54 56.5 -102zM347 92q31 19 48 52.5t17 76.5t-16.5 77t-47.5 54t-72 20t-72 -20t-47.5 -54.5t-16.5 -77.5q0 -42 16.5 -75.5t47.5 -52.5t72 -19q40 0 71 19z" />
    <glyph glyph-name="ntilde" unicode="&#xf1;" horiz-adv-x="589" 
d="M470.5 454q49.5 -58 49.5 -167v-267q0 -20 -20 -20h-55q-20 0 -20 20v260q0 75 -27.5 111t-91.5 36q-40 0 -69 -18.5t-45 -52t-16 -79.5v-257q0 -20 -20 -20h-55q-20 0 -20 20v460q0 20 20 20h51q20 0 20 -20v-41q26 35 65.5 54t89.5 19q94 0 143.5 -58zM182.5 593.5
q-3.5 6.5 -1.5 15.5q12 40 32.5 59.5t46.5 19.5q20 0 35 -6t36 -18q13 -9 22.5 -13t18.5 -4q10 0 17 5t13 17q3 9 10 12.5t16 1.5l22 -6q9 -2 12.5 -8.5t1.5 -15.5q-12 -40 -32 -59.5t-47 -19.5q-21 0 -36 6t-34 18q-13 9 -22.5 13t-19.5 4t-16.5 -5t-11.5 -17
q-8 -19 -26 -14l-24 6q-9 2 -12.5 8.5z" />
    <glyph glyph-name="ograve" unicode="&#xf2;" horiz-adv-x="578" 
d="M160.5 23q-55.5 35 -85.5 95t-30 132q0 76 30.5 135.5t86 93t127.5 33.5q73 0 128.5 -35t85.5 -95t30 -132q0 -76 -30.5 -135.5t-86 -93t-127.5 -33.5q-73 0 -128.5 35zM369 94.5q33 22.5 50 62.5t17 93t-17 93t-50 62.5t-80 22.5t-80 -22.5t-50 -62.5t-17 -93t17 -93
t50 -62.5t80 -22.5t80 22.5zM240 577l-59 90q-4 5 -4 12q0 4 3 7.5t8 5.5l53 25q4 2 10 2q12 0 16 -13l51 -127l2 -9q0 -10 -14 -10h-35q-20 0 -31 17z" />
    <glyph glyph-name="oacute" unicode="&#xf3;" horiz-adv-x="578" 
d="M160.5 23q-55.5 35 -85.5 95t-30 132q0 76 30.5 135.5t86 93t127.5 33.5q73 0 128.5 -35t85.5 -95t30 -132q0 -76 -30.5 -135.5t-86 -93t-127.5 -33.5q-73 0 -128.5 35zM369 94.5q33 22.5 50 62.5t17 93t-17 93t-50 62.5t-80 22.5t-80 -22.5t-50 -62.5t-17 -93t17 -93
t50 -62.5t80 -22.5t80 22.5zM257 570l2 9l51 127q4 13 16 13q6 0 10 -2l53 -25q5 -2 8 -5.5t3 -7.5q0 -7 -4 -12l-59 -90q-11 -17 -31 -17h-35q-14 0 -14 10z" />
    <glyph glyph-name="ocircumflex" unicode="&#xf4;" horiz-adv-x="578" 
d="M160.5 23q-55.5 35 -85.5 95t-30 132q0 76 30.5 135.5t86 93t127.5 33.5q73 0 128.5 -35t85.5 -95t30 -132q0 -76 -30.5 -135.5t-86 -93t-127.5 -33.5q-73 0 -128.5 35zM369 94.5q33 22.5 50 62.5t17 93t-17 93t-50 62.5t-80 22.5t-80 -22.5t-50 -62.5t-17 -93t17 -93
t50 -62.5t80 -22.5t80 22.5zM419 568q0 -8 -13 -8h-35q-19 0 -32 16l-51 69l-50 -69q-13 -16 -32 -16h-36q-13 0 -13 8q0 3 3 9l64 109q4 8 12 12.5t18 4.5h67q10 0 18 -4.5t12 -12.5l65 -109q3 -6 3 -9z" />
    <glyph glyph-name="otilde" unicode="&#xf5;" horiz-adv-x="578" 
d="M160.5 23q-55.5 35 -85.5 95t-30 132q0 76 30.5 135.5t86 93t127.5 33.5q73 0 128.5 -35t85.5 -95t30 -132q0 -76 -30.5 -135.5t-86 -93t-127.5 -33.5q-73 0 -128.5 35zM369 94.5q33 22.5 50 62.5t17 93t-17 93t-50 62.5t-80 22.5t-80 -22.5t-50 -62.5t-17 -93t17 -93
t50 -62.5t80 -22.5t80 22.5zM144.5 593.5q-3.5 6.5 -1.5 15.5q12 40 32.5 59.5t46.5 19.5q20 0 35 -6t36 -18q13 -9 22.5 -13t18.5 -4q10 0 17 5t13 17q3 9 10 12.5t16 1.5l22 -6q9 -2 12.5 -8.5t1.5 -15.5q-12 -40 -32 -59.5t-47 -19.5q-21 0 -36 6t-34 18q-13 9 -22.5 13
t-19.5 4t-16.5 -5t-11.5 -17q-8 -19 -26 -14l-24 6q-9 2 -12.5 8.5z" />
    <glyph glyph-name="odieresis" unicode="&#xf6;" horiz-adv-x="578" 
d="M160.5 23q-55.5 35 -85.5 95t-30 132q0 76 30.5 135.5t86 93t127.5 33.5q73 0 128.5 -35t85.5 -95t30 -132q0 -76 -30.5 -135.5t-86 -93t-127.5 -33.5q-73 0 -128.5 35zM369 94.5q33 22.5 50 62.5t17 93t-17 93t-50 62.5t-80 22.5t-80 -22.5t-50 -62.5t-17 -93t17 -93
t50 -62.5t80 -22.5t80 22.5zM159.5 586q-15.5 15 -15.5 39t15.5 40t39.5 16t39.5 -16t15.5 -40t-15.5 -39t-39.5 -15t-39.5 15zM339 586q-15 15 -15 39t15 40t39 16t39 -16t15 -40t-14.5 -39t-39.5 -15q-24 0 -39 15z" />
    <glyph glyph-name="divide" unicode="&#xf7;" horiz-adv-x="537" 
d="M223 442q-18 17 -18 42q0 26 18 43t45 17q28 0 46 -17t18 -43t-18 -42.5t-46 -16.5q-27 0 -45 17zM30 263v46q0 20 20 20h437q20 0 20 -20v-46q0 -20 -20 -20h-437q-20 0 -20 20zM223 45.5q-18 16.5 -18 42.5t18 42.5t45 16.5q28 0 46 -16.5t18 -42.5t-18 -42.5
t-46 -16.5q-27 0 -45 16.5z" />
    <glyph glyph-name="oslash" unicode="&#xf8;" horiz-adv-x="578" 
d="M518.5 345q14.5 -45 14.5 -95q0 -76 -30.5 -135.5t-86 -93t-127.5 -33.5q-79 0 -140 42l-14 -17q-8 -8 -14 -8t-14 6l-19 16q-8 6 -8 14q0 7 6 14l16 20q-28 34 -42.5 79.5t-14.5 95.5q0 76 30.5 135.5t86 93t127.5 33.5q79 0 140 -42l13 16q8 8 14 8q7 0 14 -6l20 -16
q8 -6 8 -14q0 -6 -6 -14l-16 -19q28 -35 42.5 -80zM163 148l210 255q-34 25 -84 25q-47 0 -80 -22.5t-50 -62.5t-17 -93q0 -60 21 -102zM369 94.5q33 22.5 50 62.5t17 93q0 59 -21 101l-210 -254q34 -25 84 -25q47 0 80 22.5z" />
    <glyph glyph-name="ugrave" unicode="&#xf9;" horiz-adv-x="589" 
d="M508 480v-460q0 -20 -20 -20h-51q-20 0 -20 20v41q-26 -35 -65.5 -54t-89.5 -19q-94 0 -143.5 58t-49.5 167v267q0 20 20 20h55q20 0 20 -20v-260q0 -75 27.5 -111t91.5 -36q40 0 69 18.5t45 52t16 79.5v257q0 20 20 20h55q20 0 20 -20zM246 577l-59 90q-4 5 -4 12
q0 4 3 7.5t8 5.5l53 25q4 2 10 2q12 0 16 -13l51 -127l2 -9q0 -10 -14 -10h-35q-20 0 -31 17z" />
    <glyph glyph-name="uacute" unicode="&#xfa;" horiz-adv-x="589" 
d="M508 480v-460q0 -20 -20 -20h-51q-20 0 -20 20v41q-26 -35 -65.5 -54t-89.5 -19q-94 0 -143.5 58t-49.5 167v267q0 20 20 20h55q20 0 20 -20v-260q0 -75 27.5 -111t91.5 -36q40 0 69 18.5t45 52t16 79.5v257q0 20 20 20h55q20 0 20 -20zM263 570l2 9l51 127q4 13 16 13
q6 0 10 -2l53 -25q5 -2 8 -5.5t3 -7.5q0 -7 -4 -12l-59 -90q-11 -17 -31 -17h-35q-14 0 -14 10z" />
    <glyph glyph-name="ucircumflex" unicode="&#xfb;" horiz-adv-x="589" 
d="M508 480v-460q0 -20 -20 -20h-51q-20 0 -20 20v41q-26 -35 -65.5 -54t-89.5 -19q-94 0 -143.5 58t-49.5 167v267q0 20 20 20h55q20 0 20 -20v-260q0 -75 27.5 -111t91.5 -36q40 0 69 18.5t45 52t16 79.5v257q0 20 20 20h55q20 0 20 -20zM425 568q0 -8 -13 -8h-35
q-19 0 -32 16l-51 69l-50 -69q-13 -16 -32 -16h-36q-13 0 -13 8q0 3 3 9l64 109q4 8 12 12.5t18 4.5h67q10 0 18 -4.5t12 -12.5l65 -109q3 -6 3 -9z" />
    <glyph glyph-name="udieresis" unicode="&#xfc;" horiz-adv-x="589" 
d="M508 480v-460q0 -20 -20 -20h-51q-20 0 -20 20v41q-26 -35 -65.5 -54t-89.5 -19q-94 0 -143.5 58t-49.5 167v267q0 20 20 20h55q20 0 20 -20v-260q0 -75 27.5 -111t91.5 -36q40 0 69 18.5t45 52t16 79.5v257q0 20 20 20h55q20 0 20 -20zM165.5 586q-15.5 15 -15.5 39
t15.5 40t39.5 16t39.5 -16t15.5 -40t-15.5 -39t-39.5 -15t-39.5 15zM345 586q-15 15 -15 39t15 40t39 16t39 -16t15 -40t-14.5 -39t-39.5 -15q-24 0 -39 15z" />
    <glyph glyph-name="yacute" unicode="&#xfd;" horiz-adv-x="487" 
d="M465.5 494q6.5 -6 6.5 -15l-2 -8l-260 -674q-3 -9 -10 -14t-17 -5h-43q-9 0 -15.5 6t-6.5 15l2 8l76 196l-180 468q-4 11 2 20t18 9h52q19 0 27 -19l131 -370l130 370q8 19 27 19h47q9 0 15.5 -6zM207 570l2 9l51 127q4 13 16 13q6 0 10 -2l53 -25q5 -2 8 -5.5t3 -7.5
q0 -7 -4 -12l-59 -90q-11 -17 -31 -17h-35q-14 0 -14 10z" />
    <glyph glyph-name="thorn" unicode="&#xfe;" horiz-adv-x="607" 
d="M453.5 479q52.5 -33 80.5 -92.5t28 -136.5t-32 -136.5t-87 -92.5t-121 -33q-94 0 -146 66v-256q0 -20 -20 -20h-55q-20 0 -20 20v868q0 20 20 20h55q20 0 20 -20v-225q27 34 67 52.5t89 18.5q69 0 121.5 -33zM395.5 94.5q32.5 22.5 51 63t18.5 92.5q0 53 -17 93.5
t-49.5 62.5t-76.5 22q-72 0 -109 -48t-37 -130q0 -84 35 -131t111 -47q41 0 73.5 22.5z" />
    <glyph glyph-name="ydieresis" unicode="&#xff;" horiz-adv-x="487" 
d="M465.5 494q6.5 -6 6.5 -15l-2 -8l-260 -674q-3 -9 -10 -14t-17 -5h-43q-9 0 -15.5 6t-6.5 15l2 8l76 196l-180 468q-4 11 2 20t18 9h52q19 0 27 -19l131 -370l130 370q8 19 27 19h47q9 0 15.5 -6zM109.5 586q-15.5 15 -15.5 39t15.5 40t39.5 16t39.5 -16t15.5 -40
t-15.5 -39t-39.5 -15t-39.5 15zM289 586q-15 15 -15 39t15 40t39 16t39 -16t15 -40t-14.5 -39t-39.5 -15q-24 0 -39 15z" />
    <glyph glyph-name="dotlessi" unicode="&#x131;" horiz-adv-x="257" 
d="M81 20v460q0 20 20 20h55q20 0 20 -20v-460q0 -20 -20 -20h-55q-20 0 -20 20z" />
    <glyph glyph-name="Lslash" unicode="&#x141;" horiz-adv-x="468" 
d="M440 66v-46q0 -20 -20 -20h-305q-20 0 -20 20v646q0 20 20 20h57q20 0 20 -20v-342l108 96q8 8 18 8q8 0 12.5 -6.5t4.5 -16.5v-40q0 -21 -15 -33l-128 -113v-133h228q20 0 20 -20z" />
    <glyph glyph-name="lslash" unicode="&#x142;" horiz-adv-x="263" 
d="M242 457q7 0 7 -12v-45q0 -19 -16 -32l-54 -39v-309q0 -20 -20 -20h-55q-20 0 -20 20v253l-53 -39q-5 -4 -9 -4q-7 0 -7 12v43q0 19 16 32l53 40v309q0 20 20 20h55q20 0 20 -20v-253l54 40q5 4 9 4z" />
    <glyph glyph-name="OE" unicode="&#x152;" horiz-adv-x="948" 
d="M881 66v-46q0 -20 -20 -20h-453q-99 0 -180 40.5t-128.5 118t-47.5 183.5q0 108 47.5 185.5t128.5 118t180 40.5h443q20 0 20 -20v-46q0 -20 -20 -20h-287v-204h257q20 0 20 -20v-46q0 -20 -20 -20h-257v-224h297q20 0 20 -20zM184 204.5q32 -57.5 90 -87.5t134 -30h59
v512h-59q-76 0 -134 -29.5t-90 -87.5t-32 -140q0 -80 32 -137.5z" />
    <glyph glyph-name="oe" unicode="&#x153;" horiz-adv-x="925" 
d="M862 222h-338q6 -69 42.5 -109.5t99.5 -40.5q43 0 73 16.5t61 53.5q5 8 14 8q8 0 13 -5l33 -27q9 -7 9 -16q0 -6 -5 -14q-33 -46 -82 -73t-116 -27q-64 0 -112.5 24.5t-79.5 68.5q-32 -44 -80.5 -68.5t-109.5 -24.5q-71 0 -125 35t-84 95t-30 132q0 76 30.5 135.5t85 93
t123.5 33.5q63 0 111.5 -25.5t80.5 -71.5q32 46 80.5 71.5t104.5 25.5q67 0 116.5 -33t77 -94t27.5 -143q0 -20 -20 -20zM572 395q-34 -34 -45 -93h255q-7 60 -39 93.5t-84 33.5q-53 0 -87 -34zM390 120q36 48 36 130q0 81 -36.5 129.5t-105.5 48.5q-44 0 -76 -22.5
t-49 -62.5t-17 -93t17 -93t49 -62.5t76 -22.5q70 0 106 48z" />
    <glyph glyph-name="Scaron" unicode="&#x160;" horiz-adv-x="572" 
d="M147.5 16.5q-60.5 28.5 -106.5 82.5q-6 8 -6 14q0 8 7 15l36 38q7 7 13 7t14 -8q40 -47 84 -68t98 -21q41 0 71.5 14t47 39t16.5 57q0 38 -20 60t-50.5 33t-84.5 23q-67 15 -109.5 32t-72.5 57t-30 111q0 48 28 93t81 74t124 29q75 0 131 -27t94 -75q5 -5 5 -14t-8 -16
l-34 -32q-9 -7 -14 -7q-8 0 -14 8q-36 38 -73 56t-85 18q-37 0 -68.5 -13t-49.5 -36.5t-18 -53.5q0 -37 20.5 -59.5t50.5 -33t84 -23.5q68 -16 110 -33t72 -56.5t30 -109.5q0 -56 -29.5 -102.5t-82.5 -73.5t-122 -27q-79 0 -139.5 28.5zM419 882q0 -3 -3 -9l-64 -109
q-4 -8 -12 -12.5t-18 -4.5h-67q-10 0 -18 4.5t-12 12.5l-65 109q-3 6 -3 9q0 8 13 8h36q19 0 32 -16l51 -70l51 70q13 16 32 16h34q13 0 13 -8z" />
    <glyph glyph-name="scaron" unicode="&#x161;" horiz-adv-x="468" 
d="M128.5 8.5q-47.5 20.5 -85.5 58.5q-7 7 -7 15q0 7 6 14l32 37q6 8 13 8t14 -7q31 -31 64 -46.5t73 -15.5q48 0 73 19t25 50q0 22 -14.5 35t-37 20.5t-60.5 15.5q-56 13 -90 26.5t-59 43t-25 80.5q0 35 21.5 69.5t64.5 57.5t104 23t106.5 -19t75.5 -53q6 -7 6 -15
q0 -9 -7 -16l-28 -31q-8 -8 -14 -8q-7 0 -14 7q-30 26 -59.5 38.5t-65.5 12.5q-42 0 -68 -16.5t-26 -45.5q0 -21 14.5 -34.5t37 -21t61.5 -16.5q55 -13 89.5 -26.5t59 -42.5t24.5 -79q0 -43 -23.5 -79t-67.5 -57.5t-102 -21.5q-63 0 -110.5 20.5zM369 696q0 -3 -3 -9
l-64 -109q-4 -8 -12 -12.5t-18 -4.5h-67q-10 0 -18 4.5t-12 12.5l-65 109q-3 6 -3 9q0 8 13 8h36q19 0 32 -16l51 -70l51 70q13 16 32 16h34q13 0 13 -8z" />
    <glyph glyph-name="Ydieresis" unicode="&#x178;" horiz-adv-x="573" 
d="M554 680q6 -6 6 -14q0 -7 -3 -13l-222 -401v-232q0 -20 -20 -20h-57q-20 0 -20 20v232l-221 401q-4 8 -4 13q0 8 6.5 14t16.5 6h50q20 0 29 -18l172 -325l172 325q9 18 29 18h50q10 0 16 -6zM157.5 772q-15.5 15 -15.5 39t15.5 40t39.5 16t39.5 -16t15.5 -40t-15.5 -39
t-39.5 -15t-39.5 15zM337 772q-15 15 -15 39t15 40t39 16t39 -16t15 -40t-14.5 -39t-39.5 -15q-24 0 -39 15z" />
    <glyph glyph-name="Zcaron" unicode="&#x17d;" horiz-adv-x="500" 
d="M461 593l-319 -507h310q20 0 20 -20v-46q0 -20 -20 -20h-404q-20 0 -20 20v36q0 20 11 37l319 507h-310q-20 0 -20 20v46q0 20 20 20h404q20 0 20 -20v-36q0 -20 -11 -37zM385 882q0 -3 -3 -9l-64 -109q-4 -8 -12 -12.5t-18 -4.5h-67q-10 0 -18 4.5t-12 12.5l-65 109
q-3 6 -3 9q0 8 13 8h36q19 0 32 -16l51 -70l51 70q13 16 32 16h34q13 0 13 -8z" />
    <glyph glyph-name="zcaron" unicode="&#x17e;" horiz-adv-x="477" 
d="M419 398l-253 -312h246q20 0 20 -20v-46q0 -20 -20 -20h-347q-20 0 -20 20v46q0 21 13 35l257 313h-250q-20 0 -20 20v46q0 20 20 20h347q20 0 20 -20v-46q0 -20 -13 -36zM374 696q0 -3 -3 -9l-64 -109q-4 -8 -12 -12.5t-18 -4.5h-67q-10 0 -18 4.5t-12 12.5l-65 109
q-3 6 -3 9q0 8 13 8h36q19 0 32 -16l51 -70l51 70q13 16 32 16h34q13 0 13 -8z" />
    <glyph glyph-name="florin" unicode="&#x192;" horiz-adv-x="392" 
d="M359 692.5q5 -5.5 5 -15.5v-44q0 -10 -5 -15t-13 -5q-56 0 -80 -28.5t-24 -87.5v-121h96q20 0 20 -20v-41q0 -20 -20 -20h-96v-286q0 -100 -46.5 -151t-143.5 -51h-4q-10 0 -15 5.5t-5 15.5v44q0 10 5 15t14 5q53 0 76 28t23 87v288h-92q-20 0 -20 20v41q0 20 20 20h92
v119q0 102 46.5 152.5t149.5 50.5h2q10 0 15 -5.5z" />
    <glyph glyph-name="dotlessj" unicode="&#x237;" horiz-adv-x="257" 
d="M-12 -149h14q28 0 45 8t25.5 28t8.5 56v537q0 20 20 20h55q20 0 20 -20v-547q0 -79 -41.5 -122.5t-125.5 -43.5q-15 0 -21 1q-10 1 -15 6.5t-5 15.5v41q0 20 20 20z" />
    <glyph glyph-name="circumflex" unicode="&#x2c6;" horiz-adv-x="362" 
d="M312 551q0 -8 -13 -8h-35q-19 0 -32 16l-51 69l-50 -69q-13 -16 -32 -16h-36q-13 0 -13 8q0 3 3 9l64 109q4 8 12 12.5t18 4.5h67q10 0 18 -4.5t12 -12.5l65 -109q3 -6 3 -9z" />
    <glyph glyph-name="caron" unicode="&#x2c7;" horiz-adv-x="362" 
d="M312 679q0 -3 -3 -9l-64 -109q-4 -8 -12 -12.5t-18 -4.5h-67q-10 0 -18 4.5t-12 12.5l-65 109q-3 6 -3 9q0 8 13 8h36q19 0 32 -16l51 -70l51 70q13 16 32 16h34q13 0 13 -8z" />
    <glyph glyph-name="breve" unicode="&#x2d8;" horiz-adv-x="362" 
d="M91.5 576q-33.5 31 -41.5 90v3q0 17 18 17h31q20 0 23 -20q12 -52 59 -52q24 0 38.5 13t19.5 39q3 20 23 20h32q20 0 18 -20q-8 -59 -41.5 -90t-89.5 -31t-89.5 31z" />
    <glyph glyph-name="dotaccent" unicode="&#x2d9;" horiz-adv-x="230" 
d="M68 587.5q-18 18.5 -18 46.5q0 26 18 45t47 19t47 -19t18 -45q0 -28 -18 -46.5t-47 -18.5t-47 18.5z" />
    <glyph glyph-name="ring" unicode="&#x2da;" horiz-adv-x="338" 
d="M108.5 543q-27.5 15 -43 40.5t-15.5 57.5t15.5 58t42.5 41t61 15t61 -15t42.5 -41t15.5 -58t-15.5 -58t-42.5 -40.5t-60 -14.5q-34 0 -61.5 15zM211 598q16 16 16 43q0 26 -16 42.5t-42 16.5q-25 0 -41 -16.5t-16 -42.5q0 -27 16 -43t42 -16q25 0 41 16z" />
    <glyph glyph-name="ogonek" unicode="&#x2db;" horiz-adv-x="295" 
d="M245 -141q0 -13 -13 -20q-33 -15 -72 -15q-54 0 -82 21t-28 59q0 35 23.5 65t77.5 65l31 -28q-34 -23 -47.5 -41t-13.5 -37q0 -34 49 -34q19 0 38 7q3 1 9 1q13 0 17 -13l9 -21q2 -6 2 -9z" />
    <glyph glyph-name="tilde" unicode="&#x2dc;" horiz-adv-x="385" 
d="M52.5 576.5q-3.5 6.5 -1.5 15.5q12 40 32.5 59.5t46.5 19.5q20 0 35 -6t36 -18q13 -9 22.5 -13t18.5 -4q10 0 17 5t13 17q3 9 10 12.5t16 1.5l22 -6q9 -2 12.5 -8.5t1.5 -15.5q-12 -40 -32 -59.5t-47 -19.5q-21 0 -36 6t-34 18q-13 9 -22.5 13t-19.5 4t-16.5 -5
t-11.5 -17q-8 -19 -26 -14l-24 6q-9 2 -12.5 8.5z" />
    <glyph glyph-name="hungarumlaut" unicode="&#x2dd;" horiz-adv-x="377" 
d="M53 545.5q-3 2.5 -3 8.5q0 5 1 8l53 128q4 13 14 13q5 0 11 -3l38 -18q12 -6 12 -16q0 -5 -3 -11l-47 -94q-9 -18 -29 -18h-36q-8 0 -11 2.5zM192 552q0 3 2 9l57 124q4 12 15 12q5 0 11 -3l38 -18q12 -6 12 -15q0 -3 -4 -11l-51 -90q-11 -17 -30 -17h-36q-14 0 -14 9z
" />
    <glyph glyph-name="gravecomb" unicode="&#x300;" 
d="M-9 560l-59 90q-4 5 -4 12q0 4 3 7.5t8 5.5l53 25q4 2 10 2q12 0 16 -13l51 -127l2 -9q0 -10 -14 -10h-35q-20 0 -31 17z" />
    <glyph glyph-name="acutecomb" unicode="&#x301;" 
d="M-72 553l2 9l51 127q4 13 16 13q6 0 10 -2l53 -25q5 -2 8 -5.5t3 -7.5q0 -7 -4 -12l-59 -90q-11 -17 -31 -17h-35q-14 0 -14 10z" />
    <glyph glyph-name="circumflexcomb" unicode="&#x302;" 
d="M131 551q0 -8 -13 -8h-35q-19 0 -32 16l-51 69l-50 -69q-13 -16 -32 -16h-36q-13 0 -13 8q0 3 3 9l64 109q4 8 12 12.5t18 4.5h67q10 0 18 -4.5t12 -12.5l65 -109q3 -6 3 -9z" />
    <glyph glyph-name="tildecomb" unicode="&#x303;" 
d="M-139.5 576.5q-3.5 6.5 -1.5 15.5q12 40 32.5 59.5t46.5 19.5q20 0 35 -6t36 -18q13 -9 22.5 -13t18.5 -4q10 0 17 5t13 17q3 9 10 12.5t16 1.5l22 -6q9 -2 12.5 -8.5t1.5 -15.5q-12 -40 -32 -59.5t-47 -19.5q-21 0 -36 6t-34 18q-13 9 -22.5 13t-19.5 4t-16.5 -5
t-11.5 -17q-8 -19 -26 -14l-24 6q-9 2 -12.5 8.5z" />
    <glyph glyph-name="macroncomb" unicode="&#x304;" 
d="M-126 590v35q0 20 20 20h212q20 0 20 -20v-35q0 -20 -20 -20h-212q-20 0 -20 20z" />
    <glyph glyph-name="dotaccentcomb" unicode="&#x307;" 
d="M-47 587.5q-18 18.5 -18 46.5q0 26 18 45t47 19t47 -19t18 -45q0 -28 -18 -46.5t-47 -18.5t-47 18.5z" />
    <glyph glyph-name="dieresiscomb" unicode="&#x308;" 
d="M-128.5 569q-15.5 15 -15.5 39t15.5 40t39.5 16t39.5 -16t15.5 -40t-15.5 -39t-39.5 -15t-39.5 15zM51 569q-15 15 -15 39t15 40t39 16t39 -16t15 -40t-14.5 -39t-39.5 -15q-24 0 -39 15z" />
    <glyph glyph-name="ringcomb" unicode="&#x30a;" 
d="M-60.5 543q-27.5 15 -43 40.5t-15.5 57.5t15.5 58t42.5 41t61 15t61 -15t42.5 -41t15.5 -58t-15.5 -58t-42.5 -40.5t-60 -14.5q-34 0 -61.5 15zM42 598q16 16 16 43q0 26 -16 42.5t-42 16.5q-25 0 -41 -16.5t-16 -42.5q0 -27 16 -43t42 -16q25 0 41 16z" />
    <glyph glyph-name="hungarumlautcomb" unicode="&#x30b;" 
d="M-136 545.5q-3 2.5 -3 8.5q0 5 1 8l53 128q4 13 14 13q5 0 11 -3l38 -18q12 -6 12 -16q0 -5 -3 -11l-47 -94q-9 -18 -29 -18h-36q-8 0 -11 2.5zM3 552q0 3 2 9l57 124q4 12 15 12q5 0 11 -3l38 -18q12 -6 12 -15q0 -3 -4 -11l-51 -90q-11 -17 -30 -17h-36q-14 0 -14 9z
" />
    <glyph glyph-name="caroncomb" unicode="&#x30c;" 
d="M131 679q0 -3 -3 -9l-64 -109q-4 -8 -12 -12.5t-18 -4.5h-67q-10 0 -18 4.5t-12 12.5l-65 109q-3 6 -3 9q0 8 13 8h36q19 0 32 -16l51 -70l51 70q13 16 32 16h34q13 0 13 -8z" />
    <glyph glyph-name="cedillacomb" unicode="&#x327;" 
d="M-58.5 -186q-3.5 5 -1.5 14l28 96q2 9 8.5 14t16.5 5h55q14 0 14 -9q0 -3 -2 -9l-45 -98q-7 -18 -28 -18h-32q-10 0 -13.5 5z" />
    <glyph glyph-name="uni0335" unicode="&#x335;" 
d="M-157 276v23q0 20 20 20h274q20 0 20 -20v-23q0 -20 -20 -20h-274q-20 0 -20 20z" />
    <glyph glyph-name="uni0336" unicode="&#x336;" 
d="M-223 269v37q0 20 20 20h406q20 0 20 -20v-37q0 -20 -20 -20h-406q-20 0 -20 20z" />
    <glyph glyph-name="uni0337" unicode="&#x337;" 
d="M101 519q5 4 9 4q7 0 7 -12v-45q0 -19 -16 -32l-92 -67v83zM-110 296q-7 0 -7 12v43q0 19 16 32l90 68v-84l-90 -67q-5 -4 -9 -4z" />
    <glyph glyph-name="uni0338" unicode="&#x338;" 
d="M-182 4l-19 16q-8 6 -8 14q0 7 6 14l356 431q8 8 14 8t14 -6l20 -16q8 -6 8 -14q0 -6 -6 -14l-357 -431q-8 -8 -14 -8t-14 6z" />
    <glyph glyph-name="uni03BC" unicode="&#x3bc;" horiz-adv-x="589" 
d="M508 480v-460q0 -20 -20 -20h-51q-20 0 -20 20v38q-24 -34 -58 -52t-76 -18q-76 0 -119 43v-233q0 -20 -20 -20h-55q-20 0 -20 20v682q0 20 20 20h55q20 0 20 -20v-260q0 -74 26.5 -110.5t86.5 -36.5q64 0 100 40t36 110v257q0 20 20 20h55q20 0 20 -20z" />
    <glyph glyph-name="uni060C" unicode="&#x60c;" horiz-adv-x="262" 
d="M126.5 5q-6.5 -5 -16.5 -5h-65q-10 0 -13.5 5t-0.5 14l79 256q6 19 26 19h40q19 0 16 -20l-58 -254q-1 -10 -7.5 -15z" />
    <glyph glyph-name="uni061B" unicode="&#x61b;" horiz-adv-x="276" 
d="M64 -2.5q-16 9.5 -25 26t-9 35.5q0 20 9 36.5t25 26.5t37 10t37.5 -10t25.5 -26.5t9 -36.5q0 -19 -9 -35.5t-25.5 -26t-37.5 -9.5t-37 9.5zM140.5 224q-6.5 -5 -16.5 -5h-65q-10 0 -13.5 5t-0.5 14l79 256q6 19 26 19h40q19 0 16 -20l-58 -254q-1 -10 -7.5 -15z" />
    <glyph glyph-name="uni061F" unicode="&#x61f;" horiz-adv-x="524" 
d="M268 185q-20 0 -20 20v84q-63 21 -107 47.5t-70 66t-26 95.5t25.5 101t75.5 71t121 26q133 0 216 -90q6 -7 6 -14q0 -9 -7 -16l-34 -34q-7 -7 -13 -7q-7 0 -13 8q-59 67 -150 67q-41 0 -70.5 -14.5t-44.5 -37.5t-15 -48q0 -43 17.5 -72t54.5 -49.5t99 -36.5q9 -2 14 -8.5
t5 -16.5v-122q0 -20 -20 -20h-44zM234.5 8.5q-18.5 19.5 -18.5 47.5q0 29 18.5 49t49.5 20q20 0 35.5 -9.5t24 -25t8.5 -34.5q0 -18 -8.5 -33.5t-24 -24.5t-35.5 -9q-31 0 -49.5 19.5z" />
    <glyph glyph-name="uni0621" unicode="&#x621;" horiz-adv-x="328" 
d="M314 73v-63q0 -10 -10 -10h-274q-10 0 -10 10v63q0 10 10 10h58q-27 39 -27 81q0 41 18 74t55.5 53t92.5 20h60q10 0 10 -10v-62q0 -10 -10 -10h-60q-42 0 -64 -20t-22 -53q0 -30 23 -51.5t71 -21.5h69q10 0 10 -10z" />
    <glyph glyph-name="uni0622" unicode="&#x622;" horiz-adv-x="245" 
d="M75 20v596q0 20 20 20h55q20 0 20 -20v-596q0 -20 -20 -20h-55q-20 0 -20 20zM166 693.5q-21 5.5 -47 15.5q-15 5 -29.5 9.5t-25.5 4.5q-14 0 -26 -5.5t-26 -15.5q-4 -3 -8 -3q-5 0 -10 5l-18 25q-4 6 -4 9q0 5 5 10q17 17 39.5 28t44.5 11q15 0 28.5 -4t36.5 -12
q28 -10 44.5 -14.5t36.5 -4.5q15 0 27 4l4 1q9 0 12 -11l8 -29l1 -5q0 -5 -2.5 -9t-6.5 -6q-17 -9 -39 -9q-24 0 -45 5.5z" />
    <glyph glyph-name="uni0623" unicode="&#x623;" horiz-adv-x="245" 
d="M75 20v596q0 20 20 20h55q20 0 20 -20v-596q0 -20 -20 -20h-55q-20 0 -20 20zM215.5 732.5q3.5 -3.5 3.5 -9.5v-24q0 -6 -3.5 -9.5t-9.5 -3.5h-166q-6 0 -9.5 3.5t-3.5 9.5v24q0 6 3.5 9.5t9.5 3.5h43q-14 18 -14 43q0 36 25 58.5t71 22.5h31q6 0 9.5 -3.5t3.5 -9.5v-24
q0 -6 -3.5 -9.5t-9.5 -3.5h-30q-23 0 -35 -10.5t-12 -27.5q0 -36 52 -36h35q6 0 9.5 -3.5z" />
    <glyph glyph-name="uni0624" unicode="&#x624;" horiz-adv-x="541" 
d="M471 448v-435q0 -88 -27.5 -139.5t-80.5 -73.5t-135 -22q-60 0 -112 16q-19 8 -15 27l8 47q5 20 24 16q29 -6 54.5 -9.5t56.5 -3.5q51 0 80 13.5t40.5 39t11.5 63.5v13h-63q-79 0 -139.5 27.5t-94.5 80t-34 123.5q0 74 31 127.5t90 81.5t141 28h144q20 0 20 -20zM376 96
l1 276h-97q-40 0 -71.5 -16.5t-49.5 -47t-18 -72.5q0 -66 45.5 -103t126.5 -37h63zM375.5 594.5q3.5 -3.5 3.5 -9.5v-24q0 -6 -3.5 -9.5t-9.5 -3.5h-166q-6 0 -9.5 3.5t-3.5 9.5v24q0 6 3.5 9.5t9.5 3.5h43q-14 18 -14 43q0 36 25 58.5t71 22.5h31q6 0 9.5 -3.5t3.5 -9.5
v-24q0 -6 -3.5 -9.5t-9.5 -3.5h-30q-23 0 -35 -10.5t-12 -27.5q0 -36 52 -36h35q6 0 9.5 -3.5z" />
    <glyph glyph-name="uni0625" unicode="&#x625;" horiz-adv-x="235" 
d="M70 20v616q0 20 20 20h55q20 0 20 -20v-616q0 -20 -20 -20h-55q-20 0 -20 20zM210.5 -183.5q3.5 -3.5 3.5 -9.5v-26q0 -6 -3.5 -9.5t-9.5 -3.5h-166q-6 0 -9.5 3.5t-3.5 9.5v26q0 6 3.5 9.5t9.5 3.5h43q-15 18 -15 43q0 22 11 40.5t33 29.5t53 11h31q6 0 9.5 -3.5
t3.5 -9.5v-25q0 -6 -3.5 -9.5t-9.5 -3.5h-30q-23 0 -35 -10t-12 -27q0 -36 52 -36h35q6 0 9.5 -3.5z" />
    <glyph glyph-name="uni0626" unicode="&#x626;" horiz-adv-x="856" 
d="M216.5 -192q-89.5 30 -138 86.5t-48.5 134.5q0 39 8 81t21 79q8 19 26 14l49 -11q9 -2 12.5 -8.5t0.5 -15.5q-11 -38 -16.5 -68t-5.5 -59q0 -86 79 -126.5t223 -40.5q90 0 150 15t88.5 38.5t28.5 48.5q0 26 -15 47.5t-37.5 37.5t-60.5 39q-48 29 -77 50.5t-49.5 54.5
t-20.5 77q0 53 26 95.5t72 66.5t104 24t100.5 -19t72.5 -48q7 -7 7 -16q0 -8 -5 -14l-31 -37q-3 -4 -7 -6.5t-8 -2.5q-5 0 -13 5q-25 19 -54.5 30.5t-62.5 11.5q-27 0 -51 -9.5t-39.5 -29.5t-15.5 -48q0 -25 15 -45t36 -35t61 -39q47 -28 76.5 -50t50.5 -54t21 -75
q0 -61 -41 -108t-122 -74t-199 -27q-121 0 -210.5 30zM318 351v-40q0 -10 -10 -10h-220q-10 0 -10 10v40q0 10 10 10h56q-23 27 -23 62q0 30 15 55t43 40t65 15h51q10 0 10 -10v-41q0 -10 -10 -10h-48q-31 0 -48.5 -15t-17.5 -41t21.5 -40.5t56.5 -14.5h49q10 0 10 -10z" />
    <glyph glyph-name="uni0627" unicode="&#x627;" horiz-adv-x="235" 
d="M70 20v616q0 20 20 20h55q20 0 20 -20v-616q0 -20 -20 -20h-55q-20 0 -20 20z" />
    <glyph glyph-name="uni0628" unicode="&#x628;" horiz-adv-x="974" 
d="M904 408v-388q0 -20 -20 -20h-587q-125 0 -196 52.5t-71 159.5q0 55 23 141q2 9 8.5 13t16.5 2l47 -11q20 -5 16 -24q-18 -81 -18 -121q0 -60 46 -88t135 -28h505v312q0 20 20 20h55q20 0 20 -20zM427 -183q-16 16 -16 39t16 38.5t40 15.5q23 0 38.5 -16t15.5 -38
q0 -23 -15.5 -39t-38.5 -16q-24 0 -40 16z" />
    <glyph glyph-name="uni0629" unicode="&#x629;" horiz-adv-x="541" 
d="M135.5 25.5q-51.5 27.5 -78.5 79.5t-27 125q0 67 28 121t80.5 84.5t122.5 30.5q71 0 123 -30t79.5 -84t27.5 -123q0 -110 -58.5 -170.5t-171.5 -60.5q-74 0 -125.5 27.5zM362.5 127q32.5 33 32.5 103q0 42 -16 73.5t-46.5 48.5t-71.5 17q-42 0 -72.5 -17t-46.5 -48.5
t-16 -73.5q0 -70 32.5 -103t102.5 -33q69 0 101.5 33zM150 603q-16 16 -16 39t16 38.5t39 15.5q22 0 38 -15.5t16 -38.5t-15.5 -39t-38.5 -16t-39 16zM293 603q-16 16 -16 39t16 38.5t39 15.5t38.5 -15.5t15.5 -38.5t-15.5 -39t-38.5 -16t-39 16z" />
    <glyph glyph-name="uni062A" unicode="&#x62a;" horiz-adv-x="974" 
d="M904 408v-388q0 -20 -20 -20h-587q-125 0 -196 52.5t-71 159.5q0 55 23 141q2 9 8.5 13t16.5 2l47 -11q20 -5 16 -24q-18 -81 -18 -121q0 -60 46 -88t135 -28h505v312q0 20 20 20h55q20 0 20 -20zM356 474q-16 16 -16 39t16 38.5t39 15.5q22 0 38 -15.5t16 -38.5
t-15.5 -39t-38.5 -16t-39 16zM499 474q-16 16 -16 39t16 38.5t39 15.5t38.5 -15.5t15.5 -38.5t-15.5 -39t-38.5 -16t-39 16z" />
    <glyph glyph-name="uni062B" unicode="&#x62b;" horiz-adv-x="974" 
d="M904 408v-388q0 -20 -20 -20h-587q-125 0 -196 52.5t-71 159.5q0 55 23 141q2 9 8.5 13t16.5 2l47 -11q20 -5 16 -24q-18 -81 -18 -121q0 -60 46 -88t135 -28h505v312q0 20 20 20h55q20 0 20 -20zM427 593q-16 16 -16 39t16 38.5t40 15.5q23 0 38.5 -15.5t15.5 -38.5
t-15.5 -39t-38.5 -16q-24 0 -40 16zM356 474q-16 16 -16 39t16 38.5t39 15.5q22 0 38 -15.5t16 -38.5t-15.5 -39t-38.5 -16t-39 16zM499 474q-16 16 -16 39t16 38.5t39 15.5t38.5 -15.5t15.5 -38.5t-15.5 -39t-38.5 -16t-39 16z" />
    <glyph glyph-name="uni062C" unicode="&#x62c;" horiz-adv-x="631" 
d="M463.5 438.5q52.5 -29.5 80 -84t27.5 -126.5v-208q0 -20 -20 -20h-284q-45 0 -79.5 -15.5t-53.5 -44.5t-19 -68t23 -68t67 -44t105 -15h73q20 0 20 -20v-54q0 -20 -20 -20h-61q-95 0 -162.5 25.5t-103.5 74.5t-36 118q0 67 30.5 118.5t88 80t134.5 28.5h203v106
q0 93 -40 134t-105 41q-75 0 -140 -77q-7 -9 -15 -9q-6 0 -13 6l-35 30q-8 5 -8 15q0 9 5 14q44 58 99.5 85t112.5 27q74 0 126.5 -29.5zM260 -166q-16 16 -16 39t16 38.5t40 15.5q23 0 38.5 -16t15.5 -38q0 -23 -15.5 -39t-38.5 -16q-24 0 -40 16z" />
    <glyph glyph-name="uni062D" unicode="&#x62d;" horiz-adv-x="631" 
d="M463.5 438.5q52.5 -29.5 80 -84t27.5 -126.5v-208q0 -20 -20 -20h-284q-45 0 -79.5 -15.5t-53.5 -44.5t-19 -68t23 -68t67 -44t105 -15h73q20 0 20 -20v-54q0 -20 -20 -20h-61q-95 0 -162.5 25.5t-103.5 74.5t-36 118q0 67 30.5 118.5t88 80t134.5 28.5h203v106
q0 93 -40 134t-105 41q-75 0 -140 -77q-7 -9 -15 -9q-6 0 -13 6l-35 30q-8 5 -8 15q0 9 5 14q44 58 99.5 85t112.5 27q74 0 126.5 -29.5z" />
    <glyph glyph-name="uni062E" unicode="&#x62e;" horiz-adv-x="631" 
d="M463.5 438.5q52.5 -29.5 80 -84t27.5 -126.5v-208q0 -20 -20 -20h-284q-45 0 -79.5 -15.5t-53.5 -44.5t-19 -68t23 -68t67 -44t105 -15h73q20 0 20 -20v-54q0 -20 -20 -20h-61q-95 0 -162.5 25.5t-103.5 74.5t-36 118q0 67 30.5 118.5t88 80t134.5 28.5h203v106
q0 93 -40 134t-105 41q-75 0 -140 -77q-7 -9 -15 -9q-6 0 -13 6l-35 30q-8 5 -8 15q0 9 5 14q44 58 99.5 85t112.5 27q74 0 126.5 -29.5zM297 605q-16 16 -16 39t16 38.5t40 15.5q23 0 38.5 -15.5t15.5 -38.5t-15.5 -39t-38.5 -16q-24 0 -40 16z" />
    <glyph glyph-name="uni062F" unicode="&#x62f;" horiz-adv-x="524" 
d="M348 441q56 -27 86 -78t30 -122v-221q0 -20 -20 -20h-384q-20 0 -20 20v56q0 20 20 20h309v141q0 64 -39 100.5t-108 36.5h-91q-20 0 -20 20v54q0 20 20 20h82q79 0 135 -27z" />
    <glyph glyph-name="uni0630" unicode="&#x630;" horiz-adv-x="524" 
d="M348 441q56 -27 86 -78t30 -122v-221q0 -20 -20 -20h-384q-20 0 -20 20v56q0 20 20 20h309v141q0 64 -39 100.5t-108 36.5h-91q-20 0 -20 20v54q0 20 20 20h82q79 0 135 -27zM195 605q-16 16 -16 39t16 38.5t40 15.5q23 0 38.5 -15.5t15.5 -38.5t-15.5 -39t-38.5 -16
q-24 0 -40 16z" />
    <glyph glyph-name="uni0631" unicode="&#x631;" horiz-adv-x="333" 
d="M40 -202v56q0 20 20 20h4q43 0 65.5 11.5t30.5 34.5t8 62v426q0 20 20 20h55q20 0 20 -20v-401q0 -85 -19.5 -134.5t-63.5 -72t-120 -22.5q-20 0 -20 20z" />
    <glyph glyph-name="uni0632" unicode="&#x632;" horiz-adv-x="333" 
d="M40 -202v56q0 20 20 20h4q43 0 65.5 11.5t30.5 34.5t8 62v426q0 20 20 20h55q20 0 20 -20v-401q0 -85 -19.5 -134.5t-63.5 -72t-120 -22.5q-20 0 -20 20zM176 565q-16 16 -16 39t16 38.5t40 15.5q23 0 38.5 -15.5t15.5 -38.5t-15.5 -39t-38.5 -16q-24 0 -40 16z" />
    <glyph glyph-name="uni0633" unicode="&#x633;" horiz-adv-x="1256" 
d="M1186 408v-388q0 -20 -20 -20h-176q-86 0 -129 73q-22 -36 -57 -54.5t-79 -18.5h-32q-61 0 -99 36q-6 -83 -42 -141t-97.5 -87.5t-142.5 -29.5q-82 0 -146 30t-100 87t-36 134q0 39 8 81t21 79q8 19 26 14l49 -11q9 -2 12.5 -8.5t0.5 -15.5q-11 -38 -16.5 -68t-5.5 -59
q0 -85 51.5 -126t135.5 -41q94 0 141 48.5t47 141.5v264q0 20 20 20h55q20 0 20 -20v-123q0 -56 28 -82.5t74 -26.5h21q38 0 58.5 21t20.5 78v183q0 20 20 20h55q20 0 20 -20v-173q0 -56 28 -82.5t74 -26.5h97v312q0 20 20 20h55q20 0 20 -20z" />
    <glyph glyph-name="uni0634" unicode="&#x634;" horiz-adv-x="1256" 
d="M1186 408v-388q0 -20 -20 -20h-176q-86 0 -129 73q-22 -36 -57 -54.5t-79 -18.5h-32q-61 0 -99 36q-6 -83 -42 -141t-97.5 -87.5t-142.5 -29.5q-82 0 -146 30t-100 87t-36 134q0 39 8 81t21 79q8 19 26 14l49 -11q9 -2 12.5 -8.5t0.5 -15.5q-11 -38 -16.5 -68t-5.5 -59
q0 -85 51.5 -126t135.5 -41q94 0 141 48.5t47 141.5v264q0 20 20 20h55q20 0 20 -20v-123q0 -56 28 -82.5t74 -26.5h21q38 0 58.5 21t20.5 78v183q0 20 20 20h55q20 0 20 -20v-173q0 -56 28 -82.5t74 -26.5h97v312q0 20 20 20h55q20 0 20 -20zM805 654q-16 16 -16 39
t16 38.5t40 15.5q23 0 38.5 -15.5t15.5 -38.5t-15.5 -39t-38.5 -16q-24 0 -40 16zM734 535q-16 16 -16 39t16 38.5t39 15.5q22 0 38 -15.5t16 -38.5t-15.5 -39t-38.5 -16t-39 16zM877 535q-16 16 -16 39t16 38.5t39 15.5t38.5 -15.5t15.5 -38.5t-15.5 -39t-38.5 -16t-39 16z
" />
    <glyph glyph-name="uni0635" unicode="&#x635;" horiz-adv-x="1136" 
d="M963 428.5q58 -39.5 85.5 -105t27.5 -146.5v-157q0 -20 -20 -20h-466q-18 -108 -91 -165t-187 -57q-82 0 -146 30t-100 87t-36 134q0 39 8 81t21 79q8 19 26 14l49 -11q9 -2 12.5 -8.5t0.5 -15.5q-11 -38 -16.5 -68t-5.5 -59q0 -85 51.5 -126t135.5 -41q94 0 141 48.5
t47 141.5v384q0 20 20 20h299q86 0 144 -39.5zM981 96v50q0 109 -43.5 167.5t-130.5 58.5h-212v-276h386z" />
    <glyph glyph-name="uni0636" unicode="&#x636;" horiz-adv-x="1136" 
d="M963 428.5q58 -39.5 85.5 -105t27.5 -146.5v-157q0 -20 -20 -20h-466q-18 -108 -91 -165t-187 -57q-82 0 -146 30t-100 87t-36 134q0 39 8 81t21 79q8 19 26 14l49 -11q9 -2 12.5 -8.5t0.5 -15.5q-11 -38 -16.5 -68t-5.5 -59q0 -85 51.5 -126t135.5 -41q94 0 141 48.5
t47 141.5v384q0 20 20 20h299q86 0 144 -39.5zM981 96v50q0 109 -43.5 167.5t-130.5 58.5h-212v-276h386zM728 605q-16 16 -16 39t16 38.5t40 15.5q23 0 38.5 -15.5t15.5 -38.5t-15.5 -39t-38.5 -16q-24 0 -40 16z" />
    <glyph glyph-name="uni0637" unicode="&#x637;" horiz-adv-x="787" 
d="M614 428.5q58 -39.5 85.5 -105t27.5 -146.5v-157q0 -20 -20 -20h-647q-20 0 -20 20v56q0 20 20 20h91v540q0 20 20 20h55q20 0 20 -20v-168h224q86 0 144 -39.5zM632 96v50q0 109 -43.5 167.5t-130.5 58.5h-212v-276h386z" />
    <glyph glyph-name="uni0638" unicode="&#x638;" horiz-adv-x="787" 
d="M614 428.5q58 -39.5 85.5 -105t27.5 -146.5v-157q0 -20 -20 -20h-647q-20 0 -20 20v56q0 20 20 20h91v540q0 20 20 20h55q20 0 20 -20v-168h224q86 0 144 -39.5zM632 96v50q0 109 -43.5 167.5t-130.5 58.5h-212v-276h386zM389 605q-16 16 -16 39t16 38.5t40 15.5
q23 0 38.5 -15.5t15.5 -38.5t-15.5 -39t-38.5 -16q-24 0 -40 16z" />
    <glyph glyph-name="uni0639" unicode="&#x639;" horiz-adv-x="611" 
d="M571 76v-56q0 -20 -20 -20h-274q-45 0 -79.5 -15.5t-53.5 -44.5t-19 -68t23 -68t67 -44t105 -15h73q20 0 20 -20v-54q0 -20 -20 -20h-61q-95 0 -162.5 25.5t-103.5 74.5t-36 118q0 58 23 104.5t66 77t103 40.5q-61 57 -61 150q0 61 29 112.5t85.5 83t136.5 31.5h92
q20 0 20 -20v-54q0 -20 -20 -20h-101q-69 0 -108 -36.5t-39 -100.5q0 -32 15.5 -64.5t52.5 -54.5t97 -22h130q20 0 20 -20z" />
    <glyph glyph-name="uni063A" unicode="&#x63a;" horiz-adv-x="611" 
d="M571 76v-56q0 -20 -20 -20h-274q-45 0 -79.5 -15.5t-53.5 -44.5t-19 -68t23 -68t67 -44t105 -15h73q20 0 20 -20v-54q0 -20 -20 -20h-61q-95 0 -162.5 25.5t-103.5 74.5t-36 118q0 58 23 104.5t66 77t103 40.5q-61 57 -61 150q0 61 29 112.5t85.5 83t136.5 31.5h92
q20 0 20 -20v-54q0 -20 -20 -20h-101q-69 0 -108 -36.5t-39 -100.5q0 -32 15.5 -64.5t52.5 -54.5t97 -22h130q20 0 20 -20zM372 605q-16 16 -16 39t16 38.5t40 15.5q23 0 38.5 -15.5t15.5 -38.5t-15.5 -39t-38.5 -16q-24 0 -40 16z" />
    <glyph glyph-name="uni0640" unicode="&#x640;" horiz-adv-x="100" 
d="M100 0h-100q-13 0 -20.5 3.5t-11 13.5t-3.5 29q0 21 3.5 31.5t11 14.5t20.5 4h100v-96z" />
    <glyph glyph-name="uni0641" unicode="&#x641;" horiz-adv-x="1117" 
d="M965 438q47 -30 69.5 -79.5t22.5 -110.5v-228q0 -20 -20 -20h-740q-125 0 -196 52.5t-71 159.5q0 55 23 141q2 9 8.5 13t16.5 2l47 -11q20 -5 16 -24q-18 -81 -18 -121q0 -60 46 -88t135 -28h355q-42 56 -42 135q0 69 29.5 123t82 84t119.5 30q70 0 117 -30zM758.5 133
q45.5 -37 126.5 -37h77v147q0 58 -29 93.5t-90 35.5q-38 0 -67.5 -17t-46 -48t-16.5 -71q0 -66 45.5 -103zM808 605q-16 16 -16 39t16 38.5t40 15.5q23 0 38.5 -15.5t15.5 -38.5t-15.5 -39t-38.5 -16q-24 0 -40 16z" />
    <glyph glyph-name="uni0642" unicode="&#x642;" horiz-adv-x="854" 
d="M784 448v-441q0 -84 -39.5 -134t-117.5 -72.5t-200 -22.5q-121 0 -210.5 30t-138 86.5t-48.5 134.5q0 39 8 81t21 79q8 19 26 14l49 -11q9 -2 12.5 -8.5t0.5 -15.5q-11 -38 -16.5 -68t-5.5 -59q0 -86 79 -126.5t223 -40.5q93 0 150.5 12t84.5 38t27 67v9h-63
q-79 0 -139.5 27.5t-94.5 80t-34 123.5q0 70 31.5 123.5t90.5 83.5t140 30h144q20 0 20 -20zM689 96l1 276h-97q-40 0 -71.5 -16.5t-49.5 -47t-18 -72.5q0 -66 45.5 -103t126.5 -37h63zM485 605q-16 16 -16 39t16 38.5t39 15.5q22 0 38 -15.5t16 -38.5t-15.5 -39t-38.5 -16
t-39 16zM628 605q-16 16 -16 39t16 38.5t39 15.5t38.5 -15.5t15.5 -38.5t-15.5 -39t-38.5 -16t-39 16z" />
    <glyph glyph-name="uni0643" unicode="&#x643;" horiz-adv-x="951" 
d="M881 636v-616q0 -20 -20 -20h-564q-125 0 -196 52.5t-71 159.5q0 55 23 141q2 9 8.5 13t16.5 2l47 -11q20 -5 16 -24q-18 -81 -18 -121q0 -60 46 -88t135 -28h482v540q0 20 20 20h55q20 0 20 -20zM369.5 298.5q-3.5 3.5 -3.5 9.5v24q0 6 3.5 9.5t9.5 3.5h43
q-14 18 -14 43q0 36 25 58.5t71 22.5h31q6 0 9.5 -3.5t3.5 -9.5v-24q0 -6 -3.5 -9.5t-9.5 -3.5h-30q-23 0 -35 -10.5t-12 -27.5q0 -36 52 -36h35q6 0 9.5 -3.5t3.5 -9.5v-24q0 -6 -3.5 -9.5t-9.5 -3.5h-166q-6 0 -9.5 3.5z" />
    <glyph glyph-name="uni0644" unicode="&#x644;" horiz-adv-x="665" 
d="M166 -192q-64 30 -100 87t-36 134q0 39 8 81t21 79q8 19 26 14l49 -11q9 -2 12.5 -8.5t0.5 -15.5q-11 -38 -16.5 -68t-5.5 -59q0 -85 51.5 -126t135.5 -41q94 0 141 48.5t47 141.5v572q0 20 20 20h55q20 0 20 -20v-569q0 -93 -34.5 -158t-98 -98t-150.5 -33
q-82 0 -146 30z" />
    <glyph glyph-name="uni0645" unicode="&#x645;" horiz-adv-x="700" 
d="M545 439q51 -29 78 -82.5t27 -125.5q0 -111 -59.5 -171t-177.5 -60h-147q-71 0 -106 -30.5t-35 -94.5q0 -41 8.5 -84t24.5 -98q1 -3 1 -8q0 -6 -3.5 -10.5t-10.5 -5.5l-51 -12q-2 -1 -6 -1q-7 0 -12 4t-6 11q-18 63 -29 117t-11 101q0 90 52.5 141.5t155.5 61.5
q-41 58 -41 140q0 70 28 123.5t79 83t120 29.5q70 0 121 -29zM522 129q32 33 32 103q0 42 -16 73.5t-45.5 49t-68.5 17.5q-40 0 -69.5 -17.5t-45.5 -49t-16 -73.5q0 -70 32 -103t99 -33q66 0 98 33z" />
    <glyph glyph-name="uni0646" unicode="&#x646;" horiz-adv-x="665" 
d="M166 -192q-64 30 -100 87t-36 134q0 39 8 81t21 79q8 19 26 14l49 -11q9 -2 12.5 -8.5t0.5 -15.5q-11 -38 -16.5 -68t-5.5 -59q0 -85 51.5 -126t135.5 -41q94 0 141 48.5t47 141.5v264q0 20 20 20h55q20 0 20 -20v-261q0 -93 -34.5 -158t-98 -98t-150.5 -33
q-82 0 -146 30zM276 404q-16 16 -16 39t16 38.5t40 15.5q23 0 38.5 -15.5t15.5 -38.5t-15.5 -39t-38.5 -16q-24 0 -40 16z" />
    <glyph glyph-name="uni0647" unicode="&#x647;" horiz-adv-x="541" 
d="M135.5 25.5q-51.5 27.5 -78.5 79.5t-27 125q0 67 28 121t80.5 84.5t122.5 30.5q71 0 123 -30t79.5 -84t27.5 -123q0 -110 -58.5 -170.5t-171.5 -60.5q-74 0 -125.5 27.5zM362.5 127q32.5 33 32.5 103q0 42 -16 73.5t-46.5 48.5t-71.5 17q-42 0 -72.5 -17t-46.5 -48.5
t-16 -73.5q0 -70 32.5 -103t102.5 -33q69 0 101.5 33z" />
    <glyph glyph-name="uni0648" unicode="&#x648;" horiz-adv-x="541" 
d="M471 448v-435q0 -88 -27.5 -139.5t-80.5 -73.5t-135 -22q-60 0 -112 16q-19 8 -15 27l8 47q5 20 24 16q29 -6 54.5 -9.5t56.5 -3.5q51 0 80 13.5t40.5 39t11.5 63.5v13h-63q-79 0 -139.5 27.5t-94.5 80t-34 123.5q0 74 31 127.5t90 81.5t141 28h144q20 0 20 -20zM376 96
l1 276h-97q-40 0 -71.5 -16.5t-49.5 -47t-18 -72.5q0 -66 45.5 -103t126.5 -37h63z" />
    <glyph glyph-name="uni0649" unicode="&#x649;" horiz-adv-x="856" 
d="M216.5 -192q-89.5 30 -138 86.5t-48.5 134.5q0 39 8 81t21 79q8 19 26 14l49 -11q9 -2 12.5 -8.5t0.5 -15.5q-11 -38 -16.5 -68t-5.5 -59q0 -86 79 -126.5t223 -40.5q90 0 150 15t88.5 38.5t28.5 48.5q0 26 -15 47.5t-37.5 37.5t-60.5 39q-48 29 -77 50.5t-49.5 54.5
t-20.5 77q0 53 26 95.5t72 66.5t104 24t100.5 -19t72.5 -48q7 -7 7 -16q0 -8 -5 -14l-31 -37q-3 -4 -7 -6.5t-8 -2.5q-5 0 -13 5q-25 19 -54.5 30.5t-62.5 11.5q-27 0 -51 -9.5t-39.5 -29.5t-15.5 -48q0 -25 15 -45t36 -35t61 -39q47 -28 76.5 -50t50.5 -54t21 -75
q0 -61 -41 -108t-122 -74t-199 -27q-121 0 -210.5 30z" />
    <glyph glyph-name="uni064A" unicode="&#x64a;" horiz-adv-x="856" 
d="M216.5 -192q-89.5 30 -138 86.5t-48.5 134.5q0 39 8 81t21 79q8 19 26 14l49 -11q9 -2 12.5 -8.5t0.5 -15.5q-11 -38 -16.5 -68t-5.5 -59q0 -86 79 -126.5t223 -40.5q90 0 150 15t88.5 38.5t28.5 48.5q0 26 -15 47.5t-37.5 37.5t-60.5 39q-48 29 -77 50.5t-49.5 54.5
t-20.5 77q0 53 26 95.5t72 66.5t104 24t100.5 -19t72.5 -48q7 -7 7 -16q0 -8 -5 -14l-31 -37q-3 -4 -7 -6.5t-8 -2.5q-5 0 -13 5q-25 19 -54.5 30.5t-62.5 11.5q-27 0 -51 -9.5t-39.5 -29.5t-15.5 -48q0 -25 15 -45t36 -35t61 -39q47 -28 76.5 -50t50.5 -54t21 -75
q0 -61 -41 -108t-122 -74t-199 -27q-121 0 -210.5 30zM316 -405q-16 16 -16 39t16 38.5t39 15.5q22 0 38 -16t16 -38q0 -23 -15.5 -39t-38.5 -16t-39 16zM459 -405q-16 16 -16 39t16 38.5t39 15.5t38.5 -16t15.5 -38q0 -23 -15.5 -39t-38.5 -16t-39 16z" />
    <glyph glyph-name="uni064B" unicode="&#x64b;" 
d="M-127 563v18q0 6 3.5 9.5t9.5 3.5h228q6 0 9.5 -3.5t3.5 -9.5v-18q0 -6 -3.5 -9.5t-9.5 -3.5h-228q-6 0 -9.5 3.5t-3.5 9.5zM-127 653v18q0 6 3.5 9.5t9.5 3.5h228q6 0 9.5 -3.5t3.5 -9.5v-18q0 -6 -3.5 -9.5t-9.5 -3.5h-228q-6 0 -9.5 3.5t-3.5 9.5z" />
    <glyph glyph-name="uni064C" unicode="&#x64c;" 
d="M109 746q19 -11 29.5 -31t10.5 -44q0 -33 -18 -62.5t-48.5 -47.5t-65.5 -18q-21 0 -43.5 9.5t-40.5 26.5l-13 12l-35 -35q-6 -4 -9 -4q-5 0 -9 4l-12 12q-4 4 -4 9q0 6 4 9l55 55q4 4 10 4q5 0 9 -4l31 -27q16 -13 30.5 -20t30.5 -7q10 0 19 3q-30 18 -44.5 40t-14.5 45
t11 42t30 29.5t43 10.5q25 0 44 -11zM98.5 641.5q6.5 14.5 6.5 29.5q0 18 -11 30t-28 12q-18 0 -29.5 -11t-11.5 -28q0 -34 56 -59q11 12 17.5 26.5z" />
    <glyph glyph-name="uni064D" unicode="&#x64d;" 
d="M-127 -116v18q0 6 3.5 9.5t9.5 3.5h228q6 0 9.5 -3.5t3.5 -9.5v-18q0 -6 -3.5 -9.5t-9.5 -3.5h-228q-6 0 -9.5 3.5t-3.5 9.5zM-127 -206v18q0 6 3.5 9.5t9.5 3.5h228q6 0 9.5 -3.5t3.5 -9.5v-18q0 -6 -3.5 -9.5t-9.5 -3.5h-228q-6 0 -9.5 3.5t-3.5 9.5z" />
    <glyph glyph-name="uni064E" unicode="&#x64e;" 
d="M-123.5 553.5q-3.5 3.5 -3.5 9.5v18q0 6 3.5 9.5t9.5 3.5h228q6 0 9.5 -3.5t3.5 -9.5v-18q0 -6 -3.5 -9.5t-9.5 -3.5h-228q-6 0 -9.5 3.5z" />
    <glyph glyph-name="uni064F" unicode="&#x64f;" 
d="M91 746q19 -11 29.5 -31t10.5 -44q0 -33 -18 -62.5t-48.5 -47.5t-65.5 -18q-29 0 -57.5 10.5t-53.5 30.5l-14 12q-5 5 -5 10q0 4 3 8l11 14q5 5 10 5q3 0 8 -3l15 -12q21 -17 41.5 -24t45.5 -7q10 0 19 3q-30 18 -44.5 40t-14.5 45t11 42t30 29.5t43 10.5q25 0 44 -11z
M80.5 641.5q6.5 14.5 6.5 29.5q0 18 -11 30t-28 12q-18 0 -29.5 -11t-11.5 -28q0 -34 56 -59q11 12 17.5 26.5z" />
    <glyph glyph-name="uni0650" unicode="&#x650;" 
d="M-123.5 -125.5q-3.5 3.5 -3.5 9.5v18q0 6 3.5 9.5t9.5 3.5h228q6 0 9.5 -3.5t3.5 -9.5v-18q0 -6 -3.5 -9.5t-9.5 -3.5h-228q-6 0 -9.5 3.5z" />
    <glyph glyph-name="uni0651" unicode="&#x651;" 
d="M-116.5 560.5q-20.5 20.5 -20.5 68.5v38q0 6 3.5 9.5t9.5 3.5h22q6 0 9.5 -3.5t3.5 -9.5v-42q0 -24 8 -34.5t24 -10.5q18 0 25.5 10.5t7.5 34.5v42q0 6 3.5 9.5t9.5 3.5h22q6 0 9.5 -3.5t3.5 -9.5v-42q0 -45 33 -45q18 0 25 10.5t7 34.5v42q0 6 3.5 9.5t9.5 3.5h22
q6 0 9.5 -3.5t3.5 -9.5v-38q0 -48 -18.5 -68.5t-54.5 -20.5q-23 0 -38 5.5t-26 16.5q-22 -22 -60 -22q-36 0 -56.5 20.5z" />
    <glyph glyph-name="uni0652" unicode="&#x652;" 
d="M-41 550.5q-18 10.5 -28.5 28.5t-10.5 40t10.5 40t28.5 29t40 11t40.5 -11t29.5 -29t11 -40t-11 -40t-29.5 -28.5t-40.5 -10.5t-40 10.5zM29.5 592q11.5 12 11.5 28q0 17 -11.5 28.5t-28.5 11.5t-29 -11.5t-12 -28.5t12 -28.5t29 -11.5t28.5 12z" />
    <glyph glyph-name="uni0653" unicode="&#x653;" 
d="M51 587.5q-21 5.5 -47 15.5q-15 5 -29.5 9.5t-25.5 4.5q-14 0 -26 -5.5t-26 -15.5q-4 -3 -8 -3q-5 0 -10 5l-18 25q-4 6 -4 9q0 5 5 10q17 17 39.5 28t44.5 11q15 0 28.5 -4t36.5 -12q28 -10 44.5 -14.5t36.5 -4.5q15 0 27 4l4 1q9 0 12 -11l8 -29l1 -5q0 -5 -2.5 -9
t-6.5 -6q-17 -9 -39 -9q-24 0 -45 5.5z" />
    <glyph glyph-name="uni0654" unicode="&#x654;" 
d="M92.5 626.5q3.5 -3.5 3.5 -9.5v-24q0 -6 -3.5 -9.5t-9.5 -3.5h-166q-6 0 -9.5 3.5t-3.5 9.5v24q0 6 3.5 9.5t9.5 3.5h43q-14 18 -14 43q0 36 25 58.5t71 22.5h31q6 0 9.5 -3.5t3.5 -9.5v-24q0 -6 -3.5 -9.5t-9.5 -3.5h-30q-23 0 -35 -10.5t-12 -27.5q0 -36 52 -36h35
q6 0 9.5 -3.5z" />
    <glyph glyph-name="uni0655" unicode="&#x655;" 
d="M92.5 -183.5q3.5 -3.5 3.5 -9.5v-26q0 -6 -3.5 -9.5t-9.5 -3.5h-166q-6 0 -9.5 3.5t-3.5 9.5v26q0 6 3.5 9.5t9.5 3.5h43q-15 18 -15 43q0 22 11 40.5t33 29.5t53 11h31q6 0 9.5 -3.5t3.5 -9.5v-25q0 -6 -3.5 -9.5t-9.5 -3.5h-30q-23 0 -35 -10t-12 -27q0 -36 52 -36h35
q6 0 9.5 -3.5z" />
    <glyph glyph-name="uni0656" unicode="&#x656;" 
d="M-18.5 -216.5q-3.5 3.5 -3.5 9.5v138q0 6 3.5 9.5t9.5 3.5h18q6 0 9.5 -3.5t3.5 -9.5v-138q0 -6 -3.5 -9.5t-9.5 -3.5h-18q-6 0 -9.5 3.5z" />
    <glyph glyph-name="uni0660" unicode="&#x660;" horiz-adv-x="301" 
d="M151 195q-3 0 -7 2t-7 5l-55 54q-3 3 -5 7t-2 7q0 7 7 14l54 54q7 7 14 7q8 0 14 -7l55 -54q7 -6 7 -14q0 -7 -7 -14l-54 -54q-7 -7 -14 -7z" />
    <glyph glyph-name="uni0661" unicode="&#x661;" horiz-adv-x="315" 
d="M110 20v575q0 20 20 20h55q20 0 20 -20v-575q0 -20 -20 -20h-55q-20 0 -20 20z" />
    <glyph glyph-name="uni0662" unicode="&#x662;" horiz-adv-x="503" 
d="M110 20v575q0 20 20 20h303q20 0 20 -20v-56q0 -20 -20 -20h-228v-499q0 -20 -20 -20h-55q-20 0 -20 20z" />
    <glyph glyph-name="uni0663" unicode="&#x663;" horiz-adv-x="612" 
d="M110 20v575q0 20 20 20h55q20 0 20 -20v-170h86v133q0 20 20 20h44q20 0 20 -20v-133q37 0 57 8t27.5 24t7.5 44v94q0 20 20 20h55q20 0 20 -20v-90q0 -59 -21 -97t-73.5 -58.5t-145.5 -20.5h-117v-309q0 -20 -20 -20h-55q-20 0 -20 20z" />
    <glyph glyph-name="uni0664" unicode="&#x664;" horiz-adv-x="523" 
d="M141.5 43.5q-61.5 43.5 -61.5 134.5q0 98 92 153q-32 23 -47 52t-15 71q0 49 25.5 85.5t70 56t100.5 19.5h97q20 0 20 -20v-56q0 -20 -20 -20h-95q-52 0 -77 -16.5t-25 -54.5q0 -39 31.5 -57.5t88.5 -18.5h46q20 0 20 -20v-56q0 -20 -20 -20h-66q-59 0 -94 -23t-35 -70
q0 -48 36 -67.5t100 -19.5h120q20 0 20 -20v-56q0 -20 -20 -20h-127q-103 0 -164.5 43.5z" />
    <glyph glyph-name="uni0665" unicode="&#x665;" horiz-adv-x="614" 
d="M135 68q-55 73 -55 220q0 89 21.5 163.5t72.5 121.5t134 47t133.5 -46.5t71.5 -119.5t21 -161q0 -150 -56 -224t-173 -74q-115 0 -170 73zM387.5 112q28.5 21 40 65t11.5 120q0 99 -28.5 163t-103.5 64q-76 0 -104 -64.5t-28 -162.5q0 -77 11.5 -121t40 -64.5t80.5 -20.5
t80.5 21z" />
    <glyph glyph-name="uni0666" unicode="&#x666;" horiz-adv-x="494" 
d="M299 20v416q0 26 -6.5 43.5t-25.5 28.5t-55 11h-142q-20 0 -20 20v56q0 20 20 20h167q79 0 118 -39t39 -105v-451q0 -20 -20 -20h-55q-20 0 -20 20z" />
    <glyph glyph-name="uni0667" unicode="&#x667;" horiz-adv-x="576" 
d="M239 19l-188 577q-1 3 -1 7q0 12 15 12h64q20 0 26 -19l134 -454l132 454q6 19 26 19h64q10 0 13.5 -5t0.5 -14l-189 -577q-6 -19 -26 -19h-45q-20 0 -26 19z" />
    <glyph glyph-name="uni0668" unicode="&#x668;" horiz-adv-x="576" 
d="M337 596l188 -577q1 -3 1 -7q0 -12 -15 -12h-64q-20 0 -26 19l-134 454l-132 -454q-6 -19 -26 -19h-64q-10 0 -13.5 5t-0.5 14l189 577q6 19 26 19h45q20 0 26 -19z" />
    <glyph glyph-name="uni0669" unicode="&#x669;" horiz-adv-x="572" 
d="M367 20v195h-53q-113 0 -173.5 50.5t-60.5 145.5q0 65 29 111t80.5 69.5t116.5 23.5h136q20 0 20 -20v-575q0 -20 -20 -20h-55q-20 0 -20 20zM367 519h-74q-57 0 -87.5 -27.5t-30.5 -80.5t35 -76.5t85 -23.5h72v208z" />
    <glyph glyph-name="uni066A" unicode="&#x66a;" horiz-adv-x="639" 
d="M92 8q0 3 3 9l372 652q11 17 30 17h49q13 0 13 -8q0 -3 -3 -9l-373 -652q-11 -17 -30 -17h-48q-13 0 -13 8zM147 524q-3 0 -7 2t-7 5l-55 54q-3 3 -5 7t-2 7q0 7 7 14l54 54q7 7 14 7q8 0 14 -7l55 -54q7 -6 7 -14q0 -7 -7 -14l-54 -54q-7 -7 -14 -7zM500 15q-3 0 -7 2
t-7 5l-55 54q-3 3 -5 7t-2 7q0 7 7 14l54 54q7 7 14 7q8 0 14 -7l55 -54q7 -6 7 -14q0 -7 -7 -14l-54 -54q-7 -7 -14 -7z" />
    <glyph glyph-name="uni066B" unicode="&#x66b;" horiz-adv-x="235" 
d="M82.5 -90.5q-3.5 -1.5 -5.5 -1.5q-3 0 -5 3.5t-2 9.5v155q0 20 20 20h55q20 0 20 -20v-106q0 -10 -8 -15l-70 -43q-1 -1 -4.5 -2.5z" />
    <glyph glyph-name="uni066C" unicode="&#x66c;" horiz-adv-x="235" 
d="M82.5 59.5q-3.5 -1.5 -5.5 -1.5q-3 0 -5 3.5t-2 9.5v155q0 20 20 20h55q20 0 20 -20v-106q0 -10 -8 -15l-70 -43q-1 -1 -4.5 -2.5z" />
    <glyph glyph-name="uni066D" unicode="&#x66d;" horiz-adv-x="343" 
d="M87 490q-4 3 -4.5 5.5t2.5 7.5l45 90l-93 49q-3 2 -3.5 4t0.5 7l2 6q1 4 3 5t5 0l104 -13l17 98q2 11 11 11h6q9 0 11 -11l15 -98l102 13h3q5 0 7 -5l2 -6q3 -8 -3 -11l-93 -49l45 -90q4 -8 -2 -13l-5 -3q-4 -2 -6 -2q-3 0 -8 5l-72 70l-72 -71q-4 -4 -8 -4q-2 0 -6 2z
" />
    <glyph glyph-name="uni066E" unicode="&#x66e;" horiz-adv-x="974" 
d="M904 408v-388q0 -20 -20 -20h-587q-125 0 -196 52.5t-71 159.5q0 55 23 141q2 9 8.5 13t16.5 2l47 -11q20 -5 16 -24q-18 -81 -18 -121q0 -60 46 -88t135 -28h505v312q0 20 20 20h55q20 0 20 -20z" />
    <glyph glyph-name="uni066F" unicode="&#x66f;" horiz-adv-x="854" 
d="M784 448v-441q0 -84 -39.5 -134t-117.5 -72.5t-200 -22.5q-121 0 -210.5 30t-138 86.5t-48.5 134.5q0 39 8 81t21 79q8 19 26 14l49 -11q9 -2 12.5 -8.5t0.5 -15.5q-11 -38 -16.5 -68t-5.5 -59q0 -86 79 -126.5t223 -40.5q93 0 150.5 12t84.5 38t27 67v9h-63
q-79 0 -139.5 27.5t-94.5 80t-34 123.5q0 70 31.5 123.5t90.5 83.5t140 30h144q20 0 20 -20zM689 96l1 276h-97q-40 0 -71.5 -16.5t-49.5 -47t-18 -72.5q0 -66 45.5 -103t126.5 -37h63z" />
    <glyph glyph-name="uni0670" unicode="&#x670;" 
d="M-18.5 583.5q-3.5 3.5 -3.5 9.5v138q0 6 3.5 9.5t9.5 3.5h18q6 0 9.5 -3.5t3.5 -9.5v-138q0 -6 -3.5 -9.5t-9.5 -3.5h-18q-6 0 -9.5 3.5z" />
    <glyph glyph-name="uni0671" unicode="&#x671;" horiz-adv-x="245" 
d="M75 20v596q0 20 20 20h55q20 0 20 -20v-596q0 -20 -20 -20h-55q-20 0 -20 20zM218 822.5q26 -25.5 26 -71.5v-52q0 -6 -3.5 -9.5t-9.5 -3.5h-234q-6 0 -9.5 3.5t-3.5 9.5v25q0 6 3.5 9.5t9.5 3.5h33v122q0 6 3.5 9.5t9.5 3.5h24q6 0 9.5 -3.5t3.5 -9.5v-11h59
q53 0 79 -25.5zM195 737v18q0 43 -56 43h-59v-61h115z" />
    <glyph glyph-name="uni06A1" unicode="&#x6a1;" horiz-adv-x="1117" 
d="M965 438q47 -30 69.5 -79.5t22.5 -110.5v-228q0 -20 -20 -20h-740q-125 0 -196 52.5t-71 159.5q0 55 23 141q2 9 8.5 13t16.5 2l47 -11q20 -5 16 -24q-18 -81 -18 -121q0 -60 46 -88t135 -28h355q-42 56 -42 135q0 69 29.5 123t82 84t119.5 30q70 0 117 -30zM758.5 133
q45.5 -37 126.5 -37h77v147q0 58 -29 93.5t-90 35.5q-38 0 -67.5 -17t-46 -48t-16.5 -71q0 -66 45.5 -103z" />
    <glyph glyph-name="uni06BA" unicode="&#x6ba;" horiz-adv-x="665" 
d="M166 -192q-64 30 -100 87t-36 134q0 39 8 81t21 79q8 19 26 14l49 -11q9 -2 12.5 -8.5t0.5 -15.5q-11 -38 -16.5 -68t-5.5 -59q0 -85 51.5 -126t135.5 -41q94 0 141 48.5t47 141.5v264q0 20 20 20h55q20 0 20 -20v-261q0 -93 -34.5 -158t-98 -98t-150.5 -33
q-82 0 -146 30z" />
    <glyph glyph-name="uni2011" unicode="&#x2011;" horiz-adv-x="347" 
d="M75 317h197q20 0 20 -20v-41q0 -20 -20 -20h-197q-20 0 -20 20v41q0 20 20 20z" />
    <glyph glyph-name="endash" unicode="&#x2013;" horiz-adv-x="396" 
d="M40 317h316q20 0 20 -20v-41q0 -20 -20 -20h-316q-20 0 -20 20v41q0 20 20 20z" />
    <glyph glyph-name="emdash" unicode="&#x2014;" horiz-adv-x="711" 
d="M20 317h671q20 0 20 -20v-41q0 -20 -20 -20h-671q-20 0 -20 20v41q0 20 20 20z" />
    <glyph glyph-name="quoteleft" unicode="&#x2018;" horiz-adv-x="262" 
d="M146.5 397q-6.5 -5 -16.5 -5h-65q-10 0 -13.5 5t-0.5 14l79 256q6 19 26 19h40q19 0 16 -20l-58 -254q-1 -10 -7.5 -15z" />
    <glyph glyph-name="quoteright" unicode="&#x2019;" horiz-adv-x="262" 
d="M115.5 681q6.5 5 16.5 5h65q10 0 13.5 -5t0.5 -14l-79 -256q-6 -19 -26 -19h-40q-19 0 -16 20l58 254q1 10 7.5 15z" />
    <glyph glyph-name="quotesinglbase" unicode="&#x201a;" horiz-adv-x="262" 
d="M115.5 115q6.5 5 16.5 5h65q10 0 13.5 -5t0.5 -14l-79 -256q-6 -19 -26 -19h-40q-19 0 -16 20l58 254q1 10 7.5 15z" />
    <glyph glyph-name="quotedblleft" unicode="&#x201c;" horiz-adv-x="464" 
d="M146.5 397q-6.5 -5 -16.5 -5h-65q-10 0 -13.5 5t-0.5 14l79 256q6 19 26 19h40q19 0 16 -20l-58 -254q-1 -10 -7.5 -15zM348.5 397q-6.5 -5 -16.5 -5h-65q-10 0 -13.5 5t-0.5 14l79 256q6 19 26 19h40q19 0 16 -20l-58 -254q-1 -10 -7.5 -15z" />
    <glyph glyph-name="quotedblright" unicode="&#x201d;" horiz-adv-x="464" 
d="M115.5 681q6.5 5 16.5 5h65q10 0 13.5 -5t0.5 -14l-79 -256q-6 -19 -26 -19h-40q-19 0 -16 20l58 254q1 10 7.5 15zM317.5 681q6.5 5 16.5 5h65q10 0 13.5 -5t0.5 -14l-79 -256q-6 -19 -26 -19h-40q-19 0 -16 20l58 254q1 10 7.5 15z" />
    <glyph glyph-name="quotedblbase" unicode="&#x201e;" horiz-adv-x="464" 
d="M95.5 115q6.5 5 16.5 5h65q10 0 13.5 -5t0.5 -14l-79 -256q-6 -19 -26 -19h-40q-19 0 -16 20l58 254q1 10 7.5 15zM297.5 115q6.5 5 16.5 5h65q10 0 13.5 -5t0.5 -14l-79 -256q-6 -19 -26 -19h-40q-19 0 -16 20l58 254q1 10 7.5 15z" />
    <glyph glyph-name="dagger" unicode="&#x2020;" horiz-adv-x="710" 
d="M327 483l-24 183v5q0 15 17 15h70q10 0 14 -5t3 -15l-24 -183q-3 -20 -23 -20h-10q-20 0 -23 20zM95 360q-15 0 -15 17v70q0 10 5 14t15 3l183 -24q20 -3 20 -23v-10q0 -20 -20 -23l-183 -24h-5zM625 363q-5 -4 -15 -3l-184 24q-20 3 -20 23v10q0 20 20 23l184 24h5
q15 0 15 -17v-70q0 -10 -5 -14zM307 -202v393q0 21 3 40l17 109q3 20 23 20h10q20 0 23 -20l17 -109q3 -19 3 -40v-393q0 -20 -20 -20h-56q-20 0 -20 20z" />
    <glyph glyph-name="daggerdbl" unicode="&#x2021;" horiz-adv-x="710" 
d="M327 493l-24 173v5q0 15 17 15h70q10 0 14 -5t3 -15l-24 -173q-3 -20 -23 -20h-10q-20 0 -23 20zM97 374q-17 0 -17 18v65q0 10 5 14t15 3l183 -23q20 -3 20 -23v-8q0 -10 -5 -15.5t-15 -6.5l-183 -24h-3zM610 374l-184 24q-10 1 -15 6.5t-5 15.5v8q0 20 20 23l184 23h5
q15 0 15 -17v-65q0 -20 -20 -18zM327 110l-17 102q-1 7 -1 20q0 14 1 20l17 102q3 20 23 20h10q20 0 23 -20l17 -102q2 -12 2 -20q0 -6 -2 -20l-17 -102q-3 -20 -23 -20h-10q-20 0 -23 20zM95 -10q-15 0 -15 17v65q0 20 20 18l184 -24q10 -1 15 -6.5t5 -15.5v-8
q0 -20 -20 -23l-184 -23h-5zM625 -7q-5 -4 -15 -3l-183 23q-20 3 -20 23v8q0 10 5 15.5t15 6.5l183 24h3q17 0 17 -18v-65q0 -10 -5 -14zM306 -217q-4 5 -3 15l24 173q3 20 23 20h10q20 0 23 -20l24 -173v-5q0 -15 -17 -15h-70q-10 0 -14 5z" />
    <glyph glyph-name="bullet" unicode="&#x2022;" horiz-adv-x="357" 
d="M123.5 231q-24.5 14 -38.5 38t-14 54t14 53.5t38.5 37t55.5 13.5q30 0 54 -13.5t38 -37t14 -53.5t-14 -54t-38 -38t-54 -14q-31 0 -55.5 14z" />
    <glyph glyph-name="ellipsis" unicode="&#x2026;" horiz-adv-x="699" 
d="M89 -2.5q-16 9.5 -25 26t-9 35.5q0 20 9 36.5t25 26.5t37 10t37.5 -10t25.5 -26.5t9 -36.5q0 -19 -9 -35.5t-25.5 -26t-37.5 -9.5t-37 9.5zM312 -2.5q-16 9.5 -25 26t-9 35.5q0 20 9 36.5t25 26.5t37 10t37.5 -10t25.5 -26.5t9 -36.5q0 -19 -9 -35.5t-25.5 -26
t-37.5 -9.5t-37 9.5zM535 -2.5q-16 9.5 -25 26t-9 35.5q0 20 9 36.5t25 26.5t37 10t37.5 -10t25.5 -26.5t9 -36.5q0 -19 -9 -35.5t-25.5 -26t-37.5 -9.5t-37 9.5z" />
    <glyph glyph-name="perthousand" unicode="&#x2030;" horiz-adv-x="1387" 
d="M137 364.5q-42 22.5 -67 63t-25 91.5q0 52 25 93t67 64t92 23t92 -23t66.5 -64t24.5 -93q0 -51 -24.5 -91.5t-66.5 -63t-92 -22.5t-92 22.5zM241 4.5q-5 4.5 -5 10.5t4 11l411 643q11 17 31 17h44q8 0 13 -4.5t5 -10.5t-4 -11l-411 -643q-11 -17 -31 -17h-44
q-8 0 -13 4.5zM279.5 429.5q23.5 13.5 37.5 37t14 52.5q0 30 -14 54t-37.5 37.5t-50.5 13.5q-28 0 -51 -13.5t-36.5 -37.5t-13.5 -54q0 -29 13.5 -52.5t36.5 -37t51 -13.5q27 0 50.5 13.5zM659.5 10.5q-41.5 22.5 -66.5 63.5t-25 93q0 51 25 91.5t67 63.5t91 23q50 0 92 -23
t67 -63.5t25 -91.5q0 -52 -25 -93t-67 -63.5t-92 -22.5t-91.5 22.5zM1066.5 10.5q-41.5 22.5 -66.5 63.5t-25 93q0 51 25 91.5t67 63.5t91 23q50 0 92 -23t67 -63.5t25 -91.5q0 -52 -25 -93t-67 -63.5t-92 -22.5t-91.5 22.5zM801.5 75.5q23.5 13.5 37.5 37.5t14 54
q0 29 -14 52.5t-37.5 37t-50.5 13.5t-50 -13.5t-37 -37t-14 -52.5q0 -30 14 -54t37 -37.5t50 -13.5t50.5 13.5zM1208.5 75.5q23.5 13.5 37.5 37.5t14 54q0 29 -14 52.5t-37.5 37t-50.5 13.5t-50 -13.5t-37 -37t-14 -52.5q0 -30 14 -54t37 -37.5t50 -13.5t50.5 13.5z" />
    <glyph glyph-name="guilsinglleft" unicode="&#x2039;" horiz-adv-x="292" 
d="M255 86q5 -7 5 -12q0 -8 -9 -16l-23 -19q-5 -5 -14 -5q-10 0 -15 8l-169 197q-6 8 -6 15q0 8 6 15l169 197q5 8 15 8q9 0 14 -5l23 -19q9 -7 9 -16q0 -5 -5 -12l-123 -168z" />
    <glyph glyph-name="guilsinglright" unicode="&#x203a;" horiz-adv-x="292" 
d="M32 434q0 9 9 16l23 19q5 5 14 5q10 0 15 -8l169 -197q6 -7 6 -15q0 -7 -6 -15l-169 -197q-5 -8 -15 -8q-9 0 -14 5l-23 19q-9 8 -9 16q0 5 5 12l123 168l-123 168q-5 7 -5 12z" />
    <glyph glyph-name="fraction" unicode="&#x2044;" horiz-adv-x="107" 
d="M-203 2q-1 2 0 4l423 673q2 4 4.5 5.5t6.5 1.5h76q2 0 3 -2t0 -4l-426 -676q-3 -4 -7 -4h-77q-2 0 -3 2z" />
    <glyph glyph-name="four.superior" unicode="&#x2074;" horiz-adv-x="401" 
d="M373 128v-30q0 -20 -20 -20h-46v-58q0 -20 -20 -20h-40q-20 0 -20 20v58h-181q-20 0 -20 20v30q0 21 12 36l177 232q13 16 32 16h40q20 0 20 -20v-244h46q20 0 20 -20zM227 148v151l-112 -151h112z" />
    <glyph glyph-name="Euro" unicode="&#x20ac;" horiz-adv-x="675" 
d="M632 105q0 -8 -5 -14q-39 -46 -96.5 -74t-131.5 -28t-134 28.5t-100 83.5t-57 132h-60q-20 0 -20 20v33q0 20 20 20h50q-1 12 -1 37q0 18 2 48h-51q-20 0 -20 20v33q0 20 20 20h64q19 73 61.5 125.5t102.5 80t130 27.5q137 0 217 -91q6 -7 6 -15t-7 -15l-32 -34
q-7 -7 -14 -7t-13 8q-30 31 -67.5 47.5t-86.5 16.5q-70 0 -121 -37t-75 -106h188q20 0 20 -20v-33q0 -20 -20 -20h-203q-3 -22 -3 -48q0 -25 1 -37h205q20 0 20 -20v-33q0 -20 -20 -20h-192q21 -75 72 -114.5t122 -39.5q93 0 162 74q6 8 13 8t14 -7l33 -33q7 -7 7 -16z" />
    <glyph glyph-name="trademark" unicode="&#x2122;" horiz-adv-x="736" 
d="M308 666v-29q0 -20 -20 -20h-71v-220q0 -20 -20 -20h-31q-20 0 -20 20v220h-71q-20 0 -20 20v29q0 20 20 20h213q20 0 20 -20zM681 666v-269q0 -20 -20 -20h-31q-20 0 -20 20v168l-59 -97q-16 -25 -31 -25t-32 25l-57 92v-163q0 -20 -20 -20h-31q-20 0 -20 20v269
q0 20 20 20h29q10 0 18 -4.5t12 -12.5l82 -138l80 138q9 17 34 17h26q20 0 20 -20z" />
    <glyph glyph-name="minus" unicode="&#x2212;" horiz-adv-x="537" 
d="M30 263v46q0 20 20 20h437q20 0 20 -20v-46q0 -20 -20 -20h-437q-20 0 -20 20z" />
    <glyph glyph-name="uniFBB2" unicode="&#xfbb2;" 
d="M-39 565q-16 16 -16 39t16 38.5t40 15.5q23 0 38.5 -15.5t15.5 -38.5t-15.5 -39t-38.5 -16q-24 0 -40 16z" />
    <glyph glyph-name="uniFBB3" unicode="&#xfbb3;" 
d="M-39 -183q-16 16 -16 39t16 38.5t40 15.5q23 0 38.5 -16t15.5 -38q0 -23 -15.5 -39t-38.5 -16q-24 0 -40 16z" />
    <glyph glyph-name="uniFBB4" unicode="&#xfbb4;" 
d="M-110 565q-16 16 -16 39t16 38.5t39 15.5q22 0 38 -15.5t16 -38.5t-15.5 -39t-38.5 -16t-39 16zM33 565q-16 16 -16 39t16 38.5t39 15.5t38.5 -15.5t15.5 -38.5t-15.5 -39t-38.5 -16t-39 16z" />
    <glyph glyph-name="uniFBB5" unicode="&#xfbb5;" 
d="M-110 -183q-16 16 -16 39t16 38.5t39 15.5q22 0 38 -16t16 -38q0 -23 -15.5 -39t-38.5 -16t-39 16zM33 -183q-16 16 -16 39t16 38.5t39 15.5t38.5 -16t15.5 -38q0 -23 -15.5 -39t-38.5 -16t-39 16z" />
    <glyph glyph-name="uniFBB6" unicode="&#xfbb6;" 
d="M-39 684q-16 16 -16 39t16 38.5t40 15.5q23 0 38.5 -15.5t15.5 -38.5t-15.5 -39t-38.5 -16q-24 0 -40 16zM-110 565q-16 16 -16 39t16 38.5t39 15.5q22 0 38 -15.5t16 -38.5t-15.5 -39t-38.5 -16t-39 16zM33 565q-16 16 -16 39t16 38.5t39 15.5t38.5 -15.5t15.5 -38.5
t-15.5 -39t-38.5 -16t-39 16z" />
    <glyph glyph-name="uniFD3E" unicode="&#xfd3e;" horiz-adv-x="592" 
d="M408 -150q-56 51 -107.5 120.5t-66.5 124.5l-73 -11h-2q-6 0 -10 3t-4 9q0 7 4 12l61 84q8 11 8 18q0 9 -10 9q-11 0 -18 -7l-79 -70q-6 -6 -13 -6q-6 0 -10 5.5t-4 14.5v59q-33 16 -48 29t-15 24q0 10 15 22.5t48 28.5v62q0 9 3.5 13.5t8.5 4.5q7 0 13 -6l81 -72
q8 -7 17 -7q5 0 8 2.5t3 6.5q0 8 -8 19l-61 84q-5 7 -5 12q0 6 5 9.5t12 2.5l73 -11q15 57 66.5 127t107.5 121t77 51q9 0 9 -6q0 -7 -7 -13q-150 -167 -163 -282l57 7h4q12 0 12 -9q0 -5 -6 -11l-68 -79q-1 -1 -4 -4.5t-5 -7.5t-2 -7q0 -8 9 -8q12 0 22 8l73 53q12 9 20 9
q4 0 5.5 -2.5t1.5 -8.5v-58q23 -8 43.5 -22t20.5 -29q0 -17 -20.5 -31t-43.5 -22v-59q0 -6 -1.5 -8.5t-5.5 -2.5q-8 0 -20 9l-71 53q-12 9 -23 9q-10 0 -10 -9q0 -8 11 -19l68 -78q6 -6 6 -11q0 -9 -15 -8l-58 6q8 -67 50 -141t113 -138q3 -3 5.5 -6t2.5 -6t-3 -5t-7 -2
q-21 0 -77 51zM234 381h23l22 34v-34h19v-28l67 68l-72 -13q4 23 12 47.5t24 64.5v45q-27 -27 -49 -72.5t-31 -84.5l-65 17l50 -73v29zM186 238h-48v17q-3 1 -10 3t-11.5 4.5t-8.5 5.5q10 6 30 11v16h48l-78 61v-56q-31 -12 -45.5 -19.5t-14.5 -12.5q0 -6 14.5 -14t45.5 -20
v-56zM421 234q26 6 43.5 16t17.5 18q0 6 -18 16t-43 16v55l-76 -56h44v-19q19 -1 33 -12q-17 -13 -33 -14v-19h-44l76 -56v55zM302.5 230q14.5 15 14.5 38q0 21 -14.5 36t-36.5 15q-13 0 -24.5 -7.5t-18.5 -19.5t-7 -24q0 -21 15 -37t35 -16q22 0 36.5 15zM329 14
q-16 39 -24 63.5t-12 47.5l72 -14l-67 70v-30h-19v-33l-22 33h-23v30l-50 -72l65 16q9 -39 31 -84.5t49 -69.5v43z" />
    <glyph glyph-name="uniFD3F" unicode="&#xfd3f;" horiz-adv-x="592" 
d="M100 -199q-3 2 -3 5t2.5 6t5.5 6q71 64 113 138t50 141l-58 -6h-3q-12 0 -12 8q0 5 6 11l68 78q11 11 11 19q0 9 -10 9q-11 0 -23 -9l-71 -53q-12 -9 -20 -9q-4 0 -5.5 2.5t-1.5 8.5v59q-23 8 -43.5 22t-20.5 31q0 15 20.5 29t43.5 22v58q0 6 1.5 8.5t5.5 2.5q8 0 20 -9
l73 -53q10 -8 22 -8q9 0 9 8q0 3 -2.5 7.5t-5 7.5t-3.5 4l-68 79q-6 6 -6 11q0 10 16 9l57 -7q-13 115 -163 282q-7 6 -7 13q0 6 9 6q21 0 77 -51t107.5 -121t66.5 -127l73 11h3q6 0 10 -3.5t4 -8.5t-5 -12l-61 -84q-8 -11 -8 -19q0 -4 3 -6.5t8 -2.5q9 0 17 7l81 72
q6 6 13 6q5 0 8.5 -4.5t3.5 -13.5v-62q33 -16 48 -28.5t15 -22.5q0 -11 -15 -24t-48 -29v-59q0 -9 -4 -14.5t-10 -5.5q-7 0 -13 6l-79 70q-7 7 -18 7q-10 0 -10 -9q0 -7 8 -18l61 -84q4 -5 4 -12q0 -6 -5 -9.5t-11 -2.5l-73 11q-15 -55 -66.5 -124.5t-107.5 -120.5t-77 -51
q-4 0 -7 2zM408 425l-65 -17q-9 39 -31 84.5t-49 72.5v-45q16 -40 24 -64.5t12 -47.5l-72 13l67 -68v28h19v34l22 -34h23v-29zM484 234q31 12 45.5 20t14.5 14q0 5 -14.5 12.5t-45.5 19.5v56l-78 -61h48v-16q20 -5 30 -11q-5 -4 -11.5 -6.5t-11 -4l-7.5 -2.5v-17h-48l78 -60
v56zM247 235h-44v19q-16 1 -33 14q14 11 33 12v19h44l-76 56v-55q-25 -6 -43 -16t-18 -16q0 -8 17.5 -18t43.5 -16v-55zM361 231q15 16 15 37q0 12 -7 24t-18.5 19.5t-24.5 7.5q-22 0 -36.5 -15t-14.5 -36q0 -23 14.5 -38t36.5 -15q20 0 35 16zM312 40.5q22 45.5 31 84.5
l65 -16l-50 72v-30h-23l-22 -33v33h-19v30l-67 -70l72 14q-4 -23 -12 -47.5t-24 -63.5v-43q27 24 49 69.5z" />
    <glyph glyph-name="uniFEFF" unicode="&#xfeff;" 
 />
    <glyph glyph-name="A.ss01" horiz-adv-x="614" 
d="M592 21q0 -8 -6 -14.5t-16 -6.5h-56q-20 0 -26 19l-182 535l-98 -289h106q10 0 16.5 -5t8.5 -14l11 -38q1 -2 1 -6q0 -9 -6 -15t-15 -6h-151l-55 -162q-6 -19 -26 -19h-54q-9 0 -15.5 6t-6.5 15l2 8l230 638q8 19 27 19h52q19 0 27 -19l230 -638z" />
    <glyph glyph-name="Aacute.ss01" horiz-adv-x="614" 
d="M592 21q0 -8 -6 -14.5t-16 -6.5h-56q-20 0 -26 19l-182 535l-98 -289h106q10 0 16.5 -5t8.5 -14l11 -38q1 -2 1 -6q0 -9 -6 -15t-15 -6h-151l-55 -162q-6 -19 -26 -19h-54q-9 0 -15.5 6t-6.5 15l2 8l230 638q8 19 27 19h52q19 0 27 -19l230 -638zM275 756l2 9l51 127
q4 13 16 13q6 0 10 -2l53 -25q5 -2 8 -5.5t3 -7.5q0 -7 -4 -12l-59 -90q-11 -17 -31 -17h-35q-14 0 -14 10z" />
    <glyph glyph-name="Acircumflex.ss01" horiz-adv-x="614" 
d="M592 21q0 -8 -6 -14.5t-16 -6.5h-56q-20 0 -26 19l-182 535l-98 -289h106q10 0 16.5 -5t8.5 -14l11 -38q1 -2 1 -6q0 -9 -6 -15t-15 -6h-151l-55 -162q-6 -19 -26 -19h-54q-9 0 -15.5 6t-6.5 15l2 8l230 638q8 19 27 19h52q19 0 27 -19l230 -638zM437 754q0 -8 -13 -8
h-35q-19 0 -32 16l-51 69l-50 -69q-13 -16 -32 -16h-36q-13 0 -13 8q0 3 3 9l64 109q4 8 12 12.5t18 4.5h67q10 0 18 -4.5t12 -12.5l65 -109q3 -6 3 -9z" />
    <glyph glyph-name="Adieresis.ss01" horiz-adv-x="614" 
d="M592 21q0 -8 -6 -14.5t-16 -6.5h-56q-20 0 -26 19l-182 535l-98 -289h106q10 0 16.5 -5t8.5 -14l11 -38q1 -2 1 -6q0 -9 -6 -15t-15 -6h-151l-55 -162q-6 -19 -26 -19h-54q-9 0 -15.5 6t-6.5 15l2 8l230 638q8 19 27 19h52q19 0 27 -19l230 -638zM177.5 772
q-15.5 15 -15.5 39t15.5 40t39.5 16t39.5 -16t15.5 -40t-15.5 -39t-39.5 -15t-39.5 15zM357 772q-15 15 -15 39t15 40t39 16t39 -16t15 -40t-14.5 -39t-39.5 -15q-24 0 -39 15z" />
    <glyph glyph-name="Agrave.ss01" horiz-adv-x="614" 
d="M592 21q0 -8 -6 -14.5t-16 -6.5h-56q-20 0 -26 19l-182 535l-98 -289h106q10 0 16.5 -5t8.5 -14l11 -38q1 -2 1 -6q0 -9 -6 -15t-15 -6h-151l-55 -162q-6 -19 -26 -19h-54q-9 0 -15.5 6t-6.5 15l2 8l230 638q8 19 27 19h52q19 0 27 -19l230 -638zM258 763l-59 90
q-4 5 -4 12q0 4 3 7.5t8 5.5l53 25q4 2 10 2q12 0 16 -13l51 -127l2 -9q0 -10 -14 -10h-35q-20 0 -31 17z" />
    <glyph glyph-name="Aring.ss01" horiz-adv-x="614" 
d="M592 21q0 -8 -6 -14.5t-16 -6.5h-56q-20 0 -26 19l-182 535l-98 -289h106q10 0 16.5 -5t8.5 -14l11 -38q1 -2 1 -6q0 -9 -6 -15t-15 -6h-151l-55 -162q-6 -19 -26 -19h-54q-9 0 -15.5 6t-6.5 15l2 8l230 638q8 19 27 19h52q19 0 27 -19l230 -638zM245.5 746
q-27.5 15 -43 40.5t-15.5 57.5t15.5 58t42.5 41t61 15t61 -15t42.5 -41t15.5 -58t-15.5 -58t-42.5 -40.5t-60 -14.5q-34 0 -61.5 15zM348 801q16 16 16 43q0 26 -16 42.5t-42 16.5q-25 0 -41 -16.5t-16 -42.5q0 -27 16 -43t42 -16q25 0 41 16z" />
    <glyph glyph-name="Atilde.ss01" horiz-adv-x="614" 
d="M592 21q0 -8 -6 -14.5t-16 -6.5h-56q-20 0 -26 19l-182 535l-98 -289h106q10 0 16.5 -5t8.5 -14l11 -38q1 -2 1 -6q0 -9 -6 -15t-15 -6h-151l-55 -162q-6 -19 -26 -19h-54q-9 0 -15.5 6t-6.5 15l2 8l230 638q8 19 27 19h52q19 0 27 -19l230 -638zM162.5 779.5
q-3.5 6.5 -1.5 15.5q12 40 32.5 59.5t46.5 19.5q20 0 35 -6t36 -18q13 -9 22.5 -13t18.5 -4q10 0 17 5t13 17q3 9 10 12.5t16 1.5l22 -6q9 -2 12.5 -8.5t1.5 -15.5q-12 -40 -32 -59.5t-47 -19.5q-21 0 -36 6t-34 18q-13 9 -22.5 13t-19.5 4t-16.5 -5t-11.5 -17
q-8 -19 -26 -14l-24 6q-9 2 -12.5 8.5z" />
    <glyph glyph-name="AE.ss01" horiz-adv-x="930" 
d="M848 66v-46q0 -20 -20 -20h-374q-20 0 -20 20v578l-177 -323h88q20 0 20 -20v-44q0 -20 -20 -20h-134l-95 -173q-11 -18 -30 -18h-53q-10 0 -16 6t-6 14q0 6 3 12l361 637q11 17 30 17h413q20 0 20 -20v-46q0 -20 -20 -20h-287v-514h297q20 0 20 -20zM788 396
q20 0 20 -20v-46q0 -20 -20 -20h-168q-20 0 -20 20v46q0 20 20 20h168z" />
    <glyph glyph-name="B.ss01" horiz-adv-x="607" 
d="M437 369q58 -25 88 -69.5t30 -102.5q0 -57 -27 -102t-79 -70t-124 -25h-210q-20 0 -20 20v646q0 20 20 20h197q73 0 124.5 -23t78.5 -65t27 -99q0 -22 -5.5 -42.5t-16.5 -36.5q-7 -10 -19 -10q-7 0 -11 2l-45 21q-12 5 -12 16q0 6 2 10q8 19 8 40q0 51 -35.5 76
t-108.5 25h-107v-514h120q76 0 110 28.5t34 82.5q0 113 -148 113h-27q-20 0 -20 20v44q0 20 20 20h16q82 0 140 -25z" />
    <glyph glyph-name="D.ss01" horiz-adv-x="657" 
d="M95 20v646q0 20 20 20h150q109 0 185.5 -43t115.5 -119t39 -175q0 -105 -37 -183.5t-108 -122t-172 -43.5h-7q-20 0 -20 20v46q0 20 20 20h7q74 0 123 33.5t72 92.5t23 137q0 118 -60.5 184.5t-180.5 66.5h-73v-580q0 -20 -20 -20h-57q-20 0 -20 20z" />
    <glyph glyph-name="Eth.ss01" horiz-adv-x="657" 
d="M450.5 643q76.5 -43 115.5 -119t39 -175q0 -105 -37 -183.5t-108 -122t-172 -43.5h-7q-20 0 -20 20v46q0 20 20 20h7q74 0 123 33.5t72 92.5t23 137q0 118 -60.5 184.5t-180.5 66.5h-73v-219h149q20 0 20 -20v-37q0 -20 -20 -20h-149v-284q0 -20 -20 -20h-57
q-20 0 -20 20v284h-48q-20 0 -20 20v37q0 20 20 20h48v285q0 20 20 20h150q109 0 185.5 -43z" />
    <glyph glyph-name="E.ss01" horiz-adv-x="576" 
d="M509 66v-46q0 -20 -20 -20h-374q-20 0 -20 20v646q0 20 20 20h364q20 0 20 -20v-46q0 -20 -20 -20h-287v-514h297q20 0 20 -20zM449 396q20 0 20 -20v-46q0 -20 -20 -20h-168q-20 0 -20 20v46q0 20 20 20h168z" />
    <glyph glyph-name="Eacute.ss01" horiz-adv-x="576" 
d="M509 66v-46q0 -20 -20 -20h-374q-20 0 -20 20v646q0 20 20 20h364q20 0 20 -20v-46q0 -20 -20 -20h-287v-514h297q20 0 20 -20zM449 396q20 0 20 -20v-46q0 -20 -20 -20h-168q-20 0 -20 20v46q0 20 20 20h168zM271 756l2 9l51 127q4 13 16 13q6 0 10 -2l53 -25
q5 -2 8 -5.5t3 -7.5q0 -7 -4 -12l-59 -90q-11 -17 -31 -17h-35q-14 0 -14 10z" />
    <glyph glyph-name="Ecircumflex.ss01" horiz-adv-x="576" 
d="M509 66v-46q0 -20 -20 -20h-374q-20 0 -20 20v646q0 20 20 20h364q20 0 20 -20v-46q0 -20 -20 -20h-287v-514h297q20 0 20 -20zM449 396q20 0 20 -20v-46q0 -20 -20 -20h-168q-20 0 -20 20v46q0 20 20 20h168zM433 754q0 -8 -13 -8h-35q-19 0 -32 16l-51 69l-50 -69
q-13 -16 -32 -16h-36q-13 0 -13 8q0 3 3 9l64 109q4 8 12 12.5t18 4.5h67q10 0 18 -4.5t12 -12.5l65 -109q3 -6 3 -9z" />
    <glyph glyph-name="Edieresis.ss01" horiz-adv-x="576" 
d="M509 66v-46q0 -20 -20 -20h-374q-20 0 -20 20v646q0 20 20 20h364q20 0 20 -20v-46q0 -20 -20 -20h-287v-514h297q20 0 20 -20zM449 396q20 0 20 -20v-46q0 -20 -20 -20h-168q-20 0 -20 20v46q0 20 20 20h168zM173.5 772q-15.5 15 -15.5 39t15.5 40t39.5 16t39.5 -16
t15.5 -40t-15.5 -39t-39.5 -15t-39.5 15zM353 772q-15 15 -15 39t15 40t39 16t39 -16t15 -40t-14.5 -39t-39.5 -15q-24 0 -39 15z" />
    <glyph glyph-name="Egrave.ss01" horiz-adv-x="576" 
d="M509 66v-46q0 -20 -20 -20h-374q-20 0 -20 20v646q0 20 20 20h364q20 0 20 -20v-46q0 -20 -20 -20h-287v-514h297q20 0 20 -20zM449 396q20 0 20 -20v-46q0 -20 -20 -20h-168q-20 0 -20 20v46q0 20 20 20h168zM254 763l-59 90q-4 5 -4 12q0 4 3 7.5t8 5.5l53 25q4 2 10 2
q12 0 16 -13l51 -127l2 -9q0 -10 -14 -10h-35q-20 0 -31 17z" />
    <glyph glyph-name="F.ss01" horiz-adv-x="538" 
d="M481 666v-46q0 -20 -20 -20h-269v-580q0 -20 -20 -20h-57q-20 0 -20 20v646q0 20 20 20h346q20 0 20 -20zM451 376v-46q0 -20 -20 -20h-150q-20 0 -20 20v46q0 20 20 20h150q20 0 20 -20z" />
    <glyph glyph-name="G.ss01" horiz-adv-x="693" 
d="M617 178v-70q0 -20 -14 -34q-44 -40 -104.5 -63t-134.5 -23q-96 0 -166.5 46t-108 126.5t-37.5 182.5t39.5 183t110.5 126.5t161 45.5q80 0 135.5 -26.5t100.5 -83.5q5 -5 5 -14q0 -10 -8 -15l-41 -35q-5 -5 -13 -5q-9 0 -14 8q-32 41 -71.5 61t-93.5 20q-65 0 -113 -34
t-73.5 -94t-25.5 -137q0 -80 25 -140t73 -92.5t115 -32.5q94 0 156 46v54q0 20 20 20h57q20 0 20 -20zM617 336v-49q0 -20 -20 -20h-175q-20 0 -20 20v49q0 20 20 20h175q20 0 20 -20z" />
    <glyph glyph-name="H.ss01" horiz-adv-x="689" 
d="M192 666v-646q0 -20 -20 -20h-57q-20 0 -20 20v646q0 20 20 20h57q20 0 20 -20zM594 666v-646q0 -20 -20 -20h-57q-20 0 -20 20v290h-216q-20 0 -20 20v46q0 20 20 20h216v270q0 20 20 20h57q20 0 20 -20z" />
    <glyph glyph-name="J.ss01" horiz-adv-x="498" 
d="M94 620v46q0 20 20 20h283q20 0 20 -20v-46q0 -20 -20 -20h-283q-20 0 -20 20zM113 10q-44 22 -80 69q-5 5 -5 14q0 10 8 15l41 35q5 5 13 5q9 0 14 -8q25 -32 52 -47t59 -15q53 0 79 34t26 105v294q0 20 20 20h57q20 0 20 -20v-294q0 -113 -52.5 -171t-149.5 -58
q-58 0 -102 22z" />
    <glyph glyph-name="K.ss01" horiz-adv-x="584" 
d="M192 666v-646q0 -20 -20 -20h-57q-20 0 -20 20v646q0 20 20 20h57q20 0 20 -20zM571 18q0 -8 -5.5 -13t-15.5 -5h-55q-20 0 -31 17l-220 339q-5 8 -5 16q0 10 6 17l203 281q13 16 32 16h63q9 0 14.5 -4t5.5 -11q0 -6 -6 -14l-214 -278l224 -348q4 -5 4 -13z" />
    <glyph glyph-name="M.ss01" horiz-adv-x="799" 
d="M694 680q6 -6 6 -14q0 -6 -3 -12l-273 -485q-9 -16 -25 -16q-15 0 -24 16l-183 325v-474q0 -20 -20 -20h-57q-20 0 -20 20v646q0 20 20 20h57q19 0 30 -18l199 -365l193 365q9 18 29 18h55q10 0 16 -6zM686 468q8 0 13 -8.5t5 -23.5v-416q0 -20 -20 -20h-57q-20 0 -20 20
v310q0 21 10 37l44 80q12 21 25 21z" />
    <glyph glyph-name="N.ss01" horiz-adv-x="718" 
d="M603 31q4 -5 4 -13t-5.5 -13t-15.5 -5h-60q-20 0 -31 17l-303 492v-489q0 -20 -20 -20h-57q-20 0 -20 20v646q0 20 20 20h57q20 0 31 -17zM623 666v-452q0 -15 -4.5 -24t-11.5 -9q-10 0 -24 20l-46 74q-11 17 -11 37v354q0 20 20 20h57q20 0 20 -20z" />
    <glyph glyph-name="Ntilde.ss01" horiz-adv-x="718" 
d="M603 31q4 -5 4 -13t-5.5 -13t-15.5 -5h-60q-20 0 -31 17l-303 492v-489q0 -20 -20 -20h-57q-20 0 -20 20v646q0 20 20 20h57q20 0 31 -17zM623 666v-452q0 -15 -4.5 -24t-11.5 -9q-10 0 -24 20l-46 74q-11 17 -11 37v354q0 20 20 20h57q20 0 20 -20zM214.5 779.5
q-3.5 6.5 -1.5 15.5q12 40 32.5 59.5t46.5 19.5q20 0 35 -6t36 -18q13 -9 22.5 -13t18.5 -4q10 0 17 5t13 17q3 9 10 12.5t16 1.5l22 -6q9 -2 12.5 -8.5t1.5 -15.5q-12 -40 -32 -59.5t-47 -19.5q-21 0 -36 6t-34 18q-13 9 -22.5 13t-19.5 4t-16.5 -5t-11.5 -17
q-8 -19 -26 -14l-24 6q-9 2 -12.5 8.5z" />
    <glyph glyph-name="OE.ss01" horiz-adv-x="948" 
d="M881 66v-46q0 -20 -20 -20h-453q-99 0 -180 40.5t-128.5 118t-47.5 183.5q0 108 47.5 185.5t128.5 118t180 40.5h443q20 0 20 -20v-46q0 -20 -20 -20h-287v-514h297q20 0 20 -20zM184 204.5q32 -57.5 90 -87.5t134 -30h59v512h-59q-76 0 -134 -29.5t-90 -87.5t-32 -140
q0 -80 32 -137.5zM821 396q20 0 20 -20v-46q0 -20 -20 -20h-168q-20 0 -20 20v46q0 20 20 20h168z" />
    <glyph glyph-name="P.ss01" horiz-adv-x="602" 
d="M441.5 659.5q56.5 -26.5 85 -73t28.5 -107.5q0 -66 -29.5 -115.5t-87 -76.5t-137.5 -27h-20q-20 0 -20 20v46q0 20 20 20h20q78 0 116.5 36t38.5 97q0 57 -38 89t-113 32h-113v-580q0 -20 -20 -20h-57q-20 0 -20 20v646q0 20 20 20h190q80 0 136.5 -26.5z" />
    <glyph glyph-name="Thorn.ss01" horiz-adv-x="602" 
d="M441.5 526.5q56.5 -26.5 85 -73t28.5 -107.5q0 -66 -29.5 -115.5t-87 -76.5t-137.5 -27h-20q-20 0 -20 20v46q0 20 20 20h20q78 0 116.5 36t38.5 97q0 57 -38 89t-113 32h-113v-447q0 -20 -20 -20h-57q-20 0 -20 20v646q0 20 20 20h57q20 0 20 -20v-113h113
q80 0 136.5 -26.5z" />
    <glyph glyph-name="Q.ss01" horiz-adv-x="736" 
d="M534 650.5q72 -47.5 111 -129t39 -178.5q0 -105 -42.5 -187.5t-116.5 -126.5q-6 -3 -13 -3q-10 0 -17 7t-7 18v45q0 20 16 33q39 35 60 90t21 124q0 77 -26.5 137t-75.5 94t-115 34q-67 0 -116 -34t-75 -94t-26 -137q0 -69 20.5 -124t59.5 -91t93 -46v95q0 20 20 20h55
q20 0 20 -20v-290q0 -20 -20 -20h-55q-20 0 -20 20v104q-82 11 -144 60t-95 125.5t-33 166.5q0 102 40 183t112 126.5t164 45.5q94 0 166 -47.5z" />
    <glyph glyph-name="R.ss01" horiz-adv-x="628" 
d="M551 380q-29 -46 -84.5 -71t-133.5 -25h-52q-20 0 -20 20v46q0 20 20 20h52q75 0 111.5 31.5t36.5 87.5q0 52 -36 81.5t-108 29.5h-145v-580q0 -20 -20 -20h-57q-20 0 -20 20v646q0 20 20 20h222q78 0 132.5 -25t82.5 -69.5t28 -102.5q0 -63 -29 -109zM562 31q5 -8 5 -14
q0 -7 -6 -12t-15 -5h-58q-20 0 -31 17l-113 173q-4 5 -4 13t5.5 13t15.5 5h53q20 0 31 -17z" />
    <glyph glyph-name="V.ss01" horiz-adv-x="614" 
d="M236.5 143.5q-5.5 -5.5 -11.5 -5.5q-13 0 -20 20l-181 499l-2 8q0 9 6.5 15t15.5 6h56q20 0 26 -19l141 -414q3 -9 3 -18q0 -12 -4 -20l-20 -55q-4 -11 -9.5 -16.5zM268.5 5q-3.5 5 -0.5 14l222 648q6 19 26 19h54q11 0 18 -9t3 -20l-226 -638q-8 -19 -27 -19h-56
q-10 0 -13.5 5z" />
    <glyph glyph-name="W.ss01" horiz-adv-x="887" 
d="M206 263q0 -9 -4 -23l-26 -75q-4 -10 -8.5 -15.5t-9.5 -5.5t-9.5 5.5t-6.5 15.5l-116 491q-2 11 5 20.5t19 9.5h49q19 0 24 -20l81 -387q2 -10 2 -16zM855.5 676.5q7.5 -9.5 4.5 -20.5l-164 -637q-2 -9 -8.5 -14t-16.5 -5h-49q-20 0 -26 19l-151 496l-152 -496
q-6 -19 -26 -19h-49q-10 0 -13.5 5t-0.5 14l198 648q6 19 26 19h35q20 0 26 -19l154 -516l122 516q2 9 8.5 14t16.5 5h47q11 0 18.5 -9.5z" />
    <glyph glyph-name="X.ss01" horiz-adv-x="566" 
d="M555 18q0 -8 -5.5 -13t-15.5 -5h-55q-10 0 -18 4.5t-12 12.5l-166 269l-166 -269q-4 -8 -12 -12.5t-18 -4.5h-55q-10 0 -15.5 4.5t-5.5 12.5q0 6 5 14l422 638q11 17 31 17h55q10 0 15.5 -4.5t5.5 -12.5q0 -6 -5 -14l-202 -301l213 -323q4 -5 4 -13zM26 655q-5 8 -5 14
q0 7 6 12t15 5h55q10 0 18 -4.5t12 -12.5l97 -159q6 -10 6 -21q0 -13 -7 -23l-19 -28q-6 -9 -17 -9q-10 0 -17 10z" />
    <glyph glyph-name="Y.ss01" horiz-adv-x="573" 
d="M241 423q0 -9 -5 -19l-25 -42q-6 -10 -16 -10q-9 0 -15 10l-163 292q-4 8 -4 12q0 8 6.5 14t16.5 6h50q20 0 29 -18l122 -229q4 -8 4 -16zM554 680q6 -6 6 -14q0 -7 -3 -13l-222 -398v-235q0 -20 -20 -20h-57q-20 0 -20 20v229q0 21 10 38l210 381q11 18 30 18h50
q10 0 16 -6z" />
    <glyph glyph-name="Yacute.ss01" horiz-adv-x="573" 
d="M241 423q0 -9 -5 -19l-25 -42q-6 -10 -16 -10q-9 0 -15 10l-163 292q-4 8 -4 12q0 8 6.5 14t16.5 6h50q20 0 29 -18l122 -229q4 -8 4 -16zM554 680q6 -6 6 -14q0 -7 -3 -13l-222 -398v-235q0 -20 -20 -20h-57q-20 0 -20 20v229q0 21 10 38l210 381q11 18 30 18h50
q10 0 16 -6zM255 756l2 9l51 127q4 13 16 13q6 0 10 -2l53 -25q5 -2 8 -5.5t3 -7.5q0 -7 -4 -12l-59 -90q-11 -17 -31 -17h-35q-14 0 -14 10z" />
    <glyph glyph-name="Ydieresis.ss01" horiz-adv-x="573" 
d="M241 423q0 -9 -5 -19l-25 -42q-6 -10 -16 -10q-9 0 -15 10l-163 292q-4 8 -4 12q0 8 6.5 14t16.5 6h50q20 0 29 -18l122 -229q4 -8 4 -16zM554 680q6 -6 6 -14q0 -7 -3 -13l-222 -398v-235q0 -20 -20 -20h-57q-20 0 -20 20v229q0 21 10 38l210 381q11 18 30 18h50
q10 0 16 -6zM157.5 772q-15.5 15 -15.5 39t15.5 40t39.5 16t39.5 -16t15.5 -40t-15.5 -39t-39.5 -15t-39.5 15zM337 772q-15 15 -15 39t15 40t39 16t39 -16t15 -40t-14.5 -39t-39.5 -15q-24 0 -39 15z" />
    <glyph glyph-name="Z.ss01" horiz-adv-x="500" 
d="M472 666v-36q0 -20 -11 -37l-275 -421q-11 -17 -31 -17h-50q-10 0 -15.5 5t-5.5 13q0 6 4 13l269 414h-309q-20 0 -20 20v46q0 20 20 20h404q20 0 20 -20zM472 66v-46q0 -20 -20 -20h-404q-20 0 -20 20v46q0 20 20 20h404q20 0 20 -20z" />
    <glyph glyph-name="Zcaron.ss01" horiz-adv-x="500" 
d="M472 666v-36q0 -20 -11 -37l-275 -421q-11 -17 -31 -17h-50q-10 0 -15.5 5t-5.5 13q0 6 4 13l269 414h-309q-20 0 -20 20v46q0 20 20 20h404q20 0 20 -20zM472 66v-46q0 -20 -20 -20h-404q-20 0 -20 20v46q0 20 20 20h404q20 0 20 -20zM385 882q0 -3 -3 -9l-64 -109
q-4 -8 -12 -12.5t-18 -4.5h-67q-10 0 -18 4.5t-12 12.5l-65 109q-3 6 -3 9q0 8 13 8h36q19 0 32 -16l51 -70l51 70q13 16 32 16h34q13 0 13 -8z" />
    <glyph glyph-name="a.ss01" horiz-adv-x="529" 
d="M362 487.5q48 -24.5 73 -69t25 -102.5v-296q0 -20 -20 -20h-55q-20 0 -20 20v198l-97 -1q-62 -1 -99.5 -20t-37.5 -55q0 -73 98 -73q31 0 52 4q2 1 6 1q13 0 13 -16v-38q0 -10 -5 -16.5t-14 -8.5q-31 -7 -65 -7q-55 0 -95.5 17.5t-62.5 51t-22 79.5q0 49 26 84.5t75.5 55
t120.5 19.5l107 1v23q0 51 -30 80t-86 29q-40 0 -70 -12.5t-60 -35.5q-8 -6 -14 -6q-9 0 -15 8l-26 31q-6 8 -6 14q0 8 7 15q33 30 78.5 50t105.5 20q65 0 113 -24.5z" />
    <glyph glyph-name="aacute.ss01" horiz-adv-x="529" 
d="M362 487.5q48 -24.5 73 -69t25 -102.5v-296q0 -20 -20 -20h-55q-20 0 -20 20v198l-97 -1q-62 -1 -99.5 -20t-37.5 -55q0 -73 98 -73q31 0 52 4q2 1 6 1q13 0 13 -16v-38q0 -10 -5 -16.5t-14 -8.5q-31 -7 -65 -7q-55 0 -95.5 17.5t-62.5 51t-22 79.5q0 49 26 84.5t75.5 55
t120.5 19.5l107 1v23q0 51 -30 80t-86 29q-40 0 -70 -12.5t-60 -35.5q-8 -6 -14 -6q-9 0 -15 8l-26 31q-6 8 -6 14q0 8 7 15q33 30 78.5 50t105.5 20q65 0 113 -24.5zM210 570l2 9l51 127q4 13 16 13q6 0 10 -2l53 -25q5 -2 8 -5.5t3 -7.5q0 -7 -4 -12l-59 -90
q-11 -17 -31 -17h-35q-14 0 -14 10z" />
    <glyph glyph-name="acircumflex.ss01" horiz-adv-x="529" 
d="M362 487.5q48 -24.5 73 -69t25 -102.5v-296q0 -20 -20 -20h-55q-20 0 -20 20v198l-97 -1q-62 -1 -99.5 -20t-37.5 -55q0 -73 98 -73q31 0 52 4q2 1 6 1q13 0 13 -16v-38q0 -10 -5 -16.5t-14 -8.5q-31 -7 -65 -7q-55 0 -95.5 17.5t-62.5 51t-22 79.5q0 49 26 84.5t75.5 55
t120.5 19.5l107 1v23q0 51 -30 80t-86 29q-40 0 -70 -12.5t-60 -35.5q-8 -6 -14 -6q-9 0 -15 8l-26 31q-6 8 -6 14q0 8 7 15q33 30 78.5 50t105.5 20q65 0 113 -24.5zM372 568q0 -8 -13 -8h-35q-19 0 -32 16l-51 69l-50 -69q-13 -16 -32 -16h-36q-13 0 -13 8q0 3 3 9l64 109
q4 8 12 12.5t18 4.5h67q10 0 18 -4.5t12 -12.5l65 -109q3 -6 3 -9z" />
    <glyph glyph-name="adieresis.ss01" horiz-adv-x="529" 
d="M362 487.5q48 -24.5 73 -69t25 -102.5v-296q0 -20 -20 -20h-55q-20 0 -20 20v198l-97 -1q-62 -1 -99.5 -20t-37.5 -55q0 -73 98 -73q31 0 52 4q2 1 6 1q13 0 13 -16v-38q0 -10 -5 -16.5t-14 -8.5q-31 -7 -65 -7q-55 0 -95.5 17.5t-62.5 51t-22 79.5q0 49 26 84.5t75.5 55
t120.5 19.5l107 1v23q0 51 -30 80t-86 29q-40 0 -70 -12.5t-60 -35.5q-8 -6 -14 -6q-9 0 -15 8l-26 31q-6 8 -6 14q0 8 7 15q33 30 78.5 50t105.5 20q65 0 113 -24.5zM112.5 586q-15.5 15 -15.5 39t15.5 40t39.5 16t39.5 -16t15.5 -40t-15.5 -39t-39.5 -15t-39.5 15z
M292 586q-15 15 -15 39t15 40t39 16t39 -16t15 -40t-14.5 -39t-39.5 -15q-24 0 -39 15z" />
    <glyph glyph-name="agrave.ss01" horiz-adv-x="529" 
d="M362 487.5q48 -24.5 73 -69t25 -102.5v-296q0 -20 -20 -20h-55q-20 0 -20 20v198l-97 -1q-62 -1 -99.5 -20t-37.5 -55q0 -73 98 -73q31 0 52 4q2 1 6 1q13 0 13 -16v-38q0 -10 -5 -16.5t-14 -8.5q-31 -7 -65 -7q-55 0 -95.5 17.5t-62.5 51t-22 79.5q0 49 26 84.5t75.5 55
t120.5 19.5l107 1v23q0 51 -30 80t-86 29q-40 0 -70 -12.5t-60 -35.5q-8 -6 -14 -6q-9 0 -15 8l-26 31q-6 8 -6 14q0 8 7 15q33 30 78.5 50t105.5 20q65 0 113 -24.5zM193 577l-59 90q-4 5 -4 12q0 4 3 7.5t8 5.5l53 25q4 2 10 2q12 0 16 -13l51 -127l2 -9q0 -10 -14 -10
h-35q-20 0 -31 17z" />
    </font>
</defs>
</svg>
