<svg width="12" height="20" viewBox="0 0 12 20" fill="none" xmlns="http://www.w3.org/2000/svg">
<path d="M9.97461 3.75V14.6875C9.97461 16.9375 8.16211 18.75 5.91211 18.75C3.66211 18.75 1.84961 16.9375 1.84961 14.6875V3.75C1.84961 2.375 2.97461 1.25 4.34961 1.25C5.72461 1.25 6.84961 2.375 6.84961 3.75V14.6875C6.84961 15.2188 6.44336 15.625 5.91211 15.625C5.38086 15.625 4.97461 15.2188 4.97461 14.6875V3.75H3.72461V14.6875C3.72461 15.9062 4.69336 16.875 5.91211 16.875C7.13086 16.875 8.09961 15.9062 8.09961 14.6875V3.75C8.09961 1.6875 6.41211 0 4.34961 0C2.28711 0 0.599609 1.6875 0.599609 3.75V14.6875C0.599609 17.625 2.97461 20 5.91211 20C8.84961 20 11.2246 17.625 11.2246 14.6875V3.75H9.97461Z" fill="#00448A"/>
</svg>
