<svg width="44" height="43" viewBox="0 0 44 43" fill="none" xmlns="http://www.w3.org/2000/svg">
<path d="M22 21.3518C32.6774 21.3518 43.5 18.6643 43.5 13.4346C43.5 8.20486 32.6774 5.59 22 5.59C11.3226 5.59 0.5 8.2775 0.5 13.5072C0.5 18.737 11.3226 21.3518 22 21.3518ZM22 8.4954C34.0574 8.4954 40.5946 11.764 40.5946 13.5072C40.5946 15.2505 34.0574 18.5191 22 18.5191C9.94257 18.5191 3.40541 15.1778 3.40541 13.5072C3.40541 11.8366 9.94257 8.4954 22 8.4954ZM22 34.2082C9.94257 34.2082 3.40541 30.9397 3.40541 29.1964H0.5C0.5 34.3535 11.3226 37.1136 22 37.1136C32.6774 37.1136 43.5 34.4261 43.5 29.1964H40.5946C40.5946 30.9397 34.0574 34.2082 22 34.2082ZM22 26.5816C9.94257 26.5816 3.40541 23.2403 3.40541 21.5697H0.5C0.5 26.7268 11.3226 29.487 22 29.487C32.6774 29.487 43.5 26.7268 43.5 21.5697H40.5946C40.5946 23.2403 34.0574 26.5816 22 26.5816Z" fill="#00448A"/>
</svg>
