<svg width="44" height="43" viewBox="0 0 44 43" fill="none" xmlns="http://www.w3.org/2000/svg">
<path d="M16.8367 22.2691H9.14618V24.944H16.8367V22.2691ZM28.8071 19.4603C23.591 19.4603 19.3779 23.6734 19.3779 28.8896C19.3779 34.1058 23.591 38.3188 28.8071 38.3188C34.0233 38.3188 38.2364 34.1058 38.2364 28.8896C38.2364 23.6734 34.0233 19.4603 28.8071 19.4603ZM28.8071 35.6439C25.0622 35.6439 22.0529 32.6345 22.0529 28.8896C22.0529 25.1446 25.0622 22.1353 28.8071 22.1353C32.5521 22.1353 35.5614 25.1446 35.5614 28.8896C35.5614 32.6345 32.5521 35.6439 28.8071 35.6439ZM9.14618 33.1695H14.1617V30.4946H9.14618V33.1695ZM4.465 10.098L11.6874 2.67496H33.8896V14.9798H36.5645V0H10.6174L1.79004 9.02799V43H19.846V40.325H4.465V10.098ZM37.8351 36.0451L35.9627 37.9176L40.577 42.5319L42.4494 40.6594L37.8351 36.0451ZM29.2084 14.2442H9.14618V16.9191H29.2084V14.2442Z" fill="#00448A"/>
</svg>
