<svg width="43" height="43" viewBox="0 0 43 43" fill="none" xmlns="http://www.w3.org/2000/svg">
<path d="M22.7689 25.0387H35.1754V22.219H22.7689V25.0387ZM42.9295 34.978V0.860001H15.5787L6.27377 10.3764V29.1272C2.81967 29.3387 0 32.2289 0 35.8239C0 39.4895 3.03115 42.5207 6.69672 42.5207H36.3033C39.9689 42.5207 43 39.4895 43 35.8239C43 35.542 43 35.26 42.9295 34.978ZM9.09344 11.5043L16.777 3.67967H40.1803V30.3256C39.123 29.5502 37.7836 29.1272 36.3738 29.1272H9.09344V11.5043ZM30.8754 39.701H6.69672C4.58197 39.701 2.81967 37.9387 2.81967 35.8239C2.81967 33.7092 4.58197 31.9469 6.69672 31.9469H30.8754C30.1 33.0748 29.6066 34.3436 29.6066 35.8239C29.6066 37.3043 30.1 38.5731 30.8754 39.701ZM36.3033 39.701C34.1885 39.701 32.4262 37.9387 32.4262 35.8239C32.4262 33.7092 34.1885 31.9469 36.3033 31.9469C38.2066 31.9469 39.8279 33.3567 40.1098 35.1895V36.2469C39.8984 38.1502 38.2771 39.701 36.3033 39.701ZM14.0279 16.5797H35.1754V13.76H14.0279V16.5797Z" fill="#00448A"/>
</svg>
