<svg width="44" height="43" viewBox="0 0 44 43" fill="none" xmlns="http://www.w3.org/2000/svg">
<path d="M22.7987 31.268H36.5357V28.7123H22.7987V31.268ZM36.4718 22.8341H22.7987V25.3898H36.5357V22.8341H36.4718ZM43.5 13.3779H36.2801H10.8507L42.0305 5.07184L41.3915 2.58002L0.883358 13.3779H0.5V40.213H43.5V20.4062H40.9443V37.6573H3.05572V15.9337H36.2801H43.5V13.3779ZM5.29198 27.3066C5.29198 31.1402 8.42273 34.2071 12.1924 34.2071C15.9621 34.2071 19.0929 31.0763 19.0929 27.3066C19.0929 23.5369 15.9621 20.4062 12.1924 20.4062C8.42273 20.4062 5.29198 23.473 5.29198 27.3066ZM16.601 27.3066C16.601 29.7345 14.6204 31.6513 12.2563 31.6513C9.89227 31.6513 7.91159 29.6707 7.91159 27.3066C7.91159 24.9426 9.89227 22.9619 12.2563 22.9619C14.6204 22.9619 16.601 24.8787 16.601 27.3066Z" fill="#00448A"/>
</svg>
