<svg width="23" height="23" viewBox="0 0 23 23" fill="none" xmlns="http://www.w3.org/2000/svg">
<path d="M9.35256 -0.00012207C4.3141 -0.00012207 0.227783 4.12706 0.227783 9.21591C0.227783 14.3048 4.3141 18.4319 9.35256 18.4319C14.391 18.4319 18.4773 14.3048 18.4773 9.21591C18.4773 4.12706 14.391 -0.00012207 9.35256 -0.00012207ZM9.35256 16.8291C5.1869 16.8291 1.8147 13.4232 1.8147 9.21591C1.8147 5.00859 5.1869 1.60267 9.35256 1.60267C13.5182 1.60267 16.8904 5.00859 16.8904 9.21591C16.8904 13.4232 13.5182 16.8291 9.35256 16.8291ZM18.2393 17.0696L17.1285 18.1915L21.8892 22.9999L23.0001 21.8779L18.2393 17.0696Z" fill="#00448A"/>
</svg>
