<svg width="44" height="43" viewBox="0 0 44 43" fill="none" xmlns="http://www.w3.org/2000/svg">
<path d="M3.1875 4.83752H40.8125V24.8594H43.5V2.15002H0.5V31.0406H43.5V28.3531H3.1875V4.83752ZM22.6719 12.3625V13.0344C22.6719 12.4969 21.8656 12.2953 21.3281 12.2953C20.3875 12.2953 19.6484 12.6313 18.9766 13.3703C18.3047 14.1094 17.9016 15.1172 17.9016 16.1922C17.9016 17.2672 18.3047 18.275 18.9766 19.0141C19.6484 19.8203 20.3875 20.0891 21.3281 20.0891C21.7313 20.0891 21.8656 20.0891 22.2688 19.8875C22.4703 19.8203 22.8063 19.6188 22.9406 19.2828C23.0078 19.6188 23.075 19.8203 23.5453 20.2906C23.8813 20.6266 24.8219 20.8281 25.4937 20.8281C26.1656 20.8281 26.7703 20.6266 27.375 20.0219C27.7781 19.686 28.1141 19.1485 28.3828 18.5438C28.8531 17.4016 28.9875 15.9906 28.7859 14.5797C28.5844 13.5047 28.2484 12.4297 27.7109 11.4891C27.1734 10.6156 26.5016 9.8094 25.6953 9.13752C24.9562 8.53284 24.0156 8.12971 23.075 7.92815C22.6047 7.79377 22.1344 7.79377 21.5969 7.79377C21.1266 7.79377 20.7234 7.79377 20.1859 7.92815C19.2453 8.12971 18.2375 8.53284 17.4312 9.13752C16.625 9.67502 15.8859 10.4813 15.3484 11.3547C14.8109 12.2953 14.4078 13.3031 14.2063 14.311C13.9375 15.386 13.9375 16.5281 14.1391 17.6031C14.2734 18.6782 14.6766 19.7531 15.2141 20.761C15.7516 21.7016 16.4234 22.4406 17.2297 22.9781C17.9688 23.5828 18.9094 23.9188 19.85 24.1875C20.3203 24.3219 20.7906 24.3219 21.2609 24.3219C21.7312 24.3219 22.2016 24.3219 22.6719 24.1875C23.4109 24.0531 24.15 23.7844 24.8891 23.3813L23.6125 21.5672C23.1422 21.7688 22.7391 21.9031 22.3359 21.9703C22 22.0375 21.7313 22.1047 21.3953 22.1047C18.8422 22.1047 16.6922 20.0219 16.2891 17.2C16.0875 15.6547 16.3562 14.1766 17.1625 12.8328C17.9688 11.4891 19.1109 10.4141 20.5891 10.0781C20.925 10.011 21.2609 9.94377 21.5297 9.94377C24.0828 9.94377 26.2328 12.161 26.7031 14.9156C26.8375 15.8563 26.7703 16.7969 26.5016 17.3344C26.1656 18.0063 25.8297 18.2078 25.4937 18.3422C25.225 18.4094 24.6203 18.3422 24.6203 17.8047V12.161H22.6719V12.3625ZM21.3281 18.0063C20.5219 18.0063 20.0516 17.0656 20.0516 16.1922C20.0516 15.3188 20.5891 14.3781 21.3281 14.3781C22.1344 14.3781 22.5375 15.3188 22.5375 16.1922C22.5375 17.0656 22.1344 18.0063 21.3281 18.0063ZM34.0938 34.4H9.90625L8.69687 35.1391L6.68125 39.1703L7.89062 41.1188H36.1094L37.3187 39.1703L35.3031 35.1391L34.0938 34.4ZM10.0406 38.4313L10.7125 37.0875H33.2203L33.8922 38.4313H10.0406Z" fill="#00448A"/>
</svg>
