<svg width="102" height="48" viewBox="0 0 102 48" fill="none" xmlns="http://www.w3.org/2000/svg">
<rect x="4.59009" y="3.06" width="92.82" height="39.78" fill="white"/>
<path d="M70.1384 27.7453C70.1384 26.6227 69.2831 25.607 68.107 25.5535C66.7705 25.4466 65.7013 26.5692 65.8082 27.8522C65.9151 28.9749 66.8774 29.8837 68 29.8837H70.1384V27.7453Z" fill="#5C0F8B"/>
<path d="M0 47.5786H102V0H0V47.5786ZM48.3805 13.8994C49.717 13.8994 50.8396 14.9686 50.8396 16.3585C50.8396 17.695 49.7704 18.8176 48.3805 18.8176C47.044 18.8176 45.9214 17.7484 45.9214 16.3585C45.9214 15.022 47.044 13.8994 48.3805 13.8994ZM17.695 6.94969L18.7107 10.5314C18.978 11.5472 19.2453 12.5094 19.4591 13.5786H19.5126C19.7264 12.5629 19.9937 11.5472 20.261 10.5849L21.3302 6.94969H23.3616L20.5283 15.4497H18.283L15.6101 6.94969H17.695ZM14.9686 6.94969V8.55346H12.6698V15.3962H10.6918V8.60692H8.39308V6.94969H14.9686ZM16.4119 40.6824C15.1289 40.6824 14.1132 39.6667 14.1132 38.3836C14.1132 37.1006 15.1289 36.0849 16.4119 36.0849C17.695 36.0849 18.7107 37.1006 18.7107 38.3836C18.7107 39.6667 17.695 40.6824 16.4119 40.6824ZM21.5975 40.6824C20.3145 40.6824 19.2987 39.6667 19.2987 38.3836C19.2987 37.1006 20.3145 36.0849 21.5975 36.0849C22.8805 36.0849 23.8962 37.1006 23.8962 38.3836C23.8962 39.6667 22.8805 40.6824 21.5975 40.6824ZM31.8616 40.6824C30.5786 40.6824 29.5629 39.6667 29.5629 38.3836C29.5629 37.1006 30.5786 36.0849 31.8616 36.0849C33.1447 36.0849 34.1604 37.1006 34.1604 38.3836C34.1604 39.6667 33.1447 40.6824 31.8616 40.6824ZM58.805 28.0126C58.6447 31.4874 55.5975 34.2138 52.1226 34.2138H33.5189C33.3585 34.2138 33.1981 34.0535 33.1981 33.8931V25.9277C33.1981 25.7138 33.0377 25.5535 32.8239 25.5535H31.0063C30.7925 25.5535 30.6321 25.7138 30.6321 25.9277V33.8931C30.6321 34.0535 30.4717 34.2138 30.3113 34.2138H9.62264C9.46226 34.2138 9.30189 34.0535 9.30189 33.8931V30.2044C9.30189 30.044 9.46226 29.8836 9.62264 29.8836H26.3019V21.7044C26.3019 21.4371 26.5157 21.1698 26.8365 21.1698H36.9937C37.261 21.1698 37.5283 21.3836 37.5283 21.7044V29.8836H40.1478V27.7987C40.1478 27.5849 40.1478 27.4245 40.1478 27.2107V11.1195C40.1478 10.9591 40.3082 10.7987 40.4685 10.7987H44.1572C44.3176 10.7987 44.478 10.9591 44.478 11.1195V21.4906C45.066 21.2767 45.761 21.1698 46.456 21.1698H52.3365C55.9717 21.1698 59.0189 24.2704 58.805 28.0126ZM77.8899 40.6824C76.6069 40.6824 75.5912 39.6667 75.5912 38.3836C75.5912 37.1006 76.6069 36.0849 77.8899 36.0849C79.1729 36.0849 80.1887 37.1006 80.1887 38.3836C80.1887 39.6667 79.1729 40.6824 77.8899 40.6824ZM84.6792 33.8931C84.6792 34.0535 84.5189 34.2138 84.3585 34.2138H74.4686C74.4686 37.6887 71.7421 40.522 68.3208 40.6824C68.1604 40.6824 68 40.522 68 40.3616V36.673C68 36.5126 68.1069 36.3522 68.2673 36.3522C69.3365 36.1918 70.1384 35.283 70.1384 34.2138H68.0535C64.4717 34.2138 61.478 31.327 61.4245 27.7453C61.4245 24.1101 64.3648 21.1698 67.9465 21.2233C71.5283 21.2233 74.4151 24.217 74.4151 27.8522V29.9906H80.2956V23.2013C80.2956 23.0409 80.456 22.8805 80.6163 22.8805H84.305C84.4654 22.8805 84.6258 23.0409 84.6258 23.2013V33.8931H84.6792ZM85.5881 11.066C85.5881 11.0126 85.5881 11.0126 85.5881 10.9591C85.5881 10.9057 85.5881 10.9057 85.5881 10.8522C85.6415 8.92767 87.2453 7.37736 89.2233 7.37736H90.6667C90.7736 7.37736 90.8805 7.48428 90.8805 7.59119V9.4088C90.8805 9.51572 90.7736 9.62264 90.6667 9.62264H89.1698C89.1164 9.62264 89.1164 9.62264 89.0629 9.62264C88.3679 9.6761 87.8868 10.2642 87.8868 10.9591C87.8868 11.6541 88.4214 12.1887 89.0629 12.2956C89.1164 12.2956 89.1164 12.2956 89.1698 12.2956H90.6667C90.7736 12.2956 90.8805 12.4025 90.8805 12.5094V14.327C90.8805 14.434 90.7736 14.5409 90.6667 14.5409H89.2233C87.2453 14.5409 85.6415 12.9906 85.5881 11.066ZM91.1478 33.8931C91.1478 34.0535 90.9874 34.2138 90.827 34.2138H87.1384C86.978 34.2138 86.8176 34.0535 86.8176 33.8931V16.6792C86.8176 16.5189 86.978 16.3585 87.1384 16.3585H90.827C90.9874 16.3585 91.1478 16.5189 91.1478 16.6792V33.8931Z" fill="#5C0F8B"/>
<path d="M52.1761 25.5H46.4025C45.2798 25.5534 44.478 26.5691 44.478 27.6918V29.8302H52.283C53.4056 29.8302 54.4214 28.9748 54.4748 27.7987C54.5817 26.5157 53.4591 25.393 52.1761 25.5Z" fill="#5C0F8B"/>
</svg>
