<svg width="102" height="49" viewBox="0 0 102 49" fill="none" xmlns="http://www.w3.org/2000/svg">
<path d="M48.9644 26.0322H46.413V23.4808C46.413 22.1237 47.4444 20.9294 48.8015 20.8209C50.3758 20.7123 51.6786 22.0151 51.57 23.5894C51.5158 25.0008 50.3215 26.0322 48.9644 26.0322Z" fill="#9E005D"/>
<path fill-rule="evenodd" clip-rule="evenodd" d="M102 0.0299988H0V48.3429H102V0.0299988ZM63.3496 9.85547H58.9525C58.7354 9.85547 58.5726 10.0183 58.5726 10.2355V30.8092C58.5726 31.0263 58.7354 31.1892 58.9525 31.1892H63.3496C63.5667 31.1892 63.7296 31.0263 63.7296 30.8092V10.2355C63.7296 10.0183 63.5667 9.85547 63.3496 9.85547ZM78.115 15.3381H74.9665C74.7494 15.3381 74.5322 15.5009 74.4779 15.7724V19.8437C74.4779 20.1151 74.6951 20.3322 74.9665 20.3322H78.495C80.0149 20.4951 81.1549 21.7436 81.1549 23.2636C81.1549 24.7835 79.9606 26.0321 78.495 26.1949H74.9665C74.6951 26.1949 74.4779 26.4121 74.4779 26.6835V30.8091C74.4779 31.0805 74.6951 31.2976 74.9665 31.2976H78.115C82.5663 31.2976 86.149 27.8777 86.2033 23.5893V23.0464C86.149 18.7037 82.5663 15.3381 78.115 15.3381ZM48.9644 15.6639C44.6759 15.6639 41.256 19.2466 41.256 23.5351V26.0322H20.0852V10.2355C20.0852 10.0183 19.9224 9.85547 19.7052 9.85547H15.3082C15.0911 9.85547 14.9282 10.0183 14.9282 10.2355V30.8092C14.9282 31.0263 15.0911 31.1892 15.3082 31.1892H48.9101C53.1986 31.1892 56.7813 27.7692 56.7813 23.4808C56.7813 19.1381 53.3071 15.6639 48.9644 15.6639ZM64.1096 33.3604C65.4124 33.1976 66.3895 32.1119 66.3895 30.8091V15.6638C66.3895 15.4467 66.5524 15.2838 66.7695 15.2838H71.1665C71.3837 15.2838 71.5465 15.4467 71.5465 15.6638V30.7548C71.5465 34.9347 68.2352 38.3003 64.1639 38.5174C63.9467 38.5174 63.7839 38.3546 63.7839 38.1374V33.7404C63.7839 33.5233 63.8924 33.3604 64.1096 33.3604Z" fill="#9E005D"/>
</svg>
