<svg width="102" height="22" viewBox="0 0 102 22" fill="none" xmlns="http://www.w3.org/2000/svg">
<path d="M28.1321 5.18547H20.856V12.6628H17.0335V5.25253H13.4793V12.6628H9.72387V5.18547H5.49901C2.48126 5.18547 0 7.6332 0 10.6845C0 13.7022 2.48126 16.1835 5.49901 16.1835H33.6312V10.6845C33.6312 7.66673 31.1499 5.18547 28.1321 5.18547ZM6.16962 12.6628H5.49901C4.42604 12.6628 3.52071 11.791 3.52071 10.6845C3.52071 9.6115 4.3925 8.70618 5.49901 8.70618H6.16962V12.6628ZM24.4103 12.6628V8.73971H28.1321C29.2051 8.73971 30.1105 9.6115 30.1105 10.718V12.6628H24.4103Z" fill="#FDC300"/>
<path d="M68.4024 1.96659H64.8482V16.2171H68.4024V1.96659Z" fill="#FDC300"/>
<path d="M58.3767 12.6628H54.8895V5.28612H51.3353V16.1165C51.3353 17.1895 50.4635 18.0948 49.3569 18.0948V21.649C52.3747 21.649 54.8224 19.2348 54.856 16.2171H61.8974V1.96659H58.3431L58.3767 12.6628Z" fill="#FDC300"/>
<path d="M43.6904 12.6628H40.1697V1.96659H36.649V16.2171H47.2112V5.28612H43.6904V12.6628Z" fill="#FDC300"/>
<path d="M44.7298 18.43C43.791 18.43 43.0533 19.1677 43.0533 20.1066C43.0533 21.0454 43.791 21.7831 44.7298 21.7831C45.6687 21.7831 46.4063 21.0454 46.4063 20.1066C46.4063 19.2012 45.6687 18.43 44.7298 18.43Z" fill="#FDC300"/>
<path d="M40.7732 18.43C39.8344 18.43 39.0967 19.1677 39.0967 20.1066C39.0967 21.0454 39.8344 21.7831 40.7732 21.7831C41.7121 21.7831 42.4497 21.0454 42.4497 20.1066C42.4497 19.2012 41.6785 18.43 40.7732 18.43Z" fill="#FDC300"/>
<path d="M14.8876 18.43C13.9487 18.43 13.2111 19.1677 13.2111 20.1066C13.2111 21.0454 13.9487 21.7831 14.8876 21.7831C15.8265 21.7831 16.5641 21.0454 16.5641 20.1066C16.5641 19.2012 15.7929 18.43 14.8876 18.43Z" fill="#FDC300"/>
<path d="M22.6331 3.67659C23.572 3.67659 24.3096 2.93892 24.3096 2.00006C24.3096 1.06121 23.572 0.323533 22.6331 0.323533C21.6942 0.323533 20.9566 1.06121 20.9566 2.00006C20.9566 2.93892 21.7278 3.67659 22.6331 3.67659Z" fill="#FDC300"/>
<path d="M10.8974 18.43C9.95851 18.43 9.22084 19.1677 9.22084 20.1066C9.22084 21.0454 9.95851 21.7831 10.8974 21.7831C11.8362 21.7831 12.5739 21.0454 12.5739 20.1066C12.5739 19.2012 11.8362 18.43 10.8974 18.43Z" fill="#FDC300"/>
<path d="M8.04729 3.6431C8.98615 3.6431 9.72382 2.90542 9.72382 1.96657C9.72382 1.02771 8.98615 0.290039 8.04729 0.290039C7.10844 0.290039 6.37077 1.02771 6.37077 1.96657C6.37077 2.87189 7.10844 3.6431 8.04729 3.6431Z" fill="#FDC300"/>
<path d="M4.09081 3.6431C5.02967 3.6431 5.76734 2.90542 5.76734 1.96657C5.76734 1.02771 5.02967 0.290039 4.09081 0.290039C3.15195 0.290039 2.41428 1.02771 2.41428 1.96657C2.41428 2.87189 3.15195 3.6431 4.09081 3.6431Z" fill="#FDC300"/>
<path d="M87.3809 9.44376H85.5032C85.1343 9.47729 84.8661 9.77906 84.8661 10.1479V10.8185H87.3809C87.7497 10.8185 88.085 10.5503 88.085 10.1814C88.1521 9.74553 87.8168 9.41023 87.3809 9.44376Z" fill="black"/>
<path d="M92.5446 9.44382C92.1087 9.41029 91.7734 9.77912 91.8069 10.1815C91.8405 10.5503 92.1422 10.8186 92.5111 10.8186H93.1817V10.148C93.1817 9.77912 92.9134 9.44382 92.5446 9.44382Z" fill="black"/>
<path d="M71.5879 2V16.217H102V2H71.5879ZM86.1402 5.65483C86.5761 5.65483 86.9449 6.02367 86.9449 6.45957C86.9449 6.89546 86.5761 7.2643 86.1402 7.2643C85.7043 7.2643 85.3354 6.89546 85.3354 6.45957C85.369 6.02367 85.7043 5.65483 86.1402 5.65483ZM75.7792 14.3393C75.3768 14.3393 75.0415 14.0039 75.0415 13.6016C75.0415 13.1992 75.3768 12.8639 75.7792 12.8639C76.1816 12.8639 76.5169 13.1992 76.5169 13.6016C76.5504 14.0039 76.2151 14.3393 75.7792 14.3393ZM77.4893 14.3393C77.0869 14.3393 76.7516 14.0039 76.7516 13.6016C76.7516 13.1992 77.0869 12.8639 77.4893 12.8639C77.8916 12.8639 78.2269 13.1992 78.2269 13.6016C78.2269 14.0039 77.8916 14.3393 77.4893 14.3393ZM80.8088 14.3393C80.4064 14.3393 80.0711 14.0039 80.0711 13.6016C80.0711 13.1992 80.4064 12.8639 80.8088 12.8639C81.2112 12.8639 81.5465 13.1992 81.5465 13.6016C81.5465 14.0039 81.2112 14.3393 80.8088 14.3393ZM87.3473 12.2268H81.3118C81.2447 12.2268 81.2112 12.1933 81.2112 12.1262V9.54438C81.2112 9.47732 81.1441 9.41026 81.077 9.41026H80.507C80.44 9.41026 80.3729 9.47732 80.3729 9.54438V12.1262C80.3729 12.1933 80.3394 12.2268 80.2723 12.2268H73.5662C73.4991 12.2268 73.4656 12.1933 73.4656 12.1262V10.9527C73.4656 10.8856 73.4991 10.8521 73.5662 10.8521H78.9646V8.20316C78.9646 8.10257 79.0317 8.0355 79.1323 8.0355H82.4183C82.5189 8.0355 82.5859 8.10257 82.5859 8.20316V10.8521H83.4242V10.1815C83.4242 10.1144 83.4242 10.0473 83.4242 9.98028V4.78304C83.4242 4.71598 83.4577 4.68245 83.5248 4.68245H84.6983C84.7654 4.68245 84.7989 4.71598 84.7989 4.78304V8.1361C85.0001 8.06903 85.2013 8.0355 85.436 8.0355H87.3473C88.5544 8.0355 89.5267 9.04142 89.4597 10.2485C89.4597 11.355 88.4873 12.2268 87.3473 12.2268ZM95.6964 14.3393C95.294 14.3393 94.9587 14.0039 94.9587 13.6016C94.9587 13.1992 95.294 12.8639 95.6964 12.8639C96.0987 12.8639 96.434 13.1992 96.434 13.6016C96.4676 14.0039 96.0987 14.3393 95.6964 14.3393ZM97.9094 12.1262C97.9094 12.1933 97.8759 12.2268 97.8088 12.2268H94.6234C94.6234 13.3333 93.7516 14.2722 92.6116 14.3057C92.5445 14.3057 92.511 14.2722 92.511 14.2051V12.998C92.511 12.931 92.5445 12.8974 92.6116 12.8974C92.9469 12.8639 93.2151 12.5621 93.2151 12.1933H92.5445C91.3709 12.1933 90.3985 11.2544 90.3985 10.0809C90.3985 8.9073 91.3374 7.96844 92.511 7.96844C93.6845 7.96844 94.6234 8.94083 94.6234 10.1144V10.8185H96.5346V8.63905C96.5346 8.57199 96.5682 8.53846 96.6352 8.53846H97.8088C97.8759 8.53846 97.9094 8.57199 97.9094 8.63905V12.1262ZM98.2112 4.74951V4.68245C98.2112 4.04537 98.7477 3.57594 99.3847 3.57594H99.8542C99.8877 3.57594 99.9212 3.60947 99.9212 3.643V4.24655C99.9212 4.28008 99.8877 4.31361 99.8542 4.31361H99.3512C99.15 4.34714 98.9488 4.51479 98.9488 4.74951C98.9488 4.98422 99.1165 5.15187 99.3512 5.1854H99.8542C99.8877 5.1854 99.9212 5.21894 99.9212 5.25247V5.78895C99.9212 5.82249 99.8877 5.85602 99.8542 5.85602H99.3847C98.7477 5.88955 98.2112 5.38659 98.2112 4.74951ZM99.9883 12.1262C99.9883 12.1933 99.9548 12.2268 99.8877 12.2268H98.7141C98.6471 12.2268 98.6135 12.1933 98.6135 12.1262V6.56016C98.6135 6.4931 98.6471 6.45957 98.7141 6.45957H99.8877C99.9548 6.45957 99.9883 6.4931 99.9883 6.56016V12.1262Z" fill="black"/>
</svg>
