<svg width="102" height="33" viewBox="0 0 102 33" fill="none" xmlns="http://www.w3.org/2000/svg">
<path d="M52.895 21.3471H51.9475C51.7416 21.3471 51.5768 21.4296 51.4532 21.6358L48.1164 27.7823L44.7383 21.6358C44.6147 21.4296 44.45 21.3471 44.244 21.3471H43.2553C43.0493 21.3471 42.9257 21.4708 42.9257 21.6771V32.65C42.9257 32.8563 43.0493 32.98 43.2553 32.98H44.2028C44.4088 32.98 44.5324 32.8563 44.5324 32.65V24.6059L47.622 30.1337C47.828 30.5049 48.24 30.5049 48.4459 30.1337L51.5356 24.6059V32.65C51.5356 32.8563 51.6592 32.98 51.8652 32.98H52.8127C53.0186 32.98 53.1422 32.8563 53.1422 32.65V21.6771C53.2246 21.4708 53.101 21.3471 52.895 21.3471ZM40.4128 21.3471H34.5219C34.3159 21.3471 34.1923 21.4708 34.1923 21.6771V32.65C34.1923 32.8563 34.3159 32.98 34.5219 32.98H35.4693C35.6753 32.98 35.7989 32.8563 35.7989 32.65V27.7411H39.8361C40.042 27.7411 40.1656 27.6173 40.1656 27.4111V26.6273C40.1656 26.421 40.042 26.2973 39.8361 26.2973H35.8401V22.8321H40.4128C40.6188 22.8321 40.7424 22.7084 40.7424 22.5021V21.7183C40.7424 21.4708 40.6188 21.3471 40.4128 21.3471Z" fill="#00AE42"/>
<path d="M53.2246 4.47514H52.3183C52.1123 4.47514 51.9887 4.59889 51.9887 4.80515V14.9118C51.9887 15.118 52.1123 15.2418 52.3183 15.2418H53.2658C53.4718 15.2418 53.5953 15.118 53.5953 14.9118V4.80515C53.5953 4.59889 53.4717 4.47514 53.2246 4.47514ZM54.1721 2.78382H53.5953C53.0186 2.78382 52.7302 2.57756 52.7302 2.16505C52.7302 1.79378 52.9774 1.50502 53.5129 1.50502H54.0073C54.1309 1.50502 54.2133 1.42252 54.2133 1.29877V0.88625C54.2133 0.762496 54.1309 0.679993 54.0073 0.679993H53.4718C52.4007 0.679993 51.8239 1.25751 51.8239 2.04129C51.8239 2.2888 51.9063 2.53631 52.0711 2.78382H51.3296C51.206 2.78382 51.1236 2.86632 51.1236 2.99008V3.40259C51.1236 3.52635 51.206 3.60885 51.3296 3.60885H54.1309C54.2545 3.60885 54.3369 3.52635 54.3369 3.40259V2.99008C54.4192 2.86632 54.3369 2.78382 54.1721 2.78382ZM48.5695 16.8093C48.0339 16.8093 47.622 17.2219 47.622 17.7169C47.622 18.2532 48.0339 18.6657 48.5695 18.6657C49.0638 18.6657 49.4758 18.2532 49.4758 17.7169C49.517 17.2219 49.105 16.8093 48.5695 16.8093ZM49.5994 8.02277H48.6519C48.4459 8.02277 48.3223 8.14652 48.3223 8.35278V13.633H45.8094C45.3974 13.633 45.2327 13.7567 45.2327 14.4993C45.2327 15.1593 45.4386 15.283 45.8094 15.283H49.5994C49.8054 15.283 49.9289 15.1593 49.9289 14.953V8.35278C49.9289 8.14652 49.8054 8.02277 49.5994 8.02277ZM41.0307 13.6742C39.2181 13.6742 38.1058 12.8079 38.1058 11.2816C38.1058 9.83784 39.0945 8.97155 40.454 8.97155H42.1018V13.6742H41.0307ZM43.7084 13.6742V7.69276C43.7084 7.4865 43.5848 7.36274 43.3789 7.36274H40.9483C38.147 7.36274 36.4992 8.8478 36.4992 11.4054C36.4992 13.8805 38.3942 15.3243 41.0307 15.3243H42.1018V15.5306C42.1018 16.7681 41.6486 17.5106 39.8772 17.5106C39.0945 17.5106 38.4766 17.3869 37.9822 17.3044C37.7763 17.2631 37.6115 17.3456 37.5703 17.5931L37.4467 18.3769C37.4055 18.5832 37.4879 18.7482 37.6939 18.8307C38.1882 18.9957 38.8473 19.1194 39.5889 19.1194C42.2666 19.1194 43.7084 18.1707 43.7084 15.118V15.3243H45.8094V13.6742H43.7084ZM24.3877 13.6742V8.97155H28.0129C30.0315 8.97155 30.979 10.3741 30.979 12.8079V13.6742H24.3877ZM28.2189 7.32149H24.4289V4.47514C24.4289 4.26888 24.3053 4.14512 24.0994 4.14512H23.1519C22.9459 4.14512 22.8223 4.26888 22.8223 4.47514V13.633H20.7625C20.3506 13.633 20.1858 13.7567 20.1858 14.4993C20.1858 15.1593 20.3918 15.283 20.7625 15.283H32.2561C32.462 15.283 32.5856 15.1593 32.5856 14.953V12.2717C32.5856 9.63158 31.2674 7.32149 28.2189 7.32149ZM27.5186 5.30017C28.0129 5.30017 28.4249 4.88765 28.4249 4.35138C28.4249 3.85636 28.0129 3.44385 27.5186 3.44385C26.983 3.44385 26.5711 3.85636 26.5711 4.35138C26.5711 4.88765 26.983 5.30017 27.5186 5.30017ZM18.0436 16.8093C17.5081 16.8093 17.0961 17.2219 17.0961 17.7169C17.0961 18.2532 17.5081 18.6657 18.0436 18.6657C18.538 18.6657 18.9499 18.2532 18.9499 17.7169C18.9911 17.2219 18.5792 16.8093 18.0436 16.8093ZM20.5977 13.6742C19.6502 13.6742 18.8675 13.1792 18.8675 11.8179V8.35278C18.8675 8.14652 18.7439 8.02277 18.538 8.02277H17.5905C17.3845 8.02277 17.2609 8.14652 17.2609 8.35278V11.9829C17.2609 13.3855 16.6842 13.6742 15.4071 13.6742H14.5832C14.1712 13.6742 14.0065 13.798 14.0065 14.5405C14.0065 15.2005 14.2124 15.3243 14.5832 15.3243H15.5307C16.8078 15.3243 17.7553 14.9118 18.332 14.0455C18.7851 14.8293 19.4443 15.3243 20.5566 15.3243H20.7625V13.6742H20.5977ZM7.90953 20.5632C7.37399 20.5632 6.96204 20.9758 6.96204 21.4708C6.96204 22.007 7.37399 22.4196 7.90953 22.4196C8.40388 22.4196 8.81584 22.007 8.81584 21.4708C8.85703 20.9758 8.44508 20.5632 7.90953 20.5632ZM5.5202 20.5632C4.98465 20.5632 4.5727 20.9758 4.5727 21.4708C4.5727 22.007 4.98465 22.4196 5.5202 22.4196C6.01454 22.4196 6.4265 22.007 6.4265 21.4708C6.4265 20.9758 6.01454 20.5632 5.5202 20.5632ZM14.2536 13.6742C12.1939 13.6742 11.164 13.3855 9.35138 12.1479C9.18659 12.0242 9.02181 12.0654 8.89823 12.2304L8.36268 13.0142C8.2391 13.2205 8.28029 13.3855 8.44508 13.5092C9.1866 14.0867 10.0929 14.5818 11.2052 14.953C11.2052 15.0355 11.2464 15.2005 11.2464 15.3243C11.2464 16.6031 10.0929 17.4694 6.79726 17.4694C3.6664 17.4694 1.68902 16.6443 1.68902 14.623C1.68902 13.963 1.8126 13.2617 2.05977 12.4779C2.14217 12.2717 2.05977 12.1067 1.8538 12.0654L1.02989 11.8592C0.82391 11.8179 0.659128 11.9004 0.576737 12.1067C0.205977 12.8492 0 13.8392 0 14.788C0 17.4694 2.63651 19.0369 6.75606 19.0369C10.958 19.0369 12.8118 17.5519 12.8118 15.2005C13.1414 15.2418 13.4709 15.2418 13.8005 15.2418H14.5832V13.5917H14.2536V13.6742Z" fill="#00AE42"/>
<path d="M102 17.0157H63.8118V18.9545H102V17.0157Z" fill="#00AE42"/>
<path d="M92.6074 30.7524C91.4951 30.7524 90.5476 30.2162 89.9709 29.3086L87.7051 25.6785L87.046 26.3385C86.3869 26.9985 85.4394 27.3285 84.4507 27.246C83.5032 27.1223 82.6793 26.6273 82.1849 25.8435L75.4701 15.2006L71.5977 18.6245L70.0735 16.8919L74.2342 13.1793L73.8222 12.478C73.6575 12.1892 73.3691 12.148 73.2455 12.148C72.9571 12.1067 72.71 12.2305 72.5452 12.3955L72.4628 12.478L65.9127 18.5832L64.3473 16.8919L70.8974 10.8279C71.5565 10.1266 72.504 9.79663 73.4515 9.87914C74.4402 9.96164 75.3053 10.4979 75.7996 11.2817L76.0056 11.6117L76.9119 10.7867C77.6122 10.1679 78.5185 9.87914 79.466 10.0441C80.3723 10.1679 81.155 10.7042 81.6494 11.4467L88.1583 21.9658L93.1017 16.9744L94.7496 18.5832L89.4353 23.9459L91.9895 28.0298C92.1954 28.3598 92.5662 28.3598 92.6898 28.3598C92.8134 28.3598 93.1841 28.3186 93.3489 28.0298L99.693 17.1807L101.67 18.3357L95.3263 29.1849C94.7907 30.0924 93.8021 30.6699 92.6898 30.6699C92.6074 30.7524 92.6074 30.7524 92.6074 30.7524ZM77.2415 13.633L84.1623 24.6059C84.3271 24.8947 84.6155 24.936 84.739 24.936C84.9862 24.9772 85.2746 24.8947 85.4394 24.7297L86.4693 23.6984L79.672 12.7255C79.5484 12.5605 79.3836 12.4367 79.1365 12.3955C78.8893 12.3542 78.6421 12.4367 78.4361 12.6017L77.2415 13.633Z" fill="#00AE42"/>
</svg>
