<svg width="102" height="49" viewBox="0 0 102 49" fill="none" xmlns="http://www.w3.org/2000/svg">
<rect x="4.58984" y="3.09003" width="92.82" height="39.78" fill="white"/>
<path d="M63.241 28.5293H61.124V26.4122C61.124 25.2722 61.9925 24.2951 63.1325 24.1865C64.4353 24.078 65.521 25.1637 65.4667 26.5208C65.3581 27.6607 64.381 28.5293 63.241 28.5293Z" fill="#C1272D"/>
<path fill-rule="evenodd" clip-rule="evenodd" d="M0 0.0300293H102V48.343H0V0.0300293ZM19.3794 21.2008C19.3794 22.9922 17.9137 24.4579 16.1223 24.4579C14.2767 24.4579 12.811 22.9922 12.8653 21.2008C12.8653 19.4095 14.3309 17.9438 16.1223 17.9438C17.9137 17.9438 19.3794 19.4095 19.3794 21.2008ZM23.8307 24.4579C25.6221 24.4579 27.1421 22.9922 27.1421 21.1465C27.1421 19.3552 25.6764 17.8352 23.8307 17.8352C22.0394 17.8352 20.5194 19.3009 20.5194 21.1465C20.5737 22.9922 22.0394 24.4579 23.8307 24.4579ZM89.949 14.9582H93.6403C93.8574 14.9582 93.966 15.1211 93.966 15.2839V32.492C93.966 32.6549 93.8032 32.8177 93.6403 32.8177H89.949C89.7861 32.8177 89.6233 32.6549 89.6233 32.492V15.2839C89.6233 15.1211 89.7861 14.9582 89.949 14.9582ZM87.1804 14.9582H83.4891C83.3263 14.9582 83.1634 15.1211 83.1634 15.2839V28.5293H79.9064V21.798C79.9064 21.6352 79.7435 21.4723 79.5807 21.4723H75.8893C75.7265 21.4723 75.5636 21.6352 75.5636 21.798V28.5293H72.4694C72.3066 28.5293 72.1437 28.6921 72.1437 28.855V32.5463C72.1437 32.7092 72.3066 32.872 72.4694 32.872H87.1262C87.289 32.872 87.4519 32.7092 87.4519 32.5463V15.2839C87.5061 15.1211 87.3976 14.9582 87.1804 14.9582ZM35.4476 15.0125H39.1389C39.3018 15.0125 39.4646 15.1754 39.4646 15.3382V32.492C39.4646 32.6549 39.3018 32.8177 39.1389 32.8177H35.4476C35.2847 32.8177 35.1219 32.6549 35.1219 32.492V15.3382C35.1219 15.1754 35.2847 15.0125 35.4476 15.0125ZM31.5933 28.5293H8.3597C8.19685 28.5293 8.03399 28.6921 8.03399 28.855V32.5463C8.03399 32.7091 8.19685 32.872 8.3597 32.872H31.5933C31.7562 32.872 31.919 32.7091 31.919 32.5463V28.855C31.919 28.6378 31.7562 28.5293 31.5933 28.5293ZM78.3321 35.0433H79.7435C79.8521 35.0433 79.9606 35.0976 79.9606 35.2605V37.1061C79.9606 37.2147 79.8521 37.3233 79.7435 37.3233H78.115C77.4636 37.3776 76.9207 37.9204 76.9207 38.6261C76.9207 39.2775 77.4636 39.8746 78.115 39.9289H79.7435C79.8521 39.9289 79.9606 40.0375 79.9606 40.1461V41.9917C79.9606 42.1003 79.8521 42.2089 79.7435 42.2089H78.3321C76.3236 42.2089 74.7494 40.6889 74.6951 38.7347V38.5175C74.6951 36.5633 76.3236 35.0433 78.3321 35.0433ZM63.241 19.8438C59.6583 19.8438 56.7812 22.8294 56.7812 26.4665V28.5293H54.6099V15.2839C54.6099 15.1211 54.447 14.9582 54.2842 14.9582H50.5928C50.43 14.9582 50.2671 15.1211 50.2671 15.2839V32.5463C50.2671 32.7092 50.43 32.872 50.5928 32.872H63.1868C66.7695 32.872 69.7552 29.995 69.8094 26.4122C69.8094 22.7752 66.8781 19.8438 63.241 19.8438ZM40.8216 39.3861C41.9073 39.2233 42.7216 38.3004 42.7216 37.2147V24.5122C42.7216 24.3494 42.8845 24.1865 43.0473 24.1865H46.7386C46.9015 24.1865 47.0643 24.3494 47.0643 24.5122V37.2147C47.0643 40.6889 44.2958 43.566 40.8759 43.7289C40.7131 43.7289 40.5502 43.566 40.5502 43.4031V39.7118C40.5502 39.549 40.6588 39.3861 40.8216 39.3861Z" fill="#C1272D"/>
</svg>
