<svg width="102" height="38" viewBox="0 0 102 38" fill="none" xmlns="http://www.w3.org/2000/svg">
<path d="M94.7227 3.76872V37.7491L102 35.519V1.42119L94.7227 3.76872Z" fill="#139FDA"/>
<path d="M70.0737 12.5719V27.3027L76.8815 25.0725V10.4005L70.0737 12.5719Z" fill="#139FDA"/>
<path d="M26.5857 3.82732L33.8631 1.53848V30.5304C33.8631 30.5304 50.2371 30.5304 50.7653 30.5304C51.5869 30.5304 51.8216 29.7088 51.1761 29.3567C49.8849 28.5937 39.9666 23.5465 39.9666 23.5465C39.9666 23.5465 41.2578 18.6167 51.2348 11.8676C57.5144 7.64205 69.3107 6.35091 65.2025 14.7433C64.3222 16.6213 61.4465 19.5557 61.0357 19.497C61.0944 19.497 60.977 18.2646 60.977 18.1472C60.8596 17.5017 60.5075 16.9148 59.9793 16.504C59.3924 15.9758 58.5708 15.6823 57.8078 15.5649C55.3429 15.0954 52.6433 15.8584 50.4131 16.8561C49.4741 17.2669 48.5351 17.7951 47.7135 18.4407C47.6548 18.4994 46.7158 19.321 46.6571 19.321C46.6571 19.321 56.2233 23.3705 57.0449 23.84C58.16 24.4855 58.3947 25.6006 57.2796 27.3026C55.6364 29.8262 52.702 33.1714 50.061 35.5189C47.5374 37.573 42.8424 37.7491 38.4407 37.7491C35.0368 37.7491 26.6444 37.7491 26.6444 37.7491V3.82732H26.5857Z" fill="#139FDA"/>
<path d="M54.0518 7.81821H43.7227L46.1876 0.893013H56.5754L54.0518 7.81821Z" fill="#139FDA"/>
<path d="M17.313 12.9827L11.7963 18.7929C11.7963 18.7929 17.1369 25.9528 18.4281 27.8308C18.8389 28.4764 18.9563 28.7698 18.9563 28.8872C18.9563 29.122 18.7215 29.2393 18.4868 29.3567C15.6697 30.4718 4.4603 30.4718 2.23015 30.5305L0 37.7491H8.9206C10.9747 37.7491 14.3786 37.5144 16.7261 36.1645C19.4258 34.6386 21.7733 31.8216 23.5926 29.3567C24.2382 28.5351 24.5903 27.8308 24.5316 26.7744C24.473 25.7181 24.1208 24.603 23.71 23.664C22.8884 21.7273 21.7733 19.9666 20.6582 18.206C19.5432 16.4453 18.3107 14.5673 17.313 12.9827Z" fill="#139FDA"/>
<path d="M89.6754 0.130005L82.8676 2.36015C82.8676 2.36015 82.7502 28.0069 82.7502 28.7111C82.7502 30.4718 81.2243 30.5305 81.2243 30.5305H62.7376L60.39 37.8078C63.6179 37.8078 69.0172 37.8078 72.245 37.8078C75.9424 37.8078 79.0529 36.458 81.8699 33.9931C84.0414 32.115 85.8607 29.8262 87.6214 27.4787C89.3233 25.2485 89.7341 22.901 89.7341 20.1427C89.7341 15.741 89.6754 2.94704 89.6754 0.130005Z" fill="#139FDA"/>
</svg>
