<svg width="102" height="35" viewBox="0 0 102 35" fill="none" xmlns="http://www.w3.org/2000/svg">
<path d="M101.902 28.3932C101.852 28.3932 101.852 28.3932 101.902 28.3932C98.8002 31.9376 94.2712 34.202 89.2008 34.202C82.9488 34.202 77.4353 30.7561 74.5801 25.6856C74.5309 25.5872 74.4817 25.5379 74.4324 25.4395C74.2847 25.1441 74.1371 24.8487 74.0386 24.5534C74.0386 24.5042 73.9894 24.5042 73.9894 24.4549C73.5463 23.3719 73.3002 22.1412 73.3002 20.9105C73.3002 16.1354 76.8938 12.1972 81.5212 11.6557C80.4875 13.1818 79.8967 15.0032 79.8967 16.9231C79.8967 19.1876 80.6844 21.3043 82.0627 22.9289C82.112 23.0273 82.2104 23.0765 82.2597 23.175C85.0656 26.3256 89.693 27.2117 93.4836 25.341C93.8282 25.1933 94.1236 24.9964 94.4681 24.7995C95.305 24.258 95.9942 23.6181 96.5849 22.8796L101.902 28.3932ZM101.902 28.3932C102.197 28.0486 101.655 28.7377 101.902 28.3932Z" fill="#5C0F8B"/>
<path d="M86.3456 7.17598C88.5608 7.17598 90.6776 7.61903 92.6467 8.35744C92.7944 8.40667 92.9421 8.4559 93.0898 8.50513C93.139 8.50513 93.1882 8.55435 93.1882 8.55435C93.3359 8.60358 93.4344 8.65281 93.582 8.75126C94.2712 9.04663 94.9112 9.39123 95.5019 9.78505L100.769 4.51767C95.1573 -0.50356 86.6409 -1.38966 80.0444 2.89316C76.057 5.50223 73.4971 9.48968 72.611 13.8217L72.6602 13.7725C75.86 9.73582 80.7828 7.17598 86.3456 7.17598Z" fill="#5C0F8B"/>
<path d="M59.1225 18.203H57.941C57.6949 18.203 57.4488 18.3507 57.3011 18.5969L53.166 26.1287L49.0308 18.5969C48.8831 18.3507 48.6862 18.203 48.3909 18.203H47.2586C47.0125 18.203 46.8648 18.3507 46.8648 18.5969V32.036C46.8648 32.2822 47.0125 32.4299 47.2586 32.4299H48.4401C48.6862 32.4299 48.8339 32.2822 48.8339 32.036V22.1905L52.6244 28.9347C52.8706 29.3777 53.4121 29.3777 53.6582 28.9347L57.4488 22.1905V32.036C57.4488 32.2822 57.5965 32.4299 57.8426 32.4299H59.0241C59.2702 32.4299 59.4179 32.2822 59.4179 32.036V18.5969C59.5163 18.3507 59.3687 18.203 59.1225 18.203ZM43.7634 18.203H36.5762C36.33 18.203 36.1824 18.3507 36.1824 18.5969V32.036C36.1824 32.2822 36.33 32.4299 36.5762 32.4299H37.7576C38.053 32.4299 38.1515 32.2822 38.1515 32.036V25.981H43.1235C43.3696 25.981 43.5173 25.8333 43.5173 25.5872V24.6519C43.5173 24.4057 43.3696 24.2581 43.1235 24.2581H38.2007V20.0245H43.8127C44.0588 20.0245 44.2065 19.8768 44.2065 19.6306V18.6953C44.2065 18.3507 44.0588 18.203 43.7634 18.203Z" fill="#5C0F8B"/>
<path d="M56.612 15.5447C58.6303 15.5447 59.861 14.6586 60.7471 13.4771C60.8948 13.231 60.8948 13.0341 60.6486 12.8372L59.9595 12.2957C59.7625 12.148 59.5656 12.148 59.418 12.3449C58.6303 13.2802 57.8919 13.8217 56.612 13.8217C54.6429 13.8217 53.5598 12.3449 53.5598 10.1297C53.5598 7.96364 54.5444 6.43757 56.5627 6.43757C57.7934 6.43757 58.5811 7.02831 59.1226 7.76673C59.2703 7.96364 59.4672 8.01286 59.6641 7.86518L60.4517 7.27445C60.6486 7.12676 60.6979 6.88063 60.5994 6.68371C59.8118 5.45302 58.4826 4.66537 56.5627 4.66537C53.5106 4.66537 51.5415 6.92985 51.5415 10.1297C51.5415 13.1326 53.3137 15.5447 56.612 15.5447ZM47.8986 15.2493H49.0309C49.277 15.2493 49.4247 15.1017 49.4247 14.8555V5.30534C49.4247 5.0592 49.277 4.91151 49.0309 4.91151H47.8986C47.6033 4.91151 47.5048 5.0592 47.5048 5.30534V14.8555C47.4556 15.1017 47.6033 15.2493 47.8986 15.2493ZM48.4402 3.43468C49.277 3.43468 49.7693 2.84395 49.7693 2.10553C49.7693 1.41634 49.2278 0.776379 48.4402 0.776379C47.6525 0.776379 47.111 1.36711 47.111 2.10553C47.111 2.84395 47.6525 3.43468 48.4402 3.43468ZM41.5483 15.5447C44.0589 15.5447 45.5849 14.0187 45.5849 12.2465C45.5849 8.35746 39.6284 9.88352 39.6284 7.66827C39.6284 6.88063 40.416 6.38835 41.5975 6.38835C42.6313 6.38835 43.4189 6.78217 44.2066 7.47136C44.4035 7.66827 44.6004 7.66827 44.7973 7.47136L45.388 6.8314C45.5849 6.63449 45.5849 6.43757 45.388 6.19144C44.6004 5.30534 43.3697 4.7146 41.5975 4.7146C38.89 4.7146 37.6593 6.4868 37.6593 7.81595C37.6593 11.8034 43.6158 10.1789 43.6158 12.3941C43.6158 13.1818 42.9266 13.8217 41.5975 13.8217C40.4652 13.8217 39.5792 13.3787 38.7423 12.5418C38.5454 12.3449 38.3485 12.3449 38.2008 12.5418L37.4131 13.2802C37.2654 13.4771 37.2654 13.6741 37.4131 13.871C38.4469 14.8555 39.7268 15.5447 41.5483 15.5447ZM32.2934 15.5447C34.8041 15.5447 36.3301 14.0187 36.3301 12.2465C36.3301 8.35746 30.3736 9.88352 30.3736 7.66827C30.3736 6.88063 31.1612 6.38835 32.3427 6.38835C33.3764 6.38835 34.1641 6.78217 34.9517 7.47136C35.1486 7.66827 35.3456 7.66827 35.5425 7.47136L36.1332 6.8314C36.3301 6.63449 36.3301 6.43757 36.1332 6.19144C35.3456 5.30534 34.1149 4.7146 32.3427 4.7146C29.6351 4.7146 28.4044 6.4868 28.4044 7.81595C28.4044 11.8034 34.361 10.1789 34.361 12.3941C34.361 13.1818 33.6718 13.8217 32.3427 13.8217C31.2104 13.8217 30.3243 13.3787 29.4875 12.5418C29.2905 12.3449 29.0936 12.3449 28.9459 12.5418L28.2568 13.3295C28.1091 13.5264 28.1091 13.7233 28.2568 13.9202C29.2413 14.8555 30.472 15.5447 32.2934 15.5447ZM21.4633 13.871C20.2326 13.871 19.5927 13.3295 19.5927 12.3941C19.5927 11.2127 20.3803 10.6219 22.694 10.5727H24.4662V11.065C24.4662 12.9849 22.8909 13.871 21.4633 13.871ZM22.0048 4.61615C20.2326 4.61615 18.9527 5.35456 18.2143 6.09298C18.0174 6.28989 18.0174 6.4868 18.2143 6.68371L18.7558 7.32368C18.9035 7.52059 19.1496 7.56981 19.3465 7.3729C20.0849 6.8314 20.8234 6.38835 22.0541 6.38835C23.6786 6.38835 24.4662 7.27445 24.4662 8.65282V8.94819H22.5956C19.1496 8.94819 17.6236 10.2281 17.6236 12.3449C17.6236 14.4617 19.1004 15.4955 21.168 15.4955C22.5463 15.4955 23.777 15.0032 24.5647 13.7725V14.8063C24.5647 15.0524 24.7124 15.2001 24.9585 15.2001H26.0415C26.2876 15.2001 26.4353 15.0524 26.4353 14.8063V8.70205C26.4353 6.28989 24.8108 4.61615 22.0048 4.61615ZM14.1284 15.2493H15.2606C15.5068 15.2493 15.6544 15.1017 15.6544 14.8555V1.41634C15.6544 1.1702 15.5068 1.02252 15.2606 1.02252H14.1284C13.8822 1.02252 13.7346 1.1702 13.7346 1.41634V14.8555C13.7346 15.1017 13.8822 15.2493 14.1284 15.2493ZM6.49807 15.5447C8.81178 15.5447 10.7317 14.314 11.7654 12.4434C11.9131 12.1972 11.8147 12.0003 11.6178 11.8526L10.8301 11.3111C10.584 11.1634 10.4363 11.2127 10.2886 11.4588C9.45174 12.8864 8.27027 13.7233 6.59652 13.7233C3.79054 13.7233 2.16602 11.4588 2.16602 8.20977C2.16602 5.00997 3.79054 2.69626 6.59652 2.69626C8.12259 2.69626 9.30405 3.43468 9.99324 4.7146C10.1409 4.96074 10.2886 5.00997 10.5347 4.86229L11.4701 4.27155C11.7162 4.12387 11.7654 3.92696 11.6178 3.68082C10.5347 1.85939 8.861 0.825607 6.5473 0.825607C2.60907 0.776379 0 3.8285 0 8.16055C0 12.2465 2.46139 15.5447 6.49807 15.5447Z" fill="#5C0F8B"/>
</svg>
