<svg width="102" height="40" viewBox="0 0 102 40" fill="none" xmlns="http://www.w3.org/2000/svg">
<path d="M82.6457 21.7251C81.6592 21.7251 80.8606 20.926 80.8606 19.9389C80.8606 18.9518 81.6592 18.1527 82.6457 18.1527C83.6322 18.1527 84.4308 18.9518 84.4308 19.9389C84.4778 20.926 83.6322 21.7251 82.6457 21.7251ZM86.3099 0.949033L84.6187 0.620001L84.4778 15.6145C83.9141 15.3794 83.3034 15.2384 82.6457 15.2384C80.062 15.2384 77.948 17.3536 77.948 19.9389C77.948 22.5241 80.062 24.6393 82.6457 24.6393C85.2294 24.6393 87.2964 22.5241 87.3433 19.9859L87.4373 10.397C91.0075 12.1831 93.3563 15.8495 93.3563 19.9859C93.3563 25.9085 88.5647 30.7029 82.6457 30.7029C76.7266 30.7029 71.9351 25.9085 71.9351 19.9859C71.9351 17.0716 73.0625 14.3453 75.1764 12.3241L73.1564 10.2559C70.5258 12.8412 69.0695 16.2725 69.0695 19.9859C69.0695 27.4596 75.1764 33.5702 82.6457 33.5702C90.1149 33.5702 96.2219 27.4596 96.2219 19.9859C96.2219 14.2983 92.6517 9.26885 87.4373 7.29465L87.4843 4.28636C94.2959 6.35456 99.0875 12.7002 99.0875 19.9859C99.0875 29.0108 91.7121 36.3905 82.6927 36.3905C73.6262 36.2965 66.2509 28.9168 66.2509 19.8919C66.2509 15.4264 67.989 11.29 71.1834 8.18774L69.1634 6.11954C65.4053 9.7859 63.3853 14.6744 63.3853 19.8919C63.3853 30.5149 72.029 39.1638 82.6927 39.1638C93.3093 39.1638 102 30.5149 102 19.8919C101.953 10.632 95.3763 2.6882 86.3099 0.949033Z" fill="#FAA31A"/>
<path d="M52.1438 23.6523H50.8755C50.5936 23.6523 50.3587 23.7933 50.2178 24.0283L45.849 32.0191L41.4802 24.0283C41.3393 23.7933 41.1044 23.6523 40.8225 23.6523H39.5542C39.2723 23.6523 39.1314 23.7933 39.1314 24.0753V38.3177C39.1314 38.5998 39.2723 38.7408 39.5542 38.7408H40.8225C41.1044 38.7408 41.2453 38.5998 41.2453 38.3177V27.8827L45.2853 35.0744C45.5671 35.5445 46.0839 35.5445 46.3657 35.0744L50.4057 27.8827V38.3177C50.4057 38.5998 50.5467 38.7408 50.8285 38.7408H52.0969C52.3787 38.7408 52.5197 38.5998 52.5197 38.3177V24.0753C52.5666 23.7933 52.4257 23.6523 52.1438 23.6523ZM35.89 23.6523H28.2798C27.9979 23.6523 27.857 23.7933 27.857 24.0753V38.3177C27.857 38.5998 27.9979 38.7408 28.2798 38.7408H29.5482C29.83 38.7408 29.971 38.5998 29.971 38.3177V31.9251H35.2323C35.5142 31.9251 35.6551 31.7841 35.6551 31.5021V30.468C35.6551 30.1859 35.5142 30.0449 35.2323 30.0449H29.971V25.5325H35.89C36.1718 25.5325 36.3128 25.3915 36.3128 25.1094V24.0753C36.3598 23.7933 36.1718 23.6523 35.89 23.6523Z" fill="#FAA31A"/>
<path d="M53.929 19.7038H53.1774C52.4257 19.7038 52.0499 19.4218 52.0499 18.9048C52.0499 18.4347 52.3788 18.1057 53.0834 18.1057H53.7411C53.929 18.1057 54.0229 18.0117 54.0229 17.8237V17.2596C54.0229 17.0716 53.929 16.9776 53.7411 16.9776H53.0364C51.6272 16.9776 50.8755 17.7767 50.8755 18.7638C50.8755 19.0928 50.9695 19.4218 51.2044 19.7038H50.2648C50.0769 19.7038 49.983 19.7979 49.983 19.9859V20.5499C49.983 20.7379 50.0769 20.832 50.2648 20.832H53.929C54.1169 20.832 54.2109 20.7379 54.2109 20.5499V19.9859C54.2109 19.8449 54.1169 19.7038 53.929 19.7038ZM51.4862 15.7555H52.7076C52.9895 15.7555 53.1304 15.6144 53.1304 15.3324V1.70109C53.1304 1.41906 52.9895 1.27805 52.7076 1.27805H51.4862C51.2044 1.27805 51.0634 1.41906 51.0634 1.70109V15.2854C51.0165 15.6144 51.2044 15.7555 51.4862 15.7555ZM44.1109 13.6403C42.1379 13.6403 41.1984 12.7002 41.1984 10.632C41.1984 8.79878 42.2788 7.57666 44.1109 7.57666C45.896 7.57666 46.9765 8.79878 46.9765 10.632C46.9765 12.7002 46.037 13.6403 44.1109 13.6403ZM44.1109 5.41445C41.0105 5.41445 39.0844 7.52966 39.0844 10.632C39.0844 11.8071 39.3663 12.7942 39.93 13.6403H37.3933C36.8765 13.6403 36.6417 13.8283 36.6417 14.7214C36.6417 15.5674 36.8765 15.7555 37.3933 15.7555H43.876C47.3993 15.7555 49.0904 13.8753 49.0904 10.679C49.0904 7.43565 47.2114 5.41445 44.1109 5.41445ZM37.3933 15.7555V13.6403C36.031 13.6403 34.9505 13.0762 34.9505 11.243V1.70109C34.9505 1.41906 34.8096 1.27805 34.5277 1.27805H33.3063C33.0245 1.27805 32.8835 1.41906 32.8835 1.70109V11.9481C32.8366 14.6744 34.9975 15.7555 37.3933 15.7555ZM30.018 6.30754H28.7966C28.5147 6.30754 28.3738 6.44855 28.3738 6.73058V16.1315C28.3738 17.7297 27.998 18.5287 26.0719 18.5287H25.978C25.6961 18.5287 25.5552 18.6697 25.5552 18.9518V20.1739C25.5552 20.4559 25.6961 20.5969 25.978 20.5969C29.1254 20.5969 30.4877 19.4688 30.4877 15.5674V6.73058C30.4408 6.44855 30.2998 6.30754 30.018 6.30754ZM22.1259 15.7555H23.3473C23.6292 15.7555 23.7701 15.6144 23.7701 15.3324V1.70109C23.7701 1.41906 23.6292 1.27805 23.3473 1.27805H22.1259C21.8441 1.27805 21.7031 1.41906 21.7031 1.70109V15.2854C21.7031 15.6144 21.8441 15.7555 22.1259 15.7555ZM18.8376 6.30754H17.6162C17.3343 6.30754 17.1934 6.44855 17.1934 6.73058V13.5933H6.05997C3.52324 13.5933 2.06697 12.8412 2.06697 11.055C2.06697 10.4439 2.25487 9.36284 2.44278 8.37574C2.48975 8.09371 2.3958 7.90569 2.06697 7.85869L1.03348 7.62367C0.751624 7.57666 0.563718 7.67067 0.469765 7.9527C0.281859 8.89279 0 10.0679 0 11.055C0 14.2983 2.3958 15.7085 5.87206 15.7085H18.8376C19.1194 15.7085 19.2604 15.5674 19.2604 15.2854V6.73058C19.3073 6.44855 19.1194 6.30754 18.8376 6.30754ZM11.2274 5.64947C11.885 5.64947 12.4018 5.13242 12.4018 4.42735C12.4018 3.76929 11.885 3.25224 11.2274 3.25224C10.5227 3.25224 10.006 3.76929 10.006 4.42735C10.006 5.13242 10.5227 5.64947 11.2274 5.64947ZM8.07995 5.64947C8.73763 5.64947 9.25437 5.13242 9.25437 4.42735C9.25437 3.76929 8.73763 3.25224 8.07995 3.25224C7.37531 3.25224 6.85857 3.76929 6.85857 4.42735C6.85857 5.13242 7.37531 5.64947 8.07995 5.64947Z" fill="#FAA31A"/>
</svg>
