<svg width="102" height="57" viewBox="0 0 102 57" fill="none" xmlns="http://www.w3.org/2000/svg">
<path d="M55.7785 10.6229L57.5451 3.29578L0 15.4593V53.5718L46.2215 43.8988L44.4549 51.2259L102 39.0624V0.949951L55.7785 10.6229ZM3.4753 49.2566V18.2975L55.0545 7.40821L53.983 11.8682L47.1193 40.1339L3.4753 49.2566ZM98.5247 36.2242L46.9455 47.1135L48.017 42.6246L54.8518 14.3878L98.4957 5.26511L98.5247 36.2242Z" fill="#191938"/>
<path d="M7.90649 21.8308L13.467 20.6434V29.2158H13.5249L17.6663 19.7746L23.5743 18.5292L18.1876 29.4185L24.2114 40.7132L17.869 42.0744L14.6254 34.979L13.467 37.0931V43.0011L7.90649 44.1885V21.8308Z" fill="#E71C18"/>
<path d="M30.3509 17.0522L37.3305 15.5752L42.5145 36.8035L36.6065 38.0488L36.0273 34.2549L31.5963 35.1817L31.017 39.2072L25.109 40.4525L30.3509 17.0522ZM33.6814 20.904H33.6235L32.0886 30.7217L35.1874 30.0556L33.6814 20.904Z" fill="#E71C18"/>
<path d="M64.4089 16.7047L71.3884 15.2277L76.5724 36.456L70.6644 37.7013L70.0852 33.9074L65.6542 34.8342L65.075 38.8597L59.167 40.105L64.4089 16.7047ZM67.9421 20.5275H67.8842L66.3493 30.3452L69.4481 29.6791L67.9421 20.5275Z" fill="#E71C18"/>
<path d="M93.949 32.8069L88.3885 33.9653V28.0573L87.2301 26.4355L83.9864 34.8921L77.644 36.2243L83.6968 22.381L78.3101 13.7507L84.2181 12.5054L88.3306 20.2379H88.3885V11.6655L93.949 10.5071V32.8069Z" fill="#E71C18"/>
<path d="M54.678 15.1988C54.2435 15.1409 53.7512 15.1409 53.201 15.1988C52.8534 15.2278 52.4769 15.2857 52.1004 15.3726L44.0204 17.0812V39.41L47.4957 38.657L49.5809 30.0557V20.0642L50.6814 19.8325C51.2606 19.7167 51.724 19.6877 52.0425 19.8325C52.5638 20.0642 52.8245 20.7303 52.9693 22.1204C53.0561 23.1051 53.0851 24.4663 53.0851 26.2908C53.0851 32.3436 52.8245 33.3283 50.6524 33.7916L50.1021 33.9075L49.0306 38.3385L52.0715 37.7013C58.5008 36.3402 58.8194 30.9535 58.8194 25.1034C58.8483 20.1801 58.5877 15.6622 54.678 15.1988Z" fill="#E71C18"/>
<path d="M93.7754 43.1749L96.5556 42.5957V43.6962L94.9917 44.0148V44.8836L96.4687 44.565V45.6076L94.9917 45.9262V48.0403L93.7754 48.301V43.1749Z" fill="#191938"/>
<path d="M97.4243 42.393L99.1909 42.0165L99.7122 44.9415L100.176 41.8137L101.942 41.4373L101.971 46.5633L100.813 46.795L100.784 42.9722L100.147 46.9398L99.2488 47.1136L98.5827 43.4356L98.6117 47.2584L97.4533 47.4901L97.4243 42.393Z" fill="#191938"/>
<path d="M43.9048 56.2651C43.9048 56.5548 44.0785 56.6996 44.3392 56.6416C44.7157 56.5548 44.8894 56.1493 44.8894 55.1936C44.8025 55.5122 44.5998 55.7438 44.3102 55.8018C43.8468 55.8886 43.5862 55.5701 43.5862 55.0488C43.5862 54.4985 43.8179 54.0062 44.3392 53.8904C44.9473 53.7745 45.1211 54.2089 45.1211 55.1357C45.1211 56.0914 44.9473 56.7285 44.3102 56.8733C43.8758 56.9602 43.6441 56.7285 43.6441 56.3231L43.9048 56.2651ZM44.3392 55.599C44.7157 55.5122 44.8315 55.1067 44.8315 54.7592C44.8315 54.4116 44.6867 54.0352 44.3392 54.122C43.9627 54.2089 43.8468 54.6144 43.8468 54.9619C43.8468 55.3094 43.9627 55.657 44.3392 55.599Z" fill="#191938"/>
<path d="M45.3528 53.7167L46.8587 53.3981V53.6298C46.2795 54.5276 45.9609 55.686 45.903 56.4969L45.6424 56.5548C45.6713 55.7439 46.1057 54.4986 46.627 53.6877L45.3528 53.9484V53.7167Z" fill="#191938"/>
<path d="M47.2931 55.7728L47.5538 55.7149V56.1493L47.2931 56.2072V55.7728Z" fill="#191938"/>
<path d="M48.5095 54.2958L48.6253 54.2668C48.9439 54.2089 49.1466 53.9483 49.1466 53.6007C49.1466 53.2532 49.0018 53.0794 48.7122 53.1374C48.4515 53.1953 48.2488 53.427 48.2488 53.8324L48.0171 53.8904C48.0171 53.398 48.2488 53.0215 48.7412 52.9346C49.1466 52.8478 49.4362 53.0505 49.4362 53.5139C49.4362 53.8324 49.2914 54.122 49.0018 54.2668C49.3204 54.2379 49.5231 54.4985 49.5231 54.8461C49.5231 55.3674 49.2624 55.8018 48.7412 55.8886C48.2778 55.9755 48.0171 55.7438 47.9882 55.2225L48.2199 55.1646C48.2199 55.5122 48.3936 55.7438 48.7412 55.6859C49.0018 55.628 49.2624 55.3963 49.2624 54.904C49.2624 54.5275 49.0597 54.3537 48.7122 54.4406L48.5384 54.4696L48.5095 54.2958Z" fill="#191938"/>
<path d="M51.029 52.4424L51.3476 52.3845L52.1585 55.1647L51.8978 55.2226L51.6661 54.4117L50.7104 54.6144L50.5077 55.5122L50.2471 55.5701L51.029 52.4424ZM51.6082 54.209L51.1738 52.6451L50.7684 54.3827L51.6082 54.209Z" fill="#191938"/>
<path d="M52.2455 52.1818L52.4772 52.1238V54.238C52.4772 54.6724 52.651 54.8462 53.0275 54.7882C53.375 54.7014 53.5488 54.4697 53.5488 54.0063V51.8922L53.7805 51.8342V53.9484C53.7805 54.5566 53.5198 54.8751 52.9985 54.991C52.5062 55.1068 52.2166 54.9041 52.2166 54.2669L52.2455 52.1818Z" fill="#191938"/>
<path d="M55.4311 52.9926L54.3596 53.2243V54.7013L54.1279 54.7592L54.099 51.8052L54.3306 51.7473V52.9926L55.4022 52.7609V51.5156L55.6339 51.4577L55.6628 54.4117L55.4311 54.4696V52.9926Z" fill="#191938"/>
<path d="M57.8059 50.9653L58.0086 50.9364L58.0376 53.9773L57.8349 54.0062L57.8059 50.9653Z" fill="#191938"/>
<path d="M60.5573 51.8341C60.2967 51.8052 60.1519 51.5445 60.1519 51.2549C60.1519 50.7626 60.4415 50.473 60.818 50.3861C61.2234 50.2992 61.4841 50.473 61.513 50.9653C61.513 51.2549 61.3682 51.5735 61.1076 51.6893C61.4261 51.6604 61.5999 51.9789 61.5999 52.2975C61.5999 52.8477 61.3103 53.2242 60.8469 53.3401C60.3836 53.427 60.0939 53.1663 60.0939 52.6161C60.0939 52.3265 60.2387 51.95 60.5573 51.8341ZM60.8469 53.1663C61.1945 53.1084 61.3682 52.7609 61.3682 52.4133C61.3682 52.0658 61.1945 51.8052 60.8469 51.8631C60.4994 51.921 60.3256 52.2685 60.3256 52.6161C60.3256 52.9926 60.4994 53.2532 60.8469 53.1663ZM60.8469 51.6604C61.1365 51.6024 61.2813 51.3418 61.2813 51.0522C61.2813 50.7336 61.1365 50.5598 60.8469 50.6178C60.5573 50.6757 60.4125 50.9363 60.4125 51.2259C60.4125 51.5445 60.5573 51.7183 60.8469 51.6604Z" fill="#191938"/>
<path d="M62.3238 51.4577C62.0631 51.4288 61.9183 51.1681 61.9183 50.8785C61.9183 50.3862 62.2079 50.0966 62.5844 50.0097C62.9899 49.9228 63.2505 50.0966 63.2795 50.5889C63.2795 50.8785 63.1347 51.1971 62.874 51.3129C63.1926 51.284 63.3664 51.6025 63.3664 51.9211C63.3664 52.4714 63.0768 52.8478 62.6134 52.9637C62.179 53.0506 61.8604 52.7899 61.8604 52.2397C61.8314 51.9501 62.0052 51.5736 62.3238 51.4577ZM62.6134 52.7899C62.9609 52.732 63.1347 52.3845 63.1347 52.0369C63.1347 51.6894 62.9609 51.4288 62.6134 51.4867C62.2659 51.5446 62.0921 51.8921 62.0921 52.2397C62.0921 52.6162 62.2659 52.8768 62.6134 52.7899ZM62.5844 51.284C62.874 51.226 63.0188 50.9654 63.0188 50.6758C63.0188 50.3572 62.874 50.1834 62.5844 50.2414C62.2948 50.2993 62.15 50.5599 62.15 50.8495C62.15 51.1681 62.2948 51.3708 62.5844 51.284Z" fill="#191938"/>
<path d="M63.7718 52.2976L64.0324 52.2396V52.6741L63.7718 52.732V52.2976Z" fill="#191938"/>
<path d="M64.9013 50.9364C64.6406 50.9074 64.4958 50.6468 64.4958 50.3572C64.4958 49.8648 64.7854 49.5752 65.1619 49.4884C65.5674 49.4015 65.828 49.5752 65.857 50.0676C65.857 50.3572 65.7122 50.6757 65.4515 50.7916C65.7701 50.7626 65.9439 51.0812 65.9439 51.3998C65.9439 51.95 65.6543 52.3265 65.1909 52.4424C64.7565 52.5292 64.4379 52.2686 64.4379 51.7183C64.4379 51.3998 64.5827 51.0233 64.9013 50.9364ZM65.1909 52.2686C65.5384 52.2107 65.7122 51.8631 65.7122 51.5156C65.7122 51.1681 65.5384 50.9074 65.1909 50.9654C64.8434 51.0233 64.6696 51.3708 64.6696 51.7183C64.6696 52.0659 64.8434 52.3265 65.1909 52.2686ZM65.1909 50.7626C65.4805 50.7047 65.6253 50.4441 65.6253 50.1544C65.6253 49.8359 65.4805 49.6621 65.1909 49.72C64.9013 49.778 64.7565 50.0386 64.7565 50.3282C64.7565 50.6178 64.9013 50.8205 65.1909 50.7626Z" fill="#191938"/>
<path d="M67.0444 49.054L67.7105 48.9092C68.4925 48.7354 68.6952 49.2277 68.6952 50.1835C68.6952 51.1392 68.5214 51.6894 67.7105 51.8632L67.0444 52.008V49.054ZM67.3051 51.7473L67.7105 51.6605C68.2318 51.5446 68.4635 51.226 68.4635 50.2414C68.4635 49.2857 68.2318 49.025 67.7105 49.1409L67.3051 49.2277V51.7473Z" fill="#191938"/>
<path d="M69.6798 50.1834L69.0427 51.5735L68.811 51.6315L69.535 49.9807L68.84 48.6775L69.1006 48.6195L69.6798 49.6911L70.259 48.3589L70.4907 48.301L69.7957 49.8938L70.5487 51.226L70.288 51.2839L69.6798 50.1834Z" fill="#191938"/>
<path d="M70.6934 48.301L71.4464 48.1562C71.9676 48.0403 72.1704 48.301 72.1704 48.7354C72.1704 49.025 72.0256 49.3436 71.7649 49.4594C72.1125 49.4594 72.2862 49.6911 72.2862 50.0965C72.2862 50.6178 71.9966 50.9943 71.4753 51.1102L70.7223 51.255L70.6934 48.301ZM70.954 49.5463L71.3305 49.4594C71.736 49.3725 71.9387 49.1408 71.9387 48.7933C71.9387 48.3878 71.736 48.301 71.3595 48.3878L70.9251 48.4747L70.954 49.5463ZM70.954 50.9654L71.4174 50.8785C71.8518 50.7916 72.0545 50.5309 72.0545 50.1545C72.0545 49.749 71.8518 49.6042 71.4174 49.6911L70.954 49.778V50.9654Z" fill="#191938"/>
<path d="M74.3137 47.4901L74.5164 47.4611L74.5454 50.502L74.3426 50.531L74.3137 47.4901Z" fill="#191938"/>
<path d="M76.8911 49.3146C76.8911 49.6043 77.0649 49.7491 77.3255 49.6911C77.702 49.6043 77.8758 49.1988 77.8758 48.2431C77.7889 48.5617 77.5862 48.7933 77.2966 48.8513C76.8332 48.9382 76.5726 48.6196 76.5726 48.0983C76.5726 47.548 76.8043 47.0557 77.3255 46.9399C77.9337 46.824 78.1075 47.2584 78.1075 48.1852C78.1075 49.1409 77.9337 49.778 77.2966 49.9228C76.8622 50.0097 76.6305 49.778 76.6305 49.3726L76.8911 49.3146ZM77.3255 48.6196C77.702 48.5327 77.8179 48.1272 77.8179 47.7797C77.8179 47.4322 77.6731 47.0557 77.3255 47.1426C76.9491 47.2295 76.8332 47.6349 76.8332 47.9824C76.8332 48.3589 76.978 48.7065 77.3255 48.6196Z" fill="#191938"/>
<path d="M79.7294 46.4765V46.7082L78.7448 46.9109L78.6289 47.9535C78.7448 47.7218 78.9475 47.577 79.1502 47.548C79.5557 47.4612 79.8742 47.7218 79.8742 48.359C79.8742 48.9382 79.6136 49.4305 79.0923 49.5174C78.6868 49.6043 78.3683 49.3726 78.3683 48.8802L78.6 48.8223C78.6 49.1409 78.7737 49.3726 79.0923 49.3147C79.4109 49.2567 79.6136 48.9092 79.6136 48.359C79.6136 47.9535 79.4398 47.6639 79.0923 47.7508C78.8896 47.7797 78.7158 47.9245 78.6289 48.1852L78.3972 48.2431L78.542 46.7082L79.7294 46.4765Z" fill="#191938"/>
<path d="M80.2795 48.8222L80.5402 48.7643V49.1987L80.2795 49.2566V48.8222Z" fill="#191938"/>
<path d="M82.162 46.5923C82.162 46.3027 81.9883 46.1579 81.7276 46.2158C81.3511 46.3027 81.1774 46.7082 81.1774 47.6639C81.2642 47.3453 81.467 47.1136 81.7566 47.0557C82.2199 46.9688 82.4806 47.2874 82.4806 47.8087C82.4806 48.3589 82.2489 48.8513 81.7276 48.9671C81.1194 49.083 80.9457 48.6486 80.9457 47.7218C80.9457 46.7661 81.1194 46.129 81.7566 45.9842C82.191 45.8973 82.4227 46.129 82.4227 46.5344L82.162 46.5923ZM81.7276 48.7644C82.1041 48.6775 82.2199 48.301 82.2199 47.9245C82.2199 47.548 82.0751 47.2005 81.7276 47.2874C81.3511 47.3743 81.2353 47.7508 81.2353 48.1273C81.2353 48.5037 81.3511 48.8513 81.7276 48.7644Z" fill="#191938"/>
<path d="M84.0156 45.4918L84.3342 45.4338L85.1451 48.2141L84.8845 48.272L84.6528 47.4611L83.6971 47.6638L83.4943 48.5616L83.2337 48.6195L84.0156 45.4918ZM84.5949 47.2294L84.1604 45.6655L83.755 47.4032L84.5949 47.2294Z" fill="#191938"/>
<path d="M85.2607 45.2312L85.4924 45.1732L85.5214 47.8955L86.6509 47.6639V47.8955L85.2897 48.1852L85.2607 45.2312Z" fill="#191938"/>
<path d="M88.0991 44.6229L88.4177 44.565L89.2286 47.3452L88.968 47.4031L88.7363 46.5922L87.7806 46.795L87.5778 47.6928L87.3172 47.7507L88.0991 44.6229ZM88.6783 46.3895L88.2439 44.8256L87.8385 46.5633L88.6783 46.3895Z" fill="#191938"/>
<path d="M89.3442 44.3623L89.5759 44.3044L89.6049 47.2584L89.3732 47.3163L89.3442 44.3623Z" fill="#191938"/>
<path d="M89.9523 44.2464L90.2709 44.1885L91.3135 46.5343V43.9568L91.5452 43.8989L91.5742 46.8529L91.2556 46.9108L90.213 44.565V47.1425L89.9813 47.2004L89.9523 44.2464Z" fill="#191938"/>
</svg>
