<svg width="103" height="48" viewBox="0 0 103 48" fill="none" xmlns="http://www.w3.org/2000/svg">
<path d="M56.1985 16.7374C50.3981 17.5035 48.264 6.39517 38.3047 7.87264C33.2704 8.63873 27.1416 15.7525 27.1416 15.7525L33.544 25.7117C33.544 25.7117 36.3895 21.1698 41.0408 21.6076C43.8315 21.8812 44.7071 24.672 44.7071 24.672C44.7071 24.672 39.7822 32.3877 30.4796 30.1988C22.2715 28.2836 18.5504 11.8125 18.5504 11.8125L7.93455 15.6977C7.93455 15.6977 10.9442 21.4435 10.6159 24.5625C9.95923 30.0894 0 28.4477 0 28.4477V40.158C0 40.158 9.52146 42.8394 17.7296 35.0143C17.7296 35.0143 22.8734 41.0883 30.206 41.8544C35.8423 42.4563 41.3691 39.5561 45.4185 36.2729C51.4925 31.2932 54.1738 27.2439 57.3476 27.2439L56.1985 16.7374Z" fill="#E91D2C"/>
<path d="M56.7457 34.4671C53.2436 34.4671 50.3981 37.3125 50.3981 40.8147C50.3981 44.3168 53.2436 47.1623 56.7457 47.1623C60.2479 47.1623 63.0934 44.3168 63.0934 40.8147C63.0387 37.3125 60.2479 34.4671 56.7457 34.4671Z" fill="#E91D2C"/>
<path d="M101.891 27.408C101.562 24.5078 100.413 21.7717 98.7168 19.6376C96.4732 16.8468 93.3542 15.3147 90.1803 15.5335C90.0709 15.5335 90.0162 15.5335 89.9067 15.5335C87.2801 15.7524 84.8724 17.1752 83.2308 19.4187C83.176 19.5282 83.0666 19.5829 83.0119 19.6923C82.5741 20.2943 82.2458 20.8962 81.9722 21.4981C81.6439 22.2095 81.3703 22.9756 81.1514 23.7964C80.4947 26.2041 80.3305 28.0099 79.455 28.8855C77.8681 30.4724 74.5301 27.3533 73.3263 21.9359C71.6299 13.8919 73.1621 0.539978 73.1621 0.539978H60.631C60.631 0.539978 60.1385 6.94234 60.1932 9.07646C60.2479 12.688 60.4121 16.4638 60.8499 20.0207C61.4518 24.8361 62.984 29.2138 65.0634 33.3726C66.9239 37.0389 70.2072 40.0486 74.4754 40.8694C80.0569 41.9091 83.778 36.9295 83.778 36.9295C83.778 36.9295 85.4743 39.2277 88.5387 40.4863C88.5387 40.4863 88.5387 40.4863 88.5934 40.4863C89.2501 40.7599 89.9615 40.9788 90.6728 41.0883C90.8917 41.143 91.1106 41.143 91.3842 41.1977C91.8767 41.2524 92.3692 41.2524 92.8617 41.1977C95.4883 40.9788 97.896 39.5561 99.5376 37.3125C100.577 35.9445 101.289 34.3029 101.672 32.4971C102.055 30.8007 102.11 29.1591 101.891 27.408ZM90.6181 32.5518C88.9765 32.4423 87.499 30.4724 87.2801 28.1741C87.0612 25.8758 88.1009 23.9606 89.7426 23.9059C91.4389 23.8511 93.1353 25.7664 93.3542 28.2835C93.573 30.8007 92.3145 32.7159 90.6181 32.5518Z" fill="#E91D2C"/>
</svg>
