<svg width="102" height="40" viewBox="0 0 102 40" fill="none" xmlns="http://www.w3.org/2000/svg">
<path d="M35.8145 24.9705H44.8275V39.3106H50.1683V10.6304C42.2408 10.6304 35.8145 17.0505 35.8145 24.9705Z" fill="#3F217C"/>
<path d="M66.0938 10.6304V16.6243C70.7057 16.6243 74.4426 20.3577 74.4426 24.9651H80.4423C80.4477 17.0505 74.0214 10.6304 66.0938 10.6304Z" fill="#3F217C"/>
<path d="M31.0192 16.6243V10.6304C23.0916 10.6304 16.6653 17.0505 16.6653 24.9705H22.665C22.6704 20.3631 26.4073 16.6243 31.0192 16.6243Z" fill="#3F217C"/>
<path d="M22.6703 25.0568C22.6703 29.6642 18.9333 33.3976 14.3215 33.3976C9.70966 33.3976 5.97269 29.6642 5.97269 25.0568H0C0 32.9552 6.38851 39.3591 14.2837 39.3969C14.2945 39.3969 14.3053 39.3969 14.3161 39.3969C14.3269 39.3969 14.3377 39.3969 14.3485 39.3969C22.2437 39.3591 28.6322 32.9552 28.6322 25.0568H22.6703Z" fill="#3F217C"/>
<path d="M61.3037 10.6304H54.9638V16.6351H61.3037V10.6304Z" fill="#3F217C"/>
<path d="M102 24.9381C102 29.5455 98.263 33.2789 93.6512 33.2789C89.0394 33.2789 85.3024 29.5455 85.3024 24.9381C85.3024 20.3307 89.0394 16.5973 93.6512 16.5973C98.263 16.5919 102 20.3307 102 24.9381Z" fill="#3F217C"/>
<path d="M54.9638 7.61453V0.109985L61.2983 3.86495L54.9638 7.61453Z" fill="#3F217C"/>
</svg>
