<svg width="102" height="58" viewBox="0 0 102 58" fill="none" xmlns="http://www.w3.org/2000/svg">
<path d="M0 53.7326V18.3413H24.6957V53.7326H0ZM21.1304 50.1674V21.9065H3.56522V50.1674H21.1304Z" fill="#FFD200"/>
<path d="M31.4202 21.1239C33.0145 23.6747 34.6087 25.9066 36.2029 28.1674H37.4203V18.3413H36.0579V25.3558H36.0289C34.4927 22.8341 32.8985 20.5732 31.3043 18.3413H30.0869V28.1674H31.4202V21.1239Z" fill="#808285"/>
<path d="M40.2029 25.5008H43.1594L43.942 28.1964H45.826L42.6956 18.3413H41.3043L37.913 28.1674H39.3913L40.2029 25.5008ZM41.7681 20.2834C42.2029 21.7906 42.5507 23.008 42.8985 24.2834H40.6376C41.0434 22.979 41.4203 21.7906 41.7681 20.2834Z" fill="#808285"/>
<path d="M47.3913 28.1674H49.1014V19.6747H51.6811V18.3413H44.8115V19.6747H47.3913V28.1674Z" fill="#808285"/>
<path d="M53.913 18.3413H52.2318V28.1674H53.913V18.3413Z" fill="#808285"/>
<path d="M59.1014 28.3413C61.6521 28.3413 63.2753 26.0515 63.2753 23.1239C63.2753 20.3703 61.5072 18.1964 59.1014 18.1964C56.6956 18.1964 54.9275 20.3993 54.9275 23.1239C54.9275 26.0515 56.5217 28.3413 59.1014 28.3413ZM59.1014 19.5877C60.7826 19.5877 61.4782 21.3268 61.4782 23.1239C61.4782 25.008 60.8405 26.95 59.1014 26.95C57.3333 26.95 56.7246 25.008 56.7246 23.1239C56.7246 21.2979 57.4203 19.5877 59.1014 19.5877Z" fill="#808285"/>
<path d="M65.6522 21.1239C67.2464 23.6747 68.8406 25.9066 70.4348 28.1674H71.6522V18.3413H70.2899V25.3558H70.2609C68.6957 22.8341 67.1305 20.5732 65.5073 18.3413H64.2899V28.1674H65.6232V21.1239H65.6522Z" fill="#808285"/>
<path d="M74.4348 25.5008H77.3913L78.1739 28.1964H80.058L76.8986 18.3413H75.5073L72.116 28.1674H73.5652L74.4348 25.5008ZM76 20.2834C76.4348 21.7906 76.7826 23.008 77.1305 24.2834H74.8406C75.2464 22.979 75.6522 21.7906 76 20.2834Z" fill="#808285"/>
<path d="M85.5362 26.8631H82.2029V18.3413H80.5218V28.1674H85.5362V26.8631Z" fill="#808285"/>
<path d="M34.8405 41.066C35.797 41.066 36.7246 40.8051 37.6231 40.4573V36.3993H35.942V39.4138C35.5941 39.5877 35.2173 39.6457 34.7536 39.6457C33.3043 39.6457 31.884 38.2544 31.884 35.9355C31.884 33.7036 33.1304 32.2834 34.9275 32.2834C35.5652 32.2834 36.2898 32.5152 36.7246 32.8051L37.2753 31.6457C36.7246 31.2109 35.797 30.8921 34.8985 30.8921C31.942 30.8921 30.1159 33.2399 30.1159 35.9355C30.1159 38.8051 31.942 41.066 34.8405 41.066Z" fill="#808285"/>
<path d="M43.6521 32.3704V31.066H39.1594V40.8921H44.1449V39.5877H40.8405V36.3993H43.5941V35.095H40.8405V32.3704H43.6521Z" fill="#808285"/>
<path d="M53.0144 35.8486C53.0144 33.095 51.2463 30.8921 48.8405 30.8921C46.4347 30.8921 44.6666 33.095 44.6666 35.8486C44.6666 38.7761 46.2608 41.066 48.8405 41.066C51.4202 41.066 53.0144 38.7761 53.0144 35.8486ZM48.8405 39.6457C47.0724 39.6457 46.4637 37.7036 46.4637 35.8196C46.4637 34.0225 47.1594 32.2834 48.8405 32.2834C50.5217 32.2834 51.2173 34.0225 51.2173 35.8196C51.2173 37.7326 50.6086 39.6457 48.8405 39.6457Z" fill="#808285"/>
<path d="M58.3188 41.066C59.2754 41.066 60.2029 40.8051 61.1304 40.4573V36.3993H59.4203V39.4138C59.0725 39.5877 58.6956 39.6457 58.2319 39.6457C56.7826 39.6457 55.3913 38.2544 55.3913 35.9355C55.3913 33.7036 56.6087 32.2834 58.4058 32.2834C59.0435 32.2834 59.7681 32.5152 60.2029 32.8051L60.7536 31.6457C60.1739 31.2109 59.2754 30.8921 58.3768 30.8921C55.4203 30.8921 53.5942 33.2399 53.5942 35.9355C53.5942 38.8051 55.4203 41.066 58.3188 41.066Z" fill="#808285"/>
<path d="M66.6376 36.8341C67.7101 36.2544 68.3478 35.095 68.3478 33.9066C68.3478 31.9935 67.1883 31.066 65.3043 31.066H62.6666V40.8921H64.3478V37.1819H65.1304L66.7246 40.8921H68.6666L66.6376 36.8341ZM65.0434 35.9356C64.8695 35.9646 64.4927 35.9646 64.3188 35.9646V32.3704H65.0724C66.0869 32.3704 66.6376 32.9501 66.6376 33.9646C66.6376 35.2979 65.855 35.8776 65.0434 35.9356Z" fill="#808285"/>
<path d="M72.029 31.066L70.2319 36.2544L68.6377 40.8921H70.087L70.9565 38.1964H73.9131L74.6957 40.8921H76.5797L73.4493 31.066H72.029ZM71.3913 37.008C71.7971 35.7037 72.1739 34.5153 72.5218 33.008H72.5507C72.9565 34.5153 73.3044 35.7037 73.6522 37.008H71.3913Z" fill="#808285"/>
<path d="M79.7391 31.066H77.1014V40.8921H78.7826V37.1819H79.5362C81.5362 37.1819 82.7536 35.5588 82.7536 33.9066C82.7826 31.9935 81.6232 31.066 79.7391 31.066ZM79.5072 35.9356C79.3333 35.9356 78.9275 35.9646 78.8116 35.9646V32.3704H79.5652C80.5507 32.3704 81.1014 32.9501 81.1014 33.9646C81.1014 35.2979 80.2898 35.8776 79.5072 35.9356Z" fill="#808285"/>
<path d="M88.9275 34.8341H85.4203V31.066H83.7391V40.8921H85.4203V36.1675H88.9275V40.8921H90.6087V31.095H88.9275V34.8341Z" fill="#808285"/>
<path d="M93.884 31.066H92.2029V40.8921H93.884V31.066Z" fill="#808285"/>
<path d="M99.797 39.6457C98.1738 39.6457 96.7825 38.2544 96.7825 35.9355C96.7825 33.7036 98.0289 32.2834 99.7391 32.2834C100.377 32.2834 101.043 32.5732 101.478 32.8341L102 31.6457C101.42 31.2399 100.609 30.8921 99.7391 30.8921C96.8115 30.8921 94.9854 33.2399 94.9854 35.9355C94.9854 38.8341 96.8115 41.066 99.7101 41.066C100.522 41.066 101.42 40.7471 101.942 40.3993L101.478 39.1819C101.043 39.4428 100.435 39.6457 99.797 39.6457Z" fill="#808285"/>
<path d="M33.6232 44.7471C33.4203 44.95 33.3333 45.1529 33.3333 45.4138C33.3333 45.6747 33.4203 45.9065 33.6232 46.0804C33.8261 46.2833 34.029 46.3703 34.2898 46.3703C34.5507 46.3703 34.7826 46.2833 34.9565 46.0804C35.1594 45.8775 35.2463 45.6747 35.2463 45.4138C35.2463 45.1529 35.1594 44.921 34.9565 44.7471C34.7536 44.5442 34.5507 44.4573 34.2898 44.4573C34.029 44.4573 33.7971 44.5442 33.6232 44.7471Z" fill="#808285"/>
<path d="M31.4202 44.7471C31.2173 44.95 31.1304 45.1529 31.1304 45.4138C31.1304 45.6747 31.2173 45.9065 31.4202 46.0804C31.6231 46.2833 31.826 46.3703 32.0869 46.3703C32.3478 46.3703 32.5796 46.2833 32.7536 46.0804C32.9565 45.8775 33.0434 45.6747 33.0434 45.4138C33.0434 45.1529 32.9565 44.921 32.7536 44.7471C32.5507 44.5442 32.3478 44.4573 32.0869 44.4573C31.826 44.4573 31.5941 44.5442 31.4202 44.7471Z" fill="#808285"/>
<path d="M39.4782 55.1529C39.2173 55.1529 38.9854 55.2399 38.8115 55.4428C38.6086 55.6457 38.5217 55.8486 38.5217 56.1095C38.5217 56.3703 38.6086 56.6022 38.8115 56.7761C39.0144 56.979 39.2173 57.066 39.4782 57.066C39.7391 57.066 39.9709 56.979 40.1449 56.7761C40.3478 56.6022 40.4347 56.3703 40.4347 56.1095C40.4347 55.8486 40.3478 55.6167 40.1449 55.4428C39.9709 55.2399 39.7391 55.1529 39.4782 55.1529Z" fill="#808285"/>
<path d="M41.6811 55.1529C41.4203 55.1529 41.1884 55.2399 41.0145 55.4428C40.8116 55.6457 40.7246 55.8486 40.7246 56.1095C40.7246 56.3703 40.8116 56.6022 41.0145 56.7761C41.2174 56.979 41.4203 57.066 41.6811 57.066C41.942 57.066 42.1739 56.979 42.3478 56.7761C42.5507 56.6022 42.6377 56.3703 42.6377 56.1095C42.6377 55.8486 42.5507 55.6167 42.3478 55.4428C42.1739 55.2399 41.971 55.1529 41.6811 55.1529Z" fill="#808285"/>
<path d="M43.0145 52.2834C42.5797 52.2834 42.2608 52.2254 42.0869 52.0805C41.913 51.9356 41.826 51.7037 41.826 51.3558V48.4573H40.0579V51.5008C40.0579 51.8486 40 52.0515 39.884 52.1385C39.7681 52.2254 39.5362 52.2834 39.2463 52.2834H35.855C35.6521 52.2834 35.5362 52.2544 35.4782 52.1674C35.4202 52.0805 35.3913 51.9356 35.3913 51.7327V47.6747H33.0724C32.7536 47.6747 32.4058 47.7327 32.0869 47.8196C31.7391 47.9066 31.4492 48.0805 31.1594 48.2834C30.8695 48.5153 30.6666 48.7761 30.4927 49.124C30.3188 49.4718 30.2318 49.8776 30.2318 50.3703C30.2318 50.8921 30.3188 51.2979 30.5217 51.6167C30.6956 51.9356 30.9275 52.1964 31.1884 52.3703C31.4492 52.5442 31.7391 52.6602 32.0289 52.7471C32.3188 52.8051 32.5797 52.8631 32.8116 52.8631C32.9855 52.8631 33.1304 52.8631 33.3043 52.8341C33.4782 52.8051 33.6231 52.7761 33.7681 52.7471C33.855 52.979 33.942 53.1529 34.0869 53.2979C34.2318 53.4428 34.3768 53.5587 34.5507 53.6167C34.7246 53.7037 34.8985 53.7616 35.1014 53.7906C35.3043 53.8196 35.5072 53.8486 35.7391 53.8486H39.5362C39.7101 53.8486 39.913 53.8486 40.0869 53.8196C40.2608 53.8196 40.4637 53.7906 40.6376 53.7327C40.8116 53.6747 40.9855 53.6167 41.1304 53.5298C41.2753 53.4428 41.4202 53.3269 41.5362 53.1529C41.6231 53.2979 41.7101 53.4138 41.855 53.5008C41.971 53.5877 42.1159 53.6747 42.2318 53.7037C42.3768 53.7616 42.5217 53.7906 42.6376 53.7906C42.7826 53.8196 42.9275 53.8196 43.0434 53.8196H48.3768V48.4283H46.6087V52.2834H43.0145ZM33.6231 51.2109C33.5072 51.2689 33.3623 51.2689 33.2463 51.2979C33.1304 51.2979 33.0145 51.2979 32.8985 51.2979C32.6956 51.2979 32.5507 51.2689 32.4347 51.2109C32.3188 51.1529 32.2029 51.066 32.1449 50.979C32.0869 50.8921 32.0289 50.7761 32 50.6602C31.971 50.5442 31.971 50.4283 31.971 50.3124C31.971 50.0225 32.0579 49.7906 32.2318 49.6167C32.4058 49.4428 32.6376 49.3558 32.9855 49.3558H33.6521V51.2109H33.6231Z" fill="#808285"/>
<path d="M47.3333 55.095C47.0724 55.095 46.8406 55.1819 46.6666 55.3848C46.4637 55.5877 46.3768 55.7906 46.3768 56.0515C46.3768 56.3123 46.4637 56.5442 46.6666 56.7181C46.8695 56.921 47.0724 57.008 47.3333 57.008C47.5942 57.008 47.8261 56.921 48 56.7181C48.2029 56.5152 48.2898 56.3123 48.2898 56.0515C48.2898 55.7906 48.2029 55.5587 48 55.3848C47.8261 55.2109 47.5942 55.095 47.3333 55.095Z" fill="#808285"/>
<path d="M64.4348 52.2834H60.6957C61.1015 51.9645 61.4203 51.6167 61.6232 51.2109C61.8261 50.8051 61.942 50.4573 61.942 50.1674C61.942 49.9355 61.8841 49.7037 61.7971 49.4718C61.7102 49.2399 61.5362 49.037 61.3333 48.8631C61.1305 48.6892 60.8696 48.5442 60.5797 48.4283C60.2609 48.3124 59.9131 48.2544 59.5073 48.2544C59.0145 48.2544 58.5797 48.3413 58.1739 48.5153C57.7681 48.6892 57.4203 48.9211 57.1304 49.2399C57.0725 49.2979 57.0145 49.3848 56.9565 49.4718C56.8986 49.5587 56.8406 49.6747 56.7826 49.8196C56.7246 49.9355 56.6667 50.0805 56.6377 50.1964C56.5797 50.3124 56.5507 50.4573 56.5218 50.5732L57.8841 52.1964C57.7102 52.2254 57.5073 52.2544 57.2754 52.2544C57.0725 52.2544 56.8696 52.2834 56.6667 52.2834H53.7391C53.6232 52.2834 53.5073 52.2544 53.3913 52.2254C53.2754 52.1964 53.1594 52.1384 53.0725 52.0805C52.9855 52.0225 52.8986 51.9066 52.8406 51.7906C52.7826 51.6747 52.7536 51.5297 52.7536 51.3558V49.037H50.9855V53.066C50.9855 53.3848 50.9565 53.6747 50.9275 53.9355C50.8986 54.1674 50.8116 54.3703 50.7246 54.5442C50.6087 54.6892 50.4638 54.8051 50.2319 54.8921C50.029 54.95 49.7102 55.008 49.3623 55.008V56.6602C49.942 56.6602 50.4348 56.6022 50.8406 56.4863C51.2464 56.3703 51.5942 56.1964 51.8841 55.9355C52.1449 55.6747 52.3478 55.3558 52.4928 54.95C52.6377 54.5442 52.6957 54.0225 52.7246 53.4138C52.8696 53.5877 53.0725 53.7037 53.2754 53.7616C53.3623 53.7906 53.4493 53.7906 53.5362 53.8196C53.5942 53.8486 53.6812 53.8486 53.7391 53.8486H56.7247C57.1304 53.8486 57.5362 53.8196 57.9131 53.7037C58.3189 53.6167 58.6957 53.5008 59.1015 53.3268C59.3333 53.5008 59.6232 53.6457 59.9131 53.7037C60.2029 53.7906 60.4638 53.8196 60.6957 53.8196H66.2029V44.1384H64.4348V52.2834ZM59.971 51.066C59.8261 51.3268 59.6232 51.5297 59.3913 51.6747C59.3044 51.5877 59.1884 51.4718 59.0725 51.3558C58.9565 51.2399 58.8406 51.095 58.7247 50.95C58.6087 50.8051 58.4928 50.6892 58.3768 50.5442C58.2609 50.3993 58.1739 50.2834 58.087 50.1674C58.2029 50.0805 58.3768 49.9935 58.6087 49.9066C58.8116 49.8196 59.1015 49.7906 59.4203 49.7906C59.5942 49.7906 59.7102 49.8196 59.8261 49.8486C59.942 49.8776 60 49.9355 60.058 49.9935C60.116 50.0515 60.1449 50.1095 60.1739 50.1964C60.2029 50.2834 60.2029 50.3413 60.2029 50.3993C60.2029 50.6022 60.116 50.8051 59.971 51.066Z" fill="#808285"/>
<path d="M69.5942 44.1384H67.8261V53.8196H69.5942V44.1384Z" fill="#808285"/>
<path d="M32.6667 8.54425C32.3768 8.54425 32.1449 8.54425 31.971 8.51526C31.7971 8.48628 31.6232 8.45729 31.4782 8.39932C31.1014 8.25439 30.7826 8.0515 30.5507 7.73265C30.3188 7.41381 30.2029 7.00802 30.2029 6.51526C30.2029 5.6457 30.4638 5.00802 31.0145 4.57323C31.4782 4.22541 32.058 4.05149 32.7826 4.05149H34.7826V7.58773C34.7826 7.93555 34.8116 8.16744 34.8985 8.28338C35.0435 8.45729 35.2754 8.54425 35.6522 8.54425H35.884C36.2029 8.54425 36.3768 8.71816 36.3768 9.037C36.3768 9.2399 36.3478 9.38483 36.2609 9.4428C36.1739 9.52976 36.058 9.55874 35.884 9.55874H35.5072C34.4638 9.55874 33.884 9.15294 33.7681 8.34135C33.3043 8.48628 32.9565 8.54425 32.6667 8.54425ZM31.913 7.4428C32.0869 7.50077 32.3188 7.52976 32.6667 7.52976C33.0145 7.52976 33.3333 7.4428 33.6811 7.29787V5.09497H32.5797C31.942 5.09497 31.5072 5.32686 31.3043 5.79062C31.2464 5.96454 31.1884 6.13845 31.1884 6.31236C31.1884 6.48628 31.2174 6.66019 31.2464 6.80512C31.3043 6.95005 31.3623 7.06599 31.4782 7.18193C31.6232 7.29787 31.7681 7.38483 31.913 7.4428ZM31.4203 1.79062C31.4203 1.61671 31.4782 1.47178 31.6232 1.32685C31.7391 1.21091 31.884 1.12396 32.029 1.12396C32.2609 1.12396 32.4348 1.18193 32.5507 1.32685C32.6667 1.4428 32.7536 1.58772 32.7536 1.73265C32.7536 1.96454 32.6956 2.13845 32.5507 2.25439C32.4348 2.37033 32.2898 2.45729 32.1449 2.45729C32 2.45729 31.913 2.4283 31.8261 2.39932C31.7391 2.37033 31.6811 2.31236 31.6232 2.25439C31.5072 2.13845 31.4203 1.96454 31.4203 1.79062ZM33.0435 1.79062C33.0435 1.61671 33.1014 1.47178 33.2464 1.32685C33.3623 1.21091 33.5072 1.12396 33.6522 1.12396C33.884 1.12396 34.058 1.18193 34.1739 1.32685C34.2898 1.4428 34.3768 1.58772 34.3768 1.73265C34.3768 1.96454 34.3188 2.13845 34.1739 2.25439C34.058 2.37033 33.913 2.45729 33.7681 2.45729C33.6232 2.45729 33.5362 2.4283 33.4493 2.39932C33.3623 2.37033 33.3043 2.31236 33.2464 2.25439C33.1014 2.13845 33.0435 1.96454 33.0435 1.79062Z" fill="#808285"/>
<path d="M37.6522 8.54423C37.9711 8.54423 38.145 8.71815 38.145 9.03699C38.145 9.23989 38.116 9.38481 38.029 9.44278C37.9421 9.50076 37.8261 9.55873 37.6522 9.55873H35.8261C35.5073 9.55873 35.3334 9.38481 35.3334 9.06597C35.3334 8.86307 35.3624 8.71815 35.4493 8.66018C35.5363 8.57322 35.6522 8.54423 35.8261 8.54423H37.6522Z" fill="#808285"/>
<path d="M39.4783 8.54423C39.7972 8.54423 39.9711 8.71815 39.9711 9.03699C39.9711 9.23989 39.9421 9.38481 39.8551 9.44278C39.7682 9.50076 39.6522 9.55873 39.4783 9.55873H37.6522C37.3334 9.55873 37.1595 9.38481 37.1595 9.06597C37.1595 8.86307 37.1885 8.71815 37.2754 8.66018C37.3624 8.57322 37.4783 8.54423 37.6522 8.54423H39.4783Z" fill="#808285"/>
<path d="M41.3044 8.54423C41.6232 8.54423 41.7972 8.71815 41.7972 9.03699C41.7972 9.23989 41.7682 9.38481 41.6812 9.44278C41.5943 9.50076 41.4783 9.55873 41.3044 9.55873H39.4783C39.1595 9.55873 38.9856 9.38481 38.9856 9.06597C38.9856 8.86307 39.0145 8.71815 39.1015 8.66018C39.1885 8.57322 39.3044 8.54423 39.4783 8.54423H41.3044Z" fill="#808285"/>
<path d="M41.3044 9.55873C40.9856 9.55873 40.8117 9.3848 40.8117 9.06596C40.8117 8.86306 40.8406 8.71813 40.9276 8.66016C41.0145 8.57321 41.1305 8.54423 41.3044 8.54423L41.9131 8.54422C42.2609 8.54422 42.4928 8.51523 42.6088 8.42828C42.8117 8.28335 42.9276 8.02248 42.9276 7.64567V0.950012H43.9711V7.1819C43.9711 7.84857 44.174 8.28335 44.5508 8.42828C44.6957 8.48625 44.8696 8.51523 45.1015 8.51523C45.4203 8.51523 45.5943 8.68915 45.5943 9.00799C45.5943 9.21089 45.5653 9.35581 45.4783 9.41379C45.3914 9.47176 45.2754 9.52973 45.1305 9.52973C44.8406 9.52973 44.5798 9.47176 44.3189 9.32683C44.087 9.1819 43.9131 9.03697 43.8261 8.83407C43.5653 9.29784 43.0435 9.52973 42.2319 9.52973H41.3044L41.3044 9.55873Z" fill="#808285"/>
<path d="M46.9276 8.54423C47.2464 8.54423 47.4204 8.71815 47.4204 9.03699C47.4204 9.23989 47.3914 9.38481 47.3044 9.44278C47.2175 9.52974 47.1015 9.55873 46.9276 9.55873H45.1015C44.7827 9.55873 44.6088 9.38481 44.6088 9.06597C44.6088 8.86307 44.6377 8.71815 44.7247 8.66018C44.8117 8.57322 44.9276 8.54423 45.1015 8.54423H46.9276Z" fill="#808285"/>
<path d="M48.7537 8.54423C49.0725 8.54423 49.2464 8.71815 49.2464 9.03699C49.2464 9.23989 49.2175 9.38481 49.1305 9.44278C49.0435 9.50076 48.9276 9.55873 48.7537 9.55873H46.9276C46.6088 9.55873 46.4349 9.38481 46.4349 9.06597C46.4349 8.86307 46.4638 8.71815 46.5508 8.66018C46.6378 8.57322 46.7537 8.54423 46.9276 8.54423H48.7537Z" fill="#808285"/>
<path d="M55.4492 8.54425C55.768 8.54425 55.9419 8.71816 55.9419 9.037C55.9419 9.2399 55.913 9.38483 55.826 9.4428C55.7391 9.50077 55.6231 9.55874 55.4492 9.55874H48.7246C48.4057 9.55874 48.2318 9.38483 48.2318 9.06599C48.2318 8.86309 48.2608 8.71816 48.3477 8.66019C48.4347 8.57323 48.5506 8.54425 48.7246 8.54425H53.6811C53.6811 7.55874 53.4492 6.8341 52.9564 6.37033C52.4637 5.90657 51.826 5.67468 51.0434 5.67468C50.5796 5.67468 50.1159 5.73265 49.6231 5.87758V4.89207C50.1448 4.71816 50.6956 4.6312 51.2463 4.6312C51.797 4.6312 52.2898 4.74715 52.7535 4.95004C53.1883 5.15294 53.5651 5.4428 53.855 5.79062C54.4057 6.48628 54.6956 7.38483 54.7246 8.54425H55.4492ZM50.6956 11.5587C50.6956 11.3848 50.7535 11.2399 50.8985 11.095C51.0144 10.979 51.1593 10.8921 51.3043 10.8921C51.5362 10.8921 51.7101 10.95 51.826 11.095C51.9419 11.2109 52.0289 11.3558 52.0289 11.5008C52.0289 11.7327 51.9709 11.9066 51.826 12.0225C51.6811 12.1385 51.5651 12.2254 51.4202 12.2254C51.2753 12.2254 51.1883 12.1964 51.1014 12.1674C51.0144 12.1385 50.9564 12.0805 50.8985 12.0225C50.7535 11.8776 50.6956 11.7327 50.6956 11.5587Z" fill="#808285"/>
<path d="M59.7391 9.73257C58.9855 9.73257 58.2319 9.44271 57.4493 8.89198C57.1594 9.29778 56.8116 9.52967 56.3768 9.55865C56.2319 9.55865 56.116 9.58764 55.942 9.58764H55.4203C55.1015 9.58764 54.9275 9.41372 54.9275 9.09488C54.9275 8.89198 54.9565 8.74706 55.0435 8.6601C55.1304 8.57314 55.2464 8.54416 55.4203 8.54416H55.9131C56.1739 8.54416 56.3478 8.48619 56.4928 8.39923C56.7826 8.19633 56.9855 7.84851 57.1015 7.38474C57.3623 6.51517 57.7391 5.8485 58.2899 5.44271C58.6957 5.12387 59.2174 4.94995 59.7971 4.94995C60.4058 4.94995 60.8986 5.15285 61.3044 5.58763C61.7102 6.02242 61.9131 6.57314 61.9131 7.26879C61.9131 8.4572 61.5073 9.21083 60.6667 9.55865C60.4638 9.67459 60.116 9.73257 59.7391 9.73257ZM60.9275 7.38474C60.9275 6.71807 60.6957 6.2543 60.2319 6.0514C60.087 5.99343 59.9131 5.93546 59.7102 5.93546C58.8696 5.93546 58.2899 6.63111 57.942 7.99343C58.5217 8.4572 59.1015 8.68909 59.6812 8.68909C60.5217 8.71807 60.9275 8.28329 60.9275 7.38474Z" fill="#808285"/>
</svg>
