<svg width="102" height="37" viewBox="0 0 102 37" fill="none" xmlns="http://www.w3.org/2000/svg">
<path d="M0 0.259216H24.8927V35.9333H0V0.259216ZM21.2898 3.86211H3.5756V32.3577H21.2898V3.86211Z" fill="#FDDA00"/>
<path d="M37.066 18.5466V22.6408C36.1653 22.9956 35.21 23.2412 34.2547 23.2412C31.3342 23.2412 29.5054 20.9758 29.5054 18.0553C29.5054 15.3531 31.3615 12.9785 34.3366 12.9785C35.2646 12.9785 36.1653 13.3333 36.7385 13.7427L36.1926 14.9164C35.7286 14.6434 35.0189 14.3978 34.3912 14.3978C32.5624 14.3978 31.3342 15.8171 31.3342 18.0826C31.3342 20.4299 32.7535 21.8219 34.2001 21.8219C34.6641 21.8219 35.0462 21.7673 35.4011 21.5763V18.5466H37.066Z" fill="#808080"/>
<path d="M43.1526 14.4798H40.314V17.2092H43.0707V18.5467H40.314V21.7401H43.6439V23.0776H38.5944V13.1423H43.1526V14.4798Z" fill="#808080"/>
<path d="M48.3932 21.8219C46.619 21.8219 45.9912 19.8567 45.9912 17.9734C45.9912 16.1446 46.7009 14.3978 48.3932 14.3978C50.0854 14.3978 50.7951 16.1446 50.7951 17.9734C50.7678 19.8567 50.14 21.8219 48.3932 21.8219ZM48.3932 23.2412C50.9862 23.2412 52.5965 20.9212 52.5965 17.9734C52.5965 15.1893 50.8224 12.9785 48.3932 12.9785C45.9639 12.9785 44.1898 15.1893 44.1898 17.9734C44.1625 20.9212 45.8002 23.2412 48.3932 23.2412Z" fill="#808080"/>
<path d="M60.7576 18.5466V22.6408C59.8569 22.9956 58.9016 23.2412 57.9463 23.2412C55.0258 23.2412 53.197 20.9758 53.197 18.0553C53.197 15.3531 55.053 12.9785 58.0009 12.9785C58.9289 12.9785 59.8569 13.3333 60.4028 13.7427L59.8569 14.9164C59.3929 14.6434 58.6832 14.3978 58.0555 14.3978C56.254 14.3978 54.9985 15.8171 54.9985 18.0826C54.9985 20.4299 56.4178 21.8219 57.8644 21.8219C58.3284 21.8219 58.7105 21.7673 59.0654 21.5763V18.5466H60.7576Z" fill="#808080"/>
<path d="M64.0058 14.4798H64.7427C65.7526 14.4798 66.3258 15.0529 66.3258 16.0901C66.3258 17.4276 65.507 18.0281 64.7154 18.0554C64.5517 18.0826 64.1422 18.0826 64.0058 18.1099V14.4798ZM68.3183 23.0776L66.3258 18.9561C67.4176 18.3829 68.0454 17.2092 68.0454 16.0083C68.0454 14.0703 66.8717 13.1423 64.9611 13.1423H62.3135V23.0776H64.0058V19.3382H64.77L66.3804 23.0776H68.3183Z" fill="#808080"/>
<path d="M71.1297 19.1471C71.5118 17.837 71.9212 16.636 72.276 15.1075H72.3033C72.7127 16.636 73.0676 17.837 73.4224 19.1471H71.1297ZM71.7847 13.1423L68.3456 23.0776H69.8195L70.6929 20.3754H73.6953L74.4596 23.0776H76.3702L73.204 13.1696H71.7847V13.1423Z" fill="#808080"/>
<path d="M76.8888 23.0776V13.1423H79.5364C81.447 13.1423 82.6207 14.0703 82.6207 16.0083C82.6207 17.6732 81.3925 19.3109 79.3727 19.3109H78.5811V18.0826C78.663 18.0554 79.127 18.0554 79.3181 18.0281C80.1369 17.9735 80.9284 17.4003 80.9284 16.0628C80.9284 15.0529 80.3553 14.4525 79.3727 14.4525H78.6084V23.0776H76.8888Z" fill="#808080"/>
<path d="M90.4815 23.0776H88.7893V18.301H85.2683V23.0776H83.576V13.1423H85.2683V16.9636H88.7893V13.1696H90.4815V23.0776Z" fill="#808080"/>
<path d="M93.8115 13.1423H92.1192V23.0503H93.8115V13.1423Z" fill="#808080"/>
<path d="M101.454 14.9437C101.045 14.698 100.362 14.3978 99.7071 14.3978C97.9876 14.3978 96.732 15.8171 96.732 18.0826C96.732 20.4299 98.1241 21.8219 99.7617 21.8219C100.417 21.8219 101.017 21.6036 101.454 21.3306L101.918 22.5589C101.399 22.9137 100.499 23.2412 99.6799 23.2412C96.7593 23.2412 94.9306 20.9758 94.9306 18.0553C94.9306 15.3531 96.7593 12.9785 99.7071 12.9785C100.581 12.9785 101.399 13.3606 102 13.7427L101.454 14.9437Z" fill="#808080"/>
<path d="M38.1031 10.2217H36.8748C35.2644 7.92895 33.6541 5.6635 32.071 3.1251H32.0437V10.2217H30.6789V0.313757H31.9072C33.5176 2.57921 35.128 4.84466 36.7111 7.38306H36.7384V0.313757H38.1031V10.2217Z" fill="#808080"/>
<path d="M41.3512 6.31857C41.7333 5.00843 42.1428 3.80747 42.4976 2.27897H42.5249C42.9343 3.80747 43.2891 5.00843 43.644 6.31857H41.3512ZM41.979 0.313757L38.5399 10.2217H40.0138L40.8872 7.51953H43.8896L44.6812 10.2217H46.5918L43.3983 0.313757H41.979Z" fill="#808080"/>
<path d="M48.1749 10.2217V1.65119H45.5546V0.313757H52.4874V1.65119H49.8672V10.2217H48.1749Z" fill="#808080"/>
<path d="M54.7255 0.313757H53.0333V10.2217H54.7255V0.313757Z" fill="#808080"/>
<path d="M59.9662 8.99348C58.192 8.99348 57.5642 7.02827 57.5642 5.14494C57.5642 3.3162 58.2739 1.56934 59.9662 1.56934C61.6584 1.56934 62.3681 3.3162 62.3681 5.14494C62.3408 7.02827 61.7403 8.99348 59.9662 8.99348ZM59.9662 10.4128C62.5591 10.4128 64.1695 8.09276 64.1695 5.14494C64.1695 2.36089 62.3954 0.150024 59.9662 0.150024C57.5369 0.150024 55.7628 2.36089 55.7628 5.14494C55.7355 8.09276 57.3732 10.4128 59.9662 10.4128Z" fill="#808080"/>
<path d="M72.6308 10.2217H71.4025C69.7922 7.92895 68.1818 5.6635 66.5714 3.1251V10.2217H65.2067V0.313757H66.4349C68.0453 2.57921 69.6557 4.84466 71.2388 7.38306H71.2661V0.313757H72.6308V10.2217Z" fill="#808080"/>
<path d="M75.8516 6.31857C76.2338 5.00843 76.6432 3.80747 76.998 2.27897H77.0253C77.4347 3.80747 77.7623 5.00843 78.1444 6.31857H75.8516ZM76.5067 0.313757L73.0676 10.2217H74.5415L75.4149 7.51953H78.39L79.1816 10.2217H81.0922L77.926 0.313757H76.5067Z" fill="#808080"/>
<path d="M81.5834 0.313757H83.2757V8.91156H86.6329V10.2217H81.5834V0.313757Z" fill="#808080"/>
<path d="M34.3911 25.9161L37.6118 35.9878H35.6739L34.8824 33.2311H31.8527L30.9792 35.9878H29.478L32.9717 25.9161H34.3911ZM34.6094 32.0028C34.2273 30.6654 33.8725 29.4644 33.463 27.9086H33.4357C33.0809 29.4644 32.6715 30.6927 32.2621 32.0028H34.6094Z" fill="#808080"/>
<path d="M37.8848 35.9878V25.9161H40.9691C42.4157 25.9161 43.4256 26.6804 43.4256 28.0724C43.4256 29.6828 42.3065 30.3378 41.7061 30.5289V30.5562C42.7705 30.6108 43.9715 31.4842 43.9715 33.0127C43.9715 34.7596 42.7432 35.9878 40.7234 35.9878H37.8848ZM39.6317 30.1195H40.1776C41.1875 30.1195 41.8425 29.3825 41.8425 28.4272C41.8425 27.5265 41.2693 27.1444 40.5324 27.1444H39.6317V30.1195ZM39.6317 34.7596H40.5051C41.4604 34.7596 42.1974 34.1591 42.1974 33.04C42.1974 31.8663 41.4604 31.3477 40.5051 31.3477H39.6317V34.7596Z" fill="#808080"/>
<path d="M46.5645 25.9161V31.7026C46.5645 33.6678 47.0558 34.7596 48.4205 34.7596C49.7306 34.7596 50.2765 33.4494 50.2765 31.8117V25.9161H51.805V32.1666C51.805 34.705 50.413 36.1516 48.3932 36.1516C46.0731 36.1516 44.8449 34.8142 44.8449 32.0574V25.9161H46.5645Z" fill="#808080"/>
<path d="M59.0109 25.9161C62.5046 25.9161 63.7055 28.2361 63.7055 30.6654C63.7055 33.9953 61.9041 35.9878 58.8471 35.9878H56.0358V25.9161H59.0109ZM57.7826 34.6504H58.8471C60.8123 34.6504 61.8768 33.4767 61.8768 30.6654C61.8768 28.591 60.8669 27.2808 59.0382 27.2808H57.7826V34.6504Z" fill="#808080"/>
<path d="M72.0304 35.9878H70.3108V31.1294H66.7352V35.9878H65.0157V25.9161H66.7352V29.7919H70.3108V25.9434H72.0304V35.9878Z" fill="#808080"/>
<path d="M77.5166 25.9161L80.7373 35.9878H78.7994L78.0079 33.2311H74.9782L74.1047 35.9878H72.6035L76.0972 25.9161H77.5166ZM77.7349 32.0028C77.3528 30.6654 76.998 29.4644 76.5885 27.9086H76.5612C76.2064 29.4644 75.797 30.6927 75.3876 32.0028H77.7349Z" fill="#808080"/>
<path d="M81.0376 35.9878V25.9161H84.1219C85.5685 25.9161 86.5784 26.6804 86.5784 28.0724C86.5784 29.6828 85.4593 30.3378 84.8588 30.5289V30.5562C85.9233 30.6108 87.1243 31.4842 87.1243 33.0127C87.1243 34.7596 85.896 35.9878 83.8762 35.9878H81.0376ZM82.7571 30.1195H83.303C84.2856 30.1195 84.968 29.3825 84.968 28.4272C84.968 27.5265 84.3948 27.1444 83.6579 27.1444H82.7571V30.1195ZM82.7571 34.7596H83.6306C84.5859 34.7596 85.3228 34.1591 85.3228 33.04C85.3228 31.8663 84.5859 31.3477 83.6306 31.3477H82.7571V34.7596Z" fill="#808080"/>
<path d="M90.1266 25.9161H88.4071V35.9878H90.1266V25.9161Z" fill="#808080"/>
</svg>
