<svg width="102" height="46" viewBox="0 0 102 46" fill="none" xmlns="http://www.w3.org/2000/svg">
<path d="M95.1904 23.5304C100.226 20.4613 102 16.1453 102 16.1453C102 16.1453 98.6911 14.1312 93.6559 14.1312C93.3202 14.1312 92.9845 14.1312 92.6488 14.1792C93.8956 9.67142 93.0324 6.21867 93.0324 6.21867C93.0324 6.21867 89.4358 6.55436 85.5035 9.28779C84.1608 3.58116 80.6121 0.559999 80.6121 0.559999C80.6121 0.559999 77.1114 3.5332 75.7207 9.23983C71.9323 6.69822 68.5275 6.41049 68.5275 6.41049C68.5275 6.41049 67.6643 9.86324 68.9111 14.371C68.4316 14.323 67.952 14.323 67.5204 14.323C62.3893 14.2751 58.9845 16.3851 58.9845 16.3851C58.9845 16.3851 60.8547 20.701 65.9379 23.7222C62.3413 26.5515 60.9986 29.7166 60.9986 29.7166C60.9986 29.7166 63.8759 31.4909 68.4316 31.7307C66.3695 37.0537 67.4725 41.4175 67.4725 41.4175C67.4725 41.4175 72.0282 40.986 76.488 37.1975C78.0705 41.2737 80.5642 43.4317 80.5642 43.4317C80.5642 43.4317 83.1058 41.2737 84.7842 37.1016C89.292 40.938 93.9436 41.2737 93.9436 41.2737C93.9436 41.2737 94.9506 37.0057 92.8886 31.7307C97.4922 31.5388 100.465 29.6686 100.465 29.6686C100.417 29.7166 99.0268 26.4077 95.1904 23.5304ZM98.9788 17.1524C97.6361 19.0706 94.8547 22.0438 90.0113 23.5783C89.1481 22.7151 88.2369 21.852 87.2299 21.0367C87.6135 19.7419 87.8533 18.4951 88.0451 17.2483C89.9154 16.6249 91.8336 16.2892 93.7518 16.2892C95.9097 16.2892 97.732 16.7208 98.9788 17.1524ZM91.2101 8.80824C91.2581 10.1989 91.1142 12.1651 90.347 14.419C88.9563 14.6587 87.5176 15.0424 85.9831 15.6658C86.079 14.2271 86.031 12.8844 85.8872 11.6376C87.9013 10.103 89.8195 9.23983 91.2101 8.80824ZM80.6121 3.72502C82.0508 5.59526 84.0169 9.14392 83.921 14.2751C82.7701 14.8505 81.6192 15.474 80.5162 16.2412C79.4612 15.5699 78.4062 14.9465 77.3032 14.419C77.2073 9.23983 79.1735 5.64322 80.6121 3.72502ZM70.3977 9.00006C71.6925 9.43165 73.5148 10.1989 75.3371 11.5896C75.1932 12.9324 75.1453 14.323 75.2891 15.9056C73.8984 15.3301 72.5557 14.9465 71.3089 14.7067C70.4936 12.4049 70.3498 10.3907 70.3977 9.00006ZM62.0536 17.3442C63.3484 16.8647 65.2665 16.3851 67.5684 16.3851C69.4866 16.3851 71.4048 16.7208 73.323 17.3442C73.4668 18.4951 73.7546 19.694 74.0903 20.8929C73.0352 21.7561 72.0282 22.6672 71.165 23.6263C66.2256 22.1876 63.3963 19.2624 62.0536 17.3442ZM69.2948 38.8759C69.2468 36.5262 69.6784 32.4979 72.6996 28.4218C73.9464 28.6136 75.1932 28.7575 76.488 28.8054C76.9675 30.0043 77.4951 31.2032 78.0705 32.2582C75.1932 36.4302 71.5486 38.1566 69.2948 38.8759ZM91.9774 38.7321C89.7236 38.0607 86.031 36.3823 83.1058 32.2102C83.6812 31.1073 84.2087 29.9563 84.6403 28.7095C85.9351 28.6616 87.2299 28.5177 88.4767 28.2779C91.5458 32.3541 92.0254 36.3823 91.9774 38.7321ZM91.8336 29.6686C91.1622 28.4218 90.347 27.175 89.292 25.9281C87.5656 26.3597 85.5994 26.5995 83.3935 26.5995C83.2976 26.5995 83.2017 26.5995 83.1058 26.5995C82.4344 28.8054 81.5712 30.6757 80.6121 32.2582C81.3794 33.505 82.1946 34.56 83.0578 35.4711C82.3385 37.5812 81.3794 39.1637 80.5642 40.2187C79.7969 39.1637 78.8378 37.5812 78.1664 35.5191C79.0296 34.56 79.8448 33.505 80.6121 32.2102C79.653 30.6277 78.7419 28.7575 78.0705 26.5515C77.8787 26.5515 77.6389 26.5515 77.4471 26.5515C75.385 26.5515 73.5148 26.3118 71.8843 25.9281C70.8773 27.127 70.062 28.3738 69.4386 29.5727C67.1847 29.5727 65.3625 29.1411 64.1156 28.6616C64.9309 27.5106 66.2256 26.024 68.1918 24.6813C69.2948 25.1608 70.5416 25.5924 71.9323 25.9281C73.1791 24.4415 74.7137 23.0029 76.6319 21.6122C75.9125 19.5022 75.5289 17.536 75.385 15.7617C77.0635 16.481 78.8378 17.4401 80.6601 18.7349C82.5303 17.3442 84.4006 16.2892 86.1269 15.5699C85.9831 17.4401 85.5515 19.5022 84.8321 21.7081C86.7024 23.0508 88.189 24.4415 89.3879 25.8322C90.7786 25.4965 92.0733 25.017 93.1763 24.5374C95.2384 25.9281 96.629 27.5106 97.4922 28.6616C96.1015 29.237 94.1833 29.6686 91.8336 29.6686Z" fill="#205A41"/>
<path d="M19.5177 16.3851V18.4951C17.8393 18.4951 16.2567 17.9196 15.4895 16.6728C14.7222 16.9605 13.907 17.1044 13.0917 17.1044C10.0706 17.1044 7.9126 15.5219 7.9126 12.6925C7.9126 9.91116 10.1185 8.08887 13.2835 8.08887H14.962V7.8491C14.962 7.56137 15.1058 7.41751 15.3936 7.41751H16.5924C16.8802 7.41751 17.024 7.56137 17.024 7.8491V13.8914C17.024 15.8096 18.127 16.3851 19.5177 16.3851ZM14.914 14.7066V10.2468H12.8999C11.1735 10.2468 9.97466 11.11 9.97466 12.6446C9.97466 14.1791 11.1256 14.9944 13.1397 14.9944C13.7151 14.9944 14.3386 14.8985 14.914 14.7066ZM10.4542 4.20453C10.4542 3.53316 10.9817 3.00566 11.6531 3.00566C12.3244 3.00566 12.852 3.53316 12.852 4.20453C12.852 4.8759 12.3244 5.4034 11.6531 5.4034C10.9817 5.45136 10.4542 4.92385 10.4542 4.20453ZM13.6192 4.20453C13.6192 3.53316 14.1467 3.00566 14.8181 3.00566C15.4895 3.00566 16.017 3.53316 16.017 4.20453C16.017 4.8759 15.4895 5.4034 14.8181 5.4034C14.1467 5.45136 13.6192 4.92385 13.6192 4.20453Z" fill="#205A41"/>
<path d="M30.4513 16.8167V18.0636C30.4513 18.3513 30.3075 18.4952 30.0198 18.4952L19.5177 18.4951C18.9902 18.4951 18.7504 18.3513 18.7504 17.4881C18.7504 16.577 18.9902 16.3851 19.5177 16.3851L22.6347 16.3851C21.6756 15.4261 21.3879 14.2751 21.3879 13.1722C21.3879 10.5347 23.2581 8.13691 26.9506 8.13691H28.9647C29.2525 8.13691 29.3963 8.28078 29.3963 8.56851V9.76738C29.3963 10.0551 29.2525 10.199 28.9647 10.199H26.7109C24.6488 10.199 23.4499 11.3499 23.4499 13.2201C23.4499 14.467 24.2652 16.3372 27.0945 16.3372H29.9718C30.3075 16.3851 30.4513 16.529 30.4513 16.8167Z" fill="#205A41"/>
<path d="M32.2737 18.0635V4.39637C32.2737 4.10864 32.4176 3.96477 32.7053 3.96477H33.9042C34.1919 3.96477 34.3358 4.10864 34.3358 4.39637V18.0635C34.3358 18.3512 34.1919 18.4951 33.9042 18.4951H32.7053C32.4655 18.4951 32.2737 18.3512 32.2737 18.0635Z" fill="#205A41"/>
<path d="M45.653 13.1721V18.0635C45.653 18.3512 45.5091 18.4951 45.2214 18.4951H36.6854C36.3977 18.4951 36.2538 18.3512 36.2538 18.0635V16.8167C36.2538 16.5289 36.3977 16.3851 36.6854 16.3851H43.543V13.268C43.543 11.3978 42.3441 10.2468 40.2821 10.2468H38.268C37.9802 10.2468 37.8364 10.103 37.8364 9.81525V8.61638C37.8364 8.32865 37.9802 8.18478 38.268 8.18478H40.0902C43.5909 8.13683 45.653 9.95911 45.653 13.1721ZM39.323 4.20453C39.323 3.53316 39.8505 3.00566 40.5698 3.00566C41.2412 3.00566 41.7687 3.53316 41.7687 4.20453C41.7687 4.8759 41.2412 5.4034 40.5698 5.4034C39.8505 5.45136 39.323 4.92385 39.323 4.20453Z" fill="#205A41"/>
<path d="M50.0649 20.749V21.0367C50.0649 21.1326 50.0169 21.1806 49.921 21.1806H48.0987C48.0028 21.1806 47.9549 21.1326 47.9549 21.0367V20.749C47.9549 20.6531 48.0028 20.6051 48.0987 20.6051H48.5783C48.4344 20.4612 48.4344 20.3174 48.4344 20.1256C48.4344 19.646 48.818 19.2144 49.4894 19.2144H49.8251C49.921 19.2144 49.969 19.2624 49.969 19.3583V19.646C49.969 19.7419 49.921 19.7899 49.8251 19.7899H49.4894C49.1537 19.7899 48.9619 19.9817 48.9619 20.2215C48.9619 20.5092 49.1537 20.6051 49.5374 20.6051H49.921C50.0169 20.6051 50.0649 20.701 50.0649 20.749ZM47.9069 18.0635V4.39637C47.9069 4.10864 48.0508 3.96477 48.3385 3.96477H49.5374C49.8251 3.96477 49.969 4.10864 49.969 4.39637V18.0635C49.969 18.3512 49.8251 18.4951 49.5374 18.4951H48.3385C48.0987 18.4951 47.9069 18.3512 47.9069 18.0635Z" fill="#205A41"/>
<path d="M0 39.4993C0 38.3004 0.287729 36.9577 0.623414 35.9506C0.767278 35.6629 0.959098 35.567 1.19887 35.6149L2.30183 35.8547C2.58956 35.9027 2.68547 36.1425 2.58956 36.3822C2.30183 37.4372 2.11002 38.3004 2.11002 39.2116C2.11002 41.8491 3.9323 42.9041 6.23414 42.9041C9.01552 42.9041 10.4062 41.4175 10.4062 38.6841V32.8815C10.4062 32.5938 10.5501 32.4499 10.8378 32.4499H12.0367C12.3244 32.4499 12.4683 32.5938 12.4683 32.8815V38.6841C12.4683 42.8561 10.0226 45.11 6.18618 45.11C2.63752 45.0621 0 42.952 0 39.4993ZM5.08322 30.3399C5.08322 29.6685 5.61072 29.141 6.33005 29.141C7.00141 29.141 7.52892 29.6685 7.52892 30.3399C7.52892 31.0113 7.00141 31.5388 6.33005 31.5388C5.61072 31.5388 5.08322 31.0113 5.08322 30.3399Z" fill="#205A41"/>
<path d="M14.7701 24.1058C14.3385 24.1058 14.0029 24.2976 13.6192 24.5854C13.4754 24.6813 13.3315 24.6813 13.2356 24.5374L12.8519 23.962C12.756 23.8181 12.756 23.6742 12.8519 23.5304C13.3315 23.0508 14.0508 22.6672 14.7222 22.6672C15.7772 22.6672 16.6883 23.4345 17.9352 23.4345C18.1749 23.4345 18.3188 23.4345 18.5106 23.3385C18.7024 23.2906 18.7984 23.3865 18.8463 23.5783L19.0381 24.2017C19.0861 24.3936 19.0381 24.5374 18.8463 24.6333C18.6065 24.7772 18.3188 24.8251 17.9831 24.8251C16.5924 24.8731 15.6333 24.1058 14.7701 24.1058ZM15.0099 39.6912V26.5036C15.0099 26.2158 15.1538 26.072 15.4415 26.072H16.6404C16.9281 26.072 17.072 26.2158 17.072 26.5036V39.6912C17.072 39.9789 16.9281 40.1228 16.6404 40.1228H15.4415C15.1538 40.1228 15.0099 39.9789 15.0099 39.6912Z" fill="#205A41"/>
<path d="M26.3273 38.0127V40.1228H26.0395C25.1284 40.1228 24.4091 39.835 23.8816 39.3555V39.9789C23.8816 43.7194 22.7307 45.0621 19.3738 45.0621C19.0861 45.0621 18.9422 44.9182 18.9422 44.6305V43.3837C18.9422 43.096 19.0861 42.9521 19.3738 42.9521H19.4697C21.4359 42.9521 21.7716 42.1369 21.7716 40.5543V31.1072C21.7716 30.8195 21.9154 30.6756 22.2032 30.6756H23.402C23.6898 30.6756 23.8336 30.8195 23.8336 31.1072V35.615C23.8336 37.3414 24.8407 38.0127 26.0875 38.0127H26.3273Z" fill="#205A41"/>
<path d="M40.0902 38.0127V40.1227L26.3273 40.1228C25.7998 40.1228 25.5599 39.9789 25.5599 39.1157C25.5599 38.2046 25.7998 38.0127 26.3273 38.0127L29.4442 38.0127C28.8208 37.0536 28.5811 35.9507 28.5811 34.9436C28.5811 32.3541 30.4033 29.7645 33.5684 29.7645C36.7334 29.7645 38.5557 32.3541 38.5557 34.9436C38.5557 35.9027 38.3159 37.0536 37.6925 38.0127H40.0902ZM33.5204 38.0127C36.062 38.0127 36.3977 35.9027 36.3977 34.9916C36.3977 33.5529 35.5345 31.9225 33.5204 31.9225C31.5063 31.9225 30.6431 33.6009 30.6431 34.9916C30.6911 35.9027 30.9788 38.0127 33.5204 38.0127ZM30.739 25.8802C30.739 25.2088 31.2665 24.6813 31.9379 24.6813C32.6093 24.6813 33.1368 25.2088 33.1368 25.8802C33.1368 26.5515 32.6093 27.079 31.9379 27.079C31.2665 27.079 30.739 26.5515 30.739 25.8802ZM33.9041 25.8802C33.9041 25.2088 34.4316 24.6813 35.1029 24.6813C35.7743 24.6813 36.3018 25.2088 36.3018 25.8802C36.3018 26.5515 35.7743 27.079 35.1029 27.079C34.4316 27.079 33.9041 26.5515 33.9041 25.8802Z" fill="#205A41"/>
<path d="M45.5572 26.0241V39.6912C45.5572 39.9789 45.4133 40.1228 45.1256 40.1228L40.0902 40.1227C39.5627 40.1227 39.3231 39.9789 39.3231 39.1157C39.3231 38.2046 39.5627 38.0127 40.0902 38.0127L43.4951 38.0128V26.0241C43.4951 25.7363 43.639 25.5925 43.9267 25.5925H45.1256C45.4133 25.5925 45.5572 25.7363 45.5572 26.0241Z" fill="#205A41"/>
<path d="M47.9069 39.6912V26.0241C47.9069 25.7363 48.0508 25.5925 48.3385 25.5925H49.5374C49.8251 25.5925 49.969 25.7363 49.969 26.0241V39.6912C49.969 39.9789 49.8251 40.1228 49.5374 40.1228H48.3385C48.0987 40.1228 47.9069 39.9789 47.9069 39.6912Z" fill="#205A41"/>
</svg>
