<svg width="102" height="49" viewBox="0 0 102 49" fill="none" xmlns="http://www.w3.org/2000/svg">
<path d="M14.0966 47.1907C14.3258 47.5918 14.1539 47.9929 13.6382 47.9929H11.7472C11.3461 47.9929 11.0022 47.821 10.8303 47.4772L6.18876 39.512H2.92247V47.3626C2.92247 47.7637 2.69326 47.9356 2.34944 47.9356H0.573034C0.17191 47.9356 0 47.7064 0 47.3626V28.1087C0 27.7075 0.229213 27.5356 0.573034 27.5356H7.22022C11.9764 27.5356 14.4978 29.9997 14.4978 33.4379C14.4978 36.5323 12.664 38.7098 9.39775 39.3401L14.0966 47.1907ZM2.92247 36.9334H7.10562C10.2 36.9334 11.518 35.5008 11.518 33.3806C11.518 31.375 10.1427 30.057 7.22022 30.057H2.92247V36.9334Z" fill="#FF4538"/>
<path d="M28.7663 38.5951V47.4199C28.7663 47.821 28.5371 47.9929 28.1932 47.9929H26.646C26.2449 47.9929 26.073 47.7637 26.073 47.4199V45.93C24.9269 47.6491 23.2078 48.394 21.2022 48.394C18.2225 48.394 16.1022 46.9041 16.1022 43.867C16.1022 40.7727 18.2798 38.9963 23.2078 38.9963L25.9011 38.939V38.4805C25.9011 36.5322 24.6977 35.2142 22.4056 35.2142C20.6865 35.2142 19.5977 35.8446 18.5663 36.6468C18.2225 36.9333 17.9359 36.876 17.7067 36.5895L16.9045 35.6727C16.6753 35.3861 16.6753 35.0996 16.9618 34.8131C18.0505 33.7817 19.8843 32.7502 22.4056 32.7502C26.4168 32.6929 28.7663 35.0996 28.7663 38.5951ZM25.9011 41.9187V41.1738L23.3798 41.2311C20.1135 41.2884 18.9101 42.2052 18.9101 43.867C18.9101 45.2423 19.8843 45.9873 21.6034 45.9873C23.6663 45.9873 25.9011 44.6693 25.9011 41.9187Z" fill="#FF4538"/>
<path d="M45.7281 28.1087V47.3626C45.7281 47.7637 45.4989 47.9356 45.155 47.9356H43.6078C43.2067 47.9356 43.0348 47.7064 43.0348 47.3626V46.0446C41.946 47.4772 40.3416 48.3368 38.2786 48.3368C34.0955 48.3368 31.4022 45.1278 31.4022 40.5435C31.4022 35.8446 34.6112 32.7502 38.5652 32.7502C40.5135 32.7502 41.946 33.4952 42.9202 34.6986V28.1087C42.9202 27.7075 43.1494 27.5356 43.4932 27.5356H45.155C45.4989 27.5356 45.7281 27.7649 45.7281 28.1087ZM42.8629 40.5435C42.8629 37.3918 41.6595 35.2143 38.5078 35.2143C36.0438 35.2143 34.2674 37.3918 34.2674 40.5435C34.2674 43.6952 35.8719 45.8727 38.5078 45.8727C41.4876 45.8727 42.8629 43.6952 42.8629 40.5435Z" fill="#FF4538"/>
<path d="M48.9371 29.0827C48.9371 28.0513 49.682 27.1917 50.8854 27.1917C52.0888 27.1917 52.8337 28.1086 52.8337 29.0827C52.8337 30.1715 52.0888 31.0311 50.8854 31.0311C49.682 31.0311 48.9371 30.1715 48.9371 29.0827ZM49.4528 47.4198V33.667C49.4528 33.2659 49.682 33.094 50.0259 33.094H51.6876C52.0888 33.094 52.2607 33.3232 52.2607 33.667V47.4198C52.2607 47.8209 52.0315 47.9929 51.6876 47.9929H50.0259C49.682 47.9929 49.4528 47.7636 49.4528 47.4198Z" fill="#FF4538"/>
<path d="M55.0113 40.5434C55.0113 35.9592 57.9337 32.7502 62.2888 32.7502C66.8158 32.7502 69.5663 36.2457 69.5663 40.5434C69.5663 45.1277 66.6439 48.3367 62.2888 48.3367C57.8191 48.3367 55.0113 44.8412 55.0113 40.5434ZM66.7012 40.5434C66.7012 37.3918 65.154 35.2142 62.2888 35.2142C59.4236 35.2142 57.8764 37.3918 57.8764 40.5434C57.8764 43.6951 59.4236 45.8727 62.2888 45.8727C65.154 45.8727 66.7012 43.6951 66.7012 40.5434Z" fill="#FF4538"/>
<path d="M85.9551 0.0299988C77.073 0.0299988 69.8528 7.25022 69.8528 16.1322V16.7626H79.3079V16.1322C79.3079 12.4648 82.2876 9.48506 85.9551 9.48506C89.6225 9.48506 92.6023 12.4648 92.6023 16.1322C92.6023 16.8772 92.4876 17.6221 92.2011 18.3098C91.7427 20.1435 90.7685 21.8626 88.9921 24.3839L71.6865 48.3367H82.8034L96.8427 29.1401C99.4787 25.53 101.255 22.2637 101.828 18.3098C101.943 17.5648 102 16.8772 102 16.1322C102 7.25022 94.7798 0.0299988 85.9551 0.0299988Z" fill="#FF4538"/>
<path d="M94.264 39.684L88.1326 48.2795L88.018 48.3368H101.828V39.684H94.264Z" fill="#FF4538"/>
</svg>
