<svg width="103" height="58" viewBox="0 0 103 58" fill="none" xmlns="http://www.w3.org/2000/svg">
<path d="M102.067 20.3067H89.8667V57.7734H102.067V20.3067Z" fill="#D6006D"/>
<path d="M86.4001 0.440002L76.8001 16.5067H89.8668L99.4668 0.440002H86.4001Z" fill="#D6006D"/>
<path d="M16.4667 55.3733C16.7333 55.8399 16.5333 56.3066 15.9333 56.3066H13.7333C13.2667 56.3066 12.8667 56.1066 12.6667 55.7066L7.26667 46.5733H3.4V55.6399C3.4 56.1066 3.13333 56.3066 2.73333 56.3066H0.666667C0.2 56.3066 0 56.0399 0 55.6399V33.5066C0 33.0399 0.266667 32.8399 0.666667 32.8399H8.4C14 32.8399 16.8667 35.7066 16.8667 39.5733C16.8667 43.1066 14.7333 45.5733 10.9333 46.3733L16.4667 55.3733ZM3.4 43.6399H8.33333C11.9333 43.6399 13.4667 41.9733 13.4667 39.5733C13.4667 37.2399 11.8667 35.7733 8.46667 35.7733H3.4V43.6399Z" fill="#D6006D"/>
<path d="M33.8667 45.5067V55.64C33.8667 56.1067 33.6 56.3067 33.2 56.3067H31.4C30.9333 56.3067 30.7333 56.04 30.7333 55.64V53.9067C29.4 55.9067 27.4 56.7067 25.0667 56.7067C21.6 56.7067 19.1333 54.9734 19.1333 51.5067C19.1333 47.9734 21.6667 45.9067 27.4 45.9067L30.6 45.84V45.3067C30.6 43.04 29.2 41.5734 26.5333 41.5734C24.5333 41.5734 23.2667 42.3067 22.0667 43.24C21.6667 43.5734 21.3333 43.5067 21.0667 43.1733L20.1333 42.1067C19.8667 41.7734 19.8667 41.44 20.1333 41.1067C21.4 39.9734 23.5333 38.7067 26.5333 38.7067C31.2 38.7734 33.8667 41.5067 33.8667 45.5067ZM30.6 49.3734V48.5734L27.6667 48.64C23.8667 48.7067 22.4667 49.7067 22.4667 51.64C22.4667 53.24 23.6 54.1067 25.6667 54.1067C27.9333 54.04 30.6 52.5067 30.6 49.3734Z" fill="#D6006D"/>
<path d="M53.8 33.5066V55.6399C53.8 56.1066 53.5333 56.3066 53.1333 56.3066H51.3333C50.8666 56.3066 50.6666 56.0399 50.6666 55.6399V54.1066C49.4 55.7733 47.5333 56.7066 45.0666 56.7066C40.1333 56.7066 37.0666 53.0399 37.0666 47.7066C37.0666 42.3066 40.8 38.7066 45.4 38.7066C47.6666 38.7066 49.3333 39.5066 50.4666 40.9733V33.5066C50.4666 33.0399 50.7333 32.8399 51.1333 32.8399H53.0666C53.5333 32.8399 53.8 33.0399 53.8 33.5066ZM50.4666 47.7733C50.4666 44.1733 49.0666 41.7066 45.4 41.7066C42.5333 41.7066 40.4 44.2399 40.4 47.7733C40.4 51.3733 42.2666 53.8399 45.4 53.8399C48.8666 53.8399 50.4666 51.3733 50.4666 47.7733Z" fill="#D6006D"/>
<path d="M58.0001 34.64C58.0001 33.5067 58.8667 32.44 60.2667 32.44C61.6667 32.44 62.5334 33.44 62.5334 34.64C62.5334 35.9067 61.6667 36.84 60.2667 36.84C58.8667 36.84 58.0001 35.9067 58.0001 34.64ZM58.6001 55.64V39.9067C58.6001 39.44 58.8667 39.24 59.2667 39.24H61.2001C61.6667 39.24 61.8667 39.5067 61.8667 39.9067V55.64C61.8667 56.1067 61.6001 56.3067 61.2001 56.3067H59.2667C58.8667 56.3067 58.6001 56.1067 58.6001 55.64Z" fill="#D6006D"/>
<path d="M65.4666 47.7733C65.4666 42.5066 68.8667 38.7733 74 38.7733C79.2666 38.7733 82.5333 42.84 82.5333 47.7733C82.5333 53.04 79.1333 56.7733 74 56.7733C68.7333 56.7733 65.4666 52.7066 65.4666 47.7733ZM79.0666 47.7733C79.0666 44.1733 77.2666 41.7066 73.9333 41.7066C70.6 41.7066 68.8 44.24 68.8 47.7733C68.8 51.3733 70.6 53.84 73.9333 53.84C77.3333 53.84 79.0666 51.3733 79.0666 47.7733Z" fill="#D6006D"/>
</svg>
