<svg width="102" height="76" viewBox="0 0 102 76" fill="none" xmlns="http://www.w3.org/2000/svg">
<path d="M73.9802 41.6349L85.4312 33.3878C85.4906 33.3284 85.4906 33.2691 85.5499 33.2691L101.748 21.64C102.222 21.284 101.985 20.572 101.392 20.572L81.3966 20.5127C81.1593 20.5127 80.922 20.3347 80.8627 20.0974L74.7515 1.1705C74.5735 0.636507 73.8022 0.636507 73.6242 1.1705L67.3943 20.0974C67.335 20.3347 67.0976 20.5127 66.8603 20.5127L46.8654 20.4534C46.3315 20.4534 46.0941 21.1654 46.5094 21.5214L62.6477 33.2691C62.8257 33.3878 62.9444 33.6844 62.8851 33.9217L56.6552 52.73C56.4772 53.264 57.0705 53.6793 57.5452 53.3826L73.7428 41.7536C73.8022 41.6942 73.9208 41.6942 73.9802 41.6349Z" fill="#008FBF"/>
<path d="M86.3805 38.5497L78.1333 44.3643L90.5337 53.5014C91.0084 53.8574 91.6017 53.3827 91.4237 52.8487L86.3805 38.5497Z" fill="#008FBF"/>
<path d="M0.171199 47.6868C-0.0661292 47.3902 -0.0661292 47.0935 0.230531 46.8562L1.29851 45.7289C1.59517 45.4916 1.83249 45.4916 2.06982 45.7289C3.73112 47.6275 5.39241 48.3395 7.46903 48.3395C9.96098 48.3395 11.5036 46.9749 11.5036 45.0762C11.5036 39.7364 0.645855 43.8896 0.645855 35.7611C0.645855 33.0318 3.07847 29.9466 7.52836 29.9466C10.6136 29.9466 12.7496 31.1926 14.1735 32.9725C14.4109 33.2692 14.4109 33.5658 14.0549 33.8625L13.0462 34.8118C12.7496 35.0491 12.4529 35.0491 12.2156 34.7525C10.851 33.3285 9.48632 32.5572 7.52836 32.5572C5.33308 32.6165 3.55312 33.8625 3.55312 35.7018C3.55312 40.9823 14.4109 36.9478 14.4109 45.0169C14.4109 48.3395 11.6816 51.0094 7.46903 51.0094C4.26511 51.0094 1.95116 49.7041 0.171199 47.6868Z" fill="#008FBF"/>
<path d="M26.7519 49.8821C26.0399 50.4755 24.9126 50.9501 23.4293 50.9501C20.166 50.9501 18.6234 49.0515 18.6234 45.7289V38.3717H16.5468C16.1314 38.3717 15.9534 38.1938 15.9534 37.7784V36.4138C15.9534 36.0578 16.1908 35.8205 16.5468 35.8205H18.6234V31.7859C18.6234 31.4299 18.8607 31.1926 19.2167 31.1926H20.8187C21.1747 31.1926 21.412 31.3706 21.412 31.7859V35.8205H25.9212C26.3365 35.8205 26.5145 35.9985 26.5145 36.4138V37.7784C26.5145 38.1344 26.3365 38.3717 25.9212 38.3717H21.412V45.4323C21.412 47.7462 22.2426 48.4582 23.5479 48.4582C24.2599 48.4582 24.8532 48.2802 25.4466 47.9242C25.7432 47.6869 26.0399 47.7462 26.2772 48.1022L26.8112 48.9328C27.0485 49.2888 26.9892 49.5855 26.7519 49.8821Z" fill="#008FBF"/>
<path d="M40.7543 41.2791V50.0009C40.7543 50.3569 40.5763 50.5942 40.1609 50.5942H38.6776C38.2623 50.5942 38.0843 50.4162 38.0843 50.0009V48.5176C36.957 50.2382 35.2364 50.9502 33.2191 50.9502C30.2525 50.9502 28.1759 49.4669 28.1759 46.5003C28.1759 43.4744 30.3712 41.6944 35.2364 41.6351H37.9657V41.2197C37.9657 39.2618 36.779 38.0158 34.5244 38.0158C32.8038 38.0158 31.7358 38.6091 30.7272 39.4398C30.3712 39.6771 30.0745 39.6771 29.8372 39.3804L29.0659 38.4905C28.8285 38.1938 28.8285 37.8971 29.1252 37.6598C30.1932 36.6512 31.9731 35.5832 34.5244 35.5832C38.4403 35.5239 40.7543 37.8971 40.7543 41.2791ZM37.9657 44.6017V43.8897H35.4737C32.2105 43.949 31.0238 44.839 31.0238 46.5003C31.0238 47.8649 31.9731 48.6362 33.7531 48.6362C35.711 48.6362 37.9657 47.3309 37.9657 44.6017Z" fill="#008FBF"/>
<path d="M52.9766 36.2358V37.8971C52.9766 38.2531 52.7393 38.4311 52.3833 38.4311C49.5354 38.3718 47.3401 40.0331 47.3401 43.2963V50.0008C47.3401 50.3568 47.1621 50.5941 46.7468 50.5941H45.0855C44.6701 50.5941 44.4921 50.4162 44.4921 50.0008V36.4731C44.4921 36.1171 44.6701 35.8798 45.0855 35.8798H46.6281C46.9841 35.8798 47.2214 36.0578 47.2214 36.4731V38.5498C48.2301 36.6511 49.9507 35.4645 52.3833 35.5832C52.7393 35.6425 52.9766 35.8798 52.9766 36.2358Z" fill="#008FBF"/>
<path d="M29.1252 55.3406V56.7053C29.1252 57.0613 28.8879 57.2986 28.5319 57.2986H20.5814V63.3505H27.6419C28.0572 63.3505 28.2352 63.5285 28.2352 63.9438V65.3084C28.2352 65.6644 28.0572 65.9017 27.6419 65.9017H20.5814V74.4455C20.5814 74.8015 20.3441 75.0389 19.9881 75.0389H18.3268C17.9115 75.0389 17.7335 74.8609 17.7335 74.4455V55.3406C17.7335 54.9847 17.9708 54.7473 18.3268 54.7473H28.5912C28.9472 54.7473 29.1252 54.9847 29.1252 55.3406Z" fill="#008FBF"/>
<path d="M51.0186 55.3406V74.4455C51.0186 74.8015 50.7813 75.0389 50.4253 75.0389H48.7047C48.2894 75.0389 48.1114 74.8609 48.1114 74.4455V60.4432L42.7122 70.055C42.3562 70.6483 41.5849 70.7076 41.2882 70.055L35.889 60.4432V74.4455C35.889 74.8015 35.6517 75.0389 35.2957 75.0389H33.6344C33.219 75.0389 33.0411 74.8609 33.0411 74.4455V55.3406C33.0411 54.9847 33.219 54.7473 33.6344 54.7473H35.2957C35.6517 54.7473 35.9483 54.9253 36.1856 55.2813L42.0595 66.0204L47.874 55.2813C48.052 54.9253 48.3487 54.7473 48.764 54.7473H50.4253C50.7813 54.7473 51.0186 54.9847 51.0186 55.3406Z" fill="#008FBF"/>
</svg>
