<svg width="102" height="52" viewBox="0 0 102 52" fill="none" xmlns="http://www.w3.org/2000/svg">
<path d="M75.6211 21.8433C75.6211 22.3532 75.5871 22.6592 75.5191 22.8291C75.3831 23.1351 75.0432 23.271 74.5673 23.271H73.5135H73.2755H70.794H70.4881H68.1085H67.8026H65.4231H65.1171H62.7376H62.3977C61.1739 23.271 60.2901 22.2512 60.0861 20.5856H58.8284C58.2505 20.5856 57.8085 20.5516 57.4686 20.5516H57.2647C56.7548 20.3816 56.3128 19.5998 56.3128 18.8519C56.3128 17.9001 56.8567 17.2202 57.6726 17.2202C58.1825 17.2202 58.5904 17.4582 58.7944 17.9681L59.9501 17.4242C59.4742 16.4384 58.7264 15.9625 57.7066 15.9625C56.1089 15.9625 54.8851 17.1522 54.8851 18.8859C54.8851 19.5318 55.0551 20.1097 55.395 20.6196C53.8313 20.8915 52.8115 22.1493 52.8115 23.8489C52.8115 25.8885 54.2732 27.1123 56.5168 27.1123H58.8623V25.5826H56.4148C55.0891 25.5826 54.2732 24.9367 54.2732 23.8829C54.2732 22.6931 54.9871 22.0813 56.4148 22.0813H58.6584C59.0663 23.611 60.63 24.8347 62.3637 24.8347H62.7036H65.0831H65.3891H67.7686H68.0745H70.4541H70.76H73.2415H73.4795H74.8732C76.4029 24.8347 77.1508 24.0189 77.1508 22.3532V18.6139H75.6211V21.8433Z" fill="#231F20"/>
<path d="M77.0826 26.2966H75.5869V27.8263H77.0826V26.2966Z" fill="#231F20"/>
<path d="M74.4991 26.2966H73.0034V27.8263H74.4991V26.2966Z" fill="#231F20"/>
<path d="M81.5699 15.8607H80.0742V17.3904H81.5699V15.8607Z" fill="#231F20"/>
<path d="M80.074 23.8489C80.074 25.1747 79.4282 25.7866 78.1704 25.7866V27.1123C80.5159 27.1123 81.6037 26.0925 81.6037 23.611V18.614H80.074V23.8489Z" fill="#231F20"/>
<path d="M100.436 18.6141V21.8434C100.436 22.3533 100.402 22.6593 100.334 22.8292C100.198 23.1352 99.8582 23.2712 99.3483 23.2712H98.2945H98.0566H96.0849H95.779H93.3655H93.0595H90.68H90.3401H88.8104V21.6735C88.8104 19.8718 87.6206 18.5801 85.9549 18.5801C84.2213 18.5801 82.8955 19.8038 82.8955 21.6395C82.8955 23.4411 84.2213 24.8349 85.8869 24.8349H87.3486C87.1447 25.5487 86.6348 25.8887 85.8189 25.8887V27.1124C87.6206 27.1124 88.6064 26.3646 88.8104 24.8349H90.3401H90.68H93.0595H93.3655H95.779H96.0849H98.0566H98.2945H99.6882C101.218 24.8349 102 24.019 102 22.3533V18.6141H100.436V18.6141ZM87.2807 23.2712H85.9209C85.1051 23.2712 84.4592 22.4893 84.4592 21.5715C84.4592 20.6537 85.0371 20.0078 85.9549 20.0078C86.7368 20.0078 87.2127 20.5857 87.3146 21.4015V23.2712H87.2807Z" fill="#231F20"/>
<path d="M101.932 15.8607H100.436V17.3904H101.932V15.8607Z" fill="#231F20"/>
<path d="M99.3146 15.8607H97.8188V17.3904H99.3146V15.8607Z" fill="#231F20"/>
<path d="M16.5063 6.85232L16.6423 6.81833H16.7103C16.6083 6.78434 17.6621 7.05628 17.2202 6.9543L17.2542 6.9883L17.9341 7.63417L19.3278 8.95991L22.1832 11.6114C22.3532 11.6794 22.8291 12.1893 23.1011 12.3593C22.3192 11.6114 21.6733 10.9995 20.8575 10.2857L22.4552 11.7134C21.1294 10.5236 19.6677 9.23186 18.206 7.94011C17.9341 7.70216 17.7301 7.46421 17.4582 7.19226L17.2542 6.9883L17.1862 6.9543C17.6961 7.05628 16.5063 6.78434 16.6083 6.81833H16.5743L16.4384 6.85232C16.2344 6.92031 16.0304 6.9883 15.7925 7.09028L16.2684 6.9883L16.5063 6.85232Z" fill="#A3CD39"/>
<path d="M14.8752 7.63416C13.5494 7.94009 12.1897 8.34801 10.8979 8.68795C12.0877 8.38201 13.2775 8.07607 14.4333 7.80412L14.8752 7.63416Z" fill="#A3CD39"/>
<path d="M17.7642 8.04206C18.2061 8.44998 18.6141 8.8579 19.056 9.26582C18.6141 8.8579 18.1721 8.44998 17.7642 8.04206C17.5943 7.87209 17.3903 7.63414 17.1523 7.46417V7.49817C17.3903 7.66813 17.5943 7.90609 17.7642 8.04206Z" fill="#A3CD39"/>
<path d="M16.1328 7.43018C16.3708 7.26022 16.6087 7.26022 16.8467 7.3622C16.6087 7.26022 16.3708 7.26022 16.1328 7.43018Z" fill="#A3CD39"/>
<path d="M10.8299 21.9114H10.7959C10.184 21.8094 11.6457 22.0814 11.5098 22.0474H11.4758L11.4078 21.9794C11.3398 21.9114 11.2718 21.8434 11.2038 21.7755L10.9999 21.8774L10.8299 21.9114Z" fill="#A3CD39"/>
<path d="M21.4697 17.9681L21.7416 17.7981C21.5377 17.8321 20.8578 18.1041 20.4839 18.24C20.6198 18.138 20.7898 18.1041 20.9938 18.0361C20.8238 18.1041 20.8238 18.1041 20.6198 18.138C21.9116 17.5262 24.4611 16.5404 24.1551 16.4724C23.8492 16.4384 21.5716 17.4582 19.906 18.172C21.2657 17.4242 22.9654 16.7443 24.3931 16.0645C24.0532 16.2004 23.8152 16.2344 23.3393 16.4384L21.4357 17.2202C20.8238 17.4922 20.2799 17.7981 19.668 17.9681L19.498 18.0361L19.1921 18.206C18.6822 18.41 18.5802 18.41 18.0363 18.7159C18.0363 18.7159 18.0363 18.6819 18.0703 18.6819C17.9004 18.7839 17.6284 18.8859 17.4584 18.9879C17.4584 18.9879 17.4245 18.9539 17.3905 18.9539C16.1667 19.4638 14.9429 20.0077 13.7192 20.5516L12.6314 21.0275L11.6796 21.4694C11.5096 21.5374 11.4076 21.6394 11.3056 21.7074L11.2037 21.7413C11.2717 21.8093 11.3396 21.8773 11.4076 21.9453L11.4756 22.0133H11.5096C11.6456 22.0473 10.1839 21.7753 10.7957 21.8773H10.8297L10.9997 21.8093L11.2037 21.7074C11.1017 21.6054 10.9997 21.4694 10.8977 21.3674C10.8297 21.3334 10.7278 21.1975 10.5918 21.0955L10.3878 20.8235L10.1839 20.6196L9.43601 20.9595C9.67396 21.1975 9.91192 21.4354 10.1159 21.6734C10.0139 21.5714 9.94591 21.5034 9.87792 21.4694L10.1159 21.7074L10.7618 22.3192L10.1159 21.7074L9.84393 21.4694C9.77594 21.4354 9.74195 21.3674 9.63997 21.2654C9.53799 21.1635 9.47 21.0955 9.36802 20.9935L9.16406 21.0955C9.30004 21.1975 9.40202 21.3334 9.53799 21.4354L10.2858 22.1833L10.6598 22.5572L10.7618 22.6592C11.6116 22.8291 11.0677 22.6592 11.3056 22.6932L11.5436 22.5912L13.5492 21.6394C14.8749 20.9935 16.2347 20.3816 17.5604 19.7697C20.2119 18.546 22.7614 17.4242 24.971 16.6423C24.0192 16.9823 22.3875 17.6961 21.4697 17.9681Z" fill="#A3CD39"/>
<path d="M1.41339 11.4075L3.11306 10.9316L1.37939 11.3735L1.41339 11.4075Z" fill="#A3CD39"/>
<path d="M0.835668 12.5292C0.665701 12.3592 0.529727 12.1893 0.35976 12.0193L0.699694 12.3592L0.427747 12.0533L0.393754 12.0193L0.35976 11.9853C0.223787 12.4952 0.563721 11.2715 0.529727 11.4074L0.631707 11.3734L0.835668 11.3394L1.14161 11.2375C1.24359 10.9315 1.27758 10.7616 1.14161 11.2035C1.14161 11.2035 1.14161 11.2035 1.14161 11.1695C1.1756 11.0675 1.20959 10.9655 1.14161 11.1695C1.24359 10.8295 1.27758 10.6596 1.14161 11.1355L1.1756 11.1695L1.54953 11.0675L3.14722 10.7276L6.20662 9.91172C5.08484 10.1157 3.45316 10.6936 2.1954 10.9315C6.61454 9.67377 11.5096 8.45 15.8267 7.09027C14.2631 7.49819 12.7334 7.90611 11.1357 8.28004C11.4416 8.21205 11.7815 8.11007 12.0875 8.00809C10.9997 8.31403 10.0139 8.58598 8.8921 8.89192C6.37659 9.57179 3.86108 10.1837 1.41356 10.7955C2.39936 10.3876 3.04524 10.3876 3.7251 10.2177C5.59474 9.67377 7.46438 9.16387 9.19804 8.68796L7.15844 9.26585C8.17824 8.9939 9.06207 8.75595 10.1159 8.51799C9.80992 8.65397 9.13005 8.78994 8.96008 8.89192C10.3878 8.51799 11.7815 8.11007 13.1753 7.66816C14.8409 7.15826 13.8551 7.26024 13.1753 7.4302C9.74193 8.38202 6.61454 9.12987 3.38517 10.0817L1.10761 10.7616L0.529727 10.9315L0.46174 10.9655H0.427747H0.393754C-0.320107 13.617 0.189793 11.6794 0.0198266 12.2913L0.1558 12.4272L0.35976 12.6312L1.20959 13.447C1.82148 14.1269 2.7053 15.0107 3.07923 15.3846C3.18121 15.4866 3.28319 15.5886 3.41916 15.6906L2.43336 14.1949C1.88946 13.651 1.34557 13.1071 0.835668 12.5292Z" fill="#A3CD39"/>
<path d="M1.07359 12.4612L1.78745 13.2431C1.5495 13.0051 1.27755 12.7332 1.0056 12.4952H0.971609H0.937616L1.0396 12.5632C1.41352 12.9711 1.75346 13.3791 1.99141 13.651C1.58349 13.2091 1.20956 12.8352 0.869629 12.4952C1.37953 13.0391 1.88943 13.583 2.39933 14.1269L1.71946 13.1071C1.5155 12.9032 1.31154 12.6992 1.17557 12.4612H1.07359Z" fill="#A3CD39"/>
<path d="M1.44775 11.4415L1.51574 11.5095L1.65171 11.4755L1.51574 11.5095L10.1841 9.16391C10.49 9.02793 10.8639 8.89196 11.1699 8.78998C8.48438 9.46985 5.76491 10.2177 3.11343 10.9656C4.13323 10.6936 5.11904 10.4557 6.07085 10.2517C4.54115 10.6256 2.97746 11.0335 1.44775 11.4415ZM1.95765 11.3735H1.99165L2.29759 11.2715H2.33158L1.95765 11.3735Z" fill="#A3CD39"/>
<path d="M1.99151 11.3735H1.95752L2.29745 11.2715L1.99151 11.3735Z" fill="#A3CD39"/>
<path d="M11.1018 8.89197L10.9318 8.92596C10.8298 8.95996 10.7618 8.95996 10.6938 8.99395L10.9658 8.92596L11.1018 8.89197Z" fill="#A3CD39"/>
<path d="M16.2349 7.49817L16.5068 7.43018C16.4388 7.46417 16.3368 7.46417 16.2349 7.49817Z" fill="#A3CD39"/>
<path d="M15.2827 7.77016L16.2345 7.53221C15.9286 7.49822 15.6226 7.60019 15.2827 7.77016Z" fill="#A3CD39"/>
<path d="M19.5321 9.91167C18.8862 9.2658 18.1724 8.58594 17.4585 7.94006L17.5265 8.07604C18.2064 8.61993 18.7842 9.40178 19.5321 9.91167Z" fill="#A3CD39"/>
<path d="M16.9827 7.29425L16.8467 7.32824C16.9487 7.36224 17.0506 7.43022 17.1186 7.46421L16.9827 7.29425Z" fill="white"/>
<path d="M10.6939 9.02795L10.184 9.16393C10.15 9.16393 10.116 9.19792 10.082 9.19792C10.252 9.12993 10.49 9.06195 10.6939 9.02795Z" fill="white"/>
<path d="M3.21525 15.0108C2.94331 14.7048 2.67136 14.3989 2.39941 14.127L2.43341 14.1949C2.70535 14.4669 2.94331 14.7388 3.21525 15.0108Z" fill="white"/>
<path d="M17.2887 7.80415C17.3567 7.83815 17.3907 7.90613 17.4247 7.94012L17.1187 7.49821C17.0167 7.43023 16.9148 7.36224 16.8128 7.32825L16.5068 7.43023C16.8128 7.36224 17.0847 7.43023 17.2887 7.80415Z" fill="white"/>
<path d="M17.1186 7.49821C17.0166 7.43023 16.9487 7.39624 16.8467 7.36224C16.9487 7.36224 17.0506 7.43023 17.1186 7.49821Z" fill="white"/>
<path d="M2.67134 12.7672L2.16143 12.1893H2.12744L2.67134 12.7672Z" fill="white"/>
<path d="M2.09351 12.1553C2.63741 12.0193 3.24929 11.8494 3.89516 11.6454C3.96315 11.6114 4.03113 11.5774 4.09912 11.5774L5.05094 11.3395C6.13872 11.0335 7.12453 10.7276 7.66843 10.5916C8.3143 10.3536 6.20671 10.7276 6.34268 10.6256C7.02255 10.2177 8.38229 9.94573 10.1839 9.33385C10.6938 9.16388 9.81001 9.40184 9.77602 9.36784C9.844 9.33385 9.94598 9.29986 10.048 9.23187L9.94598 9.26586C9.97998 9.26586 10.014 9.23187 10.048 9.23187C10.082 9.23187 10.1159 9.19788 10.1499 9.19788L1.51562 11.5094L2.09351 12.1553ZM7.73641 9.84375L7.97437 9.77576L7.36249 9.97972C7.43047 9.97972 7.60044 9.91174 7.73641 9.84375Z" fill="white"/>
<path d="M4.23486 11.6114C5.83255 11.1695 7.39625 10.7616 8.95994 10.3196C8.654 10.3876 8.38205 10.4216 8.11011 10.4556C7.36225 10.8295 5.52661 11.2375 4.23486 11.6114Z" fill="white"/>
<path d="M10.0479 9.1978L10.9657 8.92584L10.6937 9.02782C10.4898 9.06182 10.2518 9.12981 10.0479 9.1978Z" fill="white"/>
<path d="M9.9458 9.23186L10.0478 9.19788C10.0138 9.23186 9.97979 9.23186 9.9458 9.23186Z" fill="white"/>
<path d="M17.5264 8.07611L17.4244 7.94014C17.3565 7.90615 17.3225 7.83816 17.2885 7.80417C17.0845 7.43024 16.8126 7.36225 16.5066 7.43024L16.2347 7.49823C16.2347 7.49823 16.2347 7.49823 16.2007 7.49823C16.7106 7.49823 17.1185 7.73618 17.5264 8.07611Z" fill="white"/>
<path d="M16.2346 7.49817L15.2828 7.73612C15.2148 7.77011 15.1468 7.80411 15.1128 7.8381C15.4527 7.87209 15.8606 7.63414 16.2346 7.49817Z" fill="white"/>
<path d="M7.73623 9.84374C7.60026 9.87774 7.43029 9.94572 7.3623 9.97971L7.97419 9.77576L7.73623 9.84374Z" fill="white"/>
<path d="M16.5404 6.88638L16.7104 6.85238L16.7783 6.81839H16.8123H16.8463C16.3364 6.64842 17.5262 7.05634 17.4242 7.02235L17.5942 7.2943L18.0021 7.83819L18.75 8.92598C19.2599 9.63984 19.7358 10.3197 20.2117 10.9996L19.1239 9.36789C19.6678 10.1497 20.1437 10.8296 20.6876 11.6454C20.4836 11.4415 20.1437 10.8976 20.0077 10.7956L18.0021 7.87218L17.5262 7.12433L17.4582 7.02235L17.4242 6.98836C16.3364 6.58044 17.1183 6.88638 16.8803 6.7844H16.8463L16.6424 6.85238L16.1665 6.98836L14.4668 7.39628C15.3166 7.02235 15.9285 7.05634 16.5404 6.88638Z" fill="#A3CD39"/>
<path d="M13.617 7.97406L13.2091 8.11003C12.1553 8.38198 11.1015 8.65393 10.0137 8.92588C11.1694 8.61994 12.4272 8.24601 13.617 7.97406Z" fill="#A3CD39"/>
<path d="M14.8071 7.80416C15.725 7.6342 17.2886 6.71638 17.6286 8.1441C17.2886 6.71638 15.7589 7.6342 14.8071 7.80416Z" fill="#A3CD39"/>
<path d="M5.4248 17.6282C5.4248 17.6282 5.4588 17.6282 5.4588 17.6622L5.52679 17.7302L6.24065 18.8859L6.03669 18.614C5.79873 18.2061 5.76474 18.0701 5.4248 17.6282Z" fill="#A3CD39"/>
<path d="M5.11865 17.1523C5.11865 17.1183 5.15265 17.1183 5.11865 17.0844L5.52657 17.7302L5.45859 17.6622C5.3906 17.5263 5.25463 17.2883 5.11865 17.1523Z" fill="#A3CD39"/>
<path d="M2.09316 12.2573C1.99118 12.1213 1.8892 12.0194 1.85521 11.9854L1.54926 11.4075L1.44728 11.2715C1.24332 11.7814 1.8892 10.0817 1.00537 12.4613H1.03936H1.07336L1.17534 12.4273L1.51527 12.3593C1.58326 12.3253 1.75323 12.2913 1.8892 12.2233L2.16115 12.1893L1.3793 12.3933L1.17534 12.4273L1.07336 12.4613H1.03936H1.00537C1.92319 10.0137 1.27732 11.7814 1.48128 11.2375L1.71923 11.5774L2.63705 13.0052L2.09316 12.2573Z" fill="#A3CD39"/>
<path d="M21.1297 15.3506C19.8379 15.9965 18.2742 16.6084 17.0165 17.2883C18.5462 16.6424 20.6198 15.7246 20.9257 15.7586C21.2317 15.8265 18.8861 16.7104 17.6963 17.2883C17.8663 17.2203 17.8663 17.2203 18.0363 17.1863C17.8663 17.2543 17.6963 17.2883 17.5944 17.3902C17.9343 17.2883 18.5462 17.0163 18.7161 17.0163L18.4442 17.1863C19.294 16.9483 20.7897 16.2685 21.6396 16.0305C19.634 16.7444 17.2884 17.7642 14.8749 18.852C13.6851 19.3958 12.4274 20.0077 11.2036 20.5856L9.40196 21.4694L8.51813 21.8434L8.07622 22.0473L7.83827 22.1493L7.73629 22.2173L7.6683 22.2513H7.63431C6.68249 21.9793 7.36236 22.1833 7.1584 22.1153C5.52672 19.7358 3.92903 17.5602 2.39932 15.5546C2.12738 15.1807 1.5155 14.1949 1.07358 13.515L0.461702 12.6312L0.155762 12.1892V12.1553C1.07358 9.74173 0.393715 11.4754 0.597676 10.9315H0.631669L0.699656 10.8975L0.835629 10.8635L1.10758 10.7955L3.14718 10.1496C6.07061 9.26582 8.92605 8.58595 12.0874 7.70212C12.6993 7.53216 13.6171 7.46417 12.0874 7.94008C10.8297 8.348 9.53794 8.72192 8.24619 9.06186C8.38216 8.95988 8.99404 8.8239 9.26599 8.72192C8.31417 8.95988 7.49833 9.16384 6.58051 9.40179L8.45015 8.89189C6.88645 9.33381 5.15279 9.77572 3.45312 10.2856C2.84124 10.4556 2.22936 10.4556 1.37952 10.7955C3.62309 10.2516 5.93464 9.67374 8.21219 9.06186C9.23199 8.78991 10.1498 8.51796 11.1356 8.28001C10.8297 8.38199 10.5237 8.44998 10.2518 8.51796C11.6795 8.17803 13.1072 7.8041 14.535 7.43018C10.5577 8.68793 6.1046 9.77572 2.05939 10.9655C3.21517 10.7615 4.71087 10.2176 5.73068 10.0477L2.94322 10.7955L1.54949 11.1694L0.835629 11.3394L0.767643 11.3734H0.733649C0.903616 10.8975 0.495696 12.0193 0.529689 11.9173L0.563682 11.9513L0.665662 12.1213L0.835629 12.4272L0.563682 12.0873C1.17556 13.1411 1.95741 14.1949 2.60329 15.2487L2.80725 15.4866L2.63728 15.2147C2.0254 14.2628 1.44751 13.345 0.869623 12.4272C1.14157 12.8351 1.44751 13.277 1.78744 13.8209C1.61748 13.515 1.37952 13.1071 1.10758 12.6652C1.0056 12.2232 0.563682 12.5292 0.767643 11.4414L1.68546 11.2034L0.971603 11.4074L0.801636 11.4754H0.767643C0.699656 11.6454 0.903616 11.1015 0.597676 11.8493L0.631669 11.8833L0.699656 11.9513L0.903616 12.2572C1.17556 12.6312 1.44751 13.0391 1.71946 13.379C1.5155 12.7331 0.665662 12.3932 0.971603 11.5094L2.94322 10.9995C2.22936 11.2714 1.54949 11.2034 0.767643 11.7813L2.80725 14.9767L2.70527 14.8407L2.87523 15.0787L3.69107 16.3364C3.92903 16.7104 4.20097 17.0843 4.47292 17.4242L4.60889 17.5942C4.50691 17.4922 4.47292 17.4582 4.60889 17.6622C5.22078 18.648 5.96863 19.6678 6.6485 20.8236C6.81846 21.1295 7.09041 21.5034 7.39635 21.9453C7.94025 22.1833 7.70229 21.9453 7.83827 21.9793L8.14421 21.8434L8.85807 21.5034L8.14421 21.8434L7.77028 21.9453C7.83827 21.9114 7.90625 21.8434 8.00823 21.8094C7.73629 21.7754 7.70229 22.2513 7.26038 21.8434L6.88645 21.2315L6.1386 20.0417L4.54091 17.6282C4.60889 17.7302 4.71087 17.8661 4.77886 17.9001L4.43893 17.4582L3.38513 15.8945C3.48711 16.0305 3.62309 16.1665 3.69107 16.3024C2.70527 14.7727 1.71946 13.277 0.733649 11.7813C2.43332 10.9995 3.99701 10.8295 5.6287 10.3536C4.74487 10.5236 3.82705 10.7615 2.90923 10.9995C5.35675 10.2856 7.80427 9.63975 10.2858 8.99387C9.84388 9.16384 9.26599 9.3678 8.99404 9.53777C9.02803 9.57176 9.80988 9.3678 9.36797 9.50377C7.73629 10.0817 6.51252 10.2856 5.86665 10.6935C5.76467 10.7955 7.70229 10.4896 7.09041 10.6935C6.58051 10.8635 5.69668 11.1015 4.71088 11.4074L3.82705 11.6454C3.79305 11.6454 3.72507 11.6793 3.65708 11.7133C2.60329 12.0193 1.58348 12.2912 1.03959 12.4272H1.0056C0.903616 12.6652 1.82144 10.2516 1.44751 11.2714V11.3054L1.4815 11.3394L1.5155 11.4074L1.58348 11.5434L1.75345 11.8153C1.78744 11.9173 1.85543 11.9853 1.85543 12.0873L2.09338 12.3932L3.01121 13.8209L3.48711 14.6368C3.48711 14.6368 3.48711 14.5688 3.52111 14.6028L4.67688 16.3704C4.81286 16.6084 4.94883 16.8463 5.01682 17.0503C5.52672 17.5942 6.41054 19.1239 7.09041 20.1097L7.60031 20.8916L7.83827 21.2655L7.97424 21.4694L8.00823 21.5034L8.04223 21.5374C6.37655 21.0615 7.60031 21.4015 7.22639 21.2995L7.32837 21.2655L7.60031 21.1635C7.73629 21.0955 7.87226 21.0275 7.94025 20.9595C8.41615 20.7556 8.79008 20.6196 9.198 20.4496C9.26599 20.4156 9.36797 20.3137 9.50394 20.2457L10.3538 19.8378L11.3396 19.3958C12.4614 18.8859 13.5831 18.41 14.7049 17.9341C14.7389 17.9341 14.7729 17.9341 14.7729 17.9681C14.9429 17.8661 15.1808 17.7642 15.3168 17.6962C15.2828 17.7302 15.2828 17.7302 15.2828 17.7302C15.7587 17.4582 15.8947 17.4582 16.3366 17.2883L16.6426 17.1183L16.7785 17.0503C17.3224 16.8803 17.8323 16.6424 18.3762 16.3704L20.1099 15.6566C20.6198 15.4866 20.8237 15.4526 21.1297 15.3506Z" fill="#A3CD39"/>
<path d="M6.34277 19.0219L7.26059 20.5176C6.88667 19.9737 6.58073 19.5317 6.34277 19.0219Z" fill="#A3CD39"/>
<path d="M7.4982 10.6595C7.73616 10.6255 8.0081 10.5915 8.28005 10.5236C6.85233 10.8975 5.42461 11.3054 3.96289 11.6793C5.11867 11.3734 6.81833 10.9655 7.4982 10.6595Z" fill="#A3CD39"/>
<path d="M5.49268 17.6622L5.52667 17.7302H5.56066L5.49268 17.6622Z" fill="#A3CD39"/>
<path d="M10.0477 9.19775L10.1837 9.16376L9.12988 9.46969C9.43582 9.36771 9.74176 9.26574 10.0477 9.19775Z" fill="#A3CD39"/>
<path d="M13.855 8.21211L15.9966 7.60023C17.1183 6.95436 17.3903 8.04214 17.9002 8.79C17.2543 6.64842 15.5207 7.94016 13.855 8.21211Z" fill="#A3CD39"/>
<path d="M7.1246 10.0477L7.32856 9.97968L6.78467 10.1836C6.85265 10.1156 7.02262 10.0817 7.1246 10.0477Z" fill="#A3CD39"/>
<path d="M45.1631 32.8572C45.1971 32.9252 45.2651 32.9932 45.2991 33.0952C45.2311 32.9932 45.1971 32.9252 45.1631 32.8572Z" fill="#A3CD39"/>
<path d="M46.8625 35.5427C46.3526 34.6928 45.8087 33.877 45.2988 33.0612C45.3328 33.0952 45.3328 33.1291 45.3668 33.1631C45.8767 33.979 46.3526 34.7608 46.8625 35.5427Z" fill="#A3CD39"/>
<path d="M38.2624 22.7952C38.2284 22.7272 38.1945 22.6932 38.1265 22.6252C38.1945 22.6932 38.2284 22.7272 38.2624 22.7952Z" fill="#A3CD39"/>
<path d="M35.4409 19.09C35.7129 19.4299 35.9508 19.7698 36.2228 20.1098C35.9508 19.7698 35.7129 19.4299 35.4409 19.09Z" fill="#A3CD39"/>
<path d="M36.2568 20.1437C36.9027 20.9596 37.5146 21.8094 38.1605 22.6253C37.5826 21.8434 36.9367 20.9936 36.2568 20.1437Z" fill="#A3CD39"/>
<path d="M36.2227 20.1097C36.2227 20.1097 36.2227 20.1437 36.2567 20.1437C36.2567 20.1097 36.2227 20.1097 36.2227 20.1097Z" fill="#A3CD39"/>
<path d="M24.8688 24.5969C23.951 25.0728 23.1691 25.4128 22.3873 25.7867C22.2513 25.8547 21.9794 25.9907 21.6734 26.1606C21.0615 26.4326 20.4836 26.7385 19.9058 26.9765C22.0813 26.0247 24.1209 25.0048 26.1266 23.985L25.5827 24.257C25.3107 24.393 25.0048 24.5289 24.8688 24.5969Z" fill="#A3CD39"/>
<path d="M41.6616 10.0477C41.7296 9.97972 41.7636 9.91174 41.8316 9.84375C41.7976 9.91174 41.7296 9.97972 41.6616 10.0477Z" fill="#A3CD39"/>
<path d="M46.3188 6.75044C46.4888 6.41051 46.6588 6.03658 46.7608 5.66266C46.7608 5.69665 46.7268 5.76464 46.6928 5.79863C46.5908 6.13856 46.4888 6.4445 46.3188 6.75044Z" fill="#A3CD39"/>
<path d="M45.0949 3.31699C44.6869 3.28299 44.279 3.31699 43.8711 3.38497C44.279 3.31699 44.7209 3.28299 45.0949 3.31699Z" fill="#A3CD39"/>
<path d="M28.5402 9.87776C30.4099 11.4754 32.7894 11.7134 33.9112 10.4216C34.999 9.1299 34.3871 6.78436 32.5174 5.22066C30.6478 3.62298 28.2343 3.38502 27.1465 4.67677C26.0587 5.96852 26.6706 8.28007 28.5402 9.87776Z" fill="#A3CD39"/>
<path d="M29.4584 19.7698C27.8607 20.7896 26.195 21.7754 24.4954 22.7612C23.8495 23.1351 23.2036 23.509 22.5577 23.883C22.0139 24.1889 21.436 24.4949 20.8581 24.8348C20.5521 25.0048 20.3142 25.1407 20.1782 25.2087C19.3964 25.6166 18.6485 25.9906 17.7307 26.4325C17.5947 26.5005 17.2888 26.6704 17.0168 26.8064L16.4729 27.0784C15.3172 27.6222 14.1954 28.1661 13.0396 28.676C11.9178 29.2199 10.4901 29.7638 9.19835 30.2057C9.02838 30.2737 8.82442 30.3417 8.65445 30.4097C8.55247 30.4437 8.45049 30.4777 8.34851 30.5117C8.17854 30.5797 8.00858 30.6477 7.83861 30.7496C7.80462 30.7496 7.77062 30.7836 7.77062 30.8176C7.73663 30.8176 7.70264 30.8856 7.70264 30.9196C7.70264 30.9536 7.77062 30.9536 7.80462 30.9536C7.8726 30.9536 7.9066 30.9876 7.97458 30.9876C8.11056 30.9876 8.21254 30.9876 8.34851 30.9536C8.4165 30.9536 8.48448 30.9196 8.55247 30.9196C8.79042 30.8516 8.99439 30.8176 9.23234 30.7496C9.33432 30.7156 9.40231 30.7156 9.50429 30.6817C9.64026 30.6477 9.81023 30.6137 9.9462 30.5797C10.0822 30.5457 10.2181 30.5117 10.3541 30.4777C10.5581 30.4437 10.762 30.3757 10.932 30.3417C11.4079 30.2397 11.9178 30.0698 12.4617 29.8998C13.8554 29.5259 15.1812 28.982 16.5409 28.4721C16.6429 28.4381 16.5749 28.4721 16.5409 28.4721C17.1528 28.2681 17.7307 27.9962 18.3086 27.7242C19.3624 27.2823 20.4162 26.7724 21.5039 26.2625L22.2518 25.8886C22.3878 25.8206 22.5577 25.7526 22.7617 25.6506L23.9515 25.0727C25.0053 24.5288 26.9429 23.543 28.9145 22.4553C29.0505 22.3873 29.1865 22.2853 29.2544 22.2513C29.7983 21.9454 30.3082 21.6394 30.8181 21.3675L29.4584 19.7698Z" fill="#A3CD39"/>
<path d="M35.067 18.6139L34.999 18.512C35.033 18.546 35.033 18.5799 35.067 18.6139Z" fill="#A3CD39"/>
<path d="M19.0902 6.95433C19.0222 6.92034 18.9542 6.88635 18.8862 6.81836C18.9882 6.88635 19.0222 6.92034 19.0902 6.95433Z" fill="#A3CD39"/>
<path d="M35.067 18.6139C35.033 18.5799 34.999 18.546 34.999 18.512L35.067 18.6139Z" fill="#A3CD39"/>
<path d="M54.2054 51.2817C54.2054 51.2137 54.2054 51.1797 54.1714 51.1117C54.1374 50.9417 54.0694 50.7718 54.0014 50.5678L53.8994 50.2959C53.6615 49.582 53.4235 48.8681 53.1176 48.1883C53.1516 48.2903 53.1856 48.3243 53.1856 48.3582C53.2876 48.6302 53.4235 48.9361 53.5255 49.2421C53.3216 48.7322 53.1516 48.2903 53.0156 47.9503C52.7777 47.3045 52.4717 46.5906 52.1658 45.8087C51.3499 43.9051 50.4661 42.0355 49.4803 40.2338C49.3783 40.0979 49.4463 40.1998 49.4463 40.2338C49.0384 39.418 48.5625 38.6361 48.1206 37.8203C47.3047 36.3926 46.4209 34.9649 45.5031 33.5371L44.8572 32.5173C44.7552 32.3474 44.6193 32.1434 44.4833 31.9055C44.5513 32.0414 44.6532 32.1434 44.7212 32.2794C44.8232 32.4154 44.9592 32.6193 45.1292 32.8913C44.3813 31.7015 43.6334 30.5797 42.8856 29.4239C43.4295 30.2398 43.9054 30.9536 44.3473 31.6675L43.3955 30.2058C43.0216 29.6279 42.5117 28.88 41.9338 28.0302C42.1717 28.4041 42.4437 28.7781 42.5796 28.948C42.6816 29.084 42.7836 29.22 42.8516 29.3899C42.3757 28.6761 41.8998 27.9622 41.4239 27.2824C41.5938 27.5203 41.7638 27.7583 41.8998 27.9962C41.016 26.7045 39.9282 25.1408 38.7724 23.5771C38.6364 23.3731 38.5004 23.2371 38.4325 23.1352C37.8886 22.3873 37.3447 21.6734 36.8348 20.9596C36.2229 20.1777 35.645 19.4299 35.0671 18.75L35.0331 18.716C35.0331 18.716 35.0331 18.716 35.0331 18.682V18.648C35.0331 18.648 35.0331 18.648 34.9991 18.682C34.9651 18.648 34.9651 18.614 34.9311 18.58L33.5374 17.0503C33.5374 17.0503 33.5714 17.0503 33.5374 17.0503C32.1097 15.3847 29.9341 12.9371 26.8747 10.0137C25.8549 9.02791 27.5886 10.7276 27.6226 10.7956C27.4526 10.6256 27.2146 10.4216 26.9767 10.1837C26.7727 9.97972 26.6028 9.80976 26.3988 9.63979C22.5236 5.93451 18.6483 3.18105 14.8071 1.75333C14.3651 1.58336 13.8892 1.41339 13.4133 1.24343C13.5493 1.27742 13.6513 1.34541 13.7873 1.3794C12.8015 1.03947 11.8836 0.767518 11.1018 0.631545C11.2038 0.631545 11.3057 0.665538 11.4417 0.665538C10.4219 0.427585 9.16416 0.291611 8.62027 1.3794C8.62027 1.41339 8.62027 1.44739 8.58627 1.48138C8.55228 1.54937 8.51829 1.65135 8.51829 1.75333C8.38231 2.22923 8.41631 2.77313 8.48429 3.31702C8.48429 3.24903 8.48429 3.14705 8.48429 3.07907C8.65426 4.74474 9.50409 7.39623 11.3057 11.4414L11.4077 11.6794C11.5777 12.0533 11.7477 12.4272 11.9176 12.8352C11.7477 12.3933 11.6457 11.9853 11.5097 11.5774L11.4417 11.3055C8.62027 1.44739 16.0308 5.08468 17.9005 6.10448C18.7163 6.54639 19.6001 7.12428 20.5179 7.80415C22.4216 9.29986 26.0249 12.4612 28.5064 15.2487C25.7529 12.4612 22.5236 9.12989 19.0562 6.92032C19.5661 7.26025 20.042 7.60019 20.8579 8.24606C22.3196 9.40184 23.6793 10.5916 25.0391 11.8834C26.3648 13.1751 27.5206 14.3309 28.6764 15.5546L29.0163 15.9286L29.6622 16.6424C30.444 17.4923 30.716 17.8322 31.3278 18.5461C31.5998 18.852 32.2117 19.5659 32.7216 20.1777C32.7216 20.1777 32.7216 20.1777 32.6876 20.1777C32.7896 20.2797 32.8575 20.3817 32.9595 20.4837C32.9595 20.5177 32.9935 20.5517 33.0615 20.6197C33.0615 20.6536 33.0955 20.6536 33.0955 20.6876C33.1975 20.7896 33.2995 20.8916 33.3335 20.9936C35.543 23.6111 37.6506 26.3305 39.7582 29.152C40.4041 30.0358 41.0499 30.8857 41.6618 31.7695C42.2057 32.5173 42.7156 33.2652 43.2935 34.047C43.5655 34.455 43.8034 34.7949 43.9394 34.9649C44.6193 35.9847 45.3331 37.0045 46.115 38.2282C46.2509 38.3982 46.4889 38.8061 46.7608 39.18C46.8968 39.418 47.0668 39.6559 47.2367 39.8939C48.2225 41.4576 49.2084 42.9873 50.1262 44.517C51.044 46.0467 52.0638 47.9843 52.9816 49.786C53.0836 49.9899 53.1856 50.2279 53.2876 50.4318C53.3895 50.6358 53.4915 50.8398 53.5935 51.0437C53.6615 51.1457 53.7295 51.2477 53.7975 51.3497C53.8315 51.3837 54.0014 51.5876 54.0694 51.5196C54.2054 51.4856 54.2054 51.3497 54.2054 51.2817ZM9.19815 0.801512C9.19815 0.801512 9.19815 0.767518 9.19815 0.801512C9.19815 0.767518 9.19815 0.767518 9.19815 0.801512C9.19815 0.801512 9.19815 0.767518 9.19815 0.801512Z" fill="#A3CD39"/>
<path d="M42.8857 29.356C42.8857 29.356 42.8857 29.3899 42.9197 29.3899C42.8857 29.356 42.8857 29.356 42.8857 29.356Z" fill="#A3CD39"/>
<path d="M35.1011 18.6819L35.441 19.0899L35.1011 18.6819Z" fill="#A3CD39"/>
<path d="M46.2851 3.52089C46.2511 3.52089 46.2171 3.4869 46.1831 3.4869C45.9791 3.41891 45.7072 3.35092 45.3672 3.35092C45.2653 3.35092 45.1973 3.35092 45.1293 3.35092C45.1633 3.35092 45.1973 3.35092 45.1973 3.35092C44.4834 3.31693 43.4976 3.4529 42.1719 3.75884C42.7158 3.62287 43.2936 3.4869 43.8715 3.41891C42.9537 3.52089 42.0359 3.79284 41.1861 3.96281C41.424 3.92881 41.696 3.86082 41.9679 3.82683C41.22 3.9968 40.3702 4.23475 39.4184 4.5067L39.1804 4.57469C38.8405 4.67667 38.5006 4.77865 38.1267 4.91462C38.5686 4.81264 38.9425 4.74465 39.3164 4.67667L39.5204 4.64267C46.0131 3.72485 43.0217 8.38195 42.1719 9.53772C41.8319 10.0476 41.39 10.5915 40.8461 11.1354C39.7923 12.1892 37.5828 14.1948 35.5771 15.6905L36.9029 17.1862C37.6168 16.6763 38.3986 16.0645 39.2144 15.3506C39.9623 14.7047 38.6705 15.7925 38.6366 15.7925C38.7725 15.6905 38.9765 15.5206 39.1804 15.3166C42.0359 12.9711 44.3134 10.4895 45.7412 7.87205C45.9451 7.49812 46.1491 7.0902 46.353 6.71627C46.2851 6.81825 46.2511 6.92023 46.1831 7.02221C46.523 6.34234 46.761 5.73046 46.8969 5.18657C46.8629 5.35653 46.829 5.49251 46.795 5.62848C47.0329 4.94861 47.1689 3.86083 46.2851 3.52089ZM46.727 3.86083C46.761 3.89482 46.761 3.89482 46.727 3.86083C46.727 3.89482 46.727 3.86083 46.727 3.86083Z" fill="#A3CD39"/>
<path d="M41.6616 10.0477C41.3217 10.4556 41.0157 10.7615 40.4378 11.4074C39.52 12.3252 38.5682 13.1751 37.5824 13.9909C36.8685 14.6028 36.1887 15.1467 35.5088 15.6226L35.5428 15.6566C37.6504 14.0589 39.9959 12.1553 41.6616 10.0477Z" fill="#A3CD39"/>
<path d="M24.7671 30.0358H28.3025V31.7015H24.7671V39.9959C24.7671 40.9817 25.753 41.6955 26.6028 41.6955C27.3166 41.6955 28.0645 41.3896 28.7444 41.0157L28.5404 42.8853C27.7586 43.2932 26.8407 43.4972 25.9569 43.4972C24.1553 43.4972 22.5236 42.5794 22.5236 40.6078V31.7015H20.8579V30.0358H22.5236V27.7243L24.8011 27.3163V30.0358H24.7671Z" fill="#231F20"/>
<path d="M31.022 30.6816C32.0758 30.4777 34.2514 30.0358 36.359 30.0358C38.7385 30.0358 41.152 30.7836 41.152 32.9592V43.1232H38.8745V35.8486C36.4609 37.9562 31.8378 36.7325 31.6679 39.8939C31.5999 41.0496 33.0276 42.1374 34.8633 42.1374C35.6451 42.1374 36.5629 41.9335 37.4468 41.4576L37.0048 43.3272C36.087 43.5651 35.2372 43.6671 34.4893 43.6671C31.3619 43.6671 29.4243 41.9335 29.4243 40.0638C29.4243 35.3047 38.9765 35.7807 38.9765 33.2651C38.9765 32.4153 38.1266 31.4295 35.8831 31.4295C34.4893 31.4295 32.2798 31.7694 30.7841 32.7552L31.022 30.6816Z" fill="#231F20"/>
<path d="M91.9038 30.6816C92.9576 30.4777 95.1332 30.0358 97.2068 30.0358C99.5863 30.0358 102 30.7836 102 32.9592V43.1232H99.7223V35.8486C97.3088 37.9562 92.6857 36.7325 92.5157 39.8939C92.4477 41.0496 93.8755 42.1374 95.7111 42.1374C96.4929 42.1374 97.4108 41.9335 98.2946 41.4576L97.8867 43.3272C96.9688 43.5651 96.119 43.6671 95.3712 43.6671C92.2438 43.6671 90.3062 41.9335 90.3062 40.0638C90.3062 35.3047 99.8583 35.7807 99.8583 33.2651C99.8583 32.4153 99.0085 31.4295 96.7649 31.4295C95.3712 31.4295 93.1616 31.7694 91.6659 32.7552L91.9038 30.6816Z" fill="#231F20"/>
<path d="M75.3489 30.0358V32.1094L68.1423 41.2536H75.179V43.1232H65.4229V41.2536L72.9014 31.9054H66.0347V30.0358H75.3489Z" fill="#231F20"/>
<path d="M78.8506 36.2566C78.8506 40.3698 81.1622 41.7296 83.8476 41.7296C85.2074 41.7296 86.6351 41.3896 87.9268 40.8457L87.5189 42.9193C86.5331 43.1913 85.1394 43.4632 83.6437 43.4632C80.2783 43.4632 76.5391 42.0695 76.5391 36.0527C76.641 31.7015 79.8024 29.6279 82.8958 29.6279C85.7853 29.6279 88.6407 31.5316 88.6407 35.1689C88.6407 35.5088 88.6067 35.8827 88.5727 36.2566H78.8506ZM86.4651 34.7949C86.3631 32.3814 84.6975 31.1236 82.8958 31.1236C81.1622 31.1236 79.2925 32.3474 78.8166 34.7949H86.4651Z" fill="#231F20"/>
<path d="M62.296 30.0358L58.1488 41.0156L54.8174 30.0358H52.5398L49.2085 39.7919C49.2765 39.9278 49.3445 40.0638 49.4125 40.1998C49.4125 40.1658 49.3445 40.0638 49.4464 40.1998C49.7524 40.8117 50.0923 41.3896 50.3983 42.0014L53.5257 32.4833L56.857 43.0892H59.1346L64.6075 30.0358H62.296Z" fill="#231F20"/>
</svg>
