<svg width="102" height="42" viewBox="0 0 102 42" fill="none" xmlns="http://www.w3.org/2000/svg">
<path d="M65.4126 1.83763C61.7465 -0.362227 56.9073 0.444386 54.1211 3.67084L32.6379 25.4494C23.6927 34.6155 36.6706 46.6414 45.6892 38.0619L52.2881 31.389V33.5889C52.728 38.6486 56.3941 41.2151 61.0133 41.2151C65.5593 41.2151 69.9585 38.0619 69.9585 33.1489V9.68378C69.9585 6.16401 68.1988 3.23087 65.4126 1.83763ZM65.8525 33.0756C65.8525 35.5688 63.3596 37.0353 61.0133 37.0353C58.9603 37.0353 57.5672 36.302 56.834 34.9088L56.7607 34.7621V23.9095L65.8525 14.7435V33.0756ZM65.8525 11.5903L42.8296 35.1288C41.5832 36.302 40.1901 36.8887 38.7969 36.8887C36.8173 36.8887 34.7643 35.5688 34.0311 33.7355C33.2978 31.9757 33.8111 30.1424 35.5708 28.3092L57.2006 6.45733L57.2739 6.384C58.1538 5.3574 59.5469 4.69744 60.94 4.69744C61.7465 4.69744 62.6264 4.91743 63.2863 5.3574L63.5063 5.50406C64.8994 6.23734 65.7792 7.77724 65.7792 9.61045V11.5903H65.8525Z" fill="#C3D700"/>
<path d="M36.5972 3.52419C34.9108 1.76431 32.5645 0.737707 30.0716 0.737707C27.652 0.737707 25.3791 1.69098 23.766 3.37753L18.7068 8.58386L15.1141 3.37753L14.7474 3.01089C13.1344 1.47099 11.0081 0.664379 8.88173 0.664379C6.53545 0.737707 4.26249 1.69098 2.57609 3.52419C-0.796691 6.97063 -0.870012 12.6903 2.42945 16.2834L10.3482 26.0361V32.1223C10.3482 37.182 14.4542 41.2884 19.5133 41.2884C24.5725 41.2884 28.7518 37.182 28.7518 32.1223V23.3229L36.4506 16.43L36.6705 16.21C39.8967 12.5436 39.8967 6.97063 36.5972 3.52419ZM24.4259 32.1223C24.4259 34.8355 22.2262 37.0353 19.5133 37.0353C16.8004 37.0353 14.6008 34.8355 14.6008 32.1223V24.4962L5.65559 13.4235C3.82256 11.517 3.82256 8.36388 5.65559 6.45733C6.53545 5.50406 7.70859 4.99076 8.88173 4.99076C9.98156 4.99076 11.0081 5.43073 11.8146 6.16402V6.23735L24.3526 24.3495V32.1223H24.4259ZM33.4444 13.3502L25.379 20.4631L19.9533 12.8369L26.7722 6.38401C27.5787 5.50406 28.7518 5.06409 29.9983 5.06409C31.3181 5.06409 32.5645 5.57739 33.4444 6.53066C35.2774 8.29055 35.2774 11.297 33.4444 13.3502Z" fill="#C3D700"/>
<path d="M89.6087 41.1417C96.6475 41.1417 102 35.7888 102 28.7492C102 24.4228 99.947 20.5364 96.6475 17.8966C99.8004 16.5033 102 13.3502 102 9.68379C102 4.69745 97.9673 0.664379 92.9815 0.664379H83.2297C76.1909 0.664379 70.8384 6.01736 70.8384 13.0569C70.8384 17.3833 72.8914 21.2697 76.1909 23.9095C73.0381 25.3028 70.8384 28.4559 70.8384 32.1223C70.8384 37.1087 74.8711 41.1417 79.8569 41.1417H89.6087ZM84.1829 36.8887H80.5168C77.8773 36.8887 75.7509 34.7621 75.7509 32.1223C75.7509 29.4825 77.8773 27.356 80.5168 27.356H84.1829V36.8887ZM84.1829 22.5896L83.8896 22.5163C79.1971 21.563 75.8243 17.6033 75.8243 13.0569C75.8243 8.36387 79.2704 4.91743 83.9629 4.91743H84.1829V22.5896ZM86.8225 4.99076H93.7147C96.3543 4.99076 98.4806 7.11729 98.4806 9.75712C98.4806 12.3969 96.3543 14.4501 93.7147 14.4501H86.8225V4.99076ZM86.9691 37.1087H86.6758V17.5299L87.0424 17.6033C92.7615 18.6299 96.9408 23.0296 96.9408 28.0893C96.8675 33.2956 92.6882 37.1087 86.9691 37.1087Z" fill="#C3D700"/>
</svg>
