<svg width="102" height="48" viewBox="0 0 102 48" fill="none" xmlns="http://www.w3.org/2000/svg">
<path fill-rule="evenodd" clip-rule="evenodd" d="M25.4069 2.41721C25.4069 3.73568 24.2863 4.83441 22.9415 4.83441C21.5968 4.83441 20.4762 3.73568 20.4762 2.41721C20.4762 1.09873 21.5968 0 22.9415 0C24.2863 0 25.4069 1.09873 25.4069 2.41721ZM32.9149 15.4921C35.4362 18.0192 37.1171 21.2055 37.9015 24.6115C38.7419 28.3472 38.4618 32.3027 36.8369 35.9285C34.7078 40.8727 30.2814 44.8282 25.0146 46.4763C18.291 48.5639 10.6149 46.7509 5.62817 41.8616C1.81811 38.1809 -0.255006 32.907 0.025145 27.688C0.249266 24.0622 1.53796 20.4913 3.77917 17.5797C8.20556 11.5916 15.9937 8.67995 23.3897 10.2731C26.9756 11.0422 30.3375 12.9101 32.9149 15.4921ZM29.0488 40.653C31.6822 37.4117 33.139 33.1267 33.139 28.567C33.139 27.1386 32.9709 25.7103 32.7468 24.3369C32.5787 23.2381 32.2425 22.1943 31.8503 21.2055C31.1779 19.4475 30.2254 17.8543 29.1048 16.4809C28.7126 15.9865 28.2643 15.547 27.8161 15.1075C27.0877 14.3933 26.2473 13.7341 25.4068 13.2397C23.5018 12.086 21.4286 11.4817 19.2435 11.4817C15.4894 11.4817 12.0156 13.2397 9.3822 16.4809C6.74878 19.7222 5.29199 24.0072 5.29199 28.567C5.29199 33.1267 6.74878 37.4117 9.32617 40.653C10.6149 42.1912 12.0717 43.3998 13.6404 44.2239C15.3774 45.1578 17.2264 45.6522 19.1874 45.6522C20.5322 45.6522 21.8769 45.3775 23.1656 44.938C25.3508 44.1689 27.3679 42.6856 29.0488 40.653ZM16.7782 4.83441C18.1229 4.83441 19.2435 3.73568 19.2435 2.41721C19.2435 1.09873 18.1229 0 16.7782 0C15.4335 0 14.3129 1.09873 14.3129 2.41721C14.3129 3.73568 15.3774 4.83441 16.7782 4.83441ZM102 2.41721C102 3.73568 100.879 4.83441 99.5347 4.83441C98.1899 4.83441 97.0693 3.73568 97.0693 2.41721C97.0693 1.09873 98.1899 0 99.5347 0C100.879 0 102 1.09873 102 2.41721ZM97.0133 14.778V15.8218V27.5232C97.0133 27.7576 97.0138 27.9924 97.0143 28.2276V28.2284C97.0189 30.584 97.0235 32.9768 96.5651 35.3242C96.1168 37.8513 94.9962 40.2136 93.4274 42.2462C92.3068 43.7295 90.962 44.9931 89.5052 46.0918C89.2251 46.3115 88.8889 46.5313 88.5527 46.6961C88.3846 46.806 87.4882 47.3004 87.4882 47.3004C88.4269 47.3004 89.4443 46.9534 90.3428 46.647C90.5168 46.5877 90.6863 46.5298 90.85 46.4763C91.9706 46.0918 92.9791 45.5424 93.9877 44.9381C95.9487 43.7295 97.6296 42.0814 98.8622 40.2136C101.946 35.6244 101.945 30.0271 101.944 24.7253V24.4468V16.2063V14.8329V9.83369C99.3105 9.83369 97.0133 12.0311 97.0133 14.778ZM78.9155 10.8225C81.9972 11.8663 84.7427 13.6792 86.8718 16.0414C91.3542 20.8759 93.1472 27.7979 90.962 34.0606C89.113 39.8839 84.4065 44.7732 78.4673 46.5861C75.7778 47.4102 72.8643 47.6299 70.0627 47.2454V33.0718H47.9869C47.7067 34.6649 47.2025 36.5877 46.194 38.5105C46.1379 38.6753 46.0259 38.895 45.9138 39.0598C44.0088 42.411 40.9271 45.1029 37.2291 46.4763C37.0655 46.5298 36.8959 46.5876 36.7219 46.6469C35.8235 46.9533 34.8061 47.3003 33.8673 47.3003C34.8198 46.7509 35.7723 46.1466 36.6688 45.4325C37.7334 44.6084 38.6299 43.6745 39.4703 42.6307C40.3668 41.477 41.1512 40.2135 41.7115 38.895C42.2718 37.5766 42.7201 36.2031 42.9442 34.8297C43.2929 32.6318 43.2873 30.3471 43.2817 28.0913C43.2811 27.8098 43.2804 27.5288 43.2804 27.2485V15.8217V14.7779C43.2804 12.0311 45.5216 9.77868 48.3231 9.77868V14.7779V30.4348H53.4778V27.8528C53.814 20.711 58.4645 14.1187 65.1882 11.3169C66.757 10.6577 68.4379 10.2182 70.1188 9.99842C70.1748 9.44906 70.2308 8.95463 70.2869 8.67995C70.3029 8.66431 70.3143 8.65313 70.3224 8.64385C70.3308 8.63433 70.3358 8.62684 70.3387 8.61862C70.3429 8.60672 70.3429 8.59332 70.3429 8.57007C70.9032 6.42755 72.9203 4.88933 75.2736 4.88933V9.99842C75.753 10.0454 76.1913 10.1327 76.6589 10.2257L76.6686 10.2276L76.6983 10.2335C76.7644 10.2466 76.831 10.2599 76.8984 10.2731C77.0665 10.328 77.2487 10.3692 77.4308 10.4104C77.6129 10.4517 77.7949 10.4929 77.963 10.5478C78.2306 10.5915 78.4626 10.67 78.7157 10.7556L78.7184 10.7566C78.7825 10.7782 78.8479 10.8004 78.9155 10.8225ZM58.9688 28.567C58.9688 29.1713 58.9688 29.7756 59.0248 30.3799H70.2869V11.7564C67.5414 12.4156 65.0761 14.0088 63.059 16.4809C60.4256 19.7222 58.9688 24.0072 58.9688 28.567ZM76.7864 44.938C78.9716 44.1689 80.9886 42.6856 82.6696 40.653C85.303 37.4117 86.7598 33.1267 86.7598 28.567C86.7598 27.1386 86.6477 25.7103 86.3676 24.3369C85.4711 19.9969 82.8937 15.6019 78.9716 13.2397C77.7949 12.5255 76.6183 12.0311 75.3296 11.7564V45.3775C75.7316 45.2899 76.0981 45.1674 76.4857 45.0378C76.5842 45.0049 76.6841 44.9715 76.7864 44.938ZM25.4068 25.5455H25.1268C25.1154 25.5455 25.1064 25.5455 25.0992 25.5459C25.0957 25.5461 25.0926 25.5465 25.09 25.547C25.0844 25.548 25.0804 25.5496 25.0776 25.5525C25.0761 25.554 25.0749 25.5559 25.074 25.5582C25.0729 25.5609 25.0721 25.5642 25.0717 25.5682C25.0707 25.5759 25.0707 25.5864 25.0707 25.6004C25.0707 25.6004 25.0147 25.6553 25.0147 25.7103V29.9953C25.0147 30.0186 25.0147 30.032 25.0189 30.0439C25.0247 30.0601 25.0384 30.0735 25.0707 30.1052L25.1268 30.1601H25.4068L25.4229 30.1601L25.4316 30.1598C25.4401 30.1594 25.4462 30.1586 25.4507 30.1566C25.4628 30.1513 25.4628 30.1381 25.4628 30.1052C25.4628 30.1052 25.5188 30.0503 25.5188 29.9953V25.7103C25.5188 25.6997 25.5188 25.6912 25.5184 25.6839C25.5181 25.6782 25.5176 25.6733 25.5166 25.6688C25.5161 25.6663 25.5154 25.664 25.5146 25.6617C25.5088 25.6455 25.4951 25.6321 25.4628 25.6004C25.4628 25.5455 25.4068 25.5455 25.4068 25.5455ZM16.9464 29.9953C16.7783 30.0503 16.6102 30.0503 16.4982 30.0503V30.27H13.9208H13.6967H13.4725V30.4348C13.4725 30.6546 13.5286 30.9293 13.6967 31.149C13.8647 31.3138 14.0328 31.3687 14.257 31.3687C14.313 31.3687 14.369 31.4237 14.369 31.4786C14.369 31.5885 14.369 31.7533 14.313 31.8082H14.2009C13.8647 31.8632 13.4725 31.7533 13.2484 31.4786C13.0803 31.2039 12.9683 30.8743 12.9683 30.4348V30.1601V29.8855C12.9683 29.8305 13.0243 29.7756 13.0243 29.7756C13.0552 29.7453 13.069 29.7317 13.0847 29.7256C13.0973 29.7206 13.1112 29.7206 13.1364 29.7206H14.4811H15.4896L15.2655 29.2262L15.0974 28.8966C14.9854 28.6219 14.8173 28.4022 14.5931 28.2374C14.369 28.0725 14.0328 28.0176 13.6967 28.0176H13.5846H13.4725H13.3605C13.3044 28.0176 13.2484 27.9627 13.2484 27.9077V27.6331C13.3044 27.5781 13.3044 27.5781 13.3605 27.5781C13.5286 27.5232 13.7527 27.5232 13.9208 27.5232C14.0889 27.5232 14.313 27.5232 14.4811 27.5781C14.6492 27.6331 14.8173 27.688 14.9854 27.7979C15.3749 28.0366 15.5952 28.4827 15.7933 28.8838L15.816 28.9299C15.8381 28.9746 15.86 29.0185 15.8818 29.0614L16.106 29.6657L16.162 29.7206H16.218H16.4982C16.6663 29.7206 16.8904 29.7206 17.0585 29.6657L17.0739 29.6657L17.0859 29.6653C17.0947 29.6648 17.1017 29.6637 17.1083 29.6614C17.1247 29.6557 17.1384 29.6423 17.1705 29.6108C17.2266 29.6108 17.2266 29.5558 17.2266 29.5009V27.9077L17.2826 27.8528C17.2826 27.8255 17.2826 27.8118 17.2895 27.8049C17.2964 27.7979 17.3104 27.7979 17.3386 27.7979H17.6188C17.6188 27.7979 17.6188 27.8528 17.6748 27.8528C17.6893 27.8528 17.7001 27.8528 17.7081 27.8538C17.7126 27.8543 17.7163 27.8552 17.7192 27.8565C17.7211 27.8574 17.7227 27.8585 17.724 27.8598C17.7268 27.8626 17.7285 27.8666 17.7294 27.8722C17.7303 27.8771 17.7307 27.8833 17.7308 27.891L17.7308 27.9077V29.5558C17.7308 29.5558 17.7308 29.6108 17.7869 29.6108C17.7869 29.6657 17.8429 29.6657 17.8989 29.6657C18.067 29.7206 18.1791 29.7206 18.3472 29.7206C18.5153 29.7206 18.6273 29.7206 18.7394 29.6657C18.7633 29.6657 18.777 29.6657 18.7892 29.6614C18.8056 29.6557 18.8193 29.6423 18.8514 29.6108C18.9075 29.6108 18.9075 29.5558 18.9075 29.5009V25.8202L18.9635 25.7652C18.9635 25.7103 18.9635 25.7103 19.0195 25.7103H19.2997L19.3557 25.7652C19.3839 25.7652 19.3979 25.7652 19.4048 25.7722C19.4117 25.7791 19.4117 25.7929 19.4117 25.8202V29.5558C19.4117 29.5558 19.4117 29.6108 19.4678 29.6108C19.4678 29.6657 19.5238 29.6657 19.5798 29.6657C19.8413 29.7023 20.1028 29.6901 20.3643 29.6779C20.495 29.6718 20.6257 29.6657 20.7565 29.6657H22.5494L22.3253 29.1713C22.2921 29.1062 22.2611 29.039 22.2297 28.9709C22.1021 28.6941 21.9678 28.4029 21.653 28.1824C21.2607 27.9077 20.7565 27.9077 20.3082 27.9627C20.2522 27.9627 20.1962 27.9077 20.1962 27.8528V27.5781C20.2283 27.5466 20.242 27.5332 20.2584 27.5275C20.2706 27.5232 20.2843 27.5232 20.3082 27.5232C20.3643 27.4682 20.4763 27.4682 20.5884 27.4682H20.8685C21.0366 27.4682 21.2607 27.4682 21.4288 27.5232C21.5969 27.5781 21.765 27.6331 21.9331 27.7429C22.3813 28.0176 22.6615 28.567 22.8296 29.0065L23.0537 29.6108L23.1097 29.6657H23.1658H23.558C23.6237 29.6657 23.67 29.6469 23.7085 29.6312C23.7357 29.6202 23.7589 29.6108 23.7821 29.6108C23.8381 29.6108 23.8381 29.5558 23.8381 29.446V25.7652L23.8942 25.7103C23.8942 25.6553 23.8942 25.6553 23.9502 25.6553H24.2303L24.2864 25.7103C24.3424 25.7103 24.3424 25.7103 24.3424 25.7652V29.2262V29.391V29.5558V29.7206V29.8855C24.3424 29.9404 24.2864 29.9404 24.2864 29.9953C24.2809 29.9953 24.2759 29.9959 24.2714 29.9968C24.2684 29.9974 24.2656 29.9982 24.263 29.9992L24.2581 30.0013C24.2469 30.0065 24.2386 30.0147 24.2303 30.0228C24.2163 30.0365 24.2023 30.0503 24.1743 30.0503H24.0062H23.7821H23.558H23.3339H23.1097H22.0452H20.8125C20.7021 30.0503 20.5884 30.0536 20.4729 30.057C20.1194 30.0673 19.7496 30.0781 19.4117 29.9953C19.3461 29.9953 19.2997 29.9765 19.2612 29.9609C19.234 29.9498 19.2108 29.9404 19.1876 29.9404L19.1829 29.9358C19.1798 29.933 19.1768 29.9303 19.1737 29.9278C19.1626 29.9186 19.1515 29.9111 19.1404 29.9046C19.1281 29.8975 19.1158 29.8915 19.1036 29.8855C19.0756 29.8717 19.0475 29.858 19.0195 29.8305C18.9075 29.9404 18.7954 29.9953 18.6273 29.9953C18.3472 30.0503 18.011 30.0503 17.6748 29.9953L17.3386 29.8305C17.2266 29.9404 17.1145 29.9953 16.9464 29.9953ZM20.9805 26.6442H21.2605C21.2729 26.6442 21.2827 26.6442 21.2908 26.6436C21.2983 26.643 21.3045 26.642 21.3104 26.6399C21.3267 26.6342 21.3405 26.6208 21.3725 26.5893C21.3725 26.5893 21.4285 26.5343 21.4285 26.4794V26.1498C21.4285 26.1277 21.4285 26.1145 21.4249 26.103C21.4195 26.086 21.406 26.0727 21.3725 26.0399C21.3725 26.0399 21.3165 25.985 21.2605 25.985H20.9805C20.9245 25.985 20.9245 25.985 20.8685 26.0399C20.8125 26.0399 20.8125 26.0948 20.8125 26.1498V26.4794C20.8125 26.49 20.8125 26.4986 20.8129 26.5059C20.813 26.509 20.8133 26.5119 20.8137 26.5146L20.8145 26.5196C20.8149 26.5219 20.8155 26.5241 20.8162 26.5263C20.8216 26.5433 20.8351 26.5565 20.8685 26.5893C20.8685 26.6442 20.9245 26.6442 20.9805 26.6442ZM16.33 30.5996H16.554C16.5779 30.5996 16.5916 30.5996 16.6038 30.6039C16.6072 30.6051 16.6106 30.6067 16.614 30.6086C16.6174 30.6106 16.621 30.6131 16.6248 30.6161C16.629 30.6194 16.6336 30.6234 16.6388 30.6282C16.6463 30.6352 16.6551 30.6438 16.666 30.6546C16.6984 30.6863 16.712 30.6997 16.7178 30.7159C16.722 30.7278 16.722 30.7412 16.722 30.7644V31.0941C16.722 31.149 16.722 31.2039 16.666 31.2039C16.6485 31.2211 16.6365 31.2329 16.6265 31.241C16.6181 31.2478 16.6112 31.252 16.6038 31.2546C16.5916 31.2589 16.5779 31.2589 16.554 31.2589H16.33C16.274 31.2589 16.218 31.2039 16.218 31.2039C16.1857 31.1722 16.172 31.1588 16.1662 31.1426C16.162 31.1307 16.162 31.1173 16.162 31.0941V30.7644C16.162 30.7095 16.218 30.6546 16.218 30.6546C16.2501 30.6231 16.2638 30.6096 16.2801 30.6039C16.2924 30.5996 16.3061 30.5996 16.33 30.5996ZM17.2265 30.5996H17.4505C17.4505 30.5996 17.5065 30.5996 17.5625 30.6546C17.5948 30.6863 17.6085 30.6997 17.6143 30.7159C17.616 30.7208 17.6171 30.7259 17.6177 30.7319C17.6185 30.7404 17.6185 30.7507 17.6185 30.7644V31.0941C17.6185 31.149 17.6185 31.2039 17.5625 31.2039C17.5305 31.2354 17.5167 31.2489 17.5004 31.2546C17.4961 31.2561 17.4916 31.2571 17.4866 31.2577C17.4773 31.2589 17.4661 31.2589 17.4505 31.2589H17.2265C17.1985 31.2589 17.1844 31.2451 17.1705 31.2314C17.1565 31.2177 17.1425 31.2039 17.1144 31.2039C17.0585 31.149 17.0585 31.149 17.0585 31.0941V30.7644C17.0585 30.7095 17.0585 30.6546 17.1144 30.6546C17.1465 30.6231 17.1603 30.6096 17.1766 30.6039C17.1888 30.5996 17.2026 30.5996 17.2265 30.5996ZM14.9293 30.5996H15.1533C15.2093 30.5996 15.2653 30.5996 15.2653 30.6546C15.2866 30.6755 15.2997 30.6884 15.308 30.6995C15.3124 30.7054 15.3153 30.7108 15.3173 30.7165C15.3213 30.7283 15.3213 30.7416 15.3213 30.7644V31.0941C15.3213 31.149 15.3213 31.2039 15.2653 31.2039C15.2477 31.2212 15.2357 31.233 15.2256 31.2411C15.2174 31.2478 15.2105 31.252 15.2031 31.2546C15.1909 31.2589 15.1772 31.2589 15.1533 31.2589H14.9293C14.8732 31.2589 14.8173 31.2039 14.8173 31.2039C14.7849 31.1722 14.7712 31.1588 14.7654 31.1426C14.7646 31.1404 14.764 31.1382 14.7635 31.1358C14.7628 31.1326 14.7623 31.1293 14.762 31.1256C14.7612 31.1172 14.7612 31.1072 14.7612 31.0941V30.7644C14.7612 30.7095 14.8173 30.6546 14.8173 30.6546C14.831 30.6411 14.8414 30.6309 14.85 30.6232C14.8616 30.613 14.8701 30.6072 14.8794 30.6039C14.8812 30.6033 14.8831 30.6027 14.885 30.6022C14.8881 30.6015 14.8913 30.601 14.8948 30.6006C14.9038 30.5996 14.9146 30.5996 14.9293 30.5996Z" fill="#D52A35"/>
</svg>
