<svg width="102" height="100" viewBox="0 0 102 100" fill="none" xmlns="http://www.w3.org/2000/svg">
<path d="M19.2612 90.9006V92.8388H7.32893C5.51183 92.8388 4.11872 92.5965 3.02846 92.112C1.99877 91.6274 1.27193 90.9006 0.787365 89.8709C0.302804 88.8412 0.121094 87.4481 0.121094 85.631C0.121094 83.8744 0.363374 82.4813 0.787365 81.3911C1.21136 80.3614 1.9382 79.574 2.96789 79.0894C3.99758 78.6048 5.33012 78.3626 7.02608 78.3626C7.75292 78.3626 8.90375 78.4231 10.4786 78.4837C12.0534 78.5443 13.2042 78.6049 13.9916 78.726V90.9006H19.2612ZM3.02846 88.7201C3.39188 89.4469 3.93701 90.0526 4.66385 90.3554C5.39069 90.7189 6.48095 90.9006 7.75292 90.9006H11.69V80.5431C9.87287 80.422 8.54033 80.3614 7.51064 80.3614C5.63297 80.3614 4.361 80.7854 3.57359 81.5728C2.84675 82.3602 2.42276 83.7533 2.42276 85.5704C2.48333 86.9029 2.66504 87.9326 3.02846 88.7201ZM4.90613 73.6381H7.20779V76.0003H4.90613V73.6381ZM8.72204 73.6381H11.0237V76.0003H8.72204V73.6381Z" fill="#636366"/>
<path d="M32.4654 90.9005V92.8388L19.2612 92.8388V90.9006L23.8039 90.9005V78.6654H26.1662V90.9005H32.4654ZM21.9262 95.1404H24.2279V97.5027H21.9262V95.1404ZM25.7422 95.1404H28.0438V97.5027H25.7422V95.1404Z" fill="#636366"/>
<path d="M53.665 90.9006V92.8388H52.6959C52.3325 92.8388 51.9085 92.7177 51.4845 92.536C51.0605 92.3543 50.6365 92.0514 50.2731 91.7486V92.8388L32.4654 92.8388V90.9005L37.4928 90.9006C37.19 89.2652 37.0688 87.6298 37.0688 85.9338C37.0688 84.6619 37.1294 83.3899 37.3111 82.1785C37.4928 80.9671 37.6745 79.9374 37.8562 79.15C38.3408 78.9683 39.0676 78.7866 39.9762 78.6049C40.8847 78.4231 41.9144 78.3626 42.9441 78.3626C45.4275 78.3626 47.2446 78.9077 48.456 80.0585C49.6068 81.2094 50.2125 83.087 50.2125 85.7521V89.8103C50.8788 90.5372 51.6662 90.9006 52.6353 90.9006H53.665ZM39.5522 88.7201C39.6733 89.6286 39.7339 90.3554 39.8551 90.9006H47.9109V85.7521C47.9109 83.8139 47.4869 82.4208 46.5783 81.6334C45.7304 80.7854 44.3978 80.3614 42.5807 80.3614C41.6116 80.3614 40.703 80.4825 39.9156 80.6642C39.6128 82.2996 39.4311 84.0562 39.4311 85.9944C39.4311 86.8424 39.4916 87.7509 39.5522 88.7201Z" fill="#636366"/>
<path d="M71.2303 78.9683V92.8388L53.665 92.8388V90.9006L59.7826 90.9006C59.2374 89.8709 58.9346 88.2961 58.9346 86.1155C58.9346 84.1773 59.1769 82.663 59.6009 81.6333C60.0249 80.6037 60.7517 79.8162 61.7814 79.3923C62.8111 78.9683 64.2648 78.726 66.1424 78.726C67.7173 78.726 69.1104 78.7866 70.3823 78.9077L71.2303 78.9683ZM62.3871 90.9006H68.8681V80.7248C67.475 80.6037 66.5059 80.6037 65.9607 80.6037C64.6888 80.6037 63.7196 80.7854 63.0534 81.1488C62.3871 81.5122 61.9025 82.0573 61.6603 82.8448C61.418 83.6322 61.2968 84.7224 61.2968 86.055C61.2363 88.4172 61.6603 90.0526 62.3871 90.9006ZM62.6294 73.6381H64.931V76.0003H62.6294V73.6381ZM66.4453 73.6381H68.7469V76.0003H66.4453V73.6381Z" fill="#636366"/>
<path d="M88.0082 92.8388H81.5272V93.1416C81.5272 97.6238 79.8312 99.8649 76.4999 99.8649C76.197 99.8649 75.8942 99.8649 75.5913 99.8649C75.2885 99.8649 75.1068 99.8043 74.8645 99.8043L74.1982 99.7438V97.8055C75.2279 97.8661 75.8336 97.9267 76.1365 97.9267C77.1662 97.9267 77.893 97.5633 78.4381 96.8364C78.9227 96.1096 79.165 95.0193 79.165 93.6868V78.6654H81.5272V90.84H88.0082V92.8388Z" fill="#636366"/>
<path d="M94.1259 72.4874V92.8389L88.0082 92.8388L88.0083 90.9007H91.7637V72.4874H94.1259Z" fill="#636366"/>
<path d="M102 72.4874H99.6377V92.8389H102V72.4874Z" fill="#636366"/>
<path d="M89.5831 20.397H100.062C101.031 20.397 101.818 21.1844 101.818 22.1535V66.7331C101.818 67.7022 101.031 68.4896 100.062 68.4896H89.6437C88.6745 68.4896 87.8871 67.7022 87.8871 66.7331C87.8871 58.7379 87.8871 30.1488 87.8871 22.1535C87.8266 21.245 88.614 20.397 89.5831 20.397Z" fill="black"/>
<path d="M89.5832 0.530029H100.244C101.213 0.530029 101.939 1.31744 101.939 2.22599V13.3103C101.939 14.2794 101.152 15.0063 100.244 15.0063H89.5832C88.6141 15.0063 87.8872 14.2189 87.8872 13.3103C87.8872 10.5241 87.8872 5.01221 87.8872 2.16542C87.8872 1.31744 88.6746 0.530029 89.5832 0.530029Z" fill="black"/>
<path d="M48.88 33.2984H59.5403C60.5094 33.2984 61.2363 34.0858 61.2363 34.9944V46.0787C61.2363 47.0478 60.4489 47.7747 59.5403 47.7747H48.88C47.9108 47.7747 47.184 46.9872 47.184 46.0787C47.184 43.2925 47.184 37.7806 47.184 34.9338C47.1234 34.0252 47.9108 33.2984 48.88 33.2984Z" fill="black"/>
<path d="M48.88 54.0739H59.5403C60.5094 54.0739 61.2363 54.8613 61.2363 55.7699V66.8542C61.2363 67.8233 60.4489 68.5502 59.5403 68.5502H48.88C47.9108 68.5502 47.184 67.7628 47.184 66.8542C47.184 64.068 47.184 58.5561 47.184 55.7093C47.1234 54.8613 47.9108 54.0739 48.88 54.0739Z" fill="black"/>
<path d="M69.3527 0.530029H79.8314C80.8005 0.530029 81.5879 1.31744 81.5879 2.28656V66.8543C81.5879 67.8234 80.8005 68.6108 79.8314 68.6108H69.3527C68.3836 68.6108 67.5962 67.8234 67.5962 66.8543C67.5962 56.4968 67.5962 12.644 67.5962 2.28656C67.5356 1.31744 68.3231 0.530029 69.3527 0.530029Z" fill="black"/>
<path d="M61.2364 2.28656C61.2364 1.31744 60.4489 0.530029 59.4798 0.530029C49.9097 0.530029 7.93468 0.530029 1.75653 0.530029C0.787411 0.530029 0 1.31744 0 2.34713V12.8258C0 13.7949 0.787411 14.5823 1.75653 14.5823H45.4276C46.3967 14.5823 47.1841 15.3697 47.1841 16.3388C47.1841 19.973 47.1841 23.3044 47.1841 25.2426C47.1841 26.2117 47.9715 26.9992 48.9406 26.9992H59.4192C60.3884 26.9992 61.1758 26.2117 61.1758 25.2426L61.2364 2.28656Z" fill="black"/>
<path d="M0 20.8816V31.4208C0 32.3899 0.787411 33.1773 1.75653 33.1773H16.4145C16.4751 33.1773 16.5356 33.1773 16.5962 33.1773C17.5048 33.2379 26.4086 34.3887 26.4086 45.1096V54.8008H1.93824C0.969121 54.8008 0.18171 55.5882 0.18171 56.5574V66.8543C0.18171 67.8234 0.969121 68.6108 1.93824 68.6108H39.0677C40.0368 68.6108 40.8242 67.8234 40.8242 66.8543V43.2319C40.8242 38.8103 37.19 19.0645 14.1128 19.0645C14.1128 19.0645 5.63302 19.125 1.8171 19.0645C0.787411 19.0645 0 19.8519 0 20.8816Z" fill="black"/>
</svg>
