<svg width="162" height="132" viewBox="0 0 162 132" fill="none" xmlns="http://www.w3.org/2000/svg">
<path d="M43.8462 60.8244L57.4423 112.268H66.077L52.3077 60.8244H43.8462ZM75.6731 60.8244L89.2693 112.268H97.9039L84.1347 60.8244H75.6731ZM156.289 7.53664C152.308 2.79184 146.462 0.390625 138.942 0.390625C132.019 0.390625 126.212 2.79184 121.692 7.51743C116.923 12.512 114.5 19.2354 114.5 27.4955C114.5 35.4292 116.404 41.7299 120.173 46.2058C124.173 50.9314 130.019 53.3134 137.519 53.3134C144.442 53.3134 150.269 50.9314 154.808 46.225C159.577 41.2113 162 34.4687 162 26.2085C162 18.3133 160.077 12.0125 156.289 7.53664ZM149.038 41.3073C146.212 44.5154 142.577 46.1482 138.212 46.1482C133.212 46.1482 129.346 44.3425 126.731 40.7695C124.212 37.3693 122.942 32.5477 122.942 26.4774C122.942 20.5992 124.462 15.8544 127.481 12.4159C130.308 9.18868 133.942 7.53664 138.308 7.53664C143.25 7.53664 147.115 9.34235 149.75 12.9154C152.289 16.3539 153.577 21.1755 153.577 27.265C153.558 33.1432 152.038 37.8496 149.038 41.3073Z" fill="#F6E934"/>
<path d="M34.8077 47.7803H19.2308C12.7115 47.7803 8.44231 47.8187 6.28846 47.9147C7.55769 46.0322 8.51923 44.5722 9.15384 43.5733L34.5577 4.61602V1.08144H0.903846V5.90308H16.7308C20.8077 5.90308 24.7308 5.86466 28.4231 5.78782C27.2115 7.49748 25.75 9.61055 24.1154 12.1078L0 49.1057V52.6787H34.8077V47.7803ZM69.6923 48.1452H49.2308V28.2632H68.7115V23.8065H49.2308V5.53809H69.6923V1.08144H43.9231V52.6787H69.6923V48.1452ZM4.17308 65.2803H20.1538V112.344H25.4615V65.2803H41.4423V60.7468H4.17308V65.2803ZM66.5769 123.486C65.6731 123.486 65.0577 123.908 64.7308 124.734L64.7115 124.715C64.7692 124.427 64.8077 124.081 64.8077 123.678V120.969H63.8077V129.018C64.3654 129.172 65.0192 129.249 65.7308 129.249C66.6346 129.249 67.3461 128.98 67.8654 128.423C68.3846 127.866 68.6538 127.097 68.6538 126.117C68.6538 125.272 68.4808 124.619 68.1154 124.158C67.7308 123.716 67.2308 123.486 66.5769 123.486ZM65.8077 128.442C65.4423 128.442 65.1154 128.403 64.8077 128.307V126.463C64.8077 125.925 64.9423 125.445 65.1923 125.042C65.4808 124.562 65.8654 124.331 66.3461 124.331C67.1731 124.331 67.5769 124.965 67.5769 126.214C67.5769 127.693 66.9808 128.442 65.8077 128.442ZM151.481 67.3357C147.538 62.5333 141.788 60.1129 134.404 60.1129C127.615 60.1129 121.962 62.4565 117.577 67.086C112.904 71.9653 110.538 78.6695 110.538 87.0065C110.538 94.9209 112.423 101.202 116.115 105.698C120.058 110.5 125.808 112.92 133.192 112.92C139.981 112.92 145.635 110.596 150.019 105.986C154.692 101.087 157.058 94.3638 157.058 86.0268C157.058 78.1508 155.173 71.8692 151.481 67.3357ZM146.154 102.778C142.865 106.408 138.712 108.252 133.827 108.252C128.096 108.252 123.654 106.197 120.577 102.125C117.635 98.2442 116.154 92.827 116.154 86.0268C116.154 79.5147 117.942 74.2128 121.462 70.2748C124.75 66.5866 128.904 64.7232 133.827 64.7232C139.519 64.7232 143.962 66.7979 147.038 70.8895C149.981 74.7891 151.462 80.187 151.462 86.9489C151.462 93.4994 149.673 98.8397 146.154 102.778ZM98.25 121.584L96.6154 126.425C96.4808 126.847 96.3461 127.328 96.1923 127.866H96.1731C96 127.193 95.8461 126.694 95.7307 126.367L94.1154 121.584H92.8654L91.75 129.153H92.8077L93.3269 124.85C93.4231 124.081 93.5 123.428 93.5384 122.833H93.5577C93.6731 123.37 93.8269 123.947 94.0384 124.562L95.5769 129.133H96.6731L98.2884 124.254C98.4038 123.889 98.5384 123.409 98.6923 122.833H98.7115C98.75 123.313 98.8461 123.966 98.9423 124.754L99.5769 129.153H100.654L99.5 121.584H98.25ZM86.8269 121.546L84.5577 121.603V129.172C84.7308 129.172 85.0192 129.172 85.4423 129.191C85.8654 129.21 86.2115 129.21 86.4808 129.21C87.7692 129.21 88.7692 128.884 89.5192 128.231C90.3077 127.539 90.6923 126.559 90.6923 125.291C90.7115 122.794 89.4038 121.546 86.8269 121.546ZM88.7692 127.616C88.25 128.096 87.5192 128.327 86.5961 128.327C86.2115 128.327 85.8654 128.307 85.5961 128.269V122.429C86.1538 122.41 86.5384 122.391 86.7308 122.391C88.6538 122.391 89.6154 123.37 89.6154 125.349C89.6154 126.348 89.3269 127.097 88.7692 127.616ZM97.6154 32.643C97.0961 32.0283 95.8846 30.6452 93.8846 28.4553C98.1731 28.244 101.827 27.0146 104.769 24.7862C108.404 22.0584 110.231 18.2741 110.231 13.5293C110.231 5.09627 104.654 0.8125 93.6346 0.8125C89.4038 0.8125 85.7692 0.889339 82.8461 1.06223L82.25 1.10065V52.6595H87.5577V28.4169H87.5769L107.019 52.6787H114.077L97.6154 32.643ZM87.5577 23.9218V5.48046C89.0577 5.3652 90.6538 5.30757 92.2884 5.30757C96.5384 5.30757 99.6923 5.9607 101.635 7.28617C103.75 8.7269 104.788 11.0513 104.788 14.3746C104.788 17.256 103.712 19.5228 101.519 21.2708C99.2308 23.0958 96.0384 24.0178 92 24.0178C90.1731 24.037 88.6731 23.9986 87.5577 23.9218ZM79.5577 121.584L76.8077 129.153H77.8654L78.5 127.385H81.7308L82.3654 129.153H83.5192L80.75 121.584H79.5577ZM78.75 126.579L79.7692 123.716C79.8846 123.409 79.9808 123.082 80.0769 122.698H80.0961C80.2115 123.082 80.3077 123.428 80.4231 123.735L81.4231 126.579H78.75ZM72.4038 126.137C72.1346 126.905 71.9615 127.481 71.8461 127.846H71.8269C71.6538 127.27 71.5192 126.809 71.4038 126.463L70.3461 123.563H69.2115L71.3269 129.133L71.0961 129.748C70.75 130.67 70.25 131.131 69.6154 131.131C69.3654 131.131 69.1346 131.093 68.9423 131.035L68.8269 131.938C69.0769 131.976 69.2884 131.996 69.4808 131.996C70.1154 131.996 70.6154 131.823 71.0192 131.477C71.4231 131.131 71.7884 130.497 72.1154 129.614L74.4038 123.563H73.3077L72.4038 126.137Z" fill="black"/>
<path d="M111.904 60.748L98.8461 108.772L96.4038 99.5709L106.615 60.748H111.904Z" fill="black"/>
<path d="M77.0767 73.1956L66.9421 108.657L64.519 99.5513C64.5383 99.4553 64.5767 99.3784 64.596 99.2824L74.6537 64.1094L77.0767 73.1956Z" fill="black"/>
</svg>
